G04 #@! TF.GenerationSoftware,KiCad,Pcbnew,(5.1.10)-1*
G04 #@! TF.CreationDate,2021-11-26T09:54:24+07:00*
G04 #@! TF.ProjectId,corne-cherry,636f726e-652d-4636-9865-7272792e6b69,3.0.1*
G04 #@! TF.SameCoordinates,Original*
G04 #@! TF.FileFunction,Copper,L1,Top*
G04 #@! TF.FilePolarity,Positive*
%FSLAX46Y46*%
G04 Gerber Fmt 4.6, Leading zero omitted, Abs format (unit mm)*
G04 Created by KiCad (PCBNEW (5.1.10)-1) date 2021-11-26 09:54:24*
%MOMM*%
%LPD*%
G01*
G04 APERTURE LIST*
G04 #@! TA.AperFunction,ComponentPad*
%ADD10C,1.524000*%
G04 #@! TD*
G04 #@! TA.AperFunction,ComponentPad*
%ADD11C,2.000000*%
G04 #@! TD*
G04 #@! TA.AperFunction,ComponentPad*
%ADD12O,1.397000X1.778000*%
G04 #@! TD*
G04 #@! TA.AperFunction,ComponentPad*
%ADD13O,2.500000X1.700000*%
G04 #@! TD*
G04 #@! TA.AperFunction,ViaPad*
%ADD14C,0.600000*%
G04 #@! TD*
G04 #@! TA.AperFunction,Conductor*
%ADD15C,0.250000*%
G04 #@! TD*
G04 #@! TA.AperFunction,Conductor*
%ADD16C,0.500000*%
G04 #@! TD*
G04 #@! TA.AperFunction,Conductor*
%ADD17C,0.508000*%
G04 #@! TD*
G04 #@! TA.AperFunction,Conductor*
%ADD18C,0.254000*%
G04 #@! TD*
G04 APERTURE END LIST*
D10*
X145618900Y-27116000D03*
X145618900Y-29656000D03*
X145618900Y-32196000D03*
X145618900Y-34736000D03*
X145618900Y-37276000D03*
X145618900Y-39816000D03*
X145618900Y-42356000D03*
X145618900Y-44896000D03*
X145618900Y-47436000D03*
X145618900Y-49976000D03*
X145618900Y-52516000D03*
X145618900Y-55056000D03*
X160838900Y-55056000D03*
X160838900Y-52516000D03*
X160838900Y-49976000D03*
X160838900Y-47436000D03*
X160838900Y-44896000D03*
X160838900Y-42356000D03*
X160838900Y-39816000D03*
X160838900Y-37276000D03*
X160838900Y-34736000D03*
X160838900Y-32196000D03*
X160838900Y-29656000D03*
X160838900Y-27116000D03*
D11*
X160839500Y-58455000D03*
X160839500Y-64955000D03*
D12*
X156983500Y-62202000D03*
X154443500Y-62202000D03*
X151903500Y-62202000D03*
X149363500Y-62202000D03*
D13*
X150749500Y-67366000D03*
X152249500Y-71566000D03*
X156249500Y-71566000D03*
X159249500Y-71566000D03*
D14*
X68722500Y-30279000D03*
X69522500Y-21679000D03*
X143022500Y-64179000D03*
X142022500Y-49379000D03*
X87797500Y-63579000D03*
X87797500Y-56479000D03*
X143222500Y-65979000D03*
X144908737Y-81556353D03*
X127047500Y-69579000D03*
X129822500Y-76979000D03*
X153962500Y-74134000D03*
X91922500Y-71978998D03*
X137322500Y-50279000D03*
X127277510Y-31567716D03*
X144712500Y-72479000D03*
X89047500Y-64879000D03*
X53922500Y-60279000D03*
X51347500Y-52979000D03*
X53822500Y-41179000D03*
X51447500Y-33779000D03*
X91922500Y-34079000D03*
X89047500Y-26779000D03*
X129922500Y-38879000D03*
X143222500Y-31479000D03*
X143372510Y-36079000D03*
X136322500Y-54279000D03*
X31422500Y-64379000D03*
X31422500Y-61879000D03*
X31422500Y-49379000D03*
X31422500Y-30379000D03*
X31422500Y-45379000D03*
X50522500Y-64379000D03*
X50122500Y-49579000D03*
X50379840Y-45368907D03*
X50422500Y-30379000D03*
X51211949Y-61068449D03*
X69422500Y-59679000D03*
X69422500Y-25679000D03*
X69422500Y-44679000D03*
X70992078Y-56348578D03*
X69422500Y-40679000D03*
X88422500Y-60879000D03*
X88822500Y-54879000D03*
X88422500Y-23279000D03*
X88422500Y-38279000D03*
X88422500Y-42279000D03*
X97922500Y-79479000D03*
X88422500Y-57279000D03*
X118422500Y-80379000D03*
X107422500Y-40679000D03*
X107422500Y-63679000D03*
X107422500Y-59679000D03*
X107422500Y-25679000D03*
X107822500Y-55479000D03*
X107422500Y-44679000D03*
X126822504Y-57979000D03*
X126422500Y-43079000D03*
X126422500Y-61979000D03*
X126422500Y-46979000D03*
X126422500Y-27979000D03*
X141022500Y-94179000D03*
X126422500Y-65979000D03*
X53142500Y-57894000D03*
X51522500Y-43879000D03*
X99222500Y-27779000D03*
X80802500Y-31420952D03*
X89422500Y-27679000D03*
X80522506Y-33128990D03*
X127977521Y-31979000D03*
X118297500Y-32629000D03*
X119012500Y-31054000D03*
X137222500Y-32579000D03*
X42422500Y-57679000D03*
X42522500Y-35279000D03*
X61122500Y-53879000D03*
X53922500Y-36379000D03*
X80322500Y-30479000D03*
X79122500Y-51829000D03*
X99222500Y-46879000D03*
X91722500Y-29279000D03*
X118858699Y-30177426D03*
X117022500Y-51929000D03*
X137022500Y-51579000D03*
X129822500Y-34079000D03*
X42022500Y-76579000D03*
X42722500Y-54179000D03*
X61122500Y-72879000D03*
X53822500Y-55579000D03*
X91822500Y-48279000D03*
X99222500Y-65879000D03*
X119272500Y-50079000D03*
X117222500Y-70879000D03*
X137222500Y-70579000D03*
X129722500Y-52979000D03*
X91822500Y-67279000D03*
X108722500Y-87879000D03*
X129822500Y-72079000D03*
X153615692Y-89285767D03*
X101322500Y-89279000D03*
X128622500Y-91879000D03*
X151122500Y-96279000D03*
X137422500Y-77779000D03*
X91172500Y-69614000D03*
X89122500Y-63579000D03*
X61322500Y-34879000D03*
X42817733Y-36783990D03*
X52222500Y-34379000D03*
X42722500Y-38744010D03*
X80647510Y-49779000D03*
X79092169Y-70709331D03*
X80447510Y-68379000D03*
X80322500Y-72379000D03*
X55522500Y-76529000D03*
X53522500Y-74479000D03*
X118322500Y-68479000D03*
X121122500Y-90779000D03*
D15*
X68722500Y-30279000D02*
X68722500Y-22479000D01*
X68722500Y-22479000D02*
X69522500Y-21679000D01*
X143022500Y-50379000D02*
X143022500Y-64179000D01*
X142022500Y-49379000D02*
X143022500Y-50379000D01*
X87797500Y-56479000D02*
X87797500Y-63579000D01*
X143197499Y-66004001D02*
X143222500Y-65979000D01*
X144908737Y-81556353D02*
X144608738Y-81256354D01*
X144608738Y-81256354D02*
X144399854Y-81256354D01*
X144399854Y-81256354D02*
X143197499Y-80053999D01*
X143197499Y-80053999D02*
X143197499Y-66004001D01*
D16*
X127227511Y-31617715D02*
X127277510Y-31567716D01*
X129922500Y-38879000D02*
X127227511Y-36184011D01*
X127227511Y-36184011D02*
X127227511Y-31617715D01*
X52422500Y-58779000D02*
X53922500Y-60279000D01*
X88672498Y-30828998D02*
X91622501Y-33779001D01*
X89022500Y-69379000D02*
X91622498Y-71978998D01*
X51347500Y-57704000D02*
X52422500Y-58779000D01*
X51447500Y-38804000D02*
X53822500Y-41179000D01*
X129322500Y-76979000D02*
X129822500Y-76979000D01*
X89022500Y-64904000D02*
X89022500Y-69379000D01*
X51347500Y-52979000D02*
X51347500Y-57704000D01*
X137746764Y-50279000D02*
X137322500Y-50279000D01*
X89047500Y-64879000D02*
X89022500Y-64904000D01*
X91622498Y-71978998D02*
X91922500Y-71978998D01*
X91622501Y-33779001D02*
X91922500Y-34079000D01*
X88672498Y-27154002D02*
X88672498Y-30828998D01*
X127047500Y-69579000D02*
X127047500Y-74704000D01*
X89047500Y-26779000D02*
X88672498Y-27154002D01*
X138822500Y-50279000D02*
X137746764Y-50279000D01*
X143222500Y-34979000D02*
X142622500Y-35579000D01*
X142622500Y-35579000D02*
X142622500Y-46479000D01*
X142622500Y-46479000D02*
X138822500Y-50279000D01*
X51447500Y-33779000D02*
X51447500Y-38804000D01*
X143222500Y-31479000D02*
X143222500Y-34979000D01*
X144712500Y-72479000D02*
X146367500Y-74134000D01*
X146367500Y-74134000D02*
X153538236Y-74134000D01*
X127047500Y-74704000D02*
X129322500Y-76979000D01*
X153538236Y-74134000D02*
X153962500Y-74134000D01*
D17*
X162549500Y-65688000D02*
X156671500Y-71566000D01*
X162549500Y-57745000D02*
X161549500Y-57745000D01*
X156671500Y-71566000D02*
X156717500Y-71566000D01*
X161549500Y-57745000D02*
X160839500Y-58455000D01*
X162549500Y-36446600D02*
X162549500Y-57745000D01*
X160839500Y-58455000D02*
X157092500Y-62202000D01*
X156717500Y-71566000D02*
X156983500Y-71832000D01*
X162549500Y-57745000D02*
X162549500Y-65688000D01*
X157092500Y-62202000D02*
X156983500Y-62202000D01*
X160838900Y-34736000D02*
X162549500Y-36446600D01*
X160838900Y-32196000D02*
X160838900Y-34736000D01*
X151097500Y-71566000D02*
X147042500Y-67511000D01*
X148035500Y-63904000D02*
X152741500Y-63904000D01*
X147042500Y-62911000D02*
X148035500Y-63904000D01*
X145618900Y-34736000D02*
X146834901Y-35952001D01*
X152249500Y-71566000D02*
X151097500Y-71566000D01*
X152741500Y-63904000D02*
X154443500Y-62202000D01*
X146883501Y-35952001D02*
X147042500Y-36111000D01*
X147042500Y-36111000D02*
X147042500Y-62911000D01*
X146834901Y-35952001D02*
X146883501Y-35952001D01*
X147042500Y-67511000D02*
X147042500Y-62911000D01*
D16*
X136322500Y-53779000D02*
X143322500Y-46779000D01*
X143322500Y-46779000D02*
X143322500Y-36129010D01*
X143322500Y-36129010D02*
X143372510Y-36079000D01*
X136322500Y-54279000D02*
X136322500Y-53779000D01*
D15*
X31422500Y-49379000D02*
X31422500Y-52479000D01*
X31422500Y-61879000D02*
X31422500Y-64379000D01*
X31422500Y-30379000D02*
X31422500Y-45379000D01*
X31422500Y-52479000D02*
X31422500Y-61879000D01*
X50422500Y-30379000D02*
X50822500Y-30779000D01*
X50722500Y-61379000D02*
X50722500Y-64179000D01*
X50901398Y-61379000D02*
X50911950Y-61368448D01*
X50911950Y-61368448D02*
X51211949Y-61068449D01*
X50122500Y-50979000D02*
X50722500Y-51579000D01*
X50122500Y-49579000D02*
X50122500Y-50979000D01*
X50679839Y-45068908D02*
X50379840Y-45368907D01*
X50822500Y-44926247D02*
X50679839Y-45068908D01*
X50722500Y-61379000D02*
X50901398Y-61379000D01*
X50722500Y-64179000D02*
X50522500Y-64379000D01*
X50722500Y-51579000D02*
X50722500Y-61379000D01*
X50822500Y-30779000D02*
X50822500Y-44926247D01*
X69422500Y-55679000D02*
X69422500Y-59679000D01*
X70092078Y-56348578D02*
X70567814Y-56348578D01*
X69422500Y-44679000D02*
X69422500Y-55679000D01*
X69422500Y-55679000D02*
X70092078Y-56348578D01*
X70567814Y-56348578D02*
X70992078Y-56348578D01*
X69422500Y-25679000D02*
X69422500Y-40679000D01*
X88122501Y-37979001D02*
X88422500Y-38279000D01*
X88097488Y-23604012D02*
X88097488Y-37953988D01*
X97922500Y-79179000D02*
X97922500Y-79479000D01*
X88422500Y-60879000D02*
X88422500Y-69679000D01*
X88522501Y-55178999D02*
X88822500Y-54879000D01*
X88422500Y-55179000D02*
X88522501Y-55178999D01*
X88422500Y-23279000D02*
X88097488Y-23604012D01*
X88097488Y-37953988D02*
X88122501Y-37979001D01*
X88422500Y-42279000D02*
X88422500Y-55179000D01*
X88422500Y-55179000D02*
X88422500Y-57279000D01*
X88422500Y-69679000D02*
X97922500Y-79179000D01*
D16*
X107422500Y-69379000D02*
X118122501Y-80079001D01*
D15*
X107422500Y-44679000D02*
X107422500Y-57479000D01*
X107422500Y-57479000D02*
X107422500Y-59679000D01*
X107822500Y-55479000D02*
X107422500Y-56279000D01*
X107422500Y-25679000D02*
X107422500Y-40679000D01*
D16*
X107422500Y-63679000D02*
X107422500Y-69379000D01*
X118122501Y-80079001D02*
X118422500Y-80379000D01*
D15*
X107422500Y-56279000D02*
X107422500Y-57479000D01*
X126652500Y-42424736D02*
X126422500Y-42654736D01*
X126422500Y-27979000D02*
X126652500Y-28209000D01*
X126652500Y-28209000D02*
X126652500Y-42424736D01*
X126422500Y-42654736D02*
X126422500Y-43079000D01*
X126422500Y-46979000D02*
X126422500Y-61979000D01*
X141022500Y-82179000D02*
X141022500Y-94179000D01*
X126422500Y-75179000D02*
X130222500Y-78979000D01*
X130222500Y-78979000D02*
X137822500Y-78979000D01*
D18*
X126422500Y-58279000D02*
X126522505Y-58278999D01*
D15*
X137822500Y-78979000D02*
X141022500Y-82179000D01*
X126422500Y-65979000D02*
X126422500Y-75179000D01*
D18*
X126522505Y-58278999D02*
X126822504Y-57979000D01*
X143949502Y-35728028D02*
X143999512Y-35778038D01*
X143949502Y-36429972D02*
X143949502Y-70544986D01*
X144929500Y-28388000D02*
X143949502Y-29367998D01*
X159570900Y-28388000D02*
X144929500Y-28388000D01*
X143999512Y-35778038D02*
X143999512Y-36379962D01*
X160838900Y-29656000D02*
X159570900Y-28388000D01*
X143949502Y-70544986D02*
X146878516Y-73474000D01*
X143949502Y-29367998D02*
X143949502Y-35728028D01*
X153401538Y-73456998D02*
X158462502Y-73456998D01*
X158462502Y-73456998D02*
X159249500Y-72670000D01*
X143999512Y-36379962D02*
X143949502Y-36429972D01*
X146878516Y-73474000D02*
X153384536Y-73474000D01*
X153384536Y-73474000D02*
X153401538Y-73456998D01*
X159249500Y-72670000D02*
X159249500Y-71566000D01*
X153202468Y-73014000D02*
X154222500Y-71993968D01*
X145618900Y-32196000D02*
X144453522Y-33361378D01*
X144403513Y-70356929D02*
X147060584Y-73014000D01*
X144453522Y-33361378D02*
X144453522Y-36568020D01*
X147060584Y-73014000D02*
X153202468Y-73014000D01*
X160481500Y-64955000D02*
X160839500Y-64955000D01*
X144453522Y-36568020D02*
X144403513Y-36618029D01*
X144403513Y-36618029D02*
X144403513Y-70356929D01*
X154222500Y-71993968D02*
X154222500Y-71214000D01*
X154222500Y-71214000D02*
X160481500Y-64955000D01*
X156007557Y-60882011D02*
X153223489Y-60882011D01*
X152601999Y-61503501D02*
X151903500Y-62202000D01*
X158973510Y-57916058D02*
X156007557Y-60882011D01*
X153223489Y-60882011D02*
X152601999Y-61503501D01*
X160838900Y-39816000D02*
X158973511Y-41681389D01*
X158973511Y-41681389D02*
X158973510Y-57916058D01*
X155819500Y-60428000D02*
X151119500Y-60428000D01*
X160838900Y-37276000D02*
X158519500Y-39595400D01*
X158519500Y-39595400D02*
X158519500Y-57728000D01*
X151119500Y-60428000D02*
X149363500Y-62184000D01*
X158519500Y-57728000D02*
X155819500Y-60428000D01*
X149363500Y-62184000D02*
X149363500Y-62202000D01*
D15*
X50922500Y-45679000D02*
X50922500Y-50579000D01*
X53052500Y-57894000D02*
X53142500Y-57894000D01*
X51992500Y-51649000D02*
X51992500Y-56834000D01*
X50922500Y-50579000D02*
X51992500Y-51649000D01*
X51522500Y-43879000D02*
X51522500Y-45079000D01*
X51992500Y-56834000D02*
X53052500Y-57894000D01*
X51522500Y-45079000D02*
X50922500Y-45679000D01*
X90617500Y-26484000D02*
X89722499Y-27379001D01*
X97927500Y-26484000D02*
X90617500Y-26484000D01*
X80522506Y-31700946D02*
X80802500Y-31420952D01*
X89722499Y-27379001D02*
X89422500Y-27679000D01*
X80522506Y-33128990D02*
X80522506Y-31700946D01*
X99222500Y-27779000D02*
X97927500Y-26484000D01*
X128777521Y-31179000D02*
X128277520Y-31679001D01*
X128277520Y-31679001D02*
X127977521Y-31979000D01*
X137222500Y-32579000D02*
X135822500Y-31179000D01*
X135822500Y-31179000D02*
X128777521Y-31179000D01*
X118297500Y-32629000D02*
X118297500Y-31769000D01*
X118297500Y-31769000D02*
X119012500Y-31054000D01*
X42522500Y-35279000D02*
X43442735Y-36199235D01*
X43442735Y-46858765D02*
X42022501Y-48278999D01*
X42522500Y-54879000D02*
X42522500Y-57579000D01*
X42522500Y-57579000D02*
X42422500Y-57679000D01*
X42022501Y-48278999D02*
X42022501Y-54379001D01*
X42022501Y-54379001D02*
X42522500Y-54879000D01*
X43442735Y-36199235D02*
X43442735Y-46858765D01*
X54532500Y-40974000D02*
X54532500Y-42594000D01*
X60622500Y-53379000D02*
X61122500Y-53879000D01*
X53522500Y-36779000D02*
X53522500Y-39964000D01*
X54532500Y-42594000D02*
X60622500Y-48684000D01*
X53522500Y-39964000D02*
X54532500Y-40974000D01*
X53922500Y-36379000D02*
X53522500Y-36779000D01*
X60622500Y-48684000D02*
X60622500Y-53379000D01*
X81457502Y-31714002D02*
X81457502Y-31063998D01*
X79122500Y-43879000D02*
X81222500Y-41779000D01*
X81222500Y-31949004D02*
X81457502Y-31714002D01*
X80872504Y-30479000D02*
X80746764Y-30479000D01*
X80746764Y-30479000D02*
X80322500Y-30479000D01*
X79122500Y-51829000D02*
X79122500Y-43879000D01*
X81457502Y-31063998D02*
X80872504Y-30479000D01*
X81222500Y-41779000D02*
X81222500Y-31949004D01*
X92602500Y-33784000D02*
X92602500Y-35374000D01*
X91722500Y-32904000D02*
X92602500Y-33784000D01*
X92602500Y-35374000D02*
X98622500Y-41394000D01*
X91722500Y-29279000D02*
X91722500Y-32904000D01*
X98622500Y-41394000D02*
X98622500Y-46279000D01*
X98622500Y-46279000D02*
X99222500Y-46879000D01*
X119282963Y-30177426D02*
X118858699Y-30177426D01*
X119122499Y-42179001D02*
X119122499Y-32439005D01*
X120227502Y-30733998D02*
X119670930Y-30177426D01*
X117022500Y-44279000D02*
X119122499Y-42179001D01*
X117022500Y-51929000D02*
X117022500Y-44279000D01*
X120227502Y-31334002D02*
X120227502Y-30733998D01*
X119670930Y-30177426D02*
X119282963Y-30177426D01*
X119122499Y-32439005D02*
X120227502Y-31334002D01*
X130562500Y-39894000D02*
X136697499Y-46028999D01*
X136697499Y-46028999D02*
X136697499Y-51253999D01*
X136697499Y-51253999D02*
X137022500Y-51579000D01*
X129822500Y-37704000D02*
X130562500Y-38444000D01*
X129822500Y-34079000D02*
X129822500Y-37704000D01*
X130562500Y-38444000D02*
X130562500Y-39894000D01*
X43047501Y-54504001D02*
X43047501Y-65653999D01*
X42722500Y-54179000D02*
X43047501Y-54504001D01*
X43047501Y-65653999D02*
X42022500Y-66679000D01*
X42022500Y-66679000D02*
X42022500Y-76154736D01*
X42022500Y-76154736D02*
X42022500Y-76579000D01*
X53822500Y-59224000D02*
X54602500Y-60004000D01*
X54602500Y-61759000D02*
X60322500Y-67479000D01*
X60322500Y-72079000D02*
X61122500Y-72879000D01*
X54602500Y-60004000D02*
X54602500Y-61759000D01*
X60322500Y-67479000D02*
X60322500Y-72079000D01*
X53822500Y-55579000D02*
X53822500Y-59224000D01*
X98622500Y-60679000D02*
X98622500Y-65279000D01*
X98622500Y-65279000D02*
X99222500Y-65879000D01*
X91822500Y-48279000D02*
X91822500Y-53879000D01*
X91822500Y-53879000D02*
X98622500Y-60679000D01*
X119272500Y-61229000D02*
X119272500Y-50503264D01*
X119272500Y-50503264D02*
X119272500Y-50079000D01*
X117222500Y-70879000D02*
X117222500Y-63279000D01*
X117222500Y-63279000D02*
X119272500Y-61229000D01*
X136722500Y-65879000D02*
X136722500Y-69654736D01*
X136722500Y-69654736D02*
X137222500Y-70154736D01*
X137222500Y-70154736D02*
X137222500Y-70579000D01*
X129722500Y-52979000D02*
X129722500Y-58879000D01*
X129722500Y-58879000D02*
X136722500Y-65879000D01*
X104192500Y-78684000D02*
X108122500Y-82614000D01*
X100282500Y-78684000D02*
X104192500Y-78684000D01*
X91822500Y-70224000D02*
X100282500Y-78684000D01*
X91822500Y-67279000D02*
X91822500Y-70224000D01*
X108122500Y-82614000D02*
X108122500Y-87279000D01*
X108122500Y-87279000D02*
X108722500Y-87879000D01*
X133822500Y-76079000D02*
X136622500Y-76079000D01*
X129822500Y-72079000D02*
X133822500Y-76079000D01*
X152108925Y-87779000D02*
X153315693Y-88985768D01*
X153315693Y-88985768D02*
X153615692Y-89285767D01*
X142122500Y-85979000D02*
X143922500Y-87779000D01*
X143922500Y-87779000D02*
X152108925Y-87779000D01*
X142122500Y-81579000D02*
X142122500Y-85979000D01*
X136622500Y-76079000D02*
X142122500Y-81579000D01*
X112722500Y-90979000D02*
X103022500Y-90979000D01*
X103022500Y-90979000D02*
X101322500Y-89279000D01*
X115522500Y-93779000D02*
X112722500Y-90979000D01*
X127122500Y-93779000D02*
X115522500Y-93779000D01*
X127222500Y-93879000D02*
X127122500Y-93779000D01*
X128922500Y-92179000D02*
X127222500Y-93879000D01*
X128622500Y-91879000D02*
X128922500Y-92179000D01*
X141522500Y-93479000D02*
X144322500Y-96279000D01*
X137422500Y-77779000D02*
X141522500Y-81879000D01*
X144322500Y-96279000D02*
X151122500Y-96279000D01*
X141522500Y-81879000D02*
X141522500Y-93479000D01*
X89122500Y-63579000D02*
X89722500Y-64179000D01*
X89722500Y-68164000D02*
X91172500Y-69614000D01*
X89722500Y-64179000D02*
X89722500Y-68164000D01*
X53022500Y-33579000D02*
X52522499Y-34079001D01*
X52522499Y-34079001D02*
X52222500Y-34379000D01*
X60022500Y-33579000D02*
X53022500Y-33579000D01*
X42722500Y-38744010D02*
X42722500Y-36879223D01*
X42722500Y-36879223D02*
X42817733Y-36783990D01*
X61322500Y-34879000D02*
X60022500Y-33579000D01*
X80522500Y-49904010D02*
X80647510Y-49779000D01*
X80947509Y-51304009D02*
X80522500Y-50879000D01*
X80522500Y-50879000D02*
X80522500Y-49904010D01*
X79222500Y-70679000D02*
X79822500Y-70079000D01*
X79822500Y-70079000D02*
X79822500Y-62279000D01*
X79122500Y-70679000D02*
X79222500Y-70679000D01*
X79092169Y-70709331D02*
X79122500Y-70679000D01*
X79822500Y-62279000D02*
X80947509Y-61153991D01*
X80947509Y-61153991D02*
X80947509Y-51304009D01*
X80422500Y-72279000D02*
X80422500Y-68404010D01*
X80322500Y-72379000D02*
X80422500Y-72279000D01*
X53622500Y-74629000D02*
X53622500Y-74579000D01*
X53622500Y-74579000D02*
X53522500Y-74479000D01*
X55522500Y-76529000D02*
X53622500Y-74629000D01*
X80422500Y-68404010D02*
X80447510Y-68379000D01*
X118222500Y-68579000D02*
X118222500Y-70279000D01*
X119522500Y-71579000D02*
X119522500Y-89179000D01*
X118222500Y-70279000D02*
X119522500Y-71579000D01*
X118322500Y-68479000D02*
X118222500Y-68579000D01*
X119522500Y-89179000D02*
X121122500Y-90779000D01*
M02*
