G04 #@! TF.GenerationSoftware,KiCad,Pcbnew,(5.1.10)-1*
G04 #@! TF.CreationDate,2021-11-26T09:54:24+07:00*
G04 #@! TF.ProjectId,corne-cherry,636f726e-652d-4636-9865-7272792e6b69,3.0.1*
G04 #@! TF.SameCoordinates,Original*
G04 #@! TF.FileFunction,Profile,NP*
%FSLAX46Y46*%
G04 Gerber Fmt 4.6, Leading zero omitted, Abs format (unit mm)*
G04 Created by KiCad (PCBNEW (5.1.10)-1) date 2021-11-26 09:54:24*
%MOMM*%
%LPD*%
G01*
G04 APERTURE LIST*
G04 #@! TA.AperFunction,Profile*
%ADD10C,0.200000*%
G04 #@! TD*
G04 #@! TA.AperFunction,Profile*
%ADD11C,0.120000*%
G04 #@! TD*
G04 APERTURE END LIST*
D10*
X85458905Y-78340629D02*
X85285375Y-78227650D01*
X85285375Y-78227650D02*
X85105339Y-78194073D01*
X133680500Y-97844000D02*
X133478805Y-97789772D01*
X133478805Y-97789772D02*
X133274285Y-97747995D01*
X133274285Y-97747995D02*
X133067516Y-97718784D01*
X133067516Y-97718784D02*
X133025944Y-97714460D01*
X96001929Y-92797789D02*
X96175483Y-92910619D01*
X96175483Y-92910619D02*
X96355494Y-92944087D01*
X163128209Y-82791717D02*
X163217691Y-82612848D01*
X163217691Y-82612848D02*
X163293173Y-82398231D01*
X163293173Y-82398231D02*
X163339347Y-82175589D01*
X163339347Y-82175589D02*
X163355441Y-81947896D01*
X163355441Y-81947896D02*
X163355300Y-81919228D01*
X123603823Y-19191707D02*
X123603823Y-17693109D01*
X142105165Y-19692087D02*
X124104203Y-19692087D01*
X163355300Y-22444174D02*
X163305974Y-22227480D01*
X163305974Y-22227480D02*
X163173356Y-22058482D01*
X163173356Y-22058482D02*
X162980331Y-21960061D01*
X162980331Y-21960061D02*
X162855417Y-21944301D01*
X163354784Y-22442904D02*
X163354784Y-81916945D01*
X29605372Y-22444174D02*
X29603596Y-77692930D01*
X67105389Y-21944301D02*
X67322172Y-21895049D01*
X67322172Y-21895049D02*
X67491257Y-21762443D01*
X67491257Y-21762443D02*
X67589738Y-21569380D01*
X67589738Y-21569380D02*
X67605511Y-21444427D01*
X67605511Y-21444427D02*
X67605511Y-21444179D01*
X67104119Y-21942525D02*
X30105499Y-21944301D01*
X68105384Y-17194252D02*
X67888691Y-17243580D01*
X67888691Y-17243580D02*
X67719694Y-17376193D01*
X67719694Y-17376193D02*
X67621272Y-17569212D01*
X67621272Y-17569212D02*
X67605511Y-17694126D01*
X87105330Y-14944068D02*
X86888570Y-14993427D01*
X86888570Y-14993427D02*
X86719550Y-15126116D01*
X86719550Y-15126116D02*
X86621165Y-15319228D01*
X86621165Y-15319228D02*
X86605456Y-15444189D01*
X86103301Y-17192729D02*
X74209500Y-17192729D01*
X162854405Y-21942525D02*
X143105408Y-21944301D01*
X104104263Y-14942292D02*
X87104060Y-14942292D01*
X142603005Y-20192466D02*
X142605287Y-21444179D01*
X142605287Y-20194242D02*
X142556034Y-19977463D01*
X142556034Y-19977463D02*
X142423434Y-19808379D01*
X142423434Y-19808379D02*
X142230376Y-19709895D01*
X142230376Y-19709895D02*
X142105423Y-19694121D01*
X123103444Y-17192729D02*
X116982500Y-17192729D01*
X67604499Y-17693109D02*
X67604499Y-21442145D01*
X29605372Y-77694200D02*
X29654731Y-77910959D01*
X29654731Y-77910959D02*
X29787421Y-78079978D01*
X29787421Y-78079978D02*
X29980532Y-78178363D01*
X29980532Y-78178363D02*
X30105494Y-78194073D01*
X30105494Y-78194073D02*
X30105499Y-78194073D01*
X29605372Y-22444169D02*
X29605372Y-22444174D01*
X86105335Y-17194252D02*
X86322118Y-17145001D01*
X86322118Y-17145001D02*
X86491203Y-17012395D01*
X86491203Y-17012395D02*
X86589683Y-16819331D01*
X86589683Y-16819331D02*
X86605456Y-16694379D01*
X86605456Y-16694379D02*
X86605456Y-16694126D01*
X133680500Y-97844000D02*
X147974583Y-106105084D01*
X104604642Y-16692350D02*
X104604642Y-15442671D01*
X86605456Y-15444194D02*
X86603680Y-16692350D01*
X74132500Y-78194309D02*
X40982500Y-78194309D01*
X30105499Y-21944301D02*
X29888716Y-21993550D01*
X29888716Y-21993550D02*
X29719628Y-22126154D01*
X29719628Y-22126154D02*
X29621145Y-22319216D01*
X29621145Y-22319216D02*
X29605372Y-22444169D01*
X123605351Y-17694126D02*
X123556023Y-17477433D01*
X123556023Y-17477433D02*
X123423410Y-17308436D01*
X123423410Y-17308436D02*
X123230391Y-17210014D01*
X123230391Y-17210014D02*
X123105478Y-17194252D01*
X149902700Y-105725612D02*
X163128724Y-82793245D01*
X85458905Y-78340629D02*
X96001929Y-92797789D01*
X147974583Y-106105084D02*
X148158639Y-106209872D01*
X148158639Y-106209872D02*
X148351387Y-106283871D01*
X148351387Y-106283871D02*
X148549562Y-106327717D01*
X148549562Y-106327717D02*
X148749898Y-106342047D01*
X148749898Y-106342047D02*
X149014729Y-106316338D01*
X149014729Y-106316338D02*
X149269856Y-106240794D01*
X149269856Y-106240794D02*
X149450177Y-106152338D01*
X149450177Y-106152338D02*
X149617418Y-106037334D01*
X149617418Y-106037334D02*
X149768316Y-105896418D01*
X149768316Y-105896418D02*
X149899604Y-105730226D01*
X142605287Y-21444179D02*
X142654543Y-21660960D01*
X142654543Y-21660960D02*
X142787150Y-21830046D01*
X142787150Y-21830046D02*
X142980215Y-21928528D01*
X142980215Y-21928528D02*
X143105170Y-21944301D01*
X143105170Y-21944301D02*
X143105408Y-21944301D01*
X104605406Y-16694126D02*
X104654656Y-16910908D01*
X104654656Y-16910908D02*
X104787261Y-17079995D01*
X104787261Y-17079995D02*
X104980325Y-17178479D01*
X104980325Y-17178479D02*
X105105280Y-17194252D01*
X105105528Y-17194252D02*
X117135500Y-17194252D01*
X30105499Y-78194073D02*
X40982500Y-78194309D01*
X86605456Y-15444189D02*
X86605456Y-15444194D01*
X149899604Y-105730226D02*
X149902700Y-105725612D01*
X105105280Y-17194252D02*
X105105528Y-17194252D01*
X68105384Y-17194252D02*
X74232500Y-17194252D01*
X96355494Y-92944087D02*
X133025944Y-97714460D01*
X104605406Y-15444194D02*
X104556156Y-15227411D01*
X104556156Y-15227411D02*
X104423551Y-15058324D01*
X104423551Y-15058324D02*
X104230487Y-14959840D01*
X104230487Y-14959840D02*
X104105533Y-14944068D01*
X85105339Y-78194073D02*
X74132500Y-78194309D01*
X123605351Y-19194247D02*
X123654710Y-19411004D01*
X123654710Y-19411004D02*
X123787398Y-19580024D01*
X123787398Y-19580024D02*
X123980510Y-19678410D01*
X123980510Y-19678410D02*
X124105473Y-19694121D01*
D11*
X55722500Y-56254000D02*
X55722500Y-53154000D01*
X55722500Y-53154000D02*
X59322500Y-53154000D01*
X59322500Y-53154000D02*
X59322500Y-56254000D01*
X59322500Y-56254000D02*
X55722500Y-56254000D01*
X93722500Y-49129000D02*
X93722500Y-46029000D01*
X93722500Y-46029000D02*
X97322500Y-46029000D01*
X97322500Y-46029000D02*
X97322500Y-49129000D01*
X97322500Y-49129000D02*
X93722500Y-49129000D01*
X74722500Y-51504000D02*
X74722500Y-48404000D01*
X74722500Y-48404000D02*
X78322500Y-48404000D01*
X78322500Y-48404000D02*
X78322500Y-51504000D01*
X78322500Y-51504000D02*
X74722500Y-51504000D01*
X112722500Y-32504000D02*
X112722500Y-29404000D01*
X112722500Y-29404000D02*
X116322500Y-29404000D01*
X116322500Y-29404000D02*
X116322500Y-32504000D01*
X116322500Y-32504000D02*
X112722500Y-32504000D01*
X131722500Y-34879000D02*
X131722500Y-31779000D01*
X131722500Y-31779000D02*
X135322500Y-31779000D01*
X135322500Y-31779000D02*
X135322500Y-34879000D01*
X135322500Y-34879000D02*
X131722500Y-34879000D01*
X74722500Y-32504000D02*
X74722500Y-29404000D01*
X74722500Y-29404000D02*
X78322500Y-29404000D01*
X78322500Y-29404000D02*
X78322500Y-32504000D01*
X78322500Y-32504000D02*
X74722500Y-32504000D01*
X112722500Y-51504000D02*
X112722500Y-48404000D01*
X112722500Y-48404000D02*
X116322500Y-48404000D01*
X116322500Y-48404000D02*
X116322500Y-51504000D01*
X116322500Y-51504000D02*
X112722500Y-51504000D01*
X93722500Y-30129000D02*
X93722500Y-27029000D01*
X93722500Y-27029000D02*
X97322500Y-27029000D01*
X97322500Y-27029000D02*
X97322500Y-30129000D01*
X97322500Y-30129000D02*
X93722500Y-30129000D01*
X36722500Y-56254000D02*
X36722500Y-53154000D01*
X36722500Y-53154000D02*
X40322500Y-53154000D01*
X40322500Y-53154000D02*
X40322500Y-56254000D01*
X40322500Y-56254000D02*
X36722500Y-56254000D01*
X131722500Y-53879000D02*
X131722500Y-50779000D01*
X131722500Y-50779000D02*
X135322500Y-50779000D01*
X135322500Y-50779000D02*
X135322500Y-53879000D01*
X135322500Y-53879000D02*
X131722500Y-53879000D01*
X36722500Y-37254000D02*
X36722500Y-34154000D01*
X36722500Y-34154000D02*
X40322500Y-34154000D01*
X40322500Y-34154000D02*
X40322500Y-37254000D01*
X40322500Y-37254000D02*
X36722500Y-37254000D01*
X122653274Y-92198459D02*
X123455613Y-89204089D01*
X123455613Y-89204089D02*
X126932946Y-90135837D01*
X126932946Y-90135837D02*
X126130607Y-93130207D01*
X126130607Y-93130207D02*
X122653274Y-92198459D01*
X55722500Y-37254000D02*
X55722500Y-34154000D01*
X55722500Y-34154000D02*
X59322500Y-34154000D01*
X59322500Y-34154000D02*
X59322500Y-37254000D01*
X59322500Y-37254000D02*
X55722500Y-37254000D01*
X36722500Y-75254000D02*
X36722500Y-72154000D01*
X36722500Y-72154000D02*
X40322500Y-72154000D01*
X40322500Y-72154000D02*
X40322500Y-75254000D01*
X40322500Y-75254000D02*
X36722500Y-75254000D01*
X131722500Y-72879000D02*
X131722500Y-69779000D01*
X131722500Y-69779000D02*
X135322500Y-69779000D01*
X135322500Y-69779000D02*
X135322500Y-72879000D01*
X135322500Y-72879000D02*
X131722500Y-72879000D01*
X103222500Y-90129000D02*
X103222500Y-87029000D01*
X103222500Y-87029000D02*
X106822500Y-87029000D01*
X106822500Y-87029000D02*
X106822500Y-90129000D01*
X106822500Y-90129000D02*
X103222500Y-90129000D01*
X55722500Y-75254000D02*
X55722500Y-72154000D01*
X55722500Y-72154000D02*
X59322500Y-72154000D01*
X59322500Y-72154000D02*
X59322500Y-75254000D01*
X59322500Y-75254000D02*
X55722500Y-75254000D01*
X74722500Y-70504000D02*
X74722500Y-67404000D01*
X74722500Y-67404000D02*
X78322500Y-67404000D01*
X78322500Y-67404000D02*
X78322500Y-70504000D01*
X78322500Y-70504000D02*
X74722500Y-70504000D01*
X93722500Y-68129000D02*
X93722500Y-65029000D01*
X93722500Y-65029000D02*
X97322500Y-65029000D01*
X97322500Y-65029000D02*
X97322500Y-68129000D01*
X97322500Y-68129000D02*
X93722500Y-68129000D01*
X152828460Y-95037846D02*
X150143782Y-93487846D01*
X150143782Y-93487846D02*
X151943782Y-90370154D01*
X151943782Y-90370154D02*
X154628460Y-91920154D01*
X154628460Y-91920154D02*
X152828460Y-95037846D01*
X112722500Y-70504000D02*
X112722500Y-67404000D01*
X112722500Y-67404000D02*
X116322500Y-67404000D01*
X116322500Y-67404000D02*
X116322500Y-70504000D01*
X116322500Y-70504000D02*
X112722500Y-70504000D01*
M02*
