%FSLAX45Y45*%
G04 Gerber Fmt 4.5, Leading zero omitted, Abs format (unit mm)*
G04 Created by KiCad (PCBNEW (5.1.10)-1) date 2021-11-26 09:54:35*
%MOMM*%
%LPD*%
G01*
G04 APERTURE LIST*
%TA.AperFunction,Profile*%
%ADD10C,0.200000*%
%TD*%
%ADD11C,0.200000*%
%ADD12C,0.300000*%
G04 APERTURE END LIST*
D10*
X8545891Y-7834063D02*
X8528538Y-7822765D01*
X8528538Y-7822765D02*
X8510534Y-7819407D01*
X13368050Y-9784400D02*
X13347880Y-9778977D01*
X13347880Y-9778977D02*
X13327428Y-9774800D01*
X13327428Y-9774800D02*
X13306752Y-9771878D01*
X13306752Y-9771878D02*
X13302594Y-9771446D01*
X9600193Y-9279779D02*
X9617548Y-9291062D01*
X9617548Y-9291062D02*
X9635549Y-9294409D01*
X16312821Y-8279172D02*
X16321769Y-8261285D01*
X16321769Y-8261285D02*
X16329317Y-8239823D01*
X16329317Y-8239823D02*
X16333935Y-8217559D01*
X16333935Y-8217559D02*
X16335544Y-8194790D01*
X16335544Y-8194790D02*
X16335530Y-8191923D01*
X12360382Y-1919171D02*
X12360382Y-1769311D01*
X14210516Y-1969209D02*
X12410420Y-1969209D01*
X16335530Y-2244417D02*
X16330597Y-2222748D01*
X16330597Y-2222748D02*
X16317336Y-2205848D01*
X16317336Y-2205848D02*
X16298033Y-2196006D01*
X16298033Y-2196006D02*
X16285542Y-2194430D01*
X16335478Y-2244290D02*
X16335478Y-8191694D01*
X2960537Y-2244417D02*
X2960360Y-7769293D01*
X6710539Y-2194430D02*
X6732217Y-2189505D01*
X6732217Y-2189505D02*
X6749126Y-2176244D01*
X6749126Y-2176244D02*
X6758974Y-2156938D01*
X6758974Y-2156938D02*
X6760551Y-2144443D01*
X6760551Y-2144443D02*
X6760551Y-2144418D01*
X6710412Y-2194253D02*
X3010550Y-2194430D01*
X6810538Y-1719425D02*
X6788869Y-1724358D01*
X6788869Y-1724358D02*
X6771969Y-1737619D01*
X6771969Y-1737619D02*
X6762127Y-1756921D01*
X6762127Y-1756921D02*
X6760551Y-1769413D01*
X8710533Y-1494407D02*
X8688857Y-1499343D01*
X8688857Y-1499343D02*
X8671955Y-1512612D01*
X8671955Y-1512612D02*
X8662117Y-1531923D01*
X8662117Y-1531923D02*
X8660546Y-1544419D01*
X8610330Y-1719273D02*
X7420950Y-1719273D01*
X16285440Y-2194253D02*
X14310541Y-2194430D01*
X10410426Y-1494229D02*
X8710406Y-1494229D01*
X14260300Y-2019247D02*
X14260529Y-2144418D01*
X14260529Y-2019424D02*
X14255603Y-1997746D01*
X14255603Y-1997746D02*
X14242343Y-1980838D01*
X14242343Y-1980838D02*
X14223038Y-1970989D01*
X14223038Y-1970989D02*
X14210542Y-1969412D01*
X12310344Y-1719273D02*
X11698250Y-1719273D01*
X6760450Y-1769311D02*
X6760450Y-2144215D01*
X2960537Y-7769420D02*
X2965473Y-7791096D01*
X2965473Y-7791096D02*
X2978742Y-7807998D01*
X2978742Y-7807998D02*
X2998053Y-7817836D01*
X2998053Y-7817836D02*
X3010549Y-7819407D01*
X3010549Y-7819407D02*
X3010550Y-7819407D01*
X2960537Y-2244417D02*
X2960537Y-2244417D01*
X8610534Y-1719425D02*
X8632212Y-1714500D01*
X8632212Y-1714500D02*
X8649120Y-1701239D01*
X8649120Y-1701239D02*
X8658968Y-1681933D01*
X8658968Y-1681933D02*
X8660546Y-1669438D01*
X8660546Y-1669438D02*
X8660546Y-1669413D01*
X13368050Y-9784400D02*
X14797458Y-10610508D01*
X10460464Y-1669235D02*
X10460464Y-1544267D01*
X8660546Y-1544419D02*
X8660368Y-1669235D01*
X7413250Y-7819431D02*
X4098250Y-7819431D01*
X3010550Y-2194430D02*
X2988872Y-2199355D01*
X2988872Y-2199355D02*
X2971963Y-2212615D01*
X2971963Y-2212615D02*
X2962114Y-2231922D01*
X2962114Y-2231922D02*
X2960537Y-2244417D01*
X12360535Y-1769413D02*
X12355602Y-1747743D01*
X12355602Y-1747743D02*
X12342341Y-1730844D01*
X12342341Y-1730844D02*
X12323039Y-1721001D01*
X12323039Y-1721001D02*
X12310548Y-1719425D01*
X14990270Y-10572561D02*
X16312872Y-8279324D01*
X8545891Y-7834063D02*
X9600193Y-9279779D01*
X14797458Y-10610508D02*
X14815864Y-10620987D01*
X14815864Y-10620987D02*
X14835139Y-10628387D01*
X14835139Y-10628387D02*
X14854956Y-10632772D01*
X14854956Y-10632772D02*
X14874990Y-10634205D01*
X14874990Y-10634205D02*
X14901473Y-10631634D01*
X14901473Y-10631634D02*
X14926986Y-10624079D01*
X14926986Y-10624079D02*
X14945018Y-10615234D01*
X14945018Y-10615234D02*
X14961742Y-10603733D01*
X14961742Y-10603733D02*
X14976832Y-10589642D01*
X14976832Y-10589642D02*
X14989960Y-10573023D01*
X14260529Y-2144418D02*
X14265454Y-2166096D01*
X14265454Y-2166096D02*
X14278715Y-2183005D01*
X14278715Y-2183005D02*
X14298021Y-2192853D01*
X14298021Y-2192853D02*
X14310517Y-2194430D01*
X14310517Y-2194430D02*
X14310541Y-2194430D01*
X10460541Y-1669413D02*
X10465466Y-1691091D01*
X10465466Y-1691091D02*
X10478726Y-1707999D01*
X10478726Y-1707999D02*
X10498033Y-1717848D01*
X10498033Y-1717848D02*
X10510528Y-1719425D01*
X10510553Y-1719425D02*
X11713550Y-1719425D01*
X3010550Y-7819407D02*
X4098250Y-7819431D01*
X8660546Y-1544419D02*
X8660546Y-1544419D01*
X14989960Y-10573023D02*
X14990270Y-10572561D01*
X10510528Y-1719425D02*
X10510553Y-1719425D01*
X6810538Y-1719425D02*
X7423250Y-1719425D01*
X9635549Y-9294409D02*
X13302594Y-9771446D01*
X10460541Y-1544419D02*
X10455616Y-1522741D01*
X10455616Y-1522741D02*
X10442355Y-1505832D01*
X10442355Y-1505832D02*
X10423049Y-1495984D01*
X10423049Y-1495984D02*
X10410553Y-1494407D01*
X8510534Y-7819407D02*
X7413250Y-7819431D01*
X12360535Y-1919425D02*
X12365471Y-1941100D01*
X12365471Y-1941100D02*
X12378740Y-1958002D01*
X12378740Y-1958002D02*
X12398051Y-1967841D01*
X12398051Y-1967841D02*
X12410547Y-1969412D01*
D11*
X3122250Y-3017900D02*
X3162250Y-3057900D01*
X3162250Y-3017900D02*
X3122250Y-3057900D01*
X3122250Y-4517900D02*
X3162250Y-4557900D01*
X3162250Y-4517900D02*
X3122250Y-4557900D01*
X3122250Y-4917900D02*
X3162250Y-4957900D01*
X3162250Y-4917900D02*
X3122250Y-4957900D01*
X3122250Y-6167900D02*
X3162250Y-6207900D01*
X3162250Y-6167900D02*
X3122250Y-6207900D01*
X3122250Y-6417900D02*
X3162250Y-6457900D01*
X3162250Y-6417900D02*
X3122250Y-6457900D01*
X4182250Y-7637900D02*
X4222250Y-7677900D01*
X4222250Y-7637900D02*
X4182250Y-7677900D01*
X4222250Y-5747900D02*
X4262250Y-5787900D01*
X4262250Y-5747900D02*
X4222250Y-5787900D01*
X4232250Y-3507900D02*
X4272250Y-3547900D01*
X4272250Y-3507900D02*
X4232250Y-3547900D01*
X4252250Y-3854401D02*
X4292250Y-3894401D01*
X4292250Y-3854401D02*
X4252250Y-3894401D01*
X4252250Y-5397900D02*
X4292250Y-5437900D01*
X4292250Y-5397900D02*
X4252250Y-5437900D01*
X4261773Y-3658399D02*
X4301773Y-3698399D01*
X4301773Y-3658399D02*
X4261773Y-3698399D01*
X4992250Y-4937900D02*
X5032250Y-4977900D01*
X5032250Y-4937900D02*
X4992250Y-4977900D01*
X5017984Y-4516891D02*
X5057984Y-4556891D01*
X5057984Y-4516891D02*
X5017984Y-4556891D01*
X5022250Y-3017900D02*
X5062250Y-3057900D01*
X5062250Y-3017900D02*
X5022250Y-3057900D01*
X5032250Y-6417900D02*
X5072250Y-6457900D01*
X5072250Y-6417900D02*
X5032250Y-6457900D01*
X5101195Y-6086845D02*
X5141195Y-6126845D01*
X5141195Y-6086845D02*
X5101195Y-6126845D01*
X5114750Y-5277900D02*
X5154750Y-5317900D01*
X5154750Y-5277900D02*
X5114750Y-5317900D01*
X5124750Y-3357900D02*
X5164750Y-3397900D01*
X5164750Y-3357900D02*
X5124750Y-3397900D01*
X5132250Y-4367900D02*
X5172250Y-4407900D01*
X5172250Y-4367900D02*
X5132250Y-4407900D01*
X5202250Y-3417900D02*
X5242250Y-3457900D01*
X5242250Y-3417900D02*
X5202250Y-3457900D01*
X5294250Y-5769400D02*
X5334250Y-5809400D01*
X5334250Y-5769400D02*
X5294250Y-5809400D01*
X5332250Y-7427900D02*
X5372250Y-7467900D01*
X5372250Y-7427900D02*
X5332250Y-7467900D01*
X5362250Y-4097900D02*
X5402250Y-4137900D01*
X5402250Y-4097900D02*
X5362250Y-4137900D01*
X5362250Y-5537900D02*
X5402250Y-5577900D01*
X5402250Y-5537900D02*
X5362250Y-5577900D01*
X5372250Y-3617900D02*
X5412250Y-3657900D01*
X5412250Y-3617900D02*
X5372250Y-3657900D01*
X5372250Y-6007900D02*
X5412250Y-6047900D01*
X5412250Y-6007900D02*
X5372250Y-6047900D01*
X5532250Y-7632900D02*
X5572250Y-7672900D01*
X5572250Y-7632900D02*
X5532250Y-7672900D01*
X6092250Y-5367900D02*
X6132250Y-5407900D01*
X6132250Y-5367900D02*
X6092250Y-5407900D01*
X6092250Y-7267900D02*
X6132250Y-7307900D01*
X6132250Y-7267900D02*
X6092250Y-7307900D01*
X6112250Y-3467900D02*
X6152250Y-3507900D01*
X6152250Y-3467900D02*
X6112250Y-3507900D01*
X6852250Y-3007900D02*
X6892250Y-3047900D01*
X6892250Y-3007900D02*
X6852250Y-3047900D01*
X6922250Y-2547900D02*
X6962250Y-2587900D01*
X6962250Y-2547900D02*
X6922250Y-2587900D01*
X6922250Y-4047900D02*
X6962250Y-4087900D01*
X6962250Y-4047900D02*
X6922250Y-4087900D01*
X6922250Y-4447900D02*
X6962250Y-4487900D01*
X6962250Y-4447900D02*
X6922250Y-4487900D01*
X6922250Y-5947900D02*
X6962250Y-5987900D01*
X6962250Y-5947900D02*
X6922250Y-5987900D01*
X6932250Y-2147900D02*
X6972250Y-2187900D01*
X6972250Y-2147900D02*
X6932250Y-2187900D01*
X7079208Y-5614858D02*
X7119208Y-5654858D01*
X7119208Y-5614858D02*
X7079208Y-5654858D01*
X7889217Y-7050933D02*
X7929217Y-7090933D01*
X7929217Y-7050933D02*
X7889217Y-7090933D01*
X7892250Y-5162900D02*
X7932250Y-5202900D01*
X7932250Y-5162900D02*
X7892250Y-5202900D01*
X8012250Y-3027900D02*
X8052250Y-3067900D01*
X8052250Y-3027900D02*
X8012250Y-3067900D01*
X8012250Y-7217900D02*
X8052250Y-7257900D01*
X8052250Y-7217900D02*
X8012250Y-7257900D01*
X8024751Y-6817900D02*
X8064751Y-6857900D01*
X8064751Y-6817900D02*
X8024751Y-6857900D01*
X8032251Y-3292899D02*
X8072251Y-3332899D01*
X8072251Y-3292899D02*
X8032251Y-3332899D01*
X8044751Y-4957900D02*
X8084751Y-4997900D01*
X8084751Y-4957900D02*
X8044751Y-4997900D01*
X8060250Y-3122095D02*
X8100250Y-3162095D01*
X8100250Y-3122095D02*
X8060250Y-3162095D01*
X8759750Y-5627900D02*
X8799750Y-5667900D01*
X8799750Y-5627900D02*
X8759750Y-5667900D01*
X8759750Y-6337900D02*
X8799750Y-6377900D01*
X8799750Y-6337900D02*
X8759750Y-6377900D01*
X8822250Y-2307900D02*
X8862250Y-2347900D01*
X8862250Y-2307900D02*
X8822250Y-2347900D01*
X8822250Y-3807900D02*
X8862250Y-3847900D01*
X8862250Y-3807900D02*
X8822250Y-3847900D01*
X8822250Y-4207900D02*
X8862250Y-4247900D01*
X8862250Y-4207900D02*
X8822250Y-4247900D01*
X8822250Y-5707900D02*
X8862250Y-5747900D01*
X8862250Y-5707900D02*
X8822250Y-5747900D01*
X8822250Y-6067900D02*
X8862250Y-6107900D01*
X8862250Y-6067900D02*
X8822250Y-6107900D01*
X8862250Y-5467900D02*
X8902250Y-5507900D01*
X8902250Y-5467900D02*
X8862250Y-5507900D01*
X8884750Y-2657900D02*
X8924750Y-2697900D01*
X8924750Y-2657900D02*
X8884750Y-2697900D01*
X8884750Y-6467900D02*
X8924750Y-6507900D01*
X8924750Y-6467900D02*
X8884750Y-6507900D01*
X8892250Y-6337900D02*
X8932250Y-6377900D01*
X8932250Y-6337900D02*
X8892250Y-6377900D01*
X8922250Y-2747900D02*
X8962250Y-2787900D01*
X8962250Y-2747900D02*
X8922250Y-2787900D01*
X9097250Y-6941400D02*
X9137250Y-6981400D01*
X9137250Y-6941400D02*
X9097250Y-6981400D01*
X9152250Y-2907900D02*
X9192250Y-2947900D01*
X9192250Y-2907900D02*
X9152250Y-2947900D01*
X9162250Y-4807900D02*
X9202250Y-4847900D01*
X9202250Y-4807900D02*
X9162250Y-4847900D01*
X9162250Y-6707900D02*
X9202250Y-6747900D01*
X9202250Y-6707900D02*
X9162250Y-6747900D01*
X9172250Y-3387900D02*
X9212250Y-3427900D01*
X9212250Y-3387900D02*
X9172250Y-3427900D01*
X9172250Y-7177900D02*
X9212250Y-7217900D01*
X9212250Y-7177900D02*
X9172250Y-7217900D01*
X9772250Y-7927900D02*
X9812250Y-7967900D01*
X9812250Y-7927900D02*
X9772250Y-7967900D01*
X9902250Y-2757900D02*
X9942250Y-2797900D01*
X9942250Y-2757900D02*
X9902250Y-2797900D01*
X9902250Y-4667900D02*
X9942250Y-4707900D01*
X9942250Y-4667900D02*
X9902250Y-4707900D01*
X9902250Y-6567900D02*
X9942250Y-6607900D01*
X9942250Y-6567900D02*
X9902250Y-6607900D01*
X10112250Y-8907900D02*
X10152250Y-8947900D01*
X10152250Y-8907900D02*
X10112250Y-8947900D01*
X10722250Y-2547900D02*
X10762250Y-2587900D01*
X10762250Y-2547900D02*
X10722250Y-2587900D01*
X10722250Y-4047900D02*
X10762250Y-4087900D01*
X10762250Y-4047900D02*
X10722250Y-4087900D01*
X10722250Y-4447900D02*
X10762250Y-4487900D01*
X10762250Y-4447900D02*
X10722250Y-4487900D01*
X10722250Y-5947900D02*
X10762250Y-5987900D01*
X10762250Y-5947900D02*
X10722250Y-5987900D01*
X10722250Y-6347900D02*
X10762250Y-6387900D01*
X10762250Y-6347900D02*
X10722250Y-6387900D01*
X10762250Y-5527900D02*
X10802250Y-5567900D01*
X10802250Y-5527900D02*
X10762250Y-5567900D01*
X10852250Y-8767900D02*
X10892250Y-8807900D01*
X10892250Y-8767900D02*
X10852250Y-8807900D01*
X11682250Y-5172900D02*
X11722250Y-5212900D01*
X11722250Y-5172900D02*
X11682250Y-5212900D01*
X11702250Y-7067900D02*
X11742250Y-7107900D01*
X11742250Y-7067900D02*
X11702250Y-7107900D01*
X11809750Y-3242900D02*
X11849750Y-3282900D01*
X11849750Y-3242900D02*
X11809750Y-3282900D01*
X11812250Y-6827900D02*
X11852250Y-6867900D01*
X11852250Y-6827900D02*
X11812250Y-6867900D01*
X11822250Y-8017900D02*
X11862250Y-8057900D01*
X11862250Y-8017900D02*
X11822250Y-8057900D01*
X11865870Y-2997743D02*
X11905870Y-3037743D01*
X11905870Y-2997743D02*
X11865870Y-3037743D01*
X11881250Y-3085400D02*
X11921250Y-3125400D01*
X11921250Y-3085400D02*
X11881250Y-3125400D01*
X11907250Y-4987900D02*
X11947250Y-5027900D01*
X11947250Y-4987900D02*
X11907250Y-5027900D01*
X12092250Y-9057900D02*
X12132250Y-9097900D01*
X12132250Y-9057900D02*
X12092250Y-9097900D01*
X12622250Y-2777900D02*
X12662250Y-2817900D01*
X12662250Y-2777900D02*
X12622250Y-2817900D01*
X12622250Y-4287900D02*
X12662250Y-4327900D01*
X12662250Y-4287900D02*
X12622250Y-4327900D01*
X12622250Y-4677900D02*
X12662250Y-4717900D01*
X12662250Y-4677900D02*
X12622250Y-4717900D01*
X12622250Y-6177900D02*
X12662250Y-6217900D01*
X12662250Y-6177900D02*
X12622250Y-6217900D01*
X12622250Y-6577900D02*
X12662250Y-6617900D01*
X12662250Y-6577900D02*
X12622250Y-6617900D01*
X12662250Y-5777900D02*
X12702250Y-5817900D01*
X12702250Y-5777900D02*
X12662250Y-5817900D01*
X12684750Y-6937900D02*
X12724750Y-6977900D01*
X12724750Y-6937900D02*
X12684750Y-6977900D01*
X12707751Y-3136772D02*
X12747751Y-3176772D01*
X12747751Y-3136772D02*
X12707751Y-3176772D01*
X12777752Y-3177900D02*
X12817752Y-3217900D01*
X12817752Y-3177900D02*
X12777752Y-3217900D01*
X12842250Y-9167900D02*
X12882250Y-9207900D01*
X12882250Y-9167900D02*
X12842250Y-9207900D01*
X12952250Y-5277900D02*
X12992250Y-5317900D01*
X12992250Y-5277900D02*
X12952250Y-5317900D01*
X12962250Y-3387900D02*
X13002250Y-3427900D01*
X13002250Y-3387900D02*
X12962250Y-3427900D01*
X12962250Y-7187900D02*
X13002250Y-7227900D01*
X13002250Y-7187900D02*
X12962250Y-7227900D01*
X12962250Y-7677900D02*
X13002250Y-7717900D01*
X13002250Y-7677900D02*
X12962250Y-7717900D01*
X12972250Y-3867900D02*
X13012250Y-3907900D01*
X13012250Y-3867900D02*
X12972250Y-3907900D01*
X13612250Y-5407900D02*
X13652250Y-5447900D01*
X13652250Y-5407900D02*
X13612250Y-5447900D01*
X13682250Y-5137900D02*
X13722250Y-5177900D01*
X13722250Y-5137900D02*
X13682250Y-5177900D01*
X13702250Y-3237900D02*
X13742250Y-3277900D01*
X13742250Y-3237900D02*
X13702250Y-3277900D01*
X13702250Y-7037900D02*
X13742250Y-7077900D01*
X13742250Y-7037900D02*
X13702250Y-7077900D01*
X13712250Y-5007900D02*
X13752250Y-5047900D01*
X13752250Y-5007900D02*
X13712250Y-5047900D01*
X13722250Y-7757900D02*
X13762250Y-7797900D01*
X13762250Y-7757900D02*
X13722250Y-7797900D01*
X14082250Y-9397900D02*
X14122250Y-9437900D01*
X14122250Y-9397900D02*
X14082250Y-9437900D01*
X14182250Y-4917900D02*
X14222250Y-4957900D01*
X14222250Y-4917900D02*
X14182250Y-4957900D01*
X14282250Y-6397900D02*
X14322250Y-6437900D01*
X14322250Y-6397900D02*
X14282250Y-6437900D01*
X14302250Y-3127900D02*
X14342250Y-3167900D01*
X14342250Y-3127900D02*
X14302250Y-3167900D01*
X14302250Y-6577900D02*
X14342250Y-6617900D01*
X14342250Y-6577900D02*
X14302250Y-6617900D01*
X14317251Y-3587900D02*
X14357251Y-3627900D01*
X14357251Y-3587900D02*
X14317251Y-3627900D01*
X14451250Y-7227900D02*
X14491250Y-7267900D01*
X14491250Y-7227900D02*
X14451250Y-7267900D01*
X14470874Y-8135635D02*
X14510874Y-8175635D01*
X14510874Y-8135635D02*
X14470874Y-8175635D01*
X15092250Y-9607900D02*
X15132250Y-9647900D01*
X15132250Y-9607900D02*
X15092250Y-9647900D01*
X15341569Y-8908577D02*
X15381569Y-8948577D01*
X15381569Y-8908577D02*
X15341569Y-8948577D01*
X15376250Y-7393400D02*
X15416250Y-7433400D01*
X15416250Y-7393400D02*
X15376250Y-7433400D01*
X14602530Y-2711600D02*
G75*
G03*
X14602530Y-2711600I-40640J0D01*
G01*
X14602530Y-2965600D02*
G75*
G03*
X14602530Y-2965600I-40640J0D01*
G01*
X14602530Y-3219600D02*
G75*
G03*
X14602530Y-3219600I-40640J0D01*
G01*
X14602530Y-3473600D02*
G75*
G03*
X14602530Y-3473600I-40640J0D01*
G01*
X14602530Y-3727600D02*
G75*
G03*
X14602530Y-3727600I-40640J0D01*
G01*
X14602530Y-3981600D02*
G75*
G03*
X14602530Y-3981600I-40640J0D01*
G01*
X14602530Y-4235600D02*
G75*
G03*
X14602530Y-4235600I-40640J0D01*
G01*
X14602530Y-4489600D02*
G75*
G03*
X14602530Y-4489600I-40640J0D01*
G01*
X14602530Y-4743600D02*
G75*
G03*
X14602530Y-4743600I-40640J0D01*
G01*
X14602530Y-4997600D02*
G75*
G03*
X14602530Y-4997600I-40640J0D01*
G01*
X14602530Y-5251600D02*
G75*
G03*
X14602530Y-5251600I-40640J0D01*
G01*
X14602530Y-5505600D02*
G75*
G03*
X14602530Y-5505600I-40640J0D01*
G01*
X14976990Y-6220200D02*
G75*
G03*
X14976990Y-6220200I-40640J0D01*
G01*
X15230990Y-6220200D02*
G75*
G03*
X15230990Y-6220200I-40640J0D01*
G01*
X15484990Y-6220200D02*
G75*
G03*
X15484990Y-6220200I-40640J0D01*
G01*
X15738990Y-6220200D02*
G75*
G03*
X15738990Y-6220200I-40640J0D01*
G01*
X16124530Y-2711600D02*
G75*
G03*
X16124530Y-2711600I-40640J0D01*
G01*
X16124530Y-2965600D02*
G75*
G03*
X16124530Y-2965600I-40640J0D01*
G01*
X16124530Y-3219600D02*
G75*
G03*
X16124530Y-3219600I-40640J0D01*
G01*
X16124530Y-3473600D02*
G75*
G03*
X16124530Y-3473600I-40640J0D01*
G01*
X16124530Y-3727600D02*
G75*
G03*
X16124530Y-3727600I-40640J0D01*
G01*
X16124530Y-3981600D02*
G75*
G03*
X16124530Y-3981600I-40640J0D01*
G01*
X16124530Y-4235600D02*
G75*
G03*
X16124530Y-4235600I-40640J0D01*
G01*
X16124530Y-4489600D02*
G75*
G03*
X16124530Y-4489600I-40640J0D01*
G01*
X16124530Y-4743600D02*
G75*
G03*
X16124530Y-4743600I-40640J0D01*
G01*
X16124530Y-4997600D02*
G75*
G03*
X16124530Y-4997600I-40640J0D01*
G01*
X16124530Y-5251600D02*
G75*
G03*
X16124530Y-5251600I-40640J0D01*
G01*
X16124530Y-5505600D02*
G75*
G03*
X16124530Y-5505600I-40640J0D01*
G01*
X15074950Y-6686600D02*
X15074950Y-6786600D01*
X15024950Y-6736600D02*
X15124950Y-6736600D01*
X15099950Y-6696600D02*
X15049950Y-6696600D01*
X15099950Y-6776600D02*
X15049950Y-6776600D01*
X15049950Y-6696600D02*
G75*
G03*
X15049950Y-6776600I0J-40000D01*
G01*
X15099950Y-6776600D02*
G75*
G03*
X15099950Y-6696600I0J40000D01*
G01*
X15224950Y-7106600D02*
X15224950Y-7206600D01*
X15174950Y-7156600D02*
X15274950Y-7156600D01*
X15249950Y-7116600D02*
X15199950Y-7116600D01*
X15249950Y-7196600D02*
X15199950Y-7196600D01*
X15199950Y-7116600D02*
G75*
G03*
X15199950Y-7196600I0J-40000D01*
G01*
X15249950Y-7196600D02*
G75*
G03*
X15249950Y-7116600I0J40000D01*
G01*
X15624950Y-7106600D02*
X15624950Y-7206600D01*
X15574950Y-7156600D02*
X15674950Y-7156600D01*
X15649950Y-7116600D02*
X15599950Y-7116600D01*
X15649950Y-7196600D02*
X15599950Y-7196600D01*
X15599950Y-7116600D02*
G75*
G03*
X15599950Y-7196600I0J-40000D01*
G01*
X15649950Y-7196600D02*
G75*
G03*
X15649950Y-7116600I0J40000D01*
G01*
X15924950Y-7106600D02*
X15924950Y-7206600D01*
X15874950Y-7156600D02*
X15974950Y-7156600D01*
X15949950Y-7116600D02*
X15899950Y-7116600D01*
X15949950Y-7196600D02*
X15899950Y-7196600D01*
X15899950Y-7116600D02*
G75*
G03*
X15899950Y-7196600I0J-40000D01*
G01*
X15949950Y-7196600D02*
G75*
G03*
X15949950Y-7116600I0J40000D01*
G01*
X16129912Y-5891462D02*
X16129912Y-5799538D01*
X16037988Y-5799538D01*
X16037988Y-5891462D01*
X16129912Y-5891462D01*
X16129912Y-6541462D02*
X16129912Y-6449538D01*
X16037988Y-6449538D01*
X16037988Y-6541462D01*
X16129912Y-6541462D01*
D12*
X3236966Y-11129030D02*
X3236966Y-10829030D01*
X3308394Y-10829030D01*
X3351251Y-10843315D01*
X3379823Y-10871887D01*
X3394108Y-10900458D01*
X3408394Y-10957601D01*
X3408394Y-11000458D01*
X3394108Y-11057601D01*
X3379823Y-11086173D01*
X3351251Y-11114744D01*
X3308394Y-11129030D01*
X3236966Y-11129030D01*
X3536966Y-11129030D02*
X3536966Y-10929030D01*
X3536966Y-10986173D02*
X3551251Y-10957601D01*
X3565537Y-10943315D01*
X3594108Y-10929030D01*
X3622680Y-10929030D01*
X3722680Y-11129030D02*
X3722680Y-10929030D01*
X3722680Y-10829030D02*
X3708394Y-10843315D01*
X3722680Y-10857601D01*
X3736966Y-10843315D01*
X3722680Y-10829030D01*
X3722680Y-10857601D01*
X3908394Y-11129030D02*
X3879823Y-11114744D01*
X3865537Y-11086173D01*
X3865537Y-10829030D01*
X4065537Y-11129030D02*
X4036966Y-11114744D01*
X4022680Y-11086173D01*
X4022680Y-10829030D01*
X4408394Y-11129030D02*
X4408394Y-10829030D01*
X4508394Y-11043315D01*
X4608394Y-10829030D01*
X4608394Y-11129030D01*
X4879823Y-11129030D02*
X4879823Y-10971887D01*
X4865537Y-10943315D01*
X4836966Y-10929030D01*
X4779823Y-10929030D01*
X4751251Y-10943315D01*
X4879823Y-11114744D02*
X4851251Y-11129030D01*
X4779823Y-11129030D01*
X4751251Y-11114744D01*
X4736966Y-11086173D01*
X4736966Y-11057601D01*
X4751251Y-11029030D01*
X4779823Y-11014744D01*
X4851251Y-11014744D01*
X4879823Y-11000458D01*
X5022680Y-10929030D02*
X5022680Y-11229030D01*
X5022680Y-10943315D02*
X5051251Y-10929030D01*
X5108394Y-10929030D01*
X5136966Y-10943315D01*
X5151251Y-10957601D01*
X5165537Y-10986173D01*
X5165537Y-11071887D01*
X5151251Y-11100458D01*
X5136966Y-11114744D01*
X5108394Y-11129030D01*
X5051251Y-11129030D01*
X5022680Y-11114744D01*
X5294109Y-11100458D02*
X5308394Y-11114744D01*
X5294109Y-11129030D01*
X5279823Y-11114744D01*
X5294109Y-11100458D01*
X5294109Y-11129030D01*
X5294109Y-10943315D02*
X5308394Y-10957601D01*
X5294109Y-10971887D01*
X5279823Y-10957601D01*
X5294109Y-10943315D01*
X5294109Y-10971887D01*
X2910537Y-11603315D02*
X2950537Y-11643315D01*
X2950537Y-11603315D02*
X2910537Y-11643315D01*
X3294108Y-11459030D02*
X3322680Y-11459030D01*
X3351251Y-11473315D01*
X3365537Y-11487601D01*
X3379823Y-11516172D01*
X3394108Y-11573315D01*
X3394108Y-11644744D01*
X3379823Y-11701887D01*
X3365537Y-11730458D01*
X3351251Y-11744744D01*
X3322680Y-11759030D01*
X3294108Y-11759030D01*
X3265537Y-11744744D01*
X3251251Y-11730458D01*
X3236966Y-11701887D01*
X3222680Y-11644744D01*
X3222680Y-11573315D01*
X3236966Y-11516172D01*
X3251251Y-11487601D01*
X3265537Y-11473315D01*
X3294108Y-11459030D01*
X3522680Y-11730458D02*
X3536966Y-11744744D01*
X3522680Y-11759030D01*
X3508394Y-11744744D01*
X3522680Y-11730458D01*
X3522680Y-11759030D01*
X3794108Y-11559030D02*
X3794108Y-11759030D01*
X3722680Y-11444744D02*
X3651251Y-11659030D01*
X3836966Y-11659030D01*
X4008394Y-11459030D02*
X4036966Y-11459030D01*
X4065537Y-11473315D01*
X4079823Y-11487601D01*
X4094108Y-11516172D01*
X4108394Y-11573315D01*
X4108394Y-11644744D01*
X4094108Y-11701887D01*
X4079823Y-11730458D01*
X4065537Y-11744744D01*
X4036966Y-11759030D01*
X4008394Y-11759030D01*
X3979823Y-11744744D01*
X3965537Y-11730458D01*
X3951251Y-11701887D01*
X3936966Y-11644744D01*
X3936966Y-11573315D01*
X3951251Y-11516172D01*
X3965537Y-11487601D01*
X3979823Y-11473315D01*
X4008394Y-11459030D01*
X4294109Y-11459030D02*
X4322680Y-11459030D01*
X4351251Y-11473315D01*
X4365537Y-11487601D01*
X4379823Y-11516172D01*
X4394109Y-11573315D01*
X4394109Y-11644744D01*
X4379823Y-11701887D01*
X4365537Y-11730458D01*
X4351251Y-11744744D01*
X4322680Y-11759030D01*
X4294109Y-11759030D01*
X4265537Y-11744744D01*
X4251251Y-11730458D01*
X4236966Y-11701887D01*
X4222680Y-11644744D01*
X4222680Y-11573315D01*
X4236966Y-11516172D01*
X4251251Y-11487601D01*
X4265537Y-11473315D01*
X4294109Y-11459030D01*
X4522680Y-11759030D02*
X4522680Y-11559030D01*
X4522680Y-11587601D02*
X4536966Y-11573315D01*
X4565537Y-11559030D01*
X4608394Y-11559030D01*
X4636966Y-11573315D01*
X4651251Y-11601887D01*
X4651251Y-11759030D01*
X4651251Y-11601887D02*
X4665537Y-11573315D01*
X4694109Y-11559030D01*
X4736966Y-11559030D01*
X4765537Y-11573315D01*
X4779823Y-11601887D01*
X4779823Y-11759030D01*
X4922680Y-11759030D02*
X4922680Y-11559030D01*
X4922680Y-11587601D02*
X4936966Y-11573315D01*
X4965537Y-11559030D01*
X5008394Y-11559030D01*
X5036966Y-11573315D01*
X5051251Y-11601887D01*
X5051251Y-11759030D01*
X5051251Y-11601887D02*
X5065537Y-11573315D01*
X5094109Y-11559030D01*
X5136966Y-11559030D01*
X5165537Y-11573315D01*
X5179823Y-11601887D01*
X5179823Y-11759030D01*
X5765537Y-11444744D02*
X5508394Y-11830458D01*
X6151251Y-11459030D02*
X6179823Y-11459030D01*
X6208394Y-11473315D01*
X6222680Y-11487601D01*
X6236966Y-11516172D01*
X6251251Y-11573315D01*
X6251251Y-11644744D01*
X6236966Y-11701887D01*
X6222680Y-11730458D01*
X6208394Y-11744744D01*
X6179823Y-11759030D01*
X6151251Y-11759030D01*
X6122680Y-11744744D01*
X6108394Y-11730458D01*
X6094108Y-11701887D01*
X6079823Y-11644744D01*
X6079823Y-11573315D01*
X6094108Y-11516172D01*
X6108394Y-11487601D01*
X6122680Y-11473315D01*
X6151251Y-11459030D01*
X6379823Y-11730458D02*
X6394108Y-11744744D01*
X6379823Y-11759030D01*
X6365537Y-11744744D01*
X6379823Y-11730458D01*
X6379823Y-11759030D01*
X6579823Y-11459030D02*
X6608394Y-11459030D01*
X6636966Y-11473315D01*
X6651251Y-11487601D01*
X6665537Y-11516172D01*
X6679823Y-11573315D01*
X6679823Y-11644744D01*
X6665537Y-11701887D01*
X6651251Y-11730458D01*
X6636966Y-11744744D01*
X6608394Y-11759030D01*
X6579823Y-11759030D01*
X6551251Y-11744744D01*
X6536966Y-11730458D01*
X6522680Y-11701887D01*
X6508394Y-11644744D01*
X6508394Y-11573315D01*
X6522680Y-11516172D01*
X6536966Y-11487601D01*
X6551251Y-11473315D01*
X6579823Y-11459030D01*
X6965537Y-11759030D02*
X6794108Y-11759030D01*
X6879823Y-11759030D02*
X6879823Y-11459030D01*
X6851251Y-11501887D01*
X6822680Y-11530458D01*
X6794108Y-11544744D01*
X7236966Y-11459030D02*
X7094108Y-11459030D01*
X7079823Y-11601887D01*
X7094108Y-11587601D01*
X7122680Y-11573315D01*
X7194108Y-11573315D01*
X7222680Y-11587601D01*
X7236966Y-11601887D01*
X7251251Y-11630458D01*
X7251251Y-11701887D01*
X7236966Y-11730458D01*
X7222680Y-11744744D01*
X7194108Y-11759030D01*
X7122680Y-11759030D01*
X7094108Y-11744744D01*
X7079823Y-11730458D01*
X7351251Y-11459030D02*
X7551251Y-11459030D01*
X7422680Y-11759030D01*
X7651251Y-11459030D02*
X7651251Y-11516172D01*
X7765537Y-11459030D02*
X7765537Y-11516172D01*
X8208394Y-11873315D02*
X8194108Y-11859030D01*
X8165537Y-11816172D01*
X8151251Y-11787601D01*
X8136966Y-11744744D01*
X8122680Y-11673315D01*
X8122680Y-11616172D01*
X8136966Y-11544744D01*
X8151251Y-11501887D01*
X8165537Y-11473315D01*
X8194108Y-11430458D01*
X8208394Y-11416172D01*
X8479823Y-11759030D02*
X8308394Y-11759030D01*
X8394109Y-11759030D02*
X8394109Y-11459030D01*
X8365537Y-11501887D01*
X8336966Y-11530458D01*
X8308394Y-11544744D01*
X8765537Y-11759030D02*
X8594109Y-11759030D01*
X8679823Y-11759030D02*
X8679823Y-11459030D01*
X8651251Y-11501887D01*
X8622680Y-11530458D01*
X8594109Y-11544744D01*
X9022680Y-11459030D02*
X8965537Y-11459030D01*
X8936966Y-11473315D01*
X8922680Y-11487601D01*
X8894109Y-11530458D01*
X8879823Y-11587601D01*
X8879823Y-11701887D01*
X8894109Y-11730458D01*
X8908394Y-11744744D01*
X8936966Y-11759030D01*
X8994109Y-11759030D01*
X9022680Y-11744744D01*
X9036966Y-11730458D01*
X9051251Y-11701887D01*
X9051251Y-11630458D01*
X9036966Y-11601887D01*
X9022680Y-11587601D01*
X8994109Y-11573315D01*
X8936966Y-11573315D01*
X8908394Y-11587601D01*
X8894109Y-11601887D01*
X8879823Y-11630458D01*
X9408394Y-11759030D02*
X9408394Y-11459030D01*
X9536966Y-11759030D02*
X9536966Y-11601887D01*
X9522680Y-11573315D01*
X9494109Y-11559030D01*
X9451251Y-11559030D01*
X9422680Y-11573315D01*
X9408394Y-11587601D01*
X9722680Y-11759030D02*
X9694109Y-11744744D01*
X9679823Y-11730458D01*
X9665537Y-11701887D01*
X9665537Y-11616172D01*
X9679823Y-11587601D01*
X9694109Y-11573315D01*
X9722680Y-11559030D01*
X9765537Y-11559030D01*
X9794109Y-11573315D01*
X9808394Y-11587601D01*
X9822680Y-11616172D01*
X9822680Y-11701887D01*
X9808394Y-11730458D01*
X9794109Y-11744744D01*
X9765537Y-11759030D01*
X9722680Y-11759030D01*
X9994109Y-11759030D02*
X9965537Y-11744744D01*
X9951251Y-11716172D01*
X9951251Y-11459030D01*
X10222680Y-11744744D02*
X10194109Y-11759030D01*
X10136966Y-11759030D01*
X10108394Y-11744744D01*
X10094109Y-11716172D01*
X10094109Y-11601887D01*
X10108394Y-11573315D01*
X10136966Y-11559030D01*
X10194109Y-11559030D01*
X10222680Y-11573315D01*
X10236966Y-11601887D01*
X10236966Y-11630458D01*
X10094109Y-11659030D01*
X10351251Y-11744744D02*
X10379823Y-11759030D01*
X10436966Y-11759030D01*
X10465537Y-11744744D01*
X10479823Y-11716172D01*
X10479823Y-11701887D01*
X10465537Y-11673315D01*
X10436966Y-11659030D01*
X10394109Y-11659030D01*
X10365537Y-11644744D01*
X10351251Y-11616172D01*
X10351251Y-11601887D01*
X10365537Y-11573315D01*
X10394109Y-11559030D01*
X10436966Y-11559030D01*
X10465537Y-11573315D01*
X10579823Y-11873315D02*
X10594109Y-11859030D01*
X10622680Y-11816172D01*
X10636966Y-11787601D01*
X10651251Y-11744744D01*
X10665537Y-11673315D01*
X10665537Y-11616172D01*
X10651251Y-11544744D01*
X10636966Y-11501887D01*
X10622680Y-11473315D01*
X10594109Y-11430458D01*
X10579823Y-11416172D01*
X2950537Y-12019315D02*
G75*
G03*
X2950537Y-12019315I-40640J0D01*
G01*
X3294108Y-11855030D02*
X3322680Y-11855030D01*
X3351251Y-11869315D01*
X3365537Y-11883601D01*
X3379823Y-11912172D01*
X3394108Y-11969315D01*
X3394108Y-12040744D01*
X3379823Y-12097887D01*
X3365537Y-12126458D01*
X3351251Y-12140744D01*
X3322680Y-12155030D01*
X3294108Y-12155030D01*
X3265537Y-12140744D01*
X3251251Y-12126458D01*
X3236966Y-12097887D01*
X3222680Y-12040744D01*
X3222680Y-11969315D01*
X3236966Y-11912172D01*
X3251251Y-11883601D01*
X3265537Y-11869315D01*
X3294108Y-11855030D01*
X3522680Y-12126458D02*
X3536966Y-12140744D01*
X3522680Y-12155030D01*
X3508394Y-12140744D01*
X3522680Y-12126458D01*
X3522680Y-12155030D01*
X3708394Y-11983601D02*
X3679823Y-11969315D01*
X3665537Y-11955030D01*
X3651251Y-11926458D01*
X3651251Y-11912172D01*
X3665537Y-11883601D01*
X3679823Y-11869315D01*
X3708394Y-11855030D01*
X3765537Y-11855030D01*
X3794108Y-11869315D01*
X3808394Y-11883601D01*
X3822680Y-11912172D01*
X3822680Y-11926458D01*
X3808394Y-11955030D01*
X3794108Y-11969315D01*
X3765537Y-11983601D01*
X3708394Y-11983601D01*
X3679823Y-11997887D01*
X3665537Y-12012172D01*
X3651251Y-12040744D01*
X3651251Y-12097887D01*
X3665537Y-12126458D01*
X3679823Y-12140744D01*
X3708394Y-12155030D01*
X3765537Y-12155030D01*
X3794108Y-12140744D01*
X3808394Y-12126458D01*
X3822680Y-12097887D01*
X3822680Y-12040744D01*
X3808394Y-12012172D01*
X3794108Y-11997887D01*
X3765537Y-11983601D01*
X4108394Y-12155030D02*
X3936966Y-12155030D01*
X4022680Y-12155030D02*
X4022680Y-11855030D01*
X3994108Y-11897887D01*
X3965537Y-11926458D01*
X3936966Y-11940744D01*
X4208394Y-11855030D02*
X4394109Y-11855030D01*
X4294109Y-11969315D01*
X4336966Y-11969315D01*
X4365537Y-11983601D01*
X4379823Y-11997887D01*
X4394109Y-12026458D01*
X4394109Y-12097887D01*
X4379823Y-12126458D01*
X4365537Y-12140744D01*
X4336966Y-12155030D01*
X4251251Y-12155030D01*
X4222680Y-12140744D01*
X4208394Y-12126458D01*
X4522680Y-12155030D02*
X4522680Y-11955030D01*
X4522680Y-11983601D02*
X4536966Y-11969315D01*
X4565537Y-11955030D01*
X4608394Y-11955030D01*
X4636966Y-11969315D01*
X4651251Y-11997887D01*
X4651251Y-12155030D01*
X4651251Y-11997887D02*
X4665537Y-11969315D01*
X4694109Y-11955030D01*
X4736966Y-11955030D01*
X4765537Y-11969315D01*
X4779823Y-11997887D01*
X4779823Y-12155030D01*
X4922680Y-12155030D02*
X4922680Y-11955030D01*
X4922680Y-11983601D02*
X4936966Y-11969315D01*
X4965537Y-11955030D01*
X5008394Y-11955030D01*
X5036966Y-11969315D01*
X5051251Y-11997887D01*
X5051251Y-12155030D01*
X5051251Y-11997887D02*
X5065537Y-11969315D01*
X5094109Y-11955030D01*
X5136966Y-11955030D01*
X5165537Y-11969315D01*
X5179823Y-11997887D01*
X5179823Y-12155030D01*
X5765537Y-11840744D02*
X5508394Y-12226458D01*
X6151251Y-11855030D02*
X6179823Y-11855030D01*
X6208394Y-11869315D01*
X6222680Y-11883601D01*
X6236966Y-11912172D01*
X6251251Y-11969315D01*
X6251251Y-12040744D01*
X6236966Y-12097887D01*
X6222680Y-12126458D01*
X6208394Y-12140744D01*
X6179823Y-12155030D01*
X6151251Y-12155030D01*
X6122680Y-12140744D01*
X6108394Y-12126458D01*
X6094108Y-12097887D01*
X6079823Y-12040744D01*
X6079823Y-11969315D01*
X6094108Y-11912172D01*
X6108394Y-11883601D01*
X6122680Y-11869315D01*
X6151251Y-11855030D01*
X6379823Y-12126458D02*
X6394108Y-12140744D01*
X6379823Y-12155030D01*
X6365537Y-12140744D01*
X6379823Y-12126458D01*
X6379823Y-12155030D01*
X6579823Y-11855030D02*
X6608394Y-11855030D01*
X6636966Y-11869315D01*
X6651251Y-11883601D01*
X6665537Y-11912172D01*
X6679823Y-11969315D01*
X6679823Y-12040744D01*
X6665537Y-12097887D01*
X6651251Y-12126458D01*
X6636966Y-12140744D01*
X6608394Y-12155030D01*
X6579823Y-12155030D01*
X6551251Y-12140744D01*
X6536966Y-12126458D01*
X6522680Y-12097887D01*
X6508394Y-12040744D01*
X6508394Y-11969315D01*
X6522680Y-11912172D01*
X6536966Y-11883601D01*
X6551251Y-11869315D01*
X6579823Y-11855030D01*
X6779823Y-11855030D02*
X6965537Y-11855030D01*
X6865537Y-11969315D01*
X6908394Y-11969315D01*
X6936966Y-11983601D01*
X6951251Y-11997887D01*
X6965537Y-12026458D01*
X6965537Y-12097887D01*
X6951251Y-12126458D01*
X6936966Y-12140744D01*
X6908394Y-12155030D01*
X6822680Y-12155030D01*
X6794108Y-12140744D01*
X6779823Y-12126458D01*
X7079823Y-11883601D02*
X7094108Y-11869315D01*
X7122680Y-11855030D01*
X7194108Y-11855030D01*
X7222680Y-11869315D01*
X7236966Y-11883601D01*
X7251251Y-11912172D01*
X7251251Y-11940744D01*
X7236966Y-11983601D01*
X7065537Y-12155030D01*
X7251251Y-12155030D01*
X7436966Y-11855030D02*
X7465537Y-11855030D01*
X7494108Y-11869315D01*
X7508394Y-11883601D01*
X7522680Y-11912172D01*
X7536966Y-11969315D01*
X7536966Y-12040744D01*
X7522680Y-12097887D01*
X7508394Y-12126458D01*
X7494108Y-12140744D01*
X7465537Y-12155030D01*
X7436966Y-12155030D01*
X7408394Y-12140744D01*
X7394108Y-12126458D01*
X7379823Y-12097887D01*
X7365537Y-12040744D01*
X7365537Y-11969315D01*
X7379823Y-11912172D01*
X7394108Y-11883601D01*
X7408394Y-11869315D01*
X7436966Y-11855030D01*
X7651251Y-11855030D02*
X7651251Y-11912172D01*
X7765537Y-11855030D02*
X7765537Y-11912172D01*
X8208394Y-12269315D02*
X8194108Y-12255030D01*
X8165537Y-12212172D01*
X8151251Y-12183601D01*
X8136966Y-12140744D01*
X8122680Y-12069315D01*
X8122680Y-12012172D01*
X8136966Y-11940744D01*
X8151251Y-11897887D01*
X8165537Y-11869315D01*
X8194108Y-11826458D01*
X8208394Y-11812172D01*
X8308394Y-11883601D02*
X8322680Y-11869315D01*
X8351251Y-11855030D01*
X8422680Y-11855030D01*
X8451251Y-11869315D01*
X8465537Y-11883601D01*
X8479823Y-11912172D01*
X8479823Y-11940744D01*
X8465537Y-11983601D01*
X8294108Y-12155030D01*
X8479823Y-12155030D01*
X8651251Y-11983601D02*
X8622680Y-11969315D01*
X8608394Y-11955030D01*
X8594109Y-11926458D01*
X8594109Y-11912172D01*
X8608394Y-11883601D01*
X8622680Y-11869315D01*
X8651251Y-11855030D01*
X8708394Y-11855030D01*
X8736966Y-11869315D01*
X8751251Y-11883601D01*
X8765537Y-11912172D01*
X8765537Y-11926458D01*
X8751251Y-11955030D01*
X8736966Y-11969315D01*
X8708394Y-11983601D01*
X8651251Y-11983601D01*
X8622680Y-11997887D01*
X8608394Y-12012172D01*
X8594109Y-12040744D01*
X8594109Y-12097887D01*
X8608394Y-12126458D01*
X8622680Y-12140744D01*
X8651251Y-12155030D01*
X8708394Y-12155030D01*
X8736966Y-12140744D01*
X8751251Y-12126458D01*
X8765537Y-12097887D01*
X8765537Y-12040744D01*
X8751251Y-12012172D01*
X8736966Y-11997887D01*
X8708394Y-11983601D01*
X9122680Y-12155030D02*
X9122680Y-11855030D01*
X9251251Y-12155030D02*
X9251251Y-11997887D01*
X9236966Y-11969315D01*
X9208394Y-11955030D01*
X9165537Y-11955030D01*
X9136966Y-11969315D01*
X9122680Y-11983601D01*
X9436966Y-12155030D02*
X9408394Y-12140744D01*
X9394109Y-12126458D01*
X9379823Y-12097887D01*
X9379823Y-12012172D01*
X9394109Y-11983601D01*
X9408394Y-11969315D01*
X9436966Y-11955030D01*
X9479823Y-11955030D01*
X9508394Y-11969315D01*
X9522680Y-11983601D01*
X9536966Y-12012172D01*
X9536966Y-12097887D01*
X9522680Y-12126458D01*
X9508394Y-12140744D01*
X9479823Y-12155030D01*
X9436966Y-12155030D01*
X9708394Y-12155030D02*
X9679823Y-12140744D01*
X9665537Y-12112172D01*
X9665537Y-11855030D01*
X9936966Y-12140744D02*
X9908394Y-12155030D01*
X9851251Y-12155030D01*
X9822680Y-12140744D01*
X9808394Y-12112172D01*
X9808394Y-11997887D01*
X9822680Y-11969315D01*
X9851251Y-11955030D01*
X9908394Y-11955030D01*
X9936966Y-11969315D01*
X9951251Y-11997887D01*
X9951251Y-12026458D01*
X9808394Y-12055030D01*
X10065537Y-12140744D02*
X10094109Y-12155030D01*
X10151251Y-12155030D01*
X10179823Y-12140744D01*
X10194109Y-12112172D01*
X10194109Y-12097887D01*
X10179823Y-12069315D01*
X10151251Y-12055030D01*
X10108394Y-12055030D01*
X10079823Y-12040744D01*
X10065537Y-12012172D01*
X10065537Y-11997887D01*
X10079823Y-11969315D01*
X10108394Y-11955030D01*
X10151251Y-11955030D01*
X10179823Y-11969315D01*
X10294109Y-12269315D02*
X10308394Y-12255030D01*
X10336966Y-12212172D01*
X10351251Y-12183601D01*
X10365537Y-12140744D01*
X10379823Y-12069315D01*
X10379823Y-12012172D01*
X10365537Y-11940744D01*
X10351251Y-11897887D01*
X10336966Y-11869315D01*
X10308394Y-11826458D01*
X10294109Y-11812172D01*
X2900537Y-12365315D02*
X2900537Y-12465315D01*
X2850537Y-12415315D02*
X2950537Y-12415315D01*
X3394108Y-12551030D02*
X3222680Y-12551030D01*
X3308394Y-12551030D02*
X3308394Y-12251030D01*
X3279823Y-12293887D01*
X3251251Y-12322458D01*
X3222680Y-12336744D01*
X3522680Y-12522458D02*
X3536966Y-12536744D01*
X3522680Y-12551030D01*
X3508394Y-12536744D01*
X3522680Y-12522458D01*
X3522680Y-12551030D01*
X3722680Y-12251030D02*
X3751251Y-12251030D01*
X3779823Y-12265315D01*
X3794108Y-12279601D01*
X3808394Y-12308172D01*
X3822680Y-12365315D01*
X3822680Y-12436744D01*
X3808394Y-12493887D01*
X3794108Y-12522458D01*
X3779823Y-12536744D01*
X3751251Y-12551030D01*
X3722680Y-12551030D01*
X3694108Y-12536744D01*
X3679823Y-12522458D01*
X3665537Y-12493887D01*
X3651251Y-12436744D01*
X3651251Y-12365315D01*
X3665537Y-12308172D01*
X3679823Y-12279601D01*
X3694108Y-12265315D01*
X3722680Y-12251030D01*
X4008394Y-12251030D02*
X4036966Y-12251030D01*
X4065537Y-12265315D01*
X4079823Y-12279601D01*
X4094108Y-12308172D01*
X4108394Y-12365315D01*
X4108394Y-12436744D01*
X4094108Y-12493887D01*
X4079823Y-12522458D01*
X4065537Y-12536744D01*
X4036966Y-12551030D01*
X4008394Y-12551030D01*
X3979823Y-12536744D01*
X3965537Y-12522458D01*
X3951251Y-12493887D01*
X3936966Y-12436744D01*
X3936966Y-12365315D01*
X3951251Y-12308172D01*
X3965537Y-12279601D01*
X3979823Y-12265315D01*
X4008394Y-12251030D01*
X4294109Y-12251030D02*
X4322680Y-12251030D01*
X4351251Y-12265315D01*
X4365537Y-12279601D01*
X4379823Y-12308172D01*
X4394109Y-12365315D01*
X4394109Y-12436744D01*
X4379823Y-12493887D01*
X4365537Y-12522458D01*
X4351251Y-12536744D01*
X4322680Y-12551030D01*
X4294109Y-12551030D01*
X4265537Y-12536744D01*
X4251251Y-12522458D01*
X4236966Y-12493887D01*
X4222680Y-12436744D01*
X4222680Y-12365315D01*
X4236966Y-12308172D01*
X4251251Y-12279601D01*
X4265537Y-12265315D01*
X4294109Y-12251030D01*
X4522680Y-12551030D02*
X4522680Y-12351030D01*
X4522680Y-12379601D02*
X4536966Y-12365315D01*
X4565537Y-12351030D01*
X4608394Y-12351030D01*
X4636966Y-12365315D01*
X4651251Y-12393887D01*
X4651251Y-12551030D01*
X4651251Y-12393887D02*
X4665537Y-12365315D01*
X4694109Y-12351030D01*
X4736966Y-12351030D01*
X4765537Y-12365315D01*
X4779823Y-12393887D01*
X4779823Y-12551030D01*
X4922680Y-12551030D02*
X4922680Y-12351030D01*
X4922680Y-12379601D02*
X4936966Y-12365315D01*
X4965537Y-12351030D01*
X5008394Y-12351030D01*
X5036966Y-12365315D01*
X5051251Y-12393887D01*
X5051251Y-12551030D01*
X5051251Y-12393887D02*
X5065537Y-12365315D01*
X5094109Y-12351030D01*
X5136966Y-12351030D01*
X5165537Y-12365315D01*
X5179823Y-12393887D01*
X5179823Y-12551030D01*
X5765537Y-12236744D02*
X5508394Y-12622458D01*
X6151251Y-12251030D02*
X6179823Y-12251030D01*
X6208394Y-12265315D01*
X6222680Y-12279601D01*
X6236966Y-12308172D01*
X6251251Y-12365315D01*
X6251251Y-12436744D01*
X6236966Y-12493887D01*
X6222680Y-12522458D01*
X6208394Y-12536744D01*
X6179823Y-12551030D01*
X6151251Y-12551030D01*
X6122680Y-12536744D01*
X6108394Y-12522458D01*
X6094108Y-12493887D01*
X6079823Y-12436744D01*
X6079823Y-12365315D01*
X6094108Y-12308172D01*
X6108394Y-12279601D01*
X6122680Y-12265315D01*
X6151251Y-12251030D01*
X6379823Y-12522458D02*
X6394108Y-12536744D01*
X6379823Y-12551030D01*
X6365537Y-12536744D01*
X6379823Y-12522458D01*
X6379823Y-12551030D01*
X6579823Y-12251030D02*
X6608394Y-12251030D01*
X6636966Y-12265315D01*
X6651251Y-12279601D01*
X6665537Y-12308172D01*
X6679823Y-12365315D01*
X6679823Y-12436744D01*
X6665537Y-12493887D01*
X6651251Y-12522458D01*
X6636966Y-12536744D01*
X6608394Y-12551030D01*
X6579823Y-12551030D01*
X6551251Y-12536744D01*
X6536966Y-12522458D01*
X6522680Y-12493887D01*
X6508394Y-12436744D01*
X6508394Y-12365315D01*
X6522680Y-12308172D01*
X6536966Y-12279601D01*
X6551251Y-12265315D01*
X6579823Y-12251030D01*
X6779823Y-12251030D02*
X6965537Y-12251030D01*
X6865537Y-12365315D01*
X6908394Y-12365315D01*
X6936966Y-12379601D01*
X6951251Y-12393887D01*
X6965537Y-12422458D01*
X6965537Y-12493887D01*
X6951251Y-12522458D01*
X6936966Y-12536744D01*
X6908394Y-12551030D01*
X6822680Y-12551030D01*
X6794108Y-12536744D01*
X6779823Y-12522458D01*
X7108394Y-12551030D02*
X7165537Y-12551030D01*
X7194108Y-12536744D01*
X7208394Y-12522458D01*
X7236966Y-12479601D01*
X7251251Y-12422458D01*
X7251251Y-12308172D01*
X7236966Y-12279601D01*
X7222680Y-12265315D01*
X7194108Y-12251030D01*
X7136966Y-12251030D01*
X7108394Y-12265315D01*
X7094108Y-12279601D01*
X7079823Y-12308172D01*
X7079823Y-12379601D01*
X7094108Y-12408172D01*
X7108394Y-12422458D01*
X7136966Y-12436744D01*
X7194108Y-12436744D01*
X7222680Y-12422458D01*
X7236966Y-12408172D01*
X7251251Y-12379601D01*
X7508394Y-12351030D02*
X7508394Y-12551030D01*
X7436966Y-12236744D02*
X7365537Y-12451030D01*
X7551251Y-12451030D01*
X7651251Y-12251030D02*
X7651251Y-12308172D01*
X7765537Y-12251030D02*
X7765537Y-12308172D01*
X8208394Y-12665315D02*
X8194108Y-12651030D01*
X8165537Y-12608172D01*
X8151251Y-12579601D01*
X8136966Y-12536744D01*
X8122680Y-12465315D01*
X8122680Y-12408172D01*
X8136966Y-12336744D01*
X8151251Y-12293887D01*
X8165537Y-12265315D01*
X8194108Y-12222458D01*
X8208394Y-12208172D01*
X8379823Y-12251030D02*
X8408394Y-12251030D01*
X8436966Y-12265315D01*
X8451251Y-12279601D01*
X8465537Y-12308172D01*
X8479823Y-12365315D01*
X8479823Y-12436744D01*
X8465537Y-12493887D01*
X8451251Y-12522458D01*
X8436966Y-12536744D01*
X8408394Y-12551030D01*
X8379823Y-12551030D01*
X8351251Y-12536744D01*
X8336966Y-12522458D01*
X8322680Y-12493887D01*
X8308394Y-12436744D01*
X8308394Y-12365315D01*
X8322680Y-12308172D01*
X8336966Y-12279601D01*
X8351251Y-12265315D01*
X8379823Y-12251030D01*
X8836966Y-12551030D02*
X8836966Y-12251030D01*
X8965537Y-12551030D02*
X8965537Y-12393887D01*
X8951251Y-12365315D01*
X8922680Y-12351030D01*
X8879823Y-12351030D01*
X8851251Y-12365315D01*
X8836966Y-12379601D01*
X9151251Y-12551030D02*
X9122680Y-12536744D01*
X9108394Y-12522458D01*
X9094109Y-12493887D01*
X9094109Y-12408172D01*
X9108394Y-12379601D01*
X9122680Y-12365315D01*
X9151251Y-12351030D01*
X9194109Y-12351030D01*
X9222680Y-12365315D01*
X9236966Y-12379601D01*
X9251251Y-12408172D01*
X9251251Y-12493887D01*
X9236966Y-12522458D01*
X9222680Y-12536744D01*
X9194109Y-12551030D01*
X9151251Y-12551030D01*
X9422680Y-12551030D02*
X9394109Y-12536744D01*
X9379823Y-12508172D01*
X9379823Y-12251030D01*
X9651251Y-12536744D02*
X9622680Y-12551030D01*
X9565537Y-12551030D01*
X9536966Y-12536744D01*
X9522680Y-12508172D01*
X9522680Y-12393887D01*
X9536966Y-12365315D01*
X9565537Y-12351030D01*
X9622680Y-12351030D01*
X9651251Y-12365315D01*
X9665537Y-12393887D01*
X9665537Y-12422458D01*
X9522680Y-12451030D01*
X9779823Y-12536744D02*
X9808394Y-12551030D01*
X9865537Y-12551030D01*
X9894109Y-12536744D01*
X9908394Y-12508172D01*
X9908394Y-12493887D01*
X9894109Y-12465315D01*
X9865537Y-12451030D01*
X9822680Y-12451030D01*
X9794109Y-12436744D01*
X9779823Y-12408172D01*
X9779823Y-12393887D01*
X9794109Y-12365315D01*
X9822680Y-12351030D01*
X9865537Y-12351030D01*
X9894109Y-12365315D01*
X10265537Y-12436744D02*
X10494109Y-12436744D01*
X10379823Y-12551030D02*
X10379823Y-12322458D01*
X10994109Y-12351030D02*
X10994109Y-12551030D01*
X10922680Y-12236744D02*
X10851251Y-12451030D01*
X11036966Y-12451030D01*
X11365537Y-12536744D02*
X11394108Y-12551030D01*
X11451251Y-12551030D01*
X11479823Y-12536744D01*
X11494108Y-12508172D01*
X11494108Y-12493887D01*
X11479823Y-12465315D01*
X11451251Y-12451030D01*
X11408394Y-12451030D01*
X11379823Y-12436744D01*
X11365537Y-12408172D01*
X11365537Y-12393887D01*
X11379823Y-12365315D01*
X11408394Y-12351030D01*
X11451251Y-12351030D01*
X11479823Y-12365315D01*
X11665537Y-12551030D02*
X11636966Y-12536744D01*
X11622680Y-12508172D01*
X11622680Y-12251030D01*
X11822680Y-12551030D02*
X11794108Y-12536744D01*
X11779823Y-12522458D01*
X11765537Y-12493887D01*
X11765537Y-12408172D01*
X11779823Y-12379601D01*
X11794108Y-12365315D01*
X11822680Y-12351030D01*
X11865537Y-12351030D01*
X11894108Y-12365315D01*
X11908394Y-12379601D01*
X11922680Y-12408172D01*
X11922680Y-12493887D01*
X11908394Y-12522458D01*
X11894108Y-12536744D01*
X11865537Y-12551030D01*
X11822680Y-12551030D01*
X12008394Y-12351030D02*
X12122680Y-12351030D01*
X12051251Y-12251030D02*
X12051251Y-12508172D01*
X12065537Y-12536744D01*
X12094108Y-12551030D01*
X12122680Y-12551030D01*
X12208394Y-12536744D02*
X12236966Y-12551030D01*
X12294108Y-12551030D01*
X12322680Y-12536744D01*
X12336966Y-12508172D01*
X12336966Y-12493887D01*
X12322680Y-12465315D01*
X12294108Y-12451030D01*
X12251251Y-12451030D01*
X12222680Y-12436744D01*
X12208394Y-12408172D01*
X12208394Y-12393887D01*
X12222680Y-12365315D01*
X12251251Y-12351030D01*
X12294108Y-12351030D01*
X12322680Y-12365315D01*
X12436966Y-12665315D02*
X12451251Y-12651030D01*
X12479823Y-12608172D01*
X12494108Y-12579601D01*
X12508394Y-12536744D01*
X12522680Y-12465315D01*
X12522680Y-12408172D01*
X12508394Y-12336744D01*
X12494108Y-12293887D01*
X12479823Y-12265315D01*
X12451251Y-12222458D01*
X12436966Y-12208172D01*
X2931499Y-12857278D02*
X2931499Y-12765353D01*
X2839575Y-12765353D01*
X2839575Y-12857278D01*
X2931499Y-12857278D01*
X3394108Y-12947030D02*
X3222680Y-12947030D01*
X3308394Y-12947030D02*
X3308394Y-12647030D01*
X3279823Y-12689887D01*
X3251251Y-12718458D01*
X3222680Y-12732744D01*
X3522680Y-12918458D02*
X3536966Y-12932744D01*
X3522680Y-12947030D01*
X3508394Y-12932744D01*
X3522680Y-12918458D01*
X3522680Y-12947030D01*
X3636966Y-12647030D02*
X3822680Y-12647030D01*
X3722680Y-12761315D01*
X3765537Y-12761315D01*
X3794108Y-12775601D01*
X3808394Y-12789887D01*
X3822680Y-12818458D01*
X3822680Y-12889887D01*
X3808394Y-12918458D01*
X3794108Y-12932744D01*
X3765537Y-12947030D01*
X3679823Y-12947030D01*
X3651251Y-12932744D01*
X3636966Y-12918458D01*
X4008394Y-12647030D02*
X4036966Y-12647030D01*
X4065537Y-12661315D01*
X4079823Y-12675601D01*
X4094108Y-12704172D01*
X4108394Y-12761315D01*
X4108394Y-12832744D01*
X4094108Y-12889887D01*
X4079823Y-12918458D01*
X4065537Y-12932744D01*
X4036966Y-12947030D01*
X4008394Y-12947030D01*
X3979823Y-12932744D01*
X3965537Y-12918458D01*
X3951251Y-12889887D01*
X3936966Y-12832744D01*
X3936966Y-12761315D01*
X3951251Y-12704172D01*
X3965537Y-12675601D01*
X3979823Y-12661315D01*
X4008394Y-12647030D01*
X4294109Y-12647030D02*
X4322680Y-12647030D01*
X4351251Y-12661315D01*
X4365537Y-12675601D01*
X4379823Y-12704172D01*
X4394109Y-12761315D01*
X4394109Y-12832744D01*
X4379823Y-12889887D01*
X4365537Y-12918458D01*
X4351251Y-12932744D01*
X4322680Y-12947030D01*
X4294109Y-12947030D01*
X4265537Y-12932744D01*
X4251251Y-12918458D01*
X4236966Y-12889887D01*
X4222680Y-12832744D01*
X4222680Y-12761315D01*
X4236966Y-12704172D01*
X4251251Y-12675601D01*
X4265537Y-12661315D01*
X4294109Y-12647030D01*
X4522680Y-12947030D02*
X4522680Y-12747030D01*
X4522680Y-12775601D02*
X4536966Y-12761315D01*
X4565537Y-12747030D01*
X4608394Y-12747030D01*
X4636966Y-12761315D01*
X4651251Y-12789887D01*
X4651251Y-12947030D01*
X4651251Y-12789887D02*
X4665537Y-12761315D01*
X4694109Y-12747030D01*
X4736966Y-12747030D01*
X4765537Y-12761315D01*
X4779823Y-12789887D01*
X4779823Y-12947030D01*
X4922680Y-12947030D02*
X4922680Y-12747030D01*
X4922680Y-12775601D02*
X4936966Y-12761315D01*
X4965537Y-12747030D01*
X5008394Y-12747030D01*
X5036966Y-12761315D01*
X5051251Y-12789887D01*
X5051251Y-12947030D01*
X5051251Y-12789887D02*
X5065537Y-12761315D01*
X5094109Y-12747030D01*
X5136966Y-12747030D01*
X5165537Y-12761315D01*
X5179823Y-12789887D01*
X5179823Y-12947030D01*
X5765537Y-12632744D02*
X5508394Y-13018458D01*
X6151251Y-12647030D02*
X6179823Y-12647030D01*
X6208394Y-12661315D01*
X6222680Y-12675601D01*
X6236966Y-12704172D01*
X6251251Y-12761315D01*
X6251251Y-12832744D01*
X6236966Y-12889887D01*
X6222680Y-12918458D01*
X6208394Y-12932744D01*
X6179823Y-12947030D01*
X6151251Y-12947030D01*
X6122680Y-12932744D01*
X6108394Y-12918458D01*
X6094108Y-12889887D01*
X6079823Y-12832744D01*
X6079823Y-12761315D01*
X6094108Y-12704172D01*
X6108394Y-12675601D01*
X6122680Y-12661315D01*
X6151251Y-12647030D01*
X6379823Y-12918458D02*
X6394108Y-12932744D01*
X6379823Y-12947030D01*
X6365537Y-12932744D01*
X6379823Y-12918458D01*
X6379823Y-12947030D01*
X6579823Y-12647030D02*
X6608394Y-12647030D01*
X6636966Y-12661315D01*
X6651251Y-12675601D01*
X6665537Y-12704172D01*
X6679823Y-12761315D01*
X6679823Y-12832744D01*
X6665537Y-12889887D01*
X6651251Y-12918458D01*
X6636966Y-12932744D01*
X6608394Y-12947030D01*
X6579823Y-12947030D01*
X6551251Y-12932744D01*
X6536966Y-12918458D01*
X6522680Y-12889887D01*
X6508394Y-12832744D01*
X6508394Y-12761315D01*
X6522680Y-12704172D01*
X6536966Y-12675601D01*
X6551251Y-12661315D01*
X6579823Y-12647030D01*
X6951251Y-12647030D02*
X6808394Y-12647030D01*
X6794108Y-12789887D01*
X6808394Y-12775601D01*
X6836966Y-12761315D01*
X6908394Y-12761315D01*
X6936966Y-12775601D01*
X6951251Y-12789887D01*
X6965537Y-12818458D01*
X6965537Y-12889887D01*
X6951251Y-12918458D01*
X6936966Y-12932744D01*
X6908394Y-12947030D01*
X6836966Y-12947030D01*
X6808394Y-12932744D01*
X6794108Y-12918458D01*
X7251251Y-12947030D02*
X7079823Y-12947030D01*
X7165537Y-12947030D02*
X7165537Y-12647030D01*
X7136966Y-12689887D01*
X7108394Y-12718458D01*
X7079823Y-12732744D01*
X7365537Y-12675601D02*
X7379823Y-12661315D01*
X7408394Y-12647030D01*
X7479823Y-12647030D01*
X7508394Y-12661315D01*
X7522680Y-12675601D01*
X7536966Y-12704172D01*
X7536966Y-12732744D01*
X7522680Y-12775601D01*
X7351251Y-12947030D01*
X7536966Y-12947030D01*
X7651251Y-12647030D02*
X7651251Y-12704172D01*
X7765537Y-12647030D02*
X7765537Y-12704172D01*
X8208394Y-13061315D02*
X8194108Y-13047030D01*
X8165537Y-13004172D01*
X8151251Y-12975601D01*
X8136966Y-12932744D01*
X8122680Y-12861315D01*
X8122680Y-12804172D01*
X8136966Y-12732744D01*
X8151251Y-12689887D01*
X8165537Y-12661315D01*
X8194108Y-12618458D01*
X8208394Y-12604172D01*
X8308394Y-12675601D02*
X8322680Y-12661315D01*
X8351251Y-12647030D01*
X8422680Y-12647030D01*
X8451251Y-12661315D01*
X8465537Y-12675601D01*
X8479823Y-12704172D01*
X8479823Y-12732744D01*
X8465537Y-12775601D01*
X8294108Y-12947030D01*
X8479823Y-12947030D01*
X8836966Y-12947030D02*
X8836966Y-12647030D01*
X8965537Y-12947030D02*
X8965537Y-12789887D01*
X8951251Y-12761315D01*
X8922680Y-12747030D01*
X8879823Y-12747030D01*
X8851251Y-12761315D01*
X8836966Y-12775601D01*
X9151251Y-12947030D02*
X9122680Y-12932744D01*
X9108394Y-12918458D01*
X9094109Y-12889887D01*
X9094109Y-12804172D01*
X9108394Y-12775601D01*
X9122680Y-12761315D01*
X9151251Y-12747030D01*
X9194109Y-12747030D01*
X9222680Y-12761315D01*
X9236966Y-12775601D01*
X9251251Y-12804172D01*
X9251251Y-12889887D01*
X9236966Y-12918458D01*
X9222680Y-12932744D01*
X9194109Y-12947030D01*
X9151251Y-12947030D01*
X9422680Y-12947030D02*
X9394109Y-12932744D01*
X9379823Y-12904172D01*
X9379823Y-12647030D01*
X9651251Y-12932744D02*
X9622680Y-12947030D01*
X9565537Y-12947030D01*
X9536966Y-12932744D01*
X9522680Y-12904172D01*
X9522680Y-12789887D01*
X9536966Y-12761315D01*
X9565537Y-12747030D01*
X9622680Y-12747030D01*
X9651251Y-12761315D01*
X9665537Y-12789887D01*
X9665537Y-12818458D01*
X9522680Y-12847030D01*
X9779823Y-12932744D02*
X9808394Y-12947030D01*
X9865537Y-12947030D01*
X9894109Y-12932744D01*
X9908394Y-12904172D01*
X9908394Y-12889887D01*
X9894109Y-12861315D01*
X9865537Y-12847030D01*
X9822680Y-12847030D01*
X9794109Y-12832744D01*
X9779823Y-12804172D01*
X9779823Y-12789887D01*
X9794109Y-12761315D01*
X9822680Y-12747030D01*
X9865537Y-12747030D01*
X9894109Y-12761315D01*
X10008394Y-13061315D02*
X10022680Y-13047030D01*
X10051251Y-13004172D01*
X10065537Y-12975601D01*
X10079823Y-12932744D01*
X10094109Y-12861315D01*
X10094109Y-12804172D01*
X10079823Y-12732744D01*
X10065537Y-12689887D01*
X10051251Y-12661315D01*
X10022680Y-12618458D01*
X10008394Y-12604172D01*
M02*
