M48
; DRILL file {KiCad (5.1.10)-1} date 11/26/21 09:54:32
; FORMAT={-:-/ absolute / metric / decimal}
; #@! TF.CreationDate,2021-11-26T09:54:32+07:00
; #@! TF.GenerationSoftware,Kicad,Pcbnew,(5.1.10)-1
; #@! TF.FileFunction,NonPlated,1,2,NPTH
FMAT,2
METRIC
T1C1.200
T2C1.900
T3C2.200
T4C3.000
T5C4.100
T6C4.300
%
G90
G05
T1
X154.049Y-69.466
X161.049Y-69.466
T2
X33.442Y-30.954
X33.442Y-49.954
X33.442Y-68.954
X43.602Y-30.954
X43.602Y-49.954
X43.602Y-68.954
X52.442Y-30.954
X52.442Y-49.954
X52.442Y-68.954
X62.602Y-30.954
X62.602Y-49.954
X62.602Y-68.954
X71.442Y-26.204
X71.442Y-45.204
X71.442Y-64.204
X81.602Y-26.204
X81.602Y-45.204
X81.602Y-64.204
X90.442Y-23.829
X90.442Y-42.829
X90.442Y-61.829
X99.942Y-83.829
X100.602Y-23.829
X100.602Y-42.829
X100.602Y-61.829
X109.442Y-26.204
X109.442Y-45.204
X109.442Y-64.204
X110.102Y-83.829
X119.602Y-26.204
X119.602Y-45.204
X119.602Y-64.204
X121.116Y-85.264
X128.442Y-28.579
X128.442Y-47.579
X128.442Y-66.579
X130.929Y-87.894
X138.602Y-28.579
X138.602Y-47.579
X138.602Y-66.579
X145.732Y-94.728
X150.812Y-85.93
T3
X146.284Y-69.428
X160.716Y-77.949
T4
X34.712Y-28.414
X34.712Y-47.414
X34.712Y-66.414
X41.062Y-25.874
X41.062Y-44.874
X41.062Y-63.874
X53.712Y-28.414
X53.712Y-47.414
X53.712Y-66.414
X60.062Y-25.874
X60.062Y-44.874
X60.062Y-63.874
X72.712Y-23.664
X72.712Y-42.664
X72.712Y-61.664
X79.062Y-21.124
X79.062Y-40.124
X79.062Y-59.124
X91.712Y-21.289
X91.712Y-40.289
X91.712Y-59.289
X98.062Y-18.749
X98.062Y-37.749
X98.062Y-56.749
X101.212Y-81.289
X107.562Y-78.749
X110.712Y-23.664
X110.712Y-42.664
X110.712Y-61.664
X117.062Y-21.124
X117.062Y-40.124
X117.062Y-59.124
X123.0Y-83.139
X129.713Y-26.039
X129.713Y-45.039
X129.713Y-64.039
X129.791Y-82.329
X136.062Y-23.499
X136.062Y-42.499
X136.062Y-61.499
X144.168Y-92.359
X145.143Y-85.589
T5
X38.523Y-30.954
X38.523Y-49.954
X38.523Y-68.954
X57.523Y-30.954
X57.523Y-49.954
X57.523Y-68.954
X76.522Y-26.204
X76.522Y-45.204
X76.522Y-64.204
X95.522Y-23.829
X95.522Y-42.829
X95.522Y-61.829
X105.022Y-83.829
X114.522Y-26.204
X114.522Y-45.204
X114.522Y-64.204
X126.022Y-86.579
X133.523Y-28.579
X133.523Y-47.579
X133.523Y-66.579
X148.272Y-90.329
T6
X48.023Y-40.454
X48.023Y-59.454
X91.179Y-76.694
X123.99Y-36.939
X137.745Y-84.309
T0
M30
