G04 #@! TF.GenerationSoftware,KiCad,Pcbnew,(5.1.10)-1*
G04 #@! TF.CreationDate,2021-11-26T09:54:24+07:00*
G04 #@! TF.ProjectId,corne-cherry,636f726e-652d-4636-9865-7272792e6b69,3.0.1*
G04 #@! TF.SameCoordinates,Original*
G04 #@! TF.FileFunction,Soldermask,Top*
G04 #@! TF.FilePolarity,Negative*
%FSLAX46Y46*%
G04 Gerber Fmt 4.6, Leading zero omitted, Abs format (unit mm)*
G04 Created by KiCad (PCBNEW (5.1.10)-1) date 2021-11-26 09:54:24*
%MOMM*%
%LPD*%
G01*
G04 APERTURE LIST*
%ADD10C,2.600000*%
%ADD11C,4.700000*%
%ADD12C,3.400000*%
%ADD13C,2.300000*%
%ADD14C,4.500000*%
%ADD15C,1.600000*%
G04 APERTURE END LIST*
D10*
X160716500Y-77949000D03*
X146284500Y-69428000D03*
D11*
X137745500Y-84309000D03*
X91179500Y-76694500D03*
X123990500Y-36939500D03*
X48022500Y-59454000D03*
X48022500Y-40454000D03*
D12*
X145143091Y-85589295D03*
X144167795Y-92358557D03*
D13*
X145732500Y-94728409D03*
X150812500Y-85929591D03*
D14*
X148272500Y-90329000D03*
D15*
X154049500Y-69466000D03*
X161049500Y-69466000D03*
D12*
X136062500Y-42499000D03*
X129712500Y-45039000D03*
D13*
X128442500Y-47579000D03*
X138602500Y-47579000D03*
D14*
X133522500Y-47579000D03*
D12*
X117062500Y-21124000D03*
X110712500Y-23664000D03*
D13*
X109442500Y-26204000D03*
X119602500Y-26204000D03*
D14*
X114522500Y-26204000D03*
D12*
X79062500Y-59124000D03*
X72712500Y-61664000D03*
D13*
X71442500Y-64204000D03*
X81602500Y-64204000D03*
D14*
X76522500Y-64204000D03*
D12*
X60062500Y-44874000D03*
X53712500Y-47414000D03*
D13*
X52442500Y-49954000D03*
X62602500Y-49954000D03*
D14*
X57522500Y-49954000D03*
D12*
X136062500Y-61499000D03*
X129712500Y-64039000D03*
D13*
X128442500Y-66579000D03*
X138602500Y-66579000D03*
D14*
X133522500Y-66579000D03*
D12*
X107562500Y-78749000D03*
X101212500Y-81289000D03*
D13*
X99942500Y-83829000D03*
X110102500Y-83829000D03*
D14*
X105022500Y-83829000D03*
D12*
X129790752Y-82329497D03*
X122999723Y-83139448D03*
D13*
X121115597Y-85264199D03*
X130929403Y-87893801D03*
D14*
X126022500Y-86579000D03*
D12*
X79062500Y-21124000D03*
X72712500Y-23664000D03*
D13*
X71442500Y-26204000D03*
X81602500Y-26204000D03*
D14*
X76522500Y-26204000D03*
D12*
X41062500Y-44874000D03*
X34712500Y-47414000D03*
D13*
X33442500Y-49954000D03*
X43602500Y-49954000D03*
D14*
X38522500Y-49954000D03*
D12*
X98062500Y-18749000D03*
X91712500Y-21289000D03*
D13*
X90442500Y-23829000D03*
X100602500Y-23829000D03*
D14*
X95522500Y-23829000D03*
D12*
X98062500Y-56749000D03*
X91712500Y-59289000D03*
D13*
X90442500Y-61829000D03*
X100602500Y-61829000D03*
D14*
X95522500Y-61829000D03*
D12*
X117062500Y-59124000D03*
X110712500Y-61664000D03*
D13*
X109442500Y-64204000D03*
X119602500Y-64204000D03*
D14*
X114522500Y-64204000D03*
D12*
X79062500Y-40124000D03*
X72712500Y-42664000D03*
D13*
X71442500Y-45204000D03*
X81602500Y-45204000D03*
D14*
X76522500Y-45204000D03*
D12*
X98062500Y-37749000D03*
X91712500Y-40289000D03*
D13*
X90442500Y-42829000D03*
X100602500Y-42829000D03*
D14*
X95522500Y-42829000D03*
D12*
X41062500Y-25874000D03*
X34712500Y-28414000D03*
D13*
X33442500Y-30954000D03*
X43602500Y-30954000D03*
D14*
X38522500Y-30954000D03*
D12*
X117062500Y-40124000D03*
X110712500Y-42664000D03*
D13*
X109442500Y-45204000D03*
X119602500Y-45204000D03*
D14*
X114522500Y-45204000D03*
D12*
X60062500Y-25874000D03*
X53712500Y-28414000D03*
D13*
X52442500Y-30954000D03*
X62602500Y-30954000D03*
D14*
X57522500Y-30954000D03*
D12*
X41062500Y-63874000D03*
X34712500Y-66414000D03*
D13*
X33442500Y-68954000D03*
X43602500Y-68954000D03*
D14*
X38522500Y-68954000D03*
D12*
X136062500Y-23499000D03*
X129712500Y-26039000D03*
D13*
X128442500Y-28579000D03*
X138602500Y-28579000D03*
D14*
X133522500Y-28579000D03*
D12*
X60062500Y-63874000D03*
X53712500Y-66414000D03*
D13*
X52442500Y-68954000D03*
X62602500Y-68954000D03*
D14*
X57522500Y-68954000D03*
M02*
