%FSLAX45Y45*%
G04 Gerber Fmt 4.5, Leading zero omitted, Abs format (unit mm)*
G04 Created by KiCad (PCBNEW (5.1.10)-1) date 2021-11-26 09:54:35*
%MOMM*%
%LPD*%
G01*
G04 APERTURE LIST*
%TA.AperFunction,Profile*%
%ADD10C,0.200000*%
%TD*%
%ADD11C,0.200000*%
%ADD12C,0.300000*%
G04 APERTURE END LIST*
D10*
X8545891Y-7834063D02*
X8528538Y-7822765D01*
X8528538Y-7822765D02*
X8510534Y-7819407D01*
X13368050Y-9784400D02*
X13347880Y-9778977D01*
X13347880Y-9778977D02*
X13327428Y-9774800D01*
X13327428Y-9774800D02*
X13306752Y-9771878D01*
X13306752Y-9771878D02*
X13302594Y-9771446D01*
X9600193Y-9279779D02*
X9617548Y-9291062D01*
X9617548Y-9291062D02*
X9635549Y-9294409D01*
X16312821Y-8279172D02*
X16321769Y-8261285D01*
X16321769Y-8261285D02*
X16329317Y-8239823D01*
X16329317Y-8239823D02*
X16333935Y-8217559D01*
X16333935Y-8217559D02*
X16335544Y-8194790D01*
X16335544Y-8194790D02*
X16335530Y-8191923D01*
X12360382Y-1919171D02*
X12360382Y-1769311D01*
X14210516Y-1969209D02*
X12410420Y-1969209D01*
X16335530Y-2244417D02*
X16330597Y-2222748D01*
X16330597Y-2222748D02*
X16317336Y-2205848D01*
X16317336Y-2205848D02*
X16298033Y-2196006D01*
X16298033Y-2196006D02*
X16285542Y-2194430D01*
X16335478Y-2244290D02*
X16335478Y-8191694D01*
X2960537Y-2244417D02*
X2960360Y-7769293D01*
X6710539Y-2194430D02*
X6732217Y-2189505D01*
X6732217Y-2189505D02*
X6749126Y-2176244D01*
X6749126Y-2176244D02*
X6758974Y-2156938D01*
X6758974Y-2156938D02*
X6760551Y-2144443D01*
X6760551Y-2144443D02*
X6760551Y-2144418D01*
X6710412Y-2194253D02*
X3010550Y-2194430D01*
X6810538Y-1719425D02*
X6788869Y-1724358D01*
X6788869Y-1724358D02*
X6771969Y-1737619D01*
X6771969Y-1737619D02*
X6762127Y-1756921D01*
X6762127Y-1756921D02*
X6760551Y-1769413D01*
X8710533Y-1494407D02*
X8688857Y-1499343D01*
X8688857Y-1499343D02*
X8671955Y-1512612D01*
X8671955Y-1512612D02*
X8662117Y-1531923D01*
X8662117Y-1531923D02*
X8660546Y-1544419D01*
X8610330Y-1719273D02*
X7420950Y-1719273D01*
X16285440Y-2194253D02*
X14310541Y-2194430D01*
X10410426Y-1494229D02*
X8710406Y-1494229D01*
X14260300Y-2019247D02*
X14260529Y-2144418D01*
X14260529Y-2019424D02*
X14255603Y-1997746D01*
X14255603Y-1997746D02*
X14242343Y-1980838D01*
X14242343Y-1980838D02*
X14223038Y-1970989D01*
X14223038Y-1970989D02*
X14210542Y-1969412D01*
X12310344Y-1719273D02*
X11698250Y-1719273D01*
X6760450Y-1769311D02*
X6760450Y-2144215D01*
X2960537Y-7769420D02*
X2965473Y-7791096D01*
X2965473Y-7791096D02*
X2978742Y-7807998D01*
X2978742Y-7807998D02*
X2998053Y-7817836D01*
X2998053Y-7817836D02*
X3010549Y-7819407D01*
X3010549Y-7819407D02*
X3010550Y-7819407D01*
X2960537Y-2244417D02*
X2960537Y-2244417D01*
X8610534Y-1719425D02*
X8632212Y-1714500D01*
X8632212Y-1714500D02*
X8649120Y-1701239D01*
X8649120Y-1701239D02*
X8658968Y-1681933D01*
X8658968Y-1681933D02*
X8660546Y-1669438D01*
X8660546Y-1669438D02*
X8660546Y-1669413D01*
X13368050Y-9784400D02*
X14797458Y-10610508D01*
X10460464Y-1669235D02*
X10460464Y-1544267D01*
X8660546Y-1544419D02*
X8660368Y-1669235D01*
X7413250Y-7819431D02*
X4098250Y-7819431D01*
X3010550Y-2194430D02*
X2988872Y-2199355D01*
X2988872Y-2199355D02*
X2971963Y-2212615D01*
X2971963Y-2212615D02*
X2962114Y-2231922D01*
X2962114Y-2231922D02*
X2960537Y-2244417D01*
X12360535Y-1769413D02*
X12355602Y-1747743D01*
X12355602Y-1747743D02*
X12342341Y-1730844D01*
X12342341Y-1730844D02*
X12323039Y-1721001D01*
X12323039Y-1721001D02*
X12310548Y-1719425D01*
X14990270Y-10572561D02*
X16312872Y-8279324D01*
X8545891Y-7834063D02*
X9600193Y-9279779D01*
X14797458Y-10610508D02*
X14815864Y-10620987D01*
X14815864Y-10620987D02*
X14835139Y-10628387D01*
X14835139Y-10628387D02*
X14854956Y-10632772D01*
X14854956Y-10632772D02*
X14874990Y-10634205D01*
X14874990Y-10634205D02*
X14901473Y-10631634D01*
X14901473Y-10631634D02*
X14926986Y-10624079D01*
X14926986Y-10624079D02*
X14945018Y-10615234D01*
X14945018Y-10615234D02*
X14961742Y-10603733D01*
X14961742Y-10603733D02*
X14976832Y-10589642D01*
X14976832Y-10589642D02*
X14989960Y-10573023D01*
X14260529Y-2144418D02*
X14265454Y-2166096D01*
X14265454Y-2166096D02*
X14278715Y-2183005D01*
X14278715Y-2183005D02*
X14298021Y-2192853D01*
X14298021Y-2192853D02*
X14310517Y-2194430D01*
X14310517Y-2194430D02*
X14310541Y-2194430D01*
X10460541Y-1669413D02*
X10465466Y-1691091D01*
X10465466Y-1691091D02*
X10478726Y-1707999D01*
X10478726Y-1707999D02*
X10498033Y-1717848D01*
X10498033Y-1717848D02*
X10510528Y-1719425D01*
X10510553Y-1719425D02*
X11713550Y-1719425D01*
X3010550Y-7819407D02*
X4098250Y-7819431D01*
X8660546Y-1544419D02*
X8660546Y-1544419D01*
X14989960Y-10573023D02*
X14990270Y-10572561D01*
X10510528Y-1719425D02*
X10510553Y-1719425D01*
X6810538Y-1719425D02*
X7423250Y-1719425D01*
X9635549Y-9294409D02*
X13302594Y-9771446D01*
X10460541Y-1544419D02*
X10455616Y-1522741D01*
X10455616Y-1522741D02*
X10442355Y-1505832D01*
X10442355Y-1505832D02*
X10423049Y-1495984D01*
X10423049Y-1495984D02*
X10410553Y-1494407D01*
X8510534Y-7819407D02*
X7413250Y-7819431D01*
X12360535Y-1919425D02*
X12365471Y-1941100D01*
X12365471Y-1941100D02*
X12378740Y-1958002D01*
X12378740Y-1958002D02*
X12398051Y-1967841D01*
X12398051Y-1967841D02*
X12410547Y-1969412D01*
D11*
X15344950Y-6886600D02*
X15464950Y-7006600D01*
X15464950Y-6886600D02*
X15344950Y-7006600D01*
X16044950Y-6886600D02*
X16164950Y-7006600D01*
X16164950Y-6886600D02*
X16044950Y-7006600D01*
X3439250Y-3095400D02*
G75*
G03*
X3439250Y-3095400I-95000J0D01*
G01*
X3439250Y-4995400D02*
G75*
G03*
X3439250Y-4995400I-95000J0D01*
G01*
X3439250Y-6895400D02*
G75*
G03*
X3439250Y-6895400I-95000J0D01*
G01*
X4455250Y-3095400D02*
G75*
G03*
X4455250Y-3095400I-95000J0D01*
G01*
X4455250Y-4995400D02*
G75*
G03*
X4455250Y-4995400I-95000J0D01*
G01*
X4455250Y-6895400D02*
G75*
G03*
X4455250Y-6895400I-95000J0D01*
G01*
X5339250Y-3095400D02*
G75*
G03*
X5339250Y-3095400I-95000J0D01*
G01*
X5339250Y-4995400D02*
G75*
G03*
X5339250Y-4995400I-95000J0D01*
G01*
X5339250Y-6895400D02*
G75*
G03*
X5339250Y-6895400I-95000J0D01*
G01*
X6355250Y-3095400D02*
G75*
G03*
X6355250Y-3095400I-95000J0D01*
G01*
X6355250Y-4995400D02*
G75*
G03*
X6355250Y-4995400I-95000J0D01*
G01*
X6355250Y-6895400D02*
G75*
G03*
X6355250Y-6895400I-95000J0D01*
G01*
X7239250Y-2620400D02*
G75*
G03*
X7239250Y-2620400I-95000J0D01*
G01*
X7239250Y-4520400D02*
G75*
G03*
X7239250Y-4520400I-95000J0D01*
G01*
X7239250Y-6420400D02*
G75*
G03*
X7239250Y-6420400I-95000J0D01*
G01*
X8255250Y-2620400D02*
G75*
G03*
X8255250Y-2620400I-95000J0D01*
G01*
X8255250Y-4520400D02*
G75*
G03*
X8255250Y-4520400I-95000J0D01*
G01*
X8255250Y-6420400D02*
G75*
G03*
X8255250Y-6420400I-95000J0D01*
G01*
X9139250Y-2382900D02*
G75*
G03*
X9139250Y-2382900I-95000J0D01*
G01*
X9139250Y-4282900D02*
G75*
G03*
X9139250Y-4282900I-95000J0D01*
G01*
X9139250Y-6182900D02*
G75*
G03*
X9139250Y-6182900I-95000J0D01*
G01*
X10089250Y-8382900D02*
G75*
G03*
X10089250Y-8382900I-95000J0D01*
G01*
X10155250Y-2382900D02*
G75*
G03*
X10155250Y-2382900I-95000J0D01*
G01*
X10155250Y-4282900D02*
G75*
G03*
X10155250Y-4282900I-95000J0D01*
G01*
X10155250Y-6182900D02*
G75*
G03*
X10155250Y-6182900I-95000J0D01*
G01*
X11039250Y-2620400D02*
G75*
G03*
X11039250Y-2620400I-95000J0D01*
G01*
X11039250Y-4520400D02*
G75*
G03*
X11039250Y-4520400I-95000J0D01*
G01*
X11039250Y-6420400D02*
G75*
G03*
X11039250Y-6420400I-95000J0D01*
G01*
X11105250Y-8382900D02*
G75*
G03*
X11105250Y-8382900I-95000J0D01*
G01*
X12055250Y-2620400D02*
G75*
G03*
X12055250Y-2620400I-95000J0D01*
G01*
X12055250Y-4520400D02*
G75*
G03*
X12055250Y-4520400I-95000J0D01*
G01*
X12055250Y-6420400D02*
G75*
G03*
X12055250Y-6420400I-95000J0D01*
G01*
X12206560Y-8526420D02*
G75*
G03*
X12206560Y-8526420I-95000J0D01*
G01*
X12939250Y-2857900D02*
G75*
G03*
X12939250Y-2857900I-95000J0D01*
G01*
X12939250Y-4757900D02*
G75*
G03*
X12939250Y-4757900I-95000J0D01*
G01*
X12939250Y-6657900D02*
G75*
G03*
X12939250Y-6657900I-95000J0D01*
G01*
X13187940Y-8789380D02*
G75*
G03*
X13187940Y-8789380I-95000J0D01*
G01*
X13955250Y-2857900D02*
G75*
G03*
X13955250Y-2857900I-95000J0D01*
G01*
X13955250Y-4757900D02*
G75*
G03*
X13955250Y-4757900I-95000J0D01*
G01*
X13955250Y-6657900D02*
G75*
G03*
X13955250Y-6657900I-95000J0D01*
G01*
X14668250Y-9472841D02*
G75*
G03*
X14668250Y-9472841I-95000J0D01*
G01*
X15176250Y-8592959D02*
G75*
G03*
X15176250Y-8592959I-95000J0D01*
G01*
X14628450Y-6832800D02*
X14628450Y-7052800D01*
X14518450Y-6942800D02*
X14738450Y-6942800D01*
X16071650Y-7684900D02*
X16071650Y-7904900D01*
X15961650Y-7794900D02*
X16181650Y-7794900D01*
X3577317Y-2947467D02*
X3577317Y-2735333D01*
X3365183Y-2735333D01*
X3365183Y-2947467D01*
X3577317Y-2947467D01*
X3577317Y-4847467D02*
X3577317Y-4635333D01*
X3365183Y-4635333D01*
X3365183Y-4847467D01*
X3577317Y-4847467D01*
X3577317Y-6747467D02*
X3577317Y-6535333D01*
X3365183Y-6535333D01*
X3365183Y-6747467D01*
X3577317Y-6747467D01*
X4212317Y-2693467D02*
X4212317Y-2481333D01*
X4000183Y-2481333D01*
X4000183Y-2693467D01*
X4212317Y-2693467D01*
X4212317Y-4593467D02*
X4212317Y-4381333D01*
X4000183Y-4381333D01*
X4000183Y-4593467D01*
X4212317Y-4593467D01*
X4212317Y-6493467D02*
X4212317Y-6281333D01*
X4000183Y-6281333D01*
X4000183Y-6493467D01*
X4212317Y-6493467D01*
X5477317Y-2947467D02*
X5477317Y-2735333D01*
X5265183Y-2735333D01*
X5265183Y-2947467D01*
X5477317Y-2947467D01*
X5477317Y-4847467D02*
X5477317Y-4635333D01*
X5265183Y-4635333D01*
X5265183Y-4847467D01*
X5477317Y-4847467D01*
X5477317Y-6747467D02*
X5477317Y-6535333D01*
X5265183Y-6535333D01*
X5265183Y-6747467D01*
X5477317Y-6747467D01*
X6112317Y-2693467D02*
X6112317Y-2481333D01*
X5900183Y-2481333D01*
X5900183Y-2693467D01*
X6112317Y-2693467D01*
X6112317Y-4593467D02*
X6112317Y-4381333D01*
X5900183Y-4381333D01*
X5900183Y-4593467D01*
X6112317Y-4593467D01*
X6112317Y-6493467D02*
X6112317Y-6281333D01*
X5900183Y-6281333D01*
X5900183Y-6493467D01*
X6112317Y-6493467D01*
X7377317Y-2472467D02*
X7377317Y-2260333D01*
X7165183Y-2260333D01*
X7165183Y-2472467D01*
X7377317Y-2472467D01*
X7377317Y-4372467D02*
X7377317Y-4160333D01*
X7165183Y-4160333D01*
X7165183Y-4372467D01*
X7377317Y-4372467D01*
X7377317Y-6272467D02*
X7377317Y-6060333D01*
X7165183Y-6060333D01*
X7165183Y-6272467D01*
X7377317Y-6272467D01*
X8012317Y-2218467D02*
X8012317Y-2006333D01*
X7800183Y-2006333D01*
X7800183Y-2218467D01*
X8012317Y-2218467D01*
X8012317Y-4118467D02*
X8012317Y-3906333D01*
X7800183Y-3906333D01*
X7800183Y-4118467D01*
X8012317Y-4118467D01*
X8012317Y-6018467D02*
X8012317Y-5806333D01*
X7800183Y-5806333D01*
X7800183Y-6018467D01*
X8012317Y-6018467D01*
X9277317Y-2234967D02*
X9277317Y-2022833D01*
X9065183Y-2022833D01*
X9065183Y-2234967D01*
X9277317Y-2234967D01*
X9277317Y-4134967D02*
X9277317Y-3922833D01*
X9065183Y-3922833D01*
X9065183Y-4134967D01*
X9277317Y-4134967D01*
X9277317Y-6034967D02*
X9277317Y-5822833D01*
X9065183Y-5822833D01*
X9065183Y-6034967D01*
X9277317Y-6034967D01*
X9912317Y-1980967D02*
X9912317Y-1768833D01*
X9700183Y-1768833D01*
X9700183Y-1980967D01*
X9912317Y-1980967D01*
X9912317Y-3880967D02*
X9912317Y-3668833D01*
X9700183Y-3668833D01*
X9700183Y-3880967D01*
X9912317Y-3880967D01*
X9912317Y-5780967D02*
X9912317Y-5568833D01*
X9700183Y-5568833D01*
X9700183Y-5780967D01*
X9912317Y-5780967D01*
X10227317Y-8234967D02*
X10227317Y-8022833D01*
X10015183Y-8022833D01*
X10015183Y-8234967D01*
X10227317Y-8234967D01*
X10862317Y-7980967D02*
X10862317Y-7768833D01*
X10650183Y-7768833D01*
X10650183Y-7980967D01*
X10862317Y-7980967D01*
X11177317Y-2472467D02*
X11177317Y-2260333D01*
X10965183Y-2260333D01*
X10965183Y-2472467D01*
X11177317Y-2472467D01*
X11177317Y-4372467D02*
X11177317Y-4160333D01*
X10965183Y-4160333D01*
X10965183Y-4372467D01*
X11177317Y-4372467D01*
X11177317Y-6272467D02*
X11177317Y-6060333D01*
X10965183Y-6060333D01*
X10965183Y-6272467D01*
X11177317Y-6272467D01*
X11812317Y-2218467D02*
X11812317Y-2006333D01*
X11600183Y-2006333D01*
X11600183Y-2218467D01*
X11812317Y-2218467D01*
X11812317Y-4118467D02*
X11812317Y-3906333D01*
X11600183Y-3906333D01*
X11600183Y-4118467D01*
X11812317Y-4118467D01*
X11812317Y-6018467D02*
X11812317Y-5806333D01*
X11600183Y-5806333D01*
X11600183Y-6018467D01*
X11812317Y-6018467D01*
X12406039Y-8420012D02*
X12406039Y-8207878D01*
X12193905Y-8207878D01*
X12193905Y-8420012D01*
X12406039Y-8420012D01*
X13077317Y-2709967D02*
X13077317Y-2497833D01*
X12865183Y-2497833D01*
X12865183Y-2709967D01*
X13077317Y-2709967D01*
X13077317Y-4609967D02*
X13077317Y-4397833D01*
X12865183Y-4397833D01*
X12865183Y-4609967D01*
X13077317Y-4609967D01*
X13077317Y-6509967D02*
X13077317Y-6297833D01*
X12865183Y-6297833D01*
X12865183Y-6509967D01*
X13077317Y-6509967D01*
X13085142Y-8339017D02*
X13085142Y-8126883D01*
X12873008Y-8126883D01*
X12873008Y-8339017D01*
X13085142Y-8339017D01*
X13712317Y-2455967D02*
X13712317Y-2243833D01*
X13500183Y-2243833D01*
X13500183Y-2455967D01*
X13712317Y-2455967D01*
X13712317Y-4355967D02*
X13712317Y-4143833D01*
X13500183Y-4143833D01*
X13500183Y-4355967D01*
X13712317Y-4355967D01*
X13712317Y-6255967D02*
X13712317Y-6043833D01*
X13500183Y-6043833D01*
X13500183Y-6255967D01*
X13712317Y-6255967D01*
X14522846Y-9341923D02*
X14522846Y-9129789D01*
X14310712Y-9129789D01*
X14310712Y-9341923D01*
X14522846Y-9341923D01*
X14620376Y-8664997D02*
X14620376Y-8452863D01*
X14408242Y-8452863D01*
X14408242Y-8664997D01*
X14620376Y-8664997D01*
X3852250Y-3300400D02*
X4057250Y-3095400D01*
X3852250Y-2890400D01*
X3647250Y-3095400D01*
X3852250Y-3300400D01*
X3852250Y-5200400D02*
X4057250Y-4995400D01*
X3852250Y-4790400D01*
X3647250Y-4995400D01*
X3852250Y-5200400D01*
X3852250Y-7100400D02*
X4057250Y-6895400D01*
X3852250Y-6690400D01*
X3647250Y-6895400D01*
X3852250Y-7100400D01*
X5752250Y-3300400D02*
X5957250Y-3095400D01*
X5752250Y-2890400D01*
X5547250Y-3095400D01*
X5752250Y-3300400D01*
X5752250Y-5200400D02*
X5957250Y-4995400D01*
X5752250Y-4790400D01*
X5547250Y-4995400D01*
X5752250Y-5200400D01*
X5752250Y-7100400D02*
X5957250Y-6895400D01*
X5752250Y-6690400D01*
X5547250Y-6895400D01*
X5752250Y-7100400D01*
X7652250Y-2825400D02*
X7857250Y-2620400D01*
X7652250Y-2415400D01*
X7447250Y-2620400D01*
X7652250Y-2825400D01*
X7652250Y-4725400D02*
X7857250Y-4520400D01*
X7652250Y-4315400D01*
X7447250Y-4520400D01*
X7652250Y-4725400D01*
X7652250Y-6625400D02*
X7857250Y-6420400D01*
X7652250Y-6215400D01*
X7447250Y-6420400D01*
X7652250Y-6625400D01*
X9552250Y-2587900D02*
X9757250Y-2382900D01*
X9552250Y-2177900D01*
X9347250Y-2382900D01*
X9552250Y-2587900D01*
X9552250Y-4487900D02*
X9757250Y-4282900D01*
X9552250Y-4077900D01*
X9347250Y-4282900D01*
X9552250Y-4487900D01*
X9552250Y-6387900D02*
X9757250Y-6182900D01*
X9552250Y-5977900D01*
X9347250Y-6182900D01*
X9552250Y-6387900D01*
X10502250Y-8587900D02*
X10707250Y-8382900D01*
X10502250Y-8177900D01*
X10297250Y-8382900D01*
X10502250Y-8587900D01*
X11452250Y-2825400D02*
X11657250Y-2620400D01*
X11452250Y-2415400D01*
X11247250Y-2620400D01*
X11452250Y-2825400D01*
X11452250Y-4725400D02*
X11657250Y-4520400D01*
X11452250Y-4315400D01*
X11247250Y-4520400D01*
X11452250Y-4725400D01*
X11452250Y-6625400D02*
X11657250Y-6420400D01*
X11452250Y-6215400D01*
X11247250Y-6420400D01*
X11452250Y-6625400D01*
X12602250Y-8862900D02*
X12807250Y-8657900D01*
X12602250Y-8452900D01*
X12397250Y-8657900D01*
X12602250Y-8862900D01*
X13352250Y-3062900D02*
X13557250Y-2857900D01*
X13352250Y-2652900D01*
X13147250Y-2857900D01*
X13352250Y-3062900D01*
X13352250Y-4962900D02*
X13557250Y-4757900D01*
X13352250Y-4552900D01*
X13147250Y-4757900D01*
X13352250Y-4962900D01*
X13352250Y-6862900D02*
X13557250Y-6657900D01*
X13352250Y-6452900D01*
X13147250Y-6657900D01*
X13352250Y-6862900D01*
X14827250Y-9237900D02*
X15032250Y-9032900D01*
X14827250Y-8827900D01*
X14622250Y-9032900D01*
X14827250Y-9237900D01*
X4587250Y-3830400D02*
X5017250Y-4260400D01*
X5017250Y-3830400D02*
X4587250Y-4260400D01*
X5017250Y-4045400D02*
G75*
G03*
X5017250Y-4045400I-215000J0D01*
G01*
X4587250Y-5730400D02*
X5017250Y-6160400D01*
X5017250Y-5730400D02*
X4587250Y-6160400D01*
X5017250Y-5945400D02*
G75*
G03*
X5017250Y-5945400I-215000J0D01*
G01*
X8902950Y-7454450D02*
X9332950Y-7884450D01*
X9332950Y-7454450D02*
X8902950Y-7884450D01*
X9332950Y-7669450D02*
G75*
G03*
X9332950Y-7669450I-215000J0D01*
G01*
X12184050Y-3478950D02*
X12614050Y-3908950D01*
X12614050Y-3478950D02*
X12184050Y-3908950D01*
X12614050Y-3693950D02*
G75*
G03*
X12614050Y-3693950I-215000J0D01*
G01*
X13559550Y-8215900D02*
X13989550Y-8645900D01*
X13989550Y-8215900D02*
X13559550Y-8645900D01*
X13989550Y-8430900D02*
G75*
G03*
X13989550Y-8430900I-215000J0D01*
G01*
D12*
X3236966Y-11129030D02*
X3236966Y-10829030D01*
X3308394Y-10829030D01*
X3351251Y-10843315D01*
X3379823Y-10871887D01*
X3394108Y-10900458D01*
X3408394Y-10957601D01*
X3408394Y-11000458D01*
X3394108Y-11057601D01*
X3379823Y-11086173D01*
X3351251Y-11114744D01*
X3308394Y-11129030D01*
X3236966Y-11129030D01*
X3536966Y-11129030D02*
X3536966Y-10929030D01*
X3536966Y-10986173D02*
X3551251Y-10957601D01*
X3565537Y-10943315D01*
X3594108Y-10929030D01*
X3622680Y-10929030D01*
X3722680Y-11129030D02*
X3722680Y-10929030D01*
X3722680Y-10829030D02*
X3708394Y-10843315D01*
X3722680Y-10857601D01*
X3736966Y-10843315D01*
X3722680Y-10829030D01*
X3722680Y-10857601D01*
X3908394Y-11129030D02*
X3879823Y-11114744D01*
X3865537Y-11086173D01*
X3865537Y-10829030D01*
X4065537Y-11129030D02*
X4036966Y-11114744D01*
X4022680Y-11086173D01*
X4022680Y-10829030D01*
X4408394Y-11129030D02*
X4408394Y-10829030D01*
X4508394Y-11043315D01*
X4608394Y-10829030D01*
X4608394Y-11129030D01*
X4879823Y-11129030D02*
X4879823Y-10971887D01*
X4865537Y-10943315D01*
X4836966Y-10929030D01*
X4779823Y-10929030D01*
X4751251Y-10943315D01*
X4879823Y-11114744D02*
X4851251Y-11129030D01*
X4779823Y-11129030D01*
X4751251Y-11114744D01*
X4736966Y-11086173D01*
X4736966Y-11057601D01*
X4751251Y-11029030D01*
X4779823Y-11014744D01*
X4851251Y-11014744D01*
X4879823Y-11000458D01*
X5022680Y-10929030D02*
X5022680Y-11229030D01*
X5022680Y-10943315D02*
X5051251Y-10929030D01*
X5108394Y-10929030D01*
X5136966Y-10943315D01*
X5151251Y-10957601D01*
X5165537Y-10986173D01*
X5165537Y-11071887D01*
X5151251Y-11100458D01*
X5136966Y-11114744D01*
X5108394Y-11129030D01*
X5051251Y-11129030D01*
X5022680Y-11114744D01*
X5294109Y-11100458D02*
X5308394Y-11114744D01*
X5294109Y-11129030D01*
X5279823Y-11114744D01*
X5294109Y-11100458D01*
X5294109Y-11129030D01*
X5294109Y-10943315D02*
X5308394Y-10957601D01*
X5294109Y-10971887D01*
X5279823Y-10957601D01*
X5294109Y-10943315D01*
X5294109Y-10971887D01*
X2830537Y-11563315D02*
X2950537Y-11683315D01*
X2950537Y-11563315D02*
X2830537Y-11683315D01*
X3394108Y-11759030D02*
X3222680Y-11759030D01*
X3308394Y-11759030D02*
X3308394Y-11459030D01*
X3279823Y-11501887D01*
X3251251Y-11530458D01*
X3222680Y-11544744D01*
X3522680Y-11730458D02*
X3536966Y-11744744D01*
X3522680Y-11759030D01*
X3508394Y-11744744D01*
X3522680Y-11730458D01*
X3522680Y-11759030D01*
X3651251Y-11487601D02*
X3665537Y-11473315D01*
X3694108Y-11459030D01*
X3765537Y-11459030D01*
X3794108Y-11473315D01*
X3808394Y-11487601D01*
X3822680Y-11516172D01*
X3822680Y-11544744D01*
X3808394Y-11587601D01*
X3636966Y-11759030D01*
X3822680Y-11759030D01*
X4008394Y-11459030D02*
X4036966Y-11459030D01*
X4065537Y-11473315D01*
X4079823Y-11487601D01*
X4094108Y-11516172D01*
X4108394Y-11573315D01*
X4108394Y-11644744D01*
X4094108Y-11701887D01*
X4079823Y-11730458D01*
X4065537Y-11744744D01*
X4036966Y-11759030D01*
X4008394Y-11759030D01*
X3979823Y-11744744D01*
X3965537Y-11730458D01*
X3951251Y-11701887D01*
X3936966Y-11644744D01*
X3936966Y-11573315D01*
X3951251Y-11516172D01*
X3965537Y-11487601D01*
X3979823Y-11473315D01*
X4008394Y-11459030D01*
X4294109Y-11459030D02*
X4322680Y-11459030D01*
X4351251Y-11473315D01*
X4365537Y-11487601D01*
X4379823Y-11516172D01*
X4394109Y-11573315D01*
X4394109Y-11644744D01*
X4379823Y-11701887D01*
X4365537Y-11730458D01*
X4351251Y-11744744D01*
X4322680Y-11759030D01*
X4294109Y-11759030D01*
X4265537Y-11744744D01*
X4251251Y-11730458D01*
X4236966Y-11701887D01*
X4222680Y-11644744D01*
X4222680Y-11573315D01*
X4236966Y-11516172D01*
X4251251Y-11487601D01*
X4265537Y-11473315D01*
X4294109Y-11459030D01*
X4522680Y-11759030D02*
X4522680Y-11559030D01*
X4522680Y-11587601D02*
X4536966Y-11573315D01*
X4565537Y-11559030D01*
X4608394Y-11559030D01*
X4636966Y-11573315D01*
X4651251Y-11601887D01*
X4651251Y-11759030D01*
X4651251Y-11601887D02*
X4665537Y-11573315D01*
X4694109Y-11559030D01*
X4736966Y-11559030D01*
X4765537Y-11573315D01*
X4779823Y-11601887D01*
X4779823Y-11759030D01*
X4922680Y-11759030D02*
X4922680Y-11559030D01*
X4922680Y-11587601D02*
X4936966Y-11573315D01*
X4965537Y-11559030D01*
X5008394Y-11559030D01*
X5036966Y-11573315D01*
X5051251Y-11601887D01*
X5051251Y-11759030D01*
X5051251Y-11601887D02*
X5065537Y-11573315D01*
X5094109Y-11559030D01*
X5136966Y-11559030D01*
X5165537Y-11573315D01*
X5179823Y-11601887D01*
X5179823Y-11759030D01*
X5765537Y-11444744D02*
X5508394Y-11830458D01*
X6151251Y-11459030D02*
X6179823Y-11459030D01*
X6208394Y-11473315D01*
X6222680Y-11487601D01*
X6236966Y-11516172D01*
X6251251Y-11573315D01*
X6251251Y-11644744D01*
X6236966Y-11701887D01*
X6222680Y-11730458D01*
X6208394Y-11744744D01*
X6179823Y-11759030D01*
X6151251Y-11759030D01*
X6122680Y-11744744D01*
X6108394Y-11730458D01*
X6094108Y-11701887D01*
X6079823Y-11644744D01*
X6079823Y-11573315D01*
X6094108Y-11516172D01*
X6108394Y-11487601D01*
X6122680Y-11473315D01*
X6151251Y-11459030D01*
X6379823Y-11730458D02*
X6394108Y-11744744D01*
X6379823Y-11759030D01*
X6365537Y-11744744D01*
X6379823Y-11730458D01*
X6379823Y-11759030D01*
X6579823Y-11459030D02*
X6608394Y-11459030D01*
X6636966Y-11473315D01*
X6651251Y-11487601D01*
X6665537Y-11516172D01*
X6679823Y-11573315D01*
X6679823Y-11644744D01*
X6665537Y-11701887D01*
X6651251Y-11730458D01*
X6636966Y-11744744D01*
X6608394Y-11759030D01*
X6579823Y-11759030D01*
X6551251Y-11744744D01*
X6536966Y-11730458D01*
X6522680Y-11701887D01*
X6508394Y-11644744D01*
X6508394Y-11573315D01*
X6522680Y-11516172D01*
X6536966Y-11487601D01*
X6551251Y-11473315D01*
X6579823Y-11459030D01*
X6936966Y-11559030D02*
X6936966Y-11759030D01*
X6865537Y-11444744D02*
X6794108Y-11659030D01*
X6979823Y-11659030D01*
X7065537Y-11459030D02*
X7265537Y-11459030D01*
X7136966Y-11759030D01*
X7365537Y-11487601D02*
X7379823Y-11473315D01*
X7408394Y-11459030D01*
X7479823Y-11459030D01*
X7508394Y-11473315D01*
X7522680Y-11487601D01*
X7536966Y-11516172D01*
X7536966Y-11544744D01*
X7522680Y-11587601D01*
X7351251Y-11759030D01*
X7536966Y-11759030D01*
X7651251Y-11459030D02*
X7651251Y-11516172D01*
X7765537Y-11459030D02*
X7765537Y-11516172D01*
X8208394Y-11873315D02*
X8194108Y-11859030D01*
X8165537Y-11816172D01*
X8151251Y-11787601D01*
X8136966Y-11744744D01*
X8122680Y-11673315D01*
X8122680Y-11616172D01*
X8136966Y-11544744D01*
X8151251Y-11501887D01*
X8165537Y-11473315D01*
X8194108Y-11430458D01*
X8208394Y-11416172D01*
X8308394Y-11487601D02*
X8322680Y-11473315D01*
X8351251Y-11459030D01*
X8422680Y-11459030D01*
X8451251Y-11473315D01*
X8465537Y-11487601D01*
X8479823Y-11516172D01*
X8479823Y-11544744D01*
X8465537Y-11587601D01*
X8294108Y-11759030D01*
X8479823Y-11759030D01*
X8836966Y-11759030D02*
X8836966Y-11459030D01*
X8965537Y-11759030D02*
X8965537Y-11601887D01*
X8951251Y-11573315D01*
X8922680Y-11559030D01*
X8879823Y-11559030D01*
X8851251Y-11573315D01*
X8836966Y-11587601D01*
X9151251Y-11759030D02*
X9122680Y-11744744D01*
X9108394Y-11730458D01*
X9094109Y-11701887D01*
X9094109Y-11616172D01*
X9108394Y-11587601D01*
X9122680Y-11573315D01*
X9151251Y-11559030D01*
X9194109Y-11559030D01*
X9222680Y-11573315D01*
X9236966Y-11587601D01*
X9251251Y-11616172D01*
X9251251Y-11701887D01*
X9236966Y-11730458D01*
X9222680Y-11744744D01*
X9194109Y-11759030D01*
X9151251Y-11759030D01*
X9422680Y-11759030D02*
X9394109Y-11744744D01*
X9379823Y-11716172D01*
X9379823Y-11459030D01*
X9651251Y-11744744D02*
X9622680Y-11759030D01*
X9565537Y-11759030D01*
X9536966Y-11744744D01*
X9522680Y-11716172D01*
X9522680Y-11601887D01*
X9536966Y-11573315D01*
X9565537Y-11559030D01*
X9622680Y-11559030D01*
X9651251Y-11573315D01*
X9665537Y-11601887D01*
X9665537Y-11630458D01*
X9522680Y-11659030D01*
X9779823Y-11744744D02*
X9808394Y-11759030D01*
X9865537Y-11759030D01*
X9894109Y-11744744D01*
X9908394Y-11716172D01*
X9908394Y-11701887D01*
X9894109Y-11673315D01*
X9865537Y-11659030D01*
X9822680Y-11659030D01*
X9794109Y-11644744D01*
X9779823Y-11616172D01*
X9779823Y-11601887D01*
X9794109Y-11573315D01*
X9822680Y-11559030D01*
X9865537Y-11559030D01*
X9894109Y-11573315D01*
X10008394Y-11873315D02*
X10022680Y-11859030D01*
X10051251Y-11816172D01*
X10065537Y-11787601D01*
X10079823Y-11744744D01*
X10094109Y-11673315D01*
X10094109Y-11616172D01*
X10079823Y-11544744D01*
X10065537Y-11501887D01*
X10051251Y-11473315D01*
X10022680Y-11430458D01*
X10008394Y-11416172D01*
X10551251Y-11873315D02*
X10536966Y-11859030D01*
X10508394Y-11816172D01*
X10494109Y-11787601D01*
X10479823Y-11744744D01*
X10465537Y-11673315D01*
X10465537Y-11616172D01*
X10479823Y-11544744D01*
X10494109Y-11501887D01*
X10508394Y-11473315D01*
X10536966Y-11430458D01*
X10551251Y-11416172D01*
X10665537Y-11559030D02*
X10665537Y-11759030D01*
X10665537Y-11587601D02*
X10679823Y-11573315D01*
X10708394Y-11559030D01*
X10751251Y-11559030D01*
X10779823Y-11573315D01*
X10794109Y-11601887D01*
X10794109Y-11759030D01*
X10979823Y-11759030D02*
X10951251Y-11744744D01*
X10936966Y-11730458D01*
X10922680Y-11701887D01*
X10922680Y-11616172D01*
X10936966Y-11587601D01*
X10951251Y-11573315D01*
X10979823Y-11559030D01*
X11022680Y-11559030D01*
X11051251Y-11573315D01*
X11065537Y-11587601D01*
X11079823Y-11616172D01*
X11079823Y-11701887D01*
X11065537Y-11730458D01*
X11051251Y-11744744D01*
X11022680Y-11759030D01*
X10979823Y-11759030D01*
X11165537Y-11559030D02*
X11279823Y-11559030D01*
X11208394Y-11459030D02*
X11208394Y-11716172D01*
X11222680Y-11744744D01*
X11251251Y-11759030D01*
X11279823Y-11759030D01*
X11608394Y-11559030D02*
X11608394Y-11859030D01*
X11608394Y-11573315D02*
X11636966Y-11559030D01*
X11694108Y-11559030D01*
X11722680Y-11573315D01*
X11736966Y-11587601D01*
X11751251Y-11616172D01*
X11751251Y-11701887D01*
X11736966Y-11730458D01*
X11722680Y-11744744D01*
X11694108Y-11759030D01*
X11636966Y-11759030D01*
X11608394Y-11744744D01*
X11922680Y-11759030D02*
X11894108Y-11744744D01*
X11879823Y-11716172D01*
X11879823Y-11459030D01*
X12165537Y-11759030D02*
X12165537Y-11601887D01*
X12151251Y-11573315D01*
X12122680Y-11559030D01*
X12065537Y-11559030D01*
X12036966Y-11573315D01*
X12165537Y-11744744D02*
X12136966Y-11759030D01*
X12065537Y-11759030D01*
X12036966Y-11744744D01*
X12022680Y-11716172D01*
X12022680Y-11687601D01*
X12036966Y-11659030D01*
X12065537Y-11644744D01*
X12136966Y-11644744D01*
X12165537Y-11630458D01*
X12265537Y-11559030D02*
X12379823Y-11559030D01*
X12308394Y-11459030D02*
X12308394Y-11716172D01*
X12322680Y-11744744D01*
X12351251Y-11759030D01*
X12379823Y-11759030D01*
X12594108Y-11744744D02*
X12565537Y-11759030D01*
X12508394Y-11759030D01*
X12479823Y-11744744D01*
X12465537Y-11716172D01*
X12465537Y-11601887D01*
X12479823Y-11573315D01*
X12508394Y-11559030D01*
X12565537Y-11559030D01*
X12594108Y-11573315D01*
X12608394Y-11601887D01*
X12608394Y-11630458D01*
X12465537Y-11659030D01*
X12865537Y-11759030D02*
X12865537Y-11459030D01*
X12865537Y-11744744D02*
X12836966Y-11759030D01*
X12779823Y-11759030D01*
X12751251Y-11744744D01*
X12736966Y-11730458D01*
X12722680Y-11701887D01*
X12722680Y-11616172D01*
X12736966Y-11587601D01*
X12751251Y-11573315D01*
X12779823Y-11559030D01*
X12836966Y-11559030D01*
X12865537Y-11573315D01*
X12979823Y-11873315D02*
X12994108Y-11859030D01*
X13022680Y-11816172D01*
X13036966Y-11787601D01*
X13051251Y-11744744D01*
X13065537Y-11673315D01*
X13065537Y-11616172D01*
X13051251Y-11544744D01*
X13036966Y-11501887D01*
X13022680Y-11473315D01*
X12994108Y-11430458D01*
X12979823Y-11416172D01*
X2950537Y-12019315D02*
G75*
G03*
X2950537Y-12019315I-95000J0D01*
G01*
X3394108Y-12155030D02*
X3222680Y-12155030D01*
X3308394Y-12155030D02*
X3308394Y-11855030D01*
X3279823Y-11897887D01*
X3251251Y-11926458D01*
X3222680Y-11940744D01*
X3522680Y-12126458D02*
X3536966Y-12140744D01*
X3522680Y-12155030D01*
X3508394Y-12140744D01*
X3522680Y-12126458D01*
X3522680Y-12155030D01*
X3679823Y-12155030D02*
X3736966Y-12155030D01*
X3765537Y-12140744D01*
X3779823Y-12126458D01*
X3808394Y-12083601D01*
X3822680Y-12026458D01*
X3822680Y-11912172D01*
X3808394Y-11883601D01*
X3794108Y-11869315D01*
X3765537Y-11855030D01*
X3708394Y-11855030D01*
X3679823Y-11869315D01*
X3665537Y-11883601D01*
X3651251Y-11912172D01*
X3651251Y-11983601D01*
X3665537Y-12012172D01*
X3679823Y-12026458D01*
X3708394Y-12040744D01*
X3765537Y-12040744D01*
X3794108Y-12026458D01*
X3808394Y-12012172D01*
X3822680Y-11983601D01*
X4008394Y-11855030D02*
X4036966Y-11855030D01*
X4065537Y-11869315D01*
X4079823Y-11883601D01*
X4094108Y-11912172D01*
X4108394Y-11969315D01*
X4108394Y-12040744D01*
X4094108Y-12097887D01*
X4079823Y-12126458D01*
X4065537Y-12140744D01*
X4036966Y-12155030D01*
X4008394Y-12155030D01*
X3979823Y-12140744D01*
X3965537Y-12126458D01*
X3951251Y-12097887D01*
X3936966Y-12040744D01*
X3936966Y-11969315D01*
X3951251Y-11912172D01*
X3965537Y-11883601D01*
X3979823Y-11869315D01*
X4008394Y-11855030D01*
X4294109Y-11855030D02*
X4322680Y-11855030D01*
X4351251Y-11869315D01*
X4365537Y-11883601D01*
X4379823Y-11912172D01*
X4394109Y-11969315D01*
X4394109Y-12040744D01*
X4379823Y-12097887D01*
X4365537Y-12126458D01*
X4351251Y-12140744D01*
X4322680Y-12155030D01*
X4294109Y-12155030D01*
X4265537Y-12140744D01*
X4251251Y-12126458D01*
X4236966Y-12097887D01*
X4222680Y-12040744D01*
X4222680Y-11969315D01*
X4236966Y-11912172D01*
X4251251Y-11883601D01*
X4265537Y-11869315D01*
X4294109Y-11855030D01*
X4522680Y-12155030D02*
X4522680Y-11955030D01*
X4522680Y-11983601D02*
X4536966Y-11969315D01*
X4565537Y-11955030D01*
X4608394Y-11955030D01*
X4636966Y-11969315D01*
X4651251Y-11997887D01*
X4651251Y-12155030D01*
X4651251Y-11997887D02*
X4665537Y-11969315D01*
X4694109Y-11955030D01*
X4736966Y-11955030D01*
X4765537Y-11969315D01*
X4779823Y-11997887D01*
X4779823Y-12155030D01*
X4922680Y-12155030D02*
X4922680Y-11955030D01*
X4922680Y-11983601D02*
X4936966Y-11969315D01*
X4965537Y-11955030D01*
X5008394Y-11955030D01*
X5036966Y-11969315D01*
X5051251Y-11997887D01*
X5051251Y-12155030D01*
X5051251Y-11997887D02*
X5065537Y-11969315D01*
X5094109Y-11955030D01*
X5136966Y-11955030D01*
X5165537Y-11969315D01*
X5179823Y-11997887D01*
X5179823Y-12155030D01*
X5765537Y-11840744D02*
X5508394Y-12226458D01*
X6151251Y-11855030D02*
X6179823Y-11855030D01*
X6208394Y-11869315D01*
X6222680Y-11883601D01*
X6236966Y-11912172D01*
X6251251Y-11969315D01*
X6251251Y-12040744D01*
X6236966Y-12097887D01*
X6222680Y-12126458D01*
X6208394Y-12140744D01*
X6179823Y-12155030D01*
X6151251Y-12155030D01*
X6122680Y-12140744D01*
X6108394Y-12126458D01*
X6094108Y-12097887D01*
X6079823Y-12040744D01*
X6079823Y-11969315D01*
X6094108Y-11912172D01*
X6108394Y-11883601D01*
X6122680Y-11869315D01*
X6151251Y-11855030D01*
X6379823Y-12126458D02*
X6394108Y-12140744D01*
X6379823Y-12155030D01*
X6365537Y-12140744D01*
X6379823Y-12126458D01*
X6379823Y-12155030D01*
X6579823Y-11855030D02*
X6608394Y-11855030D01*
X6636966Y-11869315D01*
X6651251Y-11883601D01*
X6665537Y-11912172D01*
X6679823Y-11969315D01*
X6679823Y-12040744D01*
X6665537Y-12097887D01*
X6651251Y-12126458D01*
X6636966Y-12140744D01*
X6608394Y-12155030D01*
X6579823Y-12155030D01*
X6551251Y-12140744D01*
X6536966Y-12126458D01*
X6522680Y-12097887D01*
X6508394Y-12040744D01*
X6508394Y-11969315D01*
X6522680Y-11912172D01*
X6536966Y-11883601D01*
X6551251Y-11869315D01*
X6579823Y-11855030D01*
X6779823Y-11855030D02*
X6979823Y-11855030D01*
X6851251Y-12155030D01*
X7222680Y-11955030D02*
X7222680Y-12155030D01*
X7151251Y-11840744D02*
X7079823Y-12055030D01*
X7265537Y-12055030D01*
X7422680Y-11983601D02*
X7394108Y-11969315D01*
X7379823Y-11955030D01*
X7365537Y-11926458D01*
X7365537Y-11912172D01*
X7379823Y-11883601D01*
X7394108Y-11869315D01*
X7422680Y-11855030D01*
X7479823Y-11855030D01*
X7508394Y-11869315D01*
X7522680Y-11883601D01*
X7536966Y-11912172D01*
X7536966Y-11926458D01*
X7522680Y-11955030D01*
X7508394Y-11969315D01*
X7479823Y-11983601D01*
X7422680Y-11983601D01*
X7394108Y-11997887D01*
X7379823Y-12012172D01*
X7365537Y-12040744D01*
X7365537Y-12097887D01*
X7379823Y-12126458D01*
X7394108Y-12140744D01*
X7422680Y-12155030D01*
X7479823Y-12155030D01*
X7508394Y-12140744D01*
X7522680Y-12126458D01*
X7536966Y-12097887D01*
X7536966Y-12040744D01*
X7522680Y-12012172D01*
X7508394Y-11997887D01*
X7479823Y-11983601D01*
X7651251Y-11855030D02*
X7651251Y-11912172D01*
X7765537Y-11855030D02*
X7765537Y-11912172D01*
X8208394Y-12269315D02*
X8194108Y-12255030D01*
X8165537Y-12212172D01*
X8151251Y-12183601D01*
X8136966Y-12140744D01*
X8122680Y-12069315D01*
X8122680Y-12012172D01*
X8136966Y-11940744D01*
X8151251Y-11897887D01*
X8165537Y-11869315D01*
X8194108Y-11826458D01*
X8208394Y-11812172D01*
X8451251Y-11955030D02*
X8451251Y-12155030D01*
X8379823Y-11840744D02*
X8308394Y-12055030D01*
X8494109Y-12055030D01*
X8594109Y-11883601D02*
X8608394Y-11869315D01*
X8636966Y-11855030D01*
X8708394Y-11855030D01*
X8736966Y-11869315D01*
X8751251Y-11883601D01*
X8765537Y-11912172D01*
X8765537Y-11940744D01*
X8751251Y-11983601D01*
X8579823Y-12155030D01*
X8765537Y-12155030D01*
X9122680Y-12155030D02*
X9122680Y-11855030D01*
X9251251Y-12155030D02*
X9251251Y-11997887D01*
X9236966Y-11969315D01*
X9208394Y-11955030D01*
X9165537Y-11955030D01*
X9136966Y-11969315D01*
X9122680Y-11983601D01*
X9436966Y-12155030D02*
X9408394Y-12140744D01*
X9394109Y-12126458D01*
X9379823Y-12097887D01*
X9379823Y-12012172D01*
X9394109Y-11983601D01*
X9408394Y-11969315D01*
X9436966Y-11955030D01*
X9479823Y-11955030D01*
X9508394Y-11969315D01*
X9522680Y-11983601D01*
X9536966Y-12012172D01*
X9536966Y-12097887D01*
X9522680Y-12126458D01*
X9508394Y-12140744D01*
X9479823Y-12155030D01*
X9436966Y-12155030D01*
X9708394Y-12155030D02*
X9679823Y-12140744D01*
X9665537Y-12112172D01*
X9665537Y-11855030D01*
X9936966Y-12140744D02*
X9908394Y-12155030D01*
X9851251Y-12155030D01*
X9822680Y-12140744D01*
X9808394Y-12112172D01*
X9808394Y-11997887D01*
X9822680Y-11969315D01*
X9851251Y-11955030D01*
X9908394Y-11955030D01*
X9936966Y-11969315D01*
X9951251Y-11997887D01*
X9951251Y-12026458D01*
X9808394Y-12055030D01*
X10065537Y-12140744D02*
X10094109Y-12155030D01*
X10151251Y-12155030D01*
X10179823Y-12140744D01*
X10194109Y-12112172D01*
X10194109Y-12097887D01*
X10179823Y-12069315D01*
X10151251Y-12055030D01*
X10108394Y-12055030D01*
X10079823Y-12040744D01*
X10065537Y-12012172D01*
X10065537Y-11997887D01*
X10079823Y-11969315D01*
X10108394Y-11955030D01*
X10151251Y-11955030D01*
X10179823Y-11969315D01*
X10294109Y-12269315D02*
X10308394Y-12255030D01*
X10336966Y-12212172D01*
X10351251Y-12183601D01*
X10365537Y-12140744D01*
X10379823Y-12069315D01*
X10379823Y-12012172D01*
X10365537Y-11940744D01*
X10351251Y-11897887D01*
X10336966Y-11869315D01*
X10308394Y-11826458D01*
X10294109Y-11812172D01*
X10836966Y-12269315D02*
X10822680Y-12255030D01*
X10794109Y-12212172D01*
X10779823Y-12183601D01*
X10765537Y-12140744D01*
X10751251Y-12069315D01*
X10751251Y-12012172D01*
X10765537Y-11940744D01*
X10779823Y-11897887D01*
X10794109Y-11869315D01*
X10822680Y-11826458D01*
X10836966Y-11812172D01*
X10951251Y-11955030D02*
X10951251Y-12155030D01*
X10951251Y-11983601D02*
X10965537Y-11969315D01*
X10994109Y-11955030D01*
X11036966Y-11955030D01*
X11065537Y-11969315D01*
X11079823Y-11997887D01*
X11079823Y-12155030D01*
X11265537Y-12155030D02*
X11236966Y-12140744D01*
X11222680Y-12126458D01*
X11208394Y-12097887D01*
X11208394Y-12012172D01*
X11222680Y-11983601D01*
X11236966Y-11969315D01*
X11265537Y-11955030D01*
X11308394Y-11955030D01*
X11336966Y-11969315D01*
X11351251Y-11983601D01*
X11365537Y-12012172D01*
X11365537Y-12097887D01*
X11351251Y-12126458D01*
X11336966Y-12140744D01*
X11308394Y-12155030D01*
X11265537Y-12155030D01*
X11451251Y-11955030D02*
X11565537Y-11955030D01*
X11494108Y-11855030D02*
X11494108Y-12112172D01*
X11508394Y-12140744D01*
X11536966Y-12155030D01*
X11565537Y-12155030D01*
X11894108Y-11955030D02*
X11894108Y-12255030D01*
X11894108Y-11969315D02*
X11922680Y-11955030D01*
X11979823Y-11955030D01*
X12008394Y-11969315D01*
X12022680Y-11983601D01*
X12036966Y-12012172D01*
X12036966Y-12097887D01*
X12022680Y-12126458D01*
X12008394Y-12140744D01*
X11979823Y-12155030D01*
X11922680Y-12155030D01*
X11894108Y-12140744D01*
X12208394Y-12155030D02*
X12179823Y-12140744D01*
X12165537Y-12112172D01*
X12165537Y-11855030D01*
X12451251Y-12155030D02*
X12451251Y-11997887D01*
X12436966Y-11969315D01*
X12408394Y-11955030D01*
X12351251Y-11955030D01*
X12322680Y-11969315D01*
X12451251Y-12140744D02*
X12422680Y-12155030D01*
X12351251Y-12155030D01*
X12322680Y-12140744D01*
X12308394Y-12112172D01*
X12308394Y-12083601D01*
X12322680Y-12055030D01*
X12351251Y-12040744D01*
X12422680Y-12040744D01*
X12451251Y-12026458D01*
X12551251Y-11955030D02*
X12665537Y-11955030D01*
X12594108Y-11855030D02*
X12594108Y-12112172D01*
X12608394Y-12140744D01*
X12636966Y-12155030D01*
X12665537Y-12155030D01*
X12879823Y-12140744D02*
X12851251Y-12155030D01*
X12794108Y-12155030D01*
X12765537Y-12140744D01*
X12751251Y-12112172D01*
X12751251Y-11997887D01*
X12765537Y-11969315D01*
X12794108Y-11955030D01*
X12851251Y-11955030D01*
X12879823Y-11969315D01*
X12894108Y-11997887D01*
X12894108Y-12026458D01*
X12751251Y-12055030D01*
X13151251Y-12155030D02*
X13151251Y-11855030D01*
X13151251Y-12140744D02*
X13122680Y-12155030D01*
X13065537Y-12155030D01*
X13036966Y-12140744D01*
X13022680Y-12126458D01*
X13008394Y-12097887D01*
X13008394Y-12012172D01*
X13022680Y-11983601D01*
X13036966Y-11969315D01*
X13065537Y-11955030D01*
X13122680Y-11955030D01*
X13151251Y-11969315D01*
X13265537Y-12269315D02*
X13279823Y-12255030D01*
X13308394Y-12212172D01*
X13322680Y-12183601D01*
X13336966Y-12140744D01*
X13351251Y-12069315D01*
X13351251Y-12012172D01*
X13336966Y-11940744D01*
X13322680Y-11897887D01*
X13308394Y-11869315D01*
X13279823Y-11826458D01*
X13265537Y-11812172D01*
X2840537Y-12305315D02*
X2840537Y-12525315D01*
X2730537Y-12415315D02*
X2950537Y-12415315D01*
X3222680Y-12279601D02*
X3236966Y-12265315D01*
X3265537Y-12251030D01*
X3336966Y-12251030D01*
X3365537Y-12265315D01*
X3379823Y-12279601D01*
X3394108Y-12308172D01*
X3394108Y-12336744D01*
X3379823Y-12379601D01*
X3208394Y-12551030D01*
X3394108Y-12551030D01*
X3522680Y-12522458D02*
X3536966Y-12536744D01*
X3522680Y-12551030D01*
X3508394Y-12536744D01*
X3522680Y-12522458D01*
X3522680Y-12551030D01*
X3651251Y-12279601D02*
X3665537Y-12265315D01*
X3694108Y-12251030D01*
X3765537Y-12251030D01*
X3794108Y-12265315D01*
X3808394Y-12279601D01*
X3822680Y-12308172D01*
X3822680Y-12336744D01*
X3808394Y-12379601D01*
X3636966Y-12551030D01*
X3822680Y-12551030D01*
X4008394Y-12251030D02*
X4036966Y-12251030D01*
X4065537Y-12265315D01*
X4079823Y-12279601D01*
X4094108Y-12308172D01*
X4108394Y-12365315D01*
X4108394Y-12436744D01*
X4094108Y-12493887D01*
X4079823Y-12522458D01*
X4065537Y-12536744D01*
X4036966Y-12551030D01*
X4008394Y-12551030D01*
X3979823Y-12536744D01*
X3965537Y-12522458D01*
X3951251Y-12493887D01*
X3936966Y-12436744D01*
X3936966Y-12365315D01*
X3951251Y-12308172D01*
X3965537Y-12279601D01*
X3979823Y-12265315D01*
X4008394Y-12251030D01*
X4294109Y-12251030D02*
X4322680Y-12251030D01*
X4351251Y-12265315D01*
X4365537Y-12279601D01*
X4379823Y-12308172D01*
X4394109Y-12365315D01*
X4394109Y-12436744D01*
X4379823Y-12493887D01*
X4365537Y-12522458D01*
X4351251Y-12536744D01*
X4322680Y-12551030D01*
X4294109Y-12551030D01*
X4265537Y-12536744D01*
X4251251Y-12522458D01*
X4236966Y-12493887D01*
X4222680Y-12436744D01*
X4222680Y-12365315D01*
X4236966Y-12308172D01*
X4251251Y-12279601D01*
X4265537Y-12265315D01*
X4294109Y-12251030D01*
X4522680Y-12551030D02*
X4522680Y-12351030D01*
X4522680Y-12379601D02*
X4536966Y-12365315D01*
X4565537Y-12351030D01*
X4608394Y-12351030D01*
X4636966Y-12365315D01*
X4651251Y-12393887D01*
X4651251Y-12551030D01*
X4651251Y-12393887D02*
X4665537Y-12365315D01*
X4694109Y-12351030D01*
X4736966Y-12351030D01*
X4765537Y-12365315D01*
X4779823Y-12393887D01*
X4779823Y-12551030D01*
X4922680Y-12551030D02*
X4922680Y-12351030D01*
X4922680Y-12379601D02*
X4936966Y-12365315D01*
X4965537Y-12351030D01*
X5008394Y-12351030D01*
X5036966Y-12365315D01*
X5051251Y-12393887D01*
X5051251Y-12551030D01*
X5051251Y-12393887D02*
X5065537Y-12365315D01*
X5094109Y-12351030D01*
X5136966Y-12351030D01*
X5165537Y-12365315D01*
X5179823Y-12393887D01*
X5179823Y-12551030D01*
X5765537Y-12236744D02*
X5508394Y-12622458D01*
X6151251Y-12251030D02*
X6179823Y-12251030D01*
X6208394Y-12265315D01*
X6222680Y-12279601D01*
X6236966Y-12308172D01*
X6251251Y-12365315D01*
X6251251Y-12436744D01*
X6236966Y-12493887D01*
X6222680Y-12522458D01*
X6208394Y-12536744D01*
X6179823Y-12551030D01*
X6151251Y-12551030D01*
X6122680Y-12536744D01*
X6108394Y-12522458D01*
X6094108Y-12493887D01*
X6079823Y-12436744D01*
X6079823Y-12365315D01*
X6094108Y-12308172D01*
X6108394Y-12279601D01*
X6122680Y-12265315D01*
X6151251Y-12251030D01*
X6379823Y-12522458D02*
X6394108Y-12536744D01*
X6379823Y-12551030D01*
X6365537Y-12536744D01*
X6379823Y-12522458D01*
X6379823Y-12551030D01*
X6579823Y-12251030D02*
X6608394Y-12251030D01*
X6636966Y-12265315D01*
X6651251Y-12279601D01*
X6665537Y-12308172D01*
X6679823Y-12365315D01*
X6679823Y-12436744D01*
X6665537Y-12493887D01*
X6651251Y-12522458D01*
X6636966Y-12536744D01*
X6608394Y-12551030D01*
X6579823Y-12551030D01*
X6551251Y-12536744D01*
X6536966Y-12522458D01*
X6522680Y-12493887D01*
X6508394Y-12436744D01*
X6508394Y-12365315D01*
X6522680Y-12308172D01*
X6536966Y-12279601D01*
X6551251Y-12265315D01*
X6579823Y-12251030D01*
X6851251Y-12379601D02*
X6822680Y-12365315D01*
X6808394Y-12351030D01*
X6794108Y-12322458D01*
X6794108Y-12308172D01*
X6808394Y-12279601D01*
X6822680Y-12265315D01*
X6851251Y-12251030D01*
X6908394Y-12251030D01*
X6936966Y-12265315D01*
X6951251Y-12279601D01*
X6965537Y-12308172D01*
X6965537Y-12322458D01*
X6951251Y-12351030D01*
X6936966Y-12365315D01*
X6908394Y-12379601D01*
X6851251Y-12379601D01*
X6822680Y-12393887D01*
X6808394Y-12408172D01*
X6794108Y-12436744D01*
X6794108Y-12493887D01*
X6808394Y-12522458D01*
X6822680Y-12536744D01*
X6851251Y-12551030D01*
X6908394Y-12551030D01*
X6936966Y-12536744D01*
X6951251Y-12522458D01*
X6965537Y-12493887D01*
X6965537Y-12436744D01*
X6951251Y-12408172D01*
X6936966Y-12393887D01*
X6908394Y-12379601D01*
X7222680Y-12251030D02*
X7165537Y-12251030D01*
X7136966Y-12265315D01*
X7122680Y-12279601D01*
X7094108Y-12322458D01*
X7079823Y-12379601D01*
X7079823Y-12493887D01*
X7094108Y-12522458D01*
X7108394Y-12536744D01*
X7136966Y-12551030D01*
X7194108Y-12551030D01*
X7222680Y-12536744D01*
X7236966Y-12522458D01*
X7251251Y-12493887D01*
X7251251Y-12422458D01*
X7236966Y-12393887D01*
X7222680Y-12379601D01*
X7194108Y-12365315D01*
X7136966Y-12365315D01*
X7108394Y-12379601D01*
X7094108Y-12393887D01*
X7079823Y-12422458D01*
X7508394Y-12251030D02*
X7451251Y-12251030D01*
X7422680Y-12265315D01*
X7408394Y-12279601D01*
X7379823Y-12322458D01*
X7365537Y-12379601D01*
X7365537Y-12493887D01*
X7379823Y-12522458D01*
X7394108Y-12536744D01*
X7422680Y-12551030D01*
X7479823Y-12551030D01*
X7508394Y-12536744D01*
X7522680Y-12522458D01*
X7536966Y-12493887D01*
X7536966Y-12422458D01*
X7522680Y-12393887D01*
X7508394Y-12379601D01*
X7479823Y-12365315D01*
X7422680Y-12365315D01*
X7394108Y-12379601D01*
X7379823Y-12393887D01*
X7365537Y-12422458D01*
X7651251Y-12251030D02*
X7651251Y-12308172D01*
X7765537Y-12251030D02*
X7765537Y-12308172D01*
X8208394Y-12665315D02*
X8194108Y-12651030D01*
X8165537Y-12608172D01*
X8151251Y-12579601D01*
X8136966Y-12536744D01*
X8122680Y-12465315D01*
X8122680Y-12408172D01*
X8136966Y-12336744D01*
X8151251Y-12293887D01*
X8165537Y-12265315D01*
X8194108Y-12222458D01*
X8208394Y-12208172D01*
X8308394Y-12279601D02*
X8322680Y-12265315D01*
X8351251Y-12251030D01*
X8422680Y-12251030D01*
X8451251Y-12265315D01*
X8465537Y-12279601D01*
X8479823Y-12308172D01*
X8479823Y-12336744D01*
X8465537Y-12379601D01*
X8294108Y-12551030D01*
X8479823Y-12551030D01*
X8836966Y-12551030D02*
X8836966Y-12251030D01*
X8965537Y-12551030D02*
X8965537Y-12393887D01*
X8951251Y-12365315D01*
X8922680Y-12351030D01*
X8879823Y-12351030D01*
X8851251Y-12365315D01*
X8836966Y-12379601D01*
X9151251Y-12551030D02*
X9122680Y-12536744D01*
X9108394Y-12522458D01*
X9094109Y-12493887D01*
X9094109Y-12408172D01*
X9108394Y-12379601D01*
X9122680Y-12365315D01*
X9151251Y-12351030D01*
X9194109Y-12351030D01*
X9222680Y-12365315D01*
X9236966Y-12379601D01*
X9251251Y-12408172D01*
X9251251Y-12493887D01*
X9236966Y-12522458D01*
X9222680Y-12536744D01*
X9194109Y-12551030D01*
X9151251Y-12551030D01*
X9422680Y-12551030D02*
X9394109Y-12536744D01*
X9379823Y-12508172D01*
X9379823Y-12251030D01*
X9651251Y-12536744D02*
X9622680Y-12551030D01*
X9565537Y-12551030D01*
X9536966Y-12536744D01*
X9522680Y-12508172D01*
X9522680Y-12393887D01*
X9536966Y-12365315D01*
X9565537Y-12351030D01*
X9622680Y-12351030D01*
X9651251Y-12365315D01*
X9665537Y-12393887D01*
X9665537Y-12422458D01*
X9522680Y-12451030D01*
X9779823Y-12536744D02*
X9808394Y-12551030D01*
X9865537Y-12551030D01*
X9894109Y-12536744D01*
X9908394Y-12508172D01*
X9908394Y-12493887D01*
X9894109Y-12465315D01*
X9865537Y-12451030D01*
X9822680Y-12451030D01*
X9794109Y-12436744D01*
X9779823Y-12408172D01*
X9779823Y-12393887D01*
X9794109Y-12365315D01*
X9822680Y-12351030D01*
X9865537Y-12351030D01*
X9894109Y-12365315D01*
X10008394Y-12665315D02*
X10022680Y-12651030D01*
X10051251Y-12608172D01*
X10065537Y-12579601D01*
X10079823Y-12536744D01*
X10094109Y-12465315D01*
X10094109Y-12408172D01*
X10079823Y-12336744D01*
X10065537Y-12293887D01*
X10051251Y-12265315D01*
X10022680Y-12222458D01*
X10008394Y-12208172D01*
X10551251Y-12665315D02*
X10536966Y-12651030D01*
X10508394Y-12608172D01*
X10494109Y-12579601D01*
X10479823Y-12536744D01*
X10465537Y-12465315D01*
X10465537Y-12408172D01*
X10479823Y-12336744D01*
X10494109Y-12293887D01*
X10508394Y-12265315D01*
X10536966Y-12222458D01*
X10551251Y-12208172D01*
X10665537Y-12351030D02*
X10665537Y-12551030D01*
X10665537Y-12379601D02*
X10679823Y-12365315D01*
X10708394Y-12351030D01*
X10751251Y-12351030D01*
X10779823Y-12365315D01*
X10794109Y-12393887D01*
X10794109Y-12551030D01*
X10979823Y-12551030D02*
X10951251Y-12536744D01*
X10936966Y-12522458D01*
X10922680Y-12493887D01*
X10922680Y-12408172D01*
X10936966Y-12379601D01*
X10951251Y-12365315D01*
X10979823Y-12351030D01*
X11022680Y-12351030D01*
X11051251Y-12365315D01*
X11065537Y-12379601D01*
X11079823Y-12408172D01*
X11079823Y-12493887D01*
X11065537Y-12522458D01*
X11051251Y-12536744D01*
X11022680Y-12551030D01*
X10979823Y-12551030D01*
X11165537Y-12351030D02*
X11279823Y-12351030D01*
X11208394Y-12251030D02*
X11208394Y-12508172D01*
X11222680Y-12536744D01*
X11251251Y-12551030D01*
X11279823Y-12551030D01*
X11608394Y-12351030D02*
X11608394Y-12651030D01*
X11608394Y-12365315D02*
X11636966Y-12351030D01*
X11694108Y-12351030D01*
X11722680Y-12365315D01*
X11736966Y-12379601D01*
X11751251Y-12408172D01*
X11751251Y-12493887D01*
X11736966Y-12522458D01*
X11722680Y-12536744D01*
X11694108Y-12551030D01*
X11636966Y-12551030D01*
X11608394Y-12536744D01*
X11922680Y-12551030D02*
X11894108Y-12536744D01*
X11879823Y-12508172D01*
X11879823Y-12251030D01*
X12165537Y-12551030D02*
X12165537Y-12393887D01*
X12151251Y-12365315D01*
X12122680Y-12351030D01*
X12065537Y-12351030D01*
X12036966Y-12365315D01*
X12165537Y-12536744D02*
X12136966Y-12551030D01*
X12065537Y-12551030D01*
X12036966Y-12536744D01*
X12022680Y-12508172D01*
X12022680Y-12479601D01*
X12036966Y-12451030D01*
X12065537Y-12436744D01*
X12136966Y-12436744D01*
X12165537Y-12422458D01*
X12265537Y-12351030D02*
X12379823Y-12351030D01*
X12308394Y-12251030D02*
X12308394Y-12508172D01*
X12322680Y-12536744D01*
X12351251Y-12551030D01*
X12379823Y-12551030D01*
X12594108Y-12536744D02*
X12565537Y-12551030D01*
X12508394Y-12551030D01*
X12479823Y-12536744D01*
X12465537Y-12508172D01*
X12465537Y-12393887D01*
X12479823Y-12365315D01*
X12508394Y-12351030D01*
X12565537Y-12351030D01*
X12594108Y-12365315D01*
X12608394Y-12393887D01*
X12608394Y-12422458D01*
X12465537Y-12451030D01*
X12865537Y-12551030D02*
X12865537Y-12251030D01*
X12865537Y-12536744D02*
X12836966Y-12551030D01*
X12779823Y-12551030D01*
X12751251Y-12536744D01*
X12736966Y-12522458D01*
X12722680Y-12493887D01*
X12722680Y-12408172D01*
X12736966Y-12379601D01*
X12751251Y-12365315D01*
X12779823Y-12351030D01*
X12836966Y-12351030D01*
X12865537Y-12365315D01*
X12979823Y-12665315D02*
X12994108Y-12651030D01*
X13022680Y-12608172D01*
X13036966Y-12579601D01*
X13051251Y-12536744D01*
X13065537Y-12465315D01*
X13065537Y-12408172D01*
X13051251Y-12336744D01*
X13036966Y-12293887D01*
X13022680Y-12265315D01*
X12994108Y-12222458D01*
X12979823Y-12208172D01*
X2906604Y-12917382D02*
X2906604Y-12705248D01*
X2694470Y-12705248D01*
X2694470Y-12917382D01*
X2906604Y-12917382D01*
X3208394Y-12647030D02*
X3394108Y-12647030D01*
X3294108Y-12761315D01*
X3336966Y-12761315D01*
X3365537Y-12775601D01*
X3379823Y-12789887D01*
X3394108Y-12818458D01*
X3394108Y-12889887D01*
X3379823Y-12918458D01*
X3365537Y-12932744D01*
X3336966Y-12947030D01*
X3251251Y-12947030D01*
X3222680Y-12932744D01*
X3208394Y-12918458D01*
X3522680Y-12918458D02*
X3536966Y-12932744D01*
X3522680Y-12947030D01*
X3508394Y-12932744D01*
X3522680Y-12918458D01*
X3522680Y-12947030D01*
X3722680Y-12647030D02*
X3751251Y-12647030D01*
X3779823Y-12661315D01*
X3794108Y-12675601D01*
X3808394Y-12704172D01*
X3822680Y-12761315D01*
X3822680Y-12832744D01*
X3808394Y-12889887D01*
X3794108Y-12918458D01*
X3779823Y-12932744D01*
X3751251Y-12947030D01*
X3722680Y-12947030D01*
X3694108Y-12932744D01*
X3679823Y-12918458D01*
X3665537Y-12889887D01*
X3651251Y-12832744D01*
X3651251Y-12761315D01*
X3665537Y-12704172D01*
X3679823Y-12675601D01*
X3694108Y-12661315D01*
X3722680Y-12647030D01*
X4008394Y-12647030D02*
X4036966Y-12647030D01*
X4065537Y-12661315D01*
X4079823Y-12675601D01*
X4094108Y-12704172D01*
X4108394Y-12761315D01*
X4108394Y-12832744D01*
X4094108Y-12889887D01*
X4079823Y-12918458D01*
X4065537Y-12932744D01*
X4036966Y-12947030D01*
X4008394Y-12947030D01*
X3979823Y-12932744D01*
X3965537Y-12918458D01*
X3951251Y-12889887D01*
X3936966Y-12832744D01*
X3936966Y-12761315D01*
X3951251Y-12704172D01*
X3965537Y-12675601D01*
X3979823Y-12661315D01*
X4008394Y-12647030D01*
X4294109Y-12647030D02*
X4322680Y-12647030D01*
X4351251Y-12661315D01*
X4365537Y-12675601D01*
X4379823Y-12704172D01*
X4394109Y-12761315D01*
X4394109Y-12832744D01*
X4379823Y-12889887D01*
X4365537Y-12918458D01*
X4351251Y-12932744D01*
X4322680Y-12947030D01*
X4294109Y-12947030D01*
X4265537Y-12932744D01*
X4251251Y-12918458D01*
X4236966Y-12889887D01*
X4222680Y-12832744D01*
X4222680Y-12761315D01*
X4236966Y-12704172D01*
X4251251Y-12675601D01*
X4265537Y-12661315D01*
X4294109Y-12647030D01*
X4522680Y-12947030D02*
X4522680Y-12747030D01*
X4522680Y-12775601D02*
X4536966Y-12761315D01*
X4565537Y-12747030D01*
X4608394Y-12747030D01*
X4636966Y-12761315D01*
X4651251Y-12789887D01*
X4651251Y-12947030D01*
X4651251Y-12789887D02*
X4665537Y-12761315D01*
X4694109Y-12747030D01*
X4736966Y-12747030D01*
X4765537Y-12761315D01*
X4779823Y-12789887D01*
X4779823Y-12947030D01*
X4922680Y-12947030D02*
X4922680Y-12747030D01*
X4922680Y-12775601D02*
X4936966Y-12761315D01*
X4965537Y-12747030D01*
X5008394Y-12747030D01*
X5036966Y-12761315D01*
X5051251Y-12789887D01*
X5051251Y-12947030D01*
X5051251Y-12789887D02*
X5065537Y-12761315D01*
X5094109Y-12747030D01*
X5136966Y-12747030D01*
X5165537Y-12761315D01*
X5179823Y-12789887D01*
X5179823Y-12947030D01*
X5765537Y-12632744D02*
X5508394Y-13018458D01*
X6151251Y-12647030D02*
X6179823Y-12647030D01*
X6208394Y-12661315D01*
X6222680Y-12675601D01*
X6236966Y-12704172D01*
X6251251Y-12761315D01*
X6251251Y-12832744D01*
X6236966Y-12889887D01*
X6222680Y-12918458D01*
X6208394Y-12932744D01*
X6179823Y-12947030D01*
X6151251Y-12947030D01*
X6122680Y-12932744D01*
X6108394Y-12918458D01*
X6094108Y-12889887D01*
X6079823Y-12832744D01*
X6079823Y-12761315D01*
X6094108Y-12704172D01*
X6108394Y-12675601D01*
X6122680Y-12661315D01*
X6151251Y-12647030D01*
X6379823Y-12918458D02*
X6394108Y-12932744D01*
X6379823Y-12947030D01*
X6365537Y-12932744D01*
X6379823Y-12918458D01*
X6379823Y-12947030D01*
X6679823Y-12947030D02*
X6508394Y-12947030D01*
X6594108Y-12947030D02*
X6594108Y-12647030D01*
X6565537Y-12689887D01*
X6536966Y-12718458D01*
X6508394Y-12732744D01*
X6965537Y-12947030D02*
X6794108Y-12947030D01*
X6879823Y-12947030D02*
X6879823Y-12647030D01*
X6851251Y-12689887D01*
X6822680Y-12718458D01*
X6794108Y-12732744D01*
X7136966Y-12775601D02*
X7108394Y-12761315D01*
X7094108Y-12747030D01*
X7079823Y-12718458D01*
X7079823Y-12704172D01*
X7094108Y-12675601D01*
X7108394Y-12661315D01*
X7136966Y-12647030D01*
X7194108Y-12647030D01*
X7222680Y-12661315D01*
X7236966Y-12675601D01*
X7251251Y-12704172D01*
X7251251Y-12718458D01*
X7236966Y-12747030D01*
X7222680Y-12761315D01*
X7194108Y-12775601D01*
X7136966Y-12775601D01*
X7108394Y-12789887D01*
X7094108Y-12804172D01*
X7079823Y-12832744D01*
X7079823Y-12889887D01*
X7094108Y-12918458D01*
X7108394Y-12932744D01*
X7136966Y-12947030D01*
X7194108Y-12947030D01*
X7222680Y-12932744D01*
X7236966Y-12918458D01*
X7251251Y-12889887D01*
X7251251Y-12832744D01*
X7236966Y-12804172D01*
X7222680Y-12789887D01*
X7194108Y-12775601D01*
X7536966Y-12947030D02*
X7365537Y-12947030D01*
X7451251Y-12947030D02*
X7451251Y-12647030D01*
X7422680Y-12689887D01*
X7394108Y-12718458D01*
X7365537Y-12732744D01*
X7651251Y-12647030D02*
X7651251Y-12704172D01*
X7765537Y-12647030D02*
X7765537Y-12704172D01*
X8208394Y-13061315D02*
X8194108Y-13047030D01*
X8165537Y-13004172D01*
X8151251Y-12975601D01*
X8136966Y-12932744D01*
X8122680Y-12861315D01*
X8122680Y-12804172D01*
X8136966Y-12732744D01*
X8151251Y-12689887D01*
X8165537Y-12661315D01*
X8194108Y-12618458D01*
X8208394Y-12604172D01*
X8451251Y-12747030D02*
X8451251Y-12947030D01*
X8379823Y-12632744D02*
X8308394Y-12847030D01*
X8494109Y-12847030D01*
X8594109Y-12675601D02*
X8608394Y-12661315D01*
X8636966Y-12647030D01*
X8708394Y-12647030D01*
X8736966Y-12661315D01*
X8751251Y-12675601D01*
X8765537Y-12704172D01*
X8765537Y-12732744D01*
X8751251Y-12775601D01*
X8579823Y-12947030D01*
X8765537Y-12947030D01*
X9122680Y-12947030D02*
X9122680Y-12647030D01*
X9251251Y-12947030D02*
X9251251Y-12789887D01*
X9236966Y-12761315D01*
X9208394Y-12747030D01*
X9165537Y-12747030D01*
X9136966Y-12761315D01*
X9122680Y-12775601D01*
X9436966Y-12947030D02*
X9408394Y-12932744D01*
X9394109Y-12918458D01*
X9379823Y-12889887D01*
X9379823Y-12804172D01*
X9394109Y-12775601D01*
X9408394Y-12761315D01*
X9436966Y-12747030D01*
X9479823Y-12747030D01*
X9508394Y-12761315D01*
X9522680Y-12775601D01*
X9536966Y-12804172D01*
X9536966Y-12889887D01*
X9522680Y-12918458D01*
X9508394Y-12932744D01*
X9479823Y-12947030D01*
X9436966Y-12947030D01*
X9708394Y-12947030D02*
X9679823Y-12932744D01*
X9665537Y-12904172D01*
X9665537Y-12647030D01*
X9936966Y-12932744D02*
X9908394Y-12947030D01*
X9851251Y-12947030D01*
X9822680Y-12932744D01*
X9808394Y-12904172D01*
X9808394Y-12789887D01*
X9822680Y-12761315D01*
X9851251Y-12747030D01*
X9908394Y-12747030D01*
X9936966Y-12761315D01*
X9951251Y-12789887D01*
X9951251Y-12818458D01*
X9808394Y-12847030D01*
X10065537Y-12932744D02*
X10094109Y-12947030D01*
X10151251Y-12947030D01*
X10179823Y-12932744D01*
X10194109Y-12904172D01*
X10194109Y-12889887D01*
X10179823Y-12861315D01*
X10151251Y-12847030D01*
X10108394Y-12847030D01*
X10079823Y-12832744D01*
X10065537Y-12804172D01*
X10065537Y-12789887D01*
X10079823Y-12761315D01*
X10108394Y-12747030D01*
X10151251Y-12747030D01*
X10179823Y-12761315D01*
X10294109Y-13061315D02*
X10308394Y-13047030D01*
X10336966Y-13004172D01*
X10351251Y-12975601D01*
X10365537Y-12932744D01*
X10379823Y-12861315D01*
X10379823Y-12804172D01*
X10365537Y-12732744D01*
X10351251Y-12689887D01*
X10336966Y-12661315D01*
X10308394Y-12618458D01*
X10294109Y-12604172D01*
X10836966Y-13061315D02*
X10822680Y-13047030D01*
X10794109Y-13004172D01*
X10779823Y-12975601D01*
X10765537Y-12932744D01*
X10751251Y-12861315D01*
X10751251Y-12804172D01*
X10765537Y-12732744D01*
X10779823Y-12689887D01*
X10794109Y-12661315D01*
X10822680Y-12618458D01*
X10836966Y-12604172D01*
X10951251Y-12747030D02*
X10951251Y-12947030D01*
X10951251Y-12775601D02*
X10965537Y-12761315D01*
X10994109Y-12747030D01*
X11036966Y-12747030D01*
X11065537Y-12761315D01*
X11079823Y-12789887D01*
X11079823Y-12947030D01*
X11265537Y-12947030D02*
X11236966Y-12932744D01*
X11222680Y-12918458D01*
X11208394Y-12889887D01*
X11208394Y-12804172D01*
X11222680Y-12775601D01*
X11236966Y-12761315D01*
X11265537Y-12747030D01*
X11308394Y-12747030D01*
X11336966Y-12761315D01*
X11351251Y-12775601D01*
X11365537Y-12804172D01*
X11365537Y-12889887D01*
X11351251Y-12918458D01*
X11336966Y-12932744D01*
X11308394Y-12947030D01*
X11265537Y-12947030D01*
X11451251Y-12747030D02*
X11565537Y-12747030D01*
X11494108Y-12647030D02*
X11494108Y-12904172D01*
X11508394Y-12932744D01*
X11536966Y-12947030D01*
X11565537Y-12947030D01*
X11894108Y-12747030D02*
X11894108Y-13047030D01*
X11894108Y-12761315D02*
X11922680Y-12747030D01*
X11979823Y-12747030D01*
X12008394Y-12761315D01*
X12022680Y-12775601D01*
X12036966Y-12804172D01*
X12036966Y-12889887D01*
X12022680Y-12918458D01*
X12008394Y-12932744D01*
X11979823Y-12947030D01*
X11922680Y-12947030D01*
X11894108Y-12932744D01*
X12208394Y-12947030D02*
X12179823Y-12932744D01*
X12165537Y-12904172D01*
X12165537Y-12647030D01*
X12451251Y-12947030D02*
X12451251Y-12789887D01*
X12436966Y-12761315D01*
X12408394Y-12747030D01*
X12351251Y-12747030D01*
X12322680Y-12761315D01*
X12451251Y-12932744D02*
X12422680Y-12947030D01*
X12351251Y-12947030D01*
X12322680Y-12932744D01*
X12308394Y-12904172D01*
X12308394Y-12875601D01*
X12322680Y-12847030D01*
X12351251Y-12832744D01*
X12422680Y-12832744D01*
X12451251Y-12818458D01*
X12551251Y-12747030D02*
X12665537Y-12747030D01*
X12594108Y-12647030D02*
X12594108Y-12904172D01*
X12608394Y-12932744D01*
X12636966Y-12947030D01*
X12665537Y-12947030D01*
X12879823Y-12932744D02*
X12851251Y-12947030D01*
X12794108Y-12947030D01*
X12765537Y-12932744D01*
X12751251Y-12904172D01*
X12751251Y-12789887D01*
X12765537Y-12761315D01*
X12794108Y-12747030D01*
X12851251Y-12747030D01*
X12879823Y-12761315D01*
X12894108Y-12789887D01*
X12894108Y-12818458D01*
X12751251Y-12847030D01*
X13151251Y-12947030D02*
X13151251Y-12647030D01*
X13151251Y-12932744D02*
X13122680Y-12947030D01*
X13065537Y-12947030D01*
X13036966Y-12932744D01*
X13022680Y-12918458D01*
X13008394Y-12889887D01*
X13008394Y-12804172D01*
X13022680Y-12775601D01*
X13036966Y-12761315D01*
X13065537Y-12747030D01*
X13122680Y-12747030D01*
X13151251Y-12761315D01*
X13265537Y-13061315D02*
X13279823Y-13047030D01*
X13308394Y-13004172D01*
X13322680Y-12975601D01*
X13336966Y-12932744D01*
X13351251Y-12861315D01*
X13351251Y-12804172D01*
X13336966Y-12732744D01*
X13322680Y-12689887D01*
X13308394Y-12661315D01*
X13279823Y-12618458D01*
X13265537Y-12604172D01*
X2745537Y-13446315D02*
X2950537Y-13241315D01*
X2745537Y-13036315D01*
X2540537Y-13241315D01*
X2745537Y-13446315D01*
X3365537Y-13177030D02*
X3365537Y-13377030D01*
X3294108Y-13062744D02*
X3222680Y-13277030D01*
X3408394Y-13277030D01*
X3522680Y-13348458D02*
X3536966Y-13362744D01*
X3522680Y-13377030D01*
X3508394Y-13362744D01*
X3522680Y-13348458D01*
X3522680Y-13377030D01*
X3822680Y-13377030D02*
X3651251Y-13377030D01*
X3736966Y-13377030D02*
X3736966Y-13077030D01*
X3708394Y-13119887D01*
X3679823Y-13148458D01*
X3651251Y-13162744D01*
X4008394Y-13077030D02*
X4036966Y-13077030D01*
X4065537Y-13091315D01*
X4079823Y-13105601D01*
X4094108Y-13134172D01*
X4108394Y-13191315D01*
X4108394Y-13262744D01*
X4094108Y-13319887D01*
X4079823Y-13348458D01*
X4065537Y-13362744D01*
X4036966Y-13377030D01*
X4008394Y-13377030D01*
X3979823Y-13362744D01*
X3965537Y-13348458D01*
X3951251Y-13319887D01*
X3936966Y-13262744D01*
X3936966Y-13191315D01*
X3951251Y-13134172D01*
X3965537Y-13105601D01*
X3979823Y-13091315D01*
X4008394Y-13077030D01*
X4294109Y-13077030D02*
X4322680Y-13077030D01*
X4351251Y-13091315D01*
X4365537Y-13105601D01*
X4379823Y-13134172D01*
X4394109Y-13191315D01*
X4394109Y-13262744D01*
X4379823Y-13319887D01*
X4365537Y-13348458D01*
X4351251Y-13362744D01*
X4322680Y-13377030D01*
X4294109Y-13377030D01*
X4265537Y-13362744D01*
X4251251Y-13348458D01*
X4236966Y-13319887D01*
X4222680Y-13262744D01*
X4222680Y-13191315D01*
X4236966Y-13134172D01*
X4251251Y-13105601D01*
X4265537Y-13091315D01*
X4294109Y-13077030D01*
X4522680Y-13377030D02*
X4522680Y-13177030D01*
X4522680Y-13205601D02*
X4536966Y-13191315D01*
X4565537Y-13177030D01*
X4608394Y-13177030D01*
X4636966Y-13191315D01*
X4651251Y-13219887D01*
X4651251Y-13377030D01*
X4651251Y-13219887D02*
X4665537Y-13191315D01*
X4694109Y-13177030D01*
X4736966Y-13177030D01*
X4765537Y-13191315D01*
X4779823Y-13219887D01*
X4779823Y-13377030D01*
X4922680Y-13377030D02*
X4922680Y-13177030D01*
X4922680Y-13205601D02*
X4936966Y-13191315D01*
X4965537Y-13177030D01*
X5008394Y-13177030D01*
X5036966Y-13191315D01*
X5051251Y-13219887D01*
X5051251Y-13377030D01*
X5051251Y-13219887D02*
X5065537Y-13191315D01*
X5094109Y-13177030D01*
X5136966Y-13177030D01*
X5165537Y-13191315D01*
X5179823Y-13219887D01*
X5179823Y-13377030D01*
X5765537Y-13062744D02*
X5508394Y-13448458D01*
X6151251Y-13077030D02*
X6179823Y-13077030D01*
X6208394Y-13091315D01*
X6222680Y-13105601D01*
X6236966Y-13134172D01*
X6251251Y-13191315D01*
X6251251Y-13262744D01*
X6236966Y-13319887D01*
X6222680Y-13348458D01*
X6208394Y-13362744D01*
X6179823Y-13377030D01*
X6151251Y-13377030D01*
X6122680Y-13362744D01*
X6108394Y-13348458D01*
X6094108Y-13319887D01*
X6079823Y-13262744D01*
X6079823Y-13191315D01*
X6094108Y-13134172D01*
X6108394Y-13105601D01*
X6122680Y-13091315D01*
X6151251Y-13077030D01*
X6379823Y-13348458D02*
X6394108Y-13362744D01*
X6379823Y-13377030D01*
X6365537Y-13362744D01*
X6379823Y-13348458D01*
X6379823Y-13377030D01*
X6679823Y-13377030D02*
X6508394Y-13377030D01*
X6594108Y-13377030D02*
X6594108Y-13077030D01*
X6565537Y-13119887D01*
X6536966Y-13148458D01*
X6508394Y-13162744D01*
X6936966Y-13077030D02*
X6879823Y-13077030D01*
X6851251Y-13091315D01*
X6836966Y-13105601D01*
X6808394Y-13148458D01*
X6794108Y-13205601D01*
X6794108Y-13319887D01*
X6808394Y-13348458D01*
X6822680Y-13362744D01*
X6851251Y-13377030D01*
X6908394Y-13377030D01*
X6936966Y-13362744D01*
X6951251Y-13348458D01*
X6965537Y-13319887D01*
X6965537Y-13248458D01*
X6951251Y-13219887D01*
X6936966Y-13205601D01*
X6908394Y-13191315D01*
X6851251Y-13191315D01*
X6822680Y-13205601D01*
X6808394Y-13219887D01*
X6794108Y-13248458D01*
X7251251Y-13377030D02*
X7079823Y-13377030D01*
X7165537Y-13377030D02*
X7165537Y-13077030D01*
X7136966Y-13119887D01*
X7108394Y-13148458D01*
X7079823Y-13162744D01*
X7508394Y-13177030D02*
X7508394Y-13377030D01*
X7436966Y-13062744D02*
X7365537Y-13277030D01*
X7551251Y-13277030D01*
X7651251Y-13077030D02*
X7651251Y-13134172D01*
X7765537Y-13077030D02*
X7765537Y-13134172D01*
X8208394Y-13491315D02*
X8194108Y-13477030D01*
X8165537Y-13434172D01*
X8151251Y-13405601D01*
X8136966Y-13362744D01*
X8122680Y-13291315D01*
X8122680Y-13234172D01*
X8136966Y-13162744D01*
X8151251Y-13119887D01*
X8165537Y-13091315D01*
X8194108Y-13048458D01*
X8208394Y-13034172D01*
X8308394Y-13105601D02*
X8322680Y-13091315D01*
X8351251Y-13077030D01*
X8422680Y-13077030D01*
X8451251Y-13091315D01*
X8465537Y-13105601D01*
X8479823Y-13134172D01*
X8479823Y-13162744D01*
X8465537Y-13205601D01*
X8294108Y-13377030D01*
X8479823Y-13377030D01*
X8765537Y-13377030D02*
X8594109Y-13377030D01*
X8679823Y-13377030D02*
X8679823Y-13077030D01*
X8651251Y-13119887D01*
X8622680Y-13148458D01*
X8594109Y-13162744D01*
X9122680Y-13377030D02*
X9122680Y-13077030D01*
X9251251Y-13377030D02*
X9251251Y-13219887D01*
X9236966Y-13191315D01*
X9208394Y-13177030D01*
X9165537Y-13177030D01*
X9136966Y-13191315D01*
X9122680Y-13205601D01*
X9436966Y-13377030D02*
X9408394Y-13362744D01*
X9394109Y-13348458D01*
X9379823Y-13319887D01*
X9379823Y-13234172D01*
X9394109Y-13205601D01*
X9408394Y-13191315D01*
X9436966Y-13177030D01*
X9479823Y-13177030D01*
X9508394Y-13191315D01*
X9522680Y-13205601D01*
X9536966Y-13234172D01*
X9536966Y-13319887D01*
X9522680Y-13348458D01*
X9508394Y-13362744D01*
X9479823Y-13377030D01*
X9436966Y-13377030D01*
X9708394Y-13377030D02*
X9679823Y-13362744D01*
X9665537Y-13334172D01*
X9665537Y-13077030D01*
X9936966Y-13362744D02*
X9908394Y-13377030D01*
X9851251Y-13377030D01*
X9822680Y-13362744D01*
X9808394Y-13334172D01*
X9808394Y-13219887D01*
X9822680Y-13191315D01*
X9851251Y-13177030D01*
X9908394Y-13177030D01*
X9936966Y-13191315D01*
X9951251Y-13219887D01*
X9951251Y-13248458D01*
X9808394Y-13277030D01*
X10065537Y-13362744D02*
X10094109Y-13377030D01*
X10151251Y-13377030D01*
X10179823Y-13362744D01*
X10194109Y-13334172D01*
X10194109Y-13319887D01*
X10179823Y-13291315D01*
X10151251Y-13277030D01*
X10108394Y-13277030D01*
X10079823Y-13262744D01*
X10065537Y-13234172D01*
X10065537Y-13219887D01*
X10079823Y-13191315D01*
X10108394Y-13177030D01*
X10151251Y-13177030D01*
X10179823Y-13191315D01*
X10294109Y-13491315D02*
X10308394Y-13477030D01*
X10336966Y-13434172D01*
X10351251Y-13405601D01*
X10365537Y-13362744D01*
X10379823Y-13291315D01*
X10379823Y-13234172D01*
X10365537Y-13162744D01*
X10351251Y-13119887D01*
X10336966Y-13091315D01*
X10308394Y-13048458D01*
X10294109Y-13034172D01*
X10836966Y-13491315D02*
X10822680Y-13477030D01*
X10794109Y-13434172D01*
X10779823Y-13405601D01*
X10765537Y-13362744D01*
X10751251Y-13291315D01*
X10751251Y-13234172D01*
X10765537Y-13162744D01*
X10779823Y-13119887D01*
X10794109Y-13091315D01*
X10822680Y-13048458D01*
X10836966Y-13034172D01*
X10951251Y-13177030D02*
X10951251Y-13377030D01*
X10951251Y-13205601D02*
X10965537Y-13191315D01*
X10994109Y-13177030D01*
X11036966Y-13177030D01*
X11065537Y-13191315D01*
X11079823Y-13219887D01*
X11079823Y-13377030D01*
X11265537Y-13377030D02*
X11236966Y-13362744D01*
X11222680Y-13348458D01*
X11208394Y-13319887D01*
X11208394Y-13234172D01*
X11222680Y-13205601D01*
X11236966Y-13191315D01*
X11265537Y-13177030D01*
X11308394Y-13177030D01*
X11336966Y-13191315D01*
X11351251Y-13205601D01*
X11365537Y-13234172D01*
X11365537Y-13319887D01*
X11351251Y-13348458D01*
X11336966Y-13362744D01*
X11308394Y-13377030D01*
X11265537Y-13377030D01*
X11451251Y-13177030D02*
X11565537Y-13177030D01*
X11494108Y-13077030D02*
X11494108Y-13334172D01*
X11508394Y-13362744D01*
X11536966Y-13377030D01*
X11565537Y-13377030D01*
X11894108Y-13177030D02*
X11894108Y-13477030D01*
X11894108Y-13191315D02*
X11922680Y-13177030D01*
X11979823Y-13177030D01*
X12008394Y-13191315D01*
X12022680Y-13205601D01*
X12036966Y-13234172D01*
X12036966Y-13319887D01*
X12022680Y-13348458D01*
X12008394Y-13362744D01*
X11979823Y-13377030D01*
X11922680Y-13377030D01*
X11894108Y-13362744D01*
X12208394Y-13377030D02*
X12179823Y-13362744D01*
X12165537Y-13334172D01*
X12165537Y-13077030D01*
X12451251Y-13377030D02*
X12451251Y-13219887D01*
X12436966Y-13191315D01*
X12408394Y-13177030D01*
X12351251Y-13177030D01*
X12322680Y-13191315D01*
X12451251Y-13362744D02*
X12422680Y-13377030D01*
X12351251Y-13377030D01*
X12322680Y-13362744D01*
X12308394Y-13334172D01*
X12308394Y-13305601D01*
X12322680Y-13277030D01*
X12351251Y-13262744D01*
X12422680Y-13262744D01*
X12451251Y-13248458D01*
X12551251Y-13177030D02*
X12665537Y-13177030D01*
X12594108Y-13077030D02*
X12594108Y-13334172D01*
X12608394Y-13362744D01*
X12636966Y-13377030D01*
X12665537Y-13377030D01*
X12879823Y-13362744D02*
X12851251Y-13377030D01*
X12794108Y-13377030D01*
X12765537Y-13362744D01*
X12751251Y-13334172D01*
X12751251Y-13219887D01*
X12765537Y-13191315D01*
X12794108Y-13177030D01*
X12851251Y-13177030D01*
X12879823Y-13191315D01*
X12894108Y-13219887D01*
X12894108Y-13248458D01*
X12751251Y-13277030D01*
X13151251Y-13377030D02*
X13151251Y-13077030D01*
X13151251Y-13362744D02*
X13122680Y-13377030D01*
X13065537Y-13377030D01*
X13036966Y-13362744D01*
X13022680Y-13348458D01*
X13008394Y-13319887D01*
X13008394Y-13234172D01*
X13022680Y-13205601D01*
X13036966Y-13191315D01*
X13065537Y-13177030D01*
X13122680Y-13177030D01*
X13151251Y-13191315D01*
X13265537Y-13491315D02*
X13279823Y-13477030D01*
X13308394Y-13434172D01*
X13322680Y-13405601D01*
X13336966Y-13362744D01*
X13351251Y-13291315D01*
X13351251Y-13234172D01*
X13336966Y-13162744D01*
X13322680Y-13119887D01*
X13308394Y-13091315D01*
X13279823Y-13048458D01*
X13265537Y-13034172D01*
X2520537Y-13566315D02*
X2950537Y-13996315D01*
X2950537Y-13566315D02*
X2520537Y-13996315D01*
X2950537Y-13781315D02*
G75*
G03*
X2950537Y-13781315I-215000J0D01*
G01*
X3365537Y-13717030D02*
X3365537Y-13917030D01*
X3294108Y-13602744D02*
X3222680Y-13817030D01*
X3408394Y-13817030D01*
X3522680Y-13888458D02*
X3536966Y-13902744D01*
X3522680Y-13917030D01*
X3508394Y-13902744D01*
X3522680Y-13888458D01*
X3522680Y-13917030D01*
X3636966Y-13617030D02*
X3822680Y-13617030D01*
X3722680Y-13731315D01*
X3765537Y-13731315D01*
X3794108Y-13745601D01*
X3808394Y-13759887D01*
X3822680Y-13788458D01*
X3822680Y-13859887D01*
X3808394Y-13888458D01*
X3794108Y-13902744D01*
X3765537Y-13917030D01*
X3679823Y-13917030D01*
X3651251Y-13902744D01*
X3636966Y-13888458D01*
X4008394Y-13617030D02*
X4036966Y-13617030D01*
X4065537Y-13631315D01*
X4079823Y-13645601D01*
X4094108Y-13674172D01*
X4108394Y-13731315D01*
X4108394Y-13802744D01*
X4094108Y-13859887D01*
X4079823Y-13888458D01*
X4065537Y-13902744D01*
X4036966Y-13917030D01*
X4008394Y-13917030D01*
X3979823Y-13902744D01*
X3965537Y-13888458D01*
X3951251Y-13859887D01*
X3936966Y-13802744D01*
X3936966Y-13731315D01*
X3951251Y-13674172D01*
X3965537Y-13645601D01*
X3979823Y-13631315D01*
X4008394Y-13617030D01*
X4294109Y-13617030D02*
X4322680Y-13617030D01*
X4351251Y-13631315D01*
X4365537Y-13645601D01*
X4379823Y-13674172D01*
X4394109Y-13731315D01*
X4394109Y-13802744D01*
X4379823Y-13859887D01*
X4365537Y-13888458D01*
X4351251Y-13902744D01*
X4322680Y-13917030D01*
X4294109Y-13917030D01*
X4265537Y-13902744D01*
X4251251Y-13888458D01*
X4236966Y-13859887D01*
X4222680Y-13802744D01*
X4222680Y-13731315D01*
X4236966Y-13674172D01*
X4251251Y-13645601D01*
X4265537Y-13631315D01*
X4294109Y-13617030D01*
X4522680Y-13917030D02*
X4522680Y-13717030D01*
X4522680Y-13745601D02*
X4536966Y-13731315D01*
X4565537Y-13717030D01*
X4608394Y-13717030D01*
X4636966Y-13731315D01*
X4651251Y-13759887D01*
X4651251Y-13917030D01*
X4651251Y-13759887D02*
X4665537Y-13731315D01*
X4694109Y-13717030D01*
X4736966Y-13717030D01*
X4765537Y-13731315D01*
X4779823Y-13759887D01*
X4779823Y-13917030D01*
X4922680Y-13917030D02*
X4922680Y-13717030D01*
X4922680Y-13745601D02*
X4936966Y-13731315D01*
X4965537Y-13717030D01*
X5008394Y-13717030D01*
X5036966Y-13731315D01*
X5051251Y-13759887D01*
X5051251Y-13917030D01*
X5051251Y-13759887D02*
X5065537Y-13731315D01*
X5094109Y-13717030D01*
X5136966Y-13717030D01*
X5165537Y-13731315D01*
X5179823Y-13759887D01*
X5179823Y-13917030D01*
X5765537Y-13602744D02*
X5508394Y-13988458D01*
X6151251Y-13617030D02*
X6179823Y-13617030D01*
X6208394Y-13631315D01*
X6222680Y-13645601D01*
X6236966Y-13674172D01*
X6251251Y-13731315D01*
X6251251Y-13802744D01*
X6236966Y-13859887D01*
X6222680Y-13888458D01*
X6208394Y-13902744D01*
X6179823Y-13917030D01*
X6151251Y-13917030D01*
X6122680Y-13902744D01*
X6108394Y-13888458D01*
X6094108Y-13859887D01*
X6079823Y-13802744D01*
X6079823Y-13731315D01*
X6094108Y-13674172D01*
X6108394Y-13645601D01*
X6122680Y-13631315D01*
X6151251Y-13617030D01*
X6379823Y-13888458D02*
X6394108Y-13902744D01*
X6379823Y-13917030D01*
X6365537Y-13902744D01*
X6379823Y-13888458D01*
X6379823Y-13917030D01*
X6679823Y-13917030D02*
X6508394Y-13917030D01*
X6594108Y-13917030D02*
X6594108Y-13617030D01*
X6565537Y-13659887D01*
X6536966Y-13688458D01*
X6508394Y-13702744D01*
X6936966Y-13617030D02*
X6879823Y-13617030D01*
X6851251Y-13631315D01*
X6836966Y-13645601D01*
X6808394Y-13688458D01*
X6794108Y-13745601D01*
X6794108Y-13859887D01*
X6808394Y-13888458D01*
X6822680Y-13902744D01*
X6851251Y-13917030D01*
X6908394Y-13917030D01*
X6936966Y-13902744D01*
X6951251Y-13888458D01*
X6965537Y-13859887D01*
X6965537Y-13788458D01*
X6951251Y-13759887D01*
X6936966Y-13745601D01*
X6908394Y-13731315D01*
X6851251Y-13731315D01*
X6822680Y-13745601D01*
X6808394Y-13759887D01*
X6794108Y-13788458D01*
X7108394Y-13917030D02*
X7165537Y-13917030D01*
X7194108Y-13902744D01*
X7208394Y-13888458D01*
X7236966Y-13845601D01*
X7251251Y-13788458D01*
X7251251Y-13674172D01*
X7236966Y-13645601D01*
X7222680Y-13631315D01*
X7194108Y-13617030D01*
X7136966Y-13617030D01*
X7108394Y-13631315D01*
X7094108Y-13645601D01*
X7079823Y-13674172D01*
X7079823Y-13745601D01*
X7094108Y-13774172D01*
X7108394Y-13788458D01*
X7136966Y-13802744D01*
X7194108Y-13802744D01*
X7222680Y-13788458D01*
X7236966Y-13774172D01*
X7251251Y-13745601D01*
X7351251Y-13617030D02*
X7536966Y-13617030D01*
X7436966Y-13731315D01*
X7479823Y-13731315D01*
X7508394Y-13745601D01*
X7522680Y-13759887D01*
X7536966Y-13788458D01*
X7536966Y-13859887D01*
X7522680Y-13888458D01*
X7508394Y-13902744D01*
X7479823Y-13917030D01*
X7394108Y-13917030D01*
X7365537Y-13902744D01*
X7351251Y-13888458D01*
X7651251Y-13617030D02*
X7651251Y-13674172D01*
X7765537Y-13617030D02*
X7765537Y-13674172D01*
X8208394Y-14031315D02*
X8194108Y-14017030D01*
X8165537Y-13974172D01*
X8151251Y-13945601D01*
X8136966Y-13902744D01*
X8122680Y-13831315D01*
X8122680Y-13774172D01*
X8136966Y-13702744D01*
X8151251Y-13659887D01*
X8165537Y-13631315D01*
X8194108Y-13588458D01*
X8208394Y-13574172D01*
X8465537Y-13617030D02*
X8322680Y-13617030D01*
X8308394Y-13759887D01*
X8322680Y-13745601D01*
X8351251Y-13731315D01*
X8422680Y-13731315D01*
X8451251Y-13745601D01*
X8465537Y-13759887D01*
X8479823Y-13788458D01*
X8479823Y-13859887D01*
X8465537Y-13888458D01*
X8451251Y-13902744D01*
X8422680Y-13917030D01*
X8351251Y-13917030D01*
X8322680Y-13902744D01*
X8308394Y-13888458D01*
X8836966Y-13917030D02*
X8836966Y-13617030D01*
X8965537Y-13917030D02*
X8965537Y-13759887D01*
X8951251Y-13731315D01*
X8922680Y-13717030D01*
X8879823Y-13717030D01*
X8851251Y-13731315D01*
X8836966Y-13745601D01*
X9151251Y-13917030D02*
X9122680Y-13902744D01*
X9108394Y-13888458D01*
X9094109Y-13859887D01*
X9094109Y-13774172D01*
X9108394Y-13745601D01*
X9122680Y-13731315D01*
X9151251Y-13717030D01*
X9194109Y-13717030D01*
X9222680Y-13731315D01*
X9236966Y-13745601D01*
X9251251Y-13774172D01*
X9251251Y-13859887D01*
X9236966Y-13888458D01*
X9222680Y-13902744D01*
X9194109Y-13917030D01*
X9151251Y-13917030D01*
X9422680Y-13917030D02*
X9394109Y-13902744D01*
X9379823Y-13874172D01*
X9379823Y-13617030D01*
X9651251Y-13902744D02*
X9622680Y-13917030D01*
X9565537Y-13917030D01*
X9536966Y-13902744D01*
X9522680Y-13874172D01*
X9522680Y-13759887D01*
X9536966Y-13731315D01*
X9565537Y-13717030D01*
X9622680Y-13717030D01*
X9651251Y-13731315D01*
X9665537Y-13759887D01*
X9665537Y-13788458D01*
X9522680Y-13817030D01*
X9779823Y-13902744D02*
X9808394Y-13917030D01*
X9865537Y-13917030D01*
X9894109Y-13902744D01*
X9908394Y-13874172D01*
X9908394Y-13859887D01*
X9894109Y-13831315D01*
X9865537Y-13817030D01*
X9822680Y-13817030D01*
X9794109Y-13802744D01*
X9779823Y-13774172D01*
X9779823Y-13759887D01*
X9794109Y-13731315D01*
X9822680Y-13717030D01*
X9865537Y-13717030D01*
X9894109Y-13731315D01*
X10008394Y-14031315D02*
X10022680Y-14017030D01*
X10051251Y-13974172D01*
X10065537Y-13945601D01*
X10079823Y-13902744D01*
X10094109Y-13831315D01*
X10094109Y-13774172D01*
X10079823Y-13702744D01*
X10065537Y-13659887D01*
X10051251Y-13631315D01*
X10022680Y-13588458D01*
X10008394Y-13574172D01*
X10551251Y-14031315D02*
X10536966Y-14017030D01*
X10508394Y-13974172D01*
X10494109Y-13945601D01*
X10479823Y-13902744D01*
X10465537Y-13831315D01*
X10465537Y-13774172D01*
X10479823Y-13702744D01*
X10494109Y-13659887D01*
X10508394Y-13631315D01*
X10536966Y-13588458D01*
X10551251Y-13574172D01*
X10665537Y-13717030D02*
X10665537Y-13917030D01*
X10665537Y-13745601D02*
X10679823Y-13731315D01*
X10708394Y-13717030D01*
X10751251Y-13717030D01*
X10779823Y-13731315D01*
X10794109Y-13759887D01*
X10794109Y-13917030D01*
X10979823Y-13917030D02*
X10951251Y-13902744D01*
X10936966Y-13888458D01*
X10922680Y-13859887D01*
X10922680Y-13774172D01*
X10936966Y-13745601D01*
X10951251Y-13731315D01*
X10979823Y-13717030D01*
X11022680Y-13717030D01*
X11051251Y-13731315D01*
X11065537Y-13745601D01*
X11079823Y-13774172D01*
X11079823Y-13859887D01*
X11065537Y-13888458D01*
X11051251Y-13902744D01*
X11022680Y-13917030D01*
X10979823Y-13917030D01*
X11165537Y-13717030D02*
X11279823Y-13717030D01*
X11208394Y-13617030D02*
X11208394Y-13874172D01*
X11222680Y-13902744D01*
X11251251Y-13917030D01*
X11279823Y-13917030D01*
X11608394Y-13717030D02*
X11608394Y-14017030D01*
X11608394Y-13731315D02*
X11636966Y-13717030D01*
X11694108Y-13717030D01*
X11722680Y-13731315D01*
X11736966Y-13745601D01*
X11751251Y-13774172D01*
X11751251Y-13859887D01*
X11736966Y-13888458D01*
X11722680Y-13902744D01*
X11694108Y-13917030D01*
X11636966Y-13917030D01*
X11608394Y-13902744D01*
X11922680Y-13917030D02*
X11894108Y-13902744D01*
X11879823Y-13874172D01*
X11879823Y-13617030D01*
X12165537Y-13917030D02*
X12165537Y-13759887D01*
X12151251Y-13731315D01*
X12122680Y-13717030D01*
X12065537Y-13717030D01*
X12036966Y-13731315D01*
X12165537Y-13902744D02*
X12136966Y-13917030D01*
X12065537Y-13917030D01*
X12036966Y-13902744D01*
X12022680Y-13874172D01*
X12022680Y-13845601D01*
X12036966Y-13817030D01*
X12065537Y-13802744D01*
X12136966Y-13802744D01*
X12165537Y-13788458D01*
X12265537Y-13717030D02*
X12379823Y-13717030D01*
X12308394Y-13617030D02*
X12308394Y-13874172D01*
X12322680Y-13902744D01*
X12351251Y-13917030D01*
X12379823Y-13917030D01*
X12594108Y-13902744D02*
X12565537Y-13917030D01*
X12508394Y-13917030D01*
X12479823Y-13902744D01*
X12465537Y-13874172D01*
X12465537Y-13759887D01*
X12479823Y-13731315D01*
X12508394Y-13717030D01*
X12565537Y-13717030D01*
X12594108Y-13731315D01*
X12608394Y-13759887D01*
X12608394Y-13788458D01*
X12465537Y-13817030D01*
X12865537Y-13917030D02*
X12865537Y-13617030D01*
X12865537Y-13902744D02*
X12836966Y-13917030D01*
X12779823Y-13917030D01*
X12751251Y-13902744D01*
X12736966Y-13888458D01*
X12722680Y-13859887D01*
X12722680Y-13774172D01*
X12736966Y-13745601D01*
X12751251Y-13731315D01*
X12779823Y-13717030D01*
X12836966Y-13717030D01*
X12865537Y-13731315D01*
X12979823Y-14031315D02*
X12994108Y-14017030D01*
X13022680Y-13974172D01*
X13036966Y-13945601D01*
X13051251Y-13902744D01*
X13065537Y-13831315D01*
X13065537Y-13774172D01*
X13051251Y-13702744D01*
X13036966Y-13659887D01*
X13022680Y-13631315D01*
X12994108Y-13588458D01*
X12979823Y-13574172D01*
M02*
