M48
; DRILL file {KiCad (5.1.10)-1} date 11/26/21 09:54:32
; FORMAT={-:-/ absolute / metric / decimal}
; #@! TF.CreationDate,2021-11-26T09:54:32+07:00
; #@! TF.GenerationSoftware,Kicad,Pcbnew,(5.1.10)-1
; #@! TF.FileFunction,Plated,1,2,PTH
FMAT,2
METRIC
T1C0.400
T2C0.813
T3C1.000
T4C1.300
%
G90
G05
T1
X31.422Y-30.379
X31.422Y-45.379
X31.422Y-49.379
X31.422Y-61.879
X31.422Y-64.379
X42.023Y-76.579
X42.422Y-57.679
X42.523Y-35.279
X42.722Y-38.744
X42.722Y-54.179
X42.818Y-36.784
X50.122Y-49.579
X50.38Y-45.369
X50.422Y-30.379
X50.523Y-64.379
X51.212Y-61.068
X51.347Y-52.979
X51.447Y-33.779
X51.523Y-43.879
X52.222Y-34.379
X53.142Y-57.894
X53.523Y-74.479
X53.822Y-41.179
X53.822Y-55.579
X53.922Y-36.379
X53.922Y-60.279
X55.523Y-76.529
X61.122Y-53.879
X61.122Y-72.879
X61.322Y-34.879
X68.722Y-30.279
X69.422Y-25.679
X69.422Y-40.679
X69.422Y-44.679
X69.422Y-59.679
X69.522Y-21.679
X70.992Y-56.349
X79.092Y-70.709
X79.123Y-51.829
X80.322Y-30.479
X80.322Y-72.379
X80.448Y-68.379
X80.523Y-33.129
X80.648Y-49.779
X80.802Y-31.421
X87.797Y-56.479
X87.797Y-63.579
X88.422Y-23.279
X88.422Y-38.279
X88.422Y-42.279
X88.422Y-57.279
X88.422Y-60.879
X88.822Y-54.879
X89.047Y-26.779
X89.047Y-64.879
X89.123Y-63.579
X89.422Y-27.679
X91.172Y-69.614
X91.722Y-29.279
X91.822Y-48.279
X91.822Y-67.279
X91.922Y-34.079
X91.922Y-71.979
X97.922Y-79.479
X99.222Y-27.779
X99.222Y-46.879
X99.222Y-65.879
X101.322Y-89.279
X107.422Y-25.679
X107.422Y-40.679
X107.422Y-44.679
X107.422Y-59.679
X107.422Y-63.679
X107.822Y-55.479
X108.722Y-87.879
X117.022Y-51.929
X117.222Y-70.879
X118.297Y-32.629
X118.322Y-68.479
X118.422Y-80.379
X118.859Y-30.177
X119.012Y-31.054
X119.272Y-50.079
X121.122Y-90.779
X126.422Y-27.979
X126.422Y-43.079
X126.422Y-46.979
X126.422Y-61.979
X126.422Y-65.979
X126.823Y-57.979
X127.047Y-69.579
X127.278Y-31.568
X127.978Y-31.979
X128.623Y-91.879
X129.722Y-52.979
X129.822Y-34.079
X129.822Y-72.079
X129.822Y-76.979
X129.922Y-38.879
X136.322Y-54.279
X137.023Y-51.579
X137.222Y-32.579
X137.222Y-70.579
X137.322Y-50.279
X137.422Y-77.779
X141.022Y-94.179
X142.022Y-49.379
X143.022Y-64.179
X143.222Y-31.479
X143.222Y-65.979
X143.373Y-36.079
X144.713Y-72.479
X144.909Y-81.556
X151.123Y-96.279
X153.616Y-89.286
X153.963Y-74.134
T2
X145.619Y-27.116
X145.619Y-29.656
X145.619Y-32.196
X145.619Y-34.736
X145.619Y-37.276
X145.619Y-39.816
X145.619Y-42.356
X145.619Y-44.896
X145.619Y-47.436
X145.619Y-49.976
X145.619Y-52.516
X145.619Y-55.056
X149.363Y-62.202
X151.903Y-62.202
X154.444Y-62.202
X156.983Y-62.202
X160.839Y-27.116
X160.839Y-29.656
X160.839Y-32.196
X160.839Y-34.736
X160.839Y-37.276
X160.839Y-39.816
X160.839Y-42.356
X160.839Y-44.896
X160.839Y-47.436
X160.839Y-49.976
X160.839Y-52.516
X160.839Y-55.056
T4
X160.839Y-58.455
X160.839Y-64.955
T3
X150.999Y-67.366G85X150.499Y-67.366
G05
X152.499Y-71.566G85X151.999Y-71.566
G05
X156.499Y-71.566G85X155.999Y-71.566
G05
X159.499Y-71.566G85X158.999Y-71.566
G05
T0
M30
