G04 #@! TF.GenerationSoftware,KiCad,Pcbnew,(5.1.10)-1*
G04 #@! TF.CreationDate,2021-11-26T09:54:24+07:00*
G04 #@! TF.ProjectId,corne-cherry,636f726e-652d-4636-9865-7272792e6b69,3.0.1*
G04 #@! TF.SameCoordinates,Original*
G04 #@! TF.FileFunction,Soldermask,Bot*
G04 #@! TF.FilePolarity,Negative*
%FSLAX46Y46*%
G04 Gerber Fmt 4.6, Leading zero omitted, Abs format (unit mm)*
G04 Created by KiCad (PCBNEW (5.1.10)-1) date 2021-11-26 09:54:24*
%MOMM*%
%LPD*%
G01*
G04 APERTURE LIST*
%ADD10C,2.600000*%
%ADD11C,4.700000*%
%ADD12C,1.924000*%
%ADD13C,3.400000*%
%ADD14C,2.300000*%
%ADD15C,4.500000*%
%ADD16C,2.400000*%
%ADD17O,1.797000X2.178000*%
%ADD18O,2.900000X2.100000*%
%ADD19C,1.600000*%
G04 APERTURE END LIST*
G36*
G01*
X103622500Y-41954000D02*
X102622500Y-41954000D01*
G75*
G02*
X102422500Y-41754000I0J200000D01*
G01*
X102422500Y-40354000D01*
G75*
G02*
X102622500Y-40154000I200000J0D01*
G01*
X103622500Y-40154000D01*
G75*
G02*
X103822500Y-40354000I0J-200000D01*
G01*
X103822500Y-41754000D01*
G75*
G02*
X103622500Y-41954000I-200000J0D01*
G01*
G37*
G36*
G01*
X103622500Y-45504000D02*
X102622500Y-45504000D01*
G75*
G02*
X102422500Y-45304000I0J200000D01*
G01*
X102422500Y-43904000D01*
G75*
G02*
X102622500Y-43704000I200000J0D01*
G01*
X103622500Y-43704000D01*
G75*
G02*
X103822500Y-43904000I0J-200000D01*
G01*
X103822500Y-45304000D01*
G75*
G02*
X103622500Y-45504000I-200000J0D01*
G01*
G37*
G36*
G01*
X46649500Y-68075875D02*
X45649500Y-68075875D01*
G75*
G02*
X45449500Y-67875875I0J200000D01*
G01*
X45449500Y-66475875D01*
G75*
G02*
X45649500Y-66275875I200000J0D01*
G01*
X46649500Y-66275875D01*
G75*
G02*
X46849500Y-66475875I0J-200000D01*
G01*
X46849500Y-67875875D01*
G75*
G02*
X46649500Y-68075875I-200000J0D01*
G01*
G37*
G36*
G01*
X46649500Y-71625875D02*
X45649500Y-71625875D01*
G75*
G02*
X45449500Y-71425875I0J200000D01*
G01*
X45449500Y-70025875D01*
G75*
G02*
X45649500Y-69825875I200000J0D01*
G01*
X46649500Y-69825875D01*
G75*
G02*
X46849500Y-70025875I0J-200000D01*
G01*
X46849500Y-71425875D01*
G75*
G02*
X46649500Y-71625875I-200000J0D01*
G01*
G37*
G36*
G01*
X103622500Y-60954000D02*
X102622500Y-60954000D01*
G75*
G02*
X102422500Y-60754000I0J200000D01*
G01*
X102422500Y-59354000D01*
G75*
G02*
X102622500Y-59154000I200000J0D01*
G01*
X103622500Y-59154000D01*
G75*
G02*
X103822500Y-59354000I0J-200000D01*
G01*
X103822500Y-60754000D01*
G75*
G02*
X103622500Y-60954000I-200000J0D01*
G01*
G37*
G36*
G01*
X103622500Y-64504000D02*
X102622500Y-64504000D01*
G75*
G02*
X102422500Y-64304000I0J200000D01*
G01*
X102422500Y-62904000D01*
G75*
G02*
X102622500Y-62704000I200000J0D01*
G01*
X103622500Y-62704000D01*
G75*
G02*
X103822500Y-62904000I0J-200000D01*
G01*
X103822500Y-64304000D01*
G75*
G02*
X103622500Y-64504000I-200000J0D01*
G01*
G37*
G36*
G01*
X116922500Y-83064000D02*
X115922500Y-83064000D01*
G75*
G02*
X115722500Y-82864000I0J200000D01*
G01*
X115722500Y-81464000D01*
G75*
G02*
X115922500Y-81264000I200000J0D01*
G01*
X116922500Y-81264000D01*
G75*
G02*
X117122500Y-81464000I0J-200000D01*
G01*
X117122500Y-82864000D01*
G75*
G02*
X116922500Y-83064000I-200000J0D01*
G01*
G37*
G36*
G01*
X116922500Y-86614000D02*
X115922500Y-86614000D01*
G75*
G02*
X115722500Y-86414000I0J200000D01*
G01*
X115722500Y-85014000D01*
G75*
G02*
X115922500Y-84814000I200000J0D01*
G01*
X116922500Y-84814000D01*
G75*
G02*
X117122500Y-85014000I0J-200000D01*
G01*
X117122500Y-86414000D01*
G75*
G02*
X116922500Y-86614000I-200000J0D01*
G01*
G37*
G36*
G01*
X84622500Y-63329000D02*
X83622500Y-63329000D01*
G75*
G02*
X83422500Y-63129000I0J200000D01*
G01*
X83422500Y-61729000D01*
G75*
G02*
X83622500Y-61529000I200000J0D01*
G01*
X84622500Y-61529000D01*
G75*
G02*
X84822500Y-61729000I0J-200000D01*
G01*
X84822500Y-63129000D01*
G75*
G02*
X84622500Y-63329000I-200000J0D01*
G01*
G37*
G36*
G01*
X84622500Y-66879000D02*
X83622500Y-66879000D01*
G75*
G02*
X83422500Y-66679000I0J200000D01*
G01*
X83422500Y-65279000D01*
G75*
G02*
X83622500Y-65079000I200000J0D01*
G01*
X84622500Y-65079000D01*
G75*
G02*
X84822500Y-65279000I0J-200000D01*
G01*
X84822500Y-66679000D01*
G75*
G02*
X84622500Y-66879000I-200000J0D01*
G01*
G37*
G36*
G01*
X122622500Y-63329000D02*
X121622500Y-63329000D01*
G75*
G02*
X121422500Y-63129000I0J200000D01*
G01*
X121422500Y-61729000D01*
G75*
G02*
X121622500Y-61529000I200000J0D01*
G01*
X122622500Y-61529000D01*
G75*
G02*
X122822500Y-61729000I0J-200000D01*
G01*
X122822500Y-63129000D01*
G75*
G02*
X122622500Y-63329000I-200000J0D01*
G01*
G37*
G36*
G01*
X122622500Y-66879000D02*
X121622500Y-66879000D01*
G75*
G02*
X121422500Y-66679000I0J200000D01*
G01*
X121422500Y-65279000D01*
G75*
G02*
X121622500Y-65079000I200000J0D01*
G01*
X122622500Y-65079000D01*
G75*
G02*
X122822500Y-65279000I0J-200000D01*
G01*
X122822500Y-66679000D01*
G75*
G02*
X122622500Y-66879000I-200000J0D01*
G01*
G37*
G36*
G01*
X114079500Y-83064000D02*
X113079500Y-83064000D01*
G75*
G02*
X112879500Y-82864000I0J200000D01*
G01*
X112879500Y-81464000D01*
G75*
G02*
X113079500Y-81264000I200000J0D01*
G01*
X114079500Y-81264000D01*
G75*
G02*
X114279500Y-81464000I0J-200000D01*
G01*
X114279500Y-82864000D01*
G75*
G02*
X114079500Y-83064000I-200000J0D01*
G01*
G37*
G36*
G01*
X114079500Y-86614000D02*
X113079500Y-86614000D01*
G75*
G02*
X112879500Y-86414000I0J200000D01*
G01*
X112879500Y-85014000D01*
G75*
G02*
X113079500Y-84814000I200000J0D01*
G01*
X114079500Y-84814000D01*
G75*
G02*
X114279500Y-85014000I0J-200000D01*
G01*
X114279500Y-86414000D01*
G75*
G02*
X114079500Y-86614000I-200000J0D01*
G01*
G37*
G36*
G01*
X65649500Y-68079000D02*
X64649500Y-68079000D01*
G75*
G02*
X64449500Y-67879000I0J200000D01*
G01*
X64449500Y-66479000D01*
G75*
G02*
X64649500Y-66279000I200000J0D01*
G01*
X65649500Y-66279000D01*
G75*
G02*
X65849500Y-66479000I0J-200000D01*
G01*
X65849500Y-67879000D01*
G75*
G02*
X65649500Y-68079000I-200000J0D01*
G01*
G37*
G36*
G01*
X65649500Y-71629000D02*
X64649500Y-71629000D01*
G75*
G02*
X64449500Y-71429000I0J200000D01*
G01*
X64449500Y-70029000D01*
G75*
G02*
X64649500Y-69829000I200000J0D01*
G01*
X65649500Y-69829000D01*
G75*
G02*
X65849500Y-70029000I0J-200000D01*
G01*
X65849500Y-71429000D01*
G75*
G02*
X65649500Y-71629000I-200000J0D01*
G01*
G37*
G36*
G01*
X46649500Y-49075875D02*
X45649500Y-49075875D01*
G75*
G02*
X45449500Y-48875875I0J200000D01*
G01*
X45449500Y-47475875D01*
G75*
G02*
X45649500Y-47275875I200000J0D01*
G01*
X46649500Y-47275875D01*
G75*
G02*
X46849500Y-47475875I0J-200000D01*
G01*
X46849500Y-48875875D01*
G75*
G02*
X46649500Y-49075875I-200000J0D01*
G01*
G37*
G36*
G01*
X46649500Y-52625875D02*
X45649500Y-52625875D01*
G75*
G02*
X45449500Y-52425875I0J200000D01*
G01*
X45449500Y-51025875D01*
G75*
G02*
X45649500Y-50825875I200000J0D01*
G01*
X46649500Y-50825875D01*
G75*
G02*
X46849500Y-51025875I0J-200000D01*
G01*
X46849500Y-52425875D01*
G75*
G02*
X46649500Y-52625875I-200000J0D01*
G01*
G37*
G36*
G01*
X65649500Y-49079000D02*
X64649500Y-49079000D01*
G75*
G02*
X64449500Y-48879000I0J200000D01*
G01*
X64449500Y-47479000D01*
G75*
G02*
X64649500Y-47279000I200000J0D01*
G01*
X65649500Y-47279000D01*
G75*
G02*
X65849500Y-47479000I0J-200000D01*
G01*
X65849500Y-48879000D01*
G75*
G02*
X65649500Y-49079000I-200000J0D01*
G01*
G37*
G36*
G01*
X65649500Y-52629000D02*
X64649500Y-52629000D01*
G75*
G02*
X64449500Y-52429000I0J200000D01*
G01*
X64449500Y-51029000D01*
G75*
G02*
X64649500Y-50829000I200000J0D01*
G01*
X65649500Y-50829000D01*
G75*
G02*
X65849500Y-51029000I0J-200000D01*
G01*
X65849500Y-52429000D01*
G75*
G02*
X65649500Y-52629000I-200000J0D01*
G01*
G37*
G36*
G01*
X95072500Y-83069000D02*
X94072500Y-83069000D01*
G75*
G02*
X93872500Y-82869000I0J200000D01*
G01*
X93872500Y-81469000D01*
G75*
G02*
X94072500Y-81269000I200000J0D01*
G01*
X95072500Y-81269000D01*
G75*
G02*
X95272500Y-81469000I0J-200000D01*
G01*
X95272500Y-82869000D01*
G75*
G02*
X95072500Y-83069000I-200000J0D01*
G01*
G37*
G36*
G01*
X95072500Y-86619000D02*
X94072500Y-86619000D01*
G75*
G02*
X93872500Y-86419000I0J200000D01*
G01*
X93872500Y-85019000D01*
G75*
G02*
X94072500Y-84819000I200000J0D01*
G01*
X95072500Y-84819000D01*
G75*
G02*
X95272500Y-85019000I0J-200000D01*
G01*
X95272500Y-86419000D01*
G75*
G02*
X95072500Y-86619000I-200000J0D01*
G01*
G37*
G36*
G01*
X141622500Y-65704000D02*
X140622500Y-65704000D01*
G75*
G02*
X140422500Y-65504000I0J200000D01*
G01*
X140422500Y-64104000D01*
G75*
G02*
X140622500Y-63904000I200000J0D01*
G01*
X141622500Y-63904000D01*
G75*
G02*
X141822500Y-64104000I0J-200000D01*
G01*
X141822500Y-65504000D01*
G75*
G02*
X141622500Y-65704000I-200000J0D01*
G01*
G37*
G36*
G01*
X141622500Y-69254000D02*
X140622500Y-69254000D01*
G75*
G02*
X140422500Y-69054000I0J200000D01*
G01*
X140422500Y-67654000D01*
G75*
G02*
X140622500Y-67454000I200000J0D01*
G01*
X141622500Y-67454000D01*
G75*
G02*
X141822500Y-67654000I0J-200000D01*
G01*
X141822500Y-69054000D01*
G75*
G02*
X141622500Y-69254000I-200000J0D01*
G01*
G37*
G36*
G01*
X141622500Y-46704000D02*
X140622500Y-46704000D01*
G75*
G02*
X140422500Y-46504000I0J200000D01*
G01*
X140422500Y-45104000D01*
G75*
G02*
X140622500Y-44904000I200000J0D01*
G01*
X141622500Y-44904000D01*
G75*
G02*
X141822500Y-45104000I0J-200000D01*
G01*
X141822500Y-46504000D01*
G75*
G02*
X141622500Y-46704000I-200000J0D01*
G01*
G37*
G36*
G01*
X141622500Y-50254000D02*
X140622500Y-50254000D01*
G75*
G02*
X140422500Y-50054000I0J200000D01*
G01*
X140422500Y-48654000D01*
G75*
G02*
X140622500Y-48454000I200000J0D01*
G01*
X141622500Y-48454000D01*
G75*
G02*
X141822500Y-48654000I0J-200000D01*
G01*
X141822500Y-50054000D01*
G75*
G02*
X141622500Y-50254000I-200000J0D01*
G01*
G37*
D10*
X160716500Y-77949000D03*
X146284500Y-69428000D03*
D11*
X137745500Y-84309000D03*
X91179500Y-76694500D03*
X123990500Y-36939500D03*
X48022500Y-59454000D03*
G36*
G01*
X46649500Y-30075875D02*
X45649500Y-30075875D01*
G75*
G02*
X45449500Y-29875875I0J200000D01*
G01*
X45449500Y-28475875D01*
G75*
G02*
X45649500Y-28275875I200000J0D01*
G01*
X46649500Y-28275875D01*
G75*
G02*
X46849500Y-28475875I0J-200000D01*
G01*
X46849500Y-29875875D01*
G75*
G02*
X46649500Y-30075875I-200000J0D01*
G01*
G37*
G36*
G01*
X46649500Y-33625875D02*
X45649500Y-33625875D01*
G75*
G02*
X45449500Y-33425875I0J200000D01*
G01*
X45449500Y-32025875D01*
G75*
G02*
X45649500Y-31825875I200000J0D01*
G01*
X46649500Y-31825875D01*
G75*
G02*
X46849500Y-32025875I0J-200000D01*
G01*
X46849500Y-33425875D01*
G75*
G02*
X46649500Y-33625875I-200000J0D01*
G01*
G37*
G36*
G01*
X84622500Y-25079000D02*
X83622500Y-25079000D01*
G75*
G02*
X83422500Y-24879000I0J200000D01*
G01*
X83422500Y-23479000D01*
G75*
G02*
X83622500Y-23279000I200000J0D01*
G01*
X84622500Y-23279000D01*
G75*
G02*
X84822500Y-23479000I0J-200000D01*
G01*
X84822500Y-24879000D01*
G75*
G02*
X84622500Y-25079000I-200000J0D01*
G01*
G37*
G36*
G01*
X84622500Y-28629000D02*
X83622500Y-28629000D01*
G75*
G02*
X83422500Y-28429000I0J200000D01*
G01*
X83422500Y-27029000D01*
G75*
G02*
X83622500Y-26829000I200000J0D01*
G01*
X84622500Y-26829000D01*
G75*
G02*
X84822500Y-27029000I0J-200000D01*
G01*
X84822500Y-28429000D01*
G75*
G02*
X84622500Y-28629000I-200000J0D01*
G01*
G37*
G36*
G01*
X103622500Y-22954000D02*
X102622500Y-22954000D01*
G75*
G02*
X102422500Y-22754000I0J200000D01*
G01*
X102422500Y-21354000D01*
G75*
G02*
X102622500Y-21154000I200000J0D01*
G01*
X103622500Y-21154000D01*
G75*
G02*
X103822500Y-21354000I0J-200000D01*
G01*
X103822500Y-22754000D01*
G75*
G02*
X103622500Y-22954000I-200000J0D01*
G01*
G37*
G36*
G01*
X103622500Y-26504000D02*
X102622500Y-26504000D01*
G75*
G02*
X102422500Y-26304000I0J200000D01*
G01*
X102422500Y-24904000D01*
G75*
G02*
X102622500Y-24704000I200000J0D01*
G01*
X103622500Y-24704000D01*
G75*
G02*
X103822500Y-24904000I0J-200000D01*
G01*
X103822500Y-26304000D01*
G75*
G02*
X103622500Y-26504000I-200000J0D01*
G01*
G37*
G36*
G01*
X141622500Y-27704000D02*
X140622500Y-27704000D01*
G75*
G02*
X140422500Y-27504000I0J200000D01*
G01*
X140422500Y-26104000D01*
G75*
G02*
X140622500Y-25904000I200000J0D01*
G01*
X141622500Y-25904000D01*
G75*
G02*
X141822500Y-26104000I0J-200000D01*
G01*
X141822500Y-27504000D01*
G75*
G02*
X141622500Y-27704000I-200000J0D01*
G01*
G37*
G36*
G01*
X141622500Y-31254000D02*
X140622500Y-31254000D01*
G75*
G02*
X140422500Y-31054000I0J200000D01*
G01*
X140422500Y-29654000D01*
G75*
G02*
X140622500Y-29454000I200000J0D01*
G01*
X141622500Y-29454000D01*
G75*
G02*
X141822500Y-29654000I0J-200000D01*
G01*
X141822500Y-31054000D01*
G75*
G02*
X141622500Y-31254000I-200000J0D01*
G01*
G37*
G36*
G01*
X122622500Y-25329000D02*
X121622500Y-25329000D01*
G75*
G02*
X121422500Y-25129000I0J200000D01*
G01*
X121422500Y-23729000D01*
G75*
G02*
X121622500Y-23529000I200000J0D01*
G01*
X122622500Y-23529000D01*
G75*
G02*
X122822500Y-23729000I0J-200000D01*
G01*
X122822500Y-25129000D01*
G75*
G02*
X122622500Y-25329000I-200000J0D01*
G01*
G37*
G36*
G01*
X122622500Y-28879000D02*
X121622500Y-28879000D01*
G75*
G02*
X121422500Y-28679000I0J200000D01*
G01*
X121422500Y-27279000D01*
G75*
G02*
X121622500Y-27079000I200000J0D01*
G01*
X122622500Y-27079000D01*
G75*
G02*
X122822500Y-27279000I0J-200000D01*
G01*
X122822500Y-28679000D01*
G75*
G02*
X122622500Y-28879000I-200000J0D01*
G01*
G37*
G36*
G01*
X65649500Y-30079000D02*
X64649500Y-30079000D01*
G75*
G02*
X64449500Y-29879000I0J200000D01*
G01*
X64449500Y-28479000D01*
G75*
G02*
X64649500Y-28279000I200000J0D01*
G01*
X65649500Y-28279000D01*
G75*
G02*
X65849500Y-28479000I0J-200000D01*
G01*
X65849500Y-29879000D01*
G75*
G02*
X65649500Y-30079000I-200000J0D01*
G01*
G37*
G36*
G01*
X65649500Y-33629000D02*
X64649500Y-33629000D01*
G75*
G02*
X64449500Y-33429000I0J200000D01*
G01*
X64449500Y-32029000D01*
G75*
G02*
X64649500Y-31829000I200000J0D01*
G01*
X65649500Y-31829000D01*
G75*
G02*
X65849500Y-32029000I0J-200000D01*
G01*
X65849500Y-33429000D01*
G75*
G02*
X65649500Y-33629000I-200000J0D01*
G01*
G37*
G36*
G01*
X122622500Y-44329000D02*
X121622500Y-44329000D01*
G75*
G02*
X121422500Y-44129000I0J200000D01*
G01*
X121422500Y-42729000D01*
G75*
G02*
X121622500Y-42529000I200000J0D01*
G01*
X122622500Y-42529000D01*
G75*
G02*
X122822500Y-42729000I0J-200000D01*
G01*
X122822500Y-44129000D01*
G75*
G02*
X122622500Y-44329000I-200000J0D01*
G01*
G37*
G36*
G01*
X122622500Y-47879000D02*
X121622500Y-47879000D01*
G75*
G02*
X121422500Y-47679000I0J200000D01*
G01*
X121422500Y-46279000D01*
G75*
G02*
X121622500Y-46079000I200000J0D01*
G01*
X122622500Y-46079000D01*
G75*
G02*
X122822500Y-46279000I0J-200000D01*
G01*
X122822500Y-47679000D01*
G75*
G02*
X122622500Y-47879000I-200000J0D01*
G01*
G37*
G36*
G01*
X84622500Y-44329000D02*
X83622500Y-44329000D01*
G75*
G02*
X83422500Y-44129000I0J200000D01*
G01*
X83422500Y-42729000D01*
G75*
G02*
X83622500Y-42529000I200000J0D01*
G01*
X84622500Y-42529000D01*
G75*
G02*
X84822500Y-42729000I0J-200000D01*
G01*
X84822500Y-44129000D01*
G75*
G02*
X84622500Y-44329000I-200000J0D01*
G01*
G37*
G36*
G01*
X84622500Y-47879000D02*
X83622500Y-47879000D01*
G75*
G02*
X83422500Y-47679000I0J200000D01*
G01*
X83422500Y-46279000D01*
G75*
G02*
X83622500Y-46079000I200000J0D01*
G01*
X84622500Y-46079000D01*
G75*
G02*
X84822500Y-46279000I0J-200000D01*
G01*
X84822500Y-47679000D01*
G75*
G02*
X84622500Y-47879000I-200000J0D01*
G01*
G37*
G36*
G01*
X136922500Y-73979000D02*
X136922500Y-74979000D01*
G75*
G02*
X136722500Y-75179000I-200000J0D01*
G01*
X135222500Y-75179000D01*
G75*
G02*
X135022500Y-74979000I0J200000D01*
G01*
X135022500Y-73979000D01*
G75*
G02*
X135222500Y-73779000I200000J0D01*
G01*
X136722500Y-73779000D01*
G75*
G02*
X136922500Y-73979000I0J-200000D01*
G01*
G37*
G36*
G01*
X136922500Y-77179000D02*
X136922500Y-78179000D01*
G75*
G02*
X136722500Y-78379000I-200000J0D01*
G01*
X135222500Y-78379000D01*
G75*
G02*
X135022500Y-78179000I0J200000D01*
G01*
X135022500Y-77179000D01*
G75*
G02*
X135222500Y-76979000I200000J0D01*
G01*
X136722500Y-76979000D01*
G75*
G02*
X136922500Y-77179000I0J-200000D01*
G01*
G37*
G36*
G01*
X132022500Y-73979000D02*
X132022500Y-74979000D01*
G75*
G02*
X131822500Y-75179000I-200000J0D01*
G01*
X130322500Y-75179000D01*
G75*
G02*
X130122500Y-74979000I0J200000D01*
G01*
X130122500Y-73979000D01*
G75*
G02*
X130322500Y-73779000I200000J0D01*
G01*
X131822500Y-73779000D01*
G75*
G02*
X132022500Y-73979000I0J-200000D01*
G01*
G37*
G36*
G01*
X132022500Y-77179000D02*
X132022500Y-78179000D01*
G75*
G02*
X131822500Y-78379000I-200000J0D01*
G01*
X130322500Y-78379000D01*
G75*
G02*
X130122500Y-78179000I0J200000D01*
G01*
X130122500Y-77179000D01*
G75*
G02*
X130322500Y-76979000I200000J0D01*
G01*
X131822500Y-76979000D01*
G75*
G02*
X132022500Y-77179000I0J-200000D01*
G01*
G37*
X48022500Y-40454000D03*
D12*
X145618900Y-27116000D03*
X145618900Y-29656000D03*
X145618900Y-32196000D03*
X145618900Y-34736000D03*
X145618900Y-37276000D03*
X145618900Y-39816000D03*
X145618900Y-42356000D03*
X145618900Y-44896000D03*
X145618900Y-47436000D03*
X145618900Y-49976000D03*
X145618900Y-52516000D03*
X145618900Y-55056000D03*
X160838900Y-55056000D03*
X160838900Y-52516000D03*
X160838900Y-49976000D03*
X160838900Y-47436000D03*
X160838900Y-44896000D03*
X160838900Y-42356000D03*
X160838900Y-39816000D03*
X160838900Y-37276000D03*
X160838900Y-34736000D03*
X160838900Y-32196000D03*
X160838900Y-29656000D03*
X160838900Y-27116000D03*
D13*
X145143091Y-85589295D03*
X144167795Y-92358557D03*
G36*
G01*
X146449059Y-80827293D02*
X148614123Y-82077293D01*
G75*
G02*
X148687328Y-82350498I-100000J-173205D01*
G01*
X147412328Y-84558862D01*
G75*
G02*
X147139123Y-84632067I-173205J100000D01*
G01*
X144974059Y-83382067D01*
G75*
G02*
X144900854Y-83108862I100000J173205D01*
G01*
X146175854Y-80900498D01*
G75*
G02*
X146449059Y-80827293I173205J-100000D01*
G01*
G37*
D14*
X145732500Y-94728409D03*
X150812500Y-85929591D03*
D15*
X148272500Y-90329000D03*
G36*
G01*
X142185263Y-93292403D02*
X144350327Y-94542403D01*
G75*
G02*
X144423532Y-94815608I-100000J-173205D01*
G01*
X143148532Y-97023972D01*
G75*
G02*
X142875327Y-97097177I-173205J100000D01*
G01*
X140710263Y-95847177D01*
G75*
G02*
X140637058Y-95573972I100000J173205D01*
G01*
X141912058Y-93365608D01*
G75*
G02*
X142185263Y-93292403I173205J-100000D01*
G01*
G37*
G36*
G01*
X60922500Y-38354000D02*
X60922500Y-39354000D01*
G75*
G02*
X60722500Y-39554000I-200000J0D01*
G01*
X59222500Y-39554000D01*
G75*
G02*
X59022500Y-39354000I0J200000D01*
G01*
X59022500Y-38354000D01*
G75*
G02*
X59222500Y-38154000I200000J0D01*
G01*
X60722500Y-38154000D01*
G75*
G02*
X60922500Y-38354000I0J-200000D01*
G01*
G37*
G36*
G01*
X60922500Y-41554000D02*
X60922500Y-42554000D01*
G75*
G02*
X60722500Y-42754000I-200000J0D01*
G01*
X59222500Y-42754000D01*
G75*
G02*
X59022500Y-42554000I0J200000D01*
G01*
X59022500Y-41554000D01*
G75*
G02*
X59222500Y-41354000I200000J0D01*
G01*
X60722500Y-41354000D01*
G75*
G02*
X60922500Y-41554000I0J-200000D01*
G01*
G37*
G36*
G01*
X56022500Y-38354000D02*
X56022500Y-39354000D01*
G75*
G02*
X55822500Y-39554000I-200000J0D01*
G01*
X54322500Y-39554000D01*
G75*
G02*
X54122500Y-39354000I0J200000D01*
G01*
X54122500Y-38354000D01*
G75*
G02*
X54322500Y-38154000I200000J0D01*
G01*
X55822500Y-38154000D01*
G75*
G02*
X56022500Y-38354000I0J-200000D01*
G01*
G37*
G36*
G01*
X56022500Y-41554000D02*
X56022500Y-42554000D01*
G75*
G02*
X55822500Y-42754000I-200000J0D01*
G01*
X54322500Y-42754000D01*
G75*
G02*
X54122500Y-42554000I0J200000D01*
G01*
X54122500Y-41554000D01*
G75*
G02*
X54322500Y-41354000I200000J0D01*
G01*
X55822500Y-41354000D01*
G75*
G02*
X56022500Y-41554000I0J-200000D01*
G01*
G37*
D16*
X160839500Y-58455000D03*
X160839500Y-64955000D03*
G36*
G01*
X60922500Y-57354000D02*
X60922500Y-58354000D01*
G75*
G02*
X60722500Y-58554000I-200000J0D01*
G01*
X59222500Y-58554000D01*
G75*
G02*
X59022500Y-58354000I0J200000D01*
G01*
X59022500Y-57354000D01*
G75*
G02*
X59222500Y-57154000I200000J0D01*
G01*
X60722500Y-57154000D01*
G75*
G02*
X60922500Y-57354000I0J-200000D01*
G01*
G37*
G36*
G01*
X60922500Y-60554000D02*
X60922500Y-61554000D01*
G75*
G02*
X60722500Y-61754000I-200000J0D01*
G01*
X59222500Y-61754000D01*
G75*
G02*
X59022500Y-61554000I0J200000D01*
G01*
X59022500Y-60554000D01*
G75*
G02*
X59222500Y-60354000I200000J0D01*
G01*
X60722500Y-60354000D01*
G75*
G02*
X60922500Y-60554000I0J-200000D01*
G01*
G37*
G36*
G01*
X56022500Y-57354000D02*
X56022500Y-58354000D01*
G75*
G02*
X55822500Y-58554000I-200000J0D01*
G01*
X54322500Y-58554000D01*
G75*
G02*
X54122500Y-58354000I0J200000D01*
G01*
X54122500Y-57354000D01*
G75*
G02*
X54322500Y-57154000I200000J0D01*
G01*
X55822500Y-57154000D01*
G75*
G02*
X56022500Y-57354000I0J-200000D01*
G01*
G37*
G36*
G01*
X56022500Y-60554000D02*
X56022500Y-61554000D01*
G75*
G02*
X55822500Y-61754000I-200000J0D01*
G01*
X54322500Y-61754000D01*
G75*
G02*
X54122500Y-61554000I0J200000D01*
G01*
X54122500Y-60554000D01*
G75*
G02*
X54322500Y-60354000I200000J0D01*
G01*
X55822500Y-60354000D01*
G75*
G02*
X56022500Y-60554000I0J-200000D01*
G01*
G37*
D17*
X156983500Y-62202000D03*
X154443500Y-62202000D03*
X151903500Y-62202000D03*
X149363500Y-62202000D03*
G36*
G01*
X98922500Y-69229000D02*
X98922500Y-70229000D01*
G75*
G02*
X98722500Y-70429000I-200000J0D01*
G01*
X97222500Y-70429000D01*
G75*
G02*
X97022500Y-70229000I0J200000D01*
G01*
X97022500Y-69229000D01*
G75*
G02*
X97222500Y-69029000I200000J0D01*
G01*
X98722500Y-69029000D01*
G75*
G02*
X98922500Y-69229000I0J-200000D01*
G01*
G37*
G36*
G01*
X98922500Y-72429000D02*
X98922500Y-73429000D01*
G75*
G02*
X98722500Y-73629000I-200000J0D01*
G01*
X97222500Y-73629000D01*
G75*
G02*
X97022500Y-73429000I0J200000D01*
G01*
X97022500Y-72429000D01*
G75*
G02*
X97222500Y-72229000I200000J0D01*
G01*
X98722500Y-72229000D01*
G75*
G02*
X98922500Y-72429000I0J-200000D01*
G01*
G37*
G36*
G01*
X94022500Y-69229000D02*
X94022500Y-70229000D01*
G75*
G02*
X93822500Y-70429000I-200000J0D01*
G01*
X92322500Y-70429000D01*
G75*
G02*
X92122500Y-70229000I0J200000D01*
G01*
X92122500Y-69229000D01*
G75*
G02*
X92322500Y-69029000I200000J0D01*
G01*
X93822500Y-69029000D01*
G75*
G02*
X94022500Y-69229000I0J-200000D01*
G01*
G37*
G36*
G01*
X94022500Y-72429000D02*
X94022500Y-73429000D01*
G75*
G02*
X93822500Y-73629000I-200000J0D01*
G01*
X92322500Y-73629000D01*
G75*
G02*
X92122500Y-73429000I0J200000D01*
G01*
X92122500Y-72429000D01*
G75*
G02*
X92322500Y-72229000I200000J0D01*
G01*
X93822500Y-72229000D01*
G75*
G02*
X94022500Y-72429000I0J-200000D01*
G01*
G37*
D18*
X150749500Y-67366000D03*
X152249500Y-71566000D03*
X156249500Y-71566000D03*
X159249500Y-71566000D03*
D19*
X154049500Y-69466000D03*
X161049500Y-69466000D03*
G36*
G01*
X98922500Y-31229000D02*
X98922500Y-32229000D01*
G75*
G02*
X98722500Y-32429000I-200000J0D01*
G01*
X97222500Y-32429000D01*
G75*
G02*
X97022500Y-32229000I0J200000D01*
G01*
X97022500Y-31229000D01*
G75*
G02*
X97222500Y-31029000I200000J0D01*
G01*
X98722500Y-31029000D01*
G75*
G02*
X98922500Y-31229000I0J-200000D01*
G01*
G37*
G36*
G01*
X98922500Y-34429000D02*
X98922500Y-35429000D01*
G75*
G02*
X98722500Y-35629000I-200000J0D01*
G01*
X97222500Y-35629000D01*
G75*
G02*
X97022500Y-35429000I0J200000D01*
G01*
X97022500Y-34429000D01*
G75*
G02*
X97222500Y-34229000I200000J0D01*
G01*
X98722500Y-34229000D01*
G75*
G02*
X98922500Y-34429000I0J-200000D01*
G01*
G37*
G36*
G01*
X94022500Y-31229000D02*
X94022500Y-32229000D01*
G75*
G02*
X93822500Y-32429000I-200000J0D01*
G01*
X92322500Y-32429000D01*
G75*
G02*
X92122500Y-32229000I0J200000D01*
G01*
X92122500Y-31229000D01*
G75*
G02*
X92322500Y-31029000I200000J0D01*
G01*
X93822500Y-31029000D01*
G75*
G02*
X94022500Y-31229000I0J-200000D01*
G01*
G37*
G36*
G01*
X94022500Y-34429000D02*
X94022500Y-35429000D01*
G75*
G02*
X93822500Y-35629000I-200000J0D01*
G01*
X92322500Y-35629000D01*
G75*
G02*
X92122500Y-35429000I0J200000D01*
G01*
X92122500Y-34429000D01*
G75*
G02*
X92322500Y-34229000I200000J0D01*
G01*
X93822500Y-34229000D01*
G75*
G02*
X94022500Y-34429000I0J-200000D01*
G01*
G37*
G36*
G01*
X136922500Y-35979000D02*
X136922500Y-36979000D01*
G75*
G02*
X136722500Y-37179000I-200000J0D01*
G01*
X135222500Y-37179000D01*
G75*
G02*
X135022500Y-36979000I0J200000D01*
G01*
X135022500Y-35979000D01*
G75*
G02*
X135222500Y-35779000I200000J0D01*
G01*
X136722500Y-35779000D01*
G75*
G02*
X136922500Y-35979000I0J-200000D01*
G01*
G37*
G36*
G01*
X136922500Y-39179000D02*
X136922500Y-40179000D01*
G75*
G02*
X136722500Y-40379000I-200000J0D01*
G01*
X135222500Y-40379000D01*
G75*
G02*
X135022500Y-40179000I0J200000D01*
G01*
X135022500Y-39179000D01*
G75*
G02*
X135222500Y-38979000I200000J0D01*
G01*
X136722500Y-38979000D01*
G75*
G02*
X136922500Y-39179000I0J-200000D01*
G01*
G37*
G36*
G01*
X132022500Y-35979000D02*
X132022500Y-36979000D01*
G75*
G02*
X131822500Y-37179000I-200000J0D01*
G01*
X130322500Y-37179000D01*
G75*
G02*
X130122500Y-36979000I0J200000D01*
G01*
X130122500Y-35979000D01*
G75*
G02*
X130322500Y-35779000I200000J0D01*
G01*
X131822500Y-35779000D01*
G75*
G02*
X132022500Y-35979000I0J-200000D01*
G01*
G37*
G36*
G01*
X132022500Y-39179000D02*
X132022500Y-40179000D01*
G75*
G02*
X131822500Y-40379000I-200000J0D01*
G01*
X130322500Y-40379000D01*
G75*
G02*
X130122500Y-40179000I0J200000D01*
G01*
X130122500Y-39179000D01*
G75*
G02*
X130322500Y-38979000I200000J0D01*
G01*
X131822500Y-38979000D01*
G75*
G02*
X132022500Y-39179000I0J-200000D01*
G01*
G37*
D13*
X136062500Y-42499000D03*
X129712500Y-45039000D03*
G36*
G01*
X140839500Y-41249000D02*
X140839500Y-43749000D01*
G75*
G02*
X140639500Y-43949000I-200000J0D01*
G01*
X138089500Y-43949000D01*
G75*
G02*
X137889500Y-43749000I0J200000D01*
G01*
X137889500Y-41249000D01*
G75*
G02*
X138089500Y-41049000I200000J0D01*
G01*
X140639500Y-41049000D01*
G75*
G02*
X140839500Y-41249000I0J-200000D01*
G01*
G37*
D14*
X128442500Y-47579000D03*
X138602500Y-47579000D03*
D15*
X133522500Y-47579000D03*
G36*
G01*
X127912500Y-43789000D02*
X127912500Y-46289000D01*
G75*
G02*
X127712500Y-46489000I-200000J0D01*
G01*
X125162500Y-46489000D01*
G75*
G02*
X124962500Y-46289000I0J200000D01*
G01*
X124962500Y-43789000D01*
G75*
G02*
X125162500Y-43589000I200000J0D01*
G01*
X127712500Y-43589000D01*
G75*
G02*
X127912500Y-43789000I0J-200000D01*
G01*
G37*
D13*
X117062500Y-21124000D03*
X110712500Y-23664000D03*
G36*
G01*
X121839500Y-19874000D02*
X121839500Y-22374000D01*
G75*
G02*
X121639500Y-22574000I-200000J0D01*
G01*
X119089500Y-22574000D01*
G75*
G02*
X118889500Y-22374000I0J200000D01*
G01*
X118889500Y-19874000D01*
G75*
G02*
X119089500Y-19674000I200000J0D01*
G01*
X121639500Y-19674000D01*
G75*
G02*
X121839500Y-19874000I0J-200000D01*
G01*
G37*
D14*
X109442500Y-26204000D03*
X119602500Y-26204000D03*
D15*
X114522500Y-26204000D03*
G36*
G01*
X108912500Y-22414000D02*
X108912500Y-24914000D01*
G75*
G02*
X108712500Y-25114000I-200000J0D01*
G01*
X106162500Y-25114000D01*
G75*
G02*
X105962500Y-24914000I0J200000D01*
G01*
X105962500Y-22414000D01*
G75*
G02*
X106162500Y-22214000I200000J0D01*
G01*
X108712500Y-22214000D01*
G75*
G02*
X108912500Y-22414000I0J-200000D01*
G01*
G37*
D13*
X79062500Y-59124000D03*
X72712500Y-61664000D03*
G36*
G01*
X83839500Y-57874000D02*
X83839500Y-60374000D01*
G75*
G02*
X83639500Y-60574000I-200000J0D01*
G01*
X81089500Y-60574000D01*
G75*
G02*
X80889500Y-60374000I0J200000D01*
G01*
X80889500Y-57874000D01*
G75*
G02*
X81089500Y-57674000I200000J0D01*
G01*
X83639500Y-57674000D01*
G75*
G02*
X83839500Y-57874000I0J-200000D01*
G01*
G37*
D14*
X71442500Y-64204000D03*
X81602500Y-64204000D03*
D15*
X76522500Y-64204000D03*
G36*
G01*
X70912500Y-60414000D02*
X70912500Y-62914000D01*
G75*
G02*
X70712500Y-63114000I-200000J0D01*
G01*
X68162500Y-63114000D01*
G75*
G02*
X67962500Y-62914000I0J200000D01*
G01*
X67962500Y-60414000D01*
G75*
G02*
X68162500Y-60214000I200000J0D01*
G01*
X70712500Y-60214000D01*
G75*
G02*
X70912500Y-60414000I0J-200000D01*
G01*
G37*
D13*
X60062500Y-44874000D03*
X53712500Y-47414000D03*
G36*
G01*
X64839500Y-43624000D02*
X64839500Y-46124000D01*
G75*
G02*
X64639500Y-46324000I-200000J0D01*
G01*
X62089500Y-46324000D01*
G75*
G02*
X61889500Y-46124000I0J200000D01*
G01*
X61889500Y-43624000D01*
G75*
G02*
X62089500Y-43424000I200000J0D01*
G01*
X64639500Y-43424000D01*
G75*
G02*
X64839500Y-43624000I0J-200000D01*
G01*
G37*
D14*
X52442500Y-49954000D03*
X62602500Y-49954000D03*
D15*
X57522500Y-49954000D03*
G36*
G01*
X51912500Y-46164000D02*
X51912500Y-48664000D01*
G75*
G02*
X51712500Y-48864000I-200000J0D01*
G01*
X49162500Y-48864000D01*
G75*
G02*
X48962500Y-48664000I0J200000D01*
G01*
X48962500Y-46164000D01*
G75*
G02*
X49162500Y-45964000I200000J0D01*
G01*
X51712500Y-45964000D01*
G75*
G02*
X51912500Y-46164000I0J-200000D01*
G01*
G37*
D13*
X136062500Y-61499000D03*
X129712500Y-64039000D03*
G36*
G01*
X140839500Y-60249000D02*
X140839500Y-62749000D01*
G75*
G02*
X140639500Y-62949000I-200000J0D01*
G01*
X138089500Y-62949000D01*
G75*
G02*
X137889500Y-62749000I0J200000D01*
G01*
X137889500Y-60249000D01*
G75*
G02*
X138089500Y-60049000I200000J0D01*
G01*
X140639500Y-60049000D01*
G75*
G02*
X140839500Y-60249000I0J-200000D01*
G01*
G37*
D14*
X128442500Y-66579000D03*
X138602500Y-66579000D03*
D15*
X133522500Y-66579000D03*
G36*
G01*
X127912500Y-62789000D02*
X127912500Y-65289000D01*
G75*
G02*
X127712500Y-65489000I-200000J0D01*
G01*
X125162500Y-65489000D01*
G75*
G02*
X124962500Y-65289000I0J200000D01*
G01*
X124962500Y-62789000D01*
G75*
G02*
X125162500Y-62589000I200000J0D01*
G01*
X127712500Y-62589000D01*
G75*
G02*
X127912500Y-62789000I0J-200000D01*
G01*
G37*
D13*
X107562500Y-78749000D03*
X101212500Y-81289000D03*
G36*
G01*
X112339500Y-77499000D02*
X112339500Y-79999000D01*
G75*
G02*
X112139500Y-80199000I-200000J0D01*
G01*
X109589500Y-80199000D01*
G75*
G02*
X109389500Y-79999000I0J200000D01*
G01*
X109389500Y-77499000D01*
G75*
G02*
X109589500Y-77299000I200000J0D01*
G01*
X112139500Y-77299000D01*
G75*
G02*
X112339500Y-77499000I0J-200000D01*
G01*
G37*
D14*
X99942500Y-83829000D03*
X110102500Y-83829000D03*
D15*
X105022500Y-83829000D03*
G36*
G01*
X99412500Y-80039000D02*
X99412500Y-82539000D01*
G75*
G02*
X99212500Y-82739000I-200000J0D01*
G01*
X96662500Y-82739000D01*
G75*
G02*
X96462500Y-82539000I0J200000D01*
G01*
X96462500Y-80039000D01*
G75*
G02*
X96662500Y-79839000I200000J0D01*
G01*
X99212500Y-79839000D01*
G75*
G02*
X99412500Y-80039000I0J-200000D01*
G01*
G37*
D13*
X129790752Y-82329497D03*
X122999723Y-83139448D03*
G36*
G01*
X134728503Y-82358469D02*
X134081456Y-84773284D01*
G75*
G02*
X133836507Y-84914705I-193185J51764D01*
G01*
X131373396Y-84254716D01*
G75*
G02*
X131231975Y-84009767I51764J193185D01*
G01*
X131879022Y-81594952D01*
G75*
G02*
X132123971Y-81453531I193185J-51764D01*
G01*
X134587082Y-82113520D01*
G75*
G02*
X134728503Y-82358469I-51764J-193185D01*
G01*
G37*
D14*
X121115597Y-85264199D03*
X130929403Y-87893801D03*
D15*
X126022500Y-86579000D03*
G36*
G01*
X121584580Y-81466166D02*
X120937533Y-83880981D01*
G75*
G02*
X120692584Y-84022402I-193185J51764D01*
G01*
X118229473Y-83362413D01*
G75*
G02*
X118088052Y-83117464I51764J193185D01*
G01*
X118735099Y-80702649D01*
G75*
G02*
X118980048Y-80561228I193185J-51764D01*
G01*
X121443159Y-81221217D01*
G75*
G02*
X121584580Y-81466166I-51764J-193185D01*
G01*
G37*
D13*
X79062500Y-21124000D03*
X72712500Y-23664000D03*
G36*
G01*
X83839500Y-19874000D02*
X83839500Y-22374000D01*
G75*
G02*
X83639500Y-22574000I-200000J0D01*
G01*
X81089500Y-22574000D01*
G75*
G02*
X80889500Y-22374000I0J200000D01*
G01*
X80889500Y-19874000D01*
G75*
G02*
X81089500Y-19674000I200000J0D01*
G01*
X83639500Y-19674000D01*
G75*
G02*
X83839500Y-19874000I0J-200000D01*
G01*
G37*
D14*
X71442500Y-26204000D03*
X81602500Y-26204000D03*
D15*
X76522500Y-26204000D03*
G36*
G01*
X70912500Y-22414000D02*
X70912500Y-24914000D01*
G75*
G02*
X70712500Y-25114000I-200000J0D01*
G01*
X68162500Y-25114000D01*
G75*
G02*
X67962500Y-24914000I0J200000D01*
G01*
X67962500Y-22414000D01*
G75*
G02*
X68162500Y-22214000I200000J0D01*
G01*
X70712500Y-22214000D01*
G75*
G02*
X70912500Y-22414000I0J-200000D01*
G01*
G37*
D13*
X41062500Y-44874000D03*
X34712500Y-47414000D03*
G36*
G01*
X45839500Y-43624000D02*
X45839500Y-46124000D01*
G75*
G02*
X45639500Y-46324000I-200000J0D01*
G01*
X43089500Y-46324000D01*
G75*
G02*
X42889500Y-46124000I0J200000D01*
G01*
X42889500Y-43624000D01*
G75*
G02*
X43089500Y-43424000I200000J0D01*
G01*
X45639500Y-43424000D01*
G75*
G02*
X45839500Y-43624000I0J-200000D01*
G01*
G37*
D14*
X33442500Y-49954000D03*
X43602500Y-49954000D03*
D15*
X38522500Y-49954000D03*
G36*
G01*
X32912500Y-46164000D02*
X32912500Y-48664000D01*
G75*
G02*
X32712500Y-48864000I-200000J0D01*
G01*
X30162500Y-48864000D01*
G75*
G02*
X29962500Y-48664000I0J200000D01*
G01*
X29962500Y-46164000D01*
G75*
G02*
X30162500Y-45964000I200000J0D01*
G01*
X32712500Y-45964000D01*
G75*
G02*
X32912500Y-46164000I0J-200000D01*
G01*
G37*
D13*
X98062500Y-18749000D03*
X91712500Y-21289000D03*
G36*
G01*
X102839500Y-17499000D02*
X102839500Y-19999000D01*
G75*
G02*
X102639500Y-20199000I-200000J0D01*
G01*
X100089500Y-20199000D01*
G75*
G02*
X99889500Y-19999000I0J200000D01*
G01*
X99889500Y-17499000D01*
G75*
G02*
X100089500Y-17299000I200000J0D01*
G01*
X102639500Y-17299000D01*
G75*
G02*
X102839500Y-17499000I0J-200000D01*
G01*
G37*
D14*
X90442500Y-23829000D03*
X100602500Y-23829000D03*
D15*
X95522500Y-23829000D03*
G36*
G01*
X89912500Y-20039000D02*
X89912500Y-22539000D01*
G75*
G02*
X89712500Y-22739000I-200000J0D01*
G01*
X87162500Y-22739000D01*
G75*
G02*
X86962500Y-22539000I0J200000D01*
G01*
X86962500Y-20039000D01*
G75*
G02*
X87162500Y-19839000I200000J0D01*
G01*
X89712500Y-19839000D01*
G75*
G02*
X89912500Y-20039000I0J-200000D01*
G01*
G37*
D13*
X98062500Y-56749000D03*
X91712500Y-59289000D03*
G36*
G01*
X102839500Y-55499000D02*
X102839500Y-57999000D01*
G75*
G02*
X102639500Y-58199000I-200000J0D01*
G01*
X100089500Y-58199000D01*
G75*
G02*
X99889500Y-57999000I0J200000D01*
G01*
X99889500Y-55499000D01*
G75*
G02*
X100089500Y-55299000I200000J0D01*
G01*
X102639500Y-55299000D01*
G75*
G02*
X102839500Y-55499000I0J-200000D01*
G01*
G37*
D14*
X90442500Y-61829000D03*
X100602500Y-61829000D03*
D15*
X95522500Y-61829000D03*
G36*
G01*
X89912500Y-58039000D02*
X89912500Y-60539000D01*
G75*
G02*
X89712500Y-60739000I-200000J0D01*
G01*
X87162500Y-60739000D01*
G75*
G02*
X86962500Y-60539000I0J200000D01*
G01*
X86962500Y-58039000D01*
G75*
G02*
X87162500Y-57839000I200000J0D01*
G01*
X89712500Y-57839000D01*
G75*
G02*
X89912500Y-58039000I0J-200000D01*
G01*
G37*
D13*
X117062500Y-59124000D03*
X110712500Y-61664000D03*
G36*
G01*
X121839500Y-57874000D02*
X121839500Y-60374000D01*
G75*
G02*
X121639500Y-60574000I-200000J0D01*
G01*
X119089500Y-60574000D01*
G75*
G02*
X118889500Y-60374000I0J200000D01*
G01*
X118889500Y-57874000D01*
G75*
G02*
X119089500Y-57674000I200000J0D01*
G01*
X121639500Y-57674000D01*
G75*
G02*
X121839500Y-57874000I0J-200000D01*
G01*
G37*
D14*
X109442500Y-64204000D03*
X119602500Y-64204000D03*
D15*
X114522500Y-64204000D03*
G36*
G01*
X108912500Y-60414000D02*
X108912500Y-62914000D01*
G75*
G02*
X108712500Y-63114000I-200000J0D01*
G01*
X106162500Y-63114000D01*
G75*
G02*
X105962500Y-62914000I0J200000D01*
G01*
X105962500Y-60414000D01*
G75*
G02*
X106162500Y-60214000I200000J0D01*
G01*
X108712500Y-60214000D01*
G75*
G02*
X108912500Y-60414000I0J-200000D01*
G01*
G37*
D13*
X79062500Y-40124000D03*
X72712500Y-42664000D03*
G36*
G01*
X83839500Y-38874000D02*
X83839500Y-41374000D01*
G75*
G02*
X83639500Y-41574000I-200000J0D01*
G01*
X81089500Y-41574000D01*
G75*
G02*
X80889500Y-41374000I0J200000D01*
G01*
X80889500Y-38874000D01*
G75*
G02*
X81089500Y-38674000I200000J0D01*
G01*
X83639500Y-38674000D01*
G75*
G02*
X83839500Y-38874000I0J-200000D01*
G01*
G37*
D14*
X71442500Y-45204000D03*
X81602500Y-45204000D03*
D15*
X76522500Y-45204000D03*
G36*
G01*
X70912500Y-41414000D02*
X70912500Y-43914000D01*
G75*
G02*
X70712500Y-44114000I-200000J0D01*
G01*
X68162500Y-44114000D01*
G75*
G02*
X67962500Y-43914000I0J200000D01*
G01*
X67962500Y-41414000D01*
G75*
G02*
X68162500Y-41214000I200000J0D01*
G01*
X70712500Y-41214000D01*
G75*
G02*
X70912500Y-41414000I0J-200000D01*
G01*
G37*
D13*
X98062500Y-37749000D03*
X91712500Y-40289000D03*
G36*
G01*
X102839500Y-36499000D02*
X102839500Y-38999000D01*
G75*
G02*
X102639500Y-39199000I-200000J0D01*
G01*
X100089500Y-39199000D01*
G75*
G02*
X99889500Y-38999000I0J200000D01*
G01*
X99889500Y-36499000D01*
G75*
G02*
X100089500Y-36299000I200000J0D01*
G01*
X102639500Y-36299000D01*
G75*
G02*
X102839500Y-36499000I0J-200000D01*
G01*
G37*
D14*
X90442500Y-42829000D03*
X100602500Y-42829000D03*
D15*
X95522500Y-42829000D03*
G36*
G01*
X89912500Y-39039000D02*
X89912500Y-41539000D01*
G75*
G02*
X89712500Y-41739000I-200000J0D01*
G01*
X87162500Y-41739000D01*
G75*
G02*
X86962500Y-41539000I0J200000D01*
G01*
X86962500Y-39039000D01*
G75*
G02*
X87162500Y-38839000I200000J0D01*
G01*
X89712500Y-38839000D01*
G75*
G02*
X89912500Y-39039000I0J-200000D01*
G01*
G37*
D13*
X41062500Y-25874000D03*
X34712500Y-28414000D03*
G36*
G01*
X45839500Y-24624000D02*
X45839500Y-27124000D01*
G75*
G02*
X45639500Y-27324000I-200000J0D01*
G01*
X43089500Y-27324000D01*
G75*
G02*
X42889500Y-27124000I0J200000D01*
G01*
X42889500Y-24624000D01*
G75*
G02*
X43089500Y-24424000I200000J0D01*
G01*
X45639500Y-24424000D01*
G75*
G02*
X45839500Y-24624000I0J-200000D01*
G01*
G37*
D14*
X33442500Y-30954000D03*
X43602500Y-30954000D03*
D15*
X38522500Y-30954000D03*
G36*
G01*
X32912500Y-27164000D02*
X32912500Y-29664000D01*
G75*
G02*
X32712500Y-29864000I-200000J0D01*
G01*
X30162500Y-29864000D01*
G75*
G02*
X29962500Y-29664000I0J200000D01*
G01*
X29962500Y-27164000D01*
G75*
G02*
X30162500Y-26964000I200000J0D01*
G01*
X32712500Y-26964000D01*
G75*
G02*
X32912500Y-27164000I0J-200000D01*
G01*
G37*
D13*
X117062500Y-40124000D03*
X110712500Y-42664000D03*
G36*
G01*
X121839500Y-38874000D02*
X121839500Y-41374000D01*
G75*
G02*
X121639500Y-41574000I-200000J0D01*
G01*
X119089500Y-41574000D01*
G75*
G02*
X118889500Y-41374000I0J200000D01*
G01*
X118889500Y-38874000D01*
G75*
G02*
X119089500Y-38674000I200000J0D01*
G01*
X121639500Y-38674000D01*
G75*
G02*
X121839500Y-38874000I0J-200000D01*
G01*
G37*
D14*
X109442500Y-45204000D03*
X119602500Y-45204000D03*
D15*
X114522500Y-45204000D03*
G36*
G01*
X108912500Y-41414000D02*
X108912500Y-43914000D01*
G75*
G02*
X108712500Y-44114000I-200000J0D01*
G01*
X106162500Y-44114000D01*
G75*
G02*
X105962500Y-43914000I0J200000D01*
G01*
X105962500Y-41414000D01*
G75*
G02*
X106162500Y-41214000I200000J0D01*
G01*
X108712500Y-41214000D01*
G75*
G02*
X108912500Y-41414000I0J-200000D01*
G01*
G37*
D13*
X60062500Y-25874000D03*
X53712500Y-28414000D03*
G36*
G01*
X64839500Y-24624000D02*
X64839500Y-27124000D01*
G75*
G02*
X64639500Y-27324000I-200000J0D01*
G01*
X62089500Y-27324000D01*
G75*
G02*
X61889500Y-27124000I0J200000D01*
G01*
X61889500Y-24624000D01*
G75*
G02*
X62089500Y-24424000I200000J0D01*
G01*
X64639500Y-24424000D01*
G75*
G02*
X64839500Y-24624000I0J-200000D01*
G01*
G37*
D14*
X52442500Y-30954000D03*
X62602500Y-30954000D03*
D15*
X57522500Y-30954000D03*
G36*
G01*
X51912500Y-27164000D02*
X51912500Y-29664000D01*
G75*
G02*
X51712500Y-29864000I-200000J0D01*
G01*
X49162500Y-29864000D01*
G75*
G02*
X48962500Y-29664000I0J200000D01*
G01*
X48962500Y-27164000D01*
G75*
G02*
X49162500Y-26964000I200000J0D01*
G01*
X51712500Y-26964000D01*
G75*
G02*
X51912500Y-27164000I0J-200000D01*
G01*
G37*
G36*
G01*
X59222500Y-54504000D02*
X59222500Y-53504000D01*
G75*
G02*
X59422500Y-53304000I200000J0D01*
G01*
X61122500Y-53304000D01*
G75*
G02*
X61322500Y-53504000I0J-200000D01*
G01*
X61322500Y-54504000D01*
G75*
G02*
X61122500Y-54704000I-200000J0D01*
G01*
X59422500Y-54704000D01*
G75*
G02*
X59222500Y-54504000I0J200000D01*
G01*
G37*
G36*
G01*
X59222500Y-55904000D02*
X59222500Y-54904000D01*
G75*
G02*
X59422500Y-54704000I200000J0D01*
G01*
X61122500Y-54704000D01*
G75*
G02*
X61322500Y-54904000I0J-200000D01*
G01*
X61322500Y-55904000D01*
G75*
G02*
X61122500Y-56104000I-200000J0D01*
G01*
X59422500Y-56104000D01*
G75*
G02*
X59222500Y-55904000I0J200000D01*
G01*
G37*
G36*
G01*
X53722500Y-54504000D02*
X53722500Y-53504000D01*
G75*
G02*
X53922500Y-53304000I200000J0D01*
G01*
X55622500Y-53304000D01*
G75*
G02*
X55822500Y-53504000I0J-200000D01*
G01*
X55822500Y-54504000D01*
G75*
G02*
X55622500Y-54704000I-200000J0D01*
G01*
X53922500Y-54704000D01*
G75*
G02*
X53722500Y-54504000I0J200000D01*
G01*
G37*
G36*
G01*
X53722500Y-55904000D02*
X53722500Y-54904000D01*
G75*
G02*
X53922500Y-54704000I200000J0D01*
G01*
X55622500Y-54704000D01*
G75*
G02*
X55822500Y-54904000I0J-200000D01*
G01*
X55822500Y-55904000D01*
G75*
G02*
X55622500Y-56104000I-200000J0D01*
G01*
X53922500Y-56104000D01*
G75*
G02*
X53722500Y-55904000I0J200000D01*
G01*
G37*
G36*
G01*
X97222500Y-47379000D02*
X97222500Y-46379000D01*
G75*
G02*
X97422500Y-46179000I200000J0D01*
G01*
X99122500Y-46179000D01*
G75*
G02*
X99322500Y-46379000I0J-200000D01*
G01*
X99322500Y-47379000D01*
G75*
G02*
X99122500Y-47579000I-200000J0D01*
G01*
X97422500Y-47579000D01*
G75*
G02*
X97222500Y-47379000I0J200000D01*
G01*
G37*
G36*
G01*
X97222500Y-48779000D02*
X97222500Y-47779000D01*
G75*
G02*
X97422500Y-47579000I200000J0D01*
G01*
X99122500Y-47579000D01*
G75*
G02*
X99322500Y-47779000I0J-200000D01*
G01*
X99322500Y-48779000D01*
G75*
G02*
X99122500Y-48979000I-200000J0D01*
G01*
X97422500Y-48979000D01*
G75*
G02*
X97222500Y-48779000I0J200000D01*
G01*
G37*
G36*
G01*
X91722500Y-47379000D02*
X91722500Y-46379000D01*
G75*
G02*
X91922500Y-46179000I200000J0D01*
G01*
X93622500Y-46179000D01*
G75*
G02*
X93822500Y-46379000I0J-200000D01*
G01*
X93822500Y-47379000D01*
G75*
G02*
X93622500Y-47579000I-200000J0D01*
G01*
X91922500Y-47579000D01*
G75*
G02*
X91722500Y-47379000I0J200000D01*
G01*
G37*
G36*
G01*
X91722500Y-48779000D02*
X91722500Y-47779000D01*
G75*
G02*
X91922500Y-47579000I200000J0D01*
G01*
X93622500Y-47579000D01*
G75*
G02*
X93822500Y-47779000I0J-200000D01*
G01*
X93822500Y-48779000D01*
G75*
G02*
X93622500Y-48979000I-200000J0D01*
G01*
X91922500Y-48979000D01*
G75*
G02*
X91722500Y-48779000I0J200000D01*
G01*
G37*
G36*
G01*
X78222500Y-49754000D02*
X78222500Y-48754000D01*
G75*
G02*
X78422500Y-48554000I200000J0D01*
G01*
X80122500Y-48554000D01*
G75*
G02*
X80322500Y-48754000I0J-200000D01*
G01*
X80322500Y-49754000D01*
G75*
G02*
X80122500Y-49954000I-200000J0D01*
G01*
X78422500Y-49954000D01*
G75*
G02*
X78222500Y-49754000I0J200000D01*
G01*
G37*
G36*
G01*
X78222500Y-51154000D02*
X78222500Y-50154000D01*
G75*
G02*
X78422500Y-49954000I200000J0D01*
G01*
X80122500Y-49954000D01*
G75*
G02*
X80322500Y-50154000I0J-200000D01*
G01*
X80322500Y-51154000D01*
G75*
G02*
X80122500Y-51354000I-200000J0D01*
G01*
X78422500Y-51354000D01*
G75*
G02*
X78222500Y-51154000I0J200000D01*
G01*
G37*
G36*
G01*
X72722500Y-49754000D02*
X72722500Y-48754000D01*
G75*
G02*
X72922500Y-48554000I200000J0D01*
G01*
X74622500Y-48554000D01*
G75*
G02*
X74822500Y-48754000I0J-200000D01*
G01*
X74822500Y-49754000D01*
G75*
G02*
X74622500Y-49954000I-200000J0D01*
G01*
X72922500Y-49954000D01*
G75*
G02*
X72722500Y-49754000I0J200000D01*
G01*
G37*
G36*
G01*
X72722500Y-51154000D02*
X72722500Y-50154000D01*
G75*
G02*
X72922500Y-49954000I200000J0D01*
G01*
X74622500Y-49954000D01*
G75*
G02*
X74822500Y-50154000I0J-200000D01*
G01*
X74822500Y-51154000D01*
G75*
G02*
X74622500Y-51354000I-200000J0D01*
G01*
X72922500Y-51354000D01*
G75*
G02*
X72722500Y-51154000I0J200000D01*
G01*
G37*
G36*
G01*
X116222500Y-30754000D02*
X116222500Y-29754000D01*
G75*
G02*
X116422500Y-29554000I200000J0D01*
G01*
X118122500Y-29554000D01*
G75*
G02*
X118322500Y-29754000I0J-200000D01*
G01*
X118322500Y-30754000D01*
G75*
G02*
X118122500Y-30954000I-200000J0D01*
G01*
X116422500Y-30954000D01*
G75*
G02*
X116222500Y-30754000I0J200000D01*
G01*
G37*
G36*
G01*
X116222500Y-32154000D02*
X116222500Y-31154000D01*
G75*
G02*
X116422500Y-30954000I200000J0D01*
G01*
X118122500Y-30954000D01*
G75*
G02*
X118322500Y-31154000I0J-200000D01*
G01*
X118322500Y-32154000D01*
G75*
G02*
X118122500Y-32354000I-200000J0D01*
G01*
X116422500Y-32354000D01*
G75*
G02*
X116222500Y-32154000I0J200000D01*
G01*
G37*
G36*
G01*
X110722500Y-30754000D02*
X110722500Y-29754000D01*
G75*
G02*
X110922500Y-29554000I200000J0D01*
G01*
X112622500Y-29554000D01*
G75*
G02*
X112822500Y-29754000I0J-200000D01*
G01*
X112822500Y-30754000D01*
G75*
G02*
X112622500Y-30954000I-200000J0D01*
G01*
X110922500Y-30954000D01*
G75*
G02*
X110722500Y-30754000I0J200000D01*
G01*
G37*
G36*
G01*
X110722500Y-32154000D02*
X110722500Y-31154000D01*
G75*
G02*
X110922500Y-30954000I200000J0D01*
G01*
X112622500Y-30954000D01*
G75*
G02*
X112822500Y-31154000I0J-200000D01*
G01*
X112822500Y-32154000D01*
G75*
G02*
X112622500Y-32354000I-200000J0D01*
G01*
X110922500Y-32354000D01*
G75*
G02*
X110722500Y-32154000I0J200000D01*
G01*
G37*
G36*
G01*
X135222500Y-33129000D02*
X135222500Y-32129000D01*
G75*
G02*
X135422500Y-31929000I200000J0D01*
G01*
X137122500Y-31929000D01*
G75*
G02*
X137322500Y-32129000I0J-200000D01*
G01*
X137322500Y-33129000D01*
G75*
G02*
X137122500Y-33329000I-200000J0D01*
G01*
X135422500Y-33329000D01*
G75*
G02*
X135222500Y-33129000I0J200000D01*
G01*
G37*
G36*
G01*
X135222500Y-34529000D02*
X135222500Y-33529000D01*
G75*
G02*
X135422500Y-33329000I200000J0D01*
G01*
X137122500Y-33329000D01*
G75*
G02*
X137322500Y-33529000I0J-200000D01*
G01*
X137322500Y-34529000D01*
G75*
G02*
X137122500Y-34729000I-200000J0D01*
G01*
X135422500Y-34729000D01*
G75*
G02*
X135222500Y-34529000I0J200000D01*
G01*
G37*
G36*
G01*
X129722500Y-33129000D02*
X129722500Y-32129000D01*
G75*
G02*
X129922500Y-31929000I200000J0D01*
G01*
X131622500Y-31929000D01*
G75*
G02*
X131822500Y-32129000I0J-200000D01*
G01*
X131822500Y-33129000D01*
G75*
G02*
X131622500Y-33329000I-200000J0D01*
G01*
X129922500Y-33329000D01*
G75*
G02*
X129722500Y-33129000I0J200000D01*
G01*
G37*
G36*
G01*
X129722500Y-34529000D02*
X129722500Y-33529000D01*
G75*
G02*
X129922500Y-33329000I200000J0D01*
G01*
X131622500Y-33329000D01*
G75*
G02*
X131822500Y-33529000I0J-200000D01*
G01*
X131822500Y-34529000D01*
G75*
G02*
X131622500Y-34729000I-200000J0D01*
G01*
X129922500Y-34729000D01*
G75*
G02*
X129722500Y-34529000I0J200000D01*
G01*
G37*
G36*
G01*
X78222500Y-30754000D02*
X78222500Y-29754000D01*
G75*
G02*
X78422500Y-29554000I200000J0D01*
G01*
X80122500Y-29554000D01*
G75*
G02*
X80322500Y-29754000I0J-200000D01*
G01*
X80322500Y-30754000D01*
G75*
G02*
X80122500Y-30954000I-200000J0D01*
G01*
X78422500Y-30954000D01*
G75*
G02*
X78222500Y-30754000I0J200000D01*
G01*
G37*
G36*
G01*
X78222500Y-32154000D02*
X78222500Y-31154000D01*
G75*
G02*
X78422500Y-30954000I200000J0D01*
G01*
X80122500Y-30954000D01*
G75*
G02*
X80322500Y-31154000I0J-200000D01*
G01*
X80322500Y-32154000D01*
G75*
G02*
X80122500Y-32354000I-200000J0D01*
G01*
X78422500Y-32354000D01*
G75*
G02*
X78222500Y-32154000I0J200000D01*
G01*
G37*
G36*
G01*
X72722500Y-30754000D02*
X72722500Y-29754000D01*
G75*
G02*
X72922500Y-29554000I200000J0D01*
G01*
X74622500Y-29554000D01*
G75*
G02*
X74822500Y-29754000I0J-200000D01*
G01*
X74822500Y-30754000D01*
G75*
G02*
X74622500Y-30954000I-200000J0D01*
G01*
X72922500Y-30954000D01*
G75*
G02*
X72722500Y-30754000I0J200000D01*
G01*
G37*
G36*
G01*
X72722500Y-32154000D02*
X72722500Y-31154000D01*
G75*
G02*
X72922500Y-30954000I200000J0D01*
G01*
X74622500Y-30954000D01*
G75*
G02*
X74822500Y-31154000I0J-200000D01*
G01*
X74822500Y-32154000D01*
G75*
G02*
X74622500Y-32354000I-200000J0D01*
G01*
X72922500Y-32354000D01*
G75*
G02*
X72722500Y-32154000I0J200000D01*
G01*
G37*
G36*
G01*
X116222500Y-49754000D02*
X116222500Y-48754000D01*
G75*
G02*
X116422500Y-48554000I200000J0D01*
G01*
X118122500Y-48554000D01*
G75*
G02*
X118322500Y-48754000I0J-200000D01*
G01*
X118322500Y-49754000D01*
G75*
G02*
X118122500Y-49954000I-200000J0D01*
G01*
X116422500Y-49954000D01*
G75*
G02*
X116222500Y-49754000I0J200000D01*
G01*
G37*
G36*
G01*
X116222500Y-51154000D02*
X116222500Y-50154000D01*
G75*
G02*
X116422500Y-49954000I200000J0D01*
G01*
X118122500Y-49954000D01*
G75*
G02*
X118322500Y-50154000I0J-200000D01*
G01*
X118322500Y-51154000D01*
G75*
G02*
X118122500Y-51354000I-200000J0D01*
G01*
X116422500Y-51354000D01*
G75*
G02*
X116222500Y-51154000I0J200000D01*
G01*
G37*
G36*
G01*
X110722500Y-49754000D02*
X110722500Y-48754000D01*
G75*
G02*
X110922500Y-48554000I200000J0D01*
G01*
X112622500Y-48554000D01*
G75*
G02*
X112822500Y-48754000I0J-200000D01*
G01*
X112822500Y-49754000D01*
G75*
G02*
X112622500Y-49954000I-200000J0D01*
G01*
X110922500Y-49954000D01*
G75*
G02*
X110722500Y-49754000I0J200000D01*
G01*
G37*
G36*
G01*
X110722500Y-51154000D02*
X110722500Y-50154000D01*
G75*
G02*
X110922500Y-49954000I200000J0D01*
G01*
X112622500Y-49954000D01*
G75*
G02*
X112822500Y-50154000I0J-200000D01*
G01*
X112822500Y-51154000D01*
G75*
G02*
X112622500Y-51354000I-200000J0D01*
G01*
X110922500Y-51354000D01*
G75*
G02*
X110722500Y-51154000I0J200000D01*
G01*
G37*
G36*
G01*
X97222500Y-28379000D02*
X97222500Y-27379000D01*
G75*
G02*
X97422500Y-27179000I200000J0D01*
G01*
X99122500Y-27179000D01*
G75*
G02*
X99322500Y-27379000I0J-200000D01*
G01*
X99322500Y-28379000D01*
G75*
G02*
X99122500Y-28579000I-200000J0D01*
G01*
X97422500Y-28579000D01*
G75*
G02*
X97222500Y-28379000I0J200000D01*
G01*
G37*
G36*
G01*
X97222500Y-29779000D02*
X97222500Y-28779000D01*
G75*
G02*
X97422500Y-28579000I200000J0D01*
G01*
X99122500Y-28579000D01*
G75*
G02*
X99322500Y-28779000I0J-200000D01*
G01*
X99322500Y-29779000D01*
G75*
G02*
X99122500Y-29979000I-200000J0D01*
G01*
X97422500Y-29979000D01*
G75*
G02*
X97222500Y-29779000I0J200000D01*
G01*
G37*
G36*
G01*
X91722500Y-28379000D02*
X91722500Y-27379000D01*
G75*
G02*
X91922500Y-27179000I200000J0D01*
G01*
X93622500Y-27179000D01*
G75*
G02*
X93822500Y-27379000I0J-200000D01*
G01*
X93822500Y-28379000D01*
G75*
G02*
X93622500Y-28579000I-200000J0D01*
G01*
X91922500Y-28579000D01*
G75*
G02*
X91722500Y-28379000I0J200000D01*
G01*
G37*
G36*
G01*
X91722500Y-29779000D02*
X91722500Y-28779000D01*
G75*
G02*
X91922500Y-28579000I200000J0D01*
G01*
X93622500Y-28579000D01*
G75*
G02*
X93822500Y-28779000I0J-200000D01*
G01*
X93822500Y-29779000D01*
G75*
G02*
X93622500Y-29979000I-200000J0D01*
G01*
X91922500Y-29979000D01*
G75*
G02*
X91722500Y-29779000I0J200000D01*
G01*
G37*
G36*
G01*
X40222500Y-54504000D02*
X40222500Y-53504000D01*
G75*
G02*
X40422500Y-53304000I200000J0D01*
G01*
X42122500Y-53304000D01*
G75*
G02*
X42322500Y-53504000I0J-200000D01*
G01*
X42322500Y-54504000D01*
G75*
G02*
X42122500Y-54704000I-200000J0D01*
G01*
X40422500Y-54704000D01*
G75*
G02*
X40222500Y-54504000I0J200000D01*
G01*
G37*
G36*
G01*
X40222500Y-55904000D02*
X40222500Y-54904000D01*
G75*
G02*
X40422500Y-54704000I200000J0D01*
G01*
X42122500Y-54704000D01*
G75*
G02*
X42322500Y-54904000I0J-200000D01*
G01*
X42322500Y-55904000D01*
G75*
G02*
X42122500Y-56104000I-200000J0D01*
G01*
X40422500Y-56104000D01*
G75*
G02*
X40222500Y-55904000I0J200000D01*
G01*
G37*
G36*
G01*
X34722500Y-54504000D02*
X34722500Y-53504000D01*
G75*
G02*
X34922500Y-53304000I200000J0D01*
G01*
X36622500Y-53304000D01*
G75*
G02*
X36822500Y-53504000I0J-200000D01*
G01*
X36822500Y-54504000D01*
G75*
G02*
X36622500Y-54704000I-200000J0D01*
G01*
X34922500Y-54704000D01*
G75*
G02*
X34722500Y-54504000I0J200000D01*
G01*
G37*
G36*
G01*
X34722500Y-55904000D02*
X34722500Y-54904000D01*
G75*
G02*
X34922500Y-54704000I200000J0D01*
G01*
X36622500Y-54704000D01*
G75*
G02*
X36822500Y-54904000I0J-200000D01*
G01*
X36822500Y-55904000D01*
G75*
G02*
X36622500Y-56104000I-200000J0D01*
G01*
X34922500Y-56104000D01*
G75*
G02*
X34722500Y-55904000I0J200000D01*
G01*
G37*
G36*
G01*
X135222500Y-52129000D02*
X135222500Y-51129000D01*
G75*
G02*
X135422500Y-50929000I200000J0D01*
G01*
X137122500Y-50929000D01*
G75*
G02*
X137322500Y-51129000I0J-200000D01*
G01*
X137322500Y-52129000D01*
G75*
G02*
X137122500Y-52329000I-200000J0D01*
G01*
X135422500Y-52329000D01*
G75*
G02*
X135222500Y-52129000I0J200000D01*
G01*
G37*
G36*
G01*
X135222500Y-53529000D02*
X135222500Y-52529000D01*
G75*
G02*
X135422500Y-52329000I200000J0D01*
G01*
X137122500Y-52329000D01*
G75*
G02*
X137322500Y-52529000I0J-200000D01*
G01*
X137322500Y-53529000D01*
G75*
G02*
X137122500Y-53729000I-200000J0D01*
G01*
X135422500Y-53729000D01*
G75*
G02*
X135222500Y-53529000I0J200000D01*
G01*
G37*
G36*
G01*
X129722500Y-52129000D02*
X129722500Y-51129000D01*
G75*
G02*
X129922500Y-50929000I200000J0D01*
G01*
X131622500Y-50929000D01*
G75*
G02*
X131822500Y-51129000I0J-200000D01*
G01*
X131822500Y-52129000D01*
G75*
G02*
X131622500Y-52329000I-200000J0D01*
G01*
X129922500Y-52329000D01*
G75*
G02*
X129722500Y-52129000I0J200000D01*
G01*
G37*
G36*
G01*
X129722500Y-53529000D02*
X129722500Y-52529000D01*
G75*
G02*
X129922500Y-52329000I200000J0D01*
G01*
X131622500Y-52329000D01*
G75*
G02*
X131822500Y-52529000I0J-200000D01*
G01*
X131822500Y-53529000D01*
G75*
G02*
X131622500Y-53729000I-200000J0D01*
G01*
X129922500Y-53729000D01*
G75*
G02*
X129722500Y-53529000I0J200000D01*
G01*
G37*
G36*
G01*
X40222500Y-35504000D02*
X40222500Y-34504000D01*
G75*
G02*
X40422500Y-34304000I200000J0D01*
G01*
X42122500Y-34304000D01*
G75*
G02*
X42322500Y-34504000I0J-200000D01*
G01*
X42322500Y-35504000D01*
G75*
G02*
X42122500Y-35704000I-200000J0D01*
G01*
X40422500Y-35704000D01*
G75*
G02*
X40222500Y-35504000I0J200000D01*
G01*
G37*
G36*
G01*
X40222500Y-36904000D02*
X40222500Y-35904000D01*
G75*
G02*
X40422500Y-35704000I200000J0D01*
G01*
X42122500Y-35704000D01*
G75*
G02*
X42322500Y-35904000I0J-200000D01*
G01*
X42322500Y-36904000D01*
G75*
G02*
X42122500Y-37104000I-200000J0D01*
G01*
X40422500Y-37104000D01*
G75*
G02*
X40222500Y-36904000I0J200000D01*
G01*
G37*
G36*
G01*
X34722500Y-35504000D02*
X34722500Y-34504000D01*
G75*
G02*
X34922500Y-34304000I200000J0D01*
G01*
X36622500Y-34304000D01*
G75*
G02*
X36822500Y-34504000I0J-200000D01*
G01*
X36822500Y-35504000D01*
G75*
G02*
X36622500Y-35704000I-200000J0D01*
G01*
X34922500Y-35704000D01*
G75*
G02*
X34722500Y-35504000I0J200000D01*
G01*
G37*
G36*
G01*
X34722500Y-36904000D02*
X34722500Y-35904000D01*
G75*
G02*
X34922500Y-35704000I200000J0D01*
G01*
X36622500Y-35704000D01*
G75*
G02*
X36822500Y-35904000I0J-200000D01*
G01*
X36822500Y-36904000D01*
G75*
G02*
X36622500Y-37104000I-200000J0D01*
G01*
X34922500Y-37104000D01*
G75*
G02*
X34722500Y-36904000I0J200000D01*
G01*
G37*
G36*
G01*
X126486948Y-91413955D02*
X126745767Y-90448029D01*
G75*
G02*
X126990716Y-90306608I193185J-51764D01*
G01*
X128632789Y-90746600D01*
G75*
G02*
X128774210Y-90991549I-51764J-193185D01*
G01*
X128515391Y-91957475D01*
G75*
G02*
X128270442Y-92098896I-193185J51764D01*
G01*
X126628369Y-91658904D01*
G75*
G02*
X126486948Y-91413955I51764J193185D01*
G01*
G37*
G36*
G01*
X126124602Y-92766251D02*
X126383421Y-91800325D01*
G75*
G02*
X126628370Y-91658904I193185J-51764D01*
G01*
X128270443Y-92098896D01*
G75*
G02*
X128411864Y-92343845I-51764J-193185D01*
G01*
X128153045Y-93309771D01*
G75*
G02*
X127908096Y-93451192I-193185J51764D01*
G01*
X126266023Y-93011200D01*
G75*
G02*
X126124602Y-92766251I51764J193185D01*
G01*
G37*
G36*
G01*
X121174356Y-89990451D02*
X121433175Y-89024525D01*
G75*
G02*
X121678124Y-88883104I193185J-51764D01*
G01*
X123320197Y-89323096D01*
G75*
G02*
X123461618Y-89568045I-51764J-193185D01*
G01*
X123202799Y-90533971D01*
G75*
G02*
X122957850Y-90675392I-193185J51764D01*
G01*
X121315777Y-90235400D01*
G75*
G02*
X121174356Y-89990451I51764J193185D01*
G01*
G37*
G36*
G01*
X120812010Y-91342747D02*
X121070829Y-90376821D01*
G75*
G02*
X121315778Y-90235400I193185J-51764D01*
G01*
X122957851Y-90675392D01*
G75*
G02*
X123099272Y-90920341I-51764J-193185D01*
G01*
X122840453Y-91886267D01*
G75*
G02*
X122595504Y-92027688I-193185J51764D01*
G01*
X120953431Y-91587696D01*
G75*
G02*
X120812010Y-91342747I51764J193185D01*
G01*
G37*
G36*
G01*
X59222500Y-35504000D02*
X59222500Y-34504000D01*
G75*
G02*
X59422500Y-34304000I200000J0D01*
G01*
X61122500Y-34304000D01*
G75*
G02*
X61322500Y-34504000I0J-200000D01*
G01*
X61322500Y-35504000D01*
G75*
G02*
X61122500Y-35704000I-200000J0D01*
G01*
X59422500Y-35704000D01*
G75*
G02*
X59222500Y-35504000I0J200000D01*
G01*
G37*
G36*
G01*
X59222500Y-36904000D02*
X59222500Y-35904000D01*
G75*
G02*
X59422500Y-35704000I200000J0D01*
G01*
X61122500Y-35704000D01*
G75*
G02*
X61322500Y-35904000I0J-200000D01*
G01*
X61322500Y-36904000D01*
G75*
G02*
X61122500Y-37104000I-200000J0D01*
G01*
X59422500Y-37104000D01*
G75*
G02*
X59222500Y-36904000I0J200000D01*
G01*
G37*
G36*
G01*
X53722500Y-35504000D02*
X53722500Y-34504000D01*
G75*
G02*
X53922500Y-34304000I200000J0D01*
G01*
X55622500Y-34304000D01*
G75*
G02*
X55822500Y-34504000I0J-200000D01*
G01*
X55822500Y-35504000D01*
G75*
G02*
X55622500Y-35704000I-200000J0D01*
G01*
X53922500Y-35704000D01*
G75*
G02*
X53722500Y-35504000I0J200000D01*
G01*
G37*
G36*
G01*
X53722500Y-36904000D02*
X53722500Y-35904000D01*
G75*
G02*
X53922500Y-35704000I200000J0D01*
G01*
X55622500Y-35704000D01*
G75*
G02*
X55822500Y-35904000I0J-200000D01*
G01*
X55822500Y-36904000D01*
G75*
G02*
X55622500Y-37104000I-200000J0D01*
G01*
X53922500Y-37104000D01*
G75*
G02*
X53722500Y-36904000I0J200000D01*
G01*
G37*
G36*
G01*
X40222500Y-73504000D02*
X40222500Y-72504000D01*
G75*
G02*
X40422500Y-72304000I200000J0D01*
G01*
X42122500Y-72304000D01*
G75*
G02*
X42322500Y-72504000I0J-200000D01*
G01*
X42322500Y-73504000D01*
G75*
G02*
X42122500Y-73704000I-200000J0D01*
G01*
X40422500Y-73704000D01*
G75*
G02*
X40222500Y-73504000I0J200000D01*
G01*
G37*
G36*
G01*
X40222500Y-74904000D02*
X40222500Y-73904000D01*
G75*
G02*
X40422500Y-73704000I200000J0D01*
G01*
X42122500Y-73704000D01*
G75*
G02*
X42322500Y-73904000I0J-200000D01*
G01*
X42322500Y-74904000D01*
G75*
G02*
X42122500Y-75104000I-200000J0D01*
G01*
X40422500Y-75104000D01*
G75*
G02*
X40222500Y-74904000I0J200000D01*
G01*
G37*
G36*
G01*
X34722500Y-73504000D02*
X34722500Y-72504000D01*
G75*
G02*
X34922500Y-72304000I200000J0D01*
G01*
X36622500Y-72304000D01*
G75*
G02*
X36822500Y-72504000I0J-200000D01*
G01*
X36822500Y-73504000D01*
G75*
G02*
X36622500Y-73704000I-200000J0D01*
G01*
X34922500Y-73704000D01*
G75*
G02*
X34722500Y-73504000I0J200000D01*
G01*
G37*
G36*
G01*
X34722500Y-74904000D02*
X34722500Y-73904000D01*
G75*
G02*
X34922500Y-73704000I200000J0D01*
G01*
X36622500Y-73704000D01*
G75*
G02*
X36822500Y-73904000I0J-200000D01*
G01*
X36822500Y-74904000D01*
G75*
G02*
X36622500Y-75104000I-200000J0D01*
G01*
X34922500Y-75104000D01*
G75*
G02*
X34722500Y-74904000I0J200000D01*
G01*
G37*
G36*
G01*
X135222500Y-71129000D02*
X135222500Y-70129000D01*
G75*
G02*
X135422500Y-69929000I200000J0D01*
G01*
X137122500Y-69929000D01*
G75*
G02*
X137322500Y-70129000I0J-200000D01*
G01*
X137322500Y-71129000D01*
G75*
G02*
X137122500Y-71329000I-200000J0D01*
G01*
X135422500Y-71329000D01*
G75*
G02*
X135222500Y-71129000I0J200000D01*
G01*
G37*
G36*
G01*
X135222500Y-72529000D02*
X135222500Y-71529000D01*
G75*
G02*
X135422500Y-71329000I200000J0D01*
G01*
X137122500Y-71329000D01*
G75*
G02*
X137322500Y-71529000I0J-200000D01*
G01*
X137322500Y-72529000D01*
G75*
G02*
X137122500Y-72729000I-200000J0D01*
G01*
X135422500Y-72729000D01*
G75*
G02*
X135222500Y-72529000I0J200000D01*
G01*
G37*
G36*
G01*
X129722500Y-71129000D02*
X129722500Y-70129000D01*
G75*
G02*
X129922500Y-69929000I200000J0D01*
G01*
X131622500Y-69929000D01*
G75*
G02*
X131822500Y-70129000I0J-200000D01*
G01*
X131822500Y-71129000D01*
G75*
G02*
X131622500Y-71329000I-200000J0D01*
G01*
X129922500Y-71329000D01*
G75*
G02*
X129722500Y-71129000I0J200000D01*
G01*
G37*
G36*
G01*
X129722500Y-72529000D02*
X129722500Y-71529000D01*
G75*
G02*
X129922500Y-71329000I200000J0D01*
G01*
X131622500Y-71329000D01*
G75*
G02*
X131822500Y-71529000I0J-200000D01*
G01*
X131822500Y-72529000D01*
G75*
G02*
X131622500Y-72729000I-200000J0D01*
G01*
X129922500Y-72729000D01*
G75*
G02*
X129722500Y-72529000I0J200000D01*
G01*
G37*
G36*
G01*
X106722500Y-88379000D02*
X106722500Y-87379000D01*
G75*
G02*
X106922500Y-87179000I200000J0D01*
G01*
X108622500Y-87179000D01*
G75*
G02*
X108822500Y-87379000I0J-200000D01*
G01*
X108822500Y-88379000D01*
G75*
G02*
X108622500Y-88579000I-200000J0D01*
G01*
X106922500Y-88579000D01*
G75*
G02*
X106722500Y-88379000I0J200000D01*
G01*
G37*
G36*
G01*
X106722500Y-89779000D02*
X106722500Y-88779000D01*
G75*
G02*
X106922500Y-88579000I200000J0D01*
G01*
X108622500Y-88579000D01*
G75*
G02*
X108822500Y-88779000I0J-200000D01*
G01*
X108822500Y-89779000D01*
G75*
G02*
X108622500Y-89979000I-200000J0D01*
G01*
X106922500Y-89979000D01*
G75*
G02*
X106722500Y-89779000I0J200000D01*
G01*
G37*
G36*
G01*
X101222500Y-88379000D02*
X101222500Y-87379000D01*
G75*
G02*
X101422500Y-87179000I200000J0D01*
G01*
X103122500Y-87179000D01*
G75*
G02*
X103322500Y-87379000I0J-200000D01*
G01*
X103322500Y-88379000D01*
G75*
G02*
X103122500Y-88579000I-200000J0D01*
G01*
X101422500Y-88579000D01*
G75*
G02*
X101222500Y-88379000I0J200000D01*
G01*
G37*
G36*
G01*
X101222500Y-89779000D02*
X101222500Y-88779000D01*
G75*
G02*
X101422500Y-88579000I200000J0D01*
G01*
X103122500Y-88579000D01*
G75*
G02*
X103322500Y-88779000I0J-200000D01*
G01*
X103322500Y-89779000D01*
G75*
G02*
X103122500Y-89979000I-200000J0D01*
G01*
X101422500Y-89979000D01*
G75*
G02*
X101222500Y-89779000I0J200000D01*
G01*
G37*
G36*
G01*
X59222500Y-73504000D02*
X59222500Y-72504000D01*
G75*
G02*
X59422500Y-72304000I200000J0D01*
G01*
X61122500Y-72304000D01*
G75*
G02*
X61322500Y-72504000I0J-200000D01*
G01*
X61322500Y-73504000D01*
G75*
G02*
X61122500Y-73704000I-200000J0D01*
G01*
X59422500Y-73704000D01*
G75*
G02*
X59222500Y-73504000I0J200000D01*
G01*
G37*
G36*
G01*
X59222500Y-74904000D02*
X59222500Y-73904000D01*
G75*
G02*
X59422500Y-73704000I200000J0D01*
G01*
X61122500Y-73704000D01*
G75*
G02*
X61322500Y-73904000I0J-200000D01*
G01*
X61322500Y-74904000D01*
G75*
G02*
X61122500Y-75104000I-200000J0D01*
G01*
X59422500Y-75104000D01*
G75*
G02*
X59222500Y-74904000I0J200000D01*
G01*
G37*
G36*
G01*
X53722500Y-73504000D02*
X53722500Y-72504000D01*
G75*
G02*
X53922500Y-72304000I200000J0D01*
G01*
X55622500Y-72304000D01*
G75*
G02*
X55822500Y-72504000I0J-200000D01*
G01*
X55822500Y-73504000D01*
G75*
G02*
X55622500Y-73704000I-200000J0D01*
G01*
X53922500Y-73704000D01*
G75*
G02*
X53722500Y-73504000I0J200000D01*
G01*
G37*
G36*
G01*
X53722500Y-74904000D02*
X53722500Y-73904000D01*
G75*
G02*
X53922500Y-73704000I200000J0D01*
G01*
X55622500Y-73704000D01*
G75*
G02*
X55822500Y-73904000I0J-200000D01*
G01*
X55822500Y-74904000D01*
G75*
G02*
X55622500Y-75104000I-200000J0D01*
G01*
X53922500Y-75104000D01*
G75*
G02*
X53722500Y-74904000I0J200000D01*
G01*
G37*
G36*
G01*
X78222500Y-68754000D02*
X78222500Y-67754000D01*
G75*
G02*
X78422500Y-67554000I200000J0D01*
G01*
X80122500Y-67554000D01*
G75*
G02*
X80322500Y-67754000I0J-200000D01*
G01*
X80322500Y-68754000D01*
G75*
G02*
X80122500Y-68954000I-200000J0D01*
G01*
X78422500Y-68954000D01*
G75*
G02*
X78222500Y-68754000I0J200000D01*
G01*
G37*
G36*
G01*
X78222500Y-70154000D02*
X78222500Y-69154000D01*
G75*
G02*
X78422500Y-68954000I200000J0D01*
G01*
X80122500Y-68954000D01*
G75*
G02*
X80322500Y-69154000I0J-200000D01*
G01*
X80322500Y-70154000D01*
G75*
G02*
X80122500Y-70354000I-200000J0D01*
G01*
X78422500Y-70354000D01*
G75*
G02*
X78222500Y-70154000I0J200000D01*
G01*
G37*
G36*
G01*
X72722500Y-68754000D02*
X72722500Y-67754000D01*
G75*
G02*
X72922500Y-67554000I200000J0D01*
G01*
X74622500Y-67554000D01*
G75*
G02*
X74822500Y-67754000I0J-200000D01*
G01*
X74822500Y-68754000D01*
G75*
G02*
X74622500Y-68954000I-200000J0D01*
G01*
X72922500Y-68954000D01*
G75*
G02*
X72722500Y-68754000I0J200000D01*
G01*
G37*
G36*
G01*
X72722500Y-70154000D02*
X72722500Y-69154000D01*
G75*
G02*
X72922500Y-68954000I200000J0D01*
G01*
X74622500Y-68954000D01*
G75*
G02*
X74822500Y-69154000I0J-200000D01*
G01*
X74822500Y-70154000D01*
G75*
G02*
X74622500Y-70354000I-200000J0D01*
G01*
X72922500Y-70354000D01*
G75*
G02*
X72722500Y-70154000I0J200000D01*
G01*
G37*
G36*
G01*
X97222500Y-66379000D02*
X97222500Y-65379000D01*
G75*
G02*
X97422500Y-65179000I200000J0D01*
G01*
X99122500Y-65179000D01*
G75*
G02*
X99322500Y-65379000I0J-200000D01*
G01*
X99322500Y-66379000D01*
G75*
G02*
X99122500Y-66579000I-200000J0D01*
G01*
X97422500Y-66579000D01*
G75*
G02*
X97222500Y-66379000I0J200000D01*
G01*
G37*
G36*
G01*
X97222500Y-67779000D02*
X97222500Y-66779000D01*
G75*
G02*
X97422500Y-66579000I200000J0D01*
G01*
X99122500Y-66579000D01*
G75*
G02*
X99322500Y-66779000I0J-200000D01*
G01*
X99322500Y-67779000D01*
G75*
G02*
X99122500Y-67979000I-200000J0D01*
G01*
X97422500Y-67979000D01*
G75*
G02*
X97222500Y-67779000I0J200000D01*
G01*
G37*
G36*
G01*
X91722500Y-66379000D02*
X91722500Y-65379000D01*
G75*
G02*
X91922500Y-65179000I200000J0D01*
G01*
X93622500Y-65179000D01*
G75*
G02*
X93822500Y-65379000I0J-200000D01*
G01*
X93822500Y-66379000D01*
G75*
G02*
X93622500Y-66579000I-200000J0D01*
G01*
X91922500Y-66579000D01*
G75*
G02*
X91722500Y-66379000I0J200000D01*
G01*
G37*
G36*
G01*
X91722500Y-67779000D02*
X91722500Y-66779000D01*
G75*
G02*
X91922500Y-66579000I200000J0D01*
G01*
X93622500Y-66579000D01*
G75*
G02*
X93822500Y-66779000I0J-200000D01*
G01*
X93822500Y-67779000D01*
G75*
G02*
X93622500Y-67979000I-200000J0D01*
G01*
X91922500Y-67979000D01*
G75*
G02*
X91722500Y-67779000I0J200000D01*
G01*
G37*
G36*
G01*
X153062916Y-91131757D02*
X152196890Y-90631757D01*
G75*
G02*
X152123685Y-90358552I100000J173205D01*
G01*
X152973685Y-88886308D01*
G75*
G02*
X153246890Y-88813103I173205J-100000D01*
G01*
X154112916Y-89313103D01*
G75*
G02*
X154186121Y-89586308I-100000J-173205D01*
G01*
X153336121Y-91058552D01*
G75*
G02*
X153062916Y-91131757I-173205J100000D01*
G01*
G37*
G36*
G01*
X154275352Y-91831757D02*
X153409326Y-91331757D01*
G75*
G02*
X153336121Y-91058552I100000J173205D01*
G01*
X154186121Y-89586308D01*
G75*
G02*
X154459326Y-89513103I173205J-100000D01*
G01*
X155325352Y-90013103D01*
G75*
G02*
X155398557Y-90286308I-100000J-173205D01*
G01*
X154548557Y-91758552D01*
G75*
G02*
X154275352Y-91831757I-173205J100000D01*
G01*
G37*
G36*
G01*
X150312916Y-95894897D02*
X149446890Y-95394897D01*
G75*
G02*
X149373685Y-95121692I100000J173205D01*
G01*
X150223685Y-93649448D01*
G75*
G02*
X150496890Y-93576243I173205J-100000D01*
G01*
X151362916Y-94076243D01*
G75*
G02*
X151436121Y-94349448I-100000J-173205D01*
G01*
X150586121Y-95821692D01*
G75*
G02*
X150312916Y-95894897I-173205J100000D01*
G01*
G37*
G36*
G01*
X151525352Y-96594897D02*
X150659326Y-96094897D01*
G75*
G02*
X150586121Y-95821692I100000J173205D01*
G01*
X151436121Y-94349448D01*
G75*
G02*
X151709326Y-94276243I173205J-100000D01*
G01*
X152575352Y-94776243D01*
G75*
G02*
X152648557Y-95049448I-100000J-173205D01*
G01*
X151798557Y-96521692D01*
G75*
G02*
X151525352Y-96594897I-173205J100000D01*
G01*
G37*
D13*
X41062500Y-63874000D03*
X34712500Y-66414000D03*
G36*
G01*
X45839500Y-62624000D02*
X45839500Y-65124000D01*
G75*
G02*
X45639500Y-65324000I-200000J0D01*
G01*
X43089500Y-65324000D01*
G75*
G02*
X42889500Y-65124000I0J200000D01*
G01*
X42889500Y-62624000D01*
G75*
G02*
X43089500Y-62424000I200000J0D01*
G01*
X45639500Y-62424000D01*
G75*
G02*
X45839500Y-62624000I0J-200000D01*
G01*
G37*
D14*
X33442500Y-68954000D03*
X43602500Y-68954000D03*
D15*
X38522500Y-68954000D03*
G36*
G01*
X32912500Y-65164000D02*
X32912500Y-67664000D01*
G75*
G02*
X32712500Y-67864000I-200000J0D01*
G01*
X30162500Y-67864000D01*
G75*
G02*
X29962500Y-67664000I0J200000D01*
G01*
X29962500Y-65164000D01*
G75*
G02*
X30162500Y-64964000I200000J0D01*
G01*
X32712500Y-64964000D01*
G75*
G02*
X32912500Y-65164000I0J-200000D01*
G01*
G37*
D13*
X136062500Y-23499000D03*
X129712500Y-26039000D03*
G36*
G01*
X140839500Y-22249000D02*
X140839500Y-24749000D01*
G75*
G02*
X140639500Y-24949000I-200000J0D01*
G01*
X138089500Y-24949000D01*
G75*
G02*
X137889500Y-24749000I0J200000D01*
G01*
X137889500Y-22249000D01*
G75*
G02*
X138089500Y-22049000I200000J0D01*
G01*
X140639500Y-22049000D01*
G75*
G02*
X140839500Y-22249000I0J-200000D01*
G01*
G37*
D14*
X128442500Y-28579000D03*
X138602500Y-28579000D03*
D15*
X133522500Y-28579000D03*
G36*
G01*
X127912500Y-24789000D02*
X127912500Y-27289000D01*
G75*
G02*
X127712500Y-27489000I-200000J0D01*
G01*
X125162500Y-27489000D01*
G75*
G02*
X124962500Y-27289000I0J200000D01*
G01*
X124962500Y-24789000D01*
G75*
G02*
X125162500Y-24589000I200000J0D01*
G01*
X127712500Y-24589000D01*
G75*
G02*
X127912500Y-24789000I0J-200000D01*
G01*
G37*
D13*
X60062500Y-63874000D03*
X53712500Y-66414000D03*
G36*
G01*
X64839500Y-62624000D02*
X64839500Y-65124000D01*
G75*
G02*
X64639500Y-65324000I-200000J0D01*
G01*
X62089500Y-65324000D01*
G75*
G02*
X61889500Y-65124000I0J200000D01*
G01*
X61889500Y-62624000D01*
G75*
G02*
X62089500Y-62424000I200000J0D01*
G01*
X64639500Y-62424000D01*
G75*
G02*
X64839500Y-62624000I0J-200000D01*
G01*
G37*
D14*
X52442500Y-68954000D03*
X62602500Y-68954000D03*
D15*
X57522500Y-68954000D03*
G36*
G01*
X51912500Y-65164000D02*
X51912500Y-67664000D01*
G75*
G02*
X51712500Y-67864000I-200000J0D01*
G01*
X49162500Y-67864000D01*
G75*
G02*
X48962500Y-67664000I0J200000D01*
G01*
X48962500Y-65164000D01*
G75*
G02*
X49162500Y-64964000I200000J0D01*
G01*
X51712500Y-64964000D01*
G75*
G02*
X51912500Y-65164000I0J-200000D01*
G01*
G37*
G36*
G01*
X116222500Y-68754000D02*
X116222500Y-67754000D01*
G75*
G02*
X116422500Y-67554000I200000J0D01*
G01*
X118122500Y-67554000D01*
G75*
G02*
X118322500Y-67754000I0J-200000D01*
G01*
X118322500Y-68754000D01*
G75*
G02*
X118122500Y-68954000I-200000J0D01*
G01*
X116422500Y-68954000D01*
G75*
G02*
X116222500Y-68754000I0J200000D01*
G01*
G37*
G36*
G01*
X116222500Y-70154000D02*
X116222500Y-69154000D01*
G75*
G02*
X116422500Y-68954000I200000J0D01*
G01*
X118122500Y-68954000D01*
G75*
G02*
X118322500Y-69154000I0J-200000D01*
G01*
X118322500Y-70154000D01*
G75*
G02*
X118122500Y-70354000I-200000J0D01*
G01*
X116422500Y-70354000D01*
G75*
G02*
X116222500Y-70154000I0J200000D01*
G01*
G37*
G36*
G01*
X110722500Y-68754000D02*
X110722500Y-67754000D01*
G75*
G02*
X110922500Y-67554000I200000J0D01*
G01*
X112622500Y-67554000D01*
G75*
G02*
X112822500Y-67754000I0J-200000D01*
G01*
X112822500Y-68754000D01*
G75*
G02*
X112622500Y-68954000I-200000J0D01*
G01*
X110922500Y-68954000D01*
G75*
G02*
X110722500Y-68754000I0J200000D01*
G01*
G37*
G36*
G01*
X110722500Y-70154000D02*
X110722500Y-69154000D01*
G75*
G02*
X110922500Y-68954000I200000J0D01*
G01*
X112622500Y-68954000D01*
G75*
G02*
X112822500Y-69154000I0J-200000D01*
G01*
X112822500Y-70154000D01*
G75*
G02*
X112622500Y-70354000I-200000J0D01*
G01*
X110922500Y-70354000D01*
G75*
G02*
X110722500Y-70154000I0J200000D01*
G01*
G37*
M02*
