G04 #@! TF.GenerationSoftware,KiCad,Pcbnew,(5.1.10)-1*
G04 #@! TF.CreationDate,2021-11-26T09:54:24+07:00*
G04 #@! TF.ProjectId,corne-cherry,636f726e-652d-4636-9865-7272792e6b69,3.0.1*
G04 #@! TF.SameCoordinates,Original*
G04 #@! TF.FileFunction,Legend,Top*
G04 #@! TF.FilePolarity,Positive*
%FSLAX46Y46*%
G04 Gerber Fmt 4.6, Leading zero omitted, Abs format (unit mm)*
G04 Created by KiCad (PCBNEW (5.1.10)-1) date 2021-11-26 09:54:24*
%MOMM*%
%LPD*%
G01*
G04 APERTURE LIST*
%ADD10C,0.125000*%
%ADD11C,0.150000*%
%ADD12C,0.010000*%
%ADD13C,2.600000*%
%ADD14C,4.700000*%
%ADD15C,3.400000*%
%ADD16C,2.300000*%
%ADD17C,4.500000*%
%ADD18C,1.600000*%
G04 APERTURE END LIST*
D10*
X69588273Y-53861142D02*
X69540654Y-53908761D01*
X69397797Y-53956380D01*
X69302559Y-53956380D01*
X69159702Y-53908761D01*
X69064464Y-53813523D01*
X69016845Y-53718285D01*
X68969226Y-53527809D01*
X68969226Y-53384952D01*
X69016845Y-53194476D01*
X69064464Y-53099238D01*
X69159702Y-53004000D01*
X69302559Y-52956380D01*
X69397797Y-52956380D01*
X69540654Y-53004000D01*
X69588273Y-53051619D01*
X70159702Y-53956380D02*
X70064464Y-53908761D01*
X70016845Y-53861142D01*
X69969226Y-53765904D01*
X69969226Y-53480190D01*
X70016845Y-53384952D01*
X70064464Y-53337333D01*
X70159702Y-53289714D01*
X70302559Y-53289714D01*
X70397797Y-53337333D01*
X70445416Y-53384952D01*
X70493035Y-53480190D01*
X70493035Y-53765904D01*
X70445416Y-53861142D01*
X70397797Y-53908761D01*
X70302559Y-53956380D01*
X70159702Y-53956380D01*
X70921607Y-53956380D02*
X70921607Y-53289714D01*
X70921607Y-53480190D02*
X70969226Y-53384952D01*
X71016845Y-53337333D01*
X71112083Y-53289714D01*
X71207321Y-53289714D01*
X71540654Y-53289714D02*
X71540654Y-53956380D01*
X71540654Y-53384952D02*
X71588273Y-53337333D01*
X71683511Y-53289714D01*
X71826369Y-53289714D01*
X71921607Y-53337333D01*
X71969226Y-53432571D01*
X71969226Y-53956380D01*
X72826369Y-53908761D02*
X72731130Y-53956380D01*
X72540654Y-53956380D01*
X72445416Y-53908761D01*
X72397797Y-53813523D01*
X72397797Y-53432571D01*
X72445416Y-53337333D01*
X72540654Y-53289714D01*
X72731130Y-53289714D01*
X72826369Y-53337333D01*
X72873988Y-53432571D01*
X72873988Y-53527809D01*
X72397797Y-53623047D01*
X74635892Y-53861142D02*
X74588273Y-53908761D01*
X74445416Y-53956380D01*
X74350178Y-53956380D01*
X74207321Y-53908761D01*
X74112083Y-53813523D01*
X74064464Y-53718285D01*
X74016845Y-53527809D01*
X74016845Y-53384952D01*
X74064464Y-53194476D01*
X74112083Y-53099238D01*
X74207321Y-53004000D01*
X74350178Y-52956380D01*
X74445416Y-52956380D01*
X74588273Y-53004000D01*
X74635892Y-53051619D01*
X75064464Y-53956380D02*
X75064464Y-52956380D01*
X75493035Y-53956380D02*
X75493035Y-53432571D01*
X75445416Y-53337333D01*
X75350178Y-53289714D01*
X75207321Y-53289714D01*
X75112083Y-53337333D01*
X75064464Y-53384952D01*
X76350178Y-53908761D02*
X76254940Y-53956380D01*
X76064464Y-53956380D01*
X75969226Y-53908761D01*
X75921607Y-53813523D01*
X75921607Y-53432571D01*
X75969226Y-53337333D01*
X76064464Y-53289714D01*
X76254940Y-53289714D01*
X76350178Y-53337333D01*
X76397797Y-53432571D01*
X76397797Y-53527809D01*
X75921607Y-53623047D01*
X76826369Y-53956380D02*
X76826369Y-53289714D01*
X76826369Y-53480190D02*
X76873988Y-53384952D01*
X76921607Y-53337333D01*
X77016845Y-53289714D01*
X77112083Y-53289714D01*
X77445416Y-53956380D02*
X77445416Y-53289714D01*
X77445416Y-53480190D02*
X77493035Y-53384952D01*
X77540654Y-53337333D01*
X77635892Y-53289714D01*
X77731130Y-53289714D01*
X77969226Y-53289714D02*
X78207321Y-53956380D01*
X78445416Y-53289714D02*
X78207321Y-53956380D01*
X78112083Y-54194476D01*
X78064464Y-54242095D01*
X77969226Y-54289714D01*
X79493035Y-53289714D02*
X79731130Y-53956380D01*
X79969226Y-53289714D01*
X80254940Y-52956380D02*
X80873988Y-52956380D01*
X80540654Y-53337333D01*
X80683511Y-53337333D01*
X80778750Y-53384952D01*
X80826369Y-53432571D01*
X80873988Y-53527809D01*
X80873988Y-53765904D01*
X80826369Y-53861142D01*
X80778750Y-53908761D01*
X80683511Y-53956380D01*
X80397797Y-53956380D01*
X80302559Y-53908761D01*
X80254940Y-53861142D01*
X81302559Y-53861142D02*
X81350178Y-53908761D01*
X81302559Y-53956380D01*
X81254940Y-53908761D01*
X81302559Y-53861142D01*
X81302559Y-53956380D01*
X81969226Y-52956380D02*
X82064464Y-52956380D01*
X82159702Y-53004000D01*
X82207321Y-53051619D01*
X82254940Y-53146857D01*
X82302559Y-53337333D01*
X82302559Y-53575428D01*
X82254940Y-53765904D01*
X82207321Y-53861142D01*
X82159702Y-53908761D01*
X82064464Y-53956380D01*
X81969226Y-53956380D01*
X81873988Y-53908761D01*
X81826369Y-53861142D01*
X81778750Y-53765904D01*
X81731130Y-53575428D01*
X81731130Y-53337333D01*
X81778750Y-53146857D01*
X81826369Y-53051619D01*
X81873988Y-53004000D01*
X81969226Y-52956380D01*
X82731130Y-53861142D02*
X82778750Y-53908761D01*
X82731130Y-53956380D01*
X82683511Y-53908761D01*
X82731130Y-53861142D01*
X82731130Y-53956380D01*
X83731130Y-53956380D02*
X83159702Y-53956380D01*
X83445416Y-53956380D02*
X83445416Y-52956380D01*
X83350178Y-53099238D01*
X83254940Y-53194476D01*
X83159702Y-53242095D01*
X84921607Y-53956380D02*
X84921607Y-52956380D01*
X85302559Y-52956380D01*
X85397797Y-53004000D01*
X85445416Y-53051619D01*
X85493035Y-53146857D01*
X85493035Y-53289714D01*
X85445416Y-53384952D01*
X85397797Y-53432571D01*
X85302559Y-53480190D01*
X84921607Y-53480190D01*
X86493035Y-53861142D02*
X86445416Y-53908761D01*
X86302559Y-53956380D01*
X86207321Y-53956380D01*
X86064464Y-53908761D01*
X85969226Y-53813523D01*
X85921607Y-53718285D01*
X85873988Y-53527809D01*
X85873988Y-53384952D01*
X85921607Y-53194476D01*
X85969226Y-53099238D01*
X86064464Y-53004000D01*
X86207321Y-52956380D01*
X86302559Y-52956380D01*
X86445416Y-53004000D01*
X86493035Y-53051619D01*
X87254940Y-53432571D02*
X87397797Y-53480190D01*
X87445416Y-53527809D01*
X87493035Y-53623047D01*
X87493035Y-53765904D01*
X87445416Y-53861142D01*
X87397797Y-53908761D01*
X87302559Y-53956380D01*
X86921607Y-53956380D01*
X86921607Y-52956380D01*
X87254940Y-52956380D01*
X87350178Y-53004000D01*
X87397797Y-53051619D01*
X87445416Y-53146857D01*
X87445416Y-53242095D01*
X87397797Y-53337333D01*
X87350178Y-53384952D01*
X87254940Y-53432571D01*
X86921607Y-53432571D01*
X88683511Y-53956380D02*
X88683511Y-52956380D01*
X88921607Y-52956380D01*
X89064464Y-53004000D01*
X89159702Y-53099238D01*
X89207321Y-53194476D01*
X89254940Y-53384952D01*
X89254940Y-53527809D01*
X89207321Y-53718285D01*
X89159702Y-53813523D01*
X89064464Y-53908761D01*
X88921607Y-53956380D01*
X88683511Y-53956380D01*
X90064464Y-53908761D02*
X89969226Y-53956380D01*
X89778750Y-53956380D01*
X89683511Y-53908761D01*
X89635892Y-53813523D01*
X89635892Y-53432571D01*
X89683511Y-53337333D01*
X89778750Y-53289714D01*
X89969226Y-53289714D01*
X90064464Y-53337333D01*
X90112083Y-53432571D01*
X90112083Y-53527809D01*
X89635892Y-53623047D01*
X90493035Y-53908761D02*
X90588273Y-53956380D01*
X90778750Y-53956380D01*
X90873988Y-53908761D01*
X90921607Y-53813523D01*
X90921607Y-53765904D01*
X90873988Y-53670666D01*
X90778750Y-53623047D01*
X90635892Y-53623047D01*
X90540654Y-53575428D01*
X90493035Y-53480190D01*
X90493035Y-53432571D01*
X90540654Y-53337333D01*
X90635892Y-53289714D01*
X90778750Y-53289714D01*
X90873988Y-53337333D01*
X91350178Y-53956380D02*
X91350178Y-53289714D01*
X91350178Y-52956380D02*
X91302559Y-53004000D01*
X91350178Y-53051619D01*
X91397797Y-53004000D01*
X91350178Y-52956380D01*
X91350178Y-53051619D01*
X92254940Y-53289714D02*
X92254940Y-54099238D01*
X92207321Y-54194476D01*
X92159702Y-54242095D01*
X92064464Y-54289714D01*
X91921607Y-54289714D01*
X91826369Y-54242095D01*
X92254940Y-53908761D02*
X92159702Y-53956380D01*
X91969226Y-53956380D01*
X91873988Y-53908761D01*
X91826369Y-53861142D01*
X91778750Y-53765904D01*
X91778750Y-53480190D01*
X91826369Y-53384952D01*
X91873988Y-53337333D01*
X91969226Y-53289714D01*
X92159702Y-53289714D01*
X92254940Y-53337333D01*
X92731130Y-53289714D02*
X92731130Y-53956380D01*
X92731130Y-53384952D02*
X92778750Y-53337333D01*
X92873988Y-53289714D01*
X93016845Y-53289714D01*
X93112083Y-53337333D01*
X93159702Y-53432571D01*
X93159702Y-53956380D01*
X94016845Y-53908761D02*
X93921607Y-53956380D01*
X93731130Y-53956380D01*
X93635892Y-53908761D01*
X93588273Y-53813523D01*
X93588273Y-53432571D01*
X93635892Y-53337333D01*
X93731130Y-53289714D01*
X93921607Y-53289714D01*
X94016845Y-53337333D01*
X94064464Y-53432571D01*
X94064464Y-53527809D01*
X93588273Y-53623047D01*
X94921607Y-53956380D02*
X94921607Y-52956380D01*
X94921607Y-53908761D02*
X94826369Y-53956380D01*
X94635892Y-53956380D01*
X94540654Y-53908761D01*
X94493035Y-53861142D01*
X94445416Y-53765904D01*
X94445416Y-53480190D01*
X94493035Y-53384952D01*
X94540654Y-53337333D01*
X94635892Y-53289714D01*
X94826369Y-53289714D01*
X94921607Y-53337333D01*
X96159702Y-53956380D02*
X96159702Y-52956380D01*
X96159702Y-53337333D02*
X96254940Y-53289714D01*
X96445416Y-53289714D01*
X96540654Y-53337333D01*
X96588273Y-53384952D01*
X96635892Y-53480190D01*
X96635892Y-53765904D01*
X96588273Y-53861142D01*
X96540654Y-53908761D01*
X96445416Y-53956380D01*
X96254940Y-53956380D01*
X96159702Y-53908761D01*
X96969226Y-53289714D02*
X97207321Y-53956380D01*
X97445416Y-53289714D02*
X97207321Y-53956380D01*
X97112083Y-54194476D01*
X97064464Y-54242095D01*
X96969226Y-54289714D01*
X98445416Y-53289714D02*
X98826369Y-53289714D01*
X98588273Y-53956380D02*
X98588273Y-53099238D01*
X98635892Y-53004000D01*
X98731130Y-52956380D01*
X98826369Y-52956380D01*
X99302559Y-53956380D02*
X99207321Y-53908761D01*
X99159702Y-53861142D01*
X99112083Y-53765904D01*
X99112083Y-53480190D01*
X99159702Y-53384952D01*
X99207321Y-53337333D01*
X99302559Y-53289714D01*
X99445416Y-53289714D01*
X99540654Y-53337333D01*
X99588273Y-53384952D01*
X99635892Y-53480190D01*
X99635892Y-53765904D01*
X99588273Y-53861142D01*
X99540654Y-53908761D01*
X99445416Y-53956380D01*
X99302559Y-53956380D01*
X100207321Y-53956380D02*
X100112083Y-53908761D01*
X100064464Y-53861142D01*
X100016845Y-53765904D01*
X100016845Y-53480190D01*
X100064464Y-53384952D01*
X100112083Y-53337333D01*
X100207321Y-53289714D01*
X100350178Y-53289714D01*
X100445416Y-53337333D01*
X100493035Y-53384952D01*
X100540654Y-53480190D01*
X100540654Y-53765904D01*
X100493035Y-53861142D01*
X100445416Y-53908761D01*
X100350178Y-53956380D01*
X100207321Y-53956380D01*
X100921607Y-53908761D02*
X101016845Y-53956380D01*
X101207321Y-53956380D01*
X101302559Y-53908761D01*
X101350178Y-53813523D01*
X101350178Y-53765904D01*
X101302559Y-53670666D01*
X101207321Y-53623047D01*
X101064464Y-53623047D01*
X100969226Y-53575428D01*
X100921607Y-53480190D01*
X100921607Y-53432571D01*
X100969226Y-53337333D01*
X101064464Y-53289714D01*
X101207321Y-53289714D01*
X101302559Y-53337333D01*
X101635892Y-53289714D02*
X102016845Y-53289714D01*
X101778749Y-52956380D02*
X101778749Y-53813523D01*
X101826369Y-53908761D01*
X101921607Y-53956380D01*
X102016845Y-53956380D01*
X102778749Y-53956380D02*
X102778749Y-53432571D01*
X102731130Y-53337333D01*
X102635892Y-53289714D01*
X102445416Y-53289714D01*
X102350178Y-53337333D01*
X102778749Y-53908761D02*
X102683511Y-53956380D01*
X102445416Y-53956380D01*
X102350178Y-53908761D01*
X102302559Y-53813523D01*
X102302559Y-53718285D01*
X102350178Y-53623047D01*
X102445416Y-53575428D01*
X102683511Y-53575428D01*
X102778749Y-53527809D01*
X103254940Y-53289714D02*
X103254940Y-53956380D01*
X103254940Y-53384952D02*
X103302559Y-53337333D01*
X103397797Y-53289714D01*
X103540654Y-53289714D01*
X103635892Y-53337333D01*
X103683511Y-53432571D01*
X103683511Y-53956380D01*
D11*
X153077500Y-21194000D02*
X153377500Y-21194000D01*
X152977500Y-21044000D02*
X153477500Y-21044000D01*
X152877500Y-20894000D02*
X153577500Y-20894000D01*
X153227500Y-21394000D02*
X152727500Y-20744000D01*
X153727500Y-20744000D02*
X153227500Y-21394000D01*
X152727500Y-20744000D02*
X153727500Y-20744000D01*
X156977500Y-20394000D02*
X149477500Y-20394000D01*
X156977500Y-21694000D02*
X156977500Y-20394000D01*
X149477500Y-21694000D02*
X156977500Y-21694000D01*
X149477500Y-20394000D02*
X149477500Y-21694000D01*
X144477500Y-25994000D02*
X144477500Y-26844000D01*
X161977500Y-25994000D02*
X161977500Y-26844000D01*
X144477500Y-25994000D02*
X145327500Y-25994000D01*
X161977500Y-25994000D02*
X161177500Y-25994000D01*
X144477500Y-55294000D02*
X144477500Y-56194000D01*
X161977500Y-55344000D02*
X161977500Y-56194000D01*
X144477500Y-56194000D02*
X145327500Y-56194000D01*
X161977500Y-56194000D02*
X161117500Y-56194000D01*
X159239500Y-58855000D02*
X159239500Y-64555000D01*
X159239500Y-64555000D02*
X159489500Y-64555000D01*
X159239500Y-58855000D02*
X159489500Y-58855000D01*
X162439500Y-58855000D02*
X162189500Y-58855000D01*
X162439500Y-58855000D02*
X162439500Y-64555000D01*
X162439500Y-64555000D02*
X162189500Y-64555000D01*
X148213500Y-63352000D02*
X158113500Y-63352000D01*
X148213500Y-61052000D02*
X158113500Y-61052000D01*
X158113500Y-61052000D02*
X158113500Y-63352000D01*
X148213500Y-63352000D02*
X148213500Y-61052000D01*
X162399500Y-66566000D02*
X162399500Y-72366000D01*
X162399500Y-72366000D02*
X150649500Y-72366000D01*
X150649500Y-72366000D02*
X150649500Y-66566000D01*
X150649500Y-66566000D02*
X162399500Y-66566000D01*
D12*
G36*
X72242049Y-74839988D02*
G01*
X72356748Y-74866102D01*
X72577850Y-74956639D01*
X72769293Y-75083036D01*
X72926222Y-75240988D01*
X73043782Y-75426188D01*
X73078437Y-75506254D01*
X73112464Y-75599731D01*
X73124083Y-75658761D01*
X73106798Y-75691261D01*
X73054112Y-75705149D01*
X72959529Y-75708343D01*
X72912569Y-75708400D01*
X72698639Y-75708399D01*
X72667733Y-75614754D01*
X72601143Y-75488894D01*
X72494638Y-75377503D01*
X72358463Y-75287012D01*
X72202864Y-75223854D01*
X72038085Y-75194461D01*
X71996199Y-75193142D01*
X71813869Y-75215910D01*
X71643565Y-75280221D01*
X71494016Y-75380089D01*
X71373953Y-75509526D01*
X71292105Y-75662547D01*
X71285907Y-75680267D01*
X71252356Y-75838924D01*
X71246573Y-76014402D01*
X71267259Y-76188327D01*
X71313113Y-76342322D01*
X71336175Y-76390531D01*
X71441904Y-76541138D01*
X71576779Y-76653303D01*
X71724102Y-76724915D01*
X71902789Y-76767926D01*
X72082259Y-76767773D01*
X72254072Y-76727785D01*
X72409790Y-76651291D01*
X72540974Y-76541622D01*
X72639184Y-76402106D01*
X72660767Y-76355389D01*
X72707400Y-76241990D01*
X72916950Y-76241895D01*
X73019668Y-76242561D01*
X73081784Y-76246620D01*
X73113495Y-76256992D01*
X73124997Y-76276594D01*
X73126500Y-76301887D01*
X73110975Y-76376902D01*
X73069424Y-76476781D01*
X73009378Y-76588252D01*
X72938369Y-76698041D01*
X72863929Y-76792876D01*
X72825038Y-76833119D01*
X72645264Y-76968131D01*
X72436407Y-77068811D01*
X72209560Y-77131913D01*
X71975818Y-77154194D01*
X71780300Y-77138664D01*
X71587087Y-77087943D01*
X71399451Y-77004877D01*
X71229760Y-76896860D01*
X71090383Y-76771289D01*
X71023489Y-76686165D01*
X70942160Y-76551841D01*
X70886270Y-76426887D01*
X70851691Y-76296138D01*
X70834293Y-76144430D01*
X70829914Y-75975100D01*
X70831419Y-75834194D01*
X70837121Y-75730188D01*
X70848798Y-75649236D01*
X70868230Y-75577494D01*
X70887851Y-75524197D01*
X70993497Y-75324543D01*
X71139762Y-75148026D01*
X71318876Y-75002316D01*
X71523069Y-74895085D01*
X71526300Y-74893802D01*
X71682283Y-74849914D01*
X71866255Y-74825892D01*
X72059187Y-74822372D01*
X72242049Y-74839988D01*
G37*
X72242049Y-74839988D02*
X72356748Y-74866102D01*
X72577850Y-74956639D01*
X72769293Y-75083036D01*
X72926222Y-75240988D01*
X73043782Y-75426188D01*
X73078437Y-75506254D01*
X73112464Y-75599731D01*
X73124083Y-75658761D01*
X73106798Y-75691261D01*
X73054112Y-75705149D01*
X72959529Y-75708343D01*
X72912569Y-75708400D01*
X72698639Y-75708399D01*
X72667733Y-75614754D01*
X72601143Y-75488894D01*
X72494638Y-75377503D01*
X72358463Y-75287012D01*
X72202864Y-75223854D01*
X72038085Y-75194461D01*
X71996199Y-75193142D01*
X71813869Y-75215910D01*
X71643565Y-75280221D01*
X71494016Y-75380089D01*
X71373953Y-75509526D01*
X71292105Y-75662547D01*
X71285907Y-75680267D01*
X71252356Y-75838924D01*
X71246573Y-76014402D01*
X71267259Y-76188327D01*
X71313113Y-76342322D01*
X71336175Y-76390531D01*
X71441904Y-76541138D01*
X71576779Y-76653303D01*
X71724102Y-76724915D01*
X71902789Y-76767926D01*
X72082259Y-76767773D01*
X72254072Y-76727785D01*
X72409790Y-76651291D01*
X72540974Y-76541622D01*
X72639184Y-76402106D01*
X72660767Y-76355389D01*
X72707400Y-76241990D01*
X72916950Y-76241895D01*
X73019668Y-76242561D01*
X73081784Y-76246620D01*
X73113495Y-76256992D01*
X73124997Y-76276594D01*
X73126500Y-76301887D01*
X73110975Y-76376902D01*
X73069424Y-76476781D01*
X73009378Y-76588252D01*
X72938369Y-76698041D01*
X72863929Y-76792876D01*
X72825038Y-76833119D01*
X72645264Y-76968131D01*
X72436407Y-77068811D01*
X72209560Y-77131913D01*
X71975818Y-77154194D01*
X71780300Y-77138664D01*
X71587087Y-77087943D01*
X71399451Y-77004877D01*
X71229760Y-76896860D01*
X71090383Y-76771289D01*
X71023489Y-76686165D01*
X70942160Y-76551841D01*
X70886270Y-76426887D01*
X70851691Y-76296138D01*
X70834293Y-76144430D01*
X70829914Y-75975100D01*
X70831419Y-75834194D01*
X70837121Y-75730188D01*
X70848798Y-75649236D01*
X70868230Y-75577494D01*
X70887851Y-75524197D01*
X70993497Y-75324543D01*
X71139762Y-75148026D01*
X71318876Y-75002316D01*
X71523069Y-74895085D01*
X71526300Y-74893802D01*
X71682283Y-74849914D01*
X71866255Y-74825892D01*
X72059187Y-74822372D01*
X72242049Y-74839988D01*
G36*
X74624986Y-74825840D02*
G01*
X74878440Y-74861111D01*
X75106525Y-74937807D01*
X75306175Y-75053865D01*
X75474325Y-75207222D01*
X75607908Y-75395816D01*
X75672456Y-75530600D01*
X75704018Y-75644705D01*
X75724285Y-75792371D01*
X75733030Y-75957580D01*
X75730025Y-76124313D01*
X75715043Y-76276551D01*
X75687856Y-76398275D01*
X75684905Y-76406900D01*
X75588519Y-76604172D01*
X75449275Y-76780574D01*
X75272679Y-76930769D01*
X75064241Y-77049421D01*
X74989340Y-77080770D01*
X74857321Y-77117019D01*
X74694335Y-77140467D01*
X74518781Y-77150287D01*
X74349060Y-77145650D01*
X74203574Y-77125729D01*
X74170753Y-77117599D01*
X73956853Y-77035401D01*
X73762121Y-76917093D01*
X73595155Y-76769635D01*
X73464556Y-76599986D01*
X73413682Y-76504895D01*
X73375337Y-76402102D01*
X73341151Y-76277876D01*
X73321099Y-76174628D01*
X73313748Y-76033224D01*
X73738074Y-76033224D01*
X73752409Y-76180866D01*
X73772541Y-76262207D01*
X73825794Y-76374941D01*
X73906195Y-76490333D01*
X74000178Y-76591702D01*
X74094174Y-76662365D01*
X74100958Y-76666020D01*
X74297698Y-76742118D01*
X74502689Y-76772463D01*
X74706104Y-76756243D01*
X74818664Y-76725468D01*
X74995944Y-76638347D01*
X75140410Y-76514677D01*
X75247587Y-76358341D01*
X75252020Y-76349466D01*
X75305010Y-76193401D01*
X75326993Y-76016298D01*
X75317639Y-75837017D01*
X75276621Y-75674421D01*
X75264289Y-75644900D01*
X75166958Y-75485906D01*
X75039261Y-75361092D01*
X74888564Y-75270623D01*
X74722236Y-75214666D01*
X74547642Y-75193386D01*
X74372149Y-75206949D01*
X74203124Y-75255522D01*
X74047934Y-75339270D01*
X73913945Y-75458360D01*
X73808965Y-75612101D01*
X73767419Y-75729807D01*
X73743433Y-75876526D01*
X73738074Y-76033224D01*
X73313748Y-76033224D01*
X73308238Y-75927236D01*
X73340650Y-75692693D01*
X73415850Y-75476052D01*
X73531357Y-75282365D01*
X73684687Y-75116687D01*
X73873360Y-74984069D01*
X73917419Y-74960803D01*
X74091705Y-74886053D01*
X74263030Y-74841281D01*
X74448905Y-74823147D01*
X74624986Y-74825840D01*
G37*
X74624986Y-74825840D02*
X74878440Y-74861111D01*
X75106525Y-74937807D01*
X75306175Y-75053865D01*
X75474325Y-75207222D01*
X75607908Y-75395816D01*
X75672456Y-75530600D01*
X75704018Y-75644705D01*
X75724285Y-75792371D01*
X75733030Y-75957580D01*
X75730025Y-76124313D01*
X75715043Y-76276551D01*
X75687856Y-76398275D01*
X75684905Y-76406900D01*
X75588519Y-76604172D01*
X75449275Y-76780574D01*
X75272679Y-76930769D01*
X75064241Y-77049421D01*
X74989340Y-77080770D01*
X74857321Y-77117019D01*
X74694335Y-77140467D01*
X74518781Y-77150287D01*
X74349060Y-77145650D01*
X74203574Y-77125729D01*
X74170753Y-77117599D01*
X73956853Y-77035401D01*
X73762121Y-76917093D01*
X73595155Y-76769635D01*
X73464556Y-76599986D01*
X73413682Y-76504895D01*
X73375337Y-76402102D01*
X73341151Y-76277876D01*
X73321099Y-76174628D01*
X73313748Y-76033224D01*
X73738074Y-76033224D01*
X73752409Y-76180866D01*
X73772541Y-76262207D01*
X73825794Y-76374941D01*
X73906195Y-76490333D01*
X74000178Y-76591702D01*
X74094174Y-76662365D01*
X74100958Y-76666020D01*
X74297698Y-76742118D01*
X74502689Y-76772463D01*
X74706104Y-76756243D01*
X74818664Y-76725468D01*
X74995944Y-76638347D01*
X75140410Y-76514677D01*
X75247587Y-76358341D01*
X75252020Y-76349466D01*
X75305010Y-76193401D01*
X75326993Y-76016298D01*
X75317639Y-75837017D01*
X75276621Y-75674421D01*
X75264289Y-75644900D01*
X75166958Y-75485906D01*
X75039261Y-75361092D01*
X74888564Y-75270623D01*
X74722236Y-75214666D01*
X74547642Y-75193386D01*
X74372149Y-75206949D01*
X74203124Y-75255522D01*
X74047934Y-75339270D01*
X73913945Y-75458360D01*
X73808965Y-75612101D01*
X73767419Y-75729807D01*
X73743433Y-75876526D01*
X73738074Y-76033224D01*
X73313748Y-76033224D01*
X73308238Y-75927236D01*
X73340650Y-75692693D01*
X73415850Y-75476052D01*
X73531357Y-75282365D01*
X73684687Y-75116687D01*
X73873360Y-74984069D01*
X73917419Y-74960803D01*
X74091705Y-74886053D01*
X74263030Y-74841281D01*
X74448905Y-74823147D01*
X74624986Y-74825840D01*
G36*
X81416530Y-74842406D02*
G01*
X81638894Y-74908705D01*
X81837133Y-75014213D01*
X82007079Y-75154847D01*
X82144559Y-75326524D01*
X82245404Y-75525162D01*
X82305443Y-75746678D01*
X82321300Y-75942336D01*
X82321300Y-76089400D01*
X80416300Y-76089400D01*
X80416300Y-76162498D01*
X80439217Y-76285649D01*
X80502655Y-76413172D01*
X80598643Y-76534298D01*
X80719211Y-76638256D01*
X80808388Y-76692239D01*
X80944242Y-76743647D01*
X81104904Y-76768683D01*
X81117872Y-76769596D01*
X81300129Y-76767127D01*
X81453803Y-76730329D01*
X81591495Y-76654614D01*
X81706193Y-76555419D01*
X81842013Y-76419600D01*
X82045268Y-76419600D01*
X82145811Y-76420246D01*
X82205033Y-76424122D01*
X82232410Y-76434133D01*
X82237419Y-76453182D01*
X82231730Y-76476750D01*
X82193417Y-76562398D01*
X82128499Y-76665086D01*
X82048774Y-76768606D01*
X81966044Y-76856746D01*
X81935857Y-76883173D01*
X81736990Y-77012773D01*
X81514302Y-77102237D01*
X81277596Y-77149509D01*
X81036673Y-77152535D01*
X80825357Y-77116004D01*
X80604245Y-77031879D01*
X80409425Y-76908023D01*
X80245825Y-76749554D01*
X80118374Y-76561590D01*
X80032001Y-76349249D01*
X80012844Y-76272299D01*
X79982308Y-76022242D01*
X79996041Y-75782661D01*
X80008222Y-75733800D01*
X80417557Y-75733800D01*
X81140828Y-75733800D01*
X81353414Y-75733528D01*
X81520499Y-75732521D01*
X81647379Y-75730494D01*
X81739351Y-75727158D01*
X81801712Y-75722229D01*
X81839759Y-75715420D01*
X81858788Y-75706444D01*
X81864097Y-75695014D01*
X81864100Y-75694688D01*
X81843723Y-75612758D01*
X81789025Y-75517173D01*
X81709652Y-75419722D01*
X81615248Y-75332195D01*
X81515461Y-75266383D01*
X81512403Y-75264826D01*
X81373347Y-75217277D01*
X81209233Y-75196014D01*
X81038428Y-75200960D01*
X80879298Y-75232039D01*
X80787560Y-75267844D01*
X80641026Y-75369486D01*
X80522149Y-75510797D01*
X80441765Y-75670127D01*
X80417557Y-75733800D01*
X80008222Y-75733800D01*
X80051867Y-75558735D01*
X80147606Y-75355643D01*
X80281079Y-75178563D01*
X80450108Y-75032672D01*
X80562999Y-74964689D01*
X80757603Y-74880746D01*
X80954926Y-74833901D01*
X81174213Y-74819400D01*
X81416530Y-74842406D01*
G37*
X81416530Y-74842406D02*
X81638894Y-74908705D01*
X81837133Y-75014213D01*
X82007079Y-75154847D01*
X82144559Y-75326524D01*
X82245404Y-75525162D01*
X82305443Y-75746678D01*
X82321300Y-75942336D01*
X82321300Y-76089400D01*
X80416300Y-76089400D01*
X80416300Y-76162498D01*
X80439217Y-76285649D01*
X80502655Y-76413172D01*
X80598643Y-76534298D01*
X80719211Y-76638256D01*
X80808388Y-76692239D01*
X80944242Y-76743647D01*
X81104904Y-76768683D01*
X81117872Y-76769596D01*
X81300129Y-76767127D01*
X81453803Y-76730329D01*
X81591495Y-76654614D01*
X81706193Y-76555419D01*
X81842013Y-76419600D01*
X82045268Y-76419600D01*
X82145811Y-76420246D01*
X82205033Y-76424122D01*
X82232410Y-76434133D01*
X82237419Y-76453182D01*
X82231730Y-76476750D01*
X82193417Y-76562398D01*
X82128499Y-76665086D01*
X82048774Y-76768606D01*
X81966044Y-76856746D01*
X81935857Y-76883173D01*
X81736990Y-77012773D01*
X81514302Y-77102237D01*
X81277596Y-77149509D01*
X81036673Y-77152535D01*
X80825357Y-77116004D01*
X80604245Y-77031879D01*
X80409425Y-76908023D01*
X80245825Y-76749554D01*
X80118374Y-76561590D01*
X80032001Y-76349249D01*
X80012844Y-76272299D01*
X79982308Y-76022242D01*
X79996041Y-75782661D01*
X80008222Y-75733800D01*
X80417557Y-75733800D01*
X81140828Y-75733800D01*
X81353414Y-75733528D01*
X81520499Y-75732521D01*
X81647379Y-75730494D01*
X81739351Y-75727158D01*
X81801712Y-75722229D01*
X81839759Y-75715420D01*
X81858788Y-75706444D01*
X81864097Y-75695014D01*
X81864100Y-75694688D01*
X81843723Y-75612758D01*
X81789025Y-75517173D01*
X81709652Y-75419722D01*
X81615248Y-75332195D01*
X81515461Y-75266383D01*
X81512403Y-75264826D01*
X81373347Y-75217277D01*
X81209233Y-75196014D01*
X81038428Y-75200960D01*
X80879298Y-75232039D01*
X80787560Y-75267844D01*
X80641026Y-75369486D01*
X80522149Y-75510797D01*
X80441765Y-75670127D01*
X80417557Y-75733800D01*
X80008222Y-75733800D01*
X80051867Y-75558735D01*
X80147606Y-75355643D01*
X80281079Y-75178563D01*
X80450108Y-75032672D01*
X80562999Y-74964689D01*
X80757603Y-74880746D01*
X80954926Y-74833901D01*
X81174213Y-74819400D01*
X81416530Y-74842406D01*
G36*
X77222237Y-74809436D02*
G01*
X77368300Y-74825961D01*
X77368300Y-75196729D01*
X77234950Y-75183068D01*
X77050851Y-75188139D01*
X76881452Y-75239922D01*
X76732881Y-75335056D01*
X76611266Y-75470179D01*
X76562389Y-75551869D01*
X76479300Y-75712838D01*
X76479300Y-77105400D01*
X76047500Y-77105400D01*
X76047500Y-74842745D01*
X76257050Y-74850122D01*
X76466600Y-74857500D01*
X76492000Y-75079358D01*
X76542769Y-75022946D01*
X76660946Y-74926357D01*
X76812798Y-74855267D01*
X76986042Y-74813536D01*
X77168390Y-74805025D01*
X77222237Y-74809436D01*
G37*
X77222237Y-74809436D02*
X77368300Y-74825961D01*
X77368300Y-75196729D01*
X77234950Y-75183068D01*
X77050851Y-75188139D01*
X76881452Y-75239922D01*
X76732881Y-75335056D01*
X76611266Y-75470179D01*
X76562389Y-75551869D01*
X76479300Y-75712838D01*
X76479300Y-77105400D01*
X76047500Y-77105400D01*
X76047500Y-74842745D01*
X76257050Y-74850122D01*
X76466600Y-74857500D01*
X76492000Y-75079358D01*
X76542769Y-75022946D01*
X76660946Y-74926357D01*
X76812798Y-74855267D01*
X76986042Y-74813536D01*
X77168390Y-74805025D01*
X77222237Y-74809436D01*
G36*
X78884491Y-74832791D02*
G01*
X78978575Y-74836451D01*
X79048990Y-74845455D01*
X79109301Y-74862181D01*
X79173070Y-74889005D01*
X79227251Y-74915171D01*
X79398298Y-75023513D01*
X79531548Y-75162673D01*
X79628879Y-75335378D01*
X79692168Y-75544354D01*
X79703575Y-75606800D01*
X79710864Y-75677770D01*
X79717403Y-75790525D01*
X79722903Y-75936049D01*
X79727074Y-76105330D01*
X79729627Y-76289353D01*
X79730308Y-76438650D01*
X79730500Y-77105400D01*
X79298700Y-77105400D01*
X79298700Y-76386110D01*
X79298093Y-76157457D01*
X79296100Y-75973758D01*
X79292463Y-75829177D01*
X79286922Y-75717882D01*
X79279219Y-75634037D01*
X79269095Y-75571809D01*
X79261197Y-75540534D01*
X79196437Y-75402307D01*
X79095530Y-75299106D01*
X78960103Y-75231984D01*
X78791780Y-75201999D01*
X78737312Y-75200400D01*
X78574841Y-75210817D01*
X78444862Y-75245694D01*
X78332764Y-75310472D01*
X78252860Y-75380726D01*
X78198673Y-75437731D01*
X78155291Y-75493501D01*
X78121523Y-75554365D01*
X78096179Y-75626652D01*
X78078067Y-75716689D01*
X78065996Y-75830805D01*
X78058777Y-75975327D01*
X78055217Y-76156585D01*
X78054126Y-76380907D01*
X78054100Y-76436910D01*
X78054100Y-77105400D01*
X77622300Y-77105400D01*
X77622300Y-74844800D01*
X78054100Y-74844800D01*
X78054100Y-75102707D01*
X78136364Y-75020442D01*
X78222752Y-74944836D01*
X78313455Y-74891569D01*
X78419478Y-74857282D01*
X78551824Y-74838616D01*
X78721495Y-74832211D01*
X78753174Y-74832100D01*
X78884491Y-74832791D01*
G37*
X78884491Y-74832791D02*
X78978575Y-74836451D01*
X79048990Y-74845455D01*
X79109301Y-74862181D01*
X79173070Y-74889005D01*
X79227251Y-74915171D01*
X79398298Y-75023513D01*
X79531548Y-75162673D01*
X79628879Y-75335378D01*
X79692168Y-75544354D01*
X79703575Y-75606800D01*
X79710864Y-75677770D01*
X79717403Y-75790525D01*
X79722903Y-75936049D01*
X79727074Y-76105330D01*
X79729627Y-76289353D01*
X79730308Y-76438650D01*
X79730500Y-77105400D01*
X79298700Y-77105400D01*
X79298700Y-76386110D01*
X79298093Y-76157457D01*
X79296100Y-75973758D01*
X79292463Y-75829177D01*
X79286922Y-75717882D01*
X79279219Y-75634037D01*
X79269095Y-75571809D01*
X79261197Y-75540534D01*
X79196437Y-75402307D01*
X79095530Y-75299106D01*
X78960103Y-75231984D01*
X78791780Y-75201999D01*
X78737312Y-75200400D01*
X78574841Y-75210817D01*
X78444862Y-75245694D01*
X78332764Y-75310472D01*
X78252860Y-75380726D01*
X78198673Y-75437731D01*
X78155291Y-75493501D01*
X78121523Y-75554365D01*
X78096179Y-75626652D01*
X78078067Y-75716689D01*
X78065996Y-75830805D01*
X78058777Y-75975327D01*
X78055217Y-76156585D01*
X78054126Y-76380907D01*
X78054100Y-76436910D01*
X78054100Y-77105400D01*
X77622300Y-77105400D01*
X77622300Y-74844800D01*
X78054100Y-74844800D01*
X78054100Y-75102707D01*
X78136364Y-75020442D01*
X78222752Y-74944836D01*
X78313455Y-74891569D01*
X78419478Y-74857282D01*
X78551824Y-74838616D01*
X78721495Y-74832211D01*
X78753174Y-74832100D01*
X78884491Y-74832791D01*
D10*
X147629380Y-27455285D02*
X147406047Y-27098142D01*
X147246523Y-27455285D02*
X147246523Y-26705285D01*
X147501761Y-26705285D01*
X147565571Y-26741000D01*
X147597476Y-26776714D01*
X147629380Y-26848142D01*
X147629380Y-26955285D01*
X147597476Y-27026714D01*
X147565571Y-27062428D01*
X147501761Y-27098142D01*
X147246523Y-27098142D01*
X147884619Y-27241000D02*
X148203666Y-27241000D01*
X147820809Y-27455285D02*
X148044142Y-26705285D01*
X148267476Y-27455285D01*
X148427000Y-26705285D02*
X148586523Y-27455285D01*
X148714142Y-26919571D01*
X148841761Y-27455285D01*
X149001285Y-26705285D01*
X157672023Y-34319000D02*
X157608214Y-34283285D01*
X157512500Y-34283285D01*
X157416785Y-34319000D01*
X157352976Y-34390428D01*
X157321071Y-34461857D01*
X157289166Y-34604714D01*
X157289166Y-34711857D01*
X157321071Y-34854714D01*
X157352976Y-34926142D01*
X157416785Y-34997571D01*
X157512500Y-35033285D01*
X157576309Y-35033285D01*
X157672023Y-34997571D01*
X157703928Y-34961857D01*
X157703928Y-34711857D01*
X157576309Y-34711857D01*
X157991071Y-35033285D02*
X157991071Y-34283285D01*
X158373928Y-35033285D01*
X158373928Y-34283285D01*
X158692976Y-35033285D02*
X158692976Y-34283285D01*
X158852500Y-34283285D01*
X158948214Y-34319000D01*
X159012023Y-34390428D01*
X159043928Y-34461857D01*
X159075833Y-34604714D01*
X159075833Y-34711857D01*
X159043928Y-34854714D01*
X159012023Y-34926142D01*
X158948214Y-34997571D01*
X158852500Y-35033285D01*
X158692976Y-35033285D01*
X147725095Y-32598785D02*
X147501761Y-32241642D01*
X147342238Y-32598785D02*
X147342238Y-31848785D01*
X147597476Y-31848785D01*
X147661285Y-31884500D01*
X147693190Y-31920214D01*
X147725095Y-31991642D01*
X147725095Y-32098785D01*
X147693190Y-32170214D01*
X147661285Y-32205928D01*
X147597476Y-32241642D01*
X147342238Y-32241642D01*
X147980333Y-32563071D02*
X148076047Y-32598785D01*
X148235571Y-32598785D01*
X148299380Y-32563071D01*
X148331285Y-32527357D01*
X148363190Y-32455928D01*
X148363190Y-32384500D01*
X148331285Y-32313071D01*
X148299380Y-32277357D01*
X148235571Y-32241642D01*
X148107952Y-32205928D01*
X148044142Y-32170214D01*
X148012238Y-32134500D01*
X147980333Y-32063071D01*
X147980333Y-31991642D01*
X148012238Y-31920214D01*
X148044142Y-31884500D01*
X148107952Y-31848785D01*
X148267476Y-31848785D01*
X148363190Y-31884500D01*
X148554619Y-31848785D02*
X148937476Y-31848785D01*
X148746047Y-32598785D02*
X148746047Y-31848785D01*
X147159166Y-34268285D02*
X147382500Y-35018285D01*
X147605833Y-34268285D01*
X148212023Y-34946857D02*
X148180119Y-34982571D01*
X148084404Y-35018285D01*
X148020595Y-35018285D01*
X147924880Y-34982571D01*
X147861071Y-34911142D01*
X147829166Y-34839714D01*
X147797261Y-34696857D01*
X147797261Y-34589714D01*
X147829166Y-34446857D01*
X147861071Y-34375428D01*
X147924880Y-34304000D01*
X148020595Y-34268285D01*
X148084404Y-34268285D01*
X148180119Y-34304000D01*
X148212023Y-34339714D01*
X148882023Y-34946857D02*
X148850119Y-34982571D01*
X148754404Y-35018285D01*
X148690595Y-35018285D01*
X148594880Y-34982571D01*
X148531071Y-34911142D01*
X148499166Y-34839714D01*
X148467261Y-34696857D01*
X148467261Y-34589714D01*
X148499166Y-34446857D01*
X148531071Y-34375428D01*
X148594880Y-34304000D01*
X148690595Y-34268285D01*
X148754404Y-34268285D01*
X148850119Y-34304000D01*
X148882023Y-34339714D01*
X147396785Y-37469000D02*
X147715833Y-37469000D01*
X147332976Y-37683285D02*
X147556309Y-36933285D01*
X147779642Y-37683285D01*
X147939166Y-36933285D02*
X148353928Y-36933285D01*
X148130595Y-37219000D01*
X148226309Y-37219000D01*
X148290119Y-37254714D01*
X148322023Y-37290428D01*
X148353928Y-37361857D01*
X148353928Y-37540428D01*
X148322023Y-37611857D01*
X148290119Y-37647571D01*
X148226309Y-37683285D01*
X148034880Y-37683285D01*
X147971071Y-37647571D01*
X147939166Y-37611857D01*
X149119642Y-36897571D02*
X148545357Y-37861857D01*
X149566309Y-37290428D02*
X149342976Y-37290428D01*
X149342976Y-37683285D02*
X149342976Y-36933285D01*
X149662023Y-36933285D01*
X150204404Y-37183285D02*
X150204404Y-37683285D01*
X150044880Y-36897571D02*
X149885357Y-37433285D01*
X150300119Y-37433285D01*
X147396785Y-39969000D02*
X147715833Y-39969000D01*
X147332976Y-40183285D02*
X147556309Y-39433285D01*
X147779642Y-40183285D01*
X147971071Y-39504714D02*
X148002976Y-39469000D01*
X148066785Y-39433285D01*
X148226309Y-39433285D01*
X148290119Y-39469000D01*
X148322023Y-39504714D01*
X148353928Y-39576142D01*
X148353928Y-39647571D01*
X148322023Y-39754714D01*
X147939166Y-40183285D01*
X148353928Y-40183285D01*
X149119642Y-39397571D02*
X148545357Y-40361857D01*
X149566309Y-39790428D02*
X149342976Y-39790428D01*
X149342976Y-40183285D02*
X149342976Y-39433285D01*
X149662023Y-39433285D01*
X150236309Y-39433285D02*
X149917261Y-39433285D01*
X149885357Y-39790428D01*
X149917261Y-39754714D01*
X149981071Y-39719000D01*
X150140595Y-39719000D01*
X150204404Y-39754714D01*
X150236309Y-39790428D01*
X150268214Y-39861857D01*
X150268214Y-40040428D01*
X150236309Y-40111857D01*
X150204404Y-40147571D01*
X150140595Y-40183285D01*
X149981071Y-40183285D01*
X149917261Y-40147571D01*
X149885357Y-40111857D01*
X147396785Y-42469000D02*
X147715833Y-42469000D01*
X147332976Y-42683285D02*
X147556309Y-41933285D01*
X147779642Y-42683285D01*
X148353928Y-42683285D02*
X147971071Y-42683285D01*
X148162500Y-42683285D02*
X148162500Y-41933285D01*
X148098690Y-42040428D01*
X148034880Y-42111857D01*
X147971071Y-42147571D01*
X149119642Y-41897571D02*
X148545357Y-42861857D01*
X149566309Y-42290428D02*
X149342976Y-42290428D01*
X149342976Y-42683285D02*
X149342976Y-41933285D01*
X149662023Y-41933285D01*
X150204404Y-41933285D02*
X150076785Y-41933285D01*
X150012976Y-41969000D01*
X149981071Y-42004714D01*
X149917261Y-42111857D01*
X149885357Y-42254714D01*
X149885357Y-42540428D01*
X149917261Y-42611857D01*
X149949166Y-42647571D01*
X150012976Y-42683285D01*
X150140595Y-42683285D01*
X150204404Y-42647571D01*
X150236309Y-42611857D01*
X150268214Y-42540428D01*
X150268214Y-42361857D01*
X150236309Y-42290428D01*
X150204404Y-42254714D01*
X150140595Y-42219000D01*
X150012976Y-42219000D01*
X149949166Y-42254714D01*
X149917261Y-42290428D01*
X149885357Y-42361857D01*
X147396785Y-45019000D02*
X147715833Y-45019000D01*
X147332976Y-45233285D02*
X147556309Y-44483285D01*
X147779642Y-45233285D01*
X148130595Y-44483285D02*
X148194404Y-44483285D01*
X148258214Y-44519000D01*
X148290119Y-44554714D01*
X148322023Y-44626142D01*
X148353928Y-44769000D01*
X148353928Y-44947571D01*
X148322023Y-45090428D01*
X148290119Y-45161857D01*
X148258214Y-45197571D01*
X148194404Y-45233285D01*
X148130595Y-45233285D01*
X148066785Y-45197571D01*
X148034880Y-45161857D01*
X148002976Y-45090428D01*
X147971071Y-44947571D01*
X147971071Y-44769000D01*
X148002976Y-44626142D01*
X148034880Y-44554714D01*
X148066785Y-44519000D01*
X148130595Y-44483285D01*
X149119642Y-44447571D02*
X148545357Y-45411857D01*
X149566309Y-44840428D02*
X149342976Y-44840428D01*
X149342976Y-45233285D02*
X149342976Y-44483285D01*
X149662023Y-44483285D01*
X149853452Y-44483285D02*
X150300119Y-44483285D01*
X150012976Y-45233285D01*
X147699880Y-47783285D02*
X147317023Y-47783285D01*
X147508452Y-47783285D02*
X147508452Y-47033285D01*
X147444642Y-47140428D01*
X147380833Y-47211857D01*
X147317023Y-47247571D01*
X148306071Y-47033285D02*
X147987023Y-47033285D01*
X147955119Y-47390428D01*
X147987023Y-47354714D01*
X148050833Y-47319000D01*
X148210357Y-47319000D01*
X148274166Y-47354714D01*
X148306071Y-47390428D01*
X148337976Y-47461857D01*
X148337976Y-47640428D01*
X148306071Y-47711857D01*
X148274166Y-47747571D01*
X148210357Y-47783285D01*
X148050833Y-47783285D01*
X147987023Y-47747571D01*
X147955119Y-47711857D01*
X149103690Y-46997571D02*
X148529404Y-47961857D01*
X149550357Y-47390428D02*
X149646071Y-47426142D01*
X149677976Y-47461857D01*
X149709880Y-47533285D01*
X149709880Y-47640428D01*
X149677976Y-47711857D01*
X149646071Y-47747571D01*
X149582261Y-47783285D01*
X149327023Y-47783285D01*
X149327023Y-47033285D01*
X149550357Y-47033285D01*
X149614166Y-47069000D01*
X149646071Y-47104714D01*
X149677976Y-47176142D01*
X149677976Y-47247571D01*
X149646071Y-47319000D01*
X149614166Y-47354714D01*
X149550357Y-47390428D01*
X149327023Y-47390428D01*
X150347976Y-47783285D02*
X149965119Y-47783285D01*
X150156547Y-47783285D02*
X150156547Y-47033285D01*
X150092738Y-47140428D01*
X150028928Y-47211857D01*
X149965119Y-47247571D01*
X147699880Y-50333285D02*
X147317023Y-50333285D01*
X147508452Y-50333285D02*
X147508452Y-49583285D01*
X147444642Y-49690428D01*
X147380833Y-49761857D01*
X147317023Y-49797571D01*
X148274166Y-49833285D02*
X148274166Y-50333285D01*
X148114642Y-49547571D02*
X147955119Y-50083285D01*
X148369880Y-50083285D01*
X149103690Y-49547571D02*
X148529404Y-50511857D01*
X149550357Y-49940428D02*
X149646071Y-49976142D01*
X149677976Y-50011857D01*
X149709880Y-50083285D01*
X149709880Y-50190428D01*
X149677976Y-50261857D01*
X149646071Y-50297571D01*
X149582261Y-50333285D01*
X149327023Y-50333285D01*
X149327023Y-49583285D01*
X149550357Y-49583285D01*
X149614166Y-49619000D01*
X149646071Y-49654714D01*
X149677976Y-49726142D01*
X149677976Y-49797571D01*
X149646071Y-49869000D01*
X149614166Y-49904714D01*
X149550357Y-49940428D01*
X149327023Y-49940428D01*
X149933214Y-49583285D02*
X150347976Y-49583285D01*
X150124642Y-49869000D01*
X150220357Y-49869000D01*
X150284166Y-49904714D01*
X150316071Y-49940428D01*
X150347976Y-50011857D01*
X150347976Y-50190428D01*
X150316071Y-50261857D01*
X150284166Y-50297571D01*
X150220357Y-50333285D01*
X150028928Y-50333285D01*
X149965119Y-50297571D01*
X149933214Y-50261857D01*
X147699880Y-55383285D02*
X147317023Y-55383285D01*
X147508452Y-55383285D02*
X147508452Y-54633285D01*
X147444642Y-54740428D01*
X147380833Y-54811857D01*
X147317023Y-54847571D01*
X148114642Y-54633285D02*
X148178452Y-54633285D01*
X148242261Y-54669000D01*
X148274166Y-54704714D01*
X148306071Y-54776142D01*
X148337976Y-54919000D01*
X148337976Y-55097571D01*
X148306071Y-55240428D01*
X148274166Y-55311857D01*
X148242261Y-55347571D01*
X148178452Y-55383285D01*
X148114642Y-55383285D01*
X148050833Y-55347571D01*
X148018928Y-55311857D01*
X147987023Y-55240428D01*
X147955119Y-55097571D01*
X147955119Y-54919000D01*
X147987023Y-54776142D01*
X148018928Y-54704714D01*
X148050833Y-54669000D01*
X148114642Y-54633285D01*
X149103690Y-54597571D02*
X148529404Y-55561857D01*
X149550357Y-54990428D02*
X149646071Y-55026142D01*
X149677976Y-55061857D01*
X149709880Y-55133285D01*
X149709880Y-55240428D01*
X149677976Y-55311857D01*
X149646071Y-55347571D01*
X149582261Y-55383285D01*
X149327023Y-55383285D01*
X149327023Y-54633285D01*
X149550357Y-54633285D01*
X149614166Y-54669000D01*
X149646071Y-54704714D01*
X149677976Y-54776142D01*
X149677976Y-54847571D01*
X149646071Y-54919000D01*
X149614166Y-54954714D01*
X149550357Y-54990428D01*
X149327023Y-54990428D01*
X150284166Y-54633285D02*
X150156547Y-54633285D01*
X150092738Y-54669000D01*
X150060833Y-54704714D01*
X149997023Y-54811857D01*
X149965119Y-54954714D01*
X149965119Y-55240428D01*
X149997023Y-55311857D01*
X150028928Y-55347571D01*
X150092738Y-55383285D01*
X150220357Y-55383285D01*
X150284166Y-55347571D01*
X150316071Y-55311857D01*
X150347976Y-55240428D01*
X150347976Y-55061857D01*
X150316071Y-54990428D01*
X150284166Y-54954714D01*
X150220357Y-54919000D01*
X150092738Y-54919000D01*
X150028928Y-54954714D01*
X149997023Y-54990428D01*
X149965119Y-55061857D01*
X147699880Y-52883285D02*
X147317023Y-52883285D01*
X147508452Y-52883285D02*
X147508452Y-52133285D01*
X147444642Y-52240428D01*
X147380833Y-52311857D01*
X147317023Y-52347571D01*
X148274166Y-52133285D02*
X148146547Y-52133285D01*
X148082738Y-52169000D01*
X148050833Y-52204714D01*
X147987023Y-52311857D01*
X147955119Y-52454714D01*
X147955119Y-52740428D01*
X147987023Y-52811857D01*
X148018928Y-52847571D01*
X148082738Y-52883285D01*
X148210357Y-52883285D01*
X148274166Y-52847571D01*
X148306071Y-52811857D01*
X148337976Y-52740428D01*
X148337976Y-52561857D01*
X148306071Y-52490428D01*
X148274166Y-52454714D01*
X148210357Y-52419000D01*
X148082738Y-52419000D01*
X148018928Y-52454714D01*
X147987023Y-52490428D01*
X147955119Y-52561857D01*
X149103690Y-52097571D02*
X148529404Y-53061857D01*
X149550357Y-52490428D02*
X149646071Y-52526142D01*
X149677976Y-52561857D01*
X149709880Y-52633285D01*
X149709880Y-52740428D01*
X149677976Y-52811857D01*
X149646071Y-52847571D01*
X149582261Y-52883285D01*
X149327023Y-52883285D01*
X149327023Y-52133285D01*
X149550357Y-52133285D01*
X149614166Y-52169000D01*
X149646071Y-52204714D01*
X149677976Y-52276142D01*
X149677976Y-52347571D01*
X149646071Y-52419000D01*
X149614166Y-52454714D01*
X149550357Y-52490428D01*
X149327023Y-52490428D01*
X149965119Y-52204714D02*
X149997023Y-52169000D01*
X150060833Y-52133285D01*
X150220357Y-52133285D01*
X150284166Y-52169000D01*
X150316071Y-52204714D01*
X150347976Y-52276142D01*
X150347976Y-52347571D01*
X150316071Y-52454714D01*
X149933214Y-52883285D01*
X150347976Y-52883285D01*
X156799880Y-49790428D02*
X157023214Y-49790428D01*
X157118928Y-50183285D02*
X156799880Y-50183285D01*
X156799880Y-49433285D01*
X157118928Y-49433285D01*
X157693214Y-49433285D02*
X157565595Y-49433285D01*
X157501785Y-49469000D01*
X157469880Y-49504714D01*
X157406071Y-49611857D01*
X157374166Y-49754714D01*
X157374166Y-50040428D01*
X157406071Y-50111857D01*
X157437976Y-50147571D01*
X157501785Y-50183285D01*
X157629404Y-50183285D01*
X157693214Y-50147571D01*
X157725119Y-50111857D01*
X157757023Y-50040428D01*
X157757023Y-49861857D01*
X157725119Y-49790428D01*
X157693214Y-49754714D01*
X157629404Y-49719000D01*
X157501785Y-49719000D01*
X157437976Y-49754714D01*
X157406071Y-49790428D01*
X157374166Y-49861857D01*
X158522738Y-49397571D02*
X157948452Y-50361857D01*
X158682261Y-49433285D02*
X159128928Y-49433285D01*
X158841785Y-50183285D01*
X156767976Y-47633285D02*
X156767976Y-46883285D01*
X156927500Y-46883285D01*
X157023214Y-46919000D01*
X157087023Y-46990428D01*
X157118928Y-47061857D01*
X157150833Y-47204714D01*
X157150833Y-47311857D01*
X157118928Y-47454714D01*
X157087023Y-47526142D01*
X157023214Y-47597571D01*
X156927500Y-47633285D01*
X156767976Y-47633285D01*
X157374166Y-46883285D02*
X157820833Y-46883285D01*
X157533690Y-47633285D01*
X158554642Y-46847571D02*
X157980357Y-47811857D01*
X159065119Y-46883285D02*
X158937500Y-46883285D01*
X158873690Y-46919000D01*
X158841785Y-46954714D01*
X158777976Y-47061857D01*
X158746071Y-47204714D01*
X158746071Y-47490428D01*
X158777976Y-47561857D01*
X158809880Y-47597571D01*
X158873690Y-47633285D01*
X159001309Y-47633285D01*
X159065119Y-47597571D01*
X159097023Y-47561857D01*
X159128928Y-47490428D01*
X159128928Y-47311857D01*
X159097023Y-47240428D01*
X159065119Y-47204714D01*
X159001309Y-47169000D01*
X158873690Y-47169000D01*
X158809880Y-47204714D01*
X158777976Y-47240428D01*
X158746071Y-47311857D01*
X157672023Y-31869000D02*
X157608214Y-31833285D01*
X157512500Y-31833285D01*
X157416785Y-31869000D01*
X157352976Y-31940428D01*
X157321071Y-32011857D01*
X157289166Y-32154714D01*
X157289166Y-32261857D01*
X157321071Y-32404714D01*
X157352976Y-32476142D01*
X157416785Y-32547571D01*
X157512500Y-32583285D01*
X157576309Y-32583285D01*
X157672023Y-32547571D01*
X157703928Y-32511857D01*
X157703928Y-32261857D01*
X157576309Y-32261857D01*
X157991071Y-32583285D02*
X157991071Y-31833285D01*
X158373928Y-32583285D01*
X158373928Y-31833285D01*
X158692976Y-32583285D02*
X158692976Y-31833285D01*
X158852500Y-31833285D01*
X158948214Y-31869000D01*
X159012023Y-31940428D01*
X159043928Y-32011857D01*
X159075833Y-32154714D01*
X159075833Y-32261857D01*
X159043928Y-32404714D01*
X159012023Y-32476142D01*
X158948214Y-32547571D01*
X158852500Y-32583285D01*
X158692976Y-32583285D01*
X157672023Y-34319000D02*
X157608214Y-34283285D01*
X157512500Y-34283285D01*
X157416785Y-34319000D01*
X157352976Y-34390428D01*
X157321071Y-34461857D01*
X157289166Y-34604714D01*
X157289166Y-34711857D01*
X157321071Y-34854714D01*
X157352976Y-34926142D01*
X157416785Y-34997571D01*
X157512500Y-35033285D01*
X157576309Y-35033285D01*
X157672023Y-34997571D01*
X157703928Y-34961857D01*
X157703928Y-34711857D01*
X157576309Y-34711857D01*
X157991071Y-35033285D02*
X157991071Y-34283285D01*
X158373928Y-35033285D01*
X158373928Y-34283285D01*
X158692976Y-35033285D02*
X158692976Y-34283285D01*
X158852500Y-34283285D01*
X158948214Y-34319000D01*
X159012023Y-34390428D01*
X159043928Y-34461857D01*
X159075833Y-34604714D01*
X159075833Y-34711857D01*
X159043928Y-34854714D01*
X159012023Y-34926142D01*
X158948214Y-34997571D01*
X158852500Y-35033285D01*
X158692976Y-35033285D01*
X155643690Y-27483285D02*
X155643690Y-26733285D01*
X155803214Y-26733285D01*
X155898928Y-26769000D01*
X155962738Y-26840428D01*
X155994642Y-26911857D01*
X156026547Y-27054714D01*
X156026547Y-27161857D01*
X155994642Y-27304714D01*
X155962738Y-27376142D01*
X155898928Y-27447571D01*
X155803214Y-27483285D01*
X155643690Y-27483285D01*
X156249880Y-26733285D02*
X156664642Y-26733285D01*
X156441309Y-27019000D01*
X156537023Y-27019000D01*
X156600833Y-27054714D01*
X156632738Y-27090428D01*
X156664642Y-27161857D01*
X156664642Y-27340428D01*
X156632738Y-27411857D01*
X156600833Y-27447571D01*
X156537023Y-27483285D01*
X156345595Y-27483285D01*
X156281785Y-27447571D01*
X156249880Y-27411857D01*
X157430357Y-26697571D02*
X156856071Y-27661857D01*
X157557976Y-26733285D02*
X157940833Y-26733285D01*
X157749404Y-27483285D02*
X157749404Y-26733285D01*
X158100357Y-26733285D02*
X158547023Y-27483285D01*
X158547023Y-26733285D02*
X158100357Y-27483285D01*
X158929880Y-26733285D02*
X158993690Y-26733285D01*
X159057500Y-26769000D01*
X159089404Y-26804714D01*
X159121309Y-26876142D01*
X159153214Y-27019000D01*
X159153214Y-27197571D01*
X159121309Y-27340428D01*
X159089404Y-27411857D01*
X159057500Y-27447571D01*
X158993690Y-27483285D01*
X158929880Y-27483285D01*
X158866071Y-27447571D01*
X158834166Y-27411857D01*
X158802261Y-27340428D01*
X158770357Y-27197571D01*
X158770357Y-27019000D01*
X158802261Y-26876142D01*
X158834166Y-26804714D01*
X158866071Y-26769000D01*
X158929880Y-26733285D01*
X156767976Y-42533285D02*
X156767976Y-41783285D01*
X156927500Y-41783285D01*
X157023214Y-41819000D01*
X157087023Y-41890428D01*
X157118928Y-41961857D01*
X157150833Y-42104714D01*
X157150833Y-42211857D01*
X157118928Y-42354714D01*
X157087023Y-42426142D01*
X157023214Y-42497571D01*
X156927500Y-42533285D01*
X156767976Y-42533285D01*
X157725119Y-42033285D02*
X157725119Y-42533285D01*
X157565595Y-41747571D02*
X157406071Y-42283285D01*
X157820833Y-42283285D01*
X158554642Y-41747571D02*
X157980357Y-42711857D01*
X159065119Y-42033285D02*
X159065119Y-42533285D01*
X158905595Y-41747571D02*
X158746071Y-42283285D01*
X159160833Y-42283285D01*
X154193928Y-37497571D02*
X154289642Y-37533285D01*
X154449166Y-37533285D01*
X154512976Y-37497571D01*
X154544880Y-37461857D01*
X154576785Y-37390428D01*
X154576785Y-37319000D01*
X154544880Y-37247571D01*
X154512976Y-37211857D01*
X154449166Y-37176142D01*
X154321547Y-37140428D01*
X154257738Y-37104714D01*
X154225833Y-37069000D01*
X154193928Y-36997571D01*
X154193928Y-36926142D01*
X154225833Y-36854714D01*
X154257738Y-36819000D01*
X154321547Y-36783285D01*
X154481071Y-36783285D01*
X154576785Y-36819000D01*
X154863928Y-37533285D02*
X154863928Y-36783285D01*
X155023452Y-36783285D01*
X155119166Y-36819000D01*
X155182976Y-36890428D01*
X155214880Y-36961857D01*
X155246785Y-37104714D01*
X155246785Y-37211857D01*
X155214880Y-37354714D01*
X155182976Y-37426142D01*
X155119166Y-37497571D01*
X155023452Y-37533285D01*
X154863928Y-37533285D01*
X155502023Y-37319000D02*
X155821071Y-37319000D01*
X155438214Y-37533285D02*
X155661547Y-36783285D01*
X155884880Y-37533285D01*
X156586785Y-36747571D02*
X156012500Y-37711857D01*
X156810119Y-37533285D02*
X156810119Y-36783285D01*
X156969642Y-36783285D01*
X157065357Y-36819000D01*
X157129166Y-36890428D01*
X157161071Y-36961857D01*
X157192976Y-37104714D01*
X157192976Y-37211857D01*
X157161071Y-37354714D01*
X157129166Y-37426142D01*
X157065357Y-37497571D01*
X156969642Y-37533285D01*
X156810119Y-37533285D01*
X157831071Y-37533285D02*
X157448214Y-37533285D01*
X157639642Y-37533285D02*
X157639642Y-36783285D01*
X157575833Y-36890428D01*
X157512023Y-36961857D01*
X157448214Y-36997571D01*
X158596785Y-36747571D02*
X158022500Y-37711857D01*
X158788214Y-36854714D02*
X158820119Y-36819000D01*
X158883928Y-36783285D01*
X159043452Y-36783285D01*
X159107261Y-36819000D01*
X159139166Y-36854714D01*
X159171071Y-36926142D01*
X159171071Y-36997571D01*
X159139166Y-37104714D01*
X158756309Y-37533285D01*
X159171071Y-37533285D01*
X154209880Y-39997571D02*
X154305595Y-40033285D01*
X154465119Y-40033285D01*
X154528928Y-39997571D01*
X154560833Y-39961857D01*
X154592738Y-39890428D01*
X154592738Y-39819000D01*
X154560833Y-39747571D01*
X154528928Y-39711857D01*
X154465119Y-39676142D01*
X154337500Y-39640428D01*
X154273690Y-39604714D01*
X154241785Y-39569000D01*
X154209880Y-39497571D01*
X154209880Y-39426142D01*
X154241785Y-39354714D01*
X154273690Y-39319000D01*
X154337500Y-39283285D01*
X154497023Y-39283285D01*
X154592738Y-39319000D01*
X155262738Y-39961857D02*
X155230833Y-39997571D01*
X155135119Y-40033285D01*
X155071309Y-40033285D01*
X154975595Y-39997571D01*
X154911785Y-39926142D01*
X154879880Y-39854714D01*
X154847976Y-39711857D01*
X154847976Y-39604714D01*
X154879880Y-39461857D01*
X154911785Y-39390428D01*
X154975595Y-39319000D01*
X155071309Y-39283285D01*
X155135119Y-39283285D01*
X155230833Y-39319000D01*
X155262738Y-39354714D01*
X155868928Y-40033285D02*
X155549880Y-40033285D01*
X155549880Y-39283285D01*
X156570833Y-39247571D02*
X155996547Y-40211857D01*
X156794166Y-40033285D02*
X156794166Y-39283285D01*
X156953690Y-39283285D01*
X157049404Y-39319000D01*
X157113214Y-39390428D01*
X157145119Y-39461857D01*
X157177023Y-39604714D01*
X157177023Y-39711857D01*
X157145119Y-39854714D01*
X157113214Y-39926142D01*
X157049404Y-39997571D01*
X156953690Y-40033285D01*
X156794166Y-40033285D01*
X157591785Y-39283285D02*
X157655595Y-39283285D01*
X157719404Y-39319000D01*
X157751309Y-39354714D01*
X157783214Y-39426142D01*
X157815119Y-39569000D01*
X157815119Y-39747571D01*
X157783214Y-39890428D01*
X157751309Y-39961857D01*
X157719404Y-39997571D01*
X157655595Y-40033285D01*
X157591785Y-40033285D01*
X157527976Y-39997571D01*
X157496071Y-39961857D01*
X157464166Y-39890428D01*
X157432261Y-39747571D01*
X157432261Y-39569000D01*
X157464166Y-39426142D01*
X157496071Y-39354714D01*
X157527976Y-39319000D01*
X157591785Y-39283285D01*
X158580833Y-39247571D02*
X158006547Y-40211857D01*
X158740357Y-39283285D02*
X159155119Y-39283285D01*
X158931785Y-39569000D01*
X159027500Y-39569000D01*
X159091309Y-39604714D01*
X159123214Y-39640428D01*
X159155119Y-39711857D01*
X159155119Y-39890428D01*
X159123214Y-39961857D01*
X159091309Y-39997571D01*
X159027500Y-40033285D01*
X158836071Y-40033285D01*
X158772261Y-39997571D01*
X158740357Y-39961857D01*
X157150833Y-45011857D02*
X157118928Y-45047571D01*
X157023214Y-45083285D01*
X156959404Y-45083285D01*
X156863690Y-45047571D01*
X156799880Y-44976142D01*
X156767976Y-44904714D01*
X156736071Y-44761857D01*
X156736071Y-44654714D01*
X156767976Y-44511857D01*
X156799880Y-44440428D01*
X156863690Y-44369000D01*
X156959404Y-44333285D01*
X157023214Y-44333285D01*
X157118928Y-44369000D01*
X157150833Y-44404714D01*
X157725119Y-44333285D02*
X157597500Y-44333285D01*
X157533690Y-44369000D01*
X157501785Y-44404714D01*
X157437976Y-44511857D01*
X157406071Y-44654714D01*
X157406071Y-44940428D01*
X157437976Y-45011857D01*
X157469880Y-45047571D01*
X157533690Y-45083285D01*
X157661309Y-45083285D01*
X157725119Y-45047571D01*
X157757023Y-45011857D01*
X157788928Y-44940428D01*
X157788928Y-44761857D01*
X157757023Y-44690428D01*
X157725119Y-44654714D01*
X157661309Y-44619000D01*
X157533690Y-44619000D01*
X157469880Y-44654714D01*
X157437976Y-44690428D01*
X157406071Y-44761857D01*
X158554642Y-44297571D02*
X157980357Y-45261857D01*
X159097023Y-44333285D02*
X158777976Y-44333285D01*
X158746071Y-44690428D01*
X158777976Y-44654714D01*
X158841785Y-44619000D01*
X159001309Y-44619000D01*
X159065119Y-44654714D01*
X159097023Y-44690428D01*
X159128928Y-44761857D01*
X159128928Y-44940428D01*
X159097023Y-45011857D01*
X159065119Y-45047571D01*
X159001309Y-45083285D01*
X158841785Y-45083285D01*
X158777976Y-45047571D01*
X158746071Y-45011857D01*
X156991309Y-54840428D02*
X157087023Y-54876142D01*
X157118928Y-54911857D01*
X157150833Y-54983285D01*
X157150833Y-55090428D01*
X157118928Y-55161857D01*
X157087023Y-55197571D01*
X157023214Y-55233285D01*
X156767976Y-55233285D01*
X156767976Y-54483285D01*
X156991309Y-54483285D01*
X157055119Y-54519000D01*
X157087023Y-54554714D01*
X157118928Y-54626142D01*
X157118928Y-54697571D01*
X157087023Y-54769000D01*
X157055119Y-54804714D01*
X156991309Y-54840428D01*
X156767976Y-54840428D01*
X157757023Y-54483285D02*
X157437976Y-54483285D01*
X157406071Y-54840428D01*
X157437976Y-54804714D01*
X157501785Y-54769000D01*
X157661309Y-54769000D01*
X157725119Y-54804714D01*
X157757023Y-54840428D01*
X157788928Y-54911857D01*
X157788928Y-55090428D01*
X157757023Y-55161857D01*
X157725119Y-55197571D01*
X157661309Y-55233285D01*
X157501785Y-55233285D01*
X157437976Y-55197571D01*
X157406071Y-55161857D01*
X158554642Y-54447571D02*
X157980357Y-55411857D01*
X158809880Y-55233285D02*
X158937500Y-55233285D01*
X159001309Y-55197571D01*
X159033214Y-55161857D01*
X159097023Y-55054714D01*
X159128928Y-54911857D01*
X159128928Y-54626142D01*
X159097023Y-54554714D01*
X159065119Y-54519000D01*
X159001309Y-54483285D01*
X158873690Y-54483285D01*
X158809880Y-54519000D01*
X158777976Y-54554714D01*
X158746071Y-54626142D01*
X158746071Y-54804714D01*
X158777976Y-54876142D01*
X158809880Y-54911857D01*
X158873690Y-54947571D01*
X159001309Y-54947571D01*
X159065119Y-54911857D01*
X159097023Y-54876142D01*
X159128928Y-54804714D01*
X155563928Y-30033285D02*
X155563928Y-29283285D01*
X155723452Y-29283285D01*
X155819166Y-29319000D01*
X155882976Y-29390428D01*
X155914880Y-29461857D01*
X155946785Y-29604714D01*
X155946785Y-29711857D01*
X155914880Y-29854714D01*
X155882976Y-29926142D01*
X155819166Y-29997571D01*
X155723452Y-30033285D01*
X155563928Y-30033285D01*
X156202023Y-29354714D02*
X156233928Y-29319000D01*
X156297738Y-29283285D01*
X156457261Y-29283285D01*
X156521071Y-29319000D01*
X156552976Y-29354714D01*
X156584880Y-29426142D01*
X156584880Y-29497571D01*
X156552976Y-29604714D01*
X156170119Y-30033285D01*
X156584880Y-30033285D01*
X157350595Y-29247571D02*
X156776309Y-30211857D01*
X157956785Y-30033285D02*
X157733452Y-29676142D01*
X157573928Y-30033285D02*
X157573928Y-29283285D01*
X157829166Y-29283285D01*
X157892976Y-29319000D01*
X157924880Y-29354714D01*
X157956785Y-29426142D01*
X157956785Y-29533285D01*
X157924880Y-29604714D01*
X157892976Y-29640428D01*
X157829166Y-29676142D01*
X157573928Y-29676142D01*
X158180119Y-29283285D02*
X158626785Y-30033285D01*
X158626785Y-29283285D02*
X158180119Y-30033285D01*
X159232976Y-30033285D02*
X158850119Y-30033285D01*
X159041547Y-30033285D02*
X159041547Y-29283285D01*
X158977738Y-29390428D01*
X158913928Y-29461857D01*
X158850119Y-29497571D01*
X156991309Y-52340428D02*
X157087023Y-52376142D01*
X157118928Y-52411857D01*
X157150833Y-52483285D01*
X157150833Y-52590428D01*
X157118928Y-52661857D01*
X157087023Y-52697571D01*
X157023214Y-52733285D01*
X156767976Y-52733285D01*
X156767976Y-51983285D01*
X156991309Y-51983285D01*
X157055119Y-52019000D01*
X157087023Y-52054714D01*
X157118928Y-52126142D01*
X157118928Y-52197571D01*
X157087023Y-52269000D01*
X157055119Y-52304714D01*
X156991309Y-52340428D01*
X156767976Y-52340428D01*
X157725119Y-52233285D02*
X157725119Y-52733285D01*
X157565595Y-51947571D02*
X157406071Y-52483285D01*
X157820833Y-52483285D01*
X158554642Y-51947571D02*
X157980357Y-52911857D01*
X158873690Y-52304714D02*
X158809880Y-52269000D01*
X158777976Y-52233285D01*
X158746071Y-52161857D01*
X158746071Y-52126142D01*
X158777976Y-52054714D01*
X158809880Y-52019000D01*
X158873690Y-51983285D01*
X159001309Y-51983285D01*
X159065119Y-52019000D01*
X159097023Y-52054714D01*
X159128928Y-52126142D01*
X159128928Y-52161857D01*
X159097023Y-52233285D01*
X159065119Y-52269000D01*
X159001309Y-52304714D01*
X158873690Y-52304714D01*
X158809880Y-52340428D01*
X158777976Y-52376142D01*
X158746071Y-52447571D01*
X158746071Y-52590428D01*
X158777976Y-52661857D01*
X158809880Y-52697571D01*
X158873690Y-52733285D01*
X159001309Y-52733285D01*
X159065119Y-52697571D01*
X159097023Y-52661857D01*
X159128928Y-52590428D01*
X159128928Y-52447571D01*
X159097023Y-52376142D01*
X159065119Y-52340428D01*
X159001309Y-52304714D01*
X150992023Y-22983285D02*
X150992023Y-22233285D01*
X151215357Y-22769000D01*
X151438690Y-22233285D01*
X151438690Y-22983285D01*
X151757738Y-22983285D02*
X151757738Y-22483285D01*
X151757738Y-22233285D02*
X151725833Y-22269000D01*
X151757738Y-22304714D01*
X151789642Y-22269000D01*
X151757738Y-22233285D01*
X151757738Y-22304714D01*
X152363928Y-22947571D02*
X152300119Y-22983285D01*
X152172500Y-22983285D01*
X152108690Y-22947571D01*
X152076785Y-22911857D01*
X152044880Y-22840428D01*
X152044880Y-22626142D01*
X152076785Y-22554714D01*
X152108690Y-22519000D01*
X152172500Y-22483285D01*
X152300119Y-22483285D01*
X152363928Y-22519000D01*
X152651071Y-22983285D02*
X152651071Y-22483285D01*
X152651071Y-22626142D02*
X152682976Y-22554714D01*
X152714880Y-22519000D01*
X152778690Y-22483285D01*
X152842500Y-22483285D01*
X153161547Y-22983285D02*
X153097738Y-22947571D01*
X153065833Y-22911857D01*
X153033928Y-22840428D01*
X153033928Y-22626142D01*
X153065833Y-22554714D01*
X153097738Y-22519000D01*
X153161547Y-22483285D01*
X153257261Y-22483285D01*
X153321071Y-22519000D01*
X153352976Y-22554714D01*
X153384880Y-22626142D01*
X153384880Y-22840428D01*
X153352976Y-22911857D01*
X153321071Y-22947571D01*
X153257261Y-22983285D01*
X153161547Y-22983285D01*
X153672023Y-22233285D02*
X153672023Y-22840428D01*
X153703928Y-22911857D01*
X153735833Y-22947571D01*
X153799642Y-22983285D01*
X153927261Y-22983285D01*
X153991071Y-22947571D01*
X154022976Y-22911857D01*
X154054880Y-22840428D01*
X154054880Y-22233285D01*
X154342023Y-22947571D02*
X154437738Y-22983285D01*
X154597261Y-22983285D01*
X154661071Y-22947571D01*
X154692976Y-22911857D01*
X154724880Y-22840428D01*
X154724880Y-22769000D01*
X154692976Y-22697571D01*
X154661071Y-22661857D01*
X154597261Y-22626142D01*
X154469642Y-22590428D01*
X154405833Y-22554714D01*
X154373928Y-22519000D01*
X154342023Y-22447571D01*
X154342023Y-22376142D01*
X154373928Y-22304714D01*
X154405833Y-22269000D01*
X154469642Y-22233285D01*
X154629166Y-22233285D01*
X154724880Y-22269000D01*
X155235357Y-22590428D02*
X155331071Y-22626142D01*
X155362976Y-22661857D01*
X155394880Y-22733285D01*
X155394880Y-22840428D01*
X155362976Y-22911857D01*
X155331071Y-22947571D01*
X155267261Y-22983285D01*
X155012023Y-22983285D01*
X155012023Y-22233285D01*
X155235357Y-22233285D01*
X155299166Y-22269000D01*
X155331071Y-22304714D01*
X155362976Y-22376142D01*
X155362976Y-22447571D01*
X155331071Y-22519000D01*
X155299166Y-22554714D01*
X155235357Y-22590428D01*
X155012023Y-22590428D01*
X150992023Y-22983285D02*
X150992023Y-22233285D01*
X151215357Y-22769000D01*
X151438690Y-22233285D01*
X151438690Y-22983285D01*
X151757738Y-22983285D02*
X151757738Y-22483285D01*
X151757738Y-22233285D02*
X151725833Y-22269000D01*
X151757738Y-22304714D01*
X151789642Y-22269000D01*
X151757738Y-22233285D01*
X151757738Y-22304714D01*
X152363928Y-22947571D02*
X152300119Y-22983285D01*
X152172500Y-22983285D01*
X152108690Y-22947571D01*
X152076785Y-22911857D01*
X152044880Y-22840428D01*
X152044880Y-22626142D01*
X152076785Y-22554714D01*
X152108690Y-22519000D01*
X152172500Y-22483285D01*
X152300119Y-22483285D01*
X152363928Y-22519000D01*
X152651071Y-22983285D02*
X152651071Y-22483285D01*
X152651071Y-22626142D02*
X152682976Y-22554714D01*
X152714880Y-22519000D01*
X152778690Y-22483285D01*
X152842500Y-22483285D01*
X153161547Y-22983285D02*
X153097738Y-22947571D01*
X153065833Y-22911857D01*
X153033928Y-22840428D01*
X153033928Y-22626142D01*
X153065833Y-22554714D01*
X153097738Y-22519000D01*
X153161547Y-22483285D01*
X153257261Y-22483285D01*
X153321071Y-22519000D01*
X153352976Y-22554714D01*
X153384880Y-22626142D01*
X153384880Y-22840428D01*
X153352976Y-22911857D01*
X153321071Y-22947571D01*
X153257261Y-22983285D01*
X153161547Y-22983285D01*
X153672023Y-22233285D02*
X153672023Y-22840428D01*
X153703928Y-22911857D01*
X153735833Y-22947571D01*
X153799642Y-22983285D01*
X153927261Y-22983285D01*
X153991071Y-22947571D01*
X154022976Y-22911857D01*
X154054880Y-22840428D01*
X154054880Y-22233285D01*
X154342023Y-22947571D02*
X154437738Y-22983285D01*
X154597261Y-22983285D01*
X154661071Y-22947571D01*
X154692976Y-22911857D01*
X154724880Y-22840428D01*
X154724880Y-22769000D01*
X154692976Y-22697571D01*
X154661071Y-22661857D01*
X154597261Y-22626142D01*
X154469642Y-22590428D01*
X154405833Y-22554714D01*
X154373928Y-22519000D01*
X154342023Y-22447571D01*
X154342023Y-22376142D01*
X154373928Y-22304714D01*
X154405833Y-22269000D01*
X154469642Y-22233285D01*
X154629166Y-22233285D01*
X154724880Y-22269000D01*
X155235357Y-22590428D02*
X155331071Y-22626142D01*
X155362976Y-22661857D01*
X155394880Y-22733285D01*
X155394880Y-22840428D01*
X155362976Y-22911857D01*
X155331071Y-22947571D01*
X155267261Y-22983285D01*
X155012023Y-22983285D01*
X155012023Y-22233285D01*
X155235357Y-22233285D01*
X155299166Y-22269000D01*
X155331071Y-22304714D01*
X155362976Y-22376142D01*
X155362976Y-22447571D01*
X155331071Y-22519000D01*
X155299166Y-22554714D01*
X155235357Y-22590428D01*
X155012023Y-22590428D01*
X147602023Y-29279000D02*
X147538214Y-29243285D01*
X147442500Y-29243285D01*
X147346785Y-29279000D01*
X147282976Y-29350428D01*
X147251071Y-29421857D01*
X147219166Y-29564714D01*
X147219166Y-29671857D01*
X147251071Y-29814714D01*
X147282976Y-29886142D01*
X147346785Y-29957571D01*
X147442500Y-29993285D01*
X147506309Y-29993285D01*
X147602023Y-29957571D01*
X147633928Y-29921857D01*
X147633928Y-29671857D01*
X147506309Y-29671857D01*
X147921071Y-29993285D02*
X147921071Y-29243285D01*
X148303928Y-29993285D01*
X148303928Y-29243285D01*
X148622976Y-29993285D02*
X148622976Y-29243285D01*
X148782500Y-29243285D01*
X148878214Y-29279000D01*
X148942023Y-29350428D01*
X148973928Y-29421857D01*
X149005833Y-29564714D01*
X149005833Y-29671857D01*
X148973928Y-29814714D01*
X148942023Y-29886142D01*
X148878214Y-29957571D01*
X148782500Y-29993285D01*
X148622976Y-29993285D01*
D11*
X161291880Y-63157380D02*
X160815690Y-63490714D01*
X161291880Y-63728809D02*
X160291880Y-63728809D01*
X160291880Y-63347857D01*
X160339500Y-63252619D01*
X160387119Y-63205000D01*
X160482357Y-63157380D01*
X160625214Y-63157380D01*
X160720452Y-63205000D01*
X160768071Y-63252619D01*
X160815690Y-63347857D01*
X160815690Y-63728809D01*
X160768071Y-62728809D02*
X160768071Y-62395476D01*
X161291880Y-62252619D02*
X161291880Y-62728809D01*
X160291880Y-62728809D01*
X160291880Y-62252619D01*
X161244261Y-61871666D02*
X161291880Y-61728809D01*
X161291880Y-61490714D01*
X161244261Y-61395476D01*
X161196642Y-61347857D01*
X161101404Y-61300238D01*
X161006166Y-61300238D01*
X160910928Y-61347857D01*
X160863309Y-61395476D01*
X160815690Y-61490714D01*
X160768071Y-61681190D01*
X160720452Y-61776428D01*
X160672833Y-61824047D01*
X160577595Y-61871666D01*
X160482357Y-61871666D01*
X160387119Y-61824047D01*
X160339500Y-61776428D01*
X160291880Y-61681190D01*
X160291880Y-61443095D01*
X160339500Y-61300238D01*
X160768071Y-60871666D02*
X160768071Y-60538333D01*
X161291880Y-60395476D02*
X161291880Y-60871666D01*
X160291880Y-60871666D01*
X160291880Y-60395476D01*
X160291880Y-60109761D02*
X160291880Y-59538333D01*
X161291880Y-59824047D02*
X160291880Y-59824047D01*
X151817119Y-59370380D02*
X152007595Y-59370380D01*
X152102833Y-59418000D01*
X152198071Y-59513238D01*
X152245690Y-59703714D01*
X152245690Y-60037047D01*
X152198071Y-60227523D01*
X152102833Y-60322761D01*
X152007595Y-60370380D01*
X151817119Y-60370380D01*
X151721880Y-60322761D01*
X151626642Y-60227523D01*
X151579023Y-60037047D01*
X151579023Y-59703714D01*
X151626642Y-59513238D01*
X151721880Y-59418000D01*
X151817119Y-59370380D01*
X153150452Y-60370380D02*
X152674261Y-60370380D01*
X152674261Y-59370380D01*
X153483785Y-59846571D02*
X153817119Y-59846571D01*
X153959976Y-60370380D02*
X153483785Y-60370380D01*
X153483785Y-59370380D01*
X153959976Y-59370380D01*
X154388547Y-60370380D02*
X154388547Y-59370380D01*
X154626642Y-59370380D01*
X154769500Y-59418000D01*
X154864738Y-59513238D01*
X154912357Y-59608476D01*
X154959976Y-59798952D01*
X154959976Y-59941809D01*
X154912357Y-60132285D01*
X154864738Y-60227523D01*
X154769500Y-60322761D01*
X154626642Y-60370380D01*
X154388547Y-60370380D01*
X155551880Y-70477904D02*
X155551880Y-69906476D01*
X156551880Y-70192190D02*
X155551880Y-70192190D01*
X156551880Y-69001714D02*
X156075690Y-69335047D01*
X156551880Y-69573142D02*
X155551880Y-69573142D01*
X155551880Y-69192190D01*
X155599500Y-69096952D01*
X155647119Y-69049333D01*
X155742357Y-69001714D01*
X155885214Y-69001714D01*
X155980452Y-69049333D01*
X156028071Y-69096952D01*
X156075690Y-69192190D01*
X156075690Y-69573142D01*
X156551880Y-68001714D02*
X156075690Y-68335047D01*
X156551880Y-68573142D02*
X155551880Y-68573142D01*
X155551880Y-68192190D01*
X155599500Y-68096952D01*
X155647119Y-68049333D01*
X155742357Y-68001714D01*
X155885214Y-68001714D01*
X155980452Y-68049333D01*
X156028071Y-68096952D01*
X156075690Y-68192190D01*
X156075690Y-68573142D01*
X156504261Y-67620761D02*
X156551880Y-67477904D01*
X156551880Y-67239809D01*
X156504261Y-67144571D01*
X156456642Y-67096952D01*
X156361404Y-67049333D01*
X156266166Y-67049333D01*
X156170928Y-67096952D01*
X156123309Y-67144571D01*
X156075690Y-67239809D01*
X156028071Y-67430285D01*
X155980452Y-67525523D01*
X155932833Y-67573142D01*
X155837595Y-67620761D01*
X155742357Y-67620761D01*
X155647119Y-67573142D01*
X155599500Y-67525523D01*
X155551880Y-67430285D01*
X155551880Y-67192190D01*
X155599500Y-67049333D01*
%LPC*%
D13*
X160716500Y-77949000D03*
X146284500Y-69428000D03*
D14*
X137745500Y-84309000D03*
X91179500Y-76694500D03*
X123990500Y-36939500D03*
X48022500Y-59454000D03*
X48022500Y-40454000D03*
D15*
X145143091Y-85589295D03*
X144167795Y-92358557D03*
D16*
X145732500Y-94728409D03*
X150812500Y-85929591D03*
D17*
X148272500Y-90329000D03*
D18*
X154049500Y-69466000D03*
X161049500Y-69466000D03*
D15*
X136062500Y-42499000D03*
X129712500Y-45039000D03*
D16*
X128442500Y-47579000D03*
X138602500Y-47579000D03*
D17*
X133522500Y-47579000D03*
D15*
X117062500Y-21124000D03*
X110712500Y-23664000D03*
D16*
X109442500Y-26204000D03*
X119602500Y-26204000D03*
D17*
X114522500Y-26204000D03*
D15*
X79062500Y-59124000D03*
X72712500Y-61664000D03*
D16*
X71442500Y-64204000D03*
X81602500Y-64204000D03*
D17*
X76522500Y-64204000D03*
D15*
X60062500Y-44874000D03*
X53712500Y-47414000D03*
D16*
X52442500Y-49954000D03*
X62602500Y-49954000D03*
D17*
X57522500Y-49954000D03*
D15*
X136062500Y-61499000D03*
X129712500Y-64039000D03*
D16*
X128442500Y-66579000D03*
X138602500Y-66579000D03*
D17*
X133522500Y-66579000D03*
D15*
X107562500Y-78749000D03*
X101212500Y-81289000D03*
D16*
X99942500Y-83829000D03*
X110102500Y-83829000D03*
D17*
X105022500Y-83829000D03*
D15*
X129790752Y-82329497D03*
X122999723Y-83139448D03*
D16*
X121115597Y-85264199D03*
X130929403Y-87893801D03*
D17*
X126022500Y-86579000D03*
D15*
X79062500Y-21124000D03*
X72712500Y-23664000D03*
D16*
X71442500Y-26204000D03*
X81602500Y-26204000D03*
D17*
X76522500Y-26204000D03*
D15*
X41062500Y-44874000D03*
X34712500Y-47414000D03*
D16*
X33442500Y-49954000D03*
X43602500Y-49954000D03*
D17*
X38522500Y-49954000D03*
D15*
X98062500Y-18749000D03*
X91712500Y-21289000D03*
D16*
X90442500Y-23829000D03*
X100602500Y-23829000D03*
D17*
X95522500Y-23829000D03*
D15*
X98062500Y-56749000D03*
X91712500Y-59289000D03*
D16*
X90442500Y-61829000D03*
X100602500Y-61829000D03*
D17*
X95522500Y-61829000D03*
D15*
X117062500Y-59124000D03*
X110712500Y-61664000D03*
D16*
X109442500Y-64204000D03*
X119602500Y-64204000D03*
D17*
X114522500Y-64204000D03*
D15*
X79062500Y-40124000D03*
X72712500Y-42664000D03*
D16*
X71442500Y-45204000D03*
X81602500Y-45204000D03*
D17*
X76522500Y-45204000D03*
D15*
X98062500Y-37749000D03*
X91712500Y-40289000D03*
D16*
X90442500Y-42829000D03*
X100602500Y-42829000D03*
D17*
X95522500Y-42829000D03*
D15*
X41062500Y-25874000D03*
X34712500Y-28414000D03*
D16*
X33442500Y-30954000D03*
X43602500Y-30954000D03*
D17*
X38522500Y-30954000D03*
D15*
X117062500Y-40124000D03*
X110712500Y-42664000D03*
D16*
X109442500Y-45204000D03*
X119602500Y-45204000D03*
D17*
X114522500Y-45204000D03*
D15*
X60062500Y-25874000D03*
X53712500Y-28414000D03*
D16*
X52442500Y-30954000D03*
X62602500Y-30954000D03*
D17*
X57522500Y-30954000D03*
D15*
X41062500Y-63874000D03*
X34712500Y-66414000D03*
D16*
X33442500Y-68954000D03*
X43602500Y-68954000D03*
D17*
X38522500Y-68954000D03*
D15*
X136062500Y-23499000D03*
X129712500Y-26039000D03*
D16*
X128442500Y-28579000D03*
X138602500Y-28579000D03*
D17*
X133522500Y-28579000D03*
D15*
X60062500Y-63874000D03*
X53712500Y-66414000D03*
D16*
X52442500Y-68954000D03*
X62602500Y-68954000D03*
D17*
X57522500Y-68954000D03*
M02*
