G04 #@! TF.GenerationSoftware,KiCad,Pcbnew,(5.1.10)-1*
G04 #@! TF.CreationDate,2021-11-26T09:38:35+07:00*
G04 #@! TF.ProjectId,corne-cherry,636f726e-652d-4636-9865-7272792e6b69,3.0.1*
G04 #@! TF.SameCoordinates,Original*
G04 #@! TF.FileFunction,Legend,Bot*
G04 #@! TF.FilePolarity,Positive*
%FSLAX46Y46*%
G04 Gerber Fmt 4.6, Leading zero omitted, Abs format (unit mm)*
G04 Created by KiCad (PCBNEW (5.1.10)-1) date 2021-11-26 09:38:35*
%MOMM*%
%LPD*%
G01*
G04 APERTURE LIST*
%ADD10C,0.150000*%
%ADD11C,0.400000*%
%ADD12C,0.500000*%
%ADD13C,3.500000*%
%ADD14C,1.000000*%
%ADD15C,3.000000*%
%ADD16C,0.800000*%
%ADD17C,0.300000*%
%ADD18C,0.010000*%
%ADD19C,0.120000*%
%ADD20C,3.400000*%
%ADD21C,2.300000*%
%ADD22C,4.500000*%
%ADD23C,2.600000*%
%ADD24C,4.700000*%
%ADD25O,1.797000X2.178000*%
%ADD26C,2.400000*%
%ADD27O,2.900000X2.100000*%
%ADD28C,1.600000*%
%ADD29C,1.924000*%
G04 APERTURE END LIST*
D10*
X199166500Y-80167000D02*
X198166500Y-80167000D01*
X198666500Y-80067000D02*
X199166500Y-79167000D01*
X198166500Y-79167000D02*
X198666500Y-80067000D01*
X199166500Y-79167000D02*
X198166500Y-79167000D01*
X199416500Y-76967000D02*
X197916500Y-76967000D01*
X199416500Y-82367000D02*
X197916500Y-82367000D01*
X199416500Y-76967000D02*
X199416500Y-82367000D01*
X197916500Y-82367000D02*
X197916500Y-76967000D01*
X130766500Y-114042000D02*
X129766500Y-114042000D01*
X130266500Y-113942000D02*
X130766500Y-113042000D01*
X129766500Y-113042000D02*
X130266500Y-113942000D01*
X130766500Y-113042000D02*
X129766500Y-113042000D01*
X131016500Y-110842000D02*
X129516500Y-110842000D01*
X131016500Y-116242000D02*
X129516500Y-116242000D01*
X131016500Y-110842000D02*
X131016500Y-116242000D01*
X129516500Y-116242000D02*
X129516500Y-110842000D01*
X199166500Y-61167000D02*
X198166500Y-61167000D01*
X198666500Y-61067000D02*
X199166500Y-60167000D01*
X198166500Y-60167000D02*
X198666500Y-61067000D01*
X199166500Y-60167000D02*
X198166500Y-60167000D01*
X199416500Y-57967000D02*
X197916500Y-57967000D01*
X199416500Y-63367000D02*
X197916500Y-63367000D01*
X199416500Y-57967000D02*
X199416500Y-63367000D01*
X197916500Y-63367000D02*
X197916500Y-57967000D01*
X142166500Y-75417000D02*
X141166500Y-75417000D01*
X141666500Y-75317000D02*
X142166500Y-74417000D01*
X141166500Y-74417000D02*
X141666500Y-75317000D01*
X142166500Y-74417000D02*
X141166500Y-74417000D01*
X142416500Y-72217000D02*
X140916500Y-72217000D01*
X142416500Y-77617000D02*
X140916500Y-77617000D01*
X142416500Y-72217000D02*
X142416500Y-77617000D01*
X140916500Y-77617000D02*
X140916500Y-72217000D01*
X123159500Y-77797000D02*
X122159500Y-77797000D01*
X122659500Y-77697000D02*
X123159500Y-76797000D01*
X122159500Y-76797000D02*
X122659500Y-77697000D01*
X123159500Y-76797000D02*
X122159500Y-76797000D01*
X123409500Y-74597000D02*
X121909500Y-74597000D01*
X123409500Y-79997000D02*
X121909500Y-79997000D01*
X123409500Y-74597000D02*
X123409500Y-79997000D01*
X121909500Y-79997000D02*
X121909500Y-74597000D01*
X218166500Y-99167000D02*
X217166500Y-99167000D01*
X217666500Y-99067000D02*
X218166500Y-98167000D01*
X217166500Y-98167000D02*
X217666500Y-99067000D01*
X218166500Y-98167000D02*
X217166500Y-98167000D01*
X218416500Y-95967000D02*
X216916500Y-95967000D01*
X218416500Y-101367000D02*
X216916500Y-101367000D01*
X218416500Y-95967000D02*
X218416500Y-101367000D01*
X216916500Y-101367000D02*
X216916500Y-95967000D01*
X161166500Y-92042000D02*
X160166500Y-92042000D01*
X160666500Y-91942000D02*
X161166500Y-91042000D01*
X160166500Y-91042000D02*
X160666500Y-91942000D01*
X161166500Y-91042000D02*
X160166500Y-91042000D01*
X161416500Y-88842000D02*
X159916500Y-88842000D01*
X161416500Y-94242000D02*
X159916500Y-94242000D01*
X161416500Y-88842000D02*
X161416500Y-94242000D01*
X159916500Y-94242000D02*
X159916500Y-88842000D01*
X180166500Y-75417000D02*
X179166500Y-75417000D01*
X179666500Y-75317000D02*
X180166500Y-74417000D01*
X179166500Y-74417000D02*
X179666500Y-75317000D01*
X180166500Y-74417000D02*
X179166500Y-74417000D01*
X180416500Y-72217000D02*
X178916500Y-72217000D01*
X180416500Y-77617000D02*
X178916500Y-77617000D01*
X180416500Y-72217000D02*
X180416500Y-77617000D01*
X178916500Y-77617000D02*
X178916500Y-72217000D01*
X218166500Y-61167000D02*
X217166500Y-61167000D01*
X217666500Y-61067000D02*
X218166500Y-60167000D01*
X217166500Y-60167000D02*
X217666500Y-61067000D01*
X218166500Y-60167000D02*
X217166500Y-60167000D01*
X218416500Y-57967000D02*
X216916500Y-57967000D01*
X218416500Y-63367000D02*
X216916500Y-63367000D01*
X218416500Y-57967000D02*
X218416500Y-63367000D01*
X216916500Y-63367000D02*
X216916500Y-57967000D01*
X180166500Y-56417000D02*
X179166500Y-56417000D01*
X179666500Y-56317000D02*
X180166500Y-55417000D01*
X179166500Y-55417000D02*
X179666500Y-56317000D01*
X180166500Y-55417000D02*
X179166500Y-55417000D01*
X180416500Y-53217000D02*
X178916500Y-53217000D01*
X180416500Y-58617000D02*
X178916500Y-58617000D01*
X180416500Y-53217000D02*
X180416500Y-58617000D01*
X178916500Y-58617000D02*
X178916500Y-53217000D01*
X180166500Y-94417000D02*
X179166500Y-94417000D01*
X179666500Y-94317000D02*
X180166500Y-93417000D01*
X179166500Y-93417000D02*
X179666500Y-94317000D01*
X180166500Y-93417000D02*
X179166500Y-93417000D01*
X180416500Y-91217000D02*
X178916500Y-91217000D01*
X180416500Y-96617000D02*
X178916500Y-96617000D01*
X180416500Y-91217000D02*
X180416500Y-96617000D01*
X178916500Y-96617000D02*
X178916500Y-91217000D01*
X142166500Y-94417000D02*
X141166500Y-94417000D01*
X141666500Y-94317000D02*
X142166500Y-93417000D01*
X141166500Y-93417000D02*
X141666500Y-94317000D01*
X142166500Y-93417000D02*
X141166500Y-93417000D01*
X142416500Y-91217000D02*
X140916500Y-91217000D01*
X142416500Y-96617000D02*
X140916500Y-96617000D01*
X142416500Y-91217000D02*
X142416500Y-96617000D01*
X140916500Y-96617000D02*
X140916500Y-91217000D01*
X123159500Y-58797000D02*
X122159500Y-58797000D01*
X122659500Y-58697000D02*
X123159500Y-57797000D01*
X122159500Y-57797000D02*
X122659500Y-58697000D01*
X123159500Y-57797000D02*
X122159500Y-57797000D01*
X123409500Y-55597000D02*
X121909500Y-55597000D01*
X123409500Y-60997000D02*
X121909500Y-60997000D01*
X123409500Y-55597000D02*
X123409500Y-60997000D01*
X121909500Y-60997000D02*
X121909500Y-55597000D01*
X142166500Y-56417000D02*
X141166500Y-56417000D01*
X141666500Y-56317000D02*
X142166500Y-55417000D01*
X141166500Y-55417000D02*
X141666500Y-56317000D01*
X142166500Y-55417000D02*
X141166500Y-55417000D01*
X142416500Y-53217000D02*
X140916500Y-53217000D01*
X142416500Y-58617000D02*
X140916500Y-58617000D01*
X142416500Y-53217000D02*
X142416500Y-58617000D01*
X140916500Y-58617000D02*
X140916500Y-53217000D01*
X161166500Y-73042000D02*
X160166500Y-73042000D01*
X160666500Y-72942000D02*
X161166500Y-72042000D01*
X160166500Y-72042000D02*
X160666500Y-72942000D01*
X161166500Y-72042000D02*
X160166500Y-72042000D01*
X161416500Y-69842000D02*
X159916500Y-69842000D01*
X161416500Y-75242000D02*
X159916500Y-75242000D01*
X161416500Y-69842000D02*
X161416500Y-75242000D01*
X159916500Y-75242000D02*
X159916500Y-69842000D01*
X199166500Y-99167000D02*
X198166500Y-99167000D01*
X198666500Y-99067000D02*
X199166500Y-98167000D01*
X198166500Y-98167000D02*
X198666500Y-99067000D01*
X199166500Y-98167000D02*
X198166500Y-98167000D01*
X199416500Y-95967000D02*
X197916500Y-95967000D01*
X199416500Y-101367000D02*
X197916500Y-101367000D01*
X199416500Y-95967000D02*
X199416500Y-101367000D01*
X197916500Y-101367000D02*
X197916500Y-95967000D01*
X123159500Y-96797000D02*
X122159500Y-96797000D01*
X122659500Y-96697000D02*
X123159500Y-95797000D01*
X122159500Y-95797000D02*
X122659500Y-96697000D01*
X123159500Y-95797000D02*
X122159500Y-95797000D01*
X123409500Y-93597000D02*
X121909500Y-93597000D01*
X123409500Y-98997000D02*
X121909500Y-98997000D01*
X123409500Y-93597000D02*
X123409500Y-98997000D01*
X121909500Y-98997000D02*
X121909500Y-93597000D01*
X151666500Y-114027000D02*
X150666500Y-114027000D01*
X151166500Y-113927000D02*
X151666500Y-113027000D01*
X150666500Y-113027000D02*
X151166500Y-113927000D01*
X151666500Y-113027000D02*
X150666500Y-113027000D01*
X151916500Y-110827000D02*
X150416500Y-110827000D01*
X151916500Y-116227000D02*
X150416500Y-116227000D01*
X151916500Y-110827000D02*
X151916500Y-116227000D01*
X150416500Y-116227000D02*
X150416500Y-110827000D01*
X218166500Y-80017000D02*
X217166500Y-80017000D01*
X217666500Y-79917000D02*
X218166500Y-79017000D01*
X217166500Y-79017000D02*
X217666500Y-79917000D01*
X218166500Y-79017000D02*
X217166500Y-79017000D01*
X218416500Y-76817000D02*
X216916500Y-76817000D01*
X218416500Y-82217000D02*
X216916500Y-82217000D01*
X218416500Y-76817000D02*
X218416500Y-82217000D01*
X216916500Y-82217000D02*
X216916500Y-76817000D01*
X133616500Y-114042000D02*
X132616500Y-114042000D01*
X133116500Y-113942000D02*
X133616500Y-113042000D01*
X132616500Y-113042000D02*
X133116500Y-113942000D01*
X133616500Y-113042000D02*
X132616500Y-113042000D01*
X133866500Y-110842000D02*
X132366500Y-110842000D01*
X133866500Y-116242000D02*
X132366500Y-116242000D01*
X133866500Y-110842000D02*
X133866500Y-116242000D01*
X132366500Y-116242000D02*
X132366500Y-110842000D01*
D11*
X138316500Y-68517000D02*
X137066500Y-68517000D01*
D12*
X128616500Y-73617000D02*
X131066500Y-73617000D01*
D10*
X138466500Y-68317000D02*
X130266499Y-68317000D01*
X133666500Y-71917000D02*
X138466500Y-71917000D01*
X128416500Y-73817000D02*
X131446500Y-73817000D01*
X128166500Y-70217000D02*
X128166500Y-70967000D01*
X128416500Y-69367000D02*
X128416500Y-73817000D01*
X128166500Y-70967000D02*
X128366500Y-70967000D01*
X138446500Y-70917000D02*
X138446500Y-68667000D01*
X138466500Y-71917000D02*
X138466500Y-68317000D01*
D13*
X136666500Y-70117000D02*
X129966500Y-70117000D01*
D14*
X137966500Y-68917000D02*
X137966500Y-71417000D01*
D12*
X138266500Y-71667000D02*
X136966500Y-71617000D01*
D15*
X129896500Y-69817000D02*
X129896500Y-72057000D01*
D16*
X128766500Y-73317000D02*
X128766500Y-71517001D01*
D17*
X128266500Y-70867000D02*
X128266500Y-70217000D01*
D10*
X131450182Y-73795529D02*
G75*
G02*
X133666500Y-71917000I2151318J-291471D01*
G01*
X128166500Y-70217001D02*
G75*
G02*
X130266499Y-68317000I2000000J-99999D01*
G01*
D14*
X131050182Y-73395529D02*
G75*
G02*
X133266500Y-71517000I2151318J-291471D01*
G01*
D11*
X119309500Y-51897000D02*
X118059500Y-51897000D01*
D12*
X109609500Y-56997000D02*
X112059500Y-56997000D01*
D10*
X119459500Y-51697000D02*
X111259499Y-51697000D01*
X114659500Y-55297000D02*
X119459500Y-55297000D01*
X109409500Y-57197000D02*
X112439500Y-57197000D01*
X109159500Y-53597000D02*
X109159500Y-54347000D01*
X109409500Y-52747000D02*
X109409500Y-57197000D01*
X109159500Y-54347000D02*
X109359500Y-54347000D01*
X119439500Y-54297000D02*
X119439500Y-52047000D01*
X119459500Y-55297000D02*
X119459500Y-51697000D01*
D13*
X117659500Y-53497000D02*
X110959500Y-53497000D01*
D14*
X118959500Y-52297000D02*
X118959500Y-54797000D01*
D12*
X119259500Y-55047000D02*
X117959500Y-54997000D01*
D15*
X110889500Y-53197000D02*
X110889500Y-55437000D01*
D16*
X109759500Y-56697000D02*
X109759500Y-54897001D01*
D17*
X109259500Y-54247000D02*
X109259500Y-53597000D01*
D10*
X112443182Y-57175529D02*
G75*
G02*
X114659500Y-55297000I2151318J-291471D01*
G01*
X109159500Y-53597001D02*
G75*
G02*
X111259499Y-51697000I2000000J-99999D01*
G01*
D14*
X112043182Y-56775529D02*
G75*
G02*
X114259500Y-54897000I2151318J-291471D01*
G01*
D11*
X195316500Y-73267000D02*
X194066500Y-73267000D01*
D12*
X185616500Y-78367000D02*
X188066500Y-78367000D01*
D10*
X195466500Y-73067000D02*
X187266499Y-73067000D01*
X190666500Y-76667000D02*
X195466500Y-76667000D01*
X185416500Y-78567000D02*
X188446500Y-78567000D01*
X185166500Y-74967000D02*
X185166500Y-75717000D01*
X185416500Y-74117000D02*
X185416500Y-78567000D01*
X185166500Y-75717000D02*
X185366500Y-75717000D01*
X195446500Y-75667000D02*
X195446500Y-73417000D01*
X195466500Y-76667000D02*
X195466500Y-73067000D01*
D13*
X193666500Y-74867000D02*
X186966500Y-74867000D01*
D14*
X194966500Y-73667000D02*
X194966500Y-76167000D01*
D12*
X195266500Y-76417000D02*
X193966500Y-76367000D01*
D15*
X186896500Y-74567000D02*
X186896500Y-76807000D01*
D16*
X185766500Y-78067000D02*
X185766500Y-76267001D01*
D17*
X185266500Y-75617000D02*
X185266500Y-74967000D01*
D10*
X188450182Y-78545529D02*
G75*
G02*
X190666500Y-76667000I2151318J-291471D01*
G01*
X185166500Y-74967001D02*
G75*
G02*
X187266499Y-73067000I2000000J-99999D01*
G01*
D14*
X188050182Y-78145529D02*
G75*
G02*
X190266500Y-76267000I2151318J-291471D01*
G01*
D11*
X214316500Y-92267000D02*
X213066500Y-92267000D01*
D12*
X204616500Y-97367000D02*
X207066500Y-97367000D01*
D10*
X214466500Y-92067000D02*
X206266499Y-92067000D01*
X209666500Y-95667000D02*
X214466500Y-95667000D01*
X204416500Y-97567000D02*
X207446500Y-97567000D01*
X204166500Y-93967000D02*
X204166500Y-94717000D01*
X204416500Y-93117000D02*
X204416500Y-97567000D01*
X204166500Y-94717000D02*
X204366500Y-94717000D01*
X214446500Y-94667000D02*
X214446500Y-92417000D01*
X214466500Y-95667000D02*
X214466500Y-92067000D01*
D13*
X212666500Y-93867000D02*
X205966500Y-93867000D01*
D14*
X213966500Y-92667000D02*
X213966500Y-95167000D01*
D12*
X214266500Y-95417000D02*
X212966500Y-95367000D01*
D15*
X205896500Y-93567000D02*
X205896500Y-95807000D01*
D16*
X204766500Y-97067000D02*
X204766500Y-95267001D01*
D17*
X204266500Y-94617000D02*
X204266500Y-93967000D01*
D10*
X207450182Y-97545529D02*
G75*
G02*
X209666500Y-95667000I2151318J-291471D01*
G01*
X204166500Y-93967001D02*
G75*
G02*
X206266499Y-92067000I2000000J-99999D01*
G01*
D14*
X207050182Y-97145529D02*
G75*
G02*
X209266500Y-95267000I2151318J-291471D01*
G01*
D11*
X195316500Y-54267000D02*
X194066500Y-54267000D01*
D12*
X185616500Y-59367000D02*
X188066500Y-59367000D01*
D10*
X195466500Y-54067000D02*
X187266499Y-54067000D01*
X190666500Y-57667000D02*
X195466500Y-57667000D01*
X185416500Y-59567000D02*
X188446500Y-59567000D01*
X185166500Y-55967000D02*
X185166500Y-56717000D01*
X185416500Y-55117000D02*
X185416500Y-59567000D01*
X185166500Y-56717000D02*
X185366500Y-56717000D01*
X195446500Y-56667000D02*
X195446500Y-54417000D01*
X195466500Y-57667000D02*
X195466500Y-54067000D01*
D13*
X193666500Y-55867000D02*
X186966500Y-55867000D01*
D14*
X194966500Y-54667000D02*
X194966500Y-57167000D01*
D12*
X195266500Y-57417000D02*
X193966500Y-57367000D01*
D15*
X186896500Y-55567000D02*
X186896500Y-57807000D01*
D16*
X185766500Y-59067000D02*
X185766500Y-57267001D01*
D17*
X185266500Y-56617000D02*
X185266500Y-55967000D01*
D10*
X188450182Y-59545529D02*
G75*
G02*
X190666500Y-57667000I2151318J-291471D01*
G01*
X185166500Y-55967001D02*
G75*
G02*
X187266499Y-54067000I2000000J-99999D01*
G01*
D14*
X188050182Y-59145529D02*
G75*
G02*
X190266500Y-57267000I2151318J-291471D01*
G01*
D11*
X176316500Y-49517000D02*
X175066500Y-49517000D01*
D12*
X166616500Y-54617000D02*
X169066500Y-54617000D01*
D10*
X176466500Y-49317000D02*
X168266499Y-49317000D01*
X171666500Y-52917000D02*
X176466500Y-52917000D01*
X166416500Y-54817000D02*
X169446500Y-54817000D01*
X166166500Y-51217000D02*
X166166500Y-51967000D01*
X166416500Y-50367000D02*
X166416500Y-54817000D01*
X166166500Y-51967000D02*
X166366500Y-51967000D01*
X176446500Y-51917000D02*
X176446500Y-49667000D01*
X176466500Y-52917000D02*
X176466500Y-49317000D01*
D13*
X174666500Y-51117000D02*
X167966500Y-51117000D01*
D14*
X175966500Y-49917000D02*
X175966500Y-52417000D01*
D12*
X176266500Y-52667000D02*
X174966500Y-52617000D01*
D15*
X167896500Y-50817000D02*
X167896500Y-53057000D01*
D16*
X166766500Y-54317000D02*
X166766500Y-52517001D01*
D17*
X166266500Y-51867000D02*
X166266500Y-51217000D01*
D10*
X169450182Y-54795529D02*
G75*
G02*
X171666500Y-52917000I2151318J-291471D01*
G01*
X166166500Y-51217001D02*
G75*
G02*
X168266499Y-49317000I2000000J-99999D01*
G01*
D14*
X169050182Y-54395529D02*
G75*
G02*
X171266500Y-52517000I2151318J-291471D01*
G01*
D11*
X176316500Y-68517000D02*
X175066500Y-68517000D01*
D12*
X166616500Y-73617000D02*
X169066500Y-73617000D01*
D10*
X176466500Y-68317000D02*
X168266499Y-68317000D01*
X171666500Y-71917000D02*
X176466500Y-71917000D01*
X166416500Y-73817000D02*
X169446500Y-73817000D01*
X166166500Y-70217000D02*
X166166500Y-70967000D01*
X166416500Y-69367000D02*
X166416500Y-73817000D01*
X166166500Y-70967000D02*
X166366500Y-70967000D01*
X176446500Y-70917000D02*
X176446500Y-68667000D01*
X176466500Y-71917000D02*
X176466500Y-68317000D01*
D13*
X174666500Y-70117000D02*
X167966500Y-70117000D01*
D14*
X175966500Y-68917000D02*
X175966500Y-71417000D01*
D12*
X176266500Y-71667000D02*
X174966500Y-71617000D01*
D15*
X167896500Y-69817000D02*
X167896500Y-72057000D01*
D16*
X166766500Y-73317000D02*
X166766500Y-71517001D01*
D17*
X166266500Y-70867000D02*
X166266500Y-70217000D01*
D10*
X169450182Y-73795529D02*
G75*
G02*
X171666500Y-71917000I2151318J-291471D01*
G01*
X166166500Y-70217001D02*
G75*
G02*
X168266499Y-68317000I2000000J-99999D01*
G01*
D14*
X169050182Y-73395529D02*
G75*
G02*
X171266500Y-71517000I2151318J-291471D01*
G01*
D11*
X214316500Y-73267000D02*
X213066500Y-73267000D01*
D12*
X204616500Y-78367000D02*
X207066500Y-78367000D01*
D10*
X214466500Y-73067000D02*
X206266499Y-73067000D01*
X209666500Y-76667000D02*
X214466500Y-76667000D01*
X204416500Y-78567000D02*
X207446500Y-78567000D01*
X204166500Y-74967000D02*
X204166500Y-75717000D01*
X204416500Y-74117000D02*
X204416500Y-78567000D01*
X204166500Y-75717000D02*
X204366500Y-75717000D01*
X214446500Y-75667000D02*
X214446500Y-73417000D01*
X214466500Y-76667000D02*
X214466500Y-73067000D01*
D13*
X212666500Y-74867000D02*
X205966500Y-74867000D01*
D14*
X213966500Y-73667000D02*
X213966500Y-76167000D01*
D12*
X214266500Y-76417000D02*
X212966500Y-76367000D01*
D15*
X205896500Y-74567000D02*
X205896500Y-76807000D01*
D16*
X204766500Y-78067000D02*
X204766500Y-76267001D01*
D17*
X204266500Y-75617000D02*
X204266500Y-74967000D01*
D10*
X207450182Y-78545529D02*
G75*
G02*
X209666500Y-76667000I2151318J-291471D01*
G01*
X204166500Y-74967001D02*
G75*
G02*
X206266499Y-73067000I2000000J-99999D01*
G01*
D14*
X207050182Y-78145529D02*
G75*
G02*
X209266500Y-76267000I2151318J-291471D01*
G01*
D11*
X157316500Y-66142000D02*
X156066500Y-66142000D01*
D12*
X147616500Y-71242000D02*
X150066500Y-71242000D01*
D10*
X157466500Y-65942000D02*
X149266499Y-65942000D01*
X152666500Y-69542000D02*
X157466500Y-69542000D01*
X147416500Y-71442000D02*
X150446500Y-71442000D01*
X147166500Y-67842000D02*
X147166500Y-68592000D01*
X147416500Y-66992000D02*
X147416500Y-71442000D01*
X147166500Y-68592000D02*
X147366500Y-68592000D01*
X157446500Y-68542000D02*
X157446500Y-66292000D01*
X157466500Y-69542000D02*
X157466500Y-65942000D01*
D13*
X155666500Y-67742000D02*
X148966500Y-67742000D01*
D14*
X156966500Y-66542000D02*
X156966500Y-69042000D01*
D12*
X157266500Y-69292000D02*
X155966500Y-69242000D01*
D15*
X148896500Y-67442000D02*
X148896500Y-69682000D01*
D16*
X147766500Y-70942000D02*
X147766500Y-69142001D01*
D17*
X147266500Y-68492000D02*
X147266500Y-67842000D01*
D10*
X150450182Y-71420529D02*
G75*
G02*
X152666500Y-69542000I2151318J-291471D01*
G01*
X147166500Y-67842001D02*
G75*
G02*
X149266499Y-65942000I2000000J-99999D01*
G01*
D14*
X150050182Y-71020529D02*
G75*
G02*
X152266500Y-69142000I2151318J-291471D01*
G01*
D11*
X138316500Y-87517000D02*
X137066500Y-87517000D01*
D12*
X128616500Y-92617000D02*
X131066500Y-92617000D01*
D10*
X138466500Y-87317000D02*
X130266499Y-87317000D01*
X133666500Y-90917000D02*
X138466500Y-90917000D01*
X128416500Y-92817000D02*
X131446500Y-92817000D01*
X128166500Y-89217000D02*
X128166500Y-89967000D01*
X128416500Y-88367000D02*
X128416500Y-92817000D01*
X128166500Y-89967000D02*
X128366500Y-89967000D01*
X138446500Y-89917000D02*
X138446500Y-87667000D01*
X138466500Y-90917000D02*
X138466500Y-87317000D01*
D13*
X136666500Y-89117000D02*
X129966500Y-89117000D01*
D14*
X137966500Y-87917000D02*
X137966500Y-90417000D01*
D12*
X138266500Y-90667000D02*
X136966500Y-90617000D01*
D15*
X129896500Y-88817000D02*
X129896500Y-91057000D01*
D16*
X128766500Y-92317000D02*
X128766500Y-90517001D01*
D17*
X128266500Y-89867000D02*
X128266500Y-89217000D01*
D10*
X131450182Y-92795529D02*
G75*
G02*
X133666500Y-90917000I2151318J-291471D01*
G01*
X128166500Y-89217001D02*
G75*
G02*
X130266499Y-87317000I2000000J-99999D01*
G01*
D14*
X131050182Y-92395529D02*
G75*
G02*
X133266500Y-90517000I2151318J-291471D01*
G01*
D11*
X157316500Y-47142000D02*
X156066500Y-47142000D01*
D12*
X147616500Y-52242000D02*
X150066500Y-52242000D01*
D10*
X157466500Y-46942000D02*
X149266499Y-46942000D01*
X152666500Y-50542000D02*
X157466500Y-50542000D01*
X147416500Y-52442000D02*
X150446500Y-52442000D01*
X147166500Y-48842000D02*
X147166500Y-49592000D01*
X147416500Y-47992000D02*
X147416500Y-52442000D01*
X147166500Y-49592000D02*
X147366500Y-49592000D01*
X157446500Y-49542000D02*
X157446500Y-47292000D01*
X157466500Y-50542000D02*
X157466500Y-46942000D01*
D13*
X155666500Y-48742000D02*
X148966500Y-48742000D01*
D14*
X156966500Y-47542000D02*
X156966500Y-50042000D01*
D12*
X157266500Y-50292000D02*
X155966500Y-50242000D01*
D15*
X148896500Y-48442000D02*
X148896500Y-50682000D01*
D16*
X147766500Y-51942000D02*
X147766500Y-50142001D01*
D17*
X147266500Y-49492000D02*
X147266500Y-48842000D01*
D10*
X150450182Y-52420529D02*
G75*
G02*
X152666500Y-50542000I2151318J-291471D01*
G01*
X147166500Y-48842001D02*
G75*
G02*
X149266499Y-46942000I2000000J-99999D01*
G01*
D14*
X150050182Y-52020529D02*
G75*
G02*
X152266500Y-50142000I2151318J-291471D01*
G01*
D11*
X147816500Y-107142000D02*
X146566500Y-107142000D01*
D12*
X138116500Y-112242000D02*
X140566500Y-112242000D01*
D10*
X147966500Y-106942000D02*
X139766499Y-106942000D01*
X143166500Y-110542000D02*
X147966500Y-110542000D01*
X137916500Y-112442000D02*
X140946500Y-112442000D01*
X137666500Y-108842000D02*
X137666500Y-109592000D01*
X137916500Y-107992000D02*
X137916500Y-112442000D01*
X137666500Y-109592000D02*
X137866500Y-109592000D01*
X147946500Y-109542000D02*
X147946500Y-107292000D01*
X147966500Y-110542000D02*
X147966500Y-106942000D01*
D13*
X146166500Y-108742000D02*
X139466500Y-108742000D01*
D14*
X147466500Y-107542000D02*
X147466500Y-110042000D01*
D12*
X147766500Y-110292000D02*
X146466500Y-110242000D01*
D15*
X139396500Y-108442000D02*
X139396500Y-110682000D01*
D16*
X138266500Y-111942000D02*
X138266500Y-110142001D01*
D17*
X137766500Y-109492000D02*
X137766500Y-108842000D01*
D10*
X140950182Y-112420529D02*
G75*
G02*
X143166500Y-110542000I2151318J-291471D01*
G01*
X137666500Y-108842001D02*
G75*
G02*
X139766499Y-106942000I2000000J-99999D01*
G01*
D14*
X140550182Y-112020529D02*
G75*
G02*
X142766500Y-110142000I2151318J-291471D01*
G01*
D11*
X125015243Y-109010094D02*
X123807836Y-109333618D01*
D12*
X116965739Y-116446860D02*
X119332258Y-115812754D01*
D10*
X125108368Y-108778086D02*
X117187775Y-110900402D01*
X121403673Y-113497750D02*
X126040117Y-112255419D01*
X116824318Y-116691809D02*
X119751073Y-115907587D01*
X115651088Y-113279181D02*
X115845202Y-114003625D01*
X115672573Y-112393439D02*
X116824318Y-116691809D01*
X115845202Y-114003625D02*
X116038388Y-113951862D01*
X125761979Y-111294669D02*
X125179636Y-109121336D01*
X126040117Y-112255419D02*
X125108368Y-108778086D01*
D13*
X123835576Y-110982627D02*
X117363873Y-112716714D01*
D14*
X124780696Y-109487051D02*
X125427744Y-111901865D01*
D12*
X125782227Y-112065701D02*
X124513582Y-112353870D01*
D15*
X117218612Y-112445054D02*
X117798367Y-114608728D01*
D16*
X117032983Y-116118260D02*
X116567109Y-114379594D01*
D17*
X115915913Y-113881151D02*
X115747681Y-113253299D01*
D10*
X119749073Y-115885895D02*
G75*
G02*
X121403673Y-113497750I2153452J275263D01*
G01*
X115651089Y-113279182D02*
G75*
G02*
X117187775Y-110900402I1957733J421047D01*
G01*
D14*
X119259174Y-115603053D02*
G75*
G02*
X120913775Y-113214907I2153453J275263D01*
G01*
D11*
X176316500Y-87517000D02*
X175066500Y-87517000D01*
D12*
X166616500Y-92617000D02*
X169066500Y-92617000D01*
D10*
X176466500Y-87317000D02*
X168266499Y-87317000D01*
X171666500Y-90917000D02*
X176466500Y-90917000D01*
X166416500Y-92817000D02*
X169446500Y-92817000D01*
X166166500Y-89217000D02*
X166166500Y-89967000D01*
X166416500Y-88367000D02*
X166416500Y-92817000D01*
X166166500Y-89967000D02*
X166366500Y-89967000D01*
X176446500Y-89917000D02*
X176446500Y-87667000D01*
X176466500Y-90917000D02*
X176466500Y-87317000D01*
D13*
X174666500Y-89117000D02*
X167966500Y-89117000D01*
D14*
X175966500Y-87917000D02*
X175966500Y-90417000D01*
D12*
X176266500Y-90667000D02*
X174966500Y-90617000D01*
D15*
X167896500Y-88817000D02*
X167896500Y-91057000D01*
D16*
X166766500Y-92317000D02*
X166766500Y-90517001D01*
D17*
X166266500Y-89867000D02*
X166266500Y-89217000D01*
D10*
X169450182Y-92795529D02*
G75*
G02*
X171666500Y-90917000I2151318J-291471D01*
G01*
X166166500Y-89217001D02*
G75*
G02*
X168266499Y-87317000I2000000J-99999D01*
G01*
D14*
X169050182Y-92395529D02*
G75*
G02*
X171266500Y-90517000I2151318J-291471D01*
G01*
D18*
G36*
X176459951Y-104707988D02*
G01*
X176345252Y-104734102D01*
X176124150Y-104824639D01*
X175932707Y-104951036D01*
X175775778Y-105108988D01*
X175658218Y-105294188D01*
X175623563Y-105374254D01*
X175589536Y-105467731D01*
X175577917Y-105526761D01*
X175595202Y-105559261D01*
X175647888Y-105573149D01*
X175742471Y-105576343D01*
X175789431Y-105576400D01*
X176003361Y-105576399D01*
X176034267Y-105482754D01*
X176100857Y-105356894D01*
X176207362Y-105245503D01*
X176343537Y-105155012D01*
X176499136Y-105091854D01*
X176663915Y-105062461D01*
X176705801Y-105061142D01*
X176888131Y-105083910D01*
X177058435Y-105148221D01*
X177207984Y-105248089D01*
X177328047Y-105377526D01*
X177409895Y-105530547D01*
X177416093Y-105548267D01*
X177449644Y-105706924D01*
X177455427Y-105882402D01*
X177434741Y-106056327D01*
X177388887Y-106210322D01*
X177365825Y-106258531D01*
X177260096Y-106409138D01*
X177125221Y-106521303D01*
X176977898Y-106592915D01*
X176799211Y-106635926D01*
X176619741Y-106635773D01*
X176447928Y-106595785D01*
X176292210Y-106519291D01*
X176161026Y-106409622D01*
X176062816Y-106270106D01*
X176041233Y-106223389D01*
X175994600Y-106109990D01*
X175785050Y-106109895D01*
X175682332Y-106110561D01*
X175620216Y-106114620D01*
X175588505Y-106124992D01*
X175577003Y-106144594D01*
X175575500Y-106169887D01*
X175591025Y-106244902D01*
X175632576Y-106344781D01*
X175692622Y-106456252D01*
X175763631Y-106566041D01*
X175838071Y-106660876D01*
X175876962Y-106701119D01*
X176056736Y-106836131D01*
X176265593Y-106936811D01*
X176492440Y-106999913D01*
X176726182Y-107022194D01*
X176921700Y-107006664D01*
X177114913Y-106955943D01*
X177302549Y-106872877D01*
X177472240Y-106764860D01*
X177611617Y-106639289D01*
X177678511Y-106554165D01*
X177759840Y-106419841D01*
X177815730Y-106294887D01*
X177850309Y-106164138D01*
X177867707Y-106012430D01*
X177872086Y-105843100D01*
X177870581Y-105702194D01*
X177864879Y-105598188D01*
X177853202Y-105517236D01*
X177833770Y-105445494D01*
X177814149Y-105392197D01*
X177708503Y-105192543D01*
X177562238Y-105016026D01*
X177383124Y-104870316D01*
X177178931Y-104763085D01*
X177175700Y-104761802D01*
X177019717Y-104717914D01*
X176835745Y-104693892D01*
X176642813Y-104690372D01*
X176459951Y-104707988D01*
G37*
X176459951Y-104707988D02*
X176345252Y-104734102D01*
X176124150Y-104824639D01*
X175932707Y-104951036D01*
X175775778Y-105108988D01*
X175658218Y-105294188D01*
X175623563Y-105374254D01*
X175589536Y-105467731D01*
X175577917Y-105526761D01*
X175595202Y-105559261D01*
X175647888Y-105573149D01*
X175742471Y-105576343D01*
X175789431Y-105576400D01*
X176003361Y-105576399D01*
X176034267Y-105482754D01*
X176100857Y-105356894D01*
X176207362Y-105245503D01*
X176343537Y-105155012D01*
X176499136Y-105091854D01*
X176663915Y-105062461D01*
X176705801Y-105061142D01*
X176888131Y-105083910D01*
X177058435Y-105148221D01*
X177207984Y-105248089D01*
X177328047Y-105377526D01*
X177409895Y-105530547D01*
X177416093Y-105548267D01*
X177449644Y-105706924D01*
X177455427Y-105882402D01*
X177434741Y-106056327D01*
X177388887Y-106210322D01*
X177365825Y-106258531D01*
X177260096Y-106409138D01*
X177125221Y-106521303D01*
X176977898Y-106592915D01*
X176799211Y-106635926D01*
X176619741Y-106635773D01*
X176447928Y-106595785D01*
X176292210Y-106519291D01*
X176161026Y-106409622D01*
X176062816Y-106270106D01*
X176041233Y-106223389D01*
X175994600Y-106109990D01*
X175785050Y-106109895D01*
X175682332Y-106110561D01*
X175620216Y-106114620D01*
X175588505Y-106124992D01*
X175577003Y-106144594D01*
X175575500Y-106169887D01*
X175591025Y-106244902D01*
X175632576Y-106344781D01*
X175692622Y-106456252D01*
X175763631Y-106566041D01*
X175838071Y-106660876D01*
X175876962Y-106701119D01*
X176056736Y-106836131D01*
X176265593Y-106936811D01*
X176492440Y-106999913D01*
X176726182Y-107022194D01*
X176921700Y-107006664D01*
X177114913Y-106955943D01*
X177302549Y-106872877D01*
X177472240Y-106764860D01*
X177611617Y-106639289D01*
X177678511Y-106554165D01*
X177759840Y-106419841D01*
X177815730Y-106294887D01*
X177850309Y-106164138D01*
X177867707Y-106012430D01*
X177872086Y-105843100D01*
X177870581Y-105702194D01*
X177864879Y-105598188D01*
X177853202Y-105517236D01*
X177833770Y-105445494D01*
X177814149Y-105392197D01*
X177708503Y-105192543D01*
X177562238Y-105016026D01*
X177383124Y-104870316D01*
X177178931Y-104763085D01*
X177175700Y-104761802D01*
X177019717Y-104717914D01*
X176835745Y-104693892D01*
X176642813Y-104690372D01*
X176459951Y-104707988D01*
G36*
X174077014Y-104693840D02*
G01*
X173823560Y-104729111D01*
X173595475Y-104805807D01*
X173395825Y-104921865D01*
X173227675Y-105075222D01*
X173094092Y-105263816D01*
X173029544Y-105398600D01*
X172997982Y-105512705D01*
X172977715Y-105660371D01*
X172968970Y-105825580D01*
X172971975Y-105992313D01*
X172986957Y-106144551D01*
X173014144Y-106266275D01*
X173017095Y-106274900D01*
X173113481Y-106472172D01*
X173252725Y-106648574D01*
X173429321Y-106798769D01*
X173637759Y-106917421D01*
X173712660Y-106948770D01*
X173844679Y-106985019D01*
X174007665Y-107008467D01*
X174183219Y-107018287D01*
X174352940Y-107013650D01*
X174498426Y-106993729D01*
X174531247Y-106985599D01*
X174745147Y-106903401D01*
X174939879Y-106785093D01*
X175106845Y-106637635D01*
X175237444Y-106467986D01*
X175288318Y-106372895D01*
X175326663Y-106270102D01*
X175360849Y-106145876D01*
X175380901Y-106042628D01*
X175388252Y-105901224D01*
X174963926Y-105901224D01*
X174949591Y-106048866D01*
X174929459Y-106130207D01*
X174876206Y-106242941D01*
X174795805Y-106358333D01*
X174701822Y-106459702D01*
X174607826Y-106530365D01*
X174601042Y-106534020D01*
X174404302Y-106610118D01*
X174199311Y-106640463D01*
X173995896Y-106624243D01*
X173883336Y-106593468D01*
X173706056Y-106506347D01*
X173561590Y-106382677D01*
X173454413Y-106226341D01*
X173449980Y-106217466D01*
X173396990Y-106061401D01*
X173375007Y-105884298D01*
X173384361Y-105705017D01*
X173425379Y-105542421D01*
X173437711Y-105512900D01*
X173535042Y-105353906D01*
X173662739Y-105229092D01*
X173813436Y-105138623D01*
X173979764Y-105082666D01*
X174154358Y-105061386D01*
X174329851Y-105074949D01*
X174498876Y-105123522D01*
X174654066Y-105207270D01*
X174788055Y-105326360D01*
X174893035Y-105480101D01*
X174934581Y-105597807D01*
X174958567Y-105744526D01*
X174963926Y-105901224D01*
X175388252Y-105901224D01*
X175393762Y-105795236D01*
X175361350Y-105560693D01*
X175286150Y-105344052D01*
X175170643Y-105150365D01*
X175017313Y-104984687D01*
X174828640Y-104852069D01*
X174784581Y-104828803D01*
X174610295Y-104754053D01*
X174438970Y-104709281D01*
X174253095Y-104691147D01*
X174077014Y-104693840D01*
G37*
X174077014Y-104693840D02*
X173823560Y-104729111D01*
X173595475Y-104805807D01*
X173395825Y-104921865D01*
X173227675Y-105075222D01*
X173094092Y-105263816D01*
X173029544Y-105398600D01*
X172997982Y-105512705D01*
X172977715Y-105660371D01*
X172968970Y-105825580D01*
X172971975Y-105992313D01*
X172986957Y-106144551D01*
X173014144Y-106266275D01*
X173017095Y-106274900D01*
X173113481Y-106472172D01*
X173252725Y-106648574D01*
X173429321Y-106798769D01*
X173637759Y-106917421D01*
X173712660Y-106948770D01*
X173844679Y-106985019D01*
X174007665Y-107008467D01*
X174183219Y-107018287D01*
X174352940Y-107013650D01*
X174498426Y-106993729D01*
X174531247Y-106985599D01*
X174745147Y-106903401D01*
X174939879Y-106785093D01*
X175106845Y-106637635D01*
X175237444Y-106467986D01*
X175288318Y-106372895D01*
X175326663Y-106270102D01*
X175360849Y-106145876D01*
X175380901Y-106042628D01*
X175388252Y-105901224D01*
X174963926Y-105901224D01*
X174949591Y-106048866D01*
X174929459Y-106130207D01*
X174876206Y-106242941D01*
X174795805Y-106358333D01*
X174701822Y-106459702D01*
X174607826Y-106530365D01*
X174601042Y-106534020D01*
X174404302Y-106610118D01*
X174199311Y-106640463D01*
X173995896Y-106624243D01*
X173883336Y-106593468D01*
X173706056Y-106506347D01*
X173561590Y-106382677D01*
X173454413Y-106226341D01*
X173449980Y-106217466D01*
X173396990Y-106061401D01*
X173375007Y-105884298D01*
X173384361Y-105705017D01*
X173425379Y-105542421D01*
X173437711Y-105512900D01*
X173535042Y-105353906D01*
X173662739Y-105229092D01*
X173813436Y-105138623D01*
X173979764Y-105082666D01*
X174154358Y-105061386D01*
X174329851Y-105074949D01*
X174498876Y-105123522D01*
X174654066Y-105207270D01*
X174788055Y-105326360D01*
X174893035Y-105480101D01*
X174934581Y-105597807D01*
X174958567Y-105744526D01*
X174963926Y-105901224D01*
X175388252Y-105901224D01*
X175393762Y-105795236D01*
X175361350Y-105560693D01*
X175286150Y-105344052D01*
X175170643Y-105150365D01*
X175017313Y-104984687D01*
X174828640Y-104852069D01*
X174784581Y-104828803D01*
X174610295Y-104754053D01*
X174438970Y-104709281D01*
X174253095Y-104691147D01*
X174077014Y-104693840D01*
G36*
X167285470Y-104710406D02*
G01*
X167063106Y-104776705D01*
X166864867Y-104882213D01*
X166694921Y-105022847D01*
X166557441Y-105194524D01*
X166456596Y-105393162D01*
X166396557Y-105614678D01*
X166380700Y-105810336D01*
X166380700Y-105957400D01*
X168285700Y-105957400D01*
X168285700Y-106030498D01*
X168262783Y-106153649D01*
X168199345Y-106281172D01*
X168103357Y-106402298D01*
X167982789Y-106506256D01*
X167893612Y-106560239D01*
X167757758Y-106611647D01*
X167597096Y-106636683D01*
X167584128Y-106637596D01*
X167401871Y-106635127D01*
X167248197Y-106598329D01*
X167110505Y-106522614D01*
X166995807Y-106423419D01*
X166859987Y-106287600D01*
X166656732Y-106287600D01*
X166556189Y-106288246D01*
X166496967Y-106292122D01*
X166469590Y-106302133D01*
X166464581Y-106321182D01*
X166470270Y-106344750D01*
X166508583Y-106430398D01*
X166573501Y-106533086D01*
X166653226Y-106636606D01*
X166735956Y-106724746D01*
X166766143Y-106751173D01*
X166965010Y-106880773D01*
X167187698Y-106970237D01*
X167424404Y-107017509D01*
X167665327Y-107020535D01*
X167876643Y-106984004D01*
X168097755Y-106899879D01*
X168292575Y-106776023D01*
X168456175Y-106617554D01*
X168583626Y-106429590D01*
X168669999Y-106217249D01*
X168689156Y-106140299D01*
X168719692Y-105890242D01*
X168705959Y-105650661D01*
X168693778Y-105601800D01*
X168284443Y-105601800D01*
X167561172Y-105601800D01*
X167348586Y-105601528D01*
X167181501Y-105600521D01*
X167054621Y-105598494D01*
X166962649Y-105595158D01*
X166900288Y-105590229D01*
X166862241Y-105583420D01*
X166843212Y-105574444D01*
X166837903Y-105563014D01*
X166837900Y-105562688D01*
X166858277Y-105480758D01*
X166912975Y-105385173D01*
X166992348Y-105287722D01*
X167086752Y-105200195D01*
X167186539Y-105134383D01*
X167189597Y-105132826D01*
X167328653Y-105085277D01*
X167492767Y-105064014D01*
X167663572Y-105068960D01*
X167822702Y-105100039D01*
X167914440Y-105135844D01*
X168060974Y-105237486D01*
X168179851Y-105378797D01*
X168260235Y-105538127D01*
X168284443Y-105601800D01*
X168693778Y-105601800D01*
X168650133Y-105426735D01*
X168554394Y-105223643D01*
X168420921Y-105046563D01*
X168251892Y-104900672D01*
X168139001Y-104832689D01*
X167944397Y-104748746D01*
X167747074Y-104701901D01*
X167527787Y-104687400D01*
X167285470Y-104710406D01*
G37*
X167285470Y-104710406D02*
X167063106Y-104776705D01*
X166864867Y-104882213D01*
X166694921Y-105022847D01*
X166557441Y-105194524D01*
X166456596Y-105393162D01*
X166396557Y-105614678D01*
X166380700Y-105810336D01*
X166380700Y-105957400D01*
X168285700Y-105957400D01*
X168285700Y-106030498D01*
X168262783Y-106153649D01*
X168199345Y-106281172D01*
X168103357Y-106402298D01*
X167982789Y-106506256D01*
X167893612Y-106560239D01*
X167757758Y-106611647D01*
X167597096Y-106636683D01*
X167584128Y-106637596D01*
X167401871Y-106635127D01*
X167248197Y-106598329D01*
X167110505Y-106522614D01*
X166995807Y-106423419D01*
X166859987Y-106287600D01*
X166656732Y-106287600D01*
X166556189Y-106288246D01*
X166496967Y-106292122D01*
X166469590Y-106302133D01*
X166464581Y-106321182D01*
X166470270Y-106344750D01*
X166508583Y-106430398D01*
X166573501Y-106533086D01*
X166653226Y-106636606D01*
X166735956Y-106724746D01*
X166766143Y-106751173D01*
X166965010Y-106880773D01*
X167187698Y-106970237D01*
X167424404Y-107017509D01*
X167665327Y-107020535D01*
X167876643Y-106984004D01*
X168097755Y-106899879D01*
X168292575Y-106776023D01*
X168456175Y-106617554D01*
X168583626Y-106429590D01*
X168669999Y-106217249D01*
X168689156Y-106140299D01*
X168719692Y-105890242D01*
X168705959Y-105650661D01*
X168693778Y-105601800D01*
X168284443Y-105601800D01*
X167561172Y-105601800D01*
X167348586Y-105601528D01*
X167181501Y-105600521D01*
X167054621Y-105598494D01*
X166962649Y-105595158D01*
X166900288Y-105590229D01*
X166862241Y-105583420D01*
X166843212Y-105574444D01*
X166837903Y-105563014D01*
X166837900Y-105562688D01*
X166858277Y-105480758D01*
X166912975Y-105385173D01*
X166992348Y-105287722D01*
X167086752Y-105200195D01*
X167186539Y-105134383D01*
X167189597Y-105132826D01*
X167328653Y-105085277D01*
X167492767Y-105064014D01*
X167663572Y-105068960D01*
X167822702Y-105100039D01*
X167914440Y-105135844D01*
X168060974Y-105237486D01*
X168179851Y-105378797D01*
X168260235Y-105538127D01*
X168284443Y-105601800D01*
X168693778Y-105601800D01*
X168650133Y-105426735D01*
X168554394Y-105223643D01*
X168420921Y-105046563D01*
X168251892Y-104900672D01*
X168139001Y-104832689D01*
X167944397Y-104748746D01*
X167747074Y-104701901D01*
X167527787Y-104687400D01*
X167285470Y-104710406D01*
G36*
X171479763Y-104677436D02*
G01*
X171333700Y-104693961D01*
X171333700Y-105064729D01*
X171467050Y-105051068D01*
X171651149Y-105056139D01*
X171820548Y-105107922D01*
X171969119Y-105203056D01*
X172090734Y-105338179D01*
X172139611Y-105419869D01*
X172222700Y-105580838D01*
X172222700Y-106973400D01*
X172654500Y-106973400D01*
X172654500Y-104710745D01*
X172444950Y-104718122D01*
X172235400Y-104725500D01*
X172210000Y-104947358D01*
X172159231Y-104890946D01*
X172041054Y-104794357D01*
X171889202Y-104723267D01*
X171715958Y-104681536D01*
X171533610Y-104673025D01*
X171479763Y-104677436D01*
G37*
X171479763Y-104677436D02*
X171333700Y-104693961D01*
X171333700Y-105064729D01*
X171467050Y-105051068D01*
X171651149Y-105056139D01*
X171820548Y-105107922D01*
X171969119Y-105203056D01*
X172090734Y-105338179D01*
X172139611Y-105419869D01*
X172222700Y-105580838D01*
X172222700Y-106973400D01*
X172654500Y-106973400D01*
X172654500Y-104710745D01*
X172444950Y-104718122D01*
X172235400Y-104725500D01*
X172210000Y-104947358D01*
X172159231Y-104890946D01*
X172041054Y-104794357D01*
X171889202Y-104723267D01*
X171715958Y-104681536D01*
X171533610Y-104673025D01*
X171479763Y-104677436D01*
G36*
X169817509Y-104700791D02*
G01*
X169723425Y-104704451D01*
X169653010Y-104713455D01*
X169592699Y-104730181D01*
X169528930Y-104757005D01*
X169474749Y-104783171D01*
X169303702Y-104891513D01*
X169170452Y-105030673D01*
X169073121Y-105203378D01*
X169009832Y-105412354D01*
X168998425Y-105474800D01*
X168991136Y-105545770D01*
X168984597Y-105658525D01*
X168979097Y-105804049D01*
X168974926Y-105973330D01*
X168972373Y-106157353D01*
X168971692Y-106306650D01*
X168971500Y-106973400D01*
X169403300Y-106973400D01*
X169403300Y-106254110D01*
X169403907Y-106025457D01*
X169405900Y-105841758D01*
X169409537Y-105697177D01*
X169415078Y-105585882D01*
X169422781Y-105502037D01*
X169432905Y-105439809D01*
X169440803Y-105408534D01*
X169505563Y-105270307D01*
X169606470Y-105167106D01*
X169741897Y-105099984D01*
X169910220Y-105069999D01*
X169964688Y-105068400D01*
X170127159Y-105078817D01*
X170257138Y-105113694D01*
X170369236Y-105178472D01*
X170449140Y-105248726D01*
X170503327Y-105305731D01*
X170546709Y-105361501D01*
X170580477Y-105422365D01*
X170605821Y-105494652D01*
X170623933Y-105584689D01*
X170636004Y-105698805D01*
X170643223Y-105843327D01*
X170646783Y-106024585D01*
X170647874Y-106248907D01*
X170647900Y-106304910D01*
X170647900Y-106973400D01*
X171079700Y-106973400D01*
X171079700Y-104712800D01*
X170647900Y-104712800D01*
X170647900Y-104970707D01*
X170565636Y-104888442D01*
X170479248Y-104812836D01*
X170388545Y-104759569D01*
X170282522Y-104725282D01*
X170150176Y-104706616D01*
X169980505Y-104700211D01*
X169948826Y-104700100D01*
X169817509Y-104700791D01*
G37*
X169817509Y-104700791D02*
X169723425Y-104704451D01*
X169653010Y-104713455D01*
X169592699Y-104730181D01*
X169528930Y-104757005D01*
X169474749Y-104783171D01*
X169303702Y-104891513D01*
X169170452Y-105030673D01*
X169073121Y-105203378D01*
X169009832Y-105412354D01*
X168998425Y-105474800D01*
X168991136Y-105545770D01*
X168984597Y-105658525D01*
X168979097Y-105804049D01*
X168974926Y-105973330D01*
X168972373Y-106157353D01*
X168971692Y-106306650D01*
X168971500Y-106973400D01*
X169403300Y-106973400D01*
X169403300Y-106254110D01*
X169403907Y-106025457D01*
X169405900Y-105841758D01*
X169409537Y-105697177D01*
X169415078Y-105585882D01*
X169422781Y-105502037D01*
X169432905Y-105439809D01*
X169440803Y-105408534D01*
X169505563Y-105270307D01*
X169606470Y-105167106D01*
X169741897Y-105099984D01*
X169910220Y-105069999D01*
X169964688Y-105068400D01*
X170127159Y-105078817D01*
X170257138Y-105113694D01*
X170369236Y-105178472D01*
X170449140Y-105248726D01*
X170503327Y-105305731D01*
X170546709Y-105361501D01*
X170580477Y-105422365D01*
X170605821Y-105494652D01*
X170623933Y-105584689D01*
X170636004Y-105698805D01*
X170643223Y-105843327D01*
X170646783Y-106024585D01*
X170647874Y-106248907D01*
X170647900Y-106304910D01*
X170647900Y-106973400D01*
X171079700Y-106973400D01*
X171079700Y-104712800D01*
X170647900Y-104712800D01*
X170647900Y-104970707D01*
X170565636Y-104888442D01*
X170479248Y-104812836D01*
X170388545Y-104759569D01*
X170282522Y-104725282D01*
X170150176Y-104706616D01*
X169980505Y-104700211D01*
X169948826Y-104700100D01*
X169817509Y-104700791D01*
D11*
X138316500Y-49517000D02*
X137066500Y-49517000D01*
D12*
X128616500Y-54617000D02*
X131066500Y-54617000D01*
D10*
X138466500Y-49317000D02*
X130266499Y-49317000D01*
X133666500Y-52917000D02*
X138466500Y-52917000D01*
X128416500Y-54817000D02*
X131446500Y-54817000D01*
X128166500Y-51217000D02*
X128166500Y-51967000D01*
X128416500Y-50367000D02*
X128416500Y-54817000D01*
X128166500Y-51967000D02*
X128366500Y-51967000D01*
X138446500Y-51917000D02*
X138446500Y-49667000D01*
X138466500Y-52917000D02*
X138466500Y-49317000D01*
D13*
X136666500Y-51117000D02*
X129966500Y-51117000D01*
D14*
X137966500Y-49917000D02*
X137966500Y-52417000D01*
D12*
X138266500Y-52667000D02*
X136966500Y-52617000D01*
D15*
X129896500Y-50817000D02*
X129896500Y-53057000D01*
D16*
X128766500Y-54317000D02*
X128766500Y-52517001D01*
D17*
X128266500Y-51867000D02*
X128266500Y-51217000D01*
D10*
X131450182Y-54795529D02*
G75*
G02*
X133666500Y-52917000I2151318J-291471D01*
G01*
X128166500Y-51217001D02*
G75*
G02*
X130266499Y-49317000I2000000J-99999D01*
G01*
D14*
X131050182Y-54395529D02*
G75*
G02*
X133266500Y-52517000I2151318J-291471D01*
G01*
D10*
X161166500Y-54042000D02*
X160166500Y-54042000D01*
X160666500Y-53942000D02*
X161166500Y-53042000D01*
X160166500Y-53042000D02*
X160666500Y-53942000D01*
X161166500Y-53042000D02*
X160166500Y-53042000D01*
X161416500Y-50842000D02*
X159916500Y-50842000D01*
X161416500Y-56242000D02*
X159916500Y-56242000D01*
X161416500Y-50842000D02*
X161416500Y-56242000D01*
X159916500Y-56242000D02*
X159916500Y-50842000D01*
D19*
X194709500Y-67422000D02*
X187409500Y-67422000D01*
X194709500Y-72922000D02*
X187409500Y-72922000D01*
X187409500Y-72922000D02*
X187409500Y-71772000D01*
D11*
X107984063Y-120522608D02*
X107359063Y-119440076D01*
D12*
X98717333Y-114672162D02*
X99942333Y-116793924D01*
D10*
X108232268Y-120552512D02*
X104132267Y-113451103D01*
X102714576Y-118195590D02*
X105114576Y-122352512D01*
X98444128Y-114598956D02*
X99959128Y-117223013D01*
X101436819Y-112582450D02*
X100787300Y-112957450D01*
X102297941Y-112373956D02*
X98444128Y-114598956D01*
X100787300Y-112957450D02*
X100887300Y-113130655D01*
X105970602Y-121835191D02*
X107919159Y-120710191D01*
X105114576Y-122352512D02*
X108232268Y-120552512D01*
D13*
X105773422Y-119893666D02*
X102423422Y-114091296D01*
D14*
X107462652Y-120419499D02*
X105297589Y-121669499D01*
D12*
X105231083Y-122054307D02*
X104624384Y-120903474D01*
D15*
X102648230Y-113880674D02*
X100708333Y-115000674D01*
D16*
X99052141Y-114652065D02*
X100610986Y-113752066D01*
D17*
X100923903Y-112994053D02*
X101486819Y-112669053D01*
D10*
X99979563Y-117215467D02*
G75*
G02*
X102714576Y-118195590I823238J-2008831D01*
G01*
X101436819Y-112582451D02*
G75*
G02*
X104132267Y-113451103I913398J-1782050D01*
G01*
D14*
X100125973Y-116669057D02*
G75*
G02*
X102860986Y-117649180I823238J-2008831D01*
G01*
D11*
X214316500Y-54267000D02*
X213066500Y-54267000D01*
D12*
X204616500Y-59367000D02*
X207066500Y-59367000D01*
D10*
X214466500Y-54067000D02*
X206266499Y-54067000D01*
X209666500Y-57667000D02*
X214466500Y-57667000D01*
X204416500Y-59567000D02*
X207446500Y-59567000D01*
X204166500Y-55967000D02*
X204166500Y-56717000D01*
X204416500Y-55117000D02*
X204416500Y-59567000D01*
X204166500Y-56717000D02*
X204366500Y-56717000D01*
X214446500Y-56667000D02*
X214446500Y-54417000D01*
X214466500Y-57667000D02*
X214466500Y-54067000D01*
D13*
X212666500Y-55867000D02*
X205966500Y-55867000D01*
D14*
X213966500Y-54667000D02*
X213966500Y-57167000D01*
D12*
X214266500Y-57417000D02*
X212966500Y-57367000D01*
D15*
X205896500Y-55567000D02*
X205896500Y-57807000D01*
D16*
X204766500Y-59067000D02*
X204766500Y-57267001D01*
D17*
X204266500Y-56617000D02*
X204266500Y-55967000D01*
D10*
X207450182Y-59545529D02*
G75*
G02*
X209666500Y-57667000I2151318J-291471D01*
G01*
X204166500Y-55967001D02*
G75*
G02*
X206266499Y-54067000I2000000J-99999D01*
G01*
D14*
X207050182Y-59145529D02*
G75*
G02*
X209266500Y-57267000I2151318J-291471D01*
G01*
D19*
X194709500Y-86422000D02*
X187409500Y-86422000D01*
X194709500Y-91922000D02*
X187409500Y-91922000D01*
X187409500Y-91922000D02*
X187409500Y-90772000D01*
X118709500Y-65047000D02*
X111409500Y-65047000D01*
X118709500Y-70547000D02*
X111409500Y-70547000D01*
X111409500Y-70547000D02*
X111409500Y-69397000D01*
X118709500Y-103047000D02*
X111409500Y-103047000D01*
X118709500Y-108547000D02*
X111409500Y-108547000D01*
X111409500Y-108547000D02*
X111409500Y-107397000D01*
X156709500Y-60297000D02*
X149409500Y-60297000D01*
X156709500Y-65797000D02*
X149409500Y-65797000D01*
X149409500Y-65797000D02*
X149409500Y-64647000D01*
X156709500Y-98297000D02*
X149409500Y-98297000D01*
X156709500Y-103797000D02*
X149409500Y-103797000D01*
X149409500Y-103797000D02*
X149409500Y-102647000D01*
X130159500Y-77822000D02*
X137959500Y-77822000D01*
X137959500Y-81522000D02*
X130159500Y-81522000D01*
X130159500Y-79422000D02*
X130159500Y-77822000D01*
X149159500Y-75447000D02*
X156959500Y-75447000D01*
X156959500Y-79147000D02*
X149159500Y-79147000D01*
X149159500Y-77047000D02*
X149159500Y-75447000D01*
X111159500Y-80197000D02*
X118959500Y-80197000D01*
X118959500Y-83897000D02*
X111159500Y-83897000D01*
X111159500Y-81797000D02*
X111159500Y-80197000D01*
X206159500Y-101572000D02*
X213959500Y-101572000D01*
X213959500Y-105272000D02*
X206159500Y-105272000D01*
X206159500Y-103172000D02*
X206159500Y-101572000D01*
X168159500Y-96822000D02*
X175959500Y-96822000D01*
X175959500Y-100522000D02*
X168159500Y-100522000D01*
X168159500Y-98422000D02*
X168159500Y-96822000D01*
X149159500Y-94447000D02*
X156959500Y-94447000D01*
X156959500Y-98147000D02*
X149159500Y-98147000D01*
X149159500Y-96047000D02*
X149159500Y-94447000D01*
X187159500Y-101572000D02*
X194959500Y-101572000D01*
X194959500Y-105272000D02*
X187159500Y-105272000D01*
X187159500Y-103172000D02*
X187159500Y-101572000D01*
X130159500Y-96822000D02*
X137959500Y-96822000D01*
X137959500Y-100522000D02*
X130159500Y-100522000D01*
X130159500Y-98422000D02*
X130159500Y-96822000D01*
X111159500Y-99197000D02*
X118959500Y-99197000D01*
X118959500Y-102897000D02*
X111159500Y-102897000D01*
X111159500Y-100797000D02*
X111159500Y-99197000D01*
X139659500Y-116447000D02*
X147459500Y-116447000D01*
X147459500Y-120147000D02*
X139659500Y-120147000D01*
X139659500Y-118047000D02*
X139659500Y-116447000D01*
X119549964Y-120102579D02*
X127084185Y-118083791D01*
X128041816Y-121657717D02*
X120507595Y-123676505D01*
X119964075Y-121648061D02*
X119549964Y-120102579D01*
X149159500Y-56447000D02*
X156959500Y-56447000D01*
X156959500Y-60147000D02*
X149159500Y-60147000D01*
X149159500Y-58047000D02*
X149159500Y-56447000D01*
X168159500Y-58822000D02*
X175959500Y-58822000D01*
X175959500Y-62522000D02*
X168159500Y-62522000D01*
X168159500Y-60422000D02*
X168159500Y-58822000D01*
X130159500Y-58822000D02*
X137959500Y-58822000D01*
X137959500Y-62522000D02*
X130159500Y-62522000D01*
X130159500Y-60422000D02*
X130159500Y-58822000D01*
X111159500Y-61197000D02*
X118959500Y-61197000D01*
X118959500Y-64897000D02*
X111159500Y-64897000D01*
X111159500Y-62797000D02*
X111159500Y-61197000D01*
X206159500Y-82572000D02*
X213959500Y-82572000D01*
X213959500Y-86272000D02*
X206159500Y-86272000D01*
X206159500Y-84172000D02*
X206159500Y-82572000D01*
X187159500Y-82572000D02*
X194959500Y-82572000D01*
X194959500Y-86272000D02*
X187159500Y-86272000D01*
X187159500Y-84172000D02*
X187159500Y-82572000D01*
X206159500Y-63572000D02*
X213959500Y-63572000D01*
X213959500Y-67272000D02*
X206159500Y-67272000D01*
X206159500Y-65172000D02*
X206159500Y-63572000D01*
X168159500Y-77822000D02*
X175959500Y-77822000D01*
X175959500Y-81522000D02*
X168159500Y-81522000D01*
X168159500Y-79422000D02*
X168159500Y-77822000D01*
D11*
X119316500Y-70892000D02*
X118066500Y-70892000D01*
D12*
X109616500Y-75992000D02*
X112066500Y-75992000D01*
D10*
X119466500Y-70692000D02*
X111266499Y-70692000D01*
X114666500Y-74292000D02*
X119466500Y-74292000D01*
X109416500Y-76192000D02*
X112446500Y-76192000D01*
X109166500Y-72592000D02*
X109166500Y-73342000D01*
X109416500Y-71742000D02*
X109416500Y-76192000D01*
X109166500Y-73342000D02*
X109366500Y-73342000D01*
X119446500Y-73292000D02*
X119446500Y-71042000D01*
X119466500Y-74292000D02*
X119466500Y-70692000D01*
D13*
X117666500Y-72492000D02*
X110966500Y-72492000D01*
D14*
X118966500Y-71292000D02*
X118966500Y-73792000D01*
D12*
X119266500Y-74042000D02*
X117966500Y-73992000D01*
D15*
X110896500Y-72192000D02*
X110896500Y-74432000D01*
D16*
X109766500Y-75692000D02*
X109766500Y-73892001D01*
D17*
X109266500Y-73242000D02*
X109266500Y-72592000D01*
D10*
X112450182Y-76170529D02*
G75*
G02*
X114666500Y-74292000I2151318J-291471D01*
G01*
X109166500Y-72592001D02*
G75*
G02*
X111266499Y-70692000I2000000J-99999D01*
G01*
D14*
X112050182Y-75770529D02*
G75*
G02*
X114266500Y-73892000I2151318J-291471D01*
G01*
D11*
X119316500Y-89892000D02*
X118066500Y-89892000D01*
D12*
X109616500Y-94992000D02*
X112066500Y-94992000D01*
D10*
X119466500Y-89692000D02*
X111266499Y-89692000D01*
X114666500Y-93292000D02*
X119466500Y-93292000D01*
X109416500Y-95192000D02*
X112446500Y-95192000D01*
X109166500Y-91592000D02*
X109166500Y-92342000D01*
X109416500Y-90742000D02*
X109416500Y-95192000D01*
X109166500Y-92342000D02*
X109366500Y-92342000D01*
X119446500Y-92292000D02*
X119446500Y-90042000D01*
X119466500Y-93292000D02*
X119466500Y-89692000D01*
D13*
X117666500Y-91492000D02*
X110966500Y-91492000D01*
D14*
X118966500Y-90292000D02*
X118966500Y-92792000D01*
D12*
X119266500Y-93042000D02*
X117966500Y-92992000D01*
D15*
X110896500Y-91192000D02*
X110896500Y-93432000D01*
D16*
X109766500Y-94692000D02*
X109766500Y-92892001D01*
D17*
X109266500Y-92242000D02*
X109266500Y-91592000D01*
D10*
X112450182Y-95170529D02*
G75*
G02*
X114666500Y-93292000I2151318J-291471D01*
G01*
X109166500Y-91592001D02*
G75*
G02*
X111266499Y-89692000I2000000J-99999D01*
G01*
D14*
X112050182Y-94770529D02*
G75*
G02*
X114266500Y-92892000I2151318J-291471D01*
G01*
D11*
X195316500Y-92267000D02*
X194066500Y-92267000D01*
D12*
X185616500Y-97367000D02*
X188066500Y-97367000D01*
D10*
X195466500Y-92067000D02*
X187266499Y-92067000D01*
X190666500Y-95667000D02*
X195466500Y-95667000D01*
X185416500Y-97567000D02*
X188446500Y-97567000D01*
X185166500Y-93967000D02*
X185166500Y-94717000D01*
X185416500Y-93117000D02*
X185416500Y-97567000D01*
X185166500Y-94717000D02*
X185366500Y-94717000D01*
X195446500Y-94667000D02*
X195446500Y-92417000D01*
X195466500Y-95667000D02*
X195466500Y-92067000D01*
D13*
X193666500Y-93867000D02*
X186966500Y-93867000D01*
D14*
X194966500Y-92667000D02*
X194966500Y-95167000D01*
D12*
X195266500Y-95417000D02*
X193966500Y-95367000D01*
D15*
X186896500Y-93567000D02*
X186896500Y-95807000D01*
D16*
X185766500Y-97067000D02*
X185766500Y-95267001D01*
D17*
X185266500Y-94617000D02*
X185266500Y-93967000D01*
D10*
X188450182Y-97545529D02*
G75*
G02*
X190666500Y-95667000I2151318J-291471D01*
G01*
X185166500Y-93967001D02*
G75*
G02*
X187266499Y-92067000I2000000J-99999D01*
G01*
D14*
X188050182Y-97145529D02*
G75*
G02*
X190266500Y-95267000I2151318J-291471D01*
G01*
D11*
X157316500Y-85142000D02*
X156066500Y-85142000D01*
D12*
X147616500Y-90242000D02*
X150066500Y-90242000D01*
D10*
X157466500Y-84942000D02*
X149266499Y-84942000D01*
X152666500Y-88542000D02*
X157466500Y-88542000D01*
X147416500Y-90442000D02*
X150446500Y-90442000D01*
X147166500Y-86842000D02*
X147166500Y-87592000D01*
X147416500Y-85992000D02*
X147416500Y-90442000D01*
X147166500Y-87592000D02*
X147366500Y-87592000D01*
X157446500Y-87542000D02*
X157446500Y-85292000D01*
X157466500Y-88542000D02*
X157466500Y-84942000D01*
D13*
X155666500Y-86742000D02*
X148966500Y-86742000D01*
D14*
X156966500Y-85542000D02*
X156966500Y-88042000D01*
D12*
X157266500Y-88292000D02*
X155966500Y-88242000D01*
D15*
X148896500Y-86442000D02*
X148896500Y-88682000D01*
D16*
X147766500Y-89942000D02*
X147766500Y-88142001D01*
D17*
X147266500Y-87492000D02*
X147266500Y-86842000D01*
D10*
X150450182Y-90420529D02*
G75*
G02*
X152666500Y-88542000I2151318J-291471D01*
G01*
X147166500Y-86842001D02*
G75*
G02*
X149266499Y-84942000I2000000J-99999D01*
G01*
D14*
X150050182Y-90020529D02*
G75*
G02*
X152266500Y-88142000I2151318J-291471D01*
G01*
D19*
X95855026Y-118114501D02*
X99755026Y-124869499D01*
X96550732Y-126719499D02*
X92650732Y-119964501D01*
X94469385Y-118914501D02*
X95855026Y-118114501D01*
X187159500Y-63572000D02*
X194959500Y-63572000D01*
X194959500Y-67272000D02*
X187159500Y-67272000D01*
X187159500Y-65172000D02*
X187159500Y-63572000D01*
D10*
X192854738Y-70634380D02*
X193330928Y-70634380D01*
X193330928Y-69634380D01*
X192521404Y-70110571D02*
X192188071Y-70110571D01*
X192045214Y-70634380D02*
X192521404Y-70634380D01*
X192521404Y-69634380D01*
X192045214Y-69634380D01*
X191616642Y-70634380D02*
X191616642Y-69634380D01*
X191378547Y-69634380D01*
X191235690Y-69682000D01*
X191140452Y-69777238D01*
X191092833Y-69872476D01*
X191045214Y-70062952D01*
X191045214Y-70205809D01*
X191092833Y-70396285D01*
X191140452Y-70491523D01*
X191235690Y-70586761D01*
X191378547Y-70634380D01*
X191616642Y-70634380D01*
X190664261Y-69729619D02*
X190616642Y-69682000D01*
X190521404Y-69634380D01*
X190283309Y-69634380D01*
X190188071Y-69682000D01*
X190140452Y-69729619D01*
X190092833Y-69824857D01*
X190092833Y-69920095D01*
X190140452Y-70062952D01*
X190711880Y-70634380D01*
X190092833Y-70634380D01*
X189521404Y-70062952D02*
X189616642Y-70015333D01*
X189664261Y-69967714D01*
X189711880Y-69872476D01*
X189711880Y-69824857D01*
X189664261Y-69729619D01*
X189616642Y-69682000D01*
X189521404Y-69634380D01*
X189330928Y-69634380D01*
X189235690Y-69682000D01*
X189188071Y-69729619D01*
X189140452Y-69824857D01*
X189140452Y-69872476D01*
X189188071Y-69967714D01*
X189235690Y-70015333D01*
X189330928Y-70062952D01*
X189521404Y-70062952D01*
X189616642Y-70110571D01*
X189664261Y-70158190D01*
X189711880Y-70253428D01*
X189711880Y-70443904D01*
X189664261Y-70539142D01*
X189616642Y-70586761D01*
X189521404Y-70634380D01*
X189330928Y-70634380D01*
X189235690Y-70586761D01*
X189188071Y-70539142D01*
X189140452Y-70443904D01*
X189140452Y-70253428D01*
X189188071Y-70158190D01*
X189235690Y-70110571D01*
X189330928Y-70062952D01*
X192854738Y-89634380D02*
X193330928Y-89634380D01*
X193330928Y-88634380D01*
X192521404Y-89110571D02*
X192188071Y-89110571D01*
X192045214Y-89634380D02*
X192521404Y-89634380D01*
X192521404Y-88634380D01*
X192045214Y-88634380D01*
X191616642Y-89634380D02*
X191616642Y-88634380D01*
X191378547Y-88634380D01*
X191235690Y-88682000D01*
X191140452Y-88777238D01*
X191092833Y-88872476D01*
X191045214Y-89062952D01*
X191045214Y-89205809D01*
X191092833Y-89396285D01*
X191140452Y-89491523D01*
X191235690Y-89586761D01*
X191378547Y-89634380D01*
X191616642Y-89634380D01*
X190711880Y-88634380D02*
X190092833Y-88634380D01*
X190426166Y-89015333D01*
X190283309Y-89015333D01*
X190188071Y-89062952D01*
X190140452Y-89110571D01*
X190092833Y-89205809D01*
X190092833Y-89443904D01*
X190140452Y-89539142D01*
X190188071Y-89586761D01*
X190283309Y-89634380D01*
X190569023Y-89634380D01*
X190664261Y-89586761D01*
X190711880Y-89539142D01*
X189140452Y-89634380D02*
X189711880Y-89634380D01*
X189426166Y-89634380D02*
X189426166Y-88634380D01*
X189521404Y-88777238D01*
X189616642Y-88872476D01*
X189711880Y-88920095D01*
X116854738Y-68259380D02*
X117330928Y-68259380D01*
X117330928Y-67259380D01*
X116521404Y-67735571D02*
X116188071Y-67735571D01*
X116045214Y-68259380D02*
X116521404Y-68259380D01*
X116521404Y-67259380D01*
X116045214Y-67259380D01*
X115616642Y-68259380D02*
X115616642Y-67259380D01*
X115378547Y-67259380D01*
X115235690Y-67307000D01*
X115140452Y-67402238D01*
X115092833Y-67497476D01*
X115045214Y-67687952D01*
X115045214Y-67830809D01*
X115092833Y-68021285D01*
X115140452Y-68116523D01*
X115235690Y-68211761D01*
X115378547Y-68259380D01*
X115616642Y-68259380D01*
X114711880Y-67259380D02*
X114092833Y-67259380D01*
X114426166Y-67640333D01*
X114283309Y-67640333D01*
X114188071Y-67687952D01*
X114140452Y-67735571D01*
X114092833Y-67830809D01*
X114092833Y-68068904D01*
X114140452Y-68164142D01*
X114188071Y-68211761D01*
X114283309Y-68259380D01*
X114569023Y-68259380D01*
X114664261Y-68211761D01*
X114711880Y-68164142D01*
X113473785Y-67259380D02*
X113378547Y-67259380D01*
X113283309Y-67307000D01*
X113235690Y-67354619D01*
X113188071Y-67449857D01*
X113140452Y-67640333D01*
X113140452Y-67878428D01*
X113188071Y-68068904D01*
X113235690Y-68164142D01*
X113283309Y-68211761D01*
X113378547Y-68259380D01*
X113473785Y-68259380D01*
X113569023Y-68211761D01*
X113616642Y-68164142D01*
X113664261Y-68068904D01*
X113711880Y-67878428D01*
X113711880Y-67640333D01*
X113664261Y-67449857D01*
X113616642Y-67354619D01*
X113569023Y-67307000D01*
X113473785Y-67259380D01*
X116974738Y-88561880D02*
X117450928Y-88561880D01*
X117450928Y-87561880D01*
X116641404Y-88038071D02*
X116308071Y-88038071D01*
X116165214Y-88561880D02*
X116641404Y-88561880D01*
X116641404Y-87561880D01*
X116165214Y-87561880D01*
X115736642Y-88561880D02*
X115736642Y-87561880D01*
X115498547Y-87561880D01*
X115355690Y-87609500D01*
X115260452Y-87704738D01*
X115212833Y-87799976D01*
X115165214Y-87990452D01*
X115165214Y-88133309D01*
X115212833Y-88323785D01*
X115260452Y-88419023D01*
X115355690Y-88514261D01*
X115498547Y-88561880D01*
X115736642Y-88561880D01*
X114831880Y-87561880D02*
X114212833Y-87561880D01*
X114546166Y-87942833D01*
X114403309Y-87942833D01*
X114308071Y-87990452D01*
X114260452Y-88038071D01*
X114212833Y-88133309D01*
X114212833Y-88371404D01*
X114260452Y-88466642D01*
X114308071Y-88514261D01*
X114403309Y-88561880D01*
X114689023Y-88561880D01*
X114784261Y-88514261D01*
X114831880Y-88466642D01*
X113879500Y-87561880D02*
X113260452Y-87561880D01*
X113593785Y-87942833D01*
X113450928Y-87942833D01*
X113355690Y-87990452D01*
X113308071Y-88038071D01*
X113260452Y-88133309D01*
X113260452Y-88371404D01*
X113308071Y-88466642D01*
X113355690Y-88514261D01*
X113450928Y-88561880D01*
X113736642Y-88561880D01*
X113831880Y-88514261D01*
X113879500Y-88466642D01*
X116614738Y-106324380D02*
X117090928Y-106324380D01*
X117090928Y-105324380D01*
X116281404Y-105800571D02*
X115948071Y-105800571D01*
X115805214Y-106324380D02*
X116281404Y-106324380D01*
X116281404Y-105324380D01*
X115805214Y-105324380D01*
X115376642Y-106324380D02*
X115376642Y-105324380D01*
X115138547Y-105324380D01*
X114995690Y-105372000D01*
X114900452Y-105467238D01*
X114852833Y-105562476D01*
X114805214Y-105752952D01*
X114805214Y-105895809D01*
X114852833Y-106086285D01*
X114900452Y-106181523D01*
X114995690Y-106276761D01*
X115138547Y-106324380D01*
X115376642Y-106324380D01*
X114471880Y-105324380D02*
X113852833Y-105324380D01*
X114186166Y-105705333D01*
X114043309Y-105705333D01*
X113948071Y-105752952D01*
X113900452Y-105800571D01*
X113852833Y-105895809D01*
X113852833Y-106133904D01*
X113900452Y-106229142D01*
X113948071Y-106276761D01*
X114043309Y-106324380D01*
X114329023Y-106324380D01*
X114424261Y-106276761D01*
X114471880Y-106229142D01*
X113519500Y-105324380D02*
X112900452Y-105324380D01*
X113233785Y-105705333D01*
X113090928Y-105705333D01*
X112995690Y-105752952D01*
X112948071Y-105800571D01*
X112900452Y-105895809D01*
X112900452Y-106133904D01*
X112948071Y-106229142D01*
X112995690Y-106276761D01*
X113090928Y-106324380D01*
X113376642Y-106324380D01*
X113471880Y-106276761D01*
X113519500Y-106229142D01*
X154854738Y-63509380D02*
X155330928Y-63509380D01*
X155330928Y-62509380D01*
X154521404Y-62985571D02*
X154188071Y-62985571D01*
X154045214Y-63509380D02*
X154521404Y-63509380D01*
X154521404Y-62509380D01*
X154045214Y-62509380D01*
X153616642Y-63509380D02*
X153616642Y-62509380D01*
X153378547Y-62509380D01*
X153235690Y-62557000D01*
X153140452Y-62652238D01*
X153092833Y-62747476D01*
X153045214Y-62937952D01*
X153045214Y-63080809D01*
X153092833Y-63271285D01*
X153140452Y-63366523D01*
X153235690Y-63461761D01*
X153378547Y-63509380D01*
X153616642Y-63509380D01*
X152664261Y-62604619D02*
X152616642Y-62557000D01*
X152521404Y-62509380D01*
X152283309Y-62509380D01*
X152188071Y-62557000D01*
X152140452Y-62604619D01*
X152092833Y-62699857D01*
X152092833Y-62795095D01*
X152140452Y-62937952D01*
X152711880Y-63509380D01*
X152092833Y-63509380D01*
X151616642Y-63509380D02*
X151426166Y-63509380D01*
X151330928Y-63461761D01*
X151283309Y-63414142D01*
X151188071Y-63271285D01*
X151140452Y-63080809D01*
X151140452Y-62699857D01*
X151188071Y-62604619D01*
X151235690Y-62557000D01*
X151330928Y-62509380D01*
X151521404Y-62509380D01*
X151616642Y-62557000D01*
X151664261Y-62604619D01*
X151711880Y-62699857D01*
X151711880Y-62937952D01*
X151664261Y-63033190D01*
X151616642Y-63080809D01*
X151521404Y-63128428D01*
X151330928Y-63128428D01*
X151235690Y-63080809D01*
X151188071Y-63033190D01*
X151140452Y-62937952D01*
X154854738Y-101509380D02*
X155330928Y-101509380D01*
X155330928Y-100509380D01*
X154521404Y-100985571D02*
X154188071Y-100985571D01*
X154045214Y-101509380D02*
X154521404Y-101509380D01*
X154521404Y-100509380D01*
X154045214Y-100509380D01*
X153616642Y-101509380D02*
X153616642Y-100509380D01*
X153378547Y-100509380D01*
X153235690Y-100557000D01*
X153140452Y-100652238D01*
X153092833Y-100747476D01*
X153045214Y-100937952D01*
X153045214Y-101080809D01*
X153092833Y-101271285D01*
X153140452Y-101366523D01*
X153235690Y-101461761D01*
X153378547Y-101509380D01*
X153616642Y-101509380D01*
X152711880Y-100509380D02*
X152092833Y-100509380D01*
X152426166Y-100890333D01*
X152283309Y-100890333D01*
X152188071Y-100937952D01*
X152140452Y-100985571D01*
X152092833Y-101080809D01*
X152092833Y-101318904D01*
X152140452Y-101414142D01*
X152188071Y-101461761D01*
X152283309Y-101509380D01*
X152569023Y-101509380D01*
X152664261Y-101461761D01*
X152711880Y-101414142D01*
X151711880Y-100604619D02*
X151664261Y-100557000D01*
X151569023Y-100509380D01*
X151330928Y-100509380D01*
X151235690Y-100557000D01*
X151188071Y-100604619D01*
X151140452Y-100699857D01*
X151140452Y-100795095D01*
X151188071Y-100937952D01*
X151759500Y-101509380D01*
X151140452Y-101509380D01*
X135534738Y-83111880D02*
X136010928Y-83111880D01*
X136010928Y-82111880D01*
X135201404Y-82588071D02*
X134868071Y-82588071D01*
X134725214Y-83111880D02*
X135201404Y-83111880D01*
X135201404Y-82111880D01*
X134725214Y-82111880D01*
X134296642Y-83111880D02*
X134296642Y-82111880D01*
X134058547Y-82111880D01*
X133915690Y-82159500D01*
X133820452Y-82254738D01*
X133772833Y-82349976D01*
X133725214Y-82540452D01*
X133725214Y-82683309D01*
X133772833Y-82873785D01*
X133820452Y-82969023D01*
X133915690Y-83064261D01*
X134058547Y-83111880D01*
X134296642Y-83111880D01*
X132868071Y-82445214D02*
X132868071Y-83111880D01*
X133106166Y-82064261D02*
X133344261Y-82778547D01*
X132725214Y-82778547D01*
X131915690Y-82445214D02*
X131915690Y-83111880D01*
X132153785Y-82064261D02*
X132391880Y-82778547D01*
X131772833Y-82778547D01*
X154534738Y-80736880D02*
X155010928Y-80736880D01*
X155010928Y-79736880D01*
X154201404Y-80213071D02*
X153868071Y-80213071D01*
X153725214Y-80736880D02*
X154201404Y-80736880D01*
X154201404Y-79736880D01*
X153725214Y-79736880D01*
X153296642Y-80736880D02*
X153296642Y-79736880D01*
X153058547Y-79736880D01*
X152915690Y-79784500D01*
X152820452Y-79879738D01*
X152772833Y-79974976D01*
X152725214Y-80165452D01*
X152725214Y-80308309D01*
X152772833Y-80498785D01*
X152820452Y-80594023D01*
X152915690Y-80689261D01*
X153058547Y-80736880D01*
X153296642Y-80736880D01*
X151868071Y-80070214D02*
X151868071Y-80736880D01*
X152106166Y-79689261D02*
X152344261Y-80403547D01*
X151725214Y-80403547D01*
X151439500Y-79736880D02*
X150820452Y-79736880D01*
X151153785Y-80117833D01*
X151010928Y-80117833D01*
X150915690Y-80165452D01*
X150868071Y-80213071D01*
X150820452Y-80308309D01*
X150820452Y-80546404D01*
X150868071Y-80641642D01*
X150915690Y-80689261D01*
X151010928Y-80736880D01*
X151296642Y-80736880D01*
X151391880Y-80689261D01*
X151439500Y-80641642D01*
X116534738Y-85486880D02*
X117010928Y-85486880D01*
X117010928Y-84486880D01*
X116201404Y-84963071D02*
X115868071Y-84963071D01*
X115725214Y-85486880D02*
X116201404Y-85486880D01*
X116201404Y-84486880D01*
X115725214Y-84486880D01*
X115296642Y-85486880D02*
X115296642Y-84486880D01*
X115058547Y-84486880D01*
X114915690Y-84534500D01*
X114820452Y-84629738D01*
X114772833Y-84724976D01*
X114725214Y-84915452D01*
X114725214Y-85058309D01*
X114772833Y-85248785D01*
X114820452Y-85344023D01*
X114915690Y-85439261D01*
X115058547Y-85486880D01*
X115296642Y-85486880D01*
X113868071Y-84820214D02*
X113868071Y-85486880D01*
X114106166Y-84439261D02*
X114344261Y-85153547D01*
X113725214Y-85153547D01*
X112868071Y-84486880D02*
X113344261Y-84486880D01*
X113391880Y-84963071D01*
X113344261Y-84915452D01*
X113249023Y-84867833D01*
X113010928Y-84867833D01*
X112915690Y-84915452D01*
X112868071Y-84963071D01*
X112820452Y-85058309D01*
X112820452Y-85296404D01*
X112868071Y-85391642D01*
X112915690Y-85439261D01*
X113010928Y-85486880D01*
X113249023Y-85486880D01*
X113344261Y-85439261D01*
X113391880Y-85391642D01*
X211534738Y-106861880D02*
X212010928Y-106861880D01*
X212010928Y-105861880D01*
X211201404Y-106338071D02*
X210868071Y-106338071D01*
X210725214Y-106861880D02*
X211201404Y-106861880D01*
X211201404Y-105861880D01*
X210725214Y-105861880D01*
X210296642Y-106861880D02*
X210296642Y-105861880D01*
X210058547Y-105861880D01*
X209915690Y-105909500D01*
X209820452Y-106004738D01*
X209772833Y-106099976D01*
X209725214Y-106290452D01*
X209725214Y-106433309D01*
X209772833Y-106623785D01*
X209820452Y-106719023D01*
X209915690Y-106814261D01*
X210058547Y-106861880D01*
X210296642Y-106861880D01*
X208868071Y-106195214D02*
X208868071Y-106861880D01*
X209106166Y-105814261D02*
X209344261Y-106528547D01*
X208725214Y-106528547D01*
X207915690Y-105861880D02*
X208106166Y-105861880D01*
X208201404Y-105909500D01*
X208249023Y-105957119D01*
X208344261Y-106099976D01*
X208391880Y-106290452D01*
X208391880Y-106671404D01*
X208344261Y-106766642D01*
X208296642Y-106814261D01*
X208201404Y-106861880D01*
X208010928Y-106861880D01*
X207915690Y-106814261D01*
X207868071Y-106766642D01*
X207820452Y-106671404D01*
X207820452Y-106433309D01*
X207868071Y-106338071D01*
X207915690Y-106290452D01*
X208010928Y-106242833D01*
X208201404Y-106242833D01*
X208296642Y-106290452D01*
X208344261Y-106338071D01*
X208391880Y-106433309D01*
X173534738Y-102111880D02*
X174010928Y-102111880D01*
X174010928Y-101111880D01*
X173201404Y-101588071D02*
X172868071Y-101588071D01*
X172725214Y-102111880D02*
X173201404Y-102111880D01*
X173201404Y-101111880D01*
X172725214Y-101111880D01*
X172296642Y-102111880D02*
X172296642Y-101111880D01*
X172058547Y-101111880D01*
X171915690Y-101159500D01*
X171820452Y-101254738D01*
X171772833Y-101349976D01*
X171725214Y-101540452D01*
X171725214Y-101683309D01*
X171772833Y-101873785D01*
X171820452Y-101969023D01*
X171915690Y-102064261D01*
X172058547Y-102111880D01*
X172296642Y-102111880D01*
X170868071Y-101445214D02*
X170868071Y-102111880D01*
X171106166Y-101064261D02*
X171344261Y-101778547D01*
X170725214Y-101778547D01*
X170201404Y-101540452D02*
X170296642Y-101492833D01*
X170344261Y-101445214D01*
X170391880Y-101349976D01*
X170391880Y-101302357D01*
X170344261Y-101207119D01*
X170296642Y-101159500D01*
X170201404Y-101111880D01*
X170010928Y-101111880D01*
X169915690Y-101159500D01*
X169868071Y-101207119D01*
X169820452Y-101302357D01*
X169820452Y-101349976D01*
X169868071Y-101445214D01*
X169915690Y-101492833D01*
X170010928Y-101540452D01*
X170201404Y-101540452D01*
X170296642Y-101588071D01*
X170344261Y-101635690D01*
X170391880Y-101730928D01*
X170391880Y-101921404D01*
X170344261Y-102016642D01*
X170296642Y-102064261D01*
X170201404Y-102111880D01*
X170010928Y-102111880D01*
X169915690Y-102064261D01*
X169868071Y-102016642D01*
X169820452Y-101921404D01*
X169820452Y-101730928D01*
X169868071Y-101635690D01*
X169915690Y-101588071D01*
X170010928Y-101540452D01*
X148104738Y-97666880D02*
X148580928Y-97666880D01*
X148580928Y-96666880D01*
X147771404Y-97143071D02*
X147438071Y-97143071D01*
X147295214Y-97666880D02*
X147771404Y-97666880D01*
X147771404Y-96666880D01*
X147295214Y-96666880D01*
X146866642Y-97666880D02*
X146866642Y-96666880D01*
X146628547Y-96666880D01*
X146485690Y-96714500D01*
X146390452Y-96809738D01*
X146342833Y-96904976D01*
X146295214Y-97095452D01*
X146295214Y-97238309D01*
X146342833Y-97428785D01*
X146390452Y-97524023D01*
X146485690Y-97619261D01*
X146628547Y-97666880D01*
X146866642Y-97666880D01*
X145438071Y-97000214D02*
X145438071Y-97666880D01*
X145676166Y-96619261D02*
X145914261Y-97333547D01*
X145295214Y-97333547D01*
X144866642Y-97666880D02*
X144676166Y-97666880D01*
X144580928Y-97619261D01*
X144533309Y-97571642D01*
X144438071Y-97428785D01*
X144390452Y-97238309D01*
X144390452Y-96857357D01*
X144438071Y-96762119D01*
X144485690Y-96714500D01*
X144580928Y-96666880D01*
X144771404Y-96666880D01*
X144866642Y-96714500D01*
X144914261Y-96762119D01*
X144961880Y-96857357D01*
X144961880Y-97095452D01*
X144914261Y-97190690D01*
X144866642Y-97238309D01*
X144771404Y-97285928D01*
X144580928Y-97285928D01*
X144485690Y-97238309D01*
X144438071Y-97190690D01*
X144390452Y-97095452D01*
X192534738Y-106861880D02*
X193010928Y-106861880D01*
X193010928Y-105861880D01*
X192201404Y-106338071D02*
X191868071Y-106338071D01*
X191725214Y-106861880D02*
X192201404Y-106861880D01*
X192201404Y-105861880D01*
X191725214Y-105861880D01*
X191296642Y-106861880D02*
X191296642Y-105861880D01*
X191058547Y-105861880D01*
X190915690Y-105909500D01*
X190820452Y-106004738D01*
X190772833Y-106099976D01*
X190725214Y-106290452D01*
X190725214Y-106433309D01*
X190772833Y-106623785D01*
X190820452Y-106719023D01*
X190915690Y-106814261D01*
X191058547Y-106861880D01*
X191296642Y-106861880D01*
X189868071Y-106195214D02*
X189868071Y-106861880D01*
X190106166Y-105814261D02*
X190344261Y-106528547D01*
X189725214Y-106528547D01*
X189439500Y-105861880D02*
X188772833Y-105861880D01*
X189201404Y-106861880D01*
X135810128Y-101604380D02*
X136286318Y-101604380D01*
X136286318Y-100604380D01*
X135476794Y-101080571D02*
X135143461Y-101080571D01*
X135000604Y-101604380D02*
X135476794Y-101604380D01*
X135476794Y-100604380D01*
X135000604Y-100604380D01*
X134572032Y-101604380D02*
X134572032Y-100604380D01*
X134333937Y-100604380D01*
X134191080Y-100652000D01*
X134095842Y-100747238D01*
X134048223Y-100842476D01*
X134000604Y-101032952D01*
X134000604Y-101175809D01*
X134048223Y-101366285D01*
X134095842Y-101461523D01*
X134191080Y-101556761D01*
X134333937Y-101604380D01*
X134572032Y-101604380D01*
X133095842Y-100604380D02*
X133572032Y-100604380D01*
X133619651Y-101080571D01*
X133572032Y-101032952D01*
X133476794Y-100985333D01*
X133238699Y-100985333D01*
X133143461Y-101032952D01*
X133095842Y-101080571D01*
X133048223Y-101175809D01*
X133048223Y-101413904D01*
X133095842Y-101509142D01*
X133143461Y-101556761D01*
X133238699Y-101604380D01*
X133476794Y-101604380D01*
X133572032Y-101556761D01*
X133619651Y-101509142D01*
X132429175Y-100604380D02*
X132333937Y-100604380D01*
X132238699Y-100652000D01*
X132191080Y-100699619D01*
X132143461Y-100794857D01*
X132095842Y-100985333D01*
X132095842Y-101223428D01*
X132143461Y-101413904D01*
X132191080Y-101509142D01*
X132238699Y-101556761D01*
X132333937Y-101604380D01*
X132429175Y-101604380D01*
X132524413Y-101556761D01*
X132572032Y-101509142D01*
X132619651Y-101413904D01*
X132667270Y-101223428D01*
X132667270Y-100985333D01*
X132619651Y-100794857D01*
X132572032Y-100699619D01*
X132524413Y-100652000D01*
X132429175Y-100604380D01*
X110104738Y-102416880D02*
X110580928Y-102416880D01*
X110580928Y-101416880D01*
X109771404Y-101893071D02*
X109438071Y-101893071D01*
X109295214Y-102416880D02*
X109771404Y-102416880D01*
X109771404Y-101416880D01*
X109295214Y-101416880D01*
X108866642Y-102416880D02*
X108866642Y-101416880D01*
X108628547Y-101416880D01*
X108485690Y-101464500D01*
X108390452Y-101559738D01*
X108342833Y-101654976D01*
X108295214Y-101845452D01*
X108295214Y-101988309D01*
X108342833Y-102178785D01*
X108390452Y-102274023D01*
X108485690Y-102369261D01*
X108628547Y-102416880D01*
X108866642Y-102416880D01*
X107390452Y-101416880D02*
X107866642Y-101416880D01*
X107914261Y-101893071D01*
X107866642Y-101845452D01*
X107771404Y-101797833D01*
X107533309Y-101797833D01*
X107438071Y-101845452D01*
X107390452Y-101893071D01*
X107342833Y-101988309D01*
X107342833Y-102226404D01*
X107390452Y-102321642D01*
X107438071Y-102369261D01*
X107533309Y-102416880D01*
X107771404Y-102416880D01*
X107866642Y-102369261D01*
X107914261Y-102321642D01*
X106390452Y-102416880D02*
X106961880Y-102416880D01*
X106676166Y-102416880D02*
X106676166Y-101416880D01*
X106771404Y-101559738D01*
X106866642Y-101654976D01*
X106961880Y-101702595D01*
X144928284Y-121526610D02*
X145404474Y-121526610D01*
X145404474Y-120526610D01*
X144594950Y-121002801D02*
X144261617Y-121002801D01*
X144118760Y-121526610D02*
X144594950Y-121526610D01*
X144594950Y-120526610D01*
X144118760Y-120526610D01*
X143690188Y-121526610D02*
X143690188Y-120526610D01*
X143452093Y-120526610D01*
X143309236Y-120574230D01*
X143213998Y-120669468D01*
X143166379Y-120764706D01*
X143118760Y-120955182D01*
X143118760Y-121098039D01*
X143166379Y-121288515D01*
X143213998Y-121383753D01*
X143309236Y-121478991D01*
X143452093Y-121526610D01*
X143690188Y-121526610D01*
X142213998Y-120526610D02*
X142690188Y-120526610D01*
X142737807Y-121002801D01*
X142690188Y-120955182D01*
X142594950Y-120907563D01*
X142356855Y-120907563D01*
X142261617Y-120955182D01*
X142213998Y-121002801D01*
X142166379Y-121098039D01*
X142166379Y-121336134D01*
X142213998Y-121431372D01*
X142261617Y-121478991D01*
X142356855Y-121526610D01*
X142594950Y-121526610D01*
X142690188Y-121478991D01*
X142737807Y-121431372D01*
X141785426Y-120621849D02*
X141737807Y-120574230D01*
X141642569Y-120526610D01*
X141404474Y-120526610D01*
X141309236Y-120574230D01*
X141261617Y-120621849D01*
X141213998Y-120717087D01*
X141213998Y-120812325D01*
X141261617Y-120955182D01*
X141833046Y-121526610D01*
X141213998Y-121526610D01*
X126217466Y-123633588D02*
X126677431Y-123510341D01*
X126418612Y-122544415D01*
X125759919Y-123213900D02*
X125437944Y-123300173D01*
X125435526Y-123843108D02*
X125895491Y-123719861D01*
X125636672Y-122753935D01*
X125176707Y-122877182D01*
X125021558Y-123954031D02*
X124762739Y-122988105D01*
X124532756Y-123049728D01*
X124407092Y-123132699D01*
X124339748Y-123249341D01*
X124318401Y-123353659D01*
X124321704Y-123549970D01*
X124358678Y-123687959D01*
X124453973Y-123859620D01*
X124524619Y-123939288D01*
X124641261Y-124006632D01*
X124791575Y-124015654D01*
X125021558Y-123954031D01*
X123336848Y-123370171D02*
X123796813Y-123246924D01*
X123966057Y-123694564D01*
X123907735Y-123660892D01*
X123803418Y-123639545D01*
X123573435Y-123701169D01*
X123493767Y-123771814D01*
X123460095Y-123830136D01*
X123438748Y-123934453D01*
X123500372Y-124164436D01*
X123571018Y-124244104D01*
X123629339Y-124277776D01*
X123733657Y-124299123D01*
X123963639Y-124237499D01*
X124043307Y-124166853D01*
X124076979Y-124108532D01*
X122968877Y-123468769D02*
X122370922Y-123628990D01*
X122791495Y-123910689D01*
X122653506Y-123947663D01*
X122573838Y-124018309D01*
X122540166Y-124076630D01*
X122518819Y-124180948D01*
X122580443Y-124410930D01*
X122651089Y-124490598D01*
X122709410Y-124524270D01*
X122813727Y-124545617D01*
X123089706Y-124471669D01*
X123169374Y-124401023D01*
X123203046Y-124342702D01*
X148104738Y-59666880D02*
X148580928Y-59666880D01*
X148580928Y-58666880D01*
X147771404Y-59143071D02*
X147438071Y-59143071D01*
X147295214Y-59666880D02*
X147771404Y-59666880D01*
X147771404Y-58666880D01*
X147295214Y-58666880D01*
X146866642Y-59666880D02*
X146866642Y-58666880D01*
X146628547Y-58666880D01*
X146485690Y-58714500D01*
X146390452Y-58809738D01*
X146342833Y-58904976D01*
X146295214Y-59095452D01*
X146295214Y-59238309D01*
X146342833Y-59428785D01*
X146390452Y-59524023D01*
X146485690Y-59619261D01*
X146628547Y-59666880D01*
X146866642Y-59666880D01*
X145961880Y-58666880D02*
X145342833Y-58666880D01*
X145676166Y-59047833D01*
X145533309Y-59047833D01*
X145438071Y-59095452D01*
X145390452Y-59143071D01*
X145342833Y-59238309D01*
X145342833Y-59476404D01*
X145390452Y-59571642D01*
X145438071Y-59619261D01*
X145533309Y-59666880D01*
X145819023Y-59666880D01*
X145914261Y-59619261D01*
X145961880Y-59571642D01*
X145009500Y-58666880D02*
X144342833Y-58666880D01*
X144771404Y-59666880D01*
X173534738Y-64111880D02*
X174010928Y-64111880D01*
X174010928Y-63111880D01*
X173201404Y-63588071D02*
X172868071Y-63588071D01*
X172725214Y-64111880D02*
X173201404Y-64111880D01*
X173201404Y-63111880D01*
X172725214Y-63111880D01*
X172296642Y-64111880D02*
X172296642Y-63111880D01*
X172058547Y-63111880D01*
X171915690Y-63159500D01*
X171820452Y-63254738D01*
X171772833Y-63349976D01*
X171725214Y-63540452D01*
X171725214Y-63683309D01*
X171772833Y-63873785D01*
X171820452Y-63969023D01*
X171915690Y-64064261D01*
X172058547Y-64111880D01*
X172296642Y-64111880D01*
X171391880Y-63111880D02*
X170772833Y-63111880D01*
X171106166Y-63492833D01*
X170963309Y-63492833D01*
X170868071Y-63540452D01*
X170820452Y-63588071D01*
X170772833Y-63683309D01*
X170772833Y-63921404D01*
X170820452Y-64016642D01*
X170868071Y-64064261D01*
X170963309Y-64111880D01*
X171249023Y-64111880D01*
X171344261Y-64064261D01*
X171391880Y-64016642D01*
X169915690Y-63111880D02*
X170106166Y-63111880D01*
X170201404Y-63159500D01*
X170249023Y-63207119D01*
X170344261Y-63349976D01*
X170391880Y-63540452D01*
X170391880Y-63921404D01*
X170344261Y-64016642D01*
X170296642Y-64064261D01*
X170201404Y-64111880D01*
X170010928Y-64111880D01*
X169915690Y-64064261D01*
X169868071Y-64016642D01*
X169820452Y-63921404D01*
X169820452Y-63683309D01*
X169868071Y-63588071D01*
X169915690Y-63540452D01*
X170010928Y-63492833D01*
X170201404Y-63492833D01*
X170296642Y-63540452D01*
X170344261Y-63588071D01*
X170391880Y-63683309D01*
X135534738Y-64111880D02*
X136010928Y-64111880D01*
X136010928Y-63111880D01*
X135201404Y-63588071D02*
X134868071Y-63588071D01*
X134725214Y-64111880D02*
X135201404Y-64111880D01*
X135201404Y-63111880D01*
X134725214Y-63111880D01*
X134296642Y-64111880D02*
X134296642Y-63111880D01*
X134058547Y-63111880D01*
X133915690Y-63159500D01*
X133820452Y-63254738D01*
X133772833Y-63349976D01*
X133725214Y-63540452D01*
X133725214Y-63683309D01*
X133772833Y-63873785D01*
X133820452Y-63969023D01*
X133915690Y-64064261D01*
X134058547Y-64111880D01*
X134296642Y-64111880D01*
X133391880Y-63111880D02*
X132772833Y-63111880D01*
X133106166Y-63492833D01*
X132963309Y-63492833D01*
X132868071Y-63540452D01*
X132820452Y-63588071D01*
X132772833Y-63683309D01*
X132772833Y-63921404D01*
X132820452Y-64016642D01*
X132868071Y-64064261D01*
X132963309Y-64111880D01*
X133249023Y-64111880D01*
X133344261Y-64064261D01*
X133391880Y-64016642D01*
X132201404Y-63540452D02*
X132296642Y-63492833D01*
X132344261Y-63445214D01*
X132391880Y-63349976D01*
X132391880Y-63302357D01*
X132344261Y-63207119D01*
X132296642Y-63159500D01*
X132201404Y-63111880D01*
X132010928Y-63111880D01*
X131915690Y-63159500D01*
X131868071Y-63207119D01*
X131820452Y-63302357D01*
X131820452Y-63349976D01*
X131868071Y-63445214D01*
X131915690Y-63492833D01*
X132010928Y-63540452D01*
X132201404Y-63540452D01*
X132296642Y-63588071D01*
X132344261Y-63635690D01*
X132391880Y-63730928D01*
X132391880Y-63921404D01*
X132344261Y-64016642D01*
X132296642Y-64064261D01*
X132201404Y-64111880D01*
X132010928Y-64111880D01*
X131915690Y-64064261D01*
X131868071Y-64016642D01*
X131820452Y-63921404D01*
X131820452Y-63730928D01*
X131868071Y-63635690D01*
X131915690Y-63588071D01*
X132010928Y-63540452D01*
X110104738Y-64416880D02*
X110580928Y-64416880D01*
X110580928Y-63416880D01*
X109771404Y-63893071D02*
X109438071Y-63893071D01*
X109295214Y-64416880D02*
X109771404Y-64416880D01*
X109771404Y-63416880D01*
X109295214Y-63416880D01*
X108866642Y-64416880D02*
X108866642Y-63416880D01*
X108628547Y-63416880D01*
X108485690Y-63464500D01*
X108390452Y-63559738D01*
X108342833Y-63654976D01*
X108295214Y-63845452D01*
X108295214Y-63988309D01*
X108342833Y-64178785D01*
X108390452Y-64274023D01*
X108485690Y-64369261D01*
X108628547Y-64416880D01*
X108866642Y-64416880D01*
X107961880Y-63416880D02*
X107342833Y-63416880D01*
X107676166Y-63797833D01*
X107533309Y-63797833D01*
X107438071Y-63845452D01*
X107390452Y-63893071D01*
X107342833Y-63988309D01*
X107342833Y-64226404D01*
X107390452Y-64321642D01*
X107438071Y-64369261D01*
X107533309Y-64416880D01*
X107819023Y-64416880D01*
X107914261Y-64369261D01*
X107961880Y-64321642D01*
X106866642Y-64416880D02*
X106676166Y-64416880D01*
X106580928Y-64369261D01*
X106533309Y-64321642D01*
X106438071Y-64178785D01*
X106390452Y-63988309D01*
X106390452Y-63607357D01*
X106438071Y-63512119D01*
X106485690Y-63464500D01*
X106580928Y-63416880D01*
X106771404Y-63416880D01*
X106866642Y-63464500D01*
X106914261Y-63512119D01*
X106961880Y-63607357D01*
X106961880Y-63845452D01*
X106914261Y-63940690D01*
X106866642Y-63988309D01*
X106771404Y-64035928D01*
X106580928Y-64035928D01*
X106485690Y-63988309D01*
X106438071Y-63940690D01*
X106390452Y-63845452D01*
X211534738Y-87861880D02*
X212010928Y-87861880D01*
X212010928Y-86861880D01*
X211201404Y-87338071D02*
X210868071Y-87338071D01*
X210725214Y-87861880D02*
X211201404Y-87861880D01*
X211201404Y-86861880D01*
X210725214Y-86861880D01*
X210296642Y-87861880D02*
X210296642Y-86861880D01*
X210058547Y-86861880D01*
X209915690Y-86909500D01*
X209820452Y-87004738D01*
X209772833Y-87099976D01*
X209725214Y-87290452D01*
X209725214Y-87433309D01*
X209772833Y-87623785D01*
X209820452Y-87719023D01*
X209915690Y-87814261D01*
X210058547Y-87861880D01*
X210296642Y-87861880D01*
X208868071Y-87195214D02*
X208868071Y-87861880D01*
X209106166Y-86814261D02*
X209344261Y-87528547D01*
X208725214Y-87528547D01*
X208153785Y-86861880D02*
X208058547Y-86861880D01*
X207963309Y-86909500D01*
X207915690Y-86957119D01*
X207868071Y-87052357D01*
X207820452Y-87242833D01*
X207820452Y-87480928D01*
X207868071Y-87671404D01*
X207915690Y-87766642D01*
X207963309Y-87814261D01*
X208058547Y-87861880D01*
X208153785Y-87861880D01*
X208249023Y-87814261D01*
X208296642Y-87766642D01*
X208344261Y-87671404D01*
X208391880Y-87480928D01*
X208391880Y-87242833D01*
X208344261Y-87052357D01*
X208296642Y-86957119D01*
X208249023Y-86909500D01*
X208153785Y-86861880D01*
X186104738Y-85791880D02*
X186580928Y-85791880D01*
X186580928Y-84791880D01*
X185771404Y-85268071D02*
X185438071Y-85268071D01*
X185295214Y-85791880D02*
X185771404Y-85791880D01*
X185771404Y-84791880D01*
X185295214Y-84791880D01*
X184866642Y-85791880D02*
X184866642Y-84791880D01*
X184628547Y-84791880D01*
X184485690Y-84839500D01*
X184390452Y-84934738D01*
X184342833Y-85029976D01*
X184295214Y-85220452D01*
X184295214Y-85363309D01*
X184342833Y-85553785D01*
X184390452Y-85649023D01*
X184485690Y-85744261D01*
X184628547Y-85791880D01*
X184866642Y-85791880D01*
X183438071Y-85125214D02*
X183438071Y-85791880D01*
X183676166Y-84744261D02*
X183914261Y-85458547D01*
X183295214Y-85458547D01*
X182390452Y-85791880D02*
X182961880Y-85791880D01*
X182676166Y-85791880D02*
X182676166Y-84791880D01*
X182771404Y-84934738D01*
X182866642Y-85029976D01*
X182961880Y-85077595D01*
X211534738Y-68861880D02*
X212010928Y-68861880D01*
X212010928Y-67861880D01*
X211201404Y-68338071D02*
X210868071Y-68338071D01*
X210725214Y-68861880D02*
X211201404Y-68861880D01*
X211201404Y-67861880D01*
X210725214Y-67861880D01*
X210296642Y-68861880D02*
X210296642Y-67861880D01*
X210058547Y-67861880D01*
X209915690Y-67909500D01*
X209820452Y-68004738D01*
X209772833Y-68099976D01*
X209725214Y-68290452D01*
X209725214Y-68433309D01*
X209772833Y-68623785D01*
X209820452Y-68719023D01*
X209915690Y-68814261D01*
X210058547Y-68861880D01*
X210296642Y-68861880D01*
X209391880Y-67861880D02*
X208772833Y-67861880D01*
X209106166Y-68242833D01*
X208963309Y-68242833D01*
X208868071Y-68290452D01*
X208820452Y-68338071D01*
X208772833Y-68433309D01*
X208772833Y-68671404D01*
X208820452Y-68766642D01*
X208868071Y-68814261D01*
X208963309Y-68861880D01*
X209249023Y-68861880D01*
X209344261Y-68814261D01*
X209391880Y-68766642D01*
X207915690Y-68195214D02*
X207915690Y-68861880D01*
X208153785Y-67814261D02*
X208391880Y-68528547D01*
X207772833Y-68528547D01*
X173534738Y-83111880D02*
X174010928Y-83111880D01*
X174010928Y-82111880D01*
X173201404Y-82588071D02*
X172868071Y-82588071D01*
X172725214Y-83111880D02*
X173201404Y-83111880D01*
X173201404Y-82111880D01*
X172725214Y-82111880D01*
X172296642Y-83111880D02*
X172296642Y-82111880D01*
X172058547Y-82111880D01*
X171915690Y-82159500D01*
X171820452Y-82254738D01*
X171772833Y-82349976D01*
X171725214Y-82540452D01*
X171725214Y-82683309D01*
X171772833Y-82873785D01*
X171820452Y-82969023D01*
X171915690Y-83064261D01*
X172058547Y-83111880D01*
X172296642Y-83111880D01*
X170868071Y-82445214D02*
X170868071Y-83111880D01*
X171106166Y-82064261D02*
X171344261Y-82778547D01*
X170725214Y-82778547D01*
X170391880Y-82207119D02*
X170344261Y-82159500D01*
X170249023Y-82111880D01*
X170010928Y-82111880D01*
X169915690Y-82159500D01*
X169868071Y-82207119D01*
X169820452Y-82302357D01*
X169820452Y-82397595D01*
X169868071Y-82540452D01*
X170439500Y-83111880D01*
X169820452Y-83111880D01*
X93961473Y-125414534D02*
X94199568Y-125826927D01*
X95065594Y-125326927D01*
X94248439Y-124863954D02*
X94081772Y-124575279D01*
X93556711Y-124713466D02*
X93794806Y-125125859D01*
X94660832Y-124625859D01*
X94422737Y-124213466D01*
X93342426Y-124342312D02*
X94208451Y-123842312D01*
X94089403Y-123636115D01*
X93976735Y-123536207D01*
X93846638Y-123501347D01*
X93740350Y-123507727D01*
X93551583Y-123561726D01*
X93427865Y-123633154D01*
X93286717Y-123769632D01*
X93228048Y-123858490D01*
X93193189Y-123988588D01*
X93223378Y-124136115D01*
X93342426Y-124342312D01*
X93470356Y-122563893D02*
X93708451Y-122976286D01*
X93319867Y-123255621D01*
X93337297Y-123190572D01*
X93330917Y-123084284D01*
X93211870Y-122878087D01*
X93123011Y-122819418D01*
X93057963Y-122801989D01*
X92951675Y-122808368D01*
X92745478Y-122927416D01*
X92686809Y-123016274D01*
X92669379Y-123081323D01*
X92675759Y-123187611D01*
X92794806Y-123393808D01*
X92883665Y-123452477D01*
X92948714Y-123469907D01*
X92729300Y-121947013D02*
X92151949Y-122280347D01*
X93178262Y-121962734D02*
X92678720Y-122526073D01*
X92369196Y-121989962D01*
X186104738Y-66791880D02*
X186580928Y-66791880D01*
X186580928Y-65791880D01*
X185771404Y-66268071D02*
X185438071Y-66268071D01*
X185295214Y-66791880D02*
X185771404Y-66791880D01*
X185771404Y-65791880D01*
X185295214Y-65791880D01*
X184866642Y-66791880D02*
X184866642Y-65791880D01*
X184628547Y-65791880D01*
X184485690Y-65839500D01*
X184390452Y-65934738D01*
X184342833Y-66029976D01*
X184295214Y-66220452D01*
X184295214Y-66363309D01*
X184342833Y-66553785D01*
X184390452Y-66649023D01*
X184485690Y-66744261D01*
X184628547Y-66791880D01*
X184866642Y-66791880D01*
X183961880Y-65791880D02*
X183342833Y-65791880D01*
X183676166Y-66172833D01*
X183533309Y-66172833D01*
X183438071Y-66220452D01*
X183390452Y-66268071D01*
X183342833Y-66363309D01*
X183342833Y-66601404D01*
X183390452Y-66696642D01*
X183438071Y-66744261D01*
X183533309Y-66791880D01*
X183819023Y-66791880D01*
X183914261Y-66744261D01*
X183961880Y-66696642D01*
X182438071Y-65791880D02*
X182914261Y-65791880D01*
X182961880Y-66268071D01*
X182914261Y-66220452D01*
X182819023Y-66172833D01*
X182580928Y-66172833D01*
X182485690Y-66220452D01*
X182438071Y-66268071D01*
X182390452Y-66363309D01*
X182390452Y-66601404D01*
X182438071Y-66696642D01*
X182485690Y-66744261D01*
X182580928Y-66791880D01*
X182819023Y-66791880D01*
X182914261Y-66744261D01*
X182961880Y-66696642D01*
%LPC*%
G36*
G01*
X199166500Y-78792000D02*
X198166500Y-78792000D01*
G75*
G02*
X197966500Y-78592000I0J200000D01*
G01*
X197966500Y-77192000D01*
G75*
G02*
X198166500Y-76992000I200000J0D01*
G01*
X199166500Y-76992000D01*
G75*
G02*
X199366500Y-77192000I0J-200000D01*
G01*
X199366500Y-78592000D01*
G75*
G02*
X199166500Y-78792000I-200000J0D01*
G01*
G37*
G36*
G01*
X199166500Y-82342000D02*
X198166500Y-82342000D01*
G75*
G02*
X197966500Y-82142000I0J200000D01*
G01*
X197966500Y-80742000D01*
G75*
G02*
X198166500Y-80542000I200000J0D01*
G01*
X199166500Y-80542000D01*
G75*
G02*
X199366500Y-80742000I0J-200000D01*
G01*
X199366500Y-82142000D01*
G75*
G02*
X199166500Y-82342000I-200000J0D01*
G01*
G37*
G36*
G01*
X130766500Y-112667000D02*
X129766500Y-112667000D01*
G75*
G02*
X129566500Y-112467000I0J200000D01*
G01*
X129566500Y-111067000D01*
G75*
G02*
X129766500Y-110867000I200000J0D01*
G01*
X130766500Y-110867000D01*
G75*
G02*
X130966500Y-111067000I0J-200000D01*
G01*
X130966500Y-112467000D01*
G75*
G02*
X130766500Y-112667000I-200000J0D01*
G01*
G37*
G36*
G01*
X130766500Y-116217000D02*
X129766500Y-116217000D01*
G75*
G02*
X129566500Y-116017000I0J200000D01*
G01*
X129566500Y-114617000D01*
G75*
G02*
X129766500Y-114417000I200000J0D01*
G01*
X130766500Y-114417000D01*
G75*
G02*
X130966500Y-114617000I0J-200000D01*
G01*
X130966500Y-116017000D01*
G75*
G02*
X130766500Y-116217000I-200000J0D01*
G01*
G37*
G36*
G01*
X199166500Y-59792000D02*
X198166500Y-59792000D01*
G75*
G02*
X197966500Y-59592000I0J200000D01*
G01*
X197966500Y-58192000D01*
G75*
G02*
X198166500Y-57992000I200000J0D01*
G01*
X199166500Y-57992000D01*
G75*
G02*
X199366500Y-58192000I0J-200000D01*
G01*
X199366500Y-59592000D01*
G75*
G02*
X199166500Y-59792000I-200000J0D01*
G01*
G37*
G36*
G01*
X199166500Y-63342000D02*
X198166500Y-63342000D01*
G75*
G02*
X197966500Y-63142000I0J200000D01*
G01*
X197966500Y-61742000D01*
G75*
G02*
X198166500Y-61542000I200000J0D01*
G01*
X199166500Y-61542000D01*
G75*
G02*
X199366500Y-61742000I0J-200000D01*
G01*
X199366500Y-63142000D01*
G75*
G02*
X199166500Y-63342000I-200000J0D01*
G01*
G37*
G36*
G01*
X142166500Y-74042000D02*
X141166500Y-74042000D01*
G75*
G02*
X140966500Y-73842000I0J200000D01*
G01*
X140966500Y-72442000D01*
G75*
G02*
X141166500Y-72242000I200000J0D01*
G01*
X142166500Y-72242000D01*
G75*
G02*
X142366500Y-72442000I0J-200000D01*
G01*
X142366500Y-73842000D01*
G75*
G02*
X142166500Y-74042000I-200000J0D01*
G01*
G37*
G36*
G01*
X142166500Y-77592000D02*
X141166500Y-77592000D01*
G75*
G02*
X140966500Y-77392000I0J200000D01*
G01*
X140966500Y-75992000D01*
G75*
G02*
X141166500Y-75792000I200000J0D01*
G01*
X142166500Y-75792000D01*
G75*
G02*
X142366500Y-75992000I0J-200000D01*
G01*
X142366500Y-77392000D01*
G75*
G02*
X142166500Y-77592000I-200000J0D01*
G01*
G37*
G36*
G01*
X123159500Y-76422000D02*
X122159500Y-76422000D01*
G75*
G02*
X121959500Y-76222000I0J200000D01*
G01*
X121959500Y-74822000D01*
G75*
G02*
X122159500Y-74622000I200000J0D01*
G01*
X123159500Y-74622000D01*
G75*
G02*
X123359500Y-74822000I0J-200000D01*
G01*
X123359500Y-76222000D01*
G75*
G02*
X123159500Y-76422000I-200000J0D01*
G01*
G37*
G36*
G01*
X123159500Y-79972000D02*
X122159500Y-79972000D01*
G75*
G02*
X121959500Y-79772000I0J200000D01*
G01*
X121959500Y-78372000D01*
G75*
G02*
X122159500Y-78172000I200000J0D01*
G01*
X123159500Y-78172000D01*
G75*
G02*
X123359500Y-78372000I0J-200000D01*
G01*
X123359500Y-79772000D01*
G75*
G02*
X123159500Y-79972000I-200000J0D01*
G01*
G37*
G36*
G01*
X218166500Y-97792000D02*
X217166500Y-97792000D01*
G75*
G02*
X216966500Y-97592000I0J200000D01*
G01*
X216966500Y-96192000D01*
G75*
G02*
X217166500Y-95992000I200000J0D01*
G01*
X218166500Y-95992000D01*
G75*
G02*
X218366500Y-96192000I0J-200000D01*
G01*
X218366500Y-97592000D01*
G75*
G02*
X218166500Y-97792000I-200000J0D01*
G01*
G37*
G36*
G01*
X218166500Y-101342000D02*
X217166500Y-101342000D01*
G75*
G02*
X216966500Y-101142000I0J200000D01*
G01*
X216966500Y-99742000D01*
G75*
G02*
X217166500Y-99542000I200000J0D01*
G01*
X218166500Y-99542000D01*
G75*
G02*
X218366500Y-99742000I0J-200000D01*
G01*
X218366500Y-101142000D01*
G75*
G02*
X218166500Y-101342000I-200000J0D01*
G01*
G37*
G36*
G01*
X161166500Y-90667000D02*
X160166500Y-90667000D01*
G75*
G02*
X159966500Y-90467000I0J200000D01*
G01*
X159966500Y-89067000D01*
G75*
G02*
X160166500Y-88867000I200000J0D01*
G01*
X161166500Y-88867000D01*
G75*
G02*
X161366500Y-89067000I0J-200000D01*
G01*
X161366500Y-90467000D01*
G75*
G02*
X161166500Y-90667000I-200000J0D01*
G01*
G37*
G36*
G01*
X161166500Y-94217000D02*
X160166500Y-94217000D01*
G75*
G02*
X159966500Y-94017000I0J200000D01*
G01*
X159966500Y-92617000D01*
G75*
G02*
X160166500Y-92417000I200000J0D01*
G01*
X161166500Y-92417000D01*
G75*
G02*
X161366500Y-92617000I0J-200000D01*
G01*
X161366500Y-94017000D01*
G75*
G02*
X161166500Y-94217000I-200000J0D01*
G01*
G37*
G36*
G01*
X180166500Y-74042000D02*
X179166500Y-74042000D01*
G75*
G02*
X178966500Y-73842000I0J200000D01*
G01*
X178966500Y-72442000D01*
G75*
G02*
X179166500Y-72242000I200000J0D01*
G01*
X180166500Y-72242000D01*
G75*
G02*
X180366500Y-72442000I0J-200000D01*
G01*
X180366500Y-73842000D01*
G75*
G02*
X180166500Y-74042000I-200000J0D01*
G01*
G37*
G36*
G01*
X180166500Y-77592000D02*
X179166500Y-77592000D01*
G75*
G02*
X178966500Y-77392000I0J200000D01*
G01*
X178966500Y-75992000D01*
G75*
G02*
X179166500Y-75792000I200000J0D01*
G01*
X180166500Y-75792000D01*
G75*
G02*
X180366500Y-75992000I0J-200000D01*
G01*
X180366500Y-77392000D01*
G75*
G02*
X180166500Y-77592000I-200000J0D01*
G01*
G37*
G36*
G01*
X218166500Y-59792000D02*
X217166500Y-59792000D01*
G75*
G02*
X216966500Y-59592000I0J200000D01*
G01*
X216966500Y-58192000D01*
G75*
G02*
X217166500Y-57992000I200000J0D01*
G01*
X218166500Y-57992000D01*
G75*
G02*
X218366500Y-58192000I0J-200000D01*
G01*
X218366500Y-59592000D01*
G75*
G02*
X218166500Y-59792000I-200000J0D01*
G01*
G37*
G36*
G01*
X218166500Y-63342000D02*
X217166500Y-63342000D01*
G75*
G02*
X216966500Y-63142000I0J200000D01*
G01*
X216966500Y-61742000D01*
G75*
G02*
X217166500Y-61542000I200000J0D01*
G01*
X218166500Y-61542000D01*
G75*
G02*
X218366500Y-61742000I0J-200000D01*
G01*
X218366500Y-63142000D01*
G75*
G02*
X218166500Y-63342000I-200000J0D01*
G01*
G37*
G36*
G01*
X180166500Y-55042000D02*
X179166500Y-55042000D01*
G75*
G02*
X178966500Y-54842000I0J200000D01*
G01*
X178966500Y-53442000D01*
G75*
G02*
X179166500Y-53242000I200000J0D01*
G01*
X180166500Y-53242000D01*
G75*
G02*
X180366500Y-53442000I0J-200000D01*
G01*
X180366500Y-54842000D01*
G75*
G02*
X180166500Y-55042000I-200000J0D01*
G01*
G37*
G36*
G01*
X180166500Y-58592000D02*
X179166500Y-58592000D01*
G75*
G02*
X178966500Y-58392000I0J200000D01*
G01*
X178966500Y-56992000D01*
G75*
G02*
X179166500Y-56792000I200000J0D01*
G01*
X180166500Y-56792000D01*
G75*
G02*
X180366500Y-56992000I0J-200000D01*
G01*
X180366500Y-58392000D01*
G75*
G02*
X180166500Y-58592000I-200000J0D01*
G01*
G37*
G36*
G01*
X180166500Y-93042000D02*
X179166500Y-93042000D01*
G75*
G02*
X178966500Y-92842000I0J200000D01*
G01*
X178966500Y-91442000D01*
G75*
G02*
X179166500Y-91242000I200000J0D01*
G01*
X180166500Y-91242000D01*
G75*
G02*
X180366500Y-91442000I0J-200000D01*
G01*
X180366500Y-92842000D01*
G75*
G02*
X180166500Y-93042000I-200000J0D01*
G01*
G37*
G36*
G01*
X180166500Y-96592000D02*
X179166500Y-96592000D01*
G75*
G02*
X178966500Y-96392000I0J200000D01*
G01*
X178966500Y-94992000D01*
G75*
G02*
X179166500Y-94792000I200000J0D01*
G01*
X180166500Y-94792000D01*
G75*
G02*
X180366500Y-94992000I0J-200000D01*
G01*
X180366500Y-96392000D01*
G75*
G02*
X180166500Y-96592000I-200000J0D01*
G01*
G37*
G36*
G01*
X142166500Y-93042000D02*
X141166500Y-93042000D01*
G75*
G02*
X140966500Y-92842000I0J200000D01*
G01*
X140966500Y-91442000D01*
G75*
G02*
X141166500Y-91242000I200000J0D01*
G01*
X142166500Y-91242000D01*
G75*
G02*
X142366500Y-91442000I0J-200000D01*
G01*
X142366500Y-92842000D01*
G75*
G02*
X142166500Y-93042000I-200000J0D01*
G01*
G37*
G36*
G01*
X142166500Y-96592000D02*
X141166500Y-96592000D01*
G75*
G02*
X140966500Y-96392000I0J200000D01*
G01*
X140966500Y-94992000D01*
G75*
G02*
X141166500Y-94792000I200000J0D01*
G01*
X142166500Y-94792000D01*
G75*
G02*
X142366500Y-94992000I0J-200000D01*
G01*
X142366500Y-96392000D01*
G75*
G02*
X142166500Y-96592000I-200000J0D01*
G01*
G37*
G36*
G01*
X123159500Y-57422000D02*
X122159500Y-57422000D01*
G75*
G02*
X121959500Y-57222000I0J200000D01*
G01*
X121959500Y-55822000D01*
G75*
G02*
X122159500Y-55622000I200000J0D01*
G01*
X123159500Y-55622000D01*
G75*
G02*
X123359500Y-55822000I0J-200000D01*
G01*
X123359500Y-57222000D01*
G75*
G02*
X123159500Y-57422000I-200000J0D01*
G01*
G37*
G36*
G01*
X123159500Y-60972000D02*
X122159500Y-60972000D01*
G75*
G02*
X121959500Y-60772000I0J200000D01*
G01*
X121959500Y-59372000D01*
G75*
G02*
X122159500Y-59172000I200000J0D01*
G01*
X123159500Y-59172000D01*
G75*
G02*
X123359500Y-59372000I0J-200000D01*
G01*
X123359500Y-60772000D01*
G75*
G02*
X123159500Y-60972000I-200000J0D01*
G01*
G37*
G36*
G01*
X142166500Y-55042000D02*
X141166500Y-55042000D01*
G75*
G02*
X140966500Y-54842000I0J200000D01*
G01*
X140966500Y-53442000D01*
G75*
G02*
X141166500Y-53242000I200000J0D01*
G01*
X142166500Y-53242000D01*
G75*
G02*
X142366500Y-53442000I0J-200000D01*
G01*
X142366500Y-54842000D01*
G75*
G02*
X142166500Y-55042000I-200000J0D01*
G01*
G37*
G36*
G01*
X142166500Y-58592000D02*
X141166500Y-58592000D01*
G75*
G02*
X140966500Y-58392000I0J200000D01*
G01*
X140966500Y-56992000D01*
G75*
G02*
X141166500Y-56792000I200000J0D01*
G01*
X142166500Y-56792000D01*
G75*
G02*
X142366500Y-56992000I0J-200000D01*
G01*
X142366500Y-58392000D01*
G75*
G02*
X142166500Y-58592000I-200000J0D01*
G01*
G37*
G36*
G01*
X161166500Y-71667000D02*
X160166500Y-71667000D01*
G75*
G02*
X159966500Y-71467000I0J200000D01*
G01*
X159966500Y-70067000D01*
G75*
G02*
X160166500Y-69867000I200000J0D01*
G01*
X161166500Y-69867000D01*
G75*
G02*
X161366500Y-70067000I0J-200000D01*
G01*
X161366500Y-71467000D01*
G75*
G02*
X161166500Y-71667000I-200000J0D01*
G01*
G37*
G36*
G01*
X161166500Y-75217000D02*
X160166500Y-75217000D01*
G75*
G02*
X159966500Y-75017000I0J200000D01*
G01*
X159966500Y-73617000D01*
G75*
G02*
X160166500Y-73417000I200000J0D01*
G01*
X161166500Y-73417000D01*
G75*
G02*
X161366500Y-73617000I0J-200000D01*
G01*
X161366500Y-75017000D01*
G75*
G02*
X161166500Y-75217000I-200000J0D01*
G01*
G37*
G36*
G01*
X199166500Y-97792000D02*
X198166500Y-97792000D01*
G75*
G02*
X197966500Y-97592000I0J200000D01*
G01*
X197966500Y-96192000D01*
G75*
G02*
X198166500Y-95992000I200000J0D01*
G01*
X199166500Y-95992000D01*
G75*
G02*
X199366500Y-96192000I0J-200000D01*
G01*
X199366500Y-97592000D01*
G75*
G02*
X199166500Y-97792000I-200000J0D01*
G01*
G37*
G36*
G01*
X199166500Y-101342000D02*
X198166500Y-101342000D01*
G75*
G02*
X197966500Y-101142000I0J200000D01*
G01*
X197966500Y-99742000D01*
G75*
G02*
X198166500Y-99542000I200000J0D01*
G01*
X199166500Y-99542000D01*
G75*
G02*
X199366500Y-99742000I0J-200000D01*
G01*
X199366500Y-101142000D01*
G75*
G02*
X199166500Y-101342000I-200000J0D01*
G01*
G37*
G36*
G01*
X123159500Y-95422000D02*
X122159500Y-95422000D01*
G75*
G02*
X121959500Y-95222000I0J200000D01*
G01*
X121959500Y-93822000D01*
G75*
G02*
X122159500Y-93622000I200000J0D01*
G01*
X123159500Y-93622000D01*
G75*
G02*
X123359500Y-93822000I0J-200000D01*
G01*
X123359500Y-95222000D01*
G75*
G02*
X123159500Y-95422000I-200000J0D01*
G01*
G37*
G36*
G01*
X123159500Y-98972000D02*
X122159500Y-98972000D01*
G75*
G02*
X121959500Y-98772000I0J200000D01*
G01*
X121959500Y-97372000D01*
G75*
G02*
X122159500Y-97172000I200000J0D01*
G01*
X123159500Y-97172000D01*
G75*
G02*
X123359500Y-97372000I0J-200000D01*
G01*
X123359500Y-98772000D01*
G75*
G02*
X123159500Y-98972000I-200000J0D01*
G01*
G37*
G36*
G01*
X151666500Y-112652000D02*
X150666500Y-112652000D01*
G75*
G02*
X150466500Y-112452000I0J200000D01*
G01*
X150466500Y-111052000D01*
G75*
G02*
X150666500Y-110852000I200000J0D01*
G01*
X151666500Y-110852000D01*
G75*
G02*
X151866500Y-111052000I0J-200000D01*
G01*
X151866500Y-112452000D01*
G75*
G02*
X151666500Y-112652000I-200000J0D01*
G01*
G37*
G36*
G01*
X151666500Y-116202000D02*
X150666500Y-116202000D01*
G75*
G02*
X150466500Y-116002000I0J200000D01*
G01*
X150466500Y-114602000D01*
G75*
G02*
X150666500Y-114402000I200000J0D01*
G01*
X151666500Y-114402000D01*
G75*
G02*
X151866500Y-114602000I0J-200000D01*
G01*
X151866500Y-116002000D01*
G75*
G02*
X151666500Y-116202000I-200000J0D01*
G01*
G37*
G36*
G01*
X218166500Y-78642000D02*
X217166500Y-78642000D01*
G75*
G02*
X216966500Y-78442000I0J200000D01*
G01*
X216966500Y-77042000D01*
G75*
G02*
X217166500Y-76842000I200000J0D01*
G01*
X218166500Y-76842000D01*
G75*
G02*
X218366500Y-77042000I0J-200000D01*
G01*
X218366500Y-78442000D01*
G75*
G02*
X218166500Y-78642000I-200000J0D01*
G01*
G37*
G36*
G01*
X218166500Y-82192000D02*
X217166500Y-82192000D01*
G75*
G02*
X216966500Y-81992000I0J200000D01*
G01*
X216966500Y-80592000D01*
G75*
G02*
X217166500Y-80392000I200000J0D01*
G01*
X218166500Y-80392000D01*
G75*
G02*
X218366500Y-80592000I0J-200000D01*
G01*
X218366500Y-81992000D01*
G75*
G02*
X218166500Y-82192000I-200000J0D01*
G01*
G37*
G36*
G01*
X133616500Y-112667000D02*
X132616500Y-112667000D01*
G75*
G02*
X132416500Y-112467000I0J200000D01*
G01*
X132416500Y-111067000D01*
G75*
G02*
X132616500Y-110867000I200000J0D01*
G01*
X133616500Y-110867000D01*
G75*
G02*
X133816500Y-111067000I0J-200000D01*
G01*
X133816500Y-112467000D01*
G75*
G02*
X133616500Y-112667000I-200000J0D01*
G01*
G37*
G36*
G01*
X133616500Y-116217000D02*
X132616500Y-116217000D01*
G75*
G02*
X132416500Y-116017000I0J200000D01*
G01*
X132416500Y-114617000D01*
G75*
G02*
X132616500Y-114417000I200000J0D01*
G01*
X133616500Y-114417000D01*
G75*
G02*
X133816500Y-114617000I0J-200000D01*
G01*
X133816500Y-116017000D01*
G75*
G02*
X133616500Y-116217000I-200000J0D01*
G01*
G37*
D20*
X136606500Y-69837000D03*
X130256500Y-72377000D03*
G36*
G01*
X141383500Y-68587000D02*
X141383500Y-71087000D01*
G75*
G02*
X141183500Y-71287000I-200000J0D01*
G01*
X138633500Y-71287000D01*
G75*
G02*
X138433500Y-71087000I0J200000D01*
G01*
X138433500Y-68587000D01*
G75*
G02*
X138633500Y-68387000I200000J0D01*
G01*
X141183500Y-68387000D01*
G75*
G02*
X141383500Y-68587000I0J-200000D01*
G01*
G37*
D21*
X128986500Y-74917000D03*
X139146500Y-74917000D03*
D22*
X134066500Y-74917000D03*
G36*
G01*
X128456500Y-71127000D02*
X128456500Y-73627000D01*
G75*
G02*
X128256500Y-73827000I-200000J0D01*
G01*
X125706500Y-73827000D01*
G75*
G02*
X125506500Y-73627000I0J200000D01*
G01*
X125506500Y-71127000D01*
G75*
G02*
X125706500Y-70927000I200000J0D01*
G01*
X128256500Y-70927000D01*
G75*
G02*
X128456500Y-71127000I0J-200000D01*
G01*
G37*
D20*
X117599500Y-53217000D03*
X111249500Y-55757000D03*
G36*
G01*
X122376500Y-51967000D02*
X122376500Y-54467000D01*
G75*
G02*
X122176500Y-54667000I-200000J0D01*
G01*
X119626500Y-54667000D01*
G75*
G02*
X119426500Y-54467000I0J200000D01*
G01*
X119426500Y-51967000D01*
G75*
G02*
X119626500Y-51767000I200000J0D01*
G01*
X122176500Y-51767000D01*
G75*
G02*
X122376500Y-51967000I0J-200000D01*
G01*
G37*
D21*
X109979500Y-58297000D03*
X120139500Y-58297000D03*
D22*
X115059500Y-58297000D03*
G36*
G01*
X109449500Y-54507000D02*
X109449500Y-57007000D01*
G75*
G02*
X109249500Y-57207000I-200000J0D01*
G01*
X106699500Y-57207000D01*
G75*
G02*
X106499500Y-57007000I0J200000D01*
G01*
X106499500Y-54507000D01*
G75*
G02*
X106699500Y-54307000I200000J0D01*
G01*
X109249500Y-54307000D01*
G75*
G02*
X109449500Y-54507000I0J-200000D01*
G01*
G37*
D20*
X193606500Y-74587000D03*
X187256500Y-77127000D03*
G36*
G01*
X198383500Y-73337000D02*
X198383500Y-75837000D01*
G75*
G02*
X198183500Y-76037000I-200000J0D01*
G01*
X195633500Y-76037000D01*
G75*
G02*
X195433500Y-75837000I0J200000D01*
G01*
X195433500Y-73337000D01*
G75*
G02*
X195633500Y-73137000I200000J0D01*
G01*
X198183500Y-73137000D01*
G75*
G02*
X198383500Y-73337000I0J-200000D01*
G01*
G37*
D21*
X185986500Y-79667000D03*
X196146500Y-79667000D03*
D22*
X191066500Y-79667000D03*
G36*
G01*
X185456500Y-75877000D02*
X185456500Y-78377000D01*
G75*
G02*
X185256500Y-78577000I-200000J0D01*
G01*
X182706500Y-78577000D01*
G75*
G02*
X182506500Y-78377000I0J200000D01*
G01*
X182506500Y-75877000D01*
G75*
G02*
X182706500Y-75677000I200000J0D01*
G01*
X185256500Y-75677000D01*
G75*
G02*
X185456500Y-75877000I0J-200000D01*
G01*
G37*
D20*
X212606500Y-93587000D03*
X206256500Y-96127000D03*
G36*
G01*
X217383500Y-92337000D02*
X217383500Y-94837000D01*
G75*
G02*
X217183500Y-95037000I-200000J0D01*
G01*
X214633500Y-95037000D01*
G75*
G02*
X214433500Y-94837000I0J200000D01*
G01*
X214433500Y-92337000D01*
G75*
G02*
X214633500Y-92137000I200000J0D01*
G01*
X217183500Y-92137000D01*
G75*
G02*
X217383500Y-92337000I0J-200000D01*
G01*
G37*
D21*
X204986500Y-98667000D03*
X215146500Y-98667000D03*
D22*
X210066500Y-98667000D03*
G36*
G01*
X204456500Y-94877000D02*
X204456500Y-97377000D01*
G75*
G02*
X204256500Y-97577000I-200000J0D01*
G01*
X201706500Y-97577000D01*
G75*
G02*
X201506500Y-97377000I0J200000D01*
G01*
X201506500Y-94877000D01*
G75*
G02*
X201706500Y-94677000I200000J0D01*
G01*
X204256500Y-94677000D01*
G75*
G02*
X204456500Y-94877000I0J-200000D01*
G01*
G37*
D20*
X193606500Y-55587000D03*
X187256500Y-58127000D03*
G36*
G01*
X198383500Y-54337000D02*
X198383500Y-56837000D01*
G75*
G02*
X198183500Y-57037000I-200000J0D01*
G01*
X195633500Y-57037000D01*
G75*
G02*
X195433500Y-56837000I0J200000D01*
G01*
X195433500Y-54337000D01*
G75*
G02*
X195633500Y-54137000I200000J0D01*
G01*
X198183500Y-54137000D01*
G75*
G02*
X198383500Y-54337000I0J-200000D01*
G01*
G37*
D21*
X185986500Y-60667000D03*
X196146500Y-60667000D03*
D22*
X191066500Y-60667000D03*
G36*
G01*
X185456500Y-56877000D02*
X185456500Y-59377000D01*
G75*
G02*
X185256500Y-59577000I-200000J0D01*
G01*
X182706500Y-59577000D01*
G75*
G02*
X182506500Y-59377000I0J200000D01*
G01*
X182506500Y-56877000D01*
G75*
G02*
X182706500Y-56677000I200000J0D01*
G01*
X185256500Y-56677000D01*
G75*
G02*
X185456500Y-56877000I0J-200000D01*
G01*
G37*
D20*
X174606500Y-50837000D03*
X168256500Y-53377000D03*
G36*
G01*
X179383500Y-49587000D02*
X179383500Y-52087000D01*
G75*
G02*
X179183500Y-52287000I-200000J0D01*
G01*
X176633500Y-52287000D01*
G75*
G02*
X176433500Y-52087000I0J200000D01*
G01*
X176433500Y-49587000D01*
G75*
G02*
X176633500Y-49387000I200000J0D01*
G01*
X179183500Y-49387000D01*
G75*
G02*
X179383500Y-49587000I0J-200000D01*
G01*
G37*
D21*
X166986500Y-55917000D03*
X177146500Y-55917000D03*
D22*
X172066500Y-55917000D03*
G36*
G01*
X166456500Y-52127000D02*
X166456500Y-54627000D01*
G75*
G02*
X166256500Y-54827000I-200000J0D01*
G01*
X163706500Y-54827000D01*
G75*
G02*
X163506500Y-54627000I0J200000D01*
G01*
X163506500Y-52127000D01*
G75*
G02*
X163706500Y-51927000I200000J0D01*
G01*
X166256500Y-51927000D01*
G75*
G02*
X166456500Y-52127000I0J-200000D01*
G01*
G37*
D20*
X174606500Y-69837000D03*
X168256500Y-72377000D03*
G36*
G01*
X179383500Y-68587000D02*
X179383500Y-71087000D01*
G75*
G02*
X179183500Y-71287000I-200000J0D01*
G01*
X176633500Y-71287000D01*
G75*
G02*
X176433500Y-71087000I0J200000D01*
G01*
X176433500Y-68587000D01*
G75*
G02*
X176633500Y-68387000I200000J0D01*
G01*
X179183500Y-68387000D01*
G75*
G02*
X179383500Y-68587000I0J-200000D01*
G01*
G37*
D21*
X166986500Y-74917000D03*
X177146500Y-74917000D03*
D22*
X172066500Y-74917000D03*
G36*
G01*
X166456500Y-71127000D02*
X166456500Y-73627000D01*
G75*
G02*
X166256500Y-73827000I-200000J0D01*
G01*
X163706500Y-73827000D01*
G75*
G02*
X163506500Y-73627000I0J200000D01*
G01*
X163506500Y-71127000D01*
G75*
G02*
X163706500Y-70927000I200000J0D01*
G01*
X166256500Y-70927000D01*
G75*
G02*
X166456500Y-71127000I0J-200000D01*
G01*
G37*
D20*
X212606500Y-74587000D03*
X206256500Y-77127000D03*
G36*
G01*
X217383500Y-73337000D02*
X217383500Y-75837000D01*
G75*
G02*
X217183500Y-76037000I-200000J0D01*
G01*
X214633500Y-76037000D01*
G75*
G02*
X214433500Y-75837000I0J200000D01*
G01*
X214433500Y-73337000D01*
G75*
G02*
X214633500Y-73137000I200000J0D01*
G01*
X217183500Y-73137000D01*
G75*
G02*
X217383500Y-73337000I0J-200000D01*
G01*
G37*
D21*
X204986500Y-79667000D03*
X215146500Y-79667000D03*
D22*
X210066500Y-79667000D03*
G36*
G01*
X204456500Y-75877000D02*
X204456500Y-78377000D01*
G75*
G02*
X204256500Y-78577000I-200000J0D01*
G01*
X201706500Y-78577000D01*
G75*
G02*
X201506500Y-78377000I0J200000D01*
G01*
X201506500Y-75877000D01*
G75*
G02*
X201706500Y-75677000I200000J0D01*
G01*
X204256500Y-75677000D01*
G75*
G02*
X204456500Y-75877000I0J-200000D01*
G01*
G37*
D20*
X155606500Y-67462000D03*
X149256500Y-70002000D03*
G36*
G01*
X160383500Y-66212000D02*
X160383500Y-68712000D01*
G75*
G02*
X160183500Y-68912000I-200000J0D01*
G01*
X157633500Y-68912000D01*
G75*
G02*
X157433500Y-68712000I0J200000D01*
G01*
X157433500Y-66212000D01*
G75*
G02*
X157633500Y-66012000I200000J0D01*
G01*
X160183500Y-66012000D01*
G75*
G02*
X160383500Y-66212000I0J-200000D01*
G01*
G37*
D21*
X147986500Y-72542000D03*
X158146500Y-72542000D03*
D22*
X153066500Y-72542000D03*
G36*
G01*
X147456500Y-68752000D02*
X147456500Y-71252000D01*
G75*
G02*
X147256500Y-71452000I-200000J0D01*
G01*
X144706500Y-71452000D01*
G75*
G02*
X144506500Y-71252000I0J200000D01*
G01*
X144506500Y-68752000D01*
G75*
G02*
X144706500Y-68552000I200000J0D01*
G01*
X147256500Y-68552000D01*
G75*
G02*
X147456500Y-68752000I0J-200000D01*
G01*
G37*
D20*
X136606500Y-88837000D03*
X130256500Y-91377000D03*
G36*
G01*
X141383500Y-87587000D02*
X141383500Y-90087000D01*
G75*
G02*
X141183500Y-90287000I-200000J0D01*
G01*
X138633500Y-90287000D01*
G75*
G02*
X138433500Y-90087000I0J200000D01*
G01*
X138433500Y-87587000D01*
G75*
G02*
X138633500Y-87387000I200000J0D01*
G01*
X141183500Y-87387000D01*
G75*
G02*
X141383500Y-87587000I0J-200000D01*
G01*
G37*
D21*
X128986500Y-93917000D03*
X139146500Y-93917000D03*
D22*
X134066500Y-93917000D03*
G36*
G01*
X128456500Y-90127000D02*
X128456500Y-92627000D01*
G75*
G02*
X128256500Y-92827000I-200000J0D01*
G01*
X125706500Y-92827000D01*
G75*
G02*
X125506500Y-92627000I0J200000D01*
G01*
X125506500Y-90127000D01*
G75*
G02*
X125706500Y-89927000I200000J0D01*
G01*
X128256500Y-89927000D01*
G75*
G02*
X128456500Y-90127000I0J-200000D01*
G01*
G37*
D20*
X155606500Y-48462000D03*
X149256500Y-51002000D03*
G36*
G01*
X160383500Y-47212000D02*
X160383500Y-49712000D01*
G75*
G02*
X160183500Y-49912000I-200000J0D01*
G01*
X157633500Y-49912000D01*
G75*
G02*
X157433500Y-49712000I0J200000D01*
G01*
X157433500Y-47212000D01*
G75*
G02*
X157633500Y-47012000I200000J0D01*
G01*
X160183500Y-47012000D01*
G75*
G02*
X160383500Y-47212000I0J-200000D01*
G01*
G37*
D21*
X147986500Y-53542000D03*
X158146500Y-53542000D03*
D22*
X153066500Y-53542000D03*
G36*
G01*
X147456500Y-49752000D02*
X147456500Y-52252000D01*
G75*
G02*
X147256500Y-52452000I-200000J0D01*
G01*
X144706500Y-52452000D01*
G75*
G02*
X144506500Y-52252000I0J200000D01*
G01*
X144506500Y-49752000D01*
G75*
G02*
X144706500Y-49552000I200000J0D01*
G01*
X147256500Y-49552000D01*
G75*
G02*
X147456500Y-49752000I0J-200000D01*
G01*
G37*
D20*
X146106500Y-108462000D03*
X139756500Y-111002000D03*
G36*
G01*
X150883500Y-107212000D02*
X150883500Y-109712000D01*
G75*
G02*
X150683500Y-109912000I-200000J0D01*
G01*
X148133500Y-109912000D01*
G75*
G02*
X147933500Y-109712000I0J200000D01*
G01*
X147933500Y-107212000D01*
G75*
G02*
X148133500Y-107012000I200000J0D01*
G01*
X150683500Y-107012000D01*
G75*
G02*
X150883500Y-107212000I0J-200000D01*
G01*
G37*
D21*
X138486500Y-113542000D03*
X148646500Y-113542000D03*
D22*
X143566500Y-113542000D03*
G36*
G01*
X137956500Y-109752000D02*
X137956500Y-112252000D01*
G75*
G02*
X137756500Y-112452000I-200000J0D01*
G01*
X135206500Y-112452000D01*
G75*
G02*
X135006500Y-112252000I0J200000D01*
G01*
X135006500Y-109752000D01*
G75*
G02*
X135206500Y-109552000I200000J0D01*
G01*
X137756500Y-109552000D01*
G75*
G02*
X137956500Y-109752000I0J-200000D01*
G01*
G37*
D20*
X123705151Y-110727696D03*
X118228922Y-114824649D03*
G36*
G01*
X127995855Y-108283910D02*
X128642902Y-110698725D01*
G75*
G02*
X128501481Y-110943674I-193185J-51764D01*
G01*
X126038370Y-111603663D01*
G75*
G02*
X125793421Y-111462242I-51764J193185D01*
G01*
X125146374Y-109047427D01*
G75*
G02*
X125287795Y-108802478I193185J51764D01*
G01*
X127750906Y-108142489D01*
G75*
G02*
X127995855Y-108283910I51764J-193185D01*
G01*
G37*
D21*
X117659597Y-117606801D03*
X127473403Y-114977199D03*
D22*
X122566500Y-116292000D03*
G36*
G01*
X116166732Y-114083115D02*
X116813779Y-116497930D01*
G75*
G02*
X116672358Y-116742879I-193185J-51764D01*
G01*
X114209247Y-117402868D01*
G75*
G02*
X113964298Y-117261447I-51764J193185D01*
G01*
X113317251Y-114846632D01*
G75*
G02*
X113458672Y-114601683I193185J51764D01*
G01*
X115921783Y-113941694D01*
G75*
G02*
X116166732Y-114083115I51764J-193185D01*
G01*
G37*
D20*
X174606500Y-88837000D03*
X168256500Y-91377000D03*
G36*
G01*
X179383500Y-87587000D02*
X179383500Y-90087000D01*
G75*
G02*
X179183500Y-90287000I-200000J0D01*
G01*
X176633500Y-90287000D01*
G75*
G02*
X176433500Y-90087000I0J200000D01*
G01*
X176433500Y-87587000D01*
G75*
G02*
X176633500Y-87387000I200000J0D01*
G01*
X179183500Y-87387000D01*
G75*
G02*
X179383500Y-87587000I0J-200000D01*
G01*
G37*
D21*
X166986500Y-93917000D03*
X177146500Y-93917000D03*
D22*
X172066500Y-93917000D03*
G36*
G01*
X166456500Y-90127000D02*
X166456500Y-92627000D01*
G75*
G02*
X166256500Y-92827000I-200000J0D01*
G01*
X163706500Y-92827000D01*
G75*
G02*
X163506500Y-92627000I0J200000D01*
G01*
X163506500Y-90127000D01*
G75*
G02*
X163706500Y-89927000I200000J0D01*
G01*
X166256500Y-89927000D01*
G75*
G02*
X166456500Y-90127000I0J-200000D01*
G01*
G37*
D20*
X136606500Y-50837000D03*
X130256500Y-53377000D03*
G36*
G01*
X141383500Y-49587000D02*
X141383500Y-52087000D01*
G75*
G02*
X141183500Y-52287000I-200000J0D01*
G01*
X138633500Y-52287000D01*
G75*
G02*
X138433500Y-52087000I0J200000D01*
G01*
X138433500Y-49587000D01*
G75*
G02*
X138633500Y-49387000I200000J0D01*
G01*
X141183500Y-49387000D01*
G75*
G02*
X141383500Y-49587000I0J-200000D01*
G01*
G37*
D21*
X128986500Y-55917000D03*
X139146500Y-55917000D03*
D22*
X134066500Y-55917000D03*
G36*
G01*
X128456500Y-52127000D02*
X128456500Y-54627000D01*
G75*
G02*
X128256500Y-54827000I-200000J0D01*
G01*
X125706500Y-54827000D01*
G75*
G02*
X125506500Y-54627000I0J200000D01*
G01*
X125506500Y-52127000D01*
G75*
G02*
X125706500Y-51927000I200000J0D01*
G01*
X128256500Y-51927000D01*
G75*
G02*
X128456500Y-52127000I0J-200000D01*
G01*
G37*
D23*
X102302500Y-99156000D03*
D24*
X124596500Y-66667500D03*
X110841500Y-114037000D03*
X157407500Y-106422500D03*
X200551500Y-89157500D03*
X200551500Y-70157500D03*
D23*
X87870500Y-107677000D03*
G36*
G01*
X161166500Y-52667000D02*
X160166500Y-52667000D01*
G75*
G02*
X159966500Y-52467000I0J200000D01*
G01*
X159966500Y-51067000D01*
G75*
G02*
X160166500Y-50867000I200000J0D01*
G01*
X161166500Y-50867000D01*
G75*
G02*
X161366500Y-51067000I0J-200000D01*
G01*
X161366500Y-52467000D01*
G75*
G02*
X161166500Y-52667000I-200000J0D01*
G01*
G37*
G36*
G01*
X161166500Y-56217000D02*
X160166500Y-56217000D01*
G75*
G02*
X159966500Y-56017000I0J200000D01*
G01*
X159966500Y-54617000D01*
G75*
G02*
X160166500Y-54417000I200000J0D01*
G01*
X161166500Y-54417000D01*
G75*
G02*
X161366500Y-54617000I0J-200000D01*
G01*
X161366500Y-56017000D01*
G75*
G02*
X161166500Y-56217000I-200000J0D01*
G01*
G37*
G36*
G01*
X194459500Y-68072000D02*
X194459500Y-69072000D01*
G75*
G02*
X194259500Y-69272000I-200000J0D01*
G01*
X192759500Y-69272000D01*
G75*
G02*
X192559500Y-69072000I0J200000D01*
G01*
X192559500Y-68072000D01*
G75*
G02*
X192759500Y-67872000I200000J0D01*
G01*
X194259500Y-67872000D01*
G75*
G02*
X194459500Y-68072000I0J-200000D01*
G01*
G37*
G36*
G01*
X194459500Y-71272000D02*
X194459500Y-72272000D01*
G75*
G02*
X194259500Y-72472000I-200000J0D01*
G01*
X192759500Y-72472000D01*
G75*
G02*
X192559500Y-72272000I0J200000D01*
G01*
X192559500Y-71272000D01*
G75*
G02*
X192759500Y-71072000I200000J0D01*
G01*
X194259500Y-71072000D01*
G75*
G02*
X194459500Y-71272000I0J-200000D01*
G01*
G37*
G36*
G01*
X189559500Y-68072000D02*
X189559500Y-69072000D01*
G75*
G02*
X189359500Y-69272000I-200000J0D01*
G01*
X187859500Y-69272000D01*
G75*
G02*
X187659500Y-69072000I0J200000D01*
G01*
X187659500Y-68072000D01*
G75*
G02*
X187859500Y-67872000I200000J0D01*
G01*
X189359500Y-67872000D01*
G75*
G02*
X189559500Y-68072000I0J-200000D01*
G01*
G37*
G36*
G01*
X189559500Y-71272000D02*
X189559500Y-72272000D01*
G75*
G02*
X189359500Y-72472000I-200000J0D01*
G01*
X187859500Y-72472000D01*
G75*
G02*
X187659500Y-72272000I0J200000D01*
G01*
X187659500Y-71272000D01*
G75*
G02*
X187859500Y-71072000I200000J0D01*
G01*
X189359500Y-71072000D01*
G75*
G02*
X189559500Y-71272000I0J-200000D01*
G01*
G37*
D25*
X99249500Y-91912000D03*
X96709500Y-91912000D03*
X94169500Y-91912000D03*
X91629500Y-91912000D03*
D20*
X105985909Y-119701705D03*
X100611205Y-115472443D03*
G36*
G01*
X109456941Y-123213707D02*
X107291877Y-124463707D01*
G75*
G02*
X107018672Y-124390502I-100000J173205D01*
G01*
X105743672Y-122182138D01*
G75*
G02*
X105816877Y-121908933I173205J100000D01*
G01*
X107981941Y-120658933D01*
G75*
G02*
X108255146Y-120732138I100000J-173205D01*
G01*
X109530146Y-122940502D01*
G75*
G02*
X109456941Y-123213707I-173205J-100000D01*
G01*
G37*
D21*
X97776500Y-115642591D03*
X102856500Y-124441409D03*
D22*
X100316500Y-120042000D03*
G36*
G01*
X100793737Y-113288597D02*
X98628673Y-114538597D01*
G75*
G02*
X98355468Y-114465392I-100000J173205D01*
G01*
X97080468Y-112257028D01*
G75*
G02*
X97153673Y-111983823I173205J100000D01*
G01*
X99318737Y-110733823D01*
G75*
G02*
X99591942Y-110807028I100000J-173205D01*
G01*
X100866942Y-113015392D01*
G75*
G02*
X100793737Y-113288597I-173205J-100000D01*
G01*
G37*
D26*
X87756500Y-88164000D03*
X87756500Y-94664000D03*
D27*
X97789500Y-101262000D03*
X96289500Y-97062000D03*
X92289500Y-97062000D03*
X89289500Y-97062000D03*
D28*
X94489500Y-99162000D03*
X87489500Y-99162000D03*
D29*
X87830900Y-56804000D03*
X87830900Y-59344000D03*
X87830900Y-61884000D03*
X87830900Y-64424000D03*
X87830900Y-66964000D03*
X87830900Y-69504000D03*
X87830900Y-72044000D03*
X87830900Y-74584000D03*
X87830900Y-77124000D03*
X87830900Y-79664000D03*
X87830900Y-82204000D03*
X87830900Y-84744000D03*
X103050900Y-84744000D03*
X103050900Y-82204000D03*
X103050900Y-79664000D03*
X103050900Y-77124000D03*
X103050900Y-74584000D03*
X103050900Y-72044000D03*
X103050900Y-69504000D03*
X103050900Y-66964000D03*
X103050900Y-64424000D03*
X103050900Y-61884000D03*
X103050900Y-59344000D03*
X103050900Y-56804000D03*
D20*
X212606500Y-55587000D03*
X206256500Y-58127000D03*
G36*
G01*
X217383500Y-54337000D02*
X217383500Y-56837000D01*
G75*
G02*
X217183500Y-57037000I-200000J0D01*
G01*
X214633500Y-57037000D01*
G75*
G02*
X214433500Y-56837000I0J200000D01*
G01*
X214433500Y-54337000D01*
G75*
G02*
X214633500Y-54137000I200000J0D01*
G01*
X217183500Y-54137000D01*
G75*
G02*
X217383500Y-54337000I0J-200000D01*
G01*
G37*
D21*
X204986500Y-60667000D03*
X215146500Y-60667000D03*
D22*
X210066500Y-60667000D03*
G36*
G01*
X204456500Y-56877000D02*
X204456500Y-59377000D01*
G75*
G02*
X204256500Y-59577000I-200000J0D01*
G01*
X201706500Y-59577000D01*
G75*
G02*
X201506500Y-59377000I0J200000D01*
G01*
X201506500Y-56877000D01*
G75*
G02*
X201706500Y-56677000I200000J0D01*
G01*
X204256500Y-56677000D01*
G75*
G02*
X204456500Y-56877000I0J-200000D01*
G01*
G37*
G36*
G01*
X194459500Y-87072000D02*
X194459500Y-88072000D01*
G75*
G02*
X194259500Y-88272000I-200000J0D01*
G01*
X192759500Y-88272000D01*
G75*
G02*
X192559500Y-88072000I0J200000D01*
G01*
X192559500Y-87072000D01*
G75*
G02*
X192759500Y-86872000I200000J0D01*
G01*
X194259500Y-86872000D01*
G75*
G02*
X194459500Y-87072000I0J-200000D01*
G01*
G37*
G36*
G01*
X194459500Y-90272000D02*
X194459500Y-91272000D01*
G75*
G02*
X194259500Y-91472000I-200000J0D01*
G01*
X192759500Y-91472000D01*
G75*
G02*
X192559500Y-91272000I0J200000D01*
G01*
X192559500Y-90272000D01*
G75*
G02*
X192759500Y-90072000I200000J0D01*
G01*
X194259500Y-90072000D01*
G75*
G02*
X194459500Y-90272000I0J-200000D01*
G01*
G37*
G36*
G01*
X189559500Y-87072000D02*
X189559500Y-88072000D01*
G75*
G02*
X189359500Y-88272000I-200000J0D01*
G01*
X187859500Y-88272000D01*
G75*
G02*
X187659500Y-88072000I0J200000D01*
G01*
X187659500Y-87072000D01*
G75*
G02*
X187859500Y-86872000I200000J0D01*
G01*
X189359500Y-86872000D01*
G75*
G02*
X189559500Y-87072000I0J-200000D01*
G01*
G37*
G36*
G01*
X189559500Y-90272000D02*
X189559500Y-91272000D01*
G75*
G02*
X189359500Y-91472000I-200000J0D01*
G01*
X187859500Y-91472000D01*
G75*
G02*
X187659500Y-91272000I0J200000D01*
G01*
X187659500Y-90272000D01*
G75*
G02*
X187859500Y-90072000I200000J0D01*
G01*
X189359500Y-90072000D01*
G75*
G02*
X189559500Y-90272000I0J-200000D01*
G01*
G37*
G36*
G01*
X118459500Y-65697000D02*
X118459500Y-66697000D01*
G75*
G02*
X118259500Y-66897000I-200000J0D01*
G01*
X116759500Y-66897000D01*
G75*
G02*
X116559500Y-66697000I0J200000D01*
G01*
X116559500Y-65697000D01*
G75*
G02*
X116759500Y-65497000I200000J0D01*
G01*
X118259500Y-65497000D01*
G75*
G02*
X118459500Y-65697000I0J-200000D01*
G01*
G37*
G36*
G01*
X118459500Y-68897000D02*
X118459500Y-69897000D01*
G75*
G02*
X118259500Y-70097000I-200000J0D01*
G01*
X116759500Y-70097000D01*
G75*
G02*
X116559500Y-69897000I0J200000D01*
G01*
X116559500Y-68897000D01*
G75*
G02*
X116759500Y-68697000I200000J0D01*
G01*
X118259500Y-68697000D01*
G75*
G02*
X118459500Y-68897000I0J-200000D01*
G01*
G37*
G36*
G01*
X113559500Y-65697000D02*
X113559500Y-66697000D01*
G75*
G02*
X113359500Y-66897000I-200000J0D01*
G01*
X111859500Y-66897000D01*
G75*
G02*
X111659500Y-66697000I0J200000D01*
G01*
X111659500Y-65697000D01*
G75*
G02*
X111859500Y-65497000I200000J0D01*
G01*
X113359500Y-65497000D01*
G75*
G02*
X113559500Y-65697000I0J-200000D01*
G01*
G37*
G36*
G01*
X113559500Y-68897000D02*
X113559500Y-69897000D01*
G75*
G02*
X113359500Y-70097000I-200000J0D01*
G01*
X111859500Y-70097000D01*
G75*
G02*
X111659500Y-69897000I0J200000D01*
G01*
X111659500Y-68897000D01*
G75*
G02*
X111859500Y-68697000I200000J0D01*
G01*
X113359500Y-68697000D01*
G75*
G02*
X113559500Y-68897000I0J-200000D01*
G01*
G37*
G36*
G01*
X118459500Y-103697000D02*
X118459500Y-104697000D01*
G75*
G02*
X118259500Y-104897000I-200000J0D01*
G01*
X116759500Y-104897000D01*
G75*
G02*
X116559500Y-104697000I0J200000D01*
G01*
X116559500Y-103697000D01*
G75*
G02*
X116759500Y-103497000I200000J0D01*
G01*
X118259500Y-103497000D01*
G75*
G02*
X118459500Y-103697000I0J-200000D01*
G01*
G37*
G36*
G01*
X118459500Y-106897000D02*
X118459500Y-107897000D01*
G75*
G02*
X118259500Y-108097000I-200000J0D01*
G01*
X116759500Y-108097000D01*
G75*
G02*
X116559500Y-107897000I0J200000D01*
G01*
X116559500Y-106897000D01*
G75*
G02*
X116759500Y-106697000I200000J0D01*
G01*
X118259500Y-106697000D01*
G75*
G02*
X118459500Y-106897000I0J-200000D01*
G01*
G37*
G36*
G01*
X113559500Y-103697000D02*
X113559500Y-104697000D01*
G75*
G02*
X113359500Y-104897000I-200000J0D01*
G01*
X111859500Y-104897000D01*
G75*
G02*
X111659500Y-104697000I0J200000D01*
G01*
X111659500Y-103697000D01*
G75*
G02*
X111859500Y-103497000I200000J0D01*
G01*
X113359500Y-103497000D01*
G75*
G02*
X113559500Y-103697000I0J-200000D01*
G01*
G37*
G36*
G01*
X113559500Y-106897000D02*
X113559500Y-107897000D01*
G75*
G02*
X113359500Y-108097000I-200000J0D01*
G01*
X111859500Y-108097000D01*
G75*
G02*
X111659500Y-107897000I0J200000D01*
G01*
X111659500Y-106897000D01*
G75*
G02*
X111859500Y-106697000I200000J0D01*
G01*
X113359500Y-106697000D01*
G75*
G02*
X113559500Y-106897000I0J-200000D01*
G01*
G37*
G36*
G01*
X156459500Y-60947000D02*
X156459500Y-61947000D01*
G75*
G02*
X156259500Y-62147000I-200000J0D01*
G01*
X154759500Y-62147000D01*
G75*
G02*
X154559500Y-61947000I0J200000D01*
G01*
X154559500Y-60947000D01*
G75*
G02*
X154759500Y-60747000I200000J0D01*
G01*
X156259500Y-60747000D01*
G75*
G02*
X156459500Y-60947000I0J-200000D01*
G01*
G37*
G36*
G01*
X156459500Y-64147000D02*
X156459500Y-65147000D01*
G75*
G02*
X156259500Y-65347000I-200000J0D01*
G01*
X154759500Y-65347000D01*
G75*
G02*
X154559500Y-65147000I0J200000D01*
G01*
X154559500Y-64147000D01*
G75*
G02*
X154759500Y-63947000I200000J0D01*
G01*
X156259500Y-63947000D01*
G75*
G02*
X156459500Y-64147000I0J-200000D01*
G01*
G37*
G36*
G01*
X151559500Y-60947000D02*
X151559500Y-61947000D01*
G75*
G02*
X151359500Y-62147000I-200000J0D01*
G01*
X149859500Y-62147000D01*
G75*
G02*
X149659500Y-61947000I0J200000D01*
G01*
X149659500Y-60947000D01*
G75*
G02*
X149859500Y-60747000I200000J0D01*
G01*
X151359500Y-60747000D01*
G75*
G02*
X151559500Y-60947000I0J-200000D01*
G01*
G37*
G36*
G01*
X151559500Y-64147000D02*
X151559500Y-65147000D01*
G75*
G02*
X151359500Y-65347000I-200000J0D01*
G01*
X149859500Y-65347000D01*
G75*
G02*
X149659500Y-65147000I0J200000D01*
G01*
X149659500Y-64147000D01*
G75*
G02*
X149859500Y-63947000I200000J0D01*
G01*
X151359500Y-63947000D01*
G75*
G02*
X151559500Y-64147000I0J-200000D01*
G01*
G37*
G36*
G01*
X156459500Y-98947000D02*
X156459500Y-99947000D01*
G75*
G02*
X156259500Y-100147000I-200000J0D01*
G01*
X154759500Y-100147000D01*
G75*
G02*
X154559500Y-99947000I0J200000D01*
G01*
X154559500Y-98947000D01*
G75*
G02*
X154759500Y-98747000I200000J0D01*
G01*
X156259500Y-98747000D01*
G75*
G02*
X156459500Y-98947000I0J-200000D01*
G01*
G37*
G36*
G01*
X156459500Y-102147000D02*
X156459500Y-103147000D01*
G75*
G02*
X156259500Y-103347000I-200000J0D01*
G01*
X154759500Y-103347000D01*
G75*
G02*
X154559500Y-103147000I0J200000D01*
G01*
X154559500Y-102147000D01*
G75*
G02*
X154759500Y-101947000I200000J0D01*
G01*
X156259500Y-101947000D01*
G75*
G02*
X156459500Y-102147000I0J-200000D01*
G01*
G37*
G36*
G01*
X151559500Y-98947000D02*
X151559500Y-99947000D01*
G75*
G02*
X151359500Y-100147000I-200000J0D01*
G01*
X149859500Y-100147000D01*
G75*
G02*
X149659500Y-99947000I0J200000D01*
G01*
X149659500Y-98947000D01*
G75*
G02*
X149859500Y-98747000I200000J0D01*
G01*
X151359500Y-98747000D01*
G75*
G02*
X151559500Y-98947000I0J-200000D01*
G01*
G37*
G36*
G01*
X151559500Y-102147000D02*
X151559500Y-103147000D01*
G75*
G02*
X151359500Y-103347000I-200000J0D01*
G01*
X149859500Y-103347000D01*
G75*
G02*
X149659500Y-103147000I0J200000D01*
G01*
X149659500Y-102147000D01*
G75*
G02*
X149859500Y-101947000I200000J0D01*
G01*
X151359500Y-101947000D01*
G75*
G02*
X151559500Y-102147000I0J-200000D01*
G01*
G37*
G36*
G01*
X135759500Y-79472000D02*
X135759500Y-78472000D01*
G75*
G02*
X135959500Y-78272000I200000J0D01*
G01*
X137659500Y-78272000D01*
G75*
G02*
X137859500Y-78472000I0J-200000D01*
G01*
X137859500Y-79472000D01*
G75*
G02*
X137659500Y-79672000I-200000J0D01*
G01*
X135959500Y-79672000D01*
G75*
G02*
X135759500Y-79472000I0J200000D01*
G01*
G37*
G36*
G01*
X135759500Y-80872000D02*
X135759500Y-79872000D01*
G75*
G02*
X135959500Y-79672000I200000J0D01*
G01*
X137659500Y-79672000D01*
G75*
G02*
X137859500Y-79872000I0J-200000D01*
G01*
X137859500Y-80872000D01*
G75*
G02*
X137659500Y-81072000I-200000J0D01*
G01*
X135959500Y-81072000D01*
G75*
G02*
X135759500Y-80872000I0J200000D01*
G01*
G37*
G36*
G01*
X130259500Y-79472000D02*
X130259500Y-78472000D01*
G75*
G02*
X130459500Y-78272000I200000J0D01*
G01*
X132159500Y-78272000D01*
G75*
G02*
X132359500Y-78472000I0J-200000D01*
G01*
X132359500Y-79472000D01*
G75*
G02*
X132159500Y-79672000I-200000J0D01*
G01*
X130459500Y-79672000D01*
G75*
G02*
X130259500Y-79472000I0J200000D01*
G01*
G37*
G36*
G01*
X130259500Y-80872000D02*
X130259500Y-79872000D01*
G75*
G02*
X130459500Y-79672000I200000J0D01*
G01*
X132159500Y-79672000D01*
G75*
G02*
X132359500Y-79872000I0J-200000D01*
G01*
X132359500Y-80872000D01*
G75*
G02*
X132159500Y-81072000I-200000J0D01*
G01*
X130459500Y-81072000D01*
G75*
G02*
X130259500Y-80872000I0J200000D01*
G01*
G37*
G36*
G01*
X154759500Y-77097000D02*
X154759500Y-76097000D01*
G75*
G02*
X154959500Y-75897000I200000J0D01*
G01*
X156659500Y-75897000D01*
G75*
G02*
X156859500Y-76097000I0J-200000D01*
G01*
X156859500Y-77097000D01*
G75*
G02*
X156659500Y-77297000I-200000J0D01*
G01*
X154959500Y-77297000D01*
G75*
G02*
X154759500Y-77097000I0J200000D01*
G01*
G37*
G36*
G01*
X154759500Y-78497000D02*
X154759500Y-77497000D01*
G75*
G02*
X154959500Y-77297000I200000J0D01*
G01*
X156659500Y-77297000D01*
G75*
G02*
X156859500Y-77497000I0J-200000D01*
G01*
X156859500Y-78497000D01*
G75*
G02*
X156659500Y-78697000I-200000J0D01*
G01*
X154959500Y-78697000D01*
G75*
G02*
X154759500Y-78497000I0J200000D01*
G01*
G37*
G36*
G01*
X149259500Y-77097000D02*
X149259500Y-76097000D01*
G75*
G02*
X149459500Y-75897000I200000J0D01*
G01*
X151159500Y-75897000D01*
G75*
G02*
X151359500Y-76097000I0J-200000D01*
G01*
X151359500Y-77097000D01*
G75*
G02*
X151159500Y-77297000I-200000J0D01*
G01*
X149459500Y-77297000D01*
G75*
G02*
X149259500Y-77097000I0J200000D01*
G01*
G37*
G36*
G01*
X149259500Y-78497000D02*
X149259500Y-77497000D01*
G75*
G02*
X149459500Y-77297000I200000J0D01*
G01*
X151159500Y-77297000D01*
G75*
G02*
X151359500Y-77497000I0J-200000D01*
G01*
X151359500Y-78497000D01*
G75*
G02*
X151159500Y-78697000I-200000J0D01*
G01*
X149459500Y-78697000D01*
G75*
G02*
X149259500Y-78497000I0J200000D01*
G01*
G37*
G36*
G01*
X116759500Y-81847000D02*
X116759500Y-80847000D01*
G75*
G02*
X116959500Y-80647000I200000J0D01*
G01*
X118659500Y-80647000D01*
G75*
G02*
X118859500Y-80847000I0J-200000D01*
G01*
X118859500Y-81847000D01*
G75*
G02*
X118659500Y-82047000I-200000J0D01*
G01*
X116959500Y-82047000D01*
G75*
G02*
X116759500Y-81847000I0J200000D01*
G01*
G37*
G36*
G01*
X116759500Y-83247000D02*
X116759500Y-82247000D01*
G75*
G02*
X116959500Y-82047000I200000J0D01*
G01*
X118659500Y-82047000D01*
G75*
G02*
X118859500Y-82247000I0J-200000D01*
G01*
X118859500Y-83247000D01*
G75*
G02*
X118659500Y-83447000I-200000J0D01*
G01*
X116959500Y-83447000D01*
G75*
G02*
X116759500Y-83247000I0J200000D01*
G01*
G37*
G36*
G01*
X111259500Y-81847000D02*
X111259500Y-80847000D01*
G75*
G02*
X111459500Y-80647000I200000J0D01*
G01*
X113159500Y-80647000D01*
G75*
G02*
X113359500Y-80847000I0J-200000D01*
G01*
X113359500Y-81847000D01*
G75*
G02*
X113159500Y-82047000I-200000J0D01*
G01*
X111459500Y-82047000D01*
G75*
G02*
X111259500Y-81847000I0J200000D01*
G01*
G37*
G36*
G01*
X111259500Y-83247000D02*
X111259500Y-82247000D01*
G75*
G02*
X111459500Y-82047000I200000J0D01*
G01*
X113159500Y-82047000D01*
G75*
G02*
X113359500Y-82247000I0J-200000D01*
G01*
X113359500Y-83247000D01*
G75*
G02*
X113159500Y-83447000I-200000J0D01*
G01*
X111459500Y-83447000D01*
G75*
G02*
X111259500Y-83247000I0J200000D01*
G01*
G37*
G36*
G01*
X211759500Y-103222000D02*
X211759500Y-102222000D01*
G75*
G02*
X211959500Y-102022000I200000J0D01*
G01*
X213659500Y-102022000D01*
G75*
G02*
X213859500Y-102222000I0J-200000D01*
G01*
X213859500Y-103222000D01*
G75*
G02*
X213659500Y-103422000I-200000J0D01*
G01*
X211959500Y-103422000D01*
G75*
G02*
X211759500Y-103222000I0J200000D01*
G01*
G37*
G36*
G01*
X211759500Y-104622000D02*
X211759500Y-103622000D01*
G75*
G02*
X211959500Y-103422000I200000J0D01*
G01*
X213659500Y-103422000D01*
G75*
G02*
X213859500Y-103622000I0J-200000D01*
G01*
X213859500Y-104622000D01*
G75*
G02*
X213659500Y-104822000I-200000J0D01*
G01*
X211959500Y-104822000D01*
G75*
G02*
X211759500Y-104622000I0J200000D01*
G01*
G37*
G36*
G01*
X206259500Y-103222000D02*
X206259500Y-102222000D01*
G75*
G02*
X206459500Y-102022000I200000J0D01*
G01*
X208159500Y-102022000D01*
G75*
G02*
X208359500Y-102222000I0J-200000D01*
G01*
X208359500Y-103222000D01*
G75*
G02*
X208159500Y-103422000I-200000J0D01*
G01*
X206459500Y-103422000D01*
G75*
G02*
X206259500Y-103222000I0J200000D01*
G01*
G37*
G36*
G01*
X206259500Y-104622000D02*
X206259500Y-103622000D01*
G75*
G02*
X206459500Y-103422000I200000J0D01*
G01*
X208159500Y-103422000D01*
G75*
G02*
X208359500Y-103622000I0J-200000D01*
G01*
X208359500Y-104622000D01*
G75*
G02*
X208159500Y-104822000I-200000J0D01*
G01*
X206459500Y-104822000D01*
G75*
G02*
X206259500Y-104622000I0J200000D01*
G01*
G37*
G36*
G01*
X173759500Y-98472000D02*
X173759500Y-97472000D01*
G75*
G02*
X173959500Y-97272000I200000J0D01*
G01*
X175659500Y-97272000D01*
G75*
G02*
X175859500Y-97472000I0J-200000D01*
G01*
X175859500Y-98472000D01*
G75*
G02*
X175659500Y-98672000I-200000J0D01*
G01*
X173959500Y-98672000D01*
G75*
G02*
X173759500Y-98472000I0J200000D01*
G01*
G37*
G36*
G01*
X173759500Y-99872000D02*
X173759500Y-98872000D01*
G75*
G02*
X173959500Y-98672000I200000J0D01*
G01*
X175659500Y-98672000D01*
G75*
G02*
X175859500Y-98872000I0J-200000D01*
G01*
X175859500Y-99872000D01*
G75*
G02*
X175659500Y-100072000I-200000J0D01*
G01*
X173959500Y-100072000D01*
G75*
G02*
X173759500Y-99872000I0J200000D01*
G01*
G37*
G36*
G01*
X168259500Y-98472000D02*
X168259500Y-97472000D01*
G75*
G02*
X168459500Y-97272000I200000J0D01*
G01*
X170159500Y-97272000D01*
G75*
G02*
X170359500Y-97472000I0J-200000D01*
G01*
X170359500Y-98472000D01*
G75*
G02*
X170159500Y-98672000I-200000J0D01*
G01*
X168459500Y-98672000D01*
G75*
G02*
X168259500Y-98472000I0J200000D01*
G01*
G37*
G36*
G01*
X168259500Y-99872000D02*
X168259500Y-98872000D01*
G75*
G02*
X168459500Y-98672000I200000J0D01*
G01*
X170159500Y-98672000D01*
G75*
G02*
X170359500Y-98872000I0J-200000D01*
G01*
X170359500Y-99872000D01*
G75*
G02*
X170159500Y-100072000I-200000J0D01*
G01*
X168459500Y-100072000D01*
G75*
G02*
X168259500Y-99872000I0J200000D01*
G01*
G37*
G36*
G01*
X154759500Y-96097000D02*
X154759500Y-95097000D01*
G75*
G02*
X154959500Y-94897000I200000J0D01*
G01*
X156659500Y-94897000D01*
G75*
G02*
X156859500Y-95097000I0J-200000D01*
G01*
X156859500Y-96097000D01*
G75*
G02*
X156659500Y-96297000I-200000J0D01*
G01*
X154959500Y-96297000D01*
G75*
G02*
X154759500Y-96097000I0J200000D01*
G01*
G37*
G36*
G01*
X154759500Y-97497000D02*
X154759500Y-96497000D01*
G75*
G02*
X154959500Y-96297000I200000J0D01*
G01*
X156659500Y-96297000D01*
G75*
G02*
X156859500Y-96497000I0J-200000D01*
G01*
X156859500Y-97497000D01*
G75*
G02*
X156659500Y-97697000I-200000J0D01*
G01*
X154959500Y-97697000D01*
G75*
G02*
X154759500Y-97497000I0J200000D01*
G01*
G37*
G36*
G01*
X149259500Y-96097000D02*
X149259500Y-95097000D01*
G75*
G02*
X149459500Y-94897000I200000J0D01*
G01*
X151159500Y-94897000D01*
G75*
G02*
X151359500Y-95097000I0J-200000D01*
G01*
X151359500Y-96097000D01*
G75*
G02*
X151159500Y-96297000I-200000J0D01*
G01*
X149459500Y-96297000D01*
G75*
G02*
X149259500Y-96097000I0J200000D01*
G01*
G37*
G36*
G01*
X149259500Y-97497000D02*
X149259500Y-96497000D01*
G75*
G02*
X149459500Y-96297000I200000J0D01*
G01*
X151159500Y-96297000D01*
G75*
G02*
X151359500Y-96497000I0J-200000D01*
G01*
X151359500Y-97497000D01*
G75*
G02*
X151159500Y-97697000I-200000J0D01*
G01*
X149459500Y-97697000D01*
G75*
G02*
X149259500Y-97497000I0J200000D01*
G01*
G37*
G36*
G01*
X192759500Y-103222000D02*
X192759500Y-102222000D01*
G75*
G02*
X192959500Y-102022000I200000J0D01*
G01*
X194659500Y-102022000D01*
G75*
G02*
X194859500Y-102222000I0J-200000D01*
G01*
X194859500Y-103222000D01*
G75*
G02*
X194659500Y-103422000I-200000J0D01*
G01*
X192959500Y-103422000D01*
G75*
G02*
X192759500Y-103222000I0J200000D01*
G01*
G37*
G36*
G01*
X192759500Y-104622000D02*
X192759500Y-103622000D01*
G75*
G02*
X192959500Y-103422000I200000J0D01*
G01*
X194659500Y-103422000D01*
G75*
G02*
X194859500Y-103622000I0J-200000D01*
G01*
X194859500Y-104622000D01*
G75*
G02*
X194659500Y-104822000I-200000J0D01*
G01*
X192959500Y-104822000D01*
G75*
G02*
X192759500Y-104622000I0J200000D01*
G01*
G37*
G36*
G01*
X187259500Y-103222000D02*
X187259500Y-102222000D01*
G75*
G02*
X187459500Y-102022000I200000J0D01*
G01*
X189159500Y-102022000D01*
G75*
G02*
X189359500Y-102222000I0J-200000D01*
G01*
X189359500Y-103222000D01*
G75*
G02*
X189159500Y-103422000I-200000J0D01*
G01*
X187459500Y-103422000D01*
G75*
G02*
X187259500Y-103222000I0J200000D01*
G01*
G37*
G36*
G01*
X187259500Y-104622000D02*
X187259500Y-103622000D01*
G75*
G02*
X187459500Y-103422000I200000J0D01*
G01*
X189159500Y-103422000D01*
G75*
G02*
X189359500Y-103622000I0J-200000D01*
G01*
X189359500Y-104622000D01*
G75*
G02*
X189159500Y-104822000I-200000J0D01*
G01*
X187459500Y-104822000D01*
G75*
G02*
X187259500Y-104622000I0J200000D01*
G01*
G37*
G36*
G01*
X135759500Y-98472000D02*
X135759500Y-97472000D01*
G75*
G02*
X135959500Y-97272000I200000J0D01*
G01*
X137659500Y-97272000D01*
G75*
G02*
X137859500Y-97472000I0J-200000D01*
G01*
X137859500Y-98472000D01*
G75*
G02*
X137659500Y-98672000I-200000J0D01*
G01*
X135959500Y-98672000D01*
G75*
G02*
X135759500Y-98472000I0J200000D01*
G01*
G37*
G36*
G01*
X135759500Y-99872000D02*
X135759500Y-98872000D01*
G75*
G02*
X135959500Y-98672000I200000J0D01*
G01*
X137659500Y-98672000D01*
G75*
G02*
X137859500Y-98872000I0J-200000D01*
G01*
X137859500Y-99872000D01*
G75*
G02*
X137659500Y-100072000I-200000J0D01*
G01*
X135959500Y-100072000D01*
G75*
G02*
X135759500Y-99872000I0J200000D01*
G01*
G37*
G36*
G01*
X130259500Y-98472000D02*
X130259500Y-97472000D01*
G75*
G02*
X130459500Y-97272000I200000J0D01*
G01*
X132159500Y-97272000D01*
G75*
G02*
X132359500Y-97472000I0J-200000D01*
G01*
X132359500Y-98472000D01*
G75*
G02*
X132159500Y-98672000I-200000J0D01*
G01*
X130459500Y-98672000D01*
G75*
G02*
X130259500Y-98472000I0J200000D01*
G01*
G37*
G36*
G01*
X130259500Y-99872000D02*
X130259500Y-98872000D01*
G75*
G02*
X130459500Y-98672000I200000J0D01*
G01*
X132159500Y-98672000D01*
G75*
G02*
X132359500Y-98872000I0J-200000D01*
G01*
X132359500Y-99872000D01*
G75*
G02*
X132159500Y-100072000I-200000J0D01*
G01*
X130459500Y-100072000D01*
G75*
G02*
X130259500Y-99872000I0J200000D01*
G01*
G37*
G36*
G01*
X116759500Y-100847000D02*
X116759500Y-99847000D01*
G75*
G02*
X116959500Y-99647000I200000J0D01*
G01*
X118659500Y-99647000D01*
G75*
G02*
X118859500Y-99847000I0J-200000D01*
G01*
X118859500Y-100847000D01*
G75*
G02*
X118659500Y-101047000I-200000J0D01*
G01*
X116959500Y-101047000D01*
G75*
G02*
X116759500Y-100847000I0J200000D01*
G01*
G37*
G36*
G01*
X116759500Y-102247000D02*
X116759500Y-101247000D01*
G75*
G02*
X116959500Y-101047000I200000J0D01*
G01*
X118659500Y-101047000D01*
G75*
G02*
X118859500Y-101247000I0J-200000D01*
G01*
X118859500Y-102247000D01*
G75*
G02*
X118659500Y-102447000I-200000J0D01*
G01*
X116959500Y-102447000D01*
G75*
G02*
X116759500Y-102247000I0J200000D01*
G01*
G37*
G36*
G01*
X111259500Y-100847000D02*
X111259500Y-99847000D01*
G75*
G02*
X111459500Y-99647000I200000J0D01*
G01*
X113159500Y-99647000D01*
G75*
G02*
X113359500Y-99847000I0J-200000D01*
G01*
X113359500Y-100847000D01*
G75*
G02*
X113159500Y-101047000I-200000J0D01*
G01*
X111459500Y-101047000D01*
G75*
G02*
X111259500Y-100847000I0J200000D01*
G01*
G37*
G36*
G01*
X111259500Y-102247000D02*
X111259500Y-101247000D01*
G75*
G02*
X111459500Y-101047000I200000J0D01*
G01*
X113159500Y-101047000D01*
G75*
G02*
X113359500Y-101247000I0J-200000D01*
G01*
X113359500Y-102247000D01*
G75*
G02*
X113159500Y-102447000I-200000J0D01*
G01*
X111459500Y-102447000D01*
G75*
G02*
X111259500Y-102247000I0J200000D01*
G01*
G37*
G36*
G01*
X145259500Y-118097000D02*
X145259500Y-117097000D01*
G75*
G02*
X145459500Y-116897000I200000J0D01*
G01*
X147159500Y-116897000D01*
G75*
G02*
X147359500Y-117097000I0J-200000D01*
G01*
X147359500Y-118097000D01*
G75*
G02*
X147159500Y-118297000I-200000J0D01*
G01*
X145459500Y-118297000D01*
G75*
G02*
X145259500Y-118097000I0J200000D01*
G01*
G37*
G36*
G01*
X145259500Y-119497000D02*
X145259500Y-118497000D01*
G75*
G02*
X145459500Y-118297000I200000J0D01*
G01*
X147159500Y-118297000D01*
G75*
G02*
X147359500Y-118497000I0J-200000D01*
G01*
X147359500Y-119497000D01*
G75*
G02*
X147159500Y-119697000I-200000J0D01*
G01*
X145459500Y-119697000D01*
G75*
G02*
X145259500Y-119497000I0J200000D01*
G01*
G37*
G36*
G01*
X139759500Y-118097000D02*
X139759500Y-117097000D01*
G75*
G02*
X139959500Y-116897000I200000J0D01*
G01*
X141659500Y-116897000D01*
G75*
G02*
X141859500Y-117097000I0J-200000D01*
G01*
X141859500Y-118097000D01*
G75*
G02*
X141659500Y-118297000I-200000J0D01*
G01*
X139959500Y-118297000D01*
G75*
G02*
X139759500Y-118097000I0J200000D01*
G01*
G37*
G36*
G01*
X139759500Y-119497000D02*
X139759500Y-118497000D01*
G75*
G02*
X139959500Y-118297000I200000J0D01*
G01*
X141659500Y-118297000D01*
G75*
G02*
X141859500Y-118497000I0J-200000D01*
G01*
X141859500Y-119497000D01*
G75*
G02*
X141659500Y-119697000I-200000J0D01*
G01*
X139959500Y-119697000D01*
G75*
G02*
X139759500Y-119497000I0J200000D01*
G01*
G37*
G36*
G01*
X125386201Y-120246971D02*
X125127382Y-119281045D01*
G75*
G02*
X125268803Y-119036096I193185J51764D01*
G01*
X126910876Y-118596104D01*
G75*
G02*
X127155825Y-118737525I51764J-193185D01*
G01*
X127414644Y-119703451D01*
G75*
G02*
X127273223Y-119948400I-193185J-51764D01*
G01*
X125631150Y-120388392D01*
G75*
G02*
X125386201Y-120246971I-51764J193185D01*
G01*
G37*
G36*
G01*
X125748547Y-121599267D02*
X125489728Y-120633341D01*
G75*
G02*
X125631149Y-120388392I193185J51764D01*
G01*
X127273222Y-119948400D01*
G75*
G02*
X127518171Y-120089821I51764J-193185D01*
G01*
X127776990Y-121055747D01*
G75*
G02*
X127635569Y-121300696I-193185J-51764D01*
G01*
X125993496Y-121740688D01*
G75*
G02*
X125748547Y-121599267I-51764J193185D01*
G01*
G37*
G36*
G01*
X120073609Y-121670475D02*
X119814790Y-120704549D01*
G75*
G02*
X119956211Y-120459600I193185J51764D01*
G01*
X121598284Y-120019608D01*
G75*
G02*
X121843233Y-120161029I51764J-193185D01*
G01*
X122102052Y-121126955D01*
G75*
G02*
X121960631Y-121371904I-193185J-51764D01*
G01*
X120318558Y-121811896D01*
G75*
G02*
X120073609Y-121670475I-51764J193185D01*
G01*
G37*
G36*
G01*
X120435955Y-123022771D02*
X120177136Y-122056845D01*
G75*
G02*
X120318557Y-121811896I193185J51764D01*
G01*
X121960630Y-121371904D01*
G75*
G02*
X122205579Y-121513325I51764J-193185D01*
G01*
X122464398Y-122479251D01*
G75*
G02*
X122322977Y-122724200I-193185J-51764D01*
G01*
X120680904Y-123164192D01*
G75*
G02*
X120435955Y-123022771I-51764J193185D01*
G01*
G37*
G36*
G01*
X154759500Y-58097000D02*
X154759500Y-57097000D01*
G75*
G02*
X154959500Y-56897000I200000J0D01*
G01*
X156659500Y-56897000D01*
G75*
G02*
X156859500Y-57097000I0J-200000D01*
G01*
X156859500Y-58097000D01*
G75*
G02*
X156659500Y-58297000I-200000J0D01*
G01*
X154959500Y-58297000D01*
G75*
G02*
X154759500Y-58097000I0J200000D01*
G01*
G37*
G36*
G01*
X154759500Y-59497000D02*
X154759500Y-58497000D01*
G75*
G02*
X154959500Y-58297000I200000J0D01*
G01*
X156659500Y-58297000D01*
G75*
G02*
X156859500Y-58497000I0J-200000D01*
G01*
X156859500Y-59497000D01*
G75*
G02*
X156659500Y-59697000I-200000J0D01*
G01*
X154959500Y-59697000D01*
G75*
G02*
X154759500Y-59497000I0J200000D01*
G01*
G37*
G36*
G01*
X149259500Y-58097000D02*
X149259500Y-57097000D01*
G75*
G02*
X149459500Y-56897000I200000J0D01*
G01*
X151159500Y-56897000D01*
G75*
G02*
X151359500Y-57097000I0J-200000D01*
G01*
X151359500Y-58097000D01*
G75*
G02*
X151159500Y-58297000I-200000J0D01*
G01*
X149459500Y-58297000D01*
G75*
G02*
X149259500Y-58097000I0J200000D01*
G01*
G37*
G36*
G01*
X149259500Y-59497000D02*
X149259500Y-58497000D01*
G75*
G02*
X149459500Y-58297000I200000J0D01*
G01*
X151159500Y-58297000D01*
G75*
G02*
X151359500Y-58497000I0J-200000D01*
G01*
X151359500Y-59497000D01*
G75*
G02*
X151159500Y-59697000I-200000J0D01*
G01*
X149459500Y-59697000D01*
G75*
G02*
X149259500Y-59497000I0J200000D01*
G01*
G37*
G36*
G01*
X173759500Y-60472000D02*
X173759500Y-59472000D01*
G75*
G02*
X173959500Y-59272000I200000J0D01*
G01*
X175659500Y-59272000D01*
G75*
G02*
X175859500Y-59472000I0J-200000D01*
G01*
X175859500Y-60472000D01*
G75*
G02*
X175659500Y-60672000I-200000J0D01*
G01*
X173959500Y-60672000D01*
G75*
G02*
X173759500Y-60472000I0J200000D01*
G01*
G37*
G36*
G01*
X173759500Y-61872000D02*
X173759500Y-60872000D01*
G75*
G02*
X173959500Y-60672000I200000J0D01*
G01*
X175659500Y-60672000D01*
G75*
G02*
X175859500Y-60872000I0J-200000D01*
G01*
X175859500Y-61872000D01*
G75*
G02*
X175659500Y-62072000I-200000J0D01*
G01*
X173959500Y-62072000D01*
G75*
G02*
X173759500Y-61872000I0J200000D01*
G01*
G37*
G36*
G01*
X168259500Y-60472000D02*
X168259500Y-59472000D01*
G75*
G02*
X168459500Y-59272000I200000J0D01*
G01*
X170159500Y-59272000D01*
G75*
G02*
X170359500Y-59472000I0J-200000D01*
G01*
X170359500Y-60472000D01*
G75*
G02*
X170159500Y-60672000I-200000J0D01*
G01*
X168459500Y-60672000D01*
G75*
G02*
X168259500Y-60472000I0J200000D01*
G01*
G37*
G36*
G01*
X168259500Y-61872000D02*
X168259500Y-60872000D01*
G75*
G02*
X168459500Y-60672000I200000J0D01*
G01*
X170159500Y-60672000D01*
G75*
G02*
X170359500Y-60872000I0J-200000D01*
G01*
X170359500Y-61872000D01*
G75*
G02*
X170159500Y-62072000I-200000J0D01*
G01*
X168459500Y-62072000D01*
G75*
G02*
X168259500Y-61872000I0J200000D01*
G01*
G37*
G36*
G01*
X135759500Y-60472000D02*
X135759500Y-59472000D01*
G75*
G02*
X135959500Y-59272000I200000J0D01*
G01*
X137659500Y-59272000D01*
G75*
G02*
X137859500Y-59472000I0J-200000D01*
G01*
X137859500Y-60472000D01*
G75*
G02*
X137659500Y-60672000I-200000J0D01*
G01*
X135959500Y-60672000D01*
G75*
G02*
X135759500Y-60472000I0J200000D01*
G01*
G37*
G36*
G01*
X135759500Y-61872000D02*
X135759500Y-60872000D01*
G75*
G02*
X135959500Y-60672000I200000J0D01*
G01*
X137659500Y-60672000D01*
G75*
G02*
X137859500Y-60872000I0J-200000D01*
G01*
X137859500Y-61872000D01*
G75*
G02*
X137659500Y-62072000I-200000J0D01*
G01*
X135959500Y-62072000D01*
G75*
G02*
X135759500Y-61872000I0J200000D01*
G01*
G37*
G36*
G01*
X130259500Y-60472000D02*
X130259500Y-59472000D01*
G75*
G02*
X130459500Y-59272000I200000J0D01*
G01*
X132159500Y-59272000D01*
G75*
G02*
X132359500Y-59472000I0J-200000D01*
G01*
X132359500Y-60472000D01*
G75*
G02*
X132159500Y-60672000I-200000J0D01*
G01*
X130459500Y-60672000D01*
G75*
G02*
X130259500Y-60472000I0J200000D01*
G01*
G37*
G36*
G01*
X130259500Y-61872000D02*
X130259500Y-60872000D01*
G75*
G02*
X130459500Y-60672000I200000J0D01*
G01*
X132159500Y-60672000D01*
G75*
G02*
X132359500Y-60872000I0J-200000D01*
G01*
X132359500Y-61872000D01*
G75*
G02*
X132159500Y-62072000I-200000J0D01*
G01*
X130459500Y-62072000D01*
G75*
G02*
X130259500Y-61872000I0J200000D01*
G01*
G37*
G36*
G01*
X116759500Y-62847000D02*
X116759500Y-61847000D01*
G75*
G02*
X116959500Y-61647000I200000J0D01*
G01*
X118659500Y-61647000D01*
G75*
G02*
X118859500Y-61847000I0J-200000D01*
G01*
X118859500Y-62847000D01*
G75*
G02*
X118659500Y-63047000I-200000J0D01*
G01*
X116959500Y-63047000D01*
G75*
G02*
X116759500Y-62847000I0J200000D01*
G01*
G37*
G36*
G01*
X116759500Y-64247000D02*
X116759500Y-63247000D01*
G75*
G02*
X116959500Y-63047000I200000J0D01*
G01*
X118659500Y-63047000D01*
G75*
G02*
X118859500Y-63247000I0J-200000D01*
G01*
X118859500Y-64247000D01*
G75*
G02*
X118659500Y-64447000I-200000J0D01*
G01*
X116959500Y-64447000D01*
G75*
G02*
X116759500Y-64247000I0J200000D01*
G01*
G37*
G36*
G01*
X111259500Y-62847000D02*
X111259500Y-61847000D01*
G75*
G02*
X111459500Y-61647000I200000J0D01*
G01*
X113159500Y-61647000D01*
G75*
G02*
X113359500Y-61847000I0J-200000D01*
G01*
X113359500Y-62847000D01*
G75*
G02*
X113159500Y-63047000I-200000J0D01*
G01*
X111459500Y-63047000D01*
G75*
G02*
X111259500Y-62847000I0J200000D01*
G01*
G37*
G36*
G01*
X111259500Y-64247000D02*
X111259500Y-63247000D01*
G75*
G02*
X111459500Y-63047000I200000J0D01*
G01*
X113159500Y-63047000D01*
G75*
G02*
X113359500Y-63247000I0J-200000D01*
G01*
X113359500Y-64247000D01*
G75*
G02*
X113159500Y-64447000I-200000J0D01*
G01*
X111459500Y-64447000D01*
G75*
G02*
X111259500Y-64247000I0J200000D01*
G01*
G37*
G36*
G01*
X211759500Y-84222000D02*
X211759500Y-83222000D01*
G75*
G02*
X211959500Y-83022000I200000J0D01*
G01*
X213659500Y-83022000D01*
G75*
G02*
X213859500Y-83222000I0J-200000D01*
G01*
X213859500Y-84222000D01*
G75*
G02*
X213659500Y-84422000I-200000J0D01*
G01*
X211959500Y-84422000D01*
G75*
G02*
X211759500Y-84222000I0J200000D01*
G01*
G37*
G36*
G01*
X211759500Y-85622000D02*
X211759500Y-84622000D01*
G75*
G02*
X211959500Y-84422000I200000J0D01*
G01*
X213659500Y-84422000D01*
G75*
G02*
X213859500Y-84622000I0J-200000D01*
G01*
X213859500Y-85622000D01*
G75*
G02*
X213659500Y-85822000I-200000J0D01*
G01*
X211959500Y-85822000D01*
G75*
G02*
X211759500Y-85622000I0J200000D01*
G01*
G37*
G36*
G01*
X206259500Y-84222000D02*
X206259500Y-83222000D01*
G75*
G02*
X206459500Y-83022000I200000J0D01*
G01*
X208159500Y-83022000D01*
G75*
G02*
X208359500Y-83222000I0J-200000D01*
G01*
X208359500Y-84222000D01*
G75*
G02*
X208159500Y-84422000I-200000J0D01*
G01*
X206459500Y-84422000D01*
G75*
G02*
X206259500Y-84222000I0J200000D01*
G01*
G37*
G36*
G01*
X206259500Y-85622000D02*
X206259500Y-84622000D01*
G75*
G02*
X206459500Y-84422000I200000J0D01*
G01*
X208159500Y-84422000D01*
G75*
G02*
X208359500Y-84622000I0J-200000D01*
G01*
X208359500Y-85622000D01*
G75*
G02*
X208159500Y-85822000I-200000J0D01*
G01*
X206459500Y-85822000D01*
G75*
G02*
X206259500Y-85622000I0J200000D01*
G01*
G37*
G36*
G01*
X192759500Y-84222000D02*
X192759500Y-83222000D01*
G75*
G02*
X192959500Y-83022000I200000J0D01*
G01*
X194659500Y-83022000D01*
G75*
G02*
X194859500Y-83222000I0J-200000D01*
G01*
X194859500Y-84222000D01*
G75*
G02*
X194659500Y-84422000I-200000J0D01*
G01*
X192959500Y-84422000D01*
G75*
G02*
X192759500Y-84222000I0J200000D01*
G01*
G37*
G36*
G01*
X192759500Y-85622000D02*
X192759500Y-84622000D01*
G75*
G02*
X192959500Y-84422000I200000J0D01*
G01*
X194659500Y-84422000D01*
G75*
G02*
X194859500Y-84622000I0J-200000D01*
G01*
X194859500Y-85622000D01*
G75*
G02*
X194659500Y-85822000I-200000J0D01*
G01*
X192959500Y-85822000D01*
G75*
G02*
X192759500Y-85622000I0J200000D01*
G01*
G37*
G36*
G01*
X187259500Y-84222000D02*
X187259500Y-83222000D01*
G75*
G02*
X187459500Y-83022000I200000J0D01*
G01*
X189159500Y-83022000D01*
G75*
G02*
X189359500Y-83222000I0J-200000D01*
G01*
X189359500Y-84222000D01*
G75*
G02*
X189159500Y-84422000I-200000J0D01*
G01*
X187459500Y-84422000D01*
G75*
G02*
X187259500Y-84222000I0J200000D01*
G01*
G37*
G36*
G01*
X187259500Y-85622000D02*
X187259500Y-84622000D01*
G75*
G02*
X187459500Y-84422000I200000J0D01*
G01*
X189159500Y-84422000D01*
G75*
G02*
X189359500Y-84622000I0J-200000D01*
G01*
X189359500Y-85622000D01*
G75*
G02*
X189159500Y-85822000I-200000J0D01*
G01*
X187459500Y-85822000D01*
G75*
G02*
X187259500Y-85622000I0J200000D01*
G01*
G37*
G36*
G01*
X211759500Y-65222000D02*
X211759500Y-64222000D01*
G75*
G02*
X211959500Y-64022000I200000J0D01*
G01*
X213659500Y-64022000D01*
G75*
G02*
X213859500Y-64222000I0J-200000D01*
G01*
X213859500Y-65222000D01*
G75*
G02*
X213659500Y-65422000I-200000J0D01*
G01*
X211959500Y-65422000D01*
G75*
G02*
X211759500Y-65222000I0J200000D01*
G01*
G37*
G36*
G01*
X211759500Y-66622000D02*
X211759500Y-65622000D01*
G75*
G02*
X211959500Y-65422000I200000J0D01*
G01*
X213659500Y-65422000D01*
G75*
G02*
X213859500Y-65622000I0J-200000D01*
G01*
X213859500Y-66622000D01*
G75*
G02*
X213659500Y-66822000I-200000J0D01*
G01*
X211959500Y-66822000D01*
G75*
G02*
X211759500Y-66622000I0J200000D01*
G01*
G37*
G36*
G01*
X206259500Y-65222000D02*
X206259500Y-64222000D01*
G75*
G02*
X206459500Y-64022000I200000J0D01*
G01*
X208159500Y-64022000D01*
G75*
G02*
X208359500Y-64222000I0J-200000D01*
G01*
X208359500Y-65222000D01*
G75*
G02*
X208159500Y-65422000I-200000J0D01*
G01*
X206459500Y-65422000D01*
G75*
G02*
X206259500Y-65222000I0J200000D01*
G01*
G37*
G36*
G01*
X206259500Y-66622000D02*
X206259500Y-65622000D01*
G75*
G02*
X206459500Y-65422000I200000J0D01*
G01*
X208159500Y-65422000D01*
G75*
G02*
X208359500Y-65622000I0J-200000D01*
G01*
X208359500Y-66622000D01*
G75*
G02*
X208159500Y-66822000I-200000J0D01*
G01*
X206459500Y-66822000D01*
G75*
G02*
X206259500Y-66622000I0J200000D01*
G01*
G37*
G36*
G01*
X173759500Y-79472000D02*
X173759500Y-78472000D01*
G75*
G02*
X173959500Y-78272000I200000J0D01*
G01*
X175659500Y-78272000D01*
G75*
G02*
X175859500Y-78472000I0J-200000D01*
G01*
X175859500Y-79472000D01*
G75*
G02*
X175659500Y-79672000I-200000J0D01*
G01*
X173959500Y-79672000D01*
G75*
G02*
X173759500Y-79472000I0J200000D01*
G01*
G37*
G36*
G01*
X173759500Y-80872000D02*
X173759500Y-79872000D01*
G75*
G02*
X173959500Y-79672000I200000J0D01*
G01*
X175659500Y-79672000D01*
G75*
G02*
X175859500Y-79872000I0J-200000D01*
G01*
X175859500Y-80872000D01*
G75*
G02*
X175659500Y-81072000I-200000J0D01*
G01*
X173959500Y-81072000D01*
G75*
G02*
X173759500Y-80872000I0J200000D01*
G01*
G37*
G36*
G01*
X168259500Y-79472000D02*
X168259500Y-78472000D01*
G75*
G02*
X168459500Y-78272000I200000J0D01*
G01*
X170159500Y-78272000D01*
G75*
G02*
X170359500Y-78472000I0J-200000D01*
G01*
X170359500Y-79472000D01*
G75*
G02*
X170159500Y-79672000I-200000J0D01*
G01*
X168459500Y-79672000D01*
G75*
G02*
X168259500Y-79472000I0J200000D01*
G01*
G37*
G36*
G01*
X168259500Y-80872000D02*
X168259500Y-79872000D01*
G75*
G02*
X168459500Y-79672000I200000J0D01*
G01*
X170159500Y-79672000D01*
G75*
G02*
X170359500Y-79872000I0J-200000D01*
G01*
X170359500Y-80872000D01*
G75*
G02*
X170159500Y-81072000I-200000J0D01*
G01*
X168459500Y-81072000D01*
G75*
G02*
X168259500Y-80872000I0J200000D01*
G01*
G37*
D20*
X117606500Y-72212000D03*
X111256500Y-74752000D03*
G36*
G01*
X122383500Y-70962000D02*
X122383500Y-73462000D01*
G75*
G02*
X122183500Y-73662000I-200000J0D01*
G01*
X119633500Y-73662000D01*
G75*
G02*
X119433500Y-73462000I0J200000D01*
G01*
X119433500Y-70962000D01*
G75*
G02*
X119633500Y-70762000I200000J0D01*
G01*
X122183500Y-70762000D01*
G75*
G02*
X122383500Y-70962000I0J-200000D01*
G01*
G37*
D21*
X109986500Y-77292000D03*
X120146500Y-77292000D03*
D22*
X115066500Y-77292000D03*
G36*
G01*
X109456500Y-73502000D02*
X109456500Y-76002000D01*
G75*
G02*
X109256500Y-76202000I-200000J0D01*
G01*
X106706500Y-76202000D01*
G75*
G02*
X106506500Y-76002000I0J200000D01*
G01*
X106506500Y-73502000D01*
G75*
G02*
X106706500Y-73302000I200000J0D01*
G01*
X109256500Y-73302000D01*
G75*
G02*
X109456500Y-73502000I0J-200000D01*
G01*
G37*
D20*
X117606500Y-91212000D03*
X111256500Y-93752000D03*
G36*
G01*
X122383500Y-89962000D02*
X122383500Y-92462000D01*
G75*
G02*
X122183500Y-92662000I-200000J0D01*
G01*
X119633500Y-92662000D01*
G75*
G02*
X119433500Y-92462000I0J200000D01*
G01*
X119433500Y-89962000D01*
G75*
G02*
X119633500Y-89762000I200000J0D01*
G01*
X122183500Y-89762000D01*
G75*
G02*
X122383500Y-89962000I0J-200000D01*
G01*
G37*
D21*
X109986500Y-96292000D03*
X120146500Y-96292000D03*
D22*
X115066500Y-96292000D03*
G36*
G01*
X109456500Y-92502000D02*
X109456500Y-95002000D01*
G75*
G02*
X109256500Y-95202000I-200000J0D01*
G01*
X106706500Y-95202000D01*
G75*
G02*
X106506500Y-95002000I0J200000D01*
G01*
X106506500Y-92502000D01*
G75*
G02*
X106706500Y-92302000I200000J0D01*
G01*
X109256500Y-92302000D01*
G75*
G02*
X109456500Y-92502000I0J-200000D01*
G01*
G37*
D20*
X193606500Y-93587000D03*
X187256500Y-96127000D03*
G36*
G01*
X198383500Y-92337000D02*
X198383500Y-94837000D01*
G75*
G02*
X198183500Y-95037000I-200000J0D01*
G01*
X195633500Y-95037000D01*
G75*
G02*
X195433500Y-94837000I0J200000D01*
G01*
X195433500Y-92337000D01*
G75*
G02*
X195633500Y-92137000I200000J0D01*
G01*
X198183500Y-92137000D01*
G75*
G02*
X198383500Y-92337000I0J-200000D01*
G01*
G37*
D21*
X185986500Y-98667000D03*
X196146500Y-98667000D03*
D22*
X191066500Y-98667000D03*
G36*
G01*
X185456500Y-94877000D02*
X185456500Y-97377000D01*
G75*
G02*
X185256500Y-97577000I-200000J0D01*
G01*
X182706500Y-97577000D01*
G75*
G02*
X182506500Y-97377000I0J200000D01*
G01*
X182506500Y-94877000D01*
G75*
G02*
X182706500Y-94677000I200000J0D01*
G01*
X185256500Y-94677000D01*
G75*
G02*
X185456500Y-94877000I0J-200000D01*
G01*
G37*
D20*
X155606500Y-86462000D03*
X149256500Y-89002000D03*
G36*
G01*
X160383500Y-85212000D02*
X160383500Y-87712000D01*
G75*
G02*
X160183500Y-87912000I-200000J0D01*
G01*
X157633500Y-87912000D01*
G75*
G02*
X157433500Y-87712000I0J200000D01*
G01*
X157433500Y-85212000D01*
G75*
G02*
X157633500Y-85012000I200000J0D01*
G01*
X160183500Y-85012000D01*
G75*
G02*
X160383500Y-85212000I0J-200000D01*
G01*
G37*
D21*
X147986500Y-91542000D03*
X158146500Y-91542000D03*
D22*
X153066500Y-91542000D03*
G36*
G01*
X147456500Y-87752000D02*
X147456500Y-90252000D01*
G75*
G02*
X147256500Y-90452000I-200000J0D01*
G01*
X144706500Y-90452000D01*
G75*
G02*
X144506500Y-90252000I0J200000D01*
G01*
X144506500Y-87752000D01*
G75*
G02*
X144706500Y-87552000I200000J0D01*
G01*
X147256500Y-87552000D01*
G75*
G02*
X147456500Y-87752000I0J-200000D01*
G01*
G37*
G36*
G01*
X97226084Y-123789243D02*
X98092110Y-123289243D01*
G75*
G02*
X98365315Y-123362448I100000J-173205D01*
G01*
X99215315Y-124834692D01*
G75*
G02*
X99142110Y-125107897I-173205J-100000D01*
G01*
X98276084Y-125607897D01*
G75*
G02*
X98002879Y-125534692I-100000J173205D01*
G01*
X97152879Y-124062448D01*
G75*
G02*
X97226084Y-123789243I173205J100000D01*
G01*
G37*
G36*
G01*
X96013648Y-124489243D02*
X96879674Y-123989243D01*
G75*
G02*
X97152879Y-124062448I100000J-173205D01*
G01*
X98002879Y-125534692D01*
G75*
G02*
X97929674Y-125807897I-173205J-100000D01*
G01*
X97063648Y-126307897D01*
G75*
G02*
X96790443Y-126234692I-100000J173205D01*
G01*
X95940443Y-124762448D01*
G75*
G02*
X96013648Y-124489243I173205J100000D01*
G01*
G37*
G36*
G01*
X94476084Y-119026103D02*
X95342110Y-118526103D01*
G75*
G02*
X95615315Y-118599308I100000J-173205D01*
G01*
X96465315Y-120071552D01*
G75*
G02*
X96392110Y-120344757I-173205J-100000D01*
G01*
X95526084Y-120844757D01*
G75*
G02*
X95252879Y-120771552I-100000J173205D01*
G01*
X94402879Y-119299308D01*
G75*
G02*
X94476084Y-119026103I173205J100000D01*
G01*
G37*
G36*
G01*
X93263648Y-119726103D02*
X94129674Y-119226103D01*
G75*
G02*
X94402879Y-119299308I100000J-173205D01*
G01*
X95252879Y-120771552D01*
G75*
G02*
X95179674Y-121044757I-173205J-100000D01*
G01*
X94313648Y-121544757D01*
G75*
G02*
X94040443Y-121471552I-100000J173205D01*
G01*
X93190443Y-119999308D01*
G75*
G02*
X93263648Y-119726103I173205J100000D01*
G01*
G37*
G36*
G01*
X192759500Y-65222000D02*
X192759500Y-64222000D01*
G75*
G02*
X192959500Y-64022000I200000J0D01*
G01*
X194659500Y-64022000D01*
G75*
G02*
X194859500Y-64222000I0J-200000D01*
G01*
X194859500Y-65222000D01*
G75*
G02*
X194659500Y-65422000I-200000J0D01*
G01*
X192959500Y-65422000D01*
G75*
G02*
X192759500Y-65222000I0J200000D01*
G01*
G37*
G36*
G01*
X192759500Y-66622000D02*
X192759500Y-65622000D01*
G75*
G02*
X192959500Y-65422000I200000J0D01*
G01*
X194659500Y-65422000D01*
G75*
G02*
X194859500Y-65622000I0J-200000D01*
G01*
X194859500Y-66622000D01*
G75*
G02*
X194659500Y-66822000I-200000J0D01*
G01*
X192959500Y-66822000D01*
G75*
G02*
X192759500Y-66622000I0J200000D01*
G01*
G37*
G36*
G01*
X187259500Y-65222000D02*
X187259500Y-64222000D01*
G75*
G02*
X187459500Y-64022000I200000J0D01*
G01*
X189159500Y-64022000D01*
G75*
G02*
X189359500Y-64222000I0J-200000D01*
G01*
X189359500Y-65222000D01*
G75*
G02*
X189159500Y-65422000I-200000J0D01*
G01*
X187459500Y-65422000D01*
G75*
G02*
X187259500Y-65222000I0J200000D01*
G01*
G37*
G36*
G01*
X187259500Y-66622000D02*
X187259500Y-65622000D01*
G75*
G02*
X187459500Y-65422000I200000J0D01*
G01*
X189159500Y-65422000D01*
G75*
G02*
X189359500Y-65622000I0J-200000D01*
G01*
X189359500Y-66622000D01*
G75*
G02*
X189159500Y-66822000I-200000J0D01*
G01*
X187459500Y-66822000D01*
G75*
G02*
X187259500Y-66622000I0J200000D01*
G01*
G37*
M02*
