G04 #@! TF.GenerationSoftware,KiCad,Pcbnew,(5.1.10)-1*
G04 #@! TF.CreationDate,2021-11-26T09:38:35+07:00*
G04 #@! TF.ProjectId,corne-cherry,636f726e-652d-4636-9865-7272792e6b69,3.0.1*
G04 #@! TF.SameCoordinates,Original*
G04 #@! TF.FileFunction,Copper,L1,Top*
G04 #@! TF.FilePolarity,Positive*
%FSLAX46Y46*%
G04 Gerber Fmt 4.6, Leading zero omitted, Abs format (unit mm)*
G04 Created by KiCad (PCBNEW (5.1.10)-1) date 2021-11-26 09:38:35*
%MOMM*%
%LPD*%
G01*
G04 APERTURE LIST*
G04 #@! TA.AperFunction,ComponentPad*
%ADD10O,1.397000X1.778000*%
G04 #@! TD*
G04 #@! TA.AperFunction,ComponentPad*
%ADD11C,2.000000*%
G04 #@! TD*
G04 #@! TA.AperFunction,ComponentPad*
%ADD12O,2.500000X1.700000*%
G04 #@! TD*
G04 #@! TA.AperFunction,ComponentPad*
%ADD13C,1.524000*%
G04 #@! TD*
G04 #@! TA.AperFunction,ViaPad*
%ADD14C,0.600000*%
G04 #@! TD*
G04 #@! TA.AperFunction,Conductor*
%ADD15C,0.250000*%
G04 #@! TD*
G04 #@! TA.AperFunction,Conductor*
%ADD16C,0.254000*%
G04 #@! TD*
G04 #@! TA.AperFunction,Conductor*
%ADD17C,0.500000*%
G04 #@! TD*
G04 #@! TA.AperFunction,Conductor*
%ADD18C,0.508000*%
G04 #@! TD*
G04 APERTURE END LIST*
D10*
X99249500Y-91912000D03*
X96709500Y-91912000D03*
X94169500Y-91912000D03*
X91629500Y-91912000D03*
D11*
X87756500Y-88164000D03*
X87756500Y-94664000D03*
D12*
X97789500Y-101262000D03*
X96289500Y-97062000D03*
X92289500Y-97062000D03*
X89289500Y-97062000D03*
D13*
X87830900Y-56804000D03*
X87830900Y-59344000D03*
X87830900Y-61884000D03*
X87830900Y-64424000D03*
X87830900Y-66964000D03*
X87830900Y-69504000D03*
X87830900Y-72044000D03*
X87830900Y-74584000D03*
X87830900Y-77124000D03*
X87830900Y-79664000D03*
X87830900Y-82204000D03*
X87830900Y-84744000D03*
X103050900Y-84744000D03*
X103050900Y-82204000D03*
X103050900Y-79664000D03*
X103050900Y-77124000D03*
X103050900Y-74584000D03*
X103050900Y-72044000D03*
X103050900Y-69504000D03*
X103050900Y-66964000D03*
X103050900Y-64424000D03*
X103050900Y-61884000D03*
X103050900Y-59344000D03*
X103050900Y-56804000D03*
D14*
X106809500Y-71157000D03*
X104515762Y-56281024D03*
X108684500Y-87392000D03*
X108684500Y-83307010D03*
X100562558Y-110520058D03*
X105989500Y-83607000D03*
X106809500Y-65907000D03*
X202999500Y-91442000D03*
X203059500Y-60097000D03*
X203044510Y-75097000D03*
X203069500Y-79447000D03*
X202959500Y-94197000D03*
X183449500Y-88992010D03*
X183959500Y-75197000D03*
X183959500Y-79097000D03*
X183959500Y-94097000D03*
X183959500Y-59997000D03*
X165059500Y-89397000D03*
X164959500Y-70397000D03*
X165059500Y-74397000D03*
X164959500Y-55197000D03*
X164686449Y-83405051D03*
X145959500Y-52897000D03*
X146009500Y-90877000D03*
X145959500Y-71997000D03*
X136539500Y-109227000D03*
X145959500Y-67997000D03*
X145559500Y-83912000D03*
X145959500Y-87097000D03*
X126959500Y-74197000D03*
X126959500Y-89397000D03*
X126959500Y-55297000D03*
X114639500Y-113787000D03*
X126959500Y-70397000D03*
X126969500Y-93217000D03*
X126589500Y-86767000D03*
X108059500Y-76797000D03*
X107749500Y-87907000D03*
X107959500Y-72697000D03*
X100339500Y-111567000D03*
X107959500Y-57697000D03*
X107869500Y-95567000D03*
X107959500Y-91797000D03*
X105239500Y-85787000D03*
X105309490Y-65197000D03*
X105386500Y-61097000D03*
X148669502Y-102667000D03*
X111229500Y-61537000D03*
X186766993Y-71848653D03*
X148749500Y-56947000D03*
X187209500Y-63837000D03*
X148709500Y-94807000D03*
X106159500Y-76937000D03*
X186624490Y-90626017D03*
X187029500Y-82897000D03*
X148604490Y-64600861D03*
X110705436Y-69361389D03*
X110489500Y-107277000D03*
X110439500Y-99577000D03*
X95259500Y-102597000D03*
X202713664Y-87274960D03*
X202734500Y-72107000D03*
X206429500Y-85067000D03*
X213769500Y-64857000D03*
X187619500Y-66247002D03*
X194759500Y-83637000D03*
X149499500Y-58997000D03*
X156684169Y-76782331D03*
X130359500Y-80257000D03*
X137889500Y-60077000D03*
X111489510Y-63797000D03*
X118789500Y-81277000D03*
X146599500Y-83872002D03*
X147779500Y-100657000D03*
X110494490Y-108547000D03*
X93789500Y-119527000D03*
X206569500Y-104147000D03*
X213819500Y-83787000D03*
X187459500Y-85317000D03*
X194779500Y-102647000D03*
X168359500Y-99247000D03*
X175729500Y-79187000D03*
X149349500Y-78047000D03*
X156719169Y-95617331D03*
X130309500Y-99257000D03*
X137849500Y-79037000D03*
X111389500Y-82757000D03*
X118819500Y-100417000D03*
X147219500Y-117627000D03*
X149459500Y-97027000D03*
X137779500Y-98127000D03*
X120399500Y-122377000D03*
X98659500Y-125347000D03*
X111159500Y-101927000D03*
X168429500Y-80247000D03*
X175789500Y-60037000D03*
D15*
X106809500Y-71157000D02*
X107434501Y-70531999D01*
X107434501Y-59199763D02*
X104515762Y-56281024D01*
X107434501Y-70531999D02*
X107434501Y-59199763D01*
X108684500Y-83307010D02*
X108684500Y-87392000D01*
X105989500Y-83607000D02*
X105989500Y-105093116D01*
X105989500Y-105093116D02*
X100562558Y-110520058D01*
D16*
X94420489Y-103782989D02*
X89289500Y-98652000D01*
X103055900Y-59345000D02*
X104139901Y-60429001D01*
X104098488Y-85047982D02*
X104098488Y-101090944D01*
X101406443Y-103782989D02*
X94420489Y-103782989D01*
X104139901Y-60429001D02*
X104139901Y-85006569D01*
X104098488Y-101090944D02*
X101406443Y-103782989D01*
X89289500Y-97062000D02*
X89289500Y-98062000D01*
X89289500Y-98652000D02*
X89289500Y-97062000D01*
X104139901Y-85006569D02*
X104098488Y-85047982D01*
X91491500Y-91572000D02*
X91491500Y-91907000D01*
X101126500Y-87037000D02*
X98100511Y-90062989D01*
X101126500Y-68894400D02*
X101126500Y-87037000D01*
X98100511Y-90062989D02*
X93000511Y-90062989D01*
X93000511Y-90062989D02*
X91491500Y-91572000D01*
X103055900Y-66965000D02*
X101126500Y-68894400D01*
X98346500Y-90517000D02*
X95421500Y-90517000D01*
X95421500Y-90517000D02*
X94031500Y-91907000D01*
X101580511Y-87282989D02*
X98346500Y-90517000D01*
X103055900Y-69505000D02*
X101580511Y-70980389D01*
X101580511Y-70980389D02*
X101580511Y-87282989D01*
D15*
X103095900Y-56804000D02*
X104173530Y-56804000D01*
X104173530Y-56804000D02*
X106809500Y-59439970D01*
X106809500Y-59439970D02*
X106809500Y-65907000D01*
D16*
X104552499Y-101279001D02*
X101594500Y-104237000D01*
X87509500Y-97522000D02*
X87509500Y-94911000D01*
X94224500Y-104237000D02*
X87509500Y-97522000D01*
X87509500Y-94911000D02*
X87756500Y-94664000D01*
X87835900Y-61885000D02*
X91653900Y-58067000D01*
X104086500Y-58067000D02*
X104759500Y-58740000D01*
X104759500Y-58740000D02*
X104759500Y-64819026D01*
X91653900Y-58067000D02*
X104086500Y-58067000D01*
X101594500Y-104237000D02*
X94224500Y-104237000D01*
X104759500Y-64819026D02*
X104593912Y-64984614D01*
X104593912Y-64984614D02*
X104593911Y-85194627D01*
X104552499Y-85236039D02*
X104552499Y-101279001D01*
X104593911Y-85194627D02*
X104552499Y-85236039D01*
D15*
X203349500Y-89377000D02*
X203359500Y-93797000D01*
X203369499Y-89357001D02*
X203369499Y-79746999D01*
X203059500Y-60097000D02*
X203359500Y-60397000D01*
X203344509Y-74797001D02*
X203044510Y-75097000D01*
X203349500Y-89377000D02*
X203351204Y-89378704D01*
X203359500Y-93797000D02*
X202959500Y-94197000D01*
X203369499Y-79746999D02*
X203069500Y-79447000D01*
X203359500Y-74782010D02*
X203344509Y-74797001D01*
X203359500Y-60397000D02*
X203359500Y-74782010D01*
X203351204Y-89378704D02*
X203351204Y-91090296D01*
X203351204Y-91090296D02*
X202999500Y-91442000D01*
X203349500Y-89377000D02*
X203369499Y-89357001D01*
X183959500Y-89227000D02*
X183959500Y-94097000D01*
X183873764Y-88992010D02*
X183449500Y-88992010D01*
X183959500Y-89227000D02*
X183959500Y-89077746D01*
X183959500Y-79097000D02*
X183959500Y-89227000D01*
X183959500Y-89077746D02*
X183873764Y-88992010D01*
X183959500Y-59997000D02*
X183959500Y-75197000D01*
X165059500Y-84687000D02*
X165059500Y-83778102D01*
X164986448Y-83705050D02*
X164686449Y-83405051D01*
X164959500Y-55197000D02*
X164959500Y-70397000D01*
X165059500Y-84687000D02*
X165059500Y-89397000D01*
X165059500Y-74397000D02*
X165059500Y-84687000D01*
X165059500Y-83778102D02*
X164986448Y-83705050D01*
X145959500Y-84532000D02*
X145559500Y-84132000D01*
X145559500Y-84132000D02*
X145559500Y-83912000D01*
X145959500Y-85187000D02*
X145959500Y-84532000D01*
X145959500Y-86897000D02*
X145959500Y-87097000D01*
X145959500Y-85187000D02*
X145959500Y-86897000D01*
X145959500Y-71997000D02*
X145959500Y-85187000D01*
X136539500Y-109227000D02*
X146009500Y-99757000D01*
X146009500Y-99757000D02*
X146009500Y-90877000D01*
X145959500Y-52897000D02*
X145959500Y-67997000D01*
X126589500Y-88237000D02*
X126589500Y-87191264D01*
X126969500Y-93217000D02*
X126969500Y-101557000D01*
X127459500Y-55797000D02*
X127459500Y-69897000D01*
X126959500Y-88607000D02*
X126589500Y-88237000D01*
X126959500Y-74197000D02*
X126959500Y-88607000D01*
X126589500Y-87191264D02*
X126589500Y-86767000D01*
X126969500Y-101557000D02*
X114739500Y-113787000D01*
X114739500Y-113787000D02*
X114639500Y-113787000D01*
X127459500Y-69897000D02*
X126959500Y-70397000D01*
X126959500Y-55297000D02*
X127459500Y-55797000D01*
X126959500Y-88607000D02*
X126959500Y-89397000D01*
X108059500Y-89367000D02*
X108059500Y-88187000D01*
X107779500Y-87907000D02*
X107749500Y-87907000D01*
X107959500Y-57697000D02*
X107959500Y-72697000D01*
X108059500Y-88187000D02*
X107779500Y-87907000D01*
X108059500Y-89367000D02*
X108059500Y-91697000D01*
X108059500Y-76797000D02*
X108059500Y-89367000D01*
X108059500Y-91697000D02*
X107959500Y-91797000D01*
X100399500Y-111567000D02*
X100339500Y-111567000D01*
X107869500Y-95567000D02*
X107869500Y-104097000D01*
X107869500Y-104097000D02*
X100399500Y-111567000D01*
D17*
X90549500Y-93502000D02*
X92499500Y-93502000D01*
X92499500Y-93502000D02*
X92509500Y-93492000D01*
X94986500Y-93492000D02*
X95921500Y-93492000D01*
X96289500Y-93860000D02*
X96289500Y-97062000D01*
X96696500Y-92717000D02*
X96696500Y-91937000D01*
X95921500Y-93492000D02*
X96696500Y-92717000D01*
X105239500Y-85362736D02*
X105239500Y-85787000D01*
X105309490Y-65197000D02*
X105309490Y-76577008D01*
X105239500Y-76646998D02*
X105239500Y-85362736D01*
X105309490Y-76577008D02*
X105239500Y-76646998D01*
X95921500Y-93492000D02*
X96289500Y-93860000D01*
X89369500Y-65958600D02*
X89369500Y-92322000D01*
X89369500Y-92322000D02*
X90549500Y-93502000D01*
X87835900Y-64425000D02*
X89369500Y-65958600D01*
X92509500Y-93492000D02*
X94986500Y-93492000D01*
X96696500Y-91937000D02*
X96666500Y-91907000D01*
X96666500Y-91907000D02*
X96571500Y-91907000D01*
X110739500Y-62027000D02*
X110739500Y-69327325D01*
X148709500Y-94807000D02*
X148709500Y-102627002D01*
X186624490Y-83302010D02*
X186624490Y-90201753D01*
X110739500Y-69327325D02*
X110705436Y-69361389D01*
X106059500Y-76412736D02*
X106159500Y-76512736D01*
X186624490Y-90201753D02*
X186624490Y-90626017D01*
X106059500Y-61770000D02*
X106059500Y-76412736D01*
X148709500Y-102627002D02*
X148669502Y-102667000D01*
X148449501Y-57246999D02*
X148449501Y-64445872D01*
X148749500Y-56947000D02*
X148449501Y-57246999D01*
X148449501Y-64445872D02*
X148604490Y-64600861D01*
X105386500Y-61097000D02*
X106059500Y-61770000D01*
X187209500Y-63837000D02*
X186466994Y-64579506D01*
X187029500Y-82897000D02*
X186624490Y-83302010D01*
X186466994Y-71548654D02*
X186766993Y-71848653D01*
X106159500Y-76512736D02*
X106159500Y-76937000D01*
X186466994Y-64579506D02*
X186466994Y-71548654D01*
X111229500Y-61537000D02*
X110739500Y-62027000D01*
X95259500Y-102597000D02*
X95259500Y-102400000D01*
X95259500Y-102400000D02*
X92289500Y-99430000D01*
X110189501Y-106977001D02*
X110189501Y-99826999D01*
X110489500Y-107277000D02*
X110189501Y-106977001D01*
X110189501Y-99826999D02*
X110439500Y-99577000D01*
X103055900Y-61885000D02*
X103055900Y-64425000D01*
X93376500Y-100517000D02*
X92289500Y-99430000D01*
D18*
X87073901Y-60106999D02*
X86866501Y-60106999D01*
X86236500Y-87644000D02*
X86236500Y-90787000D01*
X87835900Y-59345000D02*
X87073901Y-60106999D01*
X86866501Y-60106999D02*
X86236500Y-60737000D01*
D17*
X92289500Y-99430000D02*
X92289500Y-99412000D01*
X99236500Y-91937000D02*
X99236500Y-97187000D01*
X99236500Y-97187000D02*
X95906500Y-100517000D01*
D18*
X86236500Y-87644000D02*
X86756500Y-88164000D01*
X86236500Y-60737000D02*
X86236500Y-87644000D01*
X86756500Y-88164000D02*
X87756500Y-88164000D01*
D17*
X95906500Y-100517000D02*
X93376500Y-100517000D01*
D18*
X86236500Y-90787000D02*
X92289500Y-96840000D01*
X92289500Y-96840000D02*
X92289500Y-97062000D01*
X92289500Y-97062000D02*
X92289500Y-98062000D01*
D17*
X99141500Y-91937000D02*
X99236500Y-91937000D01*
X99111500Y-91907000D02*
X99141500Y-91937000D01*
X92289500Y-99412000D02*
X92289500Y-98062000D01*
D15*
X202734500Y-72107000D02*
X202413665Y-72427835D01*
X202413665Y-72427835D02*
X202413665Y-86974961D01*
X202413665Y-86974961D02*
X202713664Y-87274960D01*
X206429500Y-83737000D02*
X206429500Y-85067000D01*
X214789500Y-65877000D02*
X214789500Y-77267000D01*
X214789500Y-77267000D02*
X212899500Y-79157000D01*
X212899500Y-81277000D02*
X211759500Y-82417000D01*
X212899500Y-79157000D02*
X212899500Y-81277000D01*
X207749500Y-82417000D02*
X206429500Y-83737000D01*
X213769500Y-64857000D02*
X214789500Y-65877000D01*
X211759500Y-82417000D02*
X207749500Y-82417000D01*
X194759500Y-83637000D02*
X194759500Y-78967000D01*
X187269500Y-67021266D02*
X187619500Y-66671266D01*
X187619500Y-66671266D02*
X187619500Y-66247002D01*
X194759500Y-78967000D02*
X187269500Y-71477000D01*
X187269500Y-71477000D02*
X187269500Y-67021266D01*
X156279500Y-71927000D02*
X149229500Y-64877000D01*
X156684169Y-76358067D02*
X156279500Y-75953398D01*
X156684169Y-76782331D02*
X156684169Y-76358067D01*
X149229500Y-59267000D02*
X149499500Y-58997000D01*
X156279500Y-75953398D02*
X156279500Y-71927000D01*
X149229500Y-64877000D02*
X149229500Y-59267000D01*
X137889500Y-60077000D02*
X138609500Y-60797000D01*
X130359500Y-78757000D02*
X130359500Y-80257000D01*
X137309500Y-73147000D02*
X137309500Y-75647000D01*
X135209500Y-77747000D02*
X131369500Y-77747000D01*
X137309500Y-75647000D02*
X135209500Y-77747000D01*
X138609500Y-60797000D02*
X138609500Y-71847000D01*
X131369500Y-77747000D02*
X130359500Y-78757000D01*
X138609500Y-71847000D02*
X137309500Y-73147000D01*
X118789500Y-81277000D02*
X118789500Y-76787000D01*
X111489510Y-64221264D02*
X111489510Y-63797000D01*
X118789500Y-76787000D02*
X111489510Y-69487010D01*
X111489510Y-69487010D02*
X111489510Y-64221264D01*
X147779500Y-100657000D02*
X146639500Y-99517000D01*
X146599500Y-84296266D02*
X146599500Y-83872002D01*
X146639500Y-84336266D02*
X146599500Y-84296266D01*
X146639500Y-99517000D02*
X146639500Y-84336266D01*
X107639500Y-112667000D02*
X110494490Y-109812010D01*
X93789500Y-119527000D02*
X93789500Y-119442000D01*
X95909500Y-117322000D02*
X105619500Y-117322000D01*
X107639500Y-115302000D02*
X107639500Y-112667000D01*
X105619500Y-117322000D02*
X107639500Y-115302000D01*
X93789500Y-119442000D02*
X95909500Y-117322000D01*
X110494490Y-109812010D02*
X110494490Y-108547000D01*
X213819500Y-83787000D02*
X214431501Y-84399001D01*
X211754500Y-101242000D02*
X207359500Y-101242000D01*
X206339500Y-103917000D02*
X206569500Y-104147000D01*
X206339500Y-102262000D02*
X206339500Y-103917000D01*
X212919500Y-97787000D02*
X212919500Y-100077000D01*
X212919500Y-100077000D02*
X211754500Y-101242000D01*
X214431501Y-84399001D02*
X214431501Y-96274999D01*
X214431501Y-96274999D02*
X212919500Y-97787000D01*
X207359500Y-101242000D02*
X206339500Y-102262000D01*
X187249500Y-85527000D02*
X187459500Y-85317000D01*
X194779500Y-102647000D02*
X194779500Y-98267000D01*
X194779500Y-98267000D02*
X187249500Y-90737000D01*
X187249500Y-90737000D02*
X187249500Y-85527000D01*
X176619500Y-80501264D02*
X176619500Y-91267000D01*
X169219500Y-96627000D02*
X168339500Y-97507000D01*
X168339500Y-97507000D02*
X168339500Y-99227000D01*
X168339500Y-99227000D02*
X168359500Y-99247000D01*
X175729500Y-79187000D02*
X175729500Y-79611264D01*
X176619500Y-91267000D02*
X174979500Y-92907000D01*
X175729500Y-79611264D02*
X176619500Y-80501264D01*
X173629500Y-96627000D02*
X169219500Y-96627000D01*
X174979500Y-95277000D02*
X173629500Y-96627000D01*
X174979500Y-92907000D02*
X174979500Y-95277000D01*
X156159500Y-95057662D02*
X156159500Y-91119998D01*
X156139500Y-90647000D02*
X149349500Y-83857000D01*
X149349500Y-83857000D02*
X149349500Y-78047000D01*
X156139500Y-91099998D02*
X156139500Y-90647000D01*
X156159500Y-91119998D02*
X156139500Y-91099998D01*
X156719169Y-95617331D02*
X156159500Y-95057662D01*
X131609490Y-96786990D02*
X130309500Y-98086980D01*
X130309500Y-98086980D02*
X130309500Y-99257000D01*
X137039500Y-95207000D02*
X135459510Y-96786990D01*
X137039500Y-93107000D02*
X137039500Y-95207000D01*
X137849500Y-79037000D02*
X138679500Y-79867000D01*
X138679500Y-79867000D02*
X138679500Y-91467000D01*
X138679500Y-91467000D02*
X137039500Y-93107000D01*
X135459510Y-96786990D02*
X131609490Y-96786990D01*
X118069500Y-95779998D02*
X111686502Y-89397000D01*
X118069500Y-99667000D02*
X118069500Y-95779998D01*
X111686502Y-83054002D02*
X111389500Y-82757000D01*
X111686502Y-89397000D02*
X111686502Y-83054002D01*
X118819500Y-100417000D02*
X118069500Y-99667000D01*
X147219500Y-117202736D02*
X146699500Y-116682736D01*
X148189500Y-109977000D02*
X149294503Y-108871997D01*
X146699500Y-116682736D02*
X146699500Y-111467000D01*
X146699500Y-111467000D02*
X148189500Y-109977000D01*
X148189500Y-109977000D02*
X148689500Y-109477000D01*
X149294503Y-108871997D02*
X149294503Y-97191997D01*
X147219500Y-117627000D02*
X147219500Y-117202736D01*
X149294503Y-97191997D02*
X149459500Y-97027000D01*
X120289500Y-122267000D02*
X120399500Y-122377000D01*
X121149500Y-119682000D02*
X121003049Y-119798451D01*
X121353823Y-119602298D02*
X121149500Y-119682000D01*
X126119500Y-111742000D02*
X126119500Y-117542000D01*
X120289500Y-120512000D02*
X120289500Y-122267000D01*
X121003049Y-119798451D02*
X120289500Y-120512000D01*
X121402366Y-119518221D02*
X121353823Y-119602298D01*
X137779500Y-98127000D02*
X137779500Y-100082000D01*
X137779500Y-100082000D02*
X126119500Y-111742000D01*
X125146520Y-118514979D02*
X121402366Y-119518221D01*
X126119500Y-117542000D02*
X125146520Y-118514979D01*
X103619500Y-126252000D02*
X108119500Y-121752000D01*
X98659500Y-125347000D02*
X99564500Y-126252000D01*
X99564500Y-126252000D02*
X103619500Y-126252000D01*
X108119500Y-121752000D02*
X108119500Y-112907000D01*
X111119500Y-101967000D02*
X111159500Y-101927000D01*
X111119500Y-109907000D02*
X111119500Y-101967000D01*
X108119500Y-112907000D02*
X111119500Y-109907000D01*
X173539500Y-77607000D02*
X169664500Y-77607000D01*
X175789500Y-60461264D02*
X176539500Y-61211264D01*
X175129500Y-73727000D02*
X175129500Y-76017000D01*
X169664500Y-77607000D02*
X168429500Y-78842000D01*
X168429500Y-78842000D02*
X168429500Y-80247000D01*
X176539500Y-72317000D02*
X175129500Y-73727000D01*
X175789500Y-60037000D02*
X175789500Y-60461264D01*
X176539500Y-61211264D02*
X176539500Y-72317000D01*
X175129500Y-76017000D02*
X173539500Y-77607000D01*
M02*
