%FSLAX45Y45*%
G04 Gerber Fmt 4.5, Leading zero omitted, Abs format (unit mm)*
G04 Created by KiCad (PCBNEW (5.1.10)-1) date 2021-11-26 09:39:06*
%MOMM*%
%LPD*%
G01*
G04 APERTURE LIST*
%TA.AperFunction,Profile*%
%ADD10C,0.200000*%
%TD*%
%ADD11C,0.200000*%
%ADD12C,0.300000*%
G04 APERTURE END LIST*
D10*
X21252250Y-10814400D02*
X21252250Y-10814300D01*
X21252250Y-10813300D02*
X21252150Y-10813300D01*
X15240651Y-12267009D02*
X11573606Y-12744046D01*
X18115649Y-5117043D02*
X18115649Y-5117018D01*
X12515665Y-4892025D02*
X12510729Y-4913700D01*
X12510729Y-4913700D02*
X12497460Y-4930602D01*
X12497460Y-4930602D02*
X12478149Y-4940441D01*
X12478149Y-4940441D02*
X12465653Y-4942012D01*
X16330309Y-10806663D02*
X15276007Y-12252379D01*
X9885930Y-13545161D02*
X8563328Y-11251924D01*
X14365672Y-4692025D02*
X14365647Y-4692025D01*
X14415659Y-4517019D02*
X14420584Y-4495341D01*
X14420584Y-4495341D02*
X14433845Y-4478432D01*
X14433845Y-4478432D02*
X14453151Y-4468584D01*
X14453151Y-4468584D02*
X14465647Y-4467007D01*
X16215654Y-4517019D02*
X16215654Y-4517019D01*
X16165667Y-4467007D02*
X16187343Y-4471943D01*
X16187343Y-4471943D02*
X16204245Y-4485212D01*
X16204245Y-4485212D02*
X16214083Y-4504523D01*
X16214083Y-4504523D02*
X16215654Y-4517019D01*
X16215654Y-4642038D02*
X16215654Y-4642013D01*
X18065662Y-4692025D02*
X18087331Y-4696958D01*
X18087331Y-4696958D02*
X18104231Y-4710219D01*
X18104231Y-4710219D02*
X18114073Y-4729521D01*
X18114073Y-4729521D02*
X18115649Y-4742013D01*
X18165661Y-5167030D02*
X18143983Y-5162105D01*
X18143983Y-5162105D02*
X18127074Y-5148844D01*
X18127074Y-5148844D02*
X18117226Y-5129538D01*
X18117226Y-5129538D02*
X18115649Y-5117043D01*
X21915663Y-5217017D02*
X21915663Y-5217017D01*
X21865650Y-5167030D02*
X21887328Y-5171955D01*
X21887328Y-5171955D02*
X21904237Y-5185215D01*
X21904237Y-5185215D02*
X21914085Y-5204522D01*
X21914085Y-5204522D02*
X21915663Y-5217017D01*
X21865651Y-10792007D02*
X21865650Y-10792007D01*
X12515665Y-4742013D02*
X12520598Y-4720343D01*
X12520598Y-4720343D02*
X12533859Y-4703444D01*
X12533859Y-4703444D02*
X12553161Y-4693601D01*
X12553161Y-4693601D02*
X12565652Y-4692025D01*
X9886240Y-13545623D02*
X9885930Y-13545161D01*
X10615671Y-5117018D02*
X10610746Y-5138696D01*
X10610746Y-5138696D02*
X10597485Y-5155605D01*
X10597485Y-5155605D02*
X10578178Y-5165453D01*
X10578178Y-5165453D02*
X10565683Y-5167030D01*
X15276007Y-12252379D02*
X15258652Y-12263662D01*
X15258652Y-12263662D02*
X15240651Y-12267009D01*
X10078742Y-13583108D02*
X10060336Y-13593587D01*
X10060336Y-13593587D02*
X10041061Y-13600987D01*
X10041061Y-13600987D02*
X10021244Y-13605372D01*
X10021244Y-13605372D02*
X10001210Y-13606805D01*
X10001210Y-13606805D02*
X9974727Y-13604234D01*
X9974727Y-13604234D02*
X9949214Y-13596679D01*
X9949214Y-13596679D02*
X9931182Y-13587834D01*
X9931182Y-13587834D02*
X9914458Y-13576333D01*
X9914458Y-13576333D02*
X9899368Y-13562242D01*
X9899368Y-13562242D02*
X9886240Y-13545623D01*
X14415659Y-4642013D02*
X14410734Y-4663691D01*
X14410734Y-4663691D02*
X14397474Y-4680600D01*
X14397474Y-4680600D02*
X14378167Y-4690448D01*
X14378167Y-4690448D02*
X14365672Y-4692025D01*
X16265666Y-4692025D02*
X16243988Y-4687100D01*
X16243988Y-4687100D02*
X16227080Y-4673840D01*
X16227080Y-4673840D02*
X16217232Y-4654533D01*
X16217232Y-4654533D02*
X16215654Y-4642038D01*
X8590760Y-5166853D02*
X10565659Y-5167030D01*
X11508150Y-12757000D02*
X11528319Y-12751577D01*
X11528319Y-12751577D02*
X11548771Y-12747399D01*
X11548771Y-12747399D02*
X11569448Y-12744478D01*
X11569448Y-12744478D02*
X11573606Y-12744046D01*
X11508150Y-12757000D02*
X10078742Y-13583108D01*
X14415736Y-4641835D02*
X14415736Y-4516867D01*
X10615900Y-4991847D02*
X10615671Y-5117018D01*
X18165788Y-5166853D02*
X21865650Y-5167030D01*
X21915663Y-5217017D02*
X21915840Y-10741893D01*
X16330309Y-10806663D02*
X16347662Y-10795365D01*
X16347662Y-10795365D02*
X16365666Y-10792007D01*
X16265870Y-4691873D02*
X17466650Y-4691873D01*
X16977950Y-10792007D02*
X20777950Y-10791931D01*
X12515818Y-4891771D02*
X12515818Y-4741911D01*
X10665684Y-4941809D02*
X12465780Y-4941809D01*
X8563379Y-11251772D02*
X8554431Y-11233885D01*
X8554431Y-11233885D02*
X8546883Y-11212423D01*
X8546883Y-11212423D02*
X8542265Y-11190159D01*
X8542265Y-11190159D02*
X8540656Y-11167390D01*
X8540656Y-11167390D02*
X8540670Y-11164523D01*
X8540722Y-5216890D02*
X8540722Y-11164295D01*
X16215832Y-4516867D02*
X16215832Y-4641835D01*
X12565856Y-4691873D02*
X13177950Y-4691873D01*
X21915663Y-10742020D02*
X21910727Y-10763696D01*
X21910727Y-10763696D02*
X21897458Y-10780598D01*
X21897458Y-10780598D02*
X21878147Y-10790436D01*
X21878147Y-10790436D02*
X21865651Y-10792007D01*
X18115750Y-4741911D02*
X18115750Y-5116815D01*
X10615671Y-4992024D02*
X10620597Y-4970346D01*
X10620597Y-4970346D02*
X10633857Y-4953438D01*
X10633857Y-4953438D02*
X10653162Y-4943590D01*
X10653162Y-4943590D02*
X10665658Y-4942012D01*
X8540670Y-5217017D02*
X8545603Y-5195348D01*
X8545603Y-5195348D02*
X8558864Y-5178448D01*
X8558864Y-5178448D02*
X8578167Y-5168606D01*
X8578167Y-5168606D02*
X8590658Y-5167030D01*
X14465774Y-4466829D02*
X16165794Y-4466829D01*
X10565683Y-5167030D02*
X10565659Y-5167030D01*
X16365666Y-10792007D02*
X16977950Y-10792007D01*
X21865650Y-10792007D02*
X20777950Y-10791931D01*
X18065662Y-4692025D02*
X17452950Y-4692025D01*
X14365647Y-4692025D02*
X13177950Y-4691873D01*
D11*
X8688950Y-9856200D02*
X8808950Y-9976200D01*
X8808950Y-9856200D02*
X8688950Y-9976200D01*
X9388950Y-9856200D02*
X9508950Y-9976200D01*
X9508950Y-9856200D02*
X9388950Y-9976200D01*
X9872650Y-11564259D02*
G75*
G03*
X9872650Y-11564259I-95000J0D01*
G01*
X10380650Y-12444141D02*
G75*
G03*
X10380650Y-12444141I-95000J0D01*
G01*
X11092950Y-5829700D02*
G75*
G03*
X11092950Y-5829700I-95000J0D01*
G01*
X11093650Y-7729200D02*
G75*
G03*
X11093650Y-7729200I-95000J0D01*
G01*
X11093650Y-9629200D02*
G75*
G03*
X11093650Y-9629200I-95000J0D01*
G01*
X11860960Y-11760680D02*
G75*
G03*
X11860960Y-11760680I-95000J0D01*
G01*
X12108950Y-5829700D02*
G75*
G03*
X12108950Y-5829700I-95000J0D01*
G01*
X12109650Y-7729200D02*
G75*
G03*
X12109650Y-7729200I-95000J0D01*
G01*
X12109650Y-9629200D02*
G75*
G03*
X12109650Y-9629200I-95000J0D01*
G01*
X12842340Y-11497720D02*
G75*
G03*
X12842340Y-11497720I-95000J0D01*
G01*
X12993650Y-5591700D02*
G75*
G03*
X12993650Y-5591700I-95000J0D01*
G01*
X12993650Y-7491700D02*
G75*
G03*
X12993650Y-7491700I-95000J0D01*
G01*
X12993650Y-9391700D02*
G75*
G03*
X12993650Y-9391700I-95000J0D01*
G01*
X13943650Y-11354200D02*
G75*
G03*
X13943650Y-11354200I-95000J0D01*
G01*
X14009650Y-5591700D02*
G75*
G03*
X14009650Y-5591700I-95000J0D01*
G01*
X14009650Y-7491700D02*
G75*
G03*
X14009650Y-7491700I-95000J0D01*
G01*
X14009650Y-9391700D02*
G75*
G03*
X14009650Y-9391700I-95000J0D01*
G01*
X14893650Y-5354200D02*
G75*
G03*
X14893650Y-5354200I-95000J0D01*
G01*
X14893650Y-7254200D02*
G75*
G03*
X14893650Y-7254200I-95000J0D01*
G01*
X14893650Y-9154200D02*
G75*
G03*
X14893650Y-9154200I-95000J0D01*
G01*
X14959650Y-11354200D02*
G75*
G03*
X14959650Y-11354200I-95000J0D01*
G01*
X15909650Y-5354200D02*
G75*
G03*
X15909650Y-5354200I-95000J0D01*
G01*
X15909650Y-7254200D02*
G75*
G03*
X15909650Y-7254200I-95000J0D01*
G01*
X15909650Y-9154200D02*
G75*
G03*
X15909650Y-9154200I-95000J0D01*
G01*
X16793650Y-5591700D02*
G75*
G03*
X16793650Y-5591700I-95000J0D01*
G01*
X16793650Y-7491700D02*
G75*
G03*
X16793650Y-7491700I-95000J0D01*
G01*
X16793650Y-9391700D02*
G75*
G03*
X16793650Y-9391700I-95000J0D01*
G01*
X17809650Y-5591700D02*
G75*
G03*
X17809650Y-5591700I-95000J0D01*
G01*
X17809650Y-7491700D02*
G75*
G03*
X17809650Y-7491700I-95000J0D01*
G01*
X17809650Y-9391700D02*
G75*
G03*
X17809650Y-9391700I-95000J0D01*
G01*
X18693650Y-6066700D02*
G75*
G03*
X18693650Y-6066700I-95000J0D01*
G01*
X18693650Y-7966700D02*
G75*
G03*
X18693650Y-7966700I-95000J0D01*
G01*
X18693650Y-9866700D02*
G75*
G03*
X18693650Y-9866700I-95000J0D01*
G01*
X19709650Y-6066700D02*
G75*
G03*
X19709650Y-6066700I-95000J0D01*
G01*
X19709650Y-7966700D02*
G75*
G03*
X19709650Y-7966700I-95000J0D01*
G01*
X19709650Y-9866700D02*
G75*
G03*
X19709650Y-9866700I-95000J0D01*
G01*
X20593650Y-6066700D02*
G75*
G03*
X20593650Y-6066700I-95000J0D01*
G01*
X20593650Y-7966700D02*
G75*
G03*
X20593650Y-7966700I-95000J0D01*
G01*
X20593650Y-9866700D02*
G75*
G03*
X20593650Y-9866700I-95000J0D01*
G01*
X21609650Y-6066700D02*
G75*
G03*
X21609650Y-6066700I-95000J0D01*
G01*
X21609650Y-7966700D02*
G75*
G03*
X21609650Y-7966700I-95000J0D01*
G01*
X21609650Y-9866700D02*
G75*
G03*
X21609650Y-9866700I-95000J0D01*
G01*
X8787050Y-10657700D02*
X8787050Y-10877700D01*
X8677050Y-10767700D02*
X8897050Y-10767700D01*
X10230250Y-9805600D02*
X10230250Y-10025600D01*
X10120250Y-9915600D02*
X10340250Y-9915600D01*
X10167188Y-11653311D02*
X10167188Y-11441177D01*
X9955054Y-11441177D01*
X9955054Y-11653311D01*
X10167188Y-11653311D01*
X10704658Y-12076237D02*
X10704658Y-11864103D01*
X10492524Y-11864103D01*
X10492524Y-12076237D01*
X10704658Y-12076237D01*
X11231017Y-5681767D02*
X11231017Y-5469633D01*
X11018883Y-5469633D01*
X11018883Y-5681767D01*
X11231017Y-5681767D01*
X11231717Y-7581267D02*
X11231717Y-7369133D01*
X11019583Y-7369133D01*
X11019583Y-7581267D01*
X11231717Y-7581267D01*
X11231717Y-9481267D02*
X11231717Y-9269133D01*
X11019583Y-9269133D01*
X11019583Y-9481267D01*
X11231717Y-9481267D01*
X11866017Y-5427767D02*
X11866017Y-5215633D01*
X11653883Y-5215633D01*
X11653883Y-5427767D01*
X11866017Y-5427767D01*
X11866717Y-7327267D02*
X11866717Y-7115133D01*
X11654583Y-7115133D01*
X11654583Y-7327267D01*
X11866717Y-7327267D01*
X11866717Y-9227267D02*
X11866717Y-9015133D01*
X11654583Y-9015133D01*
X11654583Y-9227267D01*
X11866717Y-9227267D01*
X11928959Y-11588532D02*
X11928959Y-11376398D01*
X11716825Y-11376398D01*
X11716825Y-11588532D01*
X11928959Y-11588532D01*
X12476582Y-11178837D02*
X12476582Y-10966703D01*
X12264448Y-10966703D01*
X12264448Y-11178837D01*
X12476582Y-11178837D01*
X13131717Y-5443767D02*
X13131717Y-5231633D01*
X12919583Y-5231633D01*
X12919583Y-5443767D01*
X13131717Y-5443767D01*
X13131717Y-7343767D02*
X13131717Y-7131633D01*
X12919583Y-7131633D01*
X12919583Y-7343767D01*
X13131717Y-7343767D01*
X13131717Y-9243767D02*
X13131717Y-9031633D01*
X12919583Y-9031633D01*
X12919583Y-9243767D01*
X13131717Y-9243767D01*
X13766717Y-5189767D02*
X13766717Y-4977633D01*
X13554583Y-4977633D01*
X13554583Y-5189767D01*
X13766717Y-5189767D01*
X13766717Y-7089767D02*
X13766717Y-6877633D01*
X13554583Y-6877633D01*
X13554583Y-7089767D01*
X13766717Y-7089767D01*
X13766717Y-8989767D02*
X13766717Y-8777633D01*
X13554583Y-8777633D01*
X13554583Y-8989767D01*
X13766717Y-8989767D01*
X14081717Y-11206267D02*
X14081717Y-10994133D01*
X13869583Y-10994133D01*
X13869583Y-11206267D01*
X14081717Y-11206267D01*
X14716717Y-10952267D02*
X14716717Y-10740133D01*
X14504583Y-10740133D01*
X14504583Y-10952267D01*
X14716717Y-10952267D01*
X15031717Y-5206267D02*
X15031717Y-4994133D01*
X14819583Y-4994133D01*
X14819583Y-5206267D01*
X15031717Y-5206267D01*
X15031717Y-7106267D02*
X15031717Y-6894133D01*
X14819583Y-6894133D01*
X14819583Y-7106267D01*
X15031717Y-7106267D01*
X15031717Y-9006267D02*
X15031717Y-8794133D01*
X14819583Y-8794133D01*
X14819583Y-9006267D01*
X15031717Y-9006267D01*
X15666717Y-4952267D02*
X15666717Y-4740133D01*
X15454583Y-4740133D01*
X15454583Y-4952267D01*
X15666717Y-4952267D01*
X15666717Y-6852267D02*
X15666717Y-6640133D01*
X15454583Y-6640133D01*
X15454583Y-6852267D01*
X15666717Y-6852267D01*
X15666717Y-8752267D02*
X15666717Y-8540133D01*
X15454583Y-8540133D01*
X15454583Y-8752267D01*
X15666717Y-8752267D01*
X16931717Y-5443767D02*
X16931717Y-5231633D01*
X16719583Y-5231633D01*
X16719583Y-5443767D01*
X16931717Y-5443767D01*
X16931717Y-7343767D02*
X16931717Y-7131633D01*
X16719583Y-7131633D01*
X16719583Y-7343767D01*
X16931717Y-7343767D01*
X16931717Y-9243767D02*
X16931717Y-9031633D01*
X16719583Y-9031633D01*
X16719583Y-9243767D01*
X16931717Y-9243767D01*
X17566717Y-5189767D02*
X17566717Y-4977633D01*
X17354583Y-4977633D01*
X17354583Y-5189767D01*
X17566717Y-5189767D01*
X17566717Y-7089767D02*
X17566717Y-6877633D01*
X17354583Y-6877633D01*
X17354583Y-7089767D01*
X17566717Y-7089767D01*
X17566717Y-8989767D02*
X17566717Y-8777633D01*
X17354583Y-8777633D01*
X17354583Y-8989767D01*
X17566717Y-8989767D01*
X18831717Y-5918767D02*
X18831717Y-5706633D01*
X18619583Y-5706633D01*
X18619583Y-5918767D01*
X18831717Y-5918767D01*
X18831717Y-7818767D02*
X18831717Y-7606633D01*
X18619583Y-7606633D01*
X18619583Y-7818767D01*
X18831717Y-7818767D01*
X18831717Y-9718767D02*
X18831717Y-9506633D01*
X18619583Y-9506633D01*
X18619583Y-9718767D01*
X18831717Y-9718767D01*
X19466717Y-5664767D02*
X19466717Y-5452633D01*
X19254583Y-5452633D01*
X19254583Y-5664767D01*
X19466717Y-5664767D01*
X19466717Y-7564767D02*
X19466717Y-7352633D01*
X19254583Y-7352633D01*
X19254583Y-7564767D01*
X19466717Y-7564767D01*
X19466717Y-9464767D02*
X19466717Y-9252633D01*
X19254583Y-9252633D01*
X19254583Y-9464767D01*
X19466717Y-9464767D01*
X20731717Y-5918767D02*
X20731717Y-5706633D01*
X20519583Y-5706633D01*
X20519583Y-5918767D01*
X20731717Y-5918767D01*
X20731717Y-7818767D02*
X20731717Y-7606633D01*
X20519583Y-7606633D01*
X20519583Y-7818767D01*
X20731717Y-7818767D01*
X20731717Y-9718767D02*
X20731717Y-9506633D01*
X20519583Y-9506633D01*
X20519583Y-9718767D01*
X20731717Y-9718767D01*
X21366717Y-5664767D02*
X21366717Y-5452633D01*
X21154583Y-5452633D01*
X21154583Y-5664767D01*
X21366717Y-5664767D01*
X21366717Y-7564767D02*
X21366717Y-7352633D01*
X21154583Y-7352633D01*
X21154583Y-7564767D01*
X21366717Y-7564767D01*
X21366717Y-9464767D02*
X21366717Y-9252633D01*
X21154583Y-9252633D01*
X21154583Y-9464767D01*
X21366717Y-9464767D01*
X10031650Y-12209200D02*
X10236650Y-12004200D01*
X10031650Y-11799200D01*
X9826650Y-12004200D01*
X10031650Y-12209200D01*
X11505950Y-6034700D02*
X11710950Y-5829700D01*
X11505950Y-5624700D01*
X11300950Y-5829700D01*
X11505950Y-6034700D01*
X11506650Y-7934200D02*
X11711650Y-7729200D01*
X11506650Y-7524200D01*
X11301650Y-7729200D01*
X11506650Y-7934200D01*
X11506650Y-9834200D02*
X11711650Y-9629200D01*
X11506650Y-9424200D01*
X11301650Y-9629200D01*
X11506650Y-9834200D01*
X12256650Y-11834200D02*
X12461650Y-11629200D01*
X12256650Y-11424200D01*
X12051650Y-11629200D01*
X12256650Y-11834200D01*
X13406650Y-5796700D02*
X13611650Y-5591700D01*
X13406650Y-5386700D01*
X13201650Y-5591700D01*
X13406650Y-5796700D01*
X13406650Y-7696700D02*
X13611650Y-7491700D01*
X13406650Y-7286700D01*
X13201650Y-7491700D01*
X13406650Y-7696700D01*
X13406650Y-9596700D02*
X13611650Y-9391700D01*
X13406650Y-9186700D01*
X13201650Y-9391700D01*
X13406650Y-9596700D01*
X14356650Y-11559200D02*
X14561650Y-11354200D01*
X14356650Y-11149200D01*
X14151650Y-11354200D01*
X14356650Y-11559200D01*
X15306650Y-5559200D02*
X15511650Y-5354200D01*
X15306650Y-5149200D01*
X15101650Y-5354200D01*
X15306650Y-5559200D01*
X15306650Y-7459200D02*
X15511650Y-7254200D01*
X15306650Y-7049200D01*
X15101650Y-7254200D01*
X15306650Y-7459200D01*
X15306650Y-9359200D02*
X15511650Y-9154200D01*
X15306650Y-8949200D01*
X15101650Y-9154200D01*
X15306650Y-9359200D01*
X17206650Y-5796700D02*
X17411650Y-5591700D01*
X17206650Y-5386700D01*
X17001650Y-5591700D01*
X17206650Y-5796700D01*
X17206650Y-7696700D02*
X17411650Y-7491700D01*
X17206650Y-7286700D01*
X17001650Y-7491700D01*
X17206650Y-7696700D01*
X17206650Y-9596700D02*
X17411650Y-9391700D01*
X17206650Y-9186700D01*
X17001650Y-9391700D01*
X17206650Y-9596700D01*
X19106650Y-6271700D02*
X19311650Y-6066700D01*
X19106650Y-5861700D01*
X18901650Y-6066700D01*
X19106650Y-6271700D01*
X19106650Y-8171700D02*
X19311650Y-7966700D01*
X19106650Y-7761700D01*
X18901650Y-7966700D01*
X19106650Y-8171700D01*
X19106650Y-10071700D02*
X19311650Y-9866700D01*
X19106650Y-9661700D01*
X18901650Y-9866700D01*
X19106650Y-10071700D01*
X21006650Y-6271700D02*
X21211650Y-6066700D01*
X21006650Y-5861700D01*
X20801650Y-6066700D01*
X21006650Y-6271700D01*
X21006650Y-8171700D02*
X21211650Y-7966700D01*
X21006650Y-7761700D01*
X20801650Y-7966700D01*
X21006650Y-8171700D01*
X21006650Y-10071700D02*
X21211650Y-9866700D01*
X21006650Y-9661700D01*
X20801650Y-9866700D01*
X21006650Y-10071700D01*
X10869150Y-11188700D02*
X11299150Y-11618700D01*
X11299150Y-11188700D02*
X10869150Y-11618700D01*
X11299150Y-11403700D02*
G75*
G03*
X11299150Y-11403700I-215000J0D01*
G01*
X12244650Y-6451750D02*
X12674650Y-6881750D01*
X12674650Y-6451750D02*
X12244650Y-6881750D01*
X12674650Y-6666750D02*
G75*
G03*
X12674650Y-6666750I-215000J0D01*
G01*
X15525750Y-10427250D02*
X15955750Y-10857250D01*
X15955750Y-10427250D02*
X15525750Y-10857250D01*
X15955750Y-10642250D02*
G75*
G03*
X15955750Y-10642250I-215000J0D01*
G01*
X19840150Y-6800750D02*
X20270150Y-7230750D01*
X20270150Y-6800750D02*
X19840150Y-7230750D01*
X20270150Y-7015750D02*
G75*
G03*
X20270150Y-7015750I-215000J0D01*
G01*
X19840150Y-8700750D02*
X20270150Y-9130750D01*
X20270150Y-8700750D02*
X19840150Y-9130750D01*
X20270150Y-8915750D02*
G75*
G03*
X20270150Y-8915750I-215000J0D01*
G01*
D12*
X8816690Y-14101630D02*
X8816690Y-13801630D01*
X8888118Y-13801630D01*
X8930975Y-13815915D01*
X8959547Y-13844487D01*
X8973833Y-13873058D01*
X8988118Y-13930201D01*
X8988118Y-13973058D01*
X8973833Y-14030201D01*
X8959547Y-14058772D01*
X8930975Y-14087344D01*
X8888118Y-14101630D01*
X8816690Y-14101630D01*
X9116690Y-14101630D02*
X9116690Y-13901630D01*
X9116690Y-13958772D02*
X9130975Y-13930201D01*
X9145261Y-13915915D01*
X9173833Y-13901630D01*
X9202404Y-13901630D01*
X9302404Y-14101630D02*
X9302404Y-13901630D01*
X9302404Y-13801630D02*
X9288118Y-13815915D01*
X9302404Y-13830201D01*
X9316690Y-13815915D01*
X9302404Y-13801630D01*
X9302404Y-13830201D01*
X9488118Y-14101630D02*
X9459547Y-14087344D01*
X9445261Y-14058772D01*
X9445261Y-13801630D01*
X9645261Y-14101630D02*
X9616690Y-14087344D01*
X9602404Y-14058772D01*
X9602404Y-13801630D01*
X9988118Y-14101630D02*
X9988118Y-13801630D01*
X10088118Y-14015915D01*
X10188118Y-13801630D01*
X10188118Y-14101630D01*
X10459547Y-14101630D02*
X10459547Y-13944487D01*
X10445261Y-13915915D01*
X10416690Y-13901630D01*
X10359547Y-13901630D01*
X10330975Y-13915915D01*
X10459547Y-14087344D02*
X10430975Y-14101630D01*
X10359547Y-14101630D01*
X10330975Y-14087344D01*
X10316690Y-14058772D01*
X10316690Y-14030201D01*
X10330975Y-14001630D01*
X10359547Y-13987344D01*
X10430975Y-13987344D01*
X10459547Y-13973058D01*
X10602404Y-13901630D02*
X10602404Y-14201630D01*
X10602404Y-13915915D02*
X10630975Y-13901630D01*
X10688118Y-13901630D01*
X10716690Y-13915915D01*
X10730975Y-13930201D01*
X10745261Y-13958772D01*
X10745261Y-14044487D01*
X10730975Y-14073058D01*
X10716690Y-14087344D01*
X10688118Y-14101630D01*
X10630975Y-14101630D01*
X10602404Y-14087344D01*
X10873833Y-14073058D02*
X10888118Y-14087344D01*
X10873833Y-14101630D01*
X10859547Y-14087344D01*
X10873833Y-14073058D01*
X10873833Y-14101630D01*
X10873833Y-13915915D02*
X10888118Y-13930201D01*
X10873833Y-13944487D01*
X10859547Y-13930201D01*
X10873833Y-13915915D01*
X10873833Y-13944487D01*
X8410261Y-14535915D02*
X8530261Y-14655915D01*
X8530261Y-14535915D02*
X8410261Y-14655915D01*
X8973833Y-14731630D02*
X8802404Y-14731630D01*
X8888118Y-14731630D02*
X8888118Y-14431630D01*
X8859547Y-14474487D01*
X8830975Y-14503058D01*
X8802404Y-14517344D01*
X9102404Y-14703058D02*
X9116690Y-14717344D01*
X9102404Y-14731630D01*
X9088118Y-14717344D01*
X9102404Y-14703058D01*
X9102404Y-14731630D01*
X9230975Y-14460201D02*
X9245261Y-14445915D01*
X9273833Y-14431630D01*
X9345261Y-14431630D01*
X9373833Y-14445915D01*
X9388118Y-14460201D01*
X9402404Y-14488772D01*
X9402404Y-14517344D01*
X9388118Y-14560201D01*
X9216690Y-14731630D01*
X9402404Y-14731630D01*
X9588118Y-14431630D02*
X9616690Y-14431630D01*
X9645261Y-14445915D01*
X9659547Y-14460201D01*
X9673833Y-14488772D01*
X9688118Y-14545915D01*
X9688118Y-14617344D01*
X9673833Y-14674487D01*
X9659547Y-14703058D01*
X9645261Y-14717344D01*
X9616690Y-14731630D01*
X9588118Y-14731630D01*
X9559547Y-14717344D01*
X9545261Y-14703058D01*
X9530975Y-14674487D01*
X9516690Y-14617344D01*
X9516690Y-14545915D01*
X9530975Y-14488772D01*
X9545261Y-14460201D01*
X9559547Y-14445915D01*
X9588118Y-14431630D01*
X9873833Y-14431630D02*
X9902404Y-14431630D01*
X9930975Y-14445915D01*
X9945261Y-14460201D01*
X9959547Y-14488772D01*
X9973833Y-14545915D01*
X9973833Y-14617344D01*
X9959547Y-14674487D01*
X9945261Y-14703058D01*
X9930975Y-14717344D01*
X9902404Y-14731630D01*
X9873833Y-14731630D01*
X9845261Y-14717344D01*
X9830975Y-14703058D01*
X9816690Y-14674487D01*
X9802404Y-14617344D01*
X9802404Y-14545915D01*
X9816690Y-14488772D01*
X9830975Y-14460201D01*
X9845261Y-14445915D01*
X9873833Y-14431630D01*
X10102404Y-14731630D02*
X10102404Y-14531630D01*
X10102404Y-14560201D02*
X10116690Y-14545915D01*
X10145261Y-14531630D01*
X10188118Y-14531630D01*
X10216690Y-14545915D01*
X10230975Y-14574487D01*
X10230975Y-14731630D01*
X10230975Y-14574487D02*
X10245261Y-14545915D01*
X10273833Y-14531630D01*
X10316690Y-14531630D01*
X10345261Y-14545915D01*
X10359547Y-14574487D01*
X10359547Y-14731630D01*
X10502404Y-14731630D02*
X10502404Y-14531630D01*
X10502404Y-14560201D02*
X10516690Y-14545915D01*
X10545261Y-14531630D01*
X10588118Y-14531630D01*
X10616690Y-14545915D01*
X10630975Y-14574487D01*
X10630975Y-14731630D01*
X10630975Y-14574487D02*
X10645261Y-14545915D01*
X10673833Y-14531630D01*
X10716690Y-14531630D01*
X10745261Y-14545915D01*
X10759547Y-14574487D01*
X10759547Y-14731630D01*
X11345261Y-14417344D02*
X11088118Y-14803058D01*
X11730975Y-14431630D02*
X11759547Y-14431630D01*
X11788118Y-14445915D01*
X11802404Y-14460201D01*
X11816690Y-14488772D01*
X11830975Y-14545915D01*
X11830975Y-14617344D01*
X11816690Y-14674487D01*
X11802404Y-14703058D01*
X11788118Y-14717344D01*
X11759547Y-14731630D01*
X11730975Y-14731630D01*
X11702404Y-14717344D01*
X11688118Y-14703058D01*
X11673832Y-14674487D01*
X11659547Y-14617344D01*
X11659547Y-14545915D01*
X11673832Y-14488772D01*
X11688118Y-14460201D01*
X11702404Y-14445915D01*
X11730975Y-14431630D01*
X11959547Y-14703058D02*
X11973832Y-14717344D01*
X11959547Y-14731630D01*
X11945261Y-14717344D01*
X11959547Y-14703058D01*
X11959547Y-14731630D01*
X12159547Y-14431630D02*
X12188118Y-14431630D01*
X12216690Y-14445915D01*
X12230975Y-14460201D01*
X12245261Y-14488772D01*
X12259547Y-14545915D01*
X12259547Y-14617344D01*
X12245261Y-14674487D01*
X12230975Y-14703058D01*
X12216690Y-14717344D01*
X12188118Y-14731630D01*
X12159547Y-14731630D01*
X12130975Y-14717344D01*
X12116690Y-14703058D01*
X12102404Y-14674487D01*
X12088118Y-14617344D01*
X12088118Y-14545915D01*
X12102404Y-14488772D01*
X12116690Y-14460201D01*
X12130975Y-14445915D01*
X12159547Y-14431630D01*
X12516690Y-14531630D02*
X12516690Y-14731630D01*
X12445261Y-14417344D02*
X12373832Y-14631630D01*
X12559547Y-14631630D01*
X12645261Y-14431630D02*
X12845261Y-14431630D01*
X12716690Y-14731630D01*
X12945261Y-14460201D02*
X12959547Y-14445915D01*
X12988118Y-14431630D01*
X13059547Y-14431630D01*
X13088118Y-14445915D01*
X13102404Y-14460201D01*
X13116690Y-14488772D01*
X13116690Y-14517344D01*
X13102404Y-14560201D01*
X12930975Y-14731630D01*
X13116690Y-14731630D01*
X13230975Y-14431630D02*
X13230975Y-14488772D01*
X13345261Y-14431630D02*
X13345261Y-14488772D01*
X13788118Y-14845915D02*
X13773832Y-14831630D01*
X13745261Y-14788772D01*
X13730975Y-14760201D01*
X13716690Y-14717344D01*
X13702404Y-14645915D01*
X13702404Y-14588772D01*
X13716690Y-14517344D01*
X13730975Y-14474487D01*
X13745261Y-14445915D01*
X13773832Y-14403058D01*
X13788118Y-14388772D01*
X13888118Y-14460201D02*
X13902404Y-14445915D01*
X13930975Y-14431630D01*
X14002404Y-14431630D01*
X14030975Y-14445915D01*
X14045261Y-14460201D01*
X14059547Y-14488772D01*
X14059547Y-14517344D01*
X14045261Y-14560201D01*
X13873832Y-14731630D01*
X14059547Y-14731630D01*
X14416690Y-14731630D02*
X14416690Y-14431630D01*
X14545261Y-14731630D02*
X14545261Y-14574487D01*
X14530975Y-14545915D01*
X14502404Y-14531630D01*
X14459547Y-14531630D01*
X14430975Y-14545915D01*
X14416690Y-14560201D01*
X14730975Y-14731630D02*
X14702404Y-14717344D01*
X14688118Y-14703058D01*
X14673832Y-14674487D01*
X14673832Y-14588772D01*
X14688118Y-14560201D01*
X14702404Y-14545915D01*
X14730975Y-14531630D01*
X14773832Y-14531630D01*
X14802404Y-14545915D01*
X14816690Y-14560201D01*
X14830975Y-14588772D01*
X14830975Y-14674487D01*
X14816690Y-14703058D01*
X14802404Y-14717344D01*
X14773832Y-14731630D01*
X14730975Y-14731630D01*
X15002404Y-14731630D02*
X14973832Y-14717344D01*
X14959547Y-14688772D01*
X14959547Y-14431630D01*
X15230975Y-14717344D02*
X15202404Y-14731630D01*
X15145261Y-14731630D01*
X15116690Y-14717344D01*
X15102404Y-14688772D01*
X15102404Y-14574487D01*
X15116690Y-14545915D01*
X15145261Y-14531630D01*
X15202404Y-14531630D01*
X15230975Y-14545915D01*
X15245261Y-14574487D01*
X15245261Y-14603058D01*
X15102404Y-14631630D01*
X15359547Y-14717344D02*
X15388118Y-14731630D01*
X15445261Y-14731630D01*
X15473832Y-14717344D01*
X15488118Y-14688772D01*
X15488118Y-14674487D01*
X15473832Y-14645915D01*
X15445261Y-14631630D01*
X15402404Y-14631630D01*
X15373832Y-14617344D01*
X15359547Y-14588772D01*
X15359547Y-14574487D01*
X15373832Y-14545915D01*
X15402404Y-14531630D01*
X15445261Y-14531630D01*
X15473832Y-14545915D01*
X15588118Y-14845915D02*
X15602404Y-14831630D01*
X15630975Y-14788772D01*
X15645261Y-14760201D01*
X15659547Y-14717344D01*
X15673832Y-14645915D01*
X15673832Y-14588772D01*
X15659547Y-14517344D01*
X15645261Y-14474487D01*
X15630975Y-14445915D01*
X15602404Y-14403058D01*
X15588118Y-14388772D01*
X16130975Y-14845915D02*
X16116690Y-14831630D01*
X16088118Y-14788772D01*
X16073832Y-14760201D01*
X16059547Y-14717344D01*
X16045261Y-14645915D01*
X16045261Y-14588772D01*
X16059547Y-14517344D01*
X16073832Y-14474487D01*
X16088118Y-14445915D01*
X16116690Y-14403058D01*
X16130975Y-14388772D01*
X16245261Y-14531630D02*
X16245261Y-14731630D01*
X16245261Y-14560201D02*
X16259547Y-14545915D01*
X16288118Y-14531630D01*
X16330975Y-14531630D01*
X16359547Y-14545915D01*
X16373832Y-14574487D01*
X16373832Y-14731630D01*
X16559547Y-14731630D02*
X16530975Y-14717344D01*
X16516690Y-14703058D01*
X16502404Y-14674487D01*
X16502404Y-14588772D01*
X16516690Y-14560201D01*
X16530975Y-14545915D01*
X16559547Y-14531630D01*
X16602404Y-14531630D01*
X16630975Y-14545915D01*
X16645261Y-14560201D01*
X16659547Y-14588772D01*
X16659547Y-14674487D01*
X16645261Y-14703058D01*
X16630975Y-14717344D01*
X16602404Y-14731630D01*
X16559547Y-14731630D01*
X16745261Y-14531630D02*
X16859547Y-14531630D01*
X16788118Y-14431630D02*
X16788118Y-14688772D01*
X16802404Y-14717344D01*
X16830975Y-14731630D01*
X16859547Y-14731630D01*
X17188118Y-14531630D02*
X17188118Y-14831630D01*
X17188118Y-14545915D02*
X17216690Y-14531630D01*
X17273833Y-14531630D01*
X17302404Y-14545915D01*
X17316690Y-14560201D01*
X17330975Y-14588772D01*
X17330975Y-14674487D01*
X17316690Y-14703058D01*
X17302404Y-14717344D01*
X17273833Y-14731630D01*
X17216690Y-14731630D01*
X17188118Y-14717344D01*
X17502404Y-14731630D02*
X17473833Y-14717344D01*
X17459547Y-14688772D01*
X17459547Y-14431630D01*
X17745261Y-14731630D02*
X17745261Y-14574487D01*
X17730975Y-14545915D01*
X17702404Y-14531630D01*
X17645261Y-14531630D01*
X17616690Y-14545915D01*
X17745261Y-14717344D02*
X17716690Y-14731630D01*
X17645261Y-14731630D01*
X17616690Y-14717344D01*
X17602404Y-14688772D01*
X17602404Y-14660201D01*
X17616690Y-14631630D01*
X17645261Y-14617344D01*
X17716690Y-14617344D01*
X17745261Y-14603058D01*
X17845261Y-14531630D02*
X17959547Y-14531630D01*
X17888118Y-14431630D02*
X17888118Y-14688772D01*
X17902404Y-14717344D01*
X17930975Y-14731630D01*
X17959547Y-14731630D01*
X18173833Y-14717344D02*
X18145261Y-14731630D01*
X18088118Y-14731630D01*
X18059547Y-14717344D01*
X18045261Y-14688772D01*
X18045261Y-14574487D01*
X18059547Y-14545915D01*
X18088118Y-14531630D01*
X18145261Y-14531630D01*
X18173833Y-14545915D01*
X18188118Y-14574487D01*
X18188118Y-14603058D01*
X18045261Y-14631630D01*
X18445261Y-14731630D02*
X18445261Y-14431630D01*
X18445261Y-14717344D02*
X18416690Y-14731630D01*
X18359547Y-14731630D01*
X18330975Y-14717344D01*
X18316690Y-14703058D01*
X18302404Y-14674487D01*
X18302404Y-14588772D01*
X18316690Y-14560201D01*
X18330975Y-14545915D01*
X18359547Y-14531630D01*
X18416690Y-14531630D01*
X18445261Y-14545915D01*
X18559547Y-14845915D02*
X18573833Y-14831630D01*
X18602404Y-14788772D01*
X18616690Y-14760201D01*
X18630975Y-14717344D01*
X18645261Y-14645915D01*
X18645261Y-14588772D01*
X18630975Y-14517344D01*
X18616690Y-14474487D01*
X18602404Y-14445915D01*
X18573833Y-14403058D01*
X18559547Y-14388772D01*
X8530261Y-14991915D02*
G75*
G03*
X8530261Y-14991915I-95000J0D01*
G01*
X8973833Y-15127630D02*
X8802404Y-15127630D01*
X8888118Y-15127630D02*
X8888118Y-14827630D01*
X8859547Y-14870487D01*
X8830975Y-14899058D01*
X8802404Y-14913344D01*
X9102404Y-15099058D02*
X9116690Y-15113344D01*
X9102404Y-15127630D01*
X9088118Y-15113344D01*
X9102404Y-15099058D01*
X9102404Y-15127630D01*
X9259547Y-15127630D02*
X9316690Y-15127630D01*
X9345261Y-15113344D01*
X9359547Y-15099058D01*
X9388118Y-15056201D01*
X9402404Y-14999058D01*
X9402404Y-14884772D01*
X9388118Y-14856201D01*
X9373833Y-14841915D01*
X9345261Y-14827630D01*
X9288118Y-14827630D01*
X9259547Y-14841915D01*
X9245261Y-14856201D01*
X9230975Y-14884772D01*
X9230975Y-14956201D01*
X9245261Y-14984772D01*
X9259547Y-14999058D01*
X9288118Y-15013344D01*
X9345261Y-15013344D01*
X9373833Y-14999058D01*
X9388118Y-14984772D01*
X9402404Y-14956201D01*
X9588118Y-14827630D02*
X9616690Y-14827630D01*
X9645261Y-14841915D01*
X9659547Y-14856201D01*
X9673833Y-14884772D01*
X9688118Y-14941915D01*
X9688118Y-15013344D01*
X9673833Y-15070487D01*
X9659547Y-15099058D01*
X9645261Y-15113344D01*
X9616690Y-15127630D01*
X9588118Y-15127630D01*
X9559547Y-15113344D01*
X9545261Y-15099058D01*
X9530975Y-15070487D01*
X9516690Y-15013344D01*
X9516690Y-14941915D01*
X9530975Y-14884772D01*
X9545261Y-14856201D01*
X9559547Y-14841915D01*
X9588118Y-14827630D01*
X9873833Y-14827630D02*
X9902404Y-14827630D01*
X9930975Y-14841915D01*
X9945261Y-14856201D01*
X9959547Y-14884772D01*
X9973833Y-14941915D01*
X9973833Y-15013344D01*
X9959547Y-15070487D01*
X9945261Y-15099058D01*
X9930975Y-15113344D01*
X9902404Y-15127630D01*
X9873833Y-15127630D01*
X9845261Y-15113344D01*
X9830975Y-15099058D01*
X9816690Y-15070487D01*
X9802404Y-15013344D01*
X9802404Y-14941915D01*
X9816690Y-14884772D01*
X9830975Y-14856201D01*
X9845261Y-14841915D01*
X9873833Y-14827630D01*
X10102404Y-15127630D02*
X10102404Y-14927630D01*
X10102404Y-14956201D02*
X10116690Y-14941915D01*
X10145261Y-14927630D01*
X10188118Y-14927630D01*
X10216690Y-14941915D01*
X10230975Y-14970487D01*
X10230975Y-15127630D01*
X10230975Y-14970487D02*
X10245261Y-14941915D01*
X10273833Y-14927630D01*
X10316690Y-14927630D01*
X10345261Y-14941915D01*
X10359547Y-14970487D01*
X10359547Y-15127630D01*
X10502404Y-15127630D02*
X10502404Y-14927630D01*
X10502404Y-14956201D02*
X10516690Y-14941915D01*
X10545261Y-14927630D01*
X10588118Y-14927630D01*
X10616690Y-14941915D01*
X10630975Y-14970487D01*
X10630975Y-15127630D01*
X10630975Y-14970487D02*
X10645261Y-14941915D01*
X10673833Y-14927630D01*
X10716690Y-14927630D01*
X10745261Y-14941915D01*
X10759547Y-14970487D01*
X10759547Y-15127630D01*
X11345261Y-14813344D02*
X11088118Y-15199058D01*
X11730975Y-14827630D02*
X11759547Y-14827630D01*
X11788118Y-14841915D01*
X11802404Y-14856201D01*
X11816690Y-14884772D01*
X11830975Y-14941915D01*
X11830975Y-15013344D01*
X11816690Y-15070487D01*
X11802404Y-15099058D01*
X11788118Y-15113344D01*
X11759547Y-15127630D01*
X11730975Y-15127630D01*
X11702404Y-15113344D01*
X11688118Y-15099058D01*
X11673832Y-15070487D01*
X11659547Y-15013344D01*
X11659547Y-14941915D01*
X11673832Y-14884772D01*
X11688118Y-14856201D01*
X11702404Y-14841915D01*
X11730975Y-14827630D01*
X11959547Y-15099058D02*
X11973832Y-15113344D01*
X11959547Y-15127630D01*
X11945261Y-15113344D01*
X11959547Y-15099058D01*
X11959547Y-15127630D01*
X12159547Y-14827630D02*
X12188118Y-14827630D01*
X12216690Y-14841915D01*
X12230975Y-14856201D01*
X12245261Y-14884772D01*
X12259547Y-14941915D01*
X12259547Y-15013344D01*
X12245261Y-15070487D01*
X12230975Y-15099058D01*
X12216690Y-15113344D01*
X12188118Y-15127630D01*
X12159547Y-15127630D01*
X12130975Y-15113344D01*
X12116690Y-15099058D01*
X12102404Y-15070487D01*
X12088118Y-15013344D01*
X12088118Y-14941915D01*
X12102404Y-14884772D01*
X12116690Y-14856201D01*
X12130975Y-14841915D01*
X12159547Y-14827630D01*
X12359547Y-14827630D02*
X12559547Y-14827630D01*
X12430975Y-15127630D01*
X12802404Y-14927630D02*
X12802404Y-15127630D01*
X12730975Y-14813344D02*
X12659547Y-15027630D01*
X12845261Y-15027630D01*
X13002404Y-14956201D02*
X12973832Y-14941915D01*
X12959547Y-14927630D01*
X12945261Y-14899058D01*
X12945261Y-14884772D01*
X12959547Y-14856201D01*
X12973832Y-14841915D01*
X13002404Y-14827630D01*
X13059547Y-14827630D01*
X13088118Y-14841915D01*
X13102404Y-14856201D01*
X13116690Y-14884772D01*
X13116690Y-14899058D01*
X13102404Y-14927630D01*
X13088118Y-14941915D01*
X13059547Y-14956201D01*
X13002404Y-14956201D01*
X12973832Y-14970487D01*
X12959547Y-14984772D01*
X12945261Y-15013344D01*
X12945261Y-15070487D01*
X12959547Y-15099058D01*
X12973832Y-15113344D01*
X13002404Y-15127630D01*
X13059547Y-15127630D01*
X13088118Y-15113344D01*
X13102404Y-15099058D01*
X13116690Y-15070487D01*
X13116690Y-15013344D01*
X13102404Y-14984772D01*
X13088118Y-14970487D01*
X13059547Y-14956201D01*
X13230975Y-14827630D02*
X13230975Y-14884772D01*
X13345261Y-14827630D02*
X13345261Y-14884772D01*
X13788118Y-15241915D02*
X13773832Y-15227630D01*
X13745261Y-15184772D01*
X13730975Y-15156201D01*
X13716690Y-15113344D01*
X13702404Y-15041915D01*
X13702404Y-14984772D01*
X13716690Y-14913344D01*
X13730975Y-14870487D01*
X13745261Y-14841915D01*
X13773832Y-14799058D01*
X13788118Y-14784772D01*
X14030975Y-14927630D02*
X14030975Y-15127630D01*
X13959547Y-14813344D02*
X13888118Y-15027630D01*
X14073832Y-15027630D01*
X14173832Y-14856201D02*
X14188118Y-14841915D01*
X14216690Y-14827630D01*
X14288118Y-14827630D01*
X14316690Y-14841915D01*
X14330975Y-14856201D01*
X14345261Y-14884772D01*
X14345261Y-14913344D01*
X14330975Y-14956201D01*
X14159547Y-15127630D01*
X14345261Y-15127630D01*
X14702404Y-15127630D02*
X14702404Y-14827630D01*
X14830975Y-15127630D02*
X14830975Y-14970487D01*
X14816690Y-14941915D01*
X14788118Y-14927630D01*
X14745261Y-14927630D01*
X14716690Y-14941915D01*
X14702404Y-14956201D01*
X15016690Y-15127630D02*
X14988118Y-15113344D01*
X14973832Y-15099058D01*
X14959547Y-15070487D01*
X14959547Y-14984772D01*
X14973832Y-14956201D01*
X14988118Y-14941915D01*
X15016690Y-14927630D01*
X15059547Y-14927630D01*
X15088118Y-14941915D01*
X15102404Y-14956201D01*
X15116690Y-14984772D01*
X15116690Y-15070487D01*
X15102404Y-15099058D01*
X15088118Y-15113344D01*
X15059547Y-15127630D01*
X15016690Y-15127630D01*
X15288118Y-15127630D02*
X15259547Y-15113344D01*
X15245261Y-15084772D01*
X15245261Y-14827630D01*
X15516690Y-15113344D02*
X15488118Y-15127630D01*
X15430975Y-15127630D01*
X15402404Y-15113344D01*
X15388118Y-15084772D01*
X15388118Y-14970487D01*
X15402404Y-14941915D01*
X15430975Y-14927630D01*
X15488118Y-14927630D01*
X15516690Y-14941915D01*
X15530975Y-14970487D01*
X15530975Y-14999058D01*
X15388118Y-15027630D01*
X15645261Y-15113344D02*
X15673832Y-15127630D01*
X15730975Y-15127630D01*
X15759547Y-15113344D01*
X15773832Y-15084772D01*
X15773832Y-15070487D01*
X15759547Y-15041915D01*
X15730975Y-15027630D01*
X15688118Y-15027630D01*
X15659547Y-15013344D01*
X15645261Y-14984772D01*
X15645261Y-14970487D01*
X15659547Y-14941915D01*
X15688118Y-14927630D01*
X15730975Y-14927630D01*
X15759547Y-14941915D01*
X15873832Y-15241915D02*
X15888118Y-15227630D01*
X15916690Y-15184772D01*
X15930975Y-15156201D01*
X15945261Y-15113344D01*
X15959547Y-15041915D01*
X15959547Y-14984772D01*
X15945261Y-14913344D01*
X15930975Y-14870487D01*
X15916690Y-14841915D01*
X15888118Y-14799058D01*
X15873832Y-14784772D01*
X16416690Y-15241915D02*
X16402404Y-15227630D01*
X16373832Y-15184772D01*
X16359547Y-15156201D01*
X16345261Y-15113344D01*
X16330975Y-15041915D01*
X16330975Y-14984772D01*
X16345261Y-14913344D01*
X16359547Y-14870487D01*
X16373832Y-14841915D01*
X16402404Y-14799058D01*
X16416690Y-14784772D01*
X16530975Y-14927630D02*
X16530975Y-15127630D01*
X16530975Y-14956201D02*
X16545261Y-14941915D01*
X16573832Y-14927630D01*
X16616690Y-14927630D01*
X16645261Y-14941915D01*
X16659547Y-14970487D01*
X16659547Y-15127630D01*
X16845261Y-15127630D02*
X16816690Y-15113344D01*
X16802404Y-15099058D01*
X16788118Y-15070487D01*
X16788118Y-14984772D01*
X16802404Y-14956201D01*
X16816690Y-14941915D01*
X16845261Y-14927630D01*
X16888118Y-14927630D01*
X16916690Y-14941915D01*
X16930975Y-14956201D01*
X16945261Y-14984772D01*
X16945261Y-15070487D01*
X16930975Y-15099058D01*
X16916690Y-15113344D01*
X16888118Y-15127630D01*
X16845261Y-15127630D01*
X17030975Y-14927630D02*
X17145261Y-14927630D01*
X17073833Y-14827630D02*
X17073833Y-15084772D01*
X17088118Y-15113344D01*
X17116690Y-15127630D01*
X17145261Y-15127630D01*
X17473833Y-14927630D02*
X17473833Y-15227630D01*
X17473833Y-14941915D02*
X17502404Y-14927630D01*
X17559547Y-14927630D01*
X17588118Y-14941915D01*
X17602404Y-14956201D01*
X17616690Y-14984772D01*
X17616690Y-15070487D01*
X17602404Y-15099058D01*
X17588118Y-15113344D01*
X17559547Y-15127630D01*
X17502404Y-15127630D01*
X17473833Y-15113344D01*
X17788118Y-15127630D02*
X17759547Y-15113344D01*
X17745261Y-15084772D01*
X17745261Y-14827630D01*
X18030975Y-15127630D02*
X18030975Y-14970487D01*
X18016690Y-14941915D01*
X17988118Y-14927630D01*
X17930975Y-14927630D01*
X17902404Y-14941915D01*
X18030975Y-15113344D02*
X18002404Y-15127630D01*
X17930975Y-15127630D01*
X17902404Y-15113344D01*
X17888118Y-15084772D01*
X17888118Y-15056201D01*
X17902404Y-15027630D01*
X17930975Y-15013344D01*
X18002404Y-15013344D01*
X18030975Y-14999058D01*
X18130975Y-14927630D02*
X18245261Y-14927630D01*
X18173833Y-14827630D02*
X18173833Y-15084772D01*
X18188118Y-15113344D01*
X18216690Y-15127630D01*
X18245261Y-15127630D01*
X18459547Y-15113344D02*
X18430975Y-15127630D01*
X18373833Y-15127630D01*
X18345261Y-15113344D01*
X18330975Y-15084772D01*
X18330975Y-14970487D01*
X18345261Y-14941915D01*
X18373833Y-14927630D01*
X18430975Y-14927630D01*
X18459547Y-14941915D01*
X18473833Y-14970487D01*
X18473833Y-14999058D01*
X18330975Y-15027630D01*
X18730975Y-15127630D02*
X18730975Y-14827630D01*
X18730975Y-15113344D02*
X18702404Y-15127630D01*
X18645261Y-15127630D01*
X18616690Y-15113344D01*
X18602404Y-15099058D01*
X18588118Y-15070487D01*
X18588118Y-14984772D01*
X18602404Y-14956201D01*
X18616690Y-14941915D01*
X18645261Y-14927630D01*
X18702404Y-14927630D01*
X18730975Y-14941915D01*
X18845261Y-15241915D02*
X18859547Y-15227630D01*
X18888118Y-15184772D01*
X18902404Y-15156201D01*
X18916690Y-15113344D01*
X18930975Y-15041915D01*
X18930975Y-14984772D01*
X18916690Y-14913344D01*
X18902404Y-14870487D01*
X18888118Y-14841915D01*
X18859547Y-14799058D01*
X18845261Y-14784772D01*
X8420261Y-15277915D02*
X8420261Y-15497915D01*
X8310261Y-15387915D02*
X8530261Y-15387915D01*
X8802404Y-15252201D02*
X8816690Y-15237915D01*
X8845261Y-15223630D01*
X8916690Y-15223630D01*
X8945261Y-15237915D01*
X8959547Y-15252201D01*
X8973833Y-15280772D01*
X8973833Y-15309344D01*
X8959547Y-15352201D01*
X8788118Y-15523630D01*
X8973833Y-15523630D01*
X9102404Y-15495058D02*
X9116690Y-15509344D01*
X9102404Y-15523630D01*
X9088118Y-15509344D01*
X9102404Y-15495058D01*
X9102404Y-15523630D01*
X9230975Y-15252201D02*
X9245261Y-15237915D01*
X9273833Y-15223630D01*
X9345261Y-15223630D01*
X9373833Y-15237915D01*
X9388118Y-15252201D01*
X9402404Y-15280772D01*
X9402404Y-15309344D01*
X9388118Y-15352201D01*
X9216690Y-15523630D01*
X9402404Y-15523630D01*
X9588118Y-15223630D02*
X9616690Y-15223630D01*
X9645261Y-15237915D01*
X9659547Y-15252201D01*
X9673833Y-15280772D01*
X9688118Y-15337915D01*
X9688118Y-15409344D01*
X9673833Y-15466487D01*
X9659547Y-15495058D01*
X9645261Y-15509344D01*
X9616690Y-15523630D01*
X9588118Y-15523630D01*
X9559547Y-15509344D01*
X9545261Y-15495058D01*
X9530975Y-15466487D01*
X9516690Y-15409344D01*
X9516690Y-15337915D01*
X9530975Y-15280772D01*
X9545261Y-15252201D01*
X9559547Y-15237915D01*
X9588118Y-15223630D01*
X9873833Y-15223630D02*
X9902404Y-15223630D01*
X9930975Y-15237915D01*
X9945261Y-15252201D01*
X9959547Y-15280772D01*
X9973833Y-15337915D01*
X9973833Y-15409344D01*
X9959547Y-15466487D01*
X9945261Y-15495058D01*
X9930975Y-15509344D01*
X9902404Y-15523630D01*
X9873833Y-15523630D01*
X9845261Y-15509344D01*
X9830975Y-15495058D01*
X9816690Y-15466487D01*
X9802404Y-15409344D01*
X9802404Y-15337915D01*
X9816690Y-15280772D01*
X9830975Y-15252201D01*
X9845261Y-15237915D01*
X9873833Y-15223630D01*
X10102404Y-15523630D02*
X10102404Y-15323630D01*
X10102404Y-15352201D02*
X10116690Y-15337915D01*
X10145261Y-15323630D01*
X10188118Y-15323630D01*
X10216690Y-15337915D01*
X10230975Y-15366487D01*
X10230975Y-15523630D01*
X10230975Y-15366487D02*
X10245261Y-15337915D01*
X10273833Y-15323630D01*
X10316690Y-15323630D01*
X10345261Y-15337915D01*
X10359547Y-15366487D01*
X10359547Y-15523630D01*
X10502404Y-15523630D02*
X10502404Y-15323630D01*
X10502404Y-15352201D02*
X10516690Y-15337915D01*
X10545261Y-15323630D01*
X10588118Y-15323630D01*
X10616690Y-15337915D01*
X10630975Y-15366487D01*
X10630975Y-15523630D01*
X10630975Y-15366487D02*
X10645261Y-15337915D01*
X10673833Y-15323630D01*
X10716690Y-15323630D01*
X10745261Y-15337915D01*
X10759547Y-15366487D01*
X10759547Y-15523630D01*
X11345261Y-15209344D02*
X11088118Y-15595058D01*
X11730975Y-15223630D02*
X11759547Y-15223630D01*
X11788118Y-15237915D01*
X11802404Y-15252201D01*
X11816690Y-15280772D01*
X11830975Y-15337915D01*
X11830975Y-15409344D01*
X11816690Y-15466487D01*
X11802404Y-15495058D01*
X11788118Y-15509344D01*
X11759547Y-15523630D01*
X11730975Y-15523630D01*
X11702404Y-15509344D01*
X11688118Y-15495058D01*
X11673832Y-15466487D01*
X11659547Y-15409344D01*
X11659547Y-15337915D01*
X11673832Y-15280772D01*
X11688118Y-15252201D01*
X11702404Y-15237915D01*
X11730975Y-15223630D01*
X11959547Y-15495058D02*
X11973832Y-15509344D01*
X11959547Y-15523630D01*
X11945261Y-15509344D01*
X11959547Y-15495058D01*
X11959547Y-15523630D01*
X12159547Y-15223630D02*
X12188118Y-15223630D01*
X12216690Y-15237915D01*
X12230975Y-15252201D01*
X12245261Y-15280772D01*
X12259547Y-15337915D01*
X12259547Y-15409344D01*
X12245261Y-15466487D01*
X12230975Y-15495058D01*
X12216690Y-15509344D01*
X12188118Y-15523630D01*
X12159547Y-15523630D01*
X12130975Y-15509344D01*
X12116690Y-15495058D01*
X12102404Y-15466487D01*
X12088118Y-15409344D01*
X12088118Y-15337915D01*
X12102404Y-15280772D01*
X12116690Y-15252201D01*
X12130975Y-15237915D01*
X12159547Y-15223630D01*
X12430975Y-15352201D02*
X12402404Y-15337915D01*
X12388118Y-15323630D01*
X12373832Y-15295058D01*
X12373832Y-15280772D01*
X12388118Y-15252201D01*
X12402404Y-15237915D01*
X12430975Y-15223630D01*
X12488118Y-15223630D01*
X12516690Y-15237915D01*
X12530975Y-15252201D01*
X12545261Y-15280772D01*
X12545261Y-15295058D01*
X12530975Y-15323630D01*
X12516690Y-15337915D01*
X12488118Y-15352201D01*
X12430975Y-15352201D01*
X12402404Y-15366487D01*
X12388118Y-15380772D01*
X12373832Y-15409344D01*
X12373832Y-15466487D01*
X12388118Y-15495058D01*
X12402404Y-15509344D01*
X12430975Y-15523630D01*
X12488118Y-15523630D01*
X12516690Y-15509344D01*
X12530975Y-15495058D01*
X12545261Y-15466487D01*
X12545261Y-15409344D01*
X12530975Y-15380772D01*
X12516690Y-15366487D01*
X12488118Y-15352201D01*
X12802404Y-15223630D02*
X12745261Y-15223630D01*
X12716690Y-15237915D01*
X12702404Y-15252201D01*
X12673832Y-15295058D01*
X12659547Y-15352201D01*
X12659547Y-15466487D01*
X12673832Y-15495058D01*
X12688118Y-15509344D01*
X12716690Y-15523630D01*
X12773832Y-15523630D01*
X12802404Y-15509344D01*
X12816690Y-15495058D01*
X12830975Y-15466487D01*
X12830975Y-15395058D01*
X12816690Y-15366487D01*
X12802404Y-15352201D01*
X12773832Y-15337915D01*
X12716690Y-15337915D01*
X12688118Y-15352201D01*
X12673832Y-15366487D01*
X12659547Y-15395058D01*
X13088118Y-15223630D02*
X13030975Y-15223630D01*
X13002404Y-15237915D01*
X12988118Y-15252201D01*
X12959547Y-15295058D01*
X12945261Y-15352201D01*
X12945261Y-15466487D01*
X12959547Y-15495058D01*
X12973832Y-15509344D01*
X13002404Y-15523630D01*
X13059547Y-15523630D01*
X13088118Y-15509344D01*
X13102404Y-15495058D01*
X13116690Y-15466487D01*
X13116690Y-15395058D01*
X13102404Y-15366487D01*
X13088118Y-15352201D01*
X13059547Y-15337915D01*
X13002404Y-15337915D01*
X12973832Y-15352201D01*
X12959547Y-15366487D01*
X12945261Y-15395058D01*
X13230975Y-15223630D02*
X13230975Y-15280772D01*
X13345261Y-15223630D02*
X13345261Y-15280772D01*
X13788118Y-15637915D02*
X13773832Y-15623630D01*
X13745261Y-15580772D01*
X13730975Y-15552201D01*
X13716690Y-15509344D01*
X13702404Y-15437915D01*
X13702404Y-15380772D01*
X13716690Y-15309344D01*
X13730975Y-15266487D01*
X13745261Y-15237915D01*
X13773832Y-15195058D01*
X13788118Y-15180772D01*
X13888118Y-15252201D02*
X13902404Y-15237915D01*
X13930975Y-15223630D01*
X14002404Y-15223630D01*
X14030975Y-15237915D01*
X14045261Y-15252201D01*
X14059547Y-15280772D01*
X14059547Y-15309344D01*
X14045261Y-15352201D01*
X13873832Y-15523630D01*
X14059547Y-15523630D01*
X14416690Y-15523630D02*
X14416690Y-15223630D01*
X14545261Y-15523630D02*
X14545261Y-15366487D01*
X14530975Y-15337915D01*
X14502404Y-15323630D01*
X14459547Y-15323630D01*
X14430975Y-15337915D01*
X14416690Y-15352201D01*
X14730975Y-15523630D02*
X14702404Y-15509344D01*
X14688118Y-15495058D01*
X14673832Y-15466487D01*
X14673832Y-15380772D01*
X14688118Y-15352201D01*
X14702404Y-15337915D01*
X14730975Y-15323630D01*
X14773832Y-15323630D01*
X14802404Y-15337915D01*
X14816690Y-15352201D01*
X14830975Y-15380772D01*
X14830975Y-15466487D01*
X14816690Y-15495058D01*
X14802404Y-15509344D01*
X14773832Y-15523630D01*
X14730975Y-15523630D01*
X15002404Y-15523630D02*
X14973832Y-15509344D01*
X14959547Y-15480772D01*
X14959547Y-15223630D01*
X15230975Y-15509344D02*
X15202404Y-15523630D01*
X15145261Y-15523630D01*
X15116690Y-15509344D01*
X15102404Y-15480772D01*
X15102404Y-15366487D01*
X15116690Y-15337915D01*
X15145261Y-15323630D01*
X15202404Y-15323630D01*
X15230975Y-15337915D01*
X15245261Y-15366487D01*
X15245261Y-15395058D01*
X15102404Y-15423630D01*
X15359547Y-15509344D02*
X15388118Y-15523630D01*
X15445261Y-15523630D01*
X15473832Y-15509344D01*
X15488118Y-15480772D01*
X15488118Y-15466487D01*
X15473832Y-15437915D01*
X15445261Y-15423630D01*
X15402404Y-15423630D01*
X15373832Y-15409344D01*
X15359547Y-15380772D01*
X15359547Y-15366487D01*
X15373832Y-15337915D01*
X15402404Y-15323630D01*
X15445261Y-15323630D01*
X15473832Y-15337915D01*
X15588118Y-15637915D02*
X15602404Y-15623630D01*
X15630975Y-15580772D01*
X15645261Y-15552201D01*
X15659547Y-15509344D01*
X15673832Y-15437915D01*
X15673832Y-15380772D01*
X15659547Y-15309344D01*
X15645261Y-15266487D01*
X15630975Y-15237915D01*
X15602404Y-15195058D01*
X15588118Y-15180772D01*
X16130975Y-15637915D02*
X16116690Y-15623630D01*
X16088118Y-15580772D01*
X16073832Y-15552201D01*
X16059547Y-15509344D01*
X16045261Y-15437915D01*
X16045261Y-15380772D01*
X16059547Y-15309344D01*
X16073832Y-15266487D01*
X16088118Y-15237915D01*
X16116690Y-15195058D01*
X16130975Y-15180772D01*
X16245261Y-15323630D02*
X16245261Y-15523630D01*
X16245261Y-15352201D02*
X16259547Y-15337915D01*
X16288118Y-15323630D01*
X16330975Y-15323630D01*
X16359547Y-15337915D01*
X16373832Y-15366487D01*
X16373832Y-15523630D01*
X16559547Y-15523630D02*
X16530975Y-15509344D01*
X16516690Y-15495058D01*
X16502404Y-15466487D01*
X16502404Y-15380772D01*
X16516690Y-15352201D01*
X16530975Y-15337915D01*
X16559547Y-15323630D01*
X16602404Y-15323630D01*
X16630975Y-15337915D01*
X16645261Y-15352201D01*
X16659547Y-15380772D01*
X16659547Y-15466487D01*
X16645261Y-15495058D01*
X16630975Y-15509344D01*
X16602404Y-15523630D01*
X16559547Y-15523630D01*
X16745261Y-15323630D02*
X16859547Y-15323630D01*
X16788118Y-15223630D02*
X16788118Y-15480772D01*
X16802404Y-15509344D01*
X16830975Y-15523630D01*
X16859547Y-15523630D01*
X17188118Y-15323630D02*
X17188118Y-15623630D01*
X17188118Y-15337915D02*
X17216690Y-15323630D01*
X17273833Y-15323630D01*
X17302404Y-15337915D01*
X17316690Y-15352201D01*
X17330975Y-15380772D01*
X17330975Y-15466487D01*
X17316690Y-15495058D01*
X17302404Y-15509344D01*
X17273833Y-15523630D01*
X17216690Y-15523630D01*
X17188118Y-15509344D01*
X17502404Y-15523630D02*
X17473833Y-15509344D01*
X17459547Y-15480772D01*
X17459547Y-15223630D01*
X17745261Y-15523630D02*
X17745261Y-15366487D01*
X17730975Y-15337915D01*
X17702404Y-15323630D01*
X17645261Y-15323630D01*
X17616690Y-15337915D01*
X17745261Y-15509344D02*
X17716690Y-15523630D01*
X17645261Y-15523630D01*
X17616690Y-15509344D01*
X17602404Y-15480772D01*
X17602404Y-15452201D01*
X17616690Y-15423630D01*
X17645261Y-15409344D01*
X17716690Y-15409344D01*
X17745261Y-15395058D01*
X17845261Y-15323630D02*
X17959547Y-15323630D01*
X17888118Y-15223630D02*
X17888118Y-15480772D01*
X17902404Y-15509344D01*
X17930975Y-15523630D01*
X17959547Y-15523630D01*
X18173833Y-15509344D02*
X18145261Y-15523630D01*
X18088118Y-15523630D01*
X18059547Y-15509344D01*
X18045261Y-15480772D01*
X18045261Y-15366487D01*
X18059547Y-15337915D01*
X18088118Y-15323630D01*
X18145261Y-15323630D01*
X18173833Y-15337915D01*
X18188118Y-15366487D01*
X18188118Y-15395058D01*
X18045261Y-15423630D01*
X18445261Y-15523630D02*
X18445261Y-15223630D01*
X18445261Y-15509344D02*
X18416690Y-15523630D01*
X18359547Y-15523630D01*
X18330975Y-15509344D01*
X18316690Y-15495058D01*
X18302404Y-15466487D01*
X18302404Y-15380772D01*
X18316690Y-15352201D01*
X18330975Y-15337915D01*
X18359547Y-15323630D01*
X18416690Y-15323630D01*
X18445261Y-15337915D01*
X18559547Y-15637915D02*
X18573833Y-15623630D01*
X18602404Y-15580772D01*
X18616690Y-15552201D01*
X18630975Y-15509344D01*
X18645261Y-15437915D01*
X18645261Y-15380772D01*
X18630975Y-15309344D01*
X18616690Y-15266487D01*
X18602404Y-15237915D01*
X18573833Y-15195058D01*
X18559547Y-15180772D01*
X8486328Y-15889982D02*
X8486328Y-15677848D01*
X8274194Y-15677848D01*
X8274194Y-15889982D01*
X8486328Y-15889982D01*
X8788118Y-15619630D02*
X8973833Y-15619630D01*
X8873833Y-15733915D01*
X8916690Y-15733915D01*
X8945261Y-15748201D01*
X8959547Y-15762487D01*
X8973833Y-15791058D01*
X8973833Y-15862487D01*
X8959547Y-15891058D01*
X8945261Y-15905344D01*
X8916690Y-15919630D01*
X8830975Y-15919630D01*
X8802404Y-15905344D01*
X8788118Y-15891058D01*
X9102404Y-15891058D02*
X9116690Y-15905344D01*
X9102404Y-15919630D01*
X9088118Y-15905344D01*
X9102404Y-15891058D01*
X9102404Y-15919630D01*
X9302404Y-15619630D02*
X9330975Y-15619630D01*
X9359547Y-15633915D01*
X9373833Y-15648201D01*
X9388118Y-15676772D01*
X9402404Y-15733915D01*
X9402404Y-15805344D01*
X9388118Y-15862487D01*
X9373833Y-15891058D01*
X9359547Y-15905344D01*
X9330975Y-15919630D01*
X9302404Y-15919630D01*
X9273833Y-15905344D01*
X9259547Y-15891058D01*
X9245261Y-15862487D01*
X9230975Y-15805344D01*
X9230975Y-15733915D01*
X9245261Y-15676772D01*
X9259547Y-15648201D01*
X9273833Y-15633915D01*
X9302404Y-15619630D01*
X9588118Y-15619630D02*
X9616690Y-15619630D01*
X9645261Y-15633915D01*
X9659547Y-15648201D01*
X9673833Y-15676772D01*
X9688118Y-15733915D01*
X9688118Y-15805344D01*
X9673833Y-15862487D01*
X9659547Y-15891058D01*
X9645261Y-15905344D01*
X9616690Y-15919630D01*
X9588118Y-15919630D01*
X9559547Y-15905344D01*
X9545261Y-15891058D01*
X9530975Y-15862487D01*
X9516690Y-15805344D01*
X9516690Y-15733915D01*
X9530975Y-15676772D01*
X9545261Y-15648201D01*
X9559547Y-15633915D01*
X9588118Y-15619630D01*
X9873833Y-15619630D02*
X9902404Y-15619630D01*
X9930975Y-15633915D01*
X9945261Y-15648201D01*
X9959547Y-15676772D01*
X9973833Y-15733915D01*
X9973833Y-15805344D01*
X9959547Y-15862487D01*
X9945261Y-15891058D01*
X9930975Y-15905344D01*
X9902404Y-15919630D01*
X9873833Y-15919630D01*
X9845261Y-15905344D01*
X9830975Y-15891058D01*
X9816690Y-15862487D01*
X9802404Y-15805344D01*
X9802404Y-15733915D01*
X9816690Y-15676772D01*
X9830975Y-15648201D01*
X9845261Y-15633915D01*
X9873833Y-15619630D01*
X10102404Y-15919630D02*
X10102404Y-15719630D01*
X10102404Y-15748201D02*
X10116690Y-15733915D01*
X10145261Y-15719630D01*
X10188118Y-15719630D01*
X10216690Y-15733915D01*
X10230975Y-15762487D01*
X10230975Y-15919630D01*
X10230975Y-15762487D02*
X10245261Y-15733915D01*
X10273833Y-15719630D01*
X10316690Y-15719630D01*
X10345261Y-15733915D01*
X10359547Y-15762487D01*
X10359547Y-15919630D01*
X10502404Y-15919630D02*
X10502404Y-15719630D01*
X10502404Y-15748201D02*
X10516690Y-15733915D01*
X10545261Y-15719630D01*
X10588118Y-15719630D01*
X10616690Y-15733915D01*
X10630975Y-15762487D01*
X10630975Y-15919630D01*
X10630975Y-15762487D02*
X10645261Y-15733915D01*
X10673833Y-15719630D01*
X10716690Y-15719630D01*
X10745261Y-15733915D01*
X10759547Y-15762487D01*
X10759547Y-15919630D01*
X11345261Y-15605344D02*
X11088118Y-15991058D01*
X11730975Y-15619630D02*
X11759547Y-15619630D01*
X11788118Y-15633915D01*
X11802404Y-15648201D01*
X11816690Y-15676772D01*
X11830975Y-15733915D01*
X11830975Y-15805344D01*
X11816690Y-15862487D01*
X11802404Y-15891058D01*
X11788118Y-15905344D01*
X11759547Y-15919630D01*
X11730975Y-15919630D01*
X11702404Y-15905344D01*
X11688118Y-15891058D01*
X11673832Y-15862487D01*
X11659547Y-15805344D01*
X11659547Y-15733915D01*
X11673832Y-15676772D01*
X11688118Y-15648201D01*
X11702404Y-15633915D01*
X11730975Y-15619630D01*
X11959547Y-15891058D02*
X11973832Y-15905344D01*
X11959547Y-15919630D01*
X11945261Y-15905344D01*
X11959547Y-15891058D01*
X11959547Y-15919630D01*
X12259547Y-15919630D02*
X12088118Y-15919630D01*
X12173832Y-15919630D02*
X12173832Y-15619630D01*
X12145261Y-15662487D01*
X12116690Y-15691058D01*
X12088118Y-15705344D01*
X12545261Y-15919630D02*
X12373832Y-15919630D01*
X12459547Y-15919630D02*
X12459547Y-15619630D01*
X12430975Y-15662487D01*
X12402404Y-15691058D01*
X12373832Y-15705344D01*
X12716690Y-15748201D02*
X12688118Y-15733915D01*
X12673832Y-15719630D01*
X12659547Y-15691058D01*
X12659547Y-15676772D01*
X12673832Y-15648201D01*
X12688118Y-15633915D01*
X12716690Y-15619630D01*
X12773832Y-15619630D01*
X12802404Y-15633915D01*
X12816690Y-15648201D01*
X12830975Y-15676772D01*
X12830975Y-15691058D01*
X12816690Y-15719630D01*
X12802404Y-15733915D01*
X12773832Y-15748201D01*
X12716690Y-15748201D01*
X12688118Y-15762487D01*
X12673832Y-15776772D01*
X12659547Y-15805344D01*
X12659547Y-15862487D01*
X12673832Y-15891058D01*
X12688118Y-15905344D01*
X12716690Y-15919630D01*
X12773832Y-15919630D01*
X12802404Y-15905344D01*
X12816690Y-15891058D01*
X12830975Y-15862487D01*
X12830975Y-15805344D01*
X12816690Y-15776772D01*
X12802404Y-15762487D01*
X12773832Y-15748201D01*
X13116690Y-15919630D02*
X12945261Y-15919630D01*
X13030975Y-15919630D02*
X13030975Y-15619630D01*
X13002404Y-15662487D01*
X12973832Y-15691058D01*
X12945261Y-15705344D01*
X13230975Y-15619630D02*
X13230975Y-15676772D01*
X13345261Y-15619630D02*
X13345261Y-15676772D01*
X13788118Y-16033915D02*
X13773832Y-16019630D01*
X13745261Y-15976772D01*
X13730975Y-15948201D01*
X13716690Y-15905344D01*
X13702404Y-15833915D01*
X13702404Y-15776772D01*
X13716690Y-15705344D01*
X13730975Y-15662487D01*
X13745261Y-15633915D01*
X13773832Y-15591058D01*
X13788118Y-15576772D01*
X14030975Y-15719630D02*
X14030975Y-15919630D01*
X13959547Y-15605344D02*
X13888118Y-15819630D01*
X14073832Y-15819630D01*
X14173832Y-15648201D02*
X14188118Y-15633915D01*
X14216690Y-15619630D01*
X14288118Y-15619630D01*
X14316690Y-15633915D01*
X14330975Y-15648201D01*
X14345261Y-15676772D01*
X14345261Y-15705344D01*
X14330975Y-15748201D01*
X14159547Y-15919630D01*
X14345261Y-15919630D01*
X14702404Y-15919630D02*
X14702404Y-15619630D01*
X14830975Y-15919630D02*
X14830975Y-15762487D01*
X14816690Y-15733915D01*
X14788118Y-15719630D01*
X14745261Y-15719630D01*
X14716690Y-15733915D01*
X14702404Y-15748201D01*
X15016690Y-15919630D02*
X14988118Y-15905344D01*
X14973832Y-15891058D01*
X14959547Y-15862487D01*
X14959547Y-15776772D01*
X14973832Y-15748201D01*
X14988118Y-15733915D01*
X15016690Y-15719630D01*
X15059547Y-15719630D01*
X15088118Y-15733915D01*
X15102404Y-15748201D01*
X15116690Y-15776772D01*
X15116690Y-15862487D01*
X15102404Y-15891058D01*
X15088118Y-15905344D01*
X15059547Y-15919630D01*
X15016690Y-15919630D01*
X15288118Y-15919630D02*
X15259547Y-15905344D01*
X15245261Y-15876772D01*
X15245261Y-15619630D01*
X15516690Y-15905344D02*
X15488118Y-15919630D01*
X15430975Y-15919630D01*
X15402404Y-15905344D01*
X15388118Y-15876772D01*
X15388118Y-15762487D01*
X15402404Y-15733915D01*
X15430975Y-15719630D01*
X15488118Y-15719630D01*
X15516690Y-15733915D01*
X15530975Y-15762487D01*
X15530975Y-15791058D01*
X15388118Y-15819630D01*
X15645261Y-15905344D02*
X15673832Y-15919630D01*
X15730975Y-15919630D01*
X15759547Y-15905344D01*
X15773832Y-15876772D01*
X15773832Y-15862487D01*
X15759547Y-15833915D01*
X15730975Y-15819630D01*
X15688118Y-15819630D01*
X15659547Y-15805344D01*
X15645261Y-15776772D01*
X15645261Y-15762487D01*
X15659547Y-15733915D01*
X15688118Y-15719630D01*
X15730975Y-15719630D01*
X15759547Y-15733915D01*
X15873832Y-16033915D02*
X15888118Y-16019630D01*
X15916690Y-15976772D01*
X15930975Y-15948201D01*
X15945261Y-15905344D01*
X15959547Y-15833915D01*
X15959547Y-15776772D01*
X15945261Y-15705344D01*
X15930975Y-15662487D01*
X15916690Y-15633915D01*
X15888118Y-15591058D01*
X15873832Y-15576772D01*
X16416690Y-16033915D02*
X16402404Y-16019630D01*
X16373832Y-15976772D01*
X16359547Y-15948201D01*
X16345261Y-15905344D01*
X16330975Y-15833915D01*
X16330975Y-15776772D01*
X16345261Y-15705344D01*
X16359547Y-15662487D01*
X16373832Y-15633915D01*
X16402404Y-15591058D01*
X16416690Y-15576772D01*
X16530975Y-15719630D02*
X16530975Y-15919630D01*
X16530975Y-15748201D02*
X16545261Y-15733915D01*
X16573832Y-15719630D01*
X16616690Y-15719630D01*
X16645261Y-15733915D01*
X16659547Y-15762487D01*
X16659547Y-15919630D01*
X16845261Y-15919630D02*
X16816690Y-15905344D01*
X16802404Y-15891058D01*
X16788118Y-15862487D01*
X16788118Y-15776772D01*
X16802404Y-15748201D01*
X16816690Y-15733915D01*
X16845261Y-15719630D01*
X16888118Y-15719630D01*
X16916690Y-15733915D01*
X16930975Y-15748201D01*
X16945261Y-15776772D01*
X16945261Y-15862487D01*
X16930975Y-15891058D01*
X16916690Y-15905344D01*
X16888118Y-15919630D01*
X16845261Y-15919630D01*
X17030975Y-15719630D02*
X17145261Y-15719630D01*
X17073833Y-15619630D02*
X17073833Y-15876772D01*
X17088118Y-15905344D01*
X17116690Y-15919630D01*
X17145261Y-15919630D01*
X17473833Y-15719630D02*
X17473833Y-16019630D01*
X17473833Y-15733915D02*
X17502404Y-15719630D01*
X17559547Y-15719630D01*
X17588118Y-15733915D01*
X17602404Y-15748201D01*
X17616690Y-15776772D01*
X17616690Y-15862487D01*
X17602404Y-15891058D01*
X17588118Y-15905344D01*
X17559547Y-15919630D01*
X17502404Y-15919630D01*
X17473833Y-15905344D01*
X17788118Y-15919630D02*
X17759547Y-15905344D01*
X17745261Y-15876772D01*
X17745261Y-15619630D01*
X18030975Y-15919630D02*
X18030975Y-15762487D01*
X18016690Y-15733915D01*
X17988118Y-15719630D01*
X17930975Y-15719630D01*
X17902404Y-15733915D01*
X18030975Y-15905344D02*
X18002404Y-15919630D01*
X17930975Y-15919630D01*
X17902404Y-15905344D01*
X17888118Y-15876772D01*
X17888118Y-15848201D01*
X17902404Y-15819630D01*
X17930975Y-15805344D01*
X18002404Y-15805344D01*
X18030975Y-15791058D01*
X18130975Y-15719630D02*
X18245261Y-15719630D01*
X18173833Y-15619630D02*
X18173833Y-15876772D01*
X18188118Y-15905344D01*
X18216690Y-15919630D01*
X18245261Y-15919630D01*
X18459547Y-15905344D02*
X18430975Y-15919630D01*
X18373833Y-15919630D01*
X18345261Y-15905344D01*
X18330975Y-15876772D01*
X18330975Y-15762487D01*
X18345261Y-15733915D01*
X18373833Y-15719630D01*
X18430975Y-15719630D01*
X18459547Y-15733915D01*
X18473833Y-15762487D01*
X18473833Y-15791058D01*
X18330975Y-15819630D01*
X18730975Y-15919630D02*
X18730975Y-15619630D01*
X18730975Y-15905344D02*
X18702404Y-15919630D01*
X18645261Y-15919630D01*
X18616690Y-15905344D01*
X18602404Y-15891058D01*
X18588118Y-15862487D01*
X18588118Y-15776772D01*
X18602404Y-15748201D01*
X18616690Y-15733915D01*
X18645261Y-15719630D01*
X18702404Y-15719630D01*
X18730975Y-15733915D01*
X18845261Y-16033915D02*
X18859547Y-16019630D01*
X18888118Y-15976772D01*
X18902404Y-15948201D01*
X18916690Y-15905344D01*
X18930975Y-15833915D01*
X18930975Y-15776772D01*
X18916690Y-15705344D01*
X18902404Y-15662487D01*
X18888118Y-15633915D01*
X18859547Y-15591058D01*
X18845261Y-15576772D01*
X8325261Y-16418915D02*
X8530261Y-16213915D01*
X8325261Y-16008915D01*
X8120261Y-16213915D01*
X8325261Y-16418915D01*
X8945261Y-16149630D02*
X8945261Y-16349630D01*
X8873833Y-16035344D02*
X8802404Y-16249630D01*
X8988118Y-16249630D01*
X9102404Y-16321058D02*
X9116690Y-16335344D01*
X9102404Y-16349630D01*
X9088118Y-16335344D01*
X9102404Y-16321058D01*
X9102404Y-16349630D01*
X9402404Y-16349630D02*
X9230975Y-16349630D01*
X9316690Y-16349630D02*
X9316690Y-16049630D01*
X9288118Y-16092487D01*
X9259547Y-16121058D01*
X9230975Y-16135344D01*
X9588118Y-16049630D02*
X9616690Y-16049630D01*
X9645261Y-16063915D01*
X9659547Y-16078201D01*
X9673833Y-16106772D01*
X9688118Y-16163915D01*
X9688118Y-16235344D01*
X9673833Y-16292487D01*
X9659547Y-16321058D01*
X9645261Y-16335344D01*
X9616690Y-16349630D01*
X9588118Y-16349630D01*
X9559547Y-16335344D01*
X9545261Y-16321058D01*
X9530975Y-16292487D01*
X9516690Y-16235344D01*
X9516690Y-16163915D01*
X9530975Y-16106772D01*
X9545261Y-16078201D01*
X9559547Y-16063915D01*
X9588118Y-16049630D01*
X9873833Y-16049630D02*
X9902404Y-16049630D01*
X9930975Y-16063915D01*
X9945261Y-16078201D01*
X9959547Y-16106772D01*
X9973833Y-16163915D01*
X9973833Y-16235344D01*
X9959547Y-16292487D01*
X9945261Y-16321058D01*
X9930975Y-16335344D01*
X9902404Y-16349630D01*
X9873833Y-16349630D01*
X9845261Y-16335344D01*
X9830975Y-16321058D01*
X9816690Y-16292487D01*
X9802404Y-16235344D01*
X9802404Y-16163915D01*
X9816690Y-16106772D01*
X9830975Y-16078201D01*
X9845261Y-16063915D01*
X9873833Y-16049630D01*
X10102404Y-16349630D02*
X10102404Y-16149630D01*
X10102404Y-16178201D02*
X10116690Y-16163915D01*
X10145261Y-16149630D01*
X10188118Y-16149630D01*
X10216690Y-16163915D01*
X10230975Y-16192487D01*
X10230975Y-16349630D01*
X10230975Y-16192487D02*
X10245261Y-16163915D01*
X10273833Y-16149630D01*
X10316690Y-16149630D01*
X10345261Y-16163915D01*
X10359547Y-16192487D01*
X10359547Y-16349630D01*
X10502404Y-16349630D02*
X10502404Y-16149630D01*
X10502404Y-16178201D02*
X10516690Y-16163915D01*
X10545261Y-16149630D01*
X10588118Y-16149630D01*
X10616690Y-16163915D01*
X10630975Y-16192487D01*
X10630975Y-16349630D01*
X10630975Y-16192487D02*
X10645261Y-16163915D01*
X10673833Y-16149630D01*
X10716690Y-16149630D01*
X10745261Y-16163915D01*
X10759547Y-16192487D01*
X10759547Y-16349630D01*
X11345261Y-16035344D02*
X11088118Y-16421058D01*
X11730975Y-16049630D02*
X11759547Y-16049630D01*
X11788118Y-16063915D01*
X11802404Y-16078201D01*
X11816690Y-16106772D01*
X11830975Y-16163915D01*
X11830975Y-16235344D01*
X11816690Y-16292487D01*
X11802404Y-16321058D01*
X11788118Y-16335344D01*
X11759547Y-16349630D01*
X11730975Y-16349630D01*
X11702404Y-16335344D01*
X11688118Y-16321058D01*
X11673832Y-16292487D01*
X11659547Y-16235344D01*
X11659547Y-16163915D01*
X11673832Y-16106772D01*
X11688118Y-16078201D01*
X11702404Y-16063915D01*
X11730975Y-16049630D01*
X11959547Y-16321058D02*
X11973832Y-16335344D01*
X11959547Y-16349630D01*
X11945261Y-16335344D01*
X11959547Y-16321058D01*
X11959547Y-16349630D01*
X12259547Y-16349630D02*
X12088118Y-16349630D01*
X12173832Y-16349630D02*
X12173832Y-16049630D01*
X12145261Y-16092487D01*
X12116690Y-16121058D01*
X12088118Y-16135344D01*
X12516690Y-16049630D02*
X12459547Y-16049630D01*
X12430975Y-16063915D01*
X12416690Y-16078201D01*
X12388118Y-16121058D01*
X12373832Y-16178201D01*
X12373832Y-16292487D01*
X12388118Y-16321058D01*
X12402404Y-16335344D01*
X12430975Y-16349630D01*
X12488118Y-16349630D01*
X12516690Y-16335344D01*
X12530975Y-16321058D01*
X12545261Y-16292487D01*
X12545261Y-16221058D01*
X12530975Y-16192487D01*
X12516690Y-16178201D01*
X12488118Y-16163915D01*
X12430975Y-16163915D01*
X12402404Y-16178201D01*
X12388118Y-16192487D01*
X12373832Y-16221058D01*
X12830975Y-16349630D02*
X12659547Y-16349630D01*
X12745261Y-16349630D02*
X12745261Y-16049630D01*
X12716690Y-16092487D01*
X12688118Y-16121058D01*
X12659547Y-16135344D01*
X13088118Y-16149630D02*
X13088118Y-16349630D01*
X13016690Y-16035344D02*
X12945261Y-16249630D01*
X13130975Y-16249630D01*
X13230975Y-16049630D02*
X13230975Y-16106772D01*
X13345261Y-16049630D02*
X13345261Y-16106772D01*
X13788118Y-16463915D02*
X13773832Y-16449630D01*
X13745261Y-16406772D01*
X13730975Y-16378201D01*
X13716690Y-16335344D01*
X13702404Y-16263915D01*
X13702404Y-16206772D01*
X13716690Y-16135344D01*
X13730975Y-16092487D01*
X13745261Y-16063915D01*
X13773832Y-16021058D01*
X13788118Y-16006772D01*
X13888118Y-16078201D02*
X13902404Y-16063915D01*
X13930975Y-16049630D01*
X14002404Y-16049630D01*
X14030975Y-16063915D01*
X14045261Y-16078201D01*
X14059547Y-16106772D01*
X14059547Y-16135344D01*
X14045261Y-16178201D01*
X13873832Y-16349630D01*
X14059547Y-16349630D01*
X14345261Y-16349630D02*
X14173832Y-16349630D01*
X14259547Y-16349630D02*
X14259547Y-16049630D01*
X14230975Y-16092487D01*
X14202404Y-16121058D01*
X14173832Y-16135344D01*
X14702404Y-16349630D02*
X14702404Y-16049630D01*
X14830975Y-16349630D02*
X14830975Y-16192487D01*
X14816690Y-16163915D01*
X14788118Y-16149630D01*
X14745261Y-16149630D01*
X14716690Y-16163915D01*
X14702404Y-16178201D01*
X15016690Y-16349630D02*
X14988118Y-16335344D01*
X14973832Y-16321058D01*
X14959547Y-16292487D01*
X14959547Y-16206772D01*
X14973832Y-16178201D01*
X14988118Y-16163915D01*
X15016690Y-16149630D01*
X15059547Y-16149630D01*
X15088118Y-16163915D01*
X15102404Y-16178201D01*
X15116690Y-16206772D01*
X15116690Y-16292487D01*
X15102404Y-16321058D01*
X15088118Y-16335344D01*
X15059547Y-16349630D01*
X15016690Y-16349630D01*
X15288118Y-16349630D02*
X15259547Y-16335344D01*
X15245261Y-16306772D01*
X15245261Y-16049630D01*
X15516690Y-16335344D02*
X15488118Y-16349630D01*
X15430975Y-16349630D01*
X15402404Y-16335344D01*
X15388118Y-16306772D01*
X15388118Y-16192487D01*
X15402404Y-16163915D01*
X15430975Y-16149630D01*
X15488118Y-16149630D01*
X15516690Y-16163915D01*
X15530975Y-16192487D01*
X15530975Y-16221058D01*
X15388118Y-16249630D01*
X15645261Y-16335344D02*
X15673832Y-16349630D01*
X15730975Y-16349630D01*
X15759547Y-16335344D01*
X15773832Y-16306772D01*
X15773832Y-16292487D01*
X15759547Y-16263915D01*
X15730975Y-16249630D01*
X15688118Y-16249630D01*
X15659547Y-16235344D01*
X15645261Y-16206772D01*
X15645261Y-16192487D01*
X15659547Y-16163915D01*
X15688118Y-16149630D01*
X15730975Y-16149630D01*
X15759547Y-16163915D01*
X15873832Y-16463915D02*
X15888118Y-16449630D01*
X15916690Y-16406772D01*
X15930975Y-16378201D01*
X15945261Y-16335344D01*
X15959547Y-16263915D01*
X15959547Y-16206772D01*
X15945261Y-16135344D01*
X15930975Y-16092487D01*
X15916690Y-16063915D01*
X15888118Y-16021058D01*
X15873832Y-16006772D01*
X16416690Y-16463915D02*
X16402404Y-16449630D01*
X16373832Y-16406772D01*
X16359547Y-16378201D01*
X16345261Y-16335344D01*
X16330975Y-16263915D01*
X16330975Y-16206772D01*
X16345261Y-16135344D01*
X16359547Y-16092487D01*
X16373832Y-16063915D01*
X16402404Y-16021058D01*
X16416690Y-16006772D01*
X16530975Y-16149630D02*
X16530975Y-16349630D01*
X16530975Y-16178201D02*
X16545261Y-16163915D01*
X16573832Y-16149630D01*
X16616690Y-16149630D01*
X16645261Y-16163915D01*
X16659547Y-16192487D01*
X16659547Y-16349630D01*
X16845261Y-16349630D02*
X16816690Y-16335344D01*
X16802404Y-16321058D01*
X16788118Y-16292487D01*
X16788118Y-16206772D01*
X16802404Y-16178201D01*
X16816690Y-16163915D01*
X16845261Y-16149630D01*
X16888118Y-16149630D01*
X16916690Y-16163915D01*
X16930975Y-16178201D01*
X16945261Y-16206772D01*
X16945261Y-16292487D01*
X16930975Y-16321058D01*
X16916690Y-16335344D01*
X16888118Y-16349630D01*
X16845261Y-16349630D01*
X17030975Y-16149630D02*
X17145261Y-16149630D01*
X17073833Y-16049630D02*
X17073833Y-16306772D01*
X17088118Y-16335344D01*
X17116690Y-16349630D01*
X17145261Y-16349630D01*
X17473833Y-16149630D02*
X17473833Y-16449630D01*
X17473833Y-16163915D02*
X17502404Y-16149630D01*
X17559547Y-16149630D01*
X17588118Y-16163915D01*
X17602404Y-16178201D01*
X17616690Y-16206772D01*
X17616690Y-16292487D01*
X17602404Y-16321058D01*
X17588118Y-16335344D01*
X17559547Y-16349630D01*
X17502404Y-16349630D01*
X17473833Y-16335344D01*
X17788118Y-16349630D02*
X17759547Y-16335344D01*
X17745261Y-16306772D01*
X17745261Y-16049630D01*
X18030975Y-16349630D02*
X18030975Y-16192487D01*
X18016690Y-16163915D01*
X17988118Y-16149630D01*
X17930975Y-16149630D01*
X17902404Y-16163915D01*
X18030975Y-16335344D02*
X18002404Y-16349630D01*
X17930975Y-16349630D01*
X17902404Y-16335344D01*
X17888118Y-16306772D01*
X17888118Y-16278201D01*
X17902404Y-16249630D01*
X17930975Y-16235344D01*
X18002404Y-16235344D01*
X18030975Y-16221058D01*
X18130975Y-16149630D02*
X18245261Y-16149630D01*
X18173833Y-16049630D02*
X18173833Y-16306772D01*
X18188118Y-16335344D01*
X18216690Y-16349630D01*
X18245261Y-16349630D01*
X18459547Y-16335344D02*
X18430975Y-16349630D01*
X18373833Y-16349630D01*
X18345261Y-16335344D01*
X18330975Y-16306772D01*
X18330975Y-16192487D01*
X18345261Y-16163915D01*
X18373833Y-16149630D01*
X18430975Y-16149630D01*
X18459547Y-16163915D01*
X18473833Y-16192487D01*
X18473833Y-16221058D01*
X18330975Y-16249630D01*
X18730975Y-16349630D02*
X18730975Y-16049630D01*
X18730975Y-16335344D02*
X18702404Y-16349630D01*
X18645261Y-16349630D01*
X18616690Y-16335344D01*
X18602404Y-16321058D01*
X18588118Y-16292487D01*
X18588118Y-16206772D01*
X18602404Y-16178201D01*
X18616690Y-16163915D01*
X18645261Y-16149630D01*
X18702404Y-16149630D01*
X18730975Y-16163915D01*
X18845261Y-16463915D02*
X18859547Y-16449630D01*
X18888118Y-16406772D01*
X18902404Y-16378201D01*
X18916690Y-16335344D01*
X18930975Y-16263915D01*
X18930975Y-16206772D01*
X18916690Y-16135344D01*
X18902404Y-16092487D01*
X18888118Y-16063915D01*
X18859547Y-16021058D01*
X18845261Y-16006772D01*
X8100261Y-16538915D02*
X8530261Y-16968915D01*
X8530261Y-16538915D02*
X8100261Y-16968915D01*
X8530261Y-16753915D02*
G75*
G03*
X8530261Y-16753915I-215000J0D01*
G01*
X8945261Y-16689630D02*
X8945261Y-16889630D01*
X8873833Y-16575344D02*
X8802404Y-16789630D01*
X8988118Y-16789630D01*
X9102404Y-16861058D02*
X9116690Y-16875344D01*
X9102404Y-16889630D01*
X9088118Y-16875344D01*
X9102404Y-16861058D01*
X9102404Y-16889630D01*
X9216690Y-16589630D02*
X9402404Y-16589630D01*
X9302404Y-16703915D01*
X9345261Y-16703915D01*
X9373833Y-16718201D01*
X9388118Y-16732487D01*
X9402404Y-16761058D01*
X9402404Y-16832487D01*
X9388118Y-16861058D01*
X9373833Y-16875344D01*
X9345261Y-16889630D01*
X9259547Y-16889630D01*
X9230975Y-16875344D01*
X9216690Y-16861058D01*
X9588118Y-16589630D02*
X9616690Y-16589630D01*
X9645261Y-16603915D01*
X9659547Y-16618201D01*
X9673833Y-16646772D01*
X9688118Y-16703915D01*
X9688118Y-16775344D01*
X9673833Y-16832487D01*
X9659547Y-16861058D01*
X9645261Y-16875344D01*
X9616690Y-16889630D01*
X9588118Y-16889630D01*
X9559547Y-16875344D01*
X9545261Y-16861058D01*
X9530975Y-16832487D01*
X9516690Y-16775344D01*
X9516690Y-16703915D01*
X9530975Y-16646772D01*
X9545261Y-16618201D01*
X9559547Y-16603915D01*
X9588118Y-16589630D01*
X9873833Y-16589630D02*
X9902404Y-16589630D01*
X9930975Y-16603915D01*
X9945261Y-16618201D01*
X9959547Y-16646772D01*
X9973833Y-16703915D01*
X9973833Y-16775344D01*
X9959547Y-16832487D01*
X9945261Y-16861058D01*
X9930975Y-16875344D01*
X9902404Y-16889630D01*
X9873833Y-16889630D01*
X9845261Y-16875344D01*
X9830975Y-16861058D01*
X9816690Y-16832487D01*
X9802404Y-16775344D01*
X9802404Y-16703915D01*
X9816690Y-16646772D01*
X9830975Y-16618201D01*
X9845261Y-16603915D01*
X9873833Y-16589630D01*
X10102404Y-16889630D02*
X10102404Y-16689630D01*
X10102404Y-16718201D02*
X10116690Y-16703915D01*
X10145261Y-16689630D01*
X10188118Y-16689630D01*
X10216690Y-16703915D01*
X10230975Y-16732487D01*
X10230975Y-16889630D01*
X10230975Y-16732487D02*
X10245261Y-16703915D01*
X10273833Y-16689630D01*
X10316690Y-16689630D01*
X10345261Y-16703915D01*
X10359547Y-16732487D01*
X10359547Y-16889630D01*
X10502404Y-16889630D02*
X10502404Y-16689630D01*
X10502404Y-16718201D02*
X10516690Y-16703915D01*
X10545261Y-16689630D01*
X10588118Y-16689630D01*
X10616690Y-16703915D01*
X10630975Y-16732487D01*
X10630975Y-16889630D01*
X10630975Y-16732487D02*
X10645261Y-16703915D01*
X10673833Y-16689630D01*
X10716690Y-16689630D01*
X10745261Y-16703915D01*
X10759547Y-16732487D01*
X10759547Y-16889630D01*
X11345261Y-16575344D02*
X11088118Y-16961058D01*
X11730975Y-16589630D02*
X11759547Y-16589630D01*
X11788118Y-16603915D01*
X11802404Y-16618201D01*
X11816690Y-16646772D01*
X11830975Y-16703915D01*
X11830975Y-16775344D01*
X11816690Y-16832487D01*
X11802404Y-16861058D01*
X11788118Y-16875344D01*
X11759547Y-16889630D01*
X11730975Y-16889630D01*
X11702404Y-16875344D01*
X11688118Y-16861058D01*
X11673832Y-16832487D01*
X11659547Y-16775344D01*
X11659547Y-16703915D01*
X11673832Y-16646772D01*
X11688118Y-16618201D01*
X11702404Y-16603915D01*
X11730975Y-16589630D01*
X11959547Y-16861058D02*
X11973832Y-16875344D01*
X11959547Y-16889630D01*
X11945261Y-16875344D01*
X11959547Y-16861058D01*
X11959547Y-16889630D01*
X12259547Y-16889630D02*
X12088118Y-16889630D01*
X12173832Y-16889630D02*
X12173832Y-16589630D01*
X12145261Y-16632487D01*
X12116690Y-16661058D01*
X12088118Y-16675344D01*
X12516690Y-16589630D02*
X12459547Y-16589630D01*
X12430975Y-16603915D01*
X12416690Y-16618201D01*
X12388118Y-16661058D01*
X12373832Y-16718201D01*
X12373832Y-16832487D01*
X12388118Y-16861058D01*
X12402404Y-16875344D01*
X12430975Y-16889630D01*
X12488118Y-16889630D01*
X12516690Y-16875344D01*
X12530975Y-16861058D01*
X12545261Y-16832487D01*
X12545261Y-16761058D01*
X12530975Y-16732487D01*
X12516690Y-16718201D01*
X12488118Y-16703915D01*
X12430975Y-16703915D01*
X12402404Y-16718201D01*
X12388118Y-16732487D01*
X12373832Y-16761058D01*
X12688118Y-16889630D02*
X12745261Y-16889630D01*
X12773832Y-16875344D01*
X12788118Y-16861058D01*
X12816690Y-16818201D01*
X12830975Y-16761058D01*
X12830975Y-16646772D01*
X12816690Y-16618201D01*
X12802404Y-16603915D01*
X12773832Y-16589630D01*
X12716690Y-16589630D01*
X12688118Y-16603915D01*
X12673832Y-16618201D01*
X12659547Y-16646772D01*
X12659547Y-16718201D01*
X12673832Y-16746772D01*
X12688118Y-16761058D01*
X12716690Y-16775344D01*
X12773832Y-16775344D01*
X12802404Y-16761058D01*
X12816690Y-16746772D01*
X12830975Y-16718201D01*
X12930975Y-16589630D02*
X13116690Y-16589630D01*
X13016690Y-16703915D01*
X13059547Y-16703915D01*
X13088118Y-16718201D01*
X13102404Y-16732487D01*
X13116690Y-16761058D01*
X13116690Y-16832487D01*
X13102404Y-16861058D01*
X13088118Y-16875344D01*
X13059547Y-16889630D01*
X12973832Y-16889630D01*
X12945261Y-16875344D01*
X12930975Y-16861058D01*
X13230975Y-16589630D02*
X13230975Y-16646772D01*
X13345261Y-16589630D02*
X13345261Y-16646772D01*
X13788118Y-17003915D02*
X13773832Y-16989630D01*
X13745261Y-16946773D01*
X13730975Y-16918201D01*
X13716690Y-16875344D01*
X13702404Y-16803915D01*
X13702404Y-16746772D01*
X13716690Y-16675344D01*
X13730975Y-16632487D01*
X13745261Y-16603915D01*
X13773832Y-16561058D01*
X13788118Y-16546772D01*
X14045261Y-16589630D02*
X13902404Y-16589630D01*
X13888118Y-16732487D01*
X13902404Y-16718201D01*
X13930975Y-16703915D01*
X14002404Y-16703915D01*
X14030975Y-16718201D01*
X14045261Y-16732487D01*
X14059547Y-16761058D01*
X14059547Y-16832487D01*
X14045261Y-16861058D01*
X14030975Y-16875344D01*
X14002404Y-16889630D01*
X13930975Y-16889630D01*
X13902404Y-16875344D01*
X13888118Y-16861058D01*
X14416690Y-16889630D02*
X14416690Y-16589630D01*
X14545261Y-16889630D02*
X14545261Y-16732487D01*
X14530975Y-16703915D01*
X14502404Y-16689630D01*
X14459547Y-16689630D01*
X14430975Y-16703915D01*
X14416690Y-16718201D01*
X14730975Y-16889630D02*
X14702404Y-16875344D01*
X14688118Y-16861058D01*
X14673832Y-16832487D01*
X14673832Y-16746772D01*
X14688118Y-16718201D01*
X14702404Y-16703915D01*
X14730975Y-16689630D01*
X14773832Y-16689630D01*
X14802404Y-16703915D01*
X14816690Y-16718201D01*
X14830975Y-16746772D01*
X14830975Y-16832487D01*
X14816690Y-16861058D01*
X14802404Y-16875344D01*
X14773832Y-16889630D01*
X14730975Y-16889630D01*
X15002404Y-16889630D02*
X14973832Y-16875344D01*
X14959547Y-16846773D01*
X14959547Y-16589630D01*
X15230975Y-16875344D02*
X15202404Y-16889630D01*
X15145261Y-16889630D01*
X15116690Y-16875344D01*
X15102404Y-16846773D01*
X15102404Y-16732487D01*
X15116690Y-16703915D01*
X15145261Y-16689630D01*
X15202404Y-16689630D01*
X15230975Y-16703915D01*
X15245261Y-16732487D01*
X15245261Y-16761058D01*
X15102404Y-16789630D01*
X15359547Y-16875344D02*
X15388118Y-16889630D01*
X15445261Y-16889630D01*
X15473832Y-16875344D01*
X15488118Y-16846773D01*
X15488118Y-16832487D01*
X15473832Y-16803915D01*
X15445261Y-16789630D01*
X15402404Y-16789630D01*
X15373832Y-16775344D01*
X15359547Y-16746772D01*
X15359547Y-16732487D01*
X15373832Y-16703915D01*
X15402404Y-16689630D01*
X15445261Y-16689630D01*
X15473832Y-16703915D01*
X15588118Y-17003915D02*
X15602404Y-16989630D01*
X15630975Y-16946773D01*
X15645261Y-16918201D01*
X15659547Y-16875344D01*
X15673832Y-16803915D01*
X15673832Y-16746772D01*
X15659547Y-16675344D01*
X15645261Y-16632487D01*
X15630975Y-16603915D01*
X15602404Y-16561058D01*
X15588118Y-16546772D01*
X16130975Y-17003915D02*
X16116690Y-16989630D01*
X16088118Y-16946773D01*
X16073832Y-16918201D01*
X16059547Y-16875344D01*
X16045261Y-16803915D01*
X16045261Y-16746772D01*
X16059547Y-16675344D01*
X16073832Y-16632487D01*
X16088118Y-16603915D01*
X16116690Y-16561058D01*
X16130975Y-16546772D01*
X16245261Y-16689630D02*
X16245261Y-16889630D01*
X16245261Y-16718201D02*
X16259547Y-16703915D01*
X16288118Y-16689630D01*
X16330975Y-16689630D01*
X16359547Y-16703915D01*
X16373832Y-16732487D01*
X16373832Y-16889630D01*
X16559547Y-16889630D02*
X16530975Y-16875344D01*
X16516690Y-16861058D01*
X16502404Y-16832487D01*
X16502404Y-16746772D01*
X16516690Y-16718201D01*
X16530975Y-16703915D01*
X16559547Y-16689630D01*
X16602404Y-16689630D01*
X16630975Y-16703915D01*
X16645261Y-16718201D01*
X16659547Y-16746772D01*
X16659547Y-16832487D01*
X16645261Y-16861058D01*
X16630975Y-16875344D01*
X16602404Y-16889630D01*
X16559547Y-16889630D01*
X16745261Y-16689630D02*
X16859547Y-16689630D01*
X16788118Y-16589630D02*
X16788118Y-16846773D01*
X16802404Y-16875344D01*
X16830975Y-16889630D01*
X16859547Y-16889630D01*
X17188118Y-16689630D02*
X17188118Y-16989630D01*
X17188118Y-16703915D02*
X17216690Y-16689630D01*
X17273833Y-16689630D01*
X17302404Y-16703915D01*
X17316690Y-16718201D01*
X17330975Y-16746772D01*
X17330975Y-16832487D01*
X17316690Y-16861058D01*
X17302404Y-16875344D01*
X17273833Y-16889630D01*
X17216690Y-16889630D01*
X17188118Y-16875344D01*
X17502404Y-16889630D02*
X17473833Y-16875344D01*
X17459547Y-16846773D01*
X17459547Y-16589630D01*
X17745261Y-16889630D02*
X17745261Y-16732487D01*
X17730975Y-16703915D01*
X17702404Y-16689630D01*
X17645261Y-16689630D01*
X17616690Y-16703915D01*
X17745261Y-16875344D02*
X17716690Y-16889630D01*
X17645261Y-16889630D01*
X17616690Y-16875344D01*
X17602404Y-16846773D01*
X17602404Y-16818201D01*
X17616690Y-16789630D01*
X17645261Y-16775344D01*
X17716690Y-16775344D01*
X17745261Y-16761058D01*
X17845261Y-16689630D02*
X17959547Y-16689630D01*
X17888118Y-16589630D02*
X17888118Y-16846773D01*
X17902404Y-16875344D01*
X17930975Y-16889630D01*
X17959547Y-16889630D01*
X18173833Y-16875344D02*
X18145261Y-16889630D01*
X18088118Y-16889630D01*
X18059547Y-16875344D01*
X18045261Y-16846773D01*
X18045261Y-16732487D01*
X18059547Y-16703915D01*
X18088118Y-16689630D01*
X18145261Y-16689630D01*
X18173833Y-16703915D01*
X18188118Y-16732487D01*
X18188118Y-16761058D01*
X18045261Y-16789630D01*
X18445261Y-16889630D02*
X18445261Y-16589630D01*
X18445261Y-16875344D02*
X18416690Y-16889630D01*
X18359547Y-16889630D01*
X18330975Y-16875344D01*
X18316690Y-16861058D01*
X18302404Y-16832487D01*
X18302404Y-16746772D01*
X18316690Y-16718201D01*
X18330975Y-16703915D01*
X18359547Y-16689630D01*
X18416690Y-16689630D01*
X18445261Y-16703915D01*
X18559547Y-17003915D02*
X18573833Y-16989630D01*
X18602404Y-16946773D01*
X18616690Y-16918201D01*
X18630975Y-16875344D01*
X18645261Y-16803915D01*
X18645261Y-16746772D01*
X18630975Y-16675344D01*
X18616690Y-16632487D01*
X18602404Y-16603915D01*
X18573833Y-16561058D01*
X18559547Y-16546772D01*
M02*
