G04 #@! TF.GenerationSoftware,KiCad,Pcbnew,(5.1.10)-1*
G04 #@! TF.CreationDate,2021-11-26T09:38:35+07:00*
G04 #@! TF.ProjectId,corne-cherry,636f726e-652d-4636-9865-7272792e6b69,3.0.1*
G04 #@! TF.SameCoordinates,Original*
G04 #@! TF.FileFunction,Soldermask,Top*
G04 #@! TF.FilePolarity,Negative*
%FSLAX46Y46*%
G04 Gerber Fmt 4.6, Leading zero omitted, Abs format (unit mm)*
G04 Created by KiCad (PCBNEW (5.1.10)-1) date 2021-11-26 09:38:35*
%MOMM*%
%LPD*%
G01*
G04 APERTURE LIST*
%ADD10C,3.400000*%
%ADD11C,2.300000*%
%ADD12C,4.500000*%
%ADD13C,2.600000*%
%ADD14C,4.700000*%
%ADD15C,1.600000*%
G04 APERTURE END LIST*
D10*
X136606500Y-69837000D03*
X130256500Y-72377000D03*
D11*
X128986500Y-74917000D03*
X139146500Y-74917000D03*
D12*
X134066500Y-74917000D03*
D10*
X117599500Y-53217000D03*
X111249500Y-55757000D03*
D11*
X109979500Y-58297000D03*
X120139500Y-58297000D03*
D12*
X115059500Y-58297000D03*
D10*
X193606500Y-74587000D03*
X187256500Y-77127000D03*
D11*
X185986500Y-79667000D03*
X196146500Y-79667000D03*
D12*
X191066500Y-79667000D03*
D10*
X212606500Y-93587000D03*
X206256500Y-96127000D03*
D11*
X204986500Y-98667000D03*
X215146500Y-98667000D03*
D12*
X210066500Y-98667000D03*
D10*
X193606500Y-55587000D03*
X187256500Y-58127000D03*
D11*
X185986500Y-60667000D03*
X196146500Y-60667000D03*
D12*
X191066500Y-60667000D03*
D10*
X174606500Y-50837000D03*
X168256500Y-53377000D03*
D11*
X166986500Y-55917000D03*
X177146500Y-55917000D03*
D12*
X172066500Y-55917000D03*
D10*
X174606500Y-69837000D03*
X168256500Y-72377000D03*
D11*
X166986500Y-74917000D03*
X177146500Y-74917000D03*
D12*
X172066500Y-74917000D03*
D10*
X212606500Y-74587000D03*
X206256500Y-77127000D03*
D11*
X204986500Y-79667000D03*
X215146500Y-79667000D03*
D12*
X210066500Y-79667000D03*
D10*
X155606500Y-67462000D03*
X149256500Y-70002000D03*
D11*
X147986500Y-72542000D03*
X158146500Y-72542000D03*
D12*
X153066500Y-72542000D03*
D10*
X136606500Y-88837000D03*
X130256500Y-91377000D03*
D11*
X128986500Y-93917000D03*
X139146500Y-93917000D03*
D12*
X134066500Y-93917000D03*
D10*
X155606500Y-48462000D03*
X149256500Y-51002000D03*
D11*
X147986500Y-53542000D03*
X158146500Y-53542000D03*
D12*
X153066500Y-53542000D03*
D10*
X146106500Y-108462000D03*
X139756500Y-111002000D03*
D11*
X138486500Y-113542000D03*
X148646500Y-113542000D03*
D12*
X143566500Y-113542000D03*
D10*
X123705151Y-110727696D03*
X118228922Y-114824649D03*
D11*
X117659597Y-117606801D03*
X127473403Y-114977199D03*
D12*
X122566500Y-116292000D03*
D10*
X174606500Y-88837000D03*
X168256500Y-91377000D03*
D11*
X166986500Y-93917000D03*
X177146500Y-93917000D03*
D12*
X172066500Y-93917000D03*
D10*
X136606500Y-50837000D03*
X130256500Y-53377000D03*
D11*
X128986500Y-55917000D03*
X139146500Y-55917000D03*
D12*
X134066500Y-55917000D03*
D13*
X102302500Y-99156000D03*
D14*
X124596500Y-66667500D03*
X110841500Y-114037000D03*
X157407500Y-106422500D03*
X200551500Y-89157500D03*
X200551500Y-70157500D03*
D13*
X87870500Y-107677000D03*
D10*
X105985909Y-119701705D03*
X100611205Y-115472443D03*
D11*
X97776500Y-115642591D03*
X102856500Y-124441409D03*
D12*
X100316500Y-120042000D03*
D15*
X94489500Y-99162000D03*
X87489500Y-99162000D03*
D10*
X212606500Y-55587000D03*
X206256500Y-58127000D03*
D11*
X204986500Y-60667000D03*
X215146500Y-60667000D03*
D12*
X210066500Y-60667000D03*
D10*
X117606500Y-72212000D03*
X111256500Y-74752000D03*
D11*
X109986500Y-77292000D03*
X120146500Y-77292000D03*
D12*
X115066500Y-77292000D03*
D10*
X117606500Y-91212000D03*
X111256500Y-93752000D03*
D11*
X109986500Y-96292000D03*
X120146500Y-96292000D03*
D12*
X115066500Y-96292000D03*
D10*
X193606500Y-93587000D03*
X187256500Y-96127000D03*
D11*
X185986500Y-98667000D03*
X196146500Y-98667000D03*
D12*
X191066500Y-98667000D03*
D10*
X155606500Y-86462000D03*
X149256500Y-89002000D03*
D11*
X147986500Y-91542000D03*
X158146500Y-91542000D03*
D12*
X153066500Y-91542000D03*
M02*
