M48
; DRILL file {KiCad (5.1.10)-1} date 11/26/21 09:39:00
; FORMAT={-:-/ absolute / metric / decimal}
; #@! TF.CreationDate,2021-11-26T09:39:00+07:00
; #@! TF.GenerationSoftware,Kicad,Pcbnew,(5.1.10)-1
; #@! TF.FileFunction,Plated,1,2,PTH
FMAT,2
METRIC
T1C0.400
T2C0.813
T3C1.000
T4C1.300
%
G90
G05
T1
X93.789Y-119.527
X95.26Y-102.597
X98.659Y-125.347
X100.34Y-111.567
X100.563Y-110.52
X104.516Y-56.281
X105.239Y-85.787
X105.309Y-65.197
X105.386Y-61.097
X105.989Y-83.607
X106.159Y-76.937
X106.809Y-65.907
X106.809Y-71.157
X107.749Y-87.907
X107.87Y-95.567
X107.959Y-57.697
X107.959Y-72.697
X107.959Y-91.797
X108.059Y-76.797
X108.684Y-83.307
X108.684Y-87.392
X110.439Y-99.577
X110.489Y-107.277
X110.494Y-108.547
X110.705Y-69.361
X111.159Y-101.927
X111.23Y-61.537
X111.389Y-82.757
X111.49Y-63.797
X114.639Y-113.787
X118.789Y-81.277
X118.819Y-100.417
X120.399Y-122.377
X126.59Y-86.767
X126.959Y-55.297
X126.959Y-70.397
X126.959Y-74.197
X126.959Y-89.397
X126.969Y-93.217
X130.309Y-99.257
X130.359Y-80.257
X136.54Y-109.227
X137.779Y-98.127
X137.85Y-79.037
X137.889Y-60.077
X145.559Y-83.912
X145.959Y-52.897
X145.959Y-67.997
X145.959Y-71.997
X145.959Y-87.097
X146.01Y-90.877
X146.6Y-83.872
X147.219Y-117.627
X147.779Y-100.657
X148.604Y-64.601
X148.67Y-102.667
X148.709Y-94.807
X148.749Y-56.947
X149.35Y-78.047
X149.459Y-97.027
X149.499Y-58.997
X156.684Y-76.782
X156.719Y-95.617
X164.686Y-83.405
X164.959Y-55.197
X164.959Y-70.397
X165.059Y-74.397
X165.059Y-89.397
X168.359Y-99.247
X168.429Y-80.247
X175.73Y-79.187
X175.79Y-60.037
X183.45Y-88.992
X183.959Y-59.997
X183.959Y-75.197
X183.959Y-79.097
X183.959Y-94.097
X186.624Y-90.626
X186.767Y-71.849
X187.029Y-82.897
X187.209Y-63.837
X187.459Y-85.317
X187.619Y-66.247
X194.76Y-83.637
X194.779Y-102.647
X202.714Y-87.275
X202.734Y-72.107
X202.959Y-94.197
X202.999Y-91.442
X203.045Y-75.097
X203.059Y-60.097
X203.07Y-79.447
X206.429Y-85.067
X206.569Y-104.147
X213.769Y-64.857
X213.819Y-83.787
T2
X87.831Y-56.804
X87.831Y-59.344
X87.831Y-61.884
X87.831Y-64.424
X87.831Y-66.964
X87.831Y-69.504
X87.831Y-72.044
X87.831Y-74.584
X87.831Y-77.124
X87.831Y-79.664
X87.831Y-82.204
X87.831Y-84.744
X91.629Y-91.912
X94.169Y-91.912
X96.709Y-91.912
X99.249Y-91.912
X103.051Y-56.804
X103.051Y-59.344
X103.051Y-61.884
X103.051Y-64.424
X103.051Y-66.964
X103.051Y-69.504
X103.051Y-72.044
X103.051Y-74.584
X103.051Y-77.124
X103.051Y-79.664
X103.051Y-82.204
X103.051Y-84.744
T4
X87.757Y-88.164
X87.757Y-94.664
T3
X89.039Y-97.062G85X89.539Y-97.062
G05
X92.039Y-97.062G85X92.539Y-97.062
G05
X96.039Y-97.062G85X96.539Y-97.062
G05
X97.539Y-101.262G85X98.039Y-101.262
G05
T0
M30
