%FSLAX45Y45*%
G04 Gerber Fmt 4.5, Leading zero omitted, Abs format (unit mm)*
G04 Created by KiCad (PCBNEW (5.1.10)-1) date 2021-11-26 09:39:06*
%MOMM*%
%LPD*%
G01*
G04 APERTURE LIST*
%TA.AperFunction,Profile*%
%ADD10C,0.200000*%
%TD*%
%ADD11C,0.200000*%
%ADD12C,0.300000*%
G04 APERTURE END LIST*
D10*
X21252250Y-10814400D02*
X21252250Y-10814300D01*
X21252250Y-10813300D02*
X21252150Y-10813300D01*
X15240651Y-12267009D02*
X11573606Y-12744046D01*
X18115649Y-5117043D02*
X18115649Y-5117018D01*
X12515665Y-4892025D02*
X12510729Y-4913700D01*
X12510729Y-4913700D02*
X12497460Y-4930602D01*
X12497460Y-4930602D02*
X12478149Y-4940441D01*
X12478149Y-4940441D02*
X12465653Y-4942012D01*
X16330309Y-10806663D02*
X15276007Y-12252379D01*
X9885930Y-13545161D02*
X8563328Y-11251924D01*
X14365672Y-4692025D02*
X14365647Y-4692025D01*
X14415659Y-4517019D02*
X14420584Y-4495341D01*
X14420584Y-4495341D02*
X14433845Y-4478432D01*
X14433845Y-4478432D02*
X14453151Y-4468584D01*
X14453151Y-4468584D02*
X14465647Y-4467007D01*
X16215654Y-4517019D02*
X16215654Y-4517019D01*
X16165667Y-4467007D02*
X16187343Y-4471943D01*
X16187343Y-4471943D02*
X16204245Y-4485212D01*
X16204245Y-4485212D02*
X16214083Y-4504523D01*
X16214083Y-4504523D02*
X16215654Y-4517019D01*
X16215654Y-4642038D02*
X16215654Y-4642013D01*
X18065662Y-4692025D02*
X18087331Y-4696958D01*
X18087331Y-4696958D02*
X18104231Y-4710219D01*
X18104231Y-4710219D02*
X18114073Y-4729521D01*
X18114073Y-4729521D02*
X18115649Y-4742013D01*
X18165661Y-5167030D02*
X18143983Y-5162105D01*
X18143983Y-5162105D02*
X18127074Y-5148844D01*
X18127074Y-5148844D02*
X18117226Y-5129538D01*
X18117226Y-5129538D02*
X18115649Y-5117043D01*
X21915663Y-5217017D02*
X21915663Y-5217017D01*
X21865650Y-5167030D02*
X21887328Y-5171955D01*
X21887328Y-5171955D02*
X21904237Y-5185215D01*
X21904237Y-5185215D02*
X21914085Y-5204522D01*
X21914085Y-5204522D02*
X21915663Y-5217017D01*
X21865651Y-10792007D02*
X21865650Y-10792007D01*
X12515665Y-4742013D02*
X12520598Y-4720343D01*
X12520598Y-4720343D02*
X12533859Y-4703444D01*
X12533859Y-4703444D02*
X12553161Y-4693601D01*
X12553161Y-4693601D02*
X12565652Y-4692025D01*
X9886240Y-13545623D02*
X9885930Y-13545161D01*
X10615671Y-5117018D02*
X10610746Y-5138696D01*
X10610746Y-5138696D02*
X10597485Y-5155605D01*
X10597485Y-5155605D02*
X10578178Y-5165453D01*
X10578178Y-5165453D02*
X10565683Y-5167030D01*
X15276007Y-12252379D02*
X15258652Y-12263662D01*
X15258652Y-12263662D02*
X15240651Y-12267009D01*
X10078742Y-13583108D02*
X10060336Y-13593587D01*
X10060336Y-13593587D02*
X10041061Y-13600987D01*
X10041061Y-13600987D02*
X10021244Y-13605372D01*
X10021244Y-13605372D02*
X10001210Y-13606805D01*
X10001210Y-13606805D02*
X9974727Y-13604234D01*
X9974727Y-13604234D02*
X9949214Y-13596679D01*
X9949214Y-13596679D02*
X9931182Y-13587834D01*
X9931182Y-13587834D02*
X9914458Y-13576333D01*
X9914458Y-13576333D02*
X9899368Y-13562242D01*
X9899368Y-13562242D02*
X9886240Y-13545623D01*
X14415659Y-4642013D02*
X14410734Y-4663691D01*
X14410734Y-4663691D02*
X14397474Y-4680600D01*
X14397474Y-4680600D02*
X14378167Y-4690448D01*
X14378167Y-4690448D02*
X14365672Y-4692025D01*
X16265666Y-4692025D02*
X16243988Y-4687100D01*
X16243988Y-4687100D02*
X16227080Y-4673840D01*
X16227080Y-4673840D02*
X16217232Y-4654533D01*
X16217232Y-4654533D02*
X16215654Y-4642038D01*
X8590760Y-5166853D02*
X10565659Y-5167030D01*
X11508150Y-12757000D02*
X11528319Y-12751577D01*
X11528319Y-12751577D02*
X11548771Y-12747399D01*
X11548771Y-12747399D02*
X11569448Y-12744478D01*
X11569448Y-12744478D02*
X11573606Y-12744046D01*
X11508150Y-12757000D02*
X10078742Y-13583108D01*
X14415736Y-4641835D02*
X14415736Y-4516867D01*
X10615900Y-4991847D02*
X10615671Y-5117018D01*
X18165788Y-5166853D02*
X21865650Y-5167030D01*
X21915663Y-5217017D02*
X21915840Y-10741893D01*
X16330309Y-10806663D02*
X16347662Y-10795365D01*
X16347662Y-10795365D02*
X16365666Y-10792007D01*
X16265870Y-4691873D02*
X17466650Y-4691873D01*
X16977950Y-10792007D02*
X20777950Y-10791931D01*
X12515818Y-4891771D02*
X12515818Y-4741911D01*
X10665684Y-4941809D02*
X12465780Y-4941809D01*
X8563379Y-11251772D02*
X8554431Y-11233885D01*
X8554431Y-11233885D02*
X8546883Y-11212423D01*
X8546883Y-11212423D02*
X8542265Y-11190159D01*
X8542265Y-11190159D02*
X8540656Y-11167390D01*
X8540656Y-11167390D02*
X8540670Y-11164523D01*
X8540722Y-5216890D02*
X8540722Y-11164295D01*
X16215832Y-4516867D02*
X16215832Y-4641835D01*
X12565856Y-4691873D02*
X13177950Y-4691873D01*
X21915663Y-10742020D02*
X21910727Y-10763696D01*
X21910727Y-10763696D02*
X21897458Y-10780598D01*
X21897458Y-10780598D02*
X21878147Y-10790436D01*
X21878147Y-10790436D02*
X21865651Y-10792007D01*
X18115750Y-4741911D02*
X18115750Y-5116815D01*
X10615671Y-4992024D02*
X10620597Y-4970346D01*
X10620597Y-4970346D02*
X10633857Y-4953438D01*
X10633857Y-4953438D02*
X10653162Y-4943590D01*
X10653162Y-4943590D02*
X10665658Y-4942012D01*
X8540670Y-5217017D02*
X8545603Y-5195348D01*
X8545603Y-5195348D02*
X8558864Y-5178448D01*
X8558864Y-5178448D02*
X8578167Y-5168606D01*
X8578167Y-5168606D02*
X8590658Y-5167030D01*
X14465774Y-4466829D02*
X16165794Y-4466829D01*
X10565683Y-5167030D02*
X10565659Y-5167030D01*
X16365666Y-10792007D02*
X16977950Y-10792007D01*
X21865650Y-10792007D02*
X20777950Y-10791931D01*
X18065662Y-4692025D02*
X17452950Y-4692025D01*
X14365647Y-4692025D02*
X13177950Y-4691873D01*
D11*
X9358950Y-11932700D02*
X9398950Y-11972700D01*
X9398950Y-11932700D02*
X9358950Y-11972700D01*
X9505950Y-10239700D02*
X9545950Y-10279700D01*
X9545950Y-10239700D02*
X9505950Y-10279700D01*
X9845950Y-12514700D02*
X9885950Y-12554700D01*
X9885950Y-12514700D02*
X9845950Y-12554700D01*
X10013950Y-11136700D02*
X10053950Y-11176700D01*
X10053950Y-11136700D02*
X10013950Y-11176700D01*
X10036256Y-11032006D02*
X10076256Y-11072006D01*
X10076256Y-11032006D02*
X10036256Y-11072006D01*
X10431576Y-5608102D02*
X10471576Y-5648102D01*
X10471576Y-5608102D02*
X10431576Y-5648102D01*
X10503950Y-8558700D02*
X10543950Y-8598700D01*
X10543950Y-8558700D02*
X10503950Y-8598700D01*
X10510949Y-6499700D02*
X10550949Y-6539700D01*
X10550949Y-6499700D02*
X10510949Y-6539700D01*
X10518650Y-6089700D02*
X10558650Y-6129700D01*
X10558650Y-6089700D02*
X10518650Y-6129700D01*
X10578950Y-8340700D02*
X10618950Y-8380700D01*
X10618950Y-8340700D02*
X10578950Y-8380700D01*
X10595950Y-7673700D02*
X10635950Y-7713700D01*
X10635950Y-7673700D02*
X10595950Y-7713700D01*
X10660950Y-6570700D02*
X10700950Y-6610700D01*
X10700950Y-6570700D02*
X10660950Y-6610700D01*
X10660950Y-7095700D02*
X10700950Y-7135700D01*
X10700950Y-7095700D02*
X10660950Y-7135700D01*
X10754950Y-8770700D02*
X10794950Y-8810700D01*
X10794950Y-8770700D02*
X10754950Y-8810700D01*
X10766950Y-9536700D02*
X10806950Y-9576700D01*
X10806950Y-9536700D02*
X10766950Y-9576700D01*
X10775950Y-5749700D02*
X10815950Y-5789700D01*
X10815950Y-5749700D02*
X10775950Y-5789700D01*
X10775950Y-7249700D02*
X10815950Y-7289700D01*
X10815950Y-7249700D02*
X10775950Y-7289700D01*
X10775950Y-9159700D02*
X10815950Y-9199700D01*
X10815950Y-9159700D02*
X10775950Y-9199700D01*
X10785950Y-7659700D02*
X10825950Y-7699700D01*
X10825950Y-7659700D02*
X10785950Y-7699700D01*
X10848450Y-8310701D02*
X10888450Y-8350701D01*
X10888450Y-8310701D02*
X10848450Y-8350701D01*
X10848450Y-8719200D02*
X10888450Y-8759200D01*
X10888450Y-8719200D02*
X10848450Y-8759200D01*
X11023950Y-9937700D02*
X11063950Y-9977700D01*
X11063950Y-9937700D02*
X11023950Y-9977700D01*
X11028950Y-10707700D02*
X11068950Y-10747700D01*
X11068950Y-10707700D02*
X11028950Y-10747700D01*
X11029449Y-10834700D02*
X11069449Y-10874700D01*
X11069449Y-10834700D02*
X11029449Y-10874700D01*
X11050544Y-6916139D02*
X11090544Y-6956139D01*
X11090544Y-6916139D02*
X11050544Y-6956139D01*
X11095950Y-10172700D02*
X11135950Y-10212700D01*
X11135950Y-10172700D02*
X11095950Y-10212700D01*
X11102950Y-6133700D02*
X11142950Y-6173700D01*
X11142950Y-6133700D02*
X11102950Y-6173700D01*
X11118950Y-8255700D02*
X11158950Y-8295700D01*
X11158950Y-8255700D02*
X11118950Y-8295700D01*
X11128951Y-6359700D02*
X11168951Y-6399700D01*
X11168951Y-6359700D02*
X11128951Y-6399700D01*
X11443950Y-11358700D02*
X11483950Y-11398700D01*
X11483950Y-11358700D02*
X11443950Y-11398700D01*
X11858950Y-8107700D02*
X11898950Y-8147700D01*
X11898950Y-8107700D02*
X11858950Y-8147700D01*
X11861950Y-10021700D02*
X11901950Y-10061700D01*
X11901950Y-10021700D02*
X11861950Y-10061700D01*
X12019950Y-12217700D02*
X12059950Y-12257700D01*
X12059950Y-12217700D02*
X12019950Y-12257700D01*
X12638950Y-8656700D02*
X12678950Y-8696700D01*
X12678950Y-8656700D02*
X12638950Y-8696700D01*
X12675950Y-5509700D02*
X12715950Y-5549700D01*
X12715950Y-5509700D02*
X12675950Y-5549700D01*
X12675950Y-7019700D02*
X12715950Y-7059700D01*
X12715950Y-7019700D02*
X12675950Y-7059700D01*
X12675950Y-7399700D02*
X12715950Y-7439700D01*
X12715950Y-7399700D02*
X12675950Y-7439700D01*
X12675950Y-8919700D02*
X12715950Y-8959700D01*
X12715950Y-8919700D02*
X12675950Y-8959700D01*
X12676950Y-9301700D02*
X12716950Y-9341700D01*
X12716950Y-9301700D02*
X12676950Y-9341700D01*
X13010950Y-9905700D02*
X13050950Y-9945700D01*
X13050950Y-9905700D02*
X13010950Y-9945700D01*
X13015950Y-8005700D02*
X13055950Y-8045700D01*
X13055950Y-8005700D02*
X13015950Y-8045700D01*
X13633950Y-10902700D02*
X13673950Y-10942700D01*
X13673950Y-10902700D02*
X13633950Y-10942700D01*
X13757950Y-9792700D02*
X13797950Y-9832700D01*
X13797950Y-9792700D02*
X13757950Y-9832700D01*
X13764950Y-7883700D02*
X13804950Y-7923700D01*
X13804950Y-7883700D02*
X13764950Y-7923700D01*
X13768950Y-5987700D02*
X13808950Y-6027700D01*
X13808950Y-5987700D02*
X13768950Y-6027700D01*
X14535950Y-8371200D02*
X14575950Y-8411200D01*
X14575950Y-8371200D02*
X14535950Y-8411200D01*
X14575950Y-5269700D02*
X14615950Y-5309700D01*
X14615950Y-5269700D02*
X14575950Y-5309700D01*
X14575950Y-6779700D02*
X14615950Y-6819700D01*
X14615950Y-6779700D02*
X14575950Y-6819700D01*
X14575950Y-7179700D02*
X14615950Y-7219700D01*
X14615950Y-7179700D02*
X14575950Y-7219700D01*
X14575950Y-8689700D02*
X14615950Y-8729700D01*
X14615950Y-8689700D02*
X14575950Y-8729700D01*
X14580950Y-9067700D02*
X14620950Y-9107700D01*
X14620950Y-9067700D02*
X14580950Y-9107700D01*
X14639950Y-8367200D02*
X14679950Y-8407200D01*
X14679950Y-8367200D02*
X14639950Y-8407200D01*
X14701950Y-11742700D02*
X14741950Y-11782700D01*
X14741950Y-11742700D02*
X14701950Y-11782700D01*
X14757950Y-10045700D02*
X14797950Y-10085700D01*
X14797950Y-10045700D02*
X14757950Y-10085700D01*
X14840449Y-6440086D02*
X14880449Y-6480086D01*
X14880449Y-6440086D02*
X14840449Y-6480086D01*
X14846950Y-10246700D02*
X14886950Y-10286700D01*
X14886950Y-10246700D02*
X14846950Y-10286700D01*
X14850950Y-9460700D02*
X14890950Y-9500700D01*
X14890950Y-9460700D02*
X14850950Y-9500700D01*
X14854950Y-5674700D02*
X14894950Y-5714700D01*
X14894950Y-5674700D02*
X14854950Y-5714700D01*
X14914950Y-7784700D02*
X14954950Y-7824700D01*
X14954950Y-7784700D02*
X14914950Y-7824700D01*
X14925950Y-9682700D02*
X14965950Y-9722700D01*
X14965950Y-9682700D02*
X14925950Y-9722700D01*
X14929950Y-5879700D02*
X14969950Y-5919700D01*
X14969950Y-5879700D02*
X14929950Y-5919700D01*
X15648417Y-7658233D02*
X15688417Y-7698233D01*
X15688417Y-7658233D02*
X15648417Y-7698233D01*
X15651917Y-9541733D02*
X15691917Y-9581733D01*
X15691917Y-9541733D02*
X15651917Y-9581733D01*
X16448645Y-8320505D02*
X16488645Y-8360505D01*
X16488645Y-8320505D02*
X16448645Y-8360505D01*
X16475950Y-5499700D02*
X16515950Y-5539700D01*
X16515950Y-5499700D02*
X16475950Y-5539700D01*
X16475950Y-7019700D02*
X16515950Y-7059700D01*
X16515950Y-7019700D02*
X16475950Y-7059700D01*
X16485950Y-7419700D02*
X16525950Y-7459700D01*
X16525950Y-7419700D02*
X16485950Y-7459700D01*
X16485950Y-8919700D02*
X16525950Y-8959700D01*
X16525950Y-8919700D02*
X16485950Y-8959700D01*
X16815950Y-9904700D02*
X16855950Y-9944700D01*
X16855950Y-9904700D02*
X16815950Y-9944700D01*
X16822950Y-8004700D02*
X16862950Y-8044700D01*
X16862950Y-8004700D02*
X16822950Y-8044700D01*
X17552950Y-7898700D02*
X17592950Y-7938700D01*
X17592950Y-7898700D02*
X17552950Y-7938700D01*
X17558950Y-5983700D02*
X17598950Y-6023700D01*
X17598950Y-5983700D02*
X17558950Y-6023700D01*
X18324950Y-8879201D02*
X18364950Y-8919201D01*
X18364950Y-8879201D02*
X18324950Y-8919201D01*
X18375950Y-5979700D02*
X18415950Y-6019700D01*
X18415950Y-5979700D02*
X18375950Y-6019700D01*
X18375950Y-7499700D02*
X18415950Y-7539700D01*
X18415950Y-7499700D02*
X18375950Y-7539700D01*
X18375950Y-7889700D02*
X18415950Y-7929700D01*
X18415950Y-7889700D02*
X18375950Y-7929700D01*
X18375950Y-9389700D02*
X18415950Y-9429700D01*
X18415950Y-9389700D02*
X18375950Y-9429700D01*
X18642449Y-9042602D02*
X18682449Y-9082602D01*
X18682449Y-9042602D02*
X18642449Y-9082602D01*
X18656699Y-7164865D02*
X18696699Y-7204865D01*
X18696699Y-7164865D02*
X18656699Y-7204865D01*
X18682950Y-8269700D02*
X18722950Y-8309700D01*
X18722950Y-8269700D02*
X18682950Y-8309700D01*
X18700950Y-6363700D02*
X18740950Y-6403700D01*
X18740950Y-6363700D02*
X18700950Y-6403700D01*
X18725950Y-8511700D02*
X18765950Y-8551700D01*
X18765950Y-8511700D02*
X18725950Y-8551700D01*
X18741950Y-6604700D02*
X18781950Y-6644700D01*
X18781950Y-6604700D02*
X18741950Y-6644700D01*
X19455950Y-8343700D02*
X19495950Y-8383700D01*
X19495950Y-8343700D02*
X19455950Y-8383700D01*
X19457950Y-10244700D02*
X19497950Y-10284700D01*
X19497950Y-10244700D02*
X19457950Y-10284700D01*
X20251366Y-8707496D02*
X20291366Y-8747496D01*
X20291366Y-8707496D02*
X20251366Y-8747496D01*
X20253450Y-7190700D02*
X20293450Y-7230700D01*
X20293450Y-7190700D02*
X20253450Y-7230700D01*
X20275950Y-9399700D02*
X20315950Y-9439700D01*
X20315950Y-9399700D02*
X20275950Y-9439700D01*
X20279950Y-9124200D02*
X20319950Y-9164200D01*
X20319950Y-9124200D02*
X20279950Y-9164200D01*
X20284451Y-7489700D02*
X20324451Y-7529700D01*
X20324451Y-7489700D02*
X20284451Y-7529700D01*
X20285950Y-5989700D02*
X20325950Y-6029700D01*
X20325950Y-5989700D02*
X20285950Y-6029700D01*
X20286950Y-7924700D02*
X20326950Y-7964700D01*
X20326950Y-7924700D02*
X20286950Y-7964700D01*
X20622950Y-8486700D02*
X20662950Y-8526700D01*
X20662950Y-8486700D02*
X20622950Y-8526700D01*
X20636950Y-10394700D02*
X20676950Y-10434700D01*
X20676950Y-10394700D02*
X20636950Y-10434700D01*
X21356950Y-6465700D02*
X21396950Y-6505700D01*
X21396950Y-6465700D02*
X21356950Y-6505700D01*
X21361950Y-8358700D02*
X21401950Y-8398700D01*
X21401950Y-8358700D02*
X21361950Y-8398700D01*
X8823730Y-5680400D02*
G75*
G03*
X8823730Y-5680400I-40640J0D01*
G01*
X8823730Y-5934400D02*
G75*
G03*
X8823730Y-5934400I-40640J0D01*
G01*
X8823730Y-6188400D02*
G75*
G03*
X8823730Y-6188400I-40640J0D01*
G01*
X8823730Y-6442400D02*
G75*
G03*
X8823730Y-6442400I-40640J0D01*
G01*
X8823730Y-6696400D02*
G75*
G03*
X8823730Y-6696400I-40640J0D01*
G01*
X8823730Y-6950400D02*
G75*
G03*
X8823730Y-6950400I-40640J0D01*
G01*
X8823730Y-7204400D02*
G75*
G03*
X8823730Y-7204400I-40640J0D01*
G01*
X8823730Y-7458400D02*
G75*
G03*
X8823730Y-7458400I-40640J0D01*
G01*
X8823730Y-7712400D02*
G75*
G03*
X8823730Y-7712400I-40640J0D01*
G01*
X8823730Y-7966400D02*
G75*
G03*
X8823730Y-7966400I-40640J0D01*
G01*
X8823730Y-8220400D02*
G75*
G03*
X8823730Y-8220400I-40640J0D01*
G01*
X8823730Y-8474400D02*
G75*
G03*
X8823730Y-8474400I-40640J0D01*
G01*
X9203590Y-9191200D02*
G75*
G03*
X9203590Y-9191200I-40640J0D01*
G01*
X9457590Y-9191200D02*
G75*
G03*
X9457590Y-9191200I-40640J0D01*
G01*
X9711590Y-9191200D02*
G75*
G03*
X9711590Y-9191200I-40640J0D01*
G01*
X9965590Y-9191200D02*
G75*
G03*
X9965590Y-9191200I-40640J0D01*
G01*
X10345730Y-5680400D02*
G75*
G03*
X10345730Y-5680400I-40640J0D01*
G01*
X10345730Y-5934400D02*
G75*
G03*
X10345730Y-5934400I-40640J0D01*
G01*
X10345730Y-6188400D02*
G75*
G03*
X10345730Y-6188400I-40640J0D01*
G01*
X10345730Y-6442400D02*
G75*
G03*
X10345730Y-6442400I-40640J0D01*
G01*
X10345730Y-6696400D02*
G75*
G03*
X10345730Y-6696400I-40640J0D01*
G01*
X10345730Y-6950400D02*
G75*
G03*
X10345730Y-6950400I-40640J0D01*
G01*
X10345730Y-7204400D02*
G75*
G03*
X10345730Y-7204400I-40640J0D01*
G01*
X10345730Y-7458400D02*
G75*
G03*
X10345730Y-7458400I-40640J0D01*
G01*
X10345730Y-7712400D02*
G75*
G03*
X10345730Y-7712400I-40640J0D01*
G01*
X10345730Y-7966400D02*
G75*
G03*
X10345730Y-7966400I-40640J0D01*
G01*
X10345730Y-8220400D02*
G75*
G03*
X10345730Y-8220400I-40640J0D01*
G01*
X10345730Y-8474400D02*
G75*
G03*
X10345730Y-8474400I-40640J0D01*
G01*
X8928950Y-9656200D02*
X8928950Y-9756200D01*
X8878950Y-9706200D02*
X8978950Y-9706200D01*
X8903950Y-9746200D02*
X8953950Y-9746200D01*
X8903950Y-9666200D02*
X8953950Y-9666200D01*
X8953950Y-9746200D02*
G75*
G03*
X8953950Y-9666200I0J40000D01*
G01*
X8903950Y-9666200D02*
G75*
G03*
X8903950Y-9746200I0J-40000D01*
G01*
X9228950Y-9656200D02*
X9228950Y-9756200D01*
X9178950Y-9706200D02*
X9278950Y-9706200D01*
X9203950Y-9746200D02*
X9253950Y-9746200D01*
X9203950Y-9666200D02*
X9253950Y-9666200D01*
X9253950Y-9746200D02*
G75*
G03*
X9253950Y-9666200I0J40000D01*
G01*
X9203950Y-9666200D02*
G75*
G03*
X9203950Y-9746200I0J-40000D01*
G01*
X9628950Y-9656200D02*
X9628950Y-9756200D01*
X9578950Y-9706200D02*
X9678950Y-9706200D01*
X9603950Y-9746200D02*
X9653950Y-9746200D01*
X9603950Y-9666200D02*
X9653950Y-9666200D01*
X9653950Y-9746200D02*
G75*
G03*
X9653950Y-9666200I0J40000D01*
G01*
X9603950Y-9666200D02*
G75*
G03*
X9603950Y-9746200I0J-40000D01*
G01*
X9778950Y-10076200D02*
X9778950Y-10176200D01*
X9728950Y-10126200D02*
X9828950Y-10126200D01*
X9753950Y-10166200D02*
X9803950Y-10166200D01*
X9753950Y-10086200D02*
X9803950Y-10086200D01*
X9803950Y-10166200D02*
G75*
G03*
X9803950Y-10086200I0J40000D01*
G01*
X9753950Y-10086200D02*
G75*
G03*
X9753950Y-10166200I0J-40000D01*
G01*
X8821612Y-8862362D02*
X8821612Y-8770438D01*
X8729688Y-8770438D01*
X8729688Y-8862362D01*
X8821612Y-8862362D01*
X8821612Y-9512362D02*
X8821612Y-9420438D01*
X8729688Y-9420438D01*
X8729688Y-9512362D01*
X8821612Y-9512362D01*
D12*
X8816690Y-14101630D02*
X8816690Y-13801630D01*
X8888118Y-13801630D01*
X8930975Y-13815915D01*
X8959547Y-13844487D01*
X8973833Y-13873058D01*
X8988118Y-13930201D01*
X8988118Y-13973058D01*
X8973833Y-14030201D01*
X8959547Y-14058772D01*
X8930975Y-14087344D01*
X8888118Y-14101630D01*
X8816690Y-14101630D01*
X9116690Y-14101630D02*
X9116690Y-13901630D01*
X9116690Y-13958772D02*
X9130975Y-13930201D01*
X9145261Y-13915915D01*
X9173833Y-13901630D01*
X9202404Y-13901630D01*
X9302404Y-14101630D02*
X9302404Y-13901630D01*
X9302404Y-13801630D02*
X9288118Y-13815915D01*
X9302404Y-13830201D01*
X9316690Y-13815915D01*
X9302404Y-13801630D01*
X9302404Y-13830201D01*
X9488118Y-14101630D02*
X9459547Y-14087344D01*
X9445261Y-14058772D01*
X9445261Y-13801630D01*
X9645261Y-14101630D02*
X9616690Y-14087344D01*
X9602404Y-14058772D01*
X9602404Y-13801630D01*
X9988118Y-14101630D02*
X9988118Y-13801630D01*
X10088118Y-14015915D01*
X10188118Y-13801630D01*
X10188118Y-14101630D01*
X10459547Y-14101630D02*
X10459547Y-13944487D01*
X10445261Y-13915915D01*
X10416690Y-13901630D01*
X10359547Y-13901630D01*
X10330975Y-13915915D01*
X10459547Y-14087344D02*
X10430975Y-14101630D01*
X10359547Y-14101630D01*
X10330975Y-14087344D01*
X10316690Y-14058772D01*
X10316690Y-14030201D01*
X10330975Y-14001630D01*
X10359547Y-13987344D01*
X10430975Y-13987344D01*
X10459547Y-13973058D01*
X10602404Y-13901630D02*
X10602404Y-14201630D01*
X10602404Y-13915915D02*
X10630975Y-13901630D01*
X10688118Y-13901630D01*
X10716690Y-13915915D01*
X10730975Y-13930201D01*
X10745261Y-13958772D01*
X10745261Y-14044487D01*
X10730975Y-14073058D01*
X10716690Y-14087344D01*
X10688118Y-14101630D01*
X10630975Y-14101630D01*
X10602404Y-14087344D01*
X10873833Y-14073058D02*
X10888118Y-14087344D01*
X10873833Y-14101630D01*
X10859547Y-14087344D01*
X10873833Y-14073058D01*
X10873833Y-14101630D01*
X10873833Y-13915915D02*
X10888118Y-13930201D01*
X10873833Y-13944487D01*
X10859547Y-13930201D01*
X10873833Y-13915915D01*
X10873833Y-13944487D01*
X8490261Y-14575915D02*
X8530261Y-14615915D01*
X8530261Y-14575915D02*
X8490261Y-14615915D01*
X8873833Y-14431630D02*
X8902404Y-14431630D01*
X8930975Y-14445915D01*
X8945261Y-14460201D01*
X8959547Y-14488772D01*
X8973833Y-14545915D01*
X8973833Y-14617344D01*
X8959547Y-14674487D01*
X8945261Y-14703058D01*
X8930975Y-14717344D01*
X8902404Y-14731630D01*
X8873833Y-14731630D01*
X8845261Y-14717344D01*
X8830975Y-14703058D01*
X8816690Y-14674487D01*
X8802404Y-14617344D01*
X8802404Y-14545915D01*
X8816690Y-14488772D01*
X8830975Y-14460201D01*
X8845261Y-14445915D01*
X8873833Y-14431630D01*
X9102404Y-14703058D02*
X9116690Y-14717344D01*
X9102404Y-14731630D01*
X9088118Y-14717344D01*
X9102404Y-14703058D01*
X9102404Y-14731630D01*
X9373833Y-14531630D02*
X9373833Y-14731630D01*
X9302404Y-14417344D02*
X9230975Y-14631630D01*
X9416690Y-14631630D01*
X9588118Y-14431630D02*
X9616690Y-14431630D01*
X9645261Y-14445915D01*
X9659547Y-14460201D01*
X9673833Y-14488772D01*
X9688118Y-14545915D01*
X9688118Y-14617344D01*
X9673833Y-14674487D01*
X9659547Y-14703058D01*
X9645261Y-14717344D01*
X9616690Y-14731630D01*
X9588118Y-14731630D01*
X9559547Y-14717344D01*
X9545261Y-14703058D01*
X9530975Y-14674487D01*
X9516690Y-14617344D01*
X9516690Y-14545915D01*
X9530975Y-14488772D01*
X9545261Y-14460201D01*
X9559547Y-14445915D01*
X9588118Y-14431630D01*
X9873833Y-14431630D02*
X9902404Y-14431630D01*
X9930975Y-14445915D01*
X9945261Y-14460201D01*
X9959547Y-14488772D01*
X9973833Y-14545915D01*
X9973833Y-14617344D01*
X9959547Y-14674487D01*
X9945261Y-14703058D01*
X9930975Y-14717344D01*
X9902404Y-14731630D01*
X9873833Y-14731630D01*
X9845261Y-14717344D01*
X9830975Y-14703058D01*
X9816690Y-14674487D01*
X9802404Y-14617344D01*
X9802404Y-14545915D01*
X9816690Y-14488772D01*
X9830975Y-14460201D01*
X9845261Y-14445915D01*
X9873833Y-14431630D01*
X10102404Y-14731630D02*
X10102404Y-14531630D01*
X10102404Y-14560201D02*
X10116690Y-14545915D01*
X10145261Y-14531630D01*
X10188118Y-14531630D01*
X10216690Y-14545915D01*
X10230975Y-14574487D01*
X10230975Y-14731630D01*
X10230975Y-14574487D02*
X10245261Y-14545915D01*
X10273833Y-14531630D01*
X10316690Y-14531630D01*
X10345261Y-14545915D01*
X10359547Y-14574487D01*
X10359547Y-14731630D01*
X10502404Y-14731630D02*
X10502404Y-14531630D01*
X10502404Y-14560201D02*
X10516690Y-14545915D01*
X10545261Y-14531630D01*
X10588118Y-14531630D01*
X10616690Y-14545915D01*
X10630975Y-14574487D01*
X10630975Y-14731630D01*
X10630975Y-14574487D02*
X10645261Y-14545915D01*
X10673833Y-14531630D01*
X10716690Y-14531630D01*
X10745261Y-14545915D01*
X10759547Y-14574487D01*
X10759547Y-14731630D01*
X11345261Y-14417344D02*
X11088118Y-14803058D01*
X11730975Y-14431630D02*
X11759547Y-14431630D01*
X11788118Y-14445915D01*
X11802404Y-14460201D01*
X11816690Y-14488772D01*
X11830975Y-14545915D01*
X11830975Y-14617344D01*
X11816690Y-14674487D01*
X11802404Y-14703058D01*
X11788118Y-14717344D01*
X11759547Y-14731630D01*
X11730975Y-14731630D01*
X11702404Y-14717344D01*
X11688118Y-14703058D01*
X11673832Y-14674487D01*
X11659547Y-14617344D01*
X11659547Y-14545915D01*
X11673832Y-14488772D01*
X11688118Y-14460201D01*
X11702404Y-14445915D01*
X11730975Y-14431630D01*
X11959547Y-14703058D02*
X11973832Y-14717344D01*
X11959547Y-14731630D01*
X11945261Y-14717344D01*
X11959547Y-14703058D01*
X11959547Y-14731630D01*
X12159547Y-14431630D02*
X12188118Y-14431630D01*
X12216690Y-14445915D01*
X12230975Y-14460201D01*
X12245261Y-14488772D01*
X12259547Y-14545915D01*
X12259547Y-14617344D01*
X12245261Y-14674487D01*
X12230975Y-14703058D01*
X12216690Y-14717344D01*
X12188118Y-14731630D01*
X12159547Y-14731630D01*
X12130975Y-14717344D01*
X12116690Y-14703058D01*
X12102404Y-14674487D01*
X12088118Y-14617344D01*
X12088118Y-14545915D01*
X12102404Y-14488772D01*
X12116690Y-14460201D01*
X12130975Y-14445915D01*
X12159547Y-14431630D01*
X12545261Y-14731630D02*
X12373832Y-14731630D01*
X12459547Y-14731630D02*
X12459547Y-14431630D01*
X12430975Y-14474487D01*
X12402404Y-14503058D01*
X12373832Y-14517344D01*
X12816690Y-14431630D02*
X12673832Y-14431630D01*
X12659547Y-14574487D01*
X12673832Y-14560201D01*
X12702404Y-14545915D01*
X12773832Y-14545915D01*
X12802404Y-14560201D01*
X12816690Y-14574487D01*
X12830975Y-14603058D01*
X12830975Y-14674487D01*
X12816690Y-14703058D01*
X12802404Y-14717344D01*
X12773832Y-14731630D01*
X12702404Y-14731630D01*
X12673832Y-14717344D01*
X12659547Y-14703058D01*
X12930975Y-14431630D02*
X13130975Y-14431630D01*
X13002404Y-14731630D01*
X13230975Y-14431630D02*
X13230975Y-14488772D01*
X13345261Y-14431630D02*
X13345261Y-14488772D01*
X13788118Y-14845915D02*
X13773832Y-14831630D01*
X13745261Y-14788772D01*
X13730975Y-14760201D01*
X13716690Y-14717344D01*
X13702404Y-14645915D01*
X13702404Y-14588772D01*
X13716690Y-14517344D01*
X13730975Y-14474487D01*
X13745261Y-14445915D01*
X13773832Y-14403058D01*
X13788118Y-14388772D01*
X13916690Y-14731630D02*
X13973832Y-14731630D01*
X14002404Y-14717344D01*
X14016690Y-14703058D01*
X14045261Y-14660201D01*
X14059547Y-14603058D01*
X14059547Y-14488772D01*
X14045261Y-14460201D01*
X14030975Y-14445915D01*
X14002404Y-14431630D01*
X13945261Y-14431630D01*
X13916690Y-14445915D01*
X13902404Y-14460201D01*
X13888118Y-14488772D01*
X13888118Y-14560201D01*
X13902404Y-14588772D01*
X13916690Y-14603058D01*
X13945261Y-14617344D01*
X14002404Y-14617344D01*
X14030975Y-14603058D01*
X14045261Y-14588772D01*
X14059547Y-14560201D01*
X14316690Y-14431630D02*
X14259547Y-14431630D01*
X14230975Y-14445915D01*
X14216690Y-14460201D01*
X14188118Y-14503058D01*
X14173832Y-14560201D01*
X14173832Y-14674487D01*
X14188118Y-14703058D01*
X14202404Y-14717344D01*
X14230975Y-14731630D01*
X14288118Y-14731630D01*
X14316690Y-14717344D01*
X14330975Y-14703058D01*
X14345261Y-14674487D01*
X14345261Y-14603058D01*
X14330975Y-14574487D01*
X14316690Y-14560201D01*
X14288118Y-14545915D01*
X14230975Y-14545915D01*
X14202404Y-14560201D01*
X14188118Y-14574487D01*
X14173832Y-14603058D01*
X14702404Y-14731630D02*
X14702404Y-14431630D01*
X14830975Y-14731630D02*
X14830975Y-14574487D01*
X14816690Y-14545915D01*
X14788118Y-14531630D01*
X14745261Y-14531630D01*
X14716690Y-14545915D01*
X14702404Y-14560201D01*
X15016690Y-14731630D02*
X14988118Y-14717344D01*
X14973832Y-14703058D01*
X14959547Y-14674487D01*
X14959547Y-14588772D01*
X14973832Y-14560201D01*
X14988118Y-14545915D01*
X15016690Y-14531630D01*
X15059547Y-14531630D01*
X15088118Y-14545915D01*
X15102404Y-14560201D01*
X15116690Y-14588772D01*
X15116690Y-14674487D01*
X15102404Y-14703058D01*
X15088118Y-14717344D01*
X15059547Y-14731630D01*
X15016690Y-14731630D01*
X15288118Y-14731630D02*
X15259547Y-14717344D01*
X15245261Y-14688772D01*
X15245261Y-14431630D01*
X15516690Y-14717344D02*
X15488118Y-14731630D01*
X15430975Y-14731630D01*
X15402404Y-14717344D01*
X15388118Y-14688772D01*
X15388118Y-14574487D01*
X15402404Y-14545915D01*
X15430975Y-14531630D01*
X15488118Y-14531630D01*
X15516690Y-14545915D01*
X15530975Y-14574487D01*
X15530975Y-14603058D01*
X15388118Y-14631630D01*
X15645261Y-14717344D02*
X15673832Y-14731630D01*
X15730975Y-14731630D01*
X15759547Y-14717344D01*
X15773832Y-14688772D01*
X15773832Y-14674487D01*
X15759547Y-14645915D01*
X15730975Y-14631630D01*
X15688118Y-14631630D01*
X15659547Y-14617344D01*
X15645261Y-14588772D01*
X15645261Y-14574487D01*
X15659547Y-14545915D01*
X15688118Y-14531630D01*
X15730975Y-14531630D01*
X15759547Y-14545915D01*
X15873832Y-14845915D02*
X15888118Y-14831630D01*
X15916690Y-14788772D01*
X15930975Y-14760201D01*
X15945261Y-14717344D01*
X15959547Y-14645915D01*
X15959547Y-14588772D01*
X15945261Y-14517344D01*
X15930975Y-14474487D01*
X15916690Y-14445915D01*
X15888118Y-14403058D01*
X15873832Y-14388772D01*
X8530261Y-14991915D02*
G75*
G03*
X8530261Y-14991915I-40640J0D01*
G01*
X8873833Y-14827630D02*
X8902404Y-14827630D01*
X8930975Y-14841915D01*
X8945261Y-14856201D01*
X8959547Y-14884772D01*
X8973833Y-14941915D01*
X8973833Y-15013344D01*
X8959547Y-15070487D01*
X8945261Y-15099058D01*
X8930975Y-15113344D01*
X8902404Y-15127630D01*
X8873833Y-15127630D01*
X8845261Y-15113344D01*
X8830975Y-15099058D01*
X8816690Y-15070487D01*
X8802404Y-15013344D01*
X8802404Y-14941915D01*
X8816690Y-14884772D01*
X8830975Y-14856201D01*
X8845261Y-14841915D01*
X8873833Y-14827630D01*
X9102404Y-15099058D02*
X9116690Y-15113344D01*
X9102404Y-15127630D01*
X9088118Y-15113344D01*
X9102404Y-15099058D01*
X9102404Y-15127630D01*
X9288118Y-14956201D02*
X9259547Y-14941915D01*
X9245261Y-14927630D01*
X9230975Y-14899058D01*
X9230975Y-14884772D01*
X9245261Y-14856201D01*
X9259547Y-14841915D01*
X9288118Y-14827630D01*
X9345261Y-14827630D01*
X9373833Y-14841915D01*
X9388118Y-14856201D01*
X9402404Y-14884772D01*
X9402404Y-14899058D01*
X9388118Y-14927630D01*
X9373833Y-14941915D01*
X9345261Y-14956201D01*
X9288118Y-14956201D01*
X9259547Y-14970487D01*
X9245261Y-14984772D01*
X9230975Y-15013344D01*
X9230975Y-15070487D01*
X9245261Y-15099058D01*
X9259547Y-15113344D01*
X9288118Y-15127630D01*
X9345261Y-15127630D01*
X9373833Y-15113344D01*
X9388118Y-15099058D01*
X9402404Y-15070487D01*
X9402404Y-15013344D01*
X9388118Y-14984772D01*
X9373833Y-14970487D01*
X9345261Y-14956201D01*
X9688118Y-15127630D02*
X9516690Y-15127630D01*
X9602404Y-15127630D02*
X9602404Y-14827630D01*
X9573833Y-14870487D01*
X9545261Y-14899058D01*
X9516690Y-14913344D01*
X9788118Y-14827630D02*
X9973833Y-14827630D01*
X9873833Y-14941915D01*
X9916690Y-14941915D01*
X9945261Y-14956201D01*
X9959547Y-14970487D01*
X9973833Y-14999058D01*
X9973833Y-15070487D01*
X9959547Y-15099058D01*
X9945261Y-15113344D01*
X9916690Y-15127630D01*
X9830975Y-15127630D01*
X9802404Y-15113344D01*
X9788118Y-15099058D01*
X10102404Y-15127630D02*
X10102404Y-14927630D01*
X10102404Y-14956201D02*
X10116690Y-14941915D01*
X10145261Y-14927630D01*
X10188118Y-14927630D01*
X10216690Y-14941915D01*
X10230975Y-14970487D01*
X10230975Y-15127630D01*
X10230975Y-14970487D02*
X10245261Y-14941915D01*
X10273833Y-14927630D01*
X10316690Y-14927630D01*
X10345261Y-14941915D01*
X10359547Y-14970487D01*
X10359547Y-15127630D01*
X10502404Y-15127630D02*
X10502404Y-14927630D01*
X10502404Y-14956201D02*
X10516690Y-14941915D01*
X10545261Y-14927630D01*
X10588118Y-14927630D01*
X10616690Y-14941915D01*
X10630975Y-14970487D01*
X10630975Y-15127630D01*
X10630975Y-14970487D02*
X10645261Y-14941915D01*
X10673833Y-14927630D01*
X10716690Y-14927630D01*
X10745261Y-14941915D01*
X10759547Y-14970487D01*
X10759547Y-15127630D01*
X11345261Y-14813344D02*
X11088118Y-15199058D01*
X11730975Y-14827630D02*
X11759547Y-14827630D01*
X11788118Y-14841915D01*
X11802404Y-14856201D01*
X11816690Y-14884772D01*
X11830975Y-14941915D01*
X11830975Y-15013344D01*
X11816690Y-15070487D01*
X11802404Y-15099058D01*
X11788118Y-15113344D01*
X11759547Y-15127630D01*
X11730975Y-15127630D01*
X11702404Y-15113344D01*
X11688118Y-15099058D01*
X11673832Y-15070487D01*
X11659547Y-15013344D01*
X11659547Y-14941915D01*
X11673832Y-14884772D01*
X11688118Y-14856201D01*
X11702404Y-14841915D01*
X11730975Y-14827630D01*
X11959547Y-15099058D02*
X11973832Y-15113344D01*
X11959547Y-15127630D01*
X11945261Y-15113344D01*
X11959547Y-15099058D01*
X11959547Y-15127630D01*
X12159547Y-14827630D02*
X12188118Y-14827630D01*
X12216690Y-14841915D01*
X12230975Y-14856201D01*
X12245261Y-14884772D01*
X12259547Y-14941915D01*
X12259547Y-15013344D01*
X12245261Y-15070487D01*
X12230975Y-15099058D01*
X12216690Y-15113344D01*
X12188118Y-15127630D01*
X12159547Y-15127630D01*
X12130975Y-15113344D01*
X12116690Y-15099058D01*
X12102404Y-15070487D01*
X12088118Y-15013344D01*
X12088118Y-14941915D01*
X12102404Y-14884772D01*
X12116690Y-14856201D01*
X12130975Y-14841915D01*
X12159547Y-14827630D01*
X12359547Y-14827630D02*
X12545261Y-14827630D01*
X12445261Y-14941915D01*
X12488118Y-14941915D01*
X12516690Y-14956201D01*
X12530975Y-14970487D01*
X12545261Y-14999058D01*
X12545261Y-15070487D01*
X12530975Y-15099058D01*
X12516690Y-15113344D01*
X12488118Y-15127630D01*
X12402404Y-15127630D01*
X12373832Y-15113344D01*
X12359547Y-15099058D01*
X12659547Y-14856201D02*
X12673832Y-14841915D01*
X12702404Y-14827630D01*
X12773832Y-14827630D01*
X12802404Y-14841915D01*
X12816690Y-14856201D01*
X12830975Y-14884772D01*
X12830975Y-14913344D01*
X12816690Y-14956201D01*
X12645261Y-15127630D01*
X12830975Y-15127630D01*
X13016690Y-14827630D02*
X13045261Y-14827630D01*
X13073832Y-14841915D01*
X13088118Y-14856201D01*
X13102404Y-14884772D01*
X13116690Y-14941915D01*
X13116690Y-15013344D01*
X13102404Y-15070487D01*
X13088118Y-15099058D01*
X13073832Y-15113344D01*
X13045261Y-15127630D01*
X13016690Y-15127630D01*
X12988118Y-15113344D01*
X12973832Y-15099058D01*
X12959547Y-15070487D01*
X12945261Y-15013344D01*
X12945261Y-14941915D01*
X12959547Y-14884772D01*
X12973832Y-14856201D01*
X12988118Y-14841915D01*
X13016690Y-14827630D01*
X13230975Y-14827630D02*
X13230975Y-14884772D01*
X13345261Y-14827630D02*
X13345261Y-14884772D01*
X13788118Y-15241915D02*
X13773832Y-15227630D01*
X13745261Y-15184772D01*
X13730975Y-15156201D01*
X13716690Y-15113344D01*
X13702404Y-15041915D01*
X13702404Y-14984772D01*
X13716690Y-14913344D01*
X13730975Y-14870487D01*
X13745261Y-14841915D01*
X13773832Y-14799058D01*
X13788118Y-14784772D01*
X13888118Y-14856201D02*
X13902404Y-14841915D01*
X13930975Y-14827630D01*
X14002404Y-14827630D01*
X14030975Y-14841915D01*
X14045261Y-14856201D01*
X14059547Y-14884772D01*
X14059547Y-14913344D01*
X14045261Y-14956201D01*
X13873832Y-15127630D01*
X14059547Y-15127630D01*
X14230975Y-14956201D02*
X14202404Y-14941915D01*
X14188118Y-14927630D01*
X14173832Y-14899058D01*
X14173832Y-14884772D01*
X14188118Y-14856201D01*
X14202404Y-14841915D01*
X14230975Y-14827630D01*
X14288118Y-14827630D01*
X14316690Y-14841915D01*
X14330975Y-14856201D01*
X14345261Y-14884772D01*
X14345261Y-14899058D01*
X14330975Y-14927630D01*
X14316690Y-14941915D01*
X14288118Y-14956201D01*
X14230975Y-14956201D01*
X14202404Y-14970487D01*
X14188118Y-14984772D01*
X14173832Y-15013344D01*
X14173832Y-15070487D01*
X14188118Y-15099058D01*
X14202404Y-15113344D01*
X14230975Y-15127630D01*
X14288118Y-15127630D01*
X14316690Y-15113344D01*
X14330975Y-15099058D01*
X14345261Y-15070487D01*
X14345261Y-15013344D01*
X14330975Y-14984772D01*
X14316690Y-14970487D01*
X14288118Y-14956201D01*
X14702404Y-15127630D02*
X14702404Y-14827630D01*
X14830975Y-15127630D02*
X14830975Y-14970487D01*
X14816690Y-14941915D01*
X14788118Y-14927630D01*
X14745261Y-14927630D01*
X14716690Y-14941915D01*
X14702404Y-14956201D01*
X15016690Y-15127630D02*
X14988118Y-15113344D01*
X14973832Y-15099058D01*
X14959547Y-15070487D01*
X14959547Y-14984772D01*
X14973832Y-14956201D01*
X14988118Y-14941915D01*
X15016690Y-14927630D01*
X15059547Y-14927630D01*
X15088118Y-14941915D01*
X15102404Y-14956201D01*
X15116690Y-14984772D01*
X15116690Y-15070487D01*
X15102404Y-15099058D01*
X15088118Y-15113344D01*
X15059547Y-15127630D01*
X15016690Y-15127630D01*
X15288118Y-15127630D02*
X15259547Y-15113344D01*
X15245261Y-15084772D01*
X15245261Y-14827630D01*
X15516690Y-15113344D02*
X15488118Y-15127630D01*
X15430975Y-15127630D01*
X15402404Y-15113344D01*
X15388118Y-15084772D01*
X15388118Y-14970487D01*
X15402404Y-14941915D01*
X15430975Y-14927630D01*
X15488118Y-14927630D01*
X15516690Y-14941915D01*
X15530975Y-14970487D01*
X15530975Y-14999058D01*
X15388118Y-15027630D01*
X15645261Y-15113344D02*
X15673832Y-15127630D01*
X15730975Y-15127630D01*
X15759547Y-15113344D01*
X15773832Y-15084772D01*
X15773832Y-15070487D01*
X15759547Y-15041915D01*
X15730975Y-15027630D01*
X15688118Y-15027630D01*
X15659547Y-15013344D01*
X15645261Y-14984772D01*
X15645261Y-14970487D01*
X15659547Y-14941915D01*
X15688118Y-14927630D01*
X15730975Y-14927630D01*
X15759547Y-14941915D01*
X15873832Y-15241915D02*
X15888118Y-15227630D01*
X15916690Y-15184772D01*
X15930975Y-15156201D01*
X15945261Y-15113344D01*
X15959547Y-15041915D01*
X15959547Y-14984772D01*
X15945261Y-14913344D01*
X15930975Y-14870487D01*
X15916690Y-14841915D01*
X15888118Y-14799058D01*
X15873832Y-14784772D01*
X8480261Y-15337915D02*
X8480261Y-15437915D01*
X8430261Y-15387915D02*
X8530261Y-15387915D01*
X8973833Y-15523630D02*
X8802404Y-15523630D01*
X8888118Y-15523630D02*
X8888118Y-15223630D01*
X8859547Y-15266487D01*
X8830975Y-15295058D01*
X8802404Y-15309344D01*
X9102404Y-15495058D02*
X9116690Y-15509344D01*
X9102404Y-15523630D01*
X9088118Y-15509344D01*
X9102404Y-15495058D01*
X9102404Y-15523630D01*
X9302404Y-15223630D02*
X9330975Y-15223630D01*
X9359547Y-15237915D01*
X9373833Y-15252201D01*
X9388118Y-15280772D01*
X9402404Y-15337915D01*
X9402404Y-15409344D01*
X9388118Y-15466487D01*
X9373833Y-15495058D01*
X9359547Y-15509344D01*
X9330975Y-15523630D01*
X9302404Y-15523630D01*
X9273833Y-15509344D01*
X9259547Y-15495058D01*
X9245261Y-15466487D01*
X9230975Y-15409344D01*
X9230975Y-15337915D01*
X9245261Y-15280772D01*
X9259547Y-15252201D01*
X9273833Y-15237915D01*
X9302404Y-15223630D01*
X9588118Y-15223630D02*
X9616690Y-15223630D01*
X9645261Y-15237915D01*
X9659547Y-15252201D01*
X9673833Y-15280772D01*
X9688118Y-15337915D01*
X9688118Y-15409344D01*
X9673833Y-15466487D01*
X9659547Y-15495058D01*
X9645261Y-15509344D01*
X9616690Y-15523630D01*
X9588118Y-15523630D01*
X9559547Y-15509344D01*
X9545261Y-15495058D01*
X9530975Y-15466487D01*
X9516690Y-15409344D01*
X9516690Y-15337915D01*
X9530975Y-15280772D01*
X9545261Y-15252201D01*
X9559547Y-15237915D01*
X9588118Y-15223630D01*
X9873833Y-15223630D02*
X9902404Y-15223630D01*
X9930975Y-15237915D01*
X9945261Y-15252201D01*
X9959547Y-15280772D01*
X9973833Y-15337915D01*
X9973833Y-15409344D01*
X9959547Y-15466487D01*
X9945261Y-15495058D01*
X9930975Y-15509344D01*
X9902404Y-15523630D01*
X9873833Y-15523630D01*
X9845261Y-15509344D01*
X9830975Y-15495058D01*
X9816690Y-15466487D01*
X9802404Y-15409344D01*
X9802404Y-15337915D01*
X9816690Y-15280772D01*
X9830975Y-15252201D01*
X9845261Y-15237915D01*
X9873833Y-15223630D01*
X10102404Y-15523630D02*
X10102404Y-15323630D01*
X10102404Y-15352201D02*
X10116690Y-15337915D01*
X10145261Y-15323630D01*
X10188118Y-15323630D01*
X10216690Y-15337915D01*
X10230975Y-15366487D01*
X10230975Y-15523630D01*
X10230975Y-15366487D02*
X10245261Y-15337915D01*
X10273833Y-15323630D01*
X10316690Y-15323630D01*
X10345261Y-15337915D01*
X10359547Y-15366487D01*
X10359547Y-15523630D01*
X10502404Y-15523630D02*
X10502404Y-15323630D01*
X10502404Y-15352201D02*
X10516690Y-15337915D01*
X10545261Y-15323630D01*
X10588118Y-15323630D01*
X10616690Y-15337915D01*
X10630975Y-15366487D01*
X10630975Y-15523630D01*
X10630975Y-15366487D02*
X10645261Y-15337915D01*
X10673833Y-15323630D01*
X10716690Y-15323630D01*
X10745261Y-15337915D01*
X10759547Y-15366487D01*
X10759547Y-15523630D01*
X11345261Y-15209344D02*
X11088118Y-15595058D01*
X11730975Y-15223630D02*
X11759547Y-15223630D01*
X11788118Y-15237915D01*
X11802404Y-15252201D01*
X11816690Y-15280772D01*
X11830975Y-15337915D01*
X11830975Y-15409344D01*
X11816690Y-15466487D01*
X11802404Y-15495058D01*
X11788118Y-15509344D01*
X11759547Y-15523630D01*
X11730975Y-15523630D01*
X11702404Y-15509344D01*
X11688118Y-15495058D01*
X11673832Y-15466487D01*
X11659547Y-15409344D01*
X11659547Y-15337915D01*
X11673832Y-15280772D01*
X11688118Y-15252201D01*
X11702404Y-15237915D01*
X11730975Y-15223630D01*
X11959547Y-15495058D02*
X11973832Y-15509344D01*
X11959547Y-15523630D01*
X11945261Y-15509344D01*
X11959547Y-15495058D01*
X11959547Y-15523630D01*
X12159547Y-15223630D02*
X12188118Y-15223630D01*
X12216690Y-15237915D01*
X12230975Y-15252201D01*
X12245261Y-15280772D01*
X12259547Y-15337915D01*
X12259547Y-15409344D01*
X12245261Y-15466487D01*
X12230975Y-15495058D01*
X12216690Y-15509344D01*
X12188118Y-15523630D01*
X12159547Y-15523630D01*
X12130975Y-15509344D01*
X12116690Y-15495058D01*
X12102404Y-15466487D01*
X12088118Y-15409344D01*
X12088118Y-15337915D01*
X12102404Y-15280772D01*
X12116690Y-15252201D01*
X12130975Y-15237915D01*
X12159547Y-15223630D01*
X12359547Y-15223630D02*
X12545261Y-15223630D01*
X12445261Y-15337915D01*
X12488118Y-15337915D01*
X12516690Y-15352201D01*
X12530975Y-15366487D01*
X12545261Y-15395058D01*
X12545261Y-15466487D01*
X12530975Y-15495058D01*
X12516690Y-15509344D01*
X12488118Y-15523630D01*
X12402404Y-15523630D01*
X12373832Y-15509344D01*
X12359547Y-15495058D01*
X12688118Y-15523630D02*
X12745261Y-15523630D01*
X12773832Y-15509344D01*
X12788118Y-15495058D01*
X12816690Y-15452201D01*
X12830975Y-15395058D01*
X12830975Y-15280772D01*
X12816690Y-15252201D01*
X12802404Y-15237915D01*
X12773832Y-15223630D01*
X12716690Y-15223630D01*
X12688118Y-15237915D01*
X12673832Y-15252201D01*
X12659547Y-15280772D01*
X12659547Y-15352201D01*
X12673832Y-15380772D01*
X12688118Y-15395058D01*
X12716690Y-15409344D01*
X12773832Y-15409344D01*
X12802404Y-15395058D01*
X12816690Y-15380772D01*
X12830975Y-15352201D01*
X13088118Y-15323630D02*
X13088118Y-15523630D01*
X13016690Y-15209344D02*
X12945261Y-15423630D01*
X13130975Y-15423630D01*
X13230975Y-15223630D02*
X13230975Y-15280772D01*
X13345261Y-15223630D02*
X13345261Y-15280772D01*
X13788118Y-15637915D02*
X13773832Y-15623630D01*
X13745261Y-15580772D01*
X13730975Y-15552201D01*
X13716690Y-15509344D01*
X13702404Y-15437915D01*
X13702404Y-15380772D01*
X13716690Y-15309344D01*
X13730975Y-15266487D01*
X13745261Y-15237915D01*
X13773832Y-15195058D01*
X13788118Y-15180772D01*
X13959547Y-15223630D02*
X13988118Y-15223630D01*
X14016690Y-15237915D01*
X14030975Y-15252201D01*
X14045261Y-15280772D01*
X14059547Y-15337915D01*
X14059547Y-15409344D01*
X14045261Y-15466487D01*
X14030975Y-15495058D01*
X14016690Y-15509344D01*
X13988118Y-15523630D01*
X13959547Y-15523630D01*
X13930975Y-15509344D01*
X13916690Y-15495058D01*
X13902404Y-15466487D01*
X13888118Y-15409344D01*
X13888118Y-15337915D01*
X13902404Y-15280772D01*
X13916690Y-15252201D01*
X13930975Y-15237915D01*
X13959547Y-15223630D01*
X14416690Y-15523630D02*
X14416690Y-15223630D01*
X14545261Y-15523630D02*
X14545261Y-15366487D01*
X14530975Y-15337915D01*
X14502404Y-15323630D01*
X14459547Y-15323630D01*
X14430975Y-15337915D01*
X14416690Y-15352201D01*
X14730975Y-15523630D02*
X14702404Y-15509344D01*
X14688118Y-15495058D01*
X14673832Y-15466487D01*
X14673832Y-15380772D01*
X14688118Y-15352201D01*
X14702404Y-15337915D01*
X14730975Y-15323630D01*
X14773832Y-15323630D01*
X14802404Y-15337915D01*
X14816690Y-15352201D01*
X14830975Y-15380772D01*
X14830975Y-15466487D01*
X14816690Y-15495058D01*
X14802404Y-15509344D01*
X14773832Y-15523630D01*
X14730975Y-15523630D01*
X15002404Y-15523630D02*
X14973832Y-15509344D01*
X14959547Y-15480772D01*
X14959547Y-15223630D01*
X15230975Y-15509344D02*
X15202404Y-15523630D01*
X15145261Y-15523630D01*
X15116690Y-15509344D01*
X15102404Y-15480772D01*
X15102404Y-15366487D01*
X15116690Y-15337915D01*
X15145261Y-15323630D01*
X15202404Y-15323630D01*
X15230975Y-15337915D01*
X15245261Y-15366487D01*
X15245261Y-15395058D01*
X15102404Y-15423630D01*
X15359547Y-15509344D02*
X15388118Y-15523630D01*
X15445261Y-15523630D01*
X15473832Y-15509344D01*
X15488118Y-15480772D01*
X15488118Y-15466487D01*
X15473832Y-15437915D01*
X15445261Y-15423630D01*
X15402404Y-15423630D01*
X15373832Y-15409344D01*
X15359547Y-15380772D01*
X15359547Y-15366487D01*
X15373832Y-15337915D01*
X15402404Y-15323630D01*
X15445261Y-15323630D01*
X15473832Y-15337915D01*
X15845261Y-15409344D02*
X16073832Y-15409344D01*
X15959547Y-15523630D02*
X15959547Y-15295058D01*
X16573832Y-15323630D02*
X16573832Y-15523630D01*
X16502404Y-15209344D02*
X16430975Y-15423630D01*
X16616690Y-15423630D01*
X16945261Y-15509344D02*
X16973833Y-15523630D01*
X17030975Y-15523630D01*
X17059547Y-15509344D01*
X17073833Y-15480772D01*
X17073833Y-15466487D01*
X17059547Y-15437915D01*
X17030975Y-15423630D01*
X16988118Y-15423630D01*
X16959547Y-15409344D01*
X16945261Y-15380772D01*
X16945261Y-15366487D01*
X16959547Y-15337915D01*
X16988118Y-15323630D01*
X17030975Y-15323630D01*
X17059547Y-15337915D01*
X17245261Y-15523630D02*
X17216690Y-15509344D01*
X17202404Y-15480772D01*
X17202404Y-15223630D01*
X17402404Y-15523630D02*
X17373833Y-15509344D01*
X17359547Y-15495058D01*
X17345261Y-15466487D01*
X17345261Y-15380772D01*
X17359547Y-15352201D01*
X17373833Y-15337915D01*
X17402404Y-15323630D01*
X17445261Y-15323630D01*
X17473833Y-15337915D01*
X17488118Y-15352201D01*
X17502404Y-15380772D01*
X17502404Y-15466487D01*
X17488118Y-15495058D01*
X17473833Y-15509344D01*
X17445261Y-15523630D01*
X17402404Y-15523630D01*
X17588118Y-15323630D02*
X17702404Y-15323630D01*
X17630975Y-15223630D02*
X17630975Y-15480772D01*
X17645261Y-15509344D01*
X17673833Y-15523630D01*
X17702404Y-15523630D01*
X17788118Y-15509344D02*
X17816690Y-15523630D01*
X17873833Y-15523630D01*
X17902404Y-15509344D01*
X17916690Y-15480772D01*
X17916690Y-15466487D01*
X17902404Y-15437915D01*
X17873833Y-15423630D01*
X17830975Y-15423630D01*
X17802404Y-15409344D01*
X17788118Y-15380772D01*
X17788118Y-15366487D01*
X17802404Y-15337915D01*
X17830975Y-15323630D01*
X17873833Y-15323630D01*
X17902404Y-15337915D01*
X18016690Y-15637915D02*
X18030975Y-15623630D01*
X18059547Y-15580772D01*
X18073833Y-15552201D01*
X18088118Y-15509344D01*
X18102404Y-15437915D01*
X18102404Y-15380772D01*
X18088118Y-15309344D01*
X18073833Y-15266487D01*
X18059547Y-15237915D01*
X18030975Y-15195058D01*
X18016690Y-15180772D01*
X8511224Y-15829878D02*
X8511224Y-15737953D01*
X8419299Y-15737953D01*
X8419299Y-15829878D01*
X8511224Y-15829878D01*
X8973833Y-15919630D02*
X8802404Y-15919630D01*
X8888118Y-15919630D02*
X8888118Y-15619630D01*
X8859547Y-15662487D01*
X8830975Y-15691058D01*
X8802404Y-15705344D01*
X9102404Y-15891058D02*
X9116690Y-15905344D01*
X9102404Y-15919630D01*
X9088118Y-15905344D01*
X9102404Y-15891058D01*
X9102404Y-15919630D01*
X9216690Y-15619630D02*
X9402404Y-15619630D01*
X9302404Y-15733915D01*
X9345261Y-15733915D01*
X9373833Y-15748201D01*
X9388118Y-15762487D01*
X9402404Y-15791058D01*
X9402404Y-15862487D01*
X9388118Y-15891058D01*
X9373833Y-15905344D01*
X9345261Y-15919630D01*
X9259547Y-15919630D01*
X9230975Y-15905344D01*
X9216690Y-15891058D01*
X9588118Y-15619630D02*
X9616690Y-15619630D01*
X9645261Y-15633915D01*
X9659547Y-15648201D01*
X9673833Y-15676772D01*
X9688118Y-15733915D01*
X9688118Y-15805344D01*
X9673833Y-15862487D01*
X9659547Y-15891058D01*
X9645261Y-15905344D01*
X9616690Y-15919630D01*
X9588118Y-15919630D01*
X9559547Y-15905344D01*
X9545261Y-15891058D01*
X9530975Y-15862487D01*
X9516690Y-15805344D01*
X9516690Y-15733915D01*
X9530975Y-15676772D01*
X9545261Y-15648201D01*
X9559547Y-15633915D01*
X9588118Y-15619630D01*
X9873833Y-15619630D02*
X9902404Y-15619630D01*
X9930975Y-15633915D01*
X9945261Y-15648201D01*
X9959547Y-15676772D01*
X9973833Y-15733915D01*
X9973833Y-15805344D01*
X9959547Y-15862487D01*
X9945261Y-15891058D01*
X9930975Y-15905344D01*
X9902404Y-15919630D01*
X9873833Y-15919630D01*
X9845261Y-15905344D01*
X9830975Y-15891058D01*
X9816690Y-15862487D01*
X9802404Y-15805344D01*
X9802404Y-15733915D01*
X9816690Y-15676772D01*
X9830975Y-15648201D01*
X9845261Y-15633915D01*
X9873833Y-15619630D01*
X10102404Y-15919630D02*
X10102404Y-15719630D01*
X10102404Y-15748201D02*
X10116690Y-15733915D01*
X10145261Y-15719630D01*
X10188118Y-15719630D01*
X10216690Y-15733915D01*
X10230975Y-15762487D01*
X10230975Y-15919630D01*
X10230975Y-15762487D02*
X10245261Y-15733915D01*
X10273833Y-15719630D01*
X10316690Y-15719630D01*
X10345261Y-15733915D01*
X10359547Y-15762487D01*
X10359547Y-15919630D01*
X10502404Y-15919630D02*
X10502404Y-15719630D01*
X10502404Y-15748201D02*
X10516690Y-15733915D01*
X10545261Y-15719630D01*
X10588118Y-15719630D01*
X10616690Y-15733915D01*
X10630975Y-15762487D01*
X10630975Y-15919630D01*
X10630975Y-15762487D02*
X10645261Y-15733915D01*
X10673833Y-15719630D01*
X10716690Y-15719630D01*
X10745261Y-15733915D01*
X10759547Y-15762487D01*
X10759547Y-15919630D01*
X11345261Y-15605344D02*
X11088118Y-15991058D01*
X11730975Y-15619630D02*
X11759547Y-15619630D01*
X11788118Y-15633915D01*
X11802404Y-15648201D01*
X11816690Y-15676772D01*
X11830975Y-15733915D01*
X11830975Y-15805344D01*
X11816690Y-15862487D01*
X11802404Y-15891058D01*
X11788118Y-15905344D01*
X11759547Y-15919630D01*
X11730975Y-15919630D01*
X11702404Y-15905344D01*
X11688118Y-15891058D01*
X11673832Y-15862487D01*
X11659547Y-15805344D01*
X11659547Y-15733915D01*
X11673832Y-15676772D01*
X11688118Y-15648201D01*
X11702404Y-15633915D01*
X11730975Y-15619630D01*
X11959547Y-15891058D02*
X11973832Y-15905344D01*
X11959547Y-15919630D01*
X11945261Y-15905344D01*
X11959547Y-15891058D01*
X11959547Y-15919630D01*
X12159547Y-15619630D02*
X12188118Y-15619630D01*
X12216690Y-15633915D01*
X12230975Y-15648201D01*
X12245261Y-15676772D01*
X12259547Y-15733915D01*
X12259547Y-15805344D01*
X12245261Y-15862487D01*
X12230975Y-15891058D01*
X12216690Y-15905344D01*
X12188118Y-15919630D01*
X12159547Y-15919630D01*
X12130975Y-15905344D01*
X12116690Y-15891058D01*
X12102404Y-15862487D01*
X12088118Y-15805344D01*
X12088118Y-15733915D01*
X12102404Y-15676772D01*
X12116690Y-15648201D01*
X12130975Y-15633915D01*
X12159547Y-15619630D01*
X12530975Y-15619630D02*
X12388118Y-15619630D01*
X12373832Y-15762487D01*
X12388118Y-15748201D01*
X12416690Y-15733915D01*
X12488118Y-15733915D01*
X12516690Y-15748201D01*
X12530975Y-15762487D01*
X12545261Y-15791058D01*
X12545261Y-15862487D01*
X12530975Y-15891058D01*
X12516690Y-15905344D01*
X12488118Y-15919630D01*
X12416690Y-15919630D01*
X12388118Y-15905344D01*
X12373832Y-15891058D01*
X12830975Y-15919630D02*
X12659547Y-15919630D01*
X12745261Y-15919630D02*
X12745261Y-15619630D01*
X12716690Y-15662487D01*
X12688118Y-15691058D01*
X12659547Y-15705344D01*
X12945261Y-15648201D02*
X12959547Y-15633915D01*
X12988118Y-15619630D01*
X13059547Y-15619630D01*
X13088118Y-15633915D01*
X13102404Y-15648201D01*
X13116690Y-15676772D01*
X13116690Y-15705344D01*
X13102404Y-15748201D01*
X12930975Y-15919630D01*
X13116690Y-15919630D01*
X13230975Y-15619630D02*
X13230975Y-15676772D01*
X13345261Y-15619630D02*
X13345261Y-15676772D01*
X13788118Y-16033915D02*
X13773832Y-16019630D01*
X13745261Y-15976772D01*
X13730975Y-15948201D01*
X13716690Y-15905344D01*
X13702404Y-15833915D01*
X13702404Y-15776772D01*
X13716690Y-15705344D01*
X13730975Y-15662487D01*
X13745261Y-15633915D01*
X13773832Y-15591058D01*
X13788118Y-15576772D01*
X13888118Y-15648201D02*
X13902404Y-15633915D01*
X13930975Y-15619630D01*
X14002404Y-15619630D01*
X14030975Y-15633915D01*
X14045261Y-15648201D01*
X14059547Y-15676772D01*
X14059547Y-15705344D01*
X14045261Y-15748201D01*
X13873832Y-15919630D01*
X14059547Y-15919630D01*
X14416690Y-15919630D02*
X14416690Y-15619630D01*
X14545261Y-15919630D02*
X14545261Y-15762487D01*
X14530975Y-15733915D01*
X14502404Y-15719630D01*
X14459547Y-15719630D01*
X14430975Y-15733915D01*
X14416690Y-15748201D01*
X14730975Y-15919630D02*
X14702404Y-15905344D01*
X14688118Y-15891058D01*
X14673832Y-15862487D01*
X14673832Y-15776772D01*
X14688118Y-15748201D01*
X14702404Y-15733915D01*
X14730975Y-15719630D01*
X14773832Y-15719630D01*
X14802404Y-15733915D01*
X14816690Y-15748201D01*
X14830975Y-15776772D01*
X14830975Y-15862487D01*
X14816690Y-15891058D01*
X14802404Y-15905344D01*
X14773832Y-15919630D01*
X14730975Y-15919630D01*
X15002404Y-15919630D02*
X14973832Y-15905344D01*
X14959547Y-15876772D01*
X14959547Y-15619630D01*
X15230975Y-15905344D02*
X15202404Y-15919630D01*
X15145261Y-15919630D01*
X15116690Y-15905344D01*
X15102404Y-15876772D01*
X15102404Y-15762487D01*
X15116690Y-15733915D01*
X15145261Y-15719630D01*
X15202404Y-15719630D01*
X15230975Y-15733915D01*
X15245261Y-15762487D01*
X15245261Y-15791058D01*
X15102404Y-15819630D01*
X15359547Y-15905344D02*
X15388118Y-15919630D01*
X15445261Y-15919630D01*
X15473832Y-15905344D01*
X15488118Y-15876772D01*
X15488118Y-15862487D01*
X15473832Y-15833915D01*
X15445261Y-15819630D01*
X15402404Y-15819630D01*
X15373832Y-15805344D01*
X15359547Y-15776772D01*
X15359547Y-15762487D01*
X15373832Y-15733915D01*
X15402404Y-15719630D01*
X15445261Y-15719630D01*
X15473832Y-15733915D01*
X15588118Y-16033915D02*
X15602404Y-16019630D01*
X15630975Y-15976772D01*
X15645261Y-15948201D01*
X15659547Y-15905344D01*
X15673832Y-15833915D01*
X15673832Y-15776772D01*
X15659547Y-15705344D01*
X15645261Y-15662487D01*
X15630975Y-15633915D01*
X15602404Y-15591058D01*
X15588118Y-15576772D01*
M02*
