M48
; DRILL file {KiCad (5.1.10)-1} date 11/26/21 09:39:00
; FORMAT={-:-/ absolute / metric / decimal}
; #@! TF.CreationDate,2021-11-26T09:39:00+07:00
; #@! TF.GenerationSoftware,Kicad,Pcbnew,(5.1.10)-1
; #@! TF.FileFunction,NonPlated,1,2,NPTH
FMAT,2
METRIC
T1C1.200
T2C1.900
T3C2.200
T4C3.000
T5C4.100
T6C4.300
%
G90
G05
T1
X87.489Y-99.162
X94.489Y-99.162
T2
X97.776Y-115.643
X102.856Y-124.441
X109.98Y-58.297
X109.986Y-77.292
X109.986Y-96.292
X117.66Y-117.607
X120.139Y-58.297
X120.146Y-77.292
X120.146Y-96.292
X127.473Y-114.977
X128.987Y-55.917
X128.987Y-74.917
X128.987Y-93.917
X138.487Y-113.542
X139.147Y-55.917
X139.147Y-74.917
X139.147Y-93.917
X147.987Y-53.542
X147.987Y-72.542
X147.987Y-91.542
X148.647Y-113.542
X158.147Y-53.542
X158.147Y-72.542
X158.147Y-91.542
X166.987Y-55.917
X166.987Y-74.917
X166.987Y-93.917
X177.147Y-55.917
X177.147Y-74.917
X177.147Y-93.917
X185.986Y-60.667
X185.986Y-79.667
X185.986Y-98.667
X196.147Y-60.667
X196.147Y-79.667
X196.147Y-98.667
X204.986Y-60.667
X204.986Y-79.667
X204.986Y-98.667
X215.147Y-60.667
X215.147Y-79.667
X215.147Y-98.667
T3
X87.87Y-107.677
X102.302Y-99.156
T4
X100.611Y-115.472
X105.986Y-119.702
X111.249Y-55.757
X111.256Y-74.752
X111.256Y-93.752
X117.599Y-53.217
X117.606Y-72.212
X117.606Y-91.212
X118.229Y-114.825
X123.705Y-110.728
X130.256Y-53.377
X130.256Y-72.377
X130.256Y-91.377
X136.606Y-50.837
X136.606Y-69.837
X136.606Y-88.837
X139.756Y-111.002
X146.106Y-108.462
X149.256Y-51.002
X149.256Y-70.002
X149.256Y-89.002
X155.606Y-48.462
X155.606Y-67.462
X155.606Y-86.462
X168.256Y-53.377
X168.256Y-72.377
X168.256Y-91.377
X174.606Y-50.837
X174.606Y-69.837
X174.606Y-88.837
X187.256Y-58.127
X187.256Y-77.127
X187.256Y-96.127
X193.606Y-55.587
X193.606Y-74.587
X193.606Y-93.587
X206.256Y-58.127
X206.256Y-77.127
X206.256Y-96.127
X212.606Y-55.587
X212.606Y-74.587
X212.606Y-93.587
T5
X100.316Y-120.042
X115.059Y-58.297
X115.066Y-77.292
X115.066Y-96.292
X122.566Y-116.292
X134.066Y-55.917
X134.066Y-74.917
X134.066Y-93.917
X143.566Y-113.542
X153.066Y-53.542
X153.066Y-72.542
X153.066Y-91.542
X172.066Y-55.917
X172.066Y-74.917
X172.066Y-93.917
X191.066Y-60.667
X191.066Y-79.667
X191.066Y-98.667
X210.066Y-60.667
X210.066Y-79.667
X210.066Y-98.667
T6
X110.841Y-114.037
X124.596Y-66.668
X157.407Y-106.422
X200.552Y-70.157
X200.552Y-89.157
T0
M30
